<svg xmlns="http://www.w3.org/2000/svg" xmlns:xlink="http://www.w3.org/1999/xlink">
  <symbol id="icon-behance" viewBox="0 0 32 32">
    <path fill="#1769ff" d="M9.251 6.004c0.936 0 1.787 0.080 2.56 0.251 0.769 0.173 1.427 0.44 1.98 0.813 0.547 0.373 0.977 0.867 1.28 1.493 0.3 0.627 0.453 1.4 0.453 2.307 0 0.987-0.227 1.813-0.676 2.48-0.451 0.667-1.116 1.2-2.003 1.627 1.208 0.347 2.101 0.96 2.696 1.827 0.597 0.88 0.887 1.933 0.887 3.147 0 1-0.173 1.853-0.547 2.573-0.373 0.733-0.893 1.333-1.547 1.8-0.64 0.464-1.4 0.8-2.227 1.023-0.813 0.22-1.669 0.339-2.547 0.339h-9.561v-19.669h9.251zM22.587 22.22c0.587 0.571 1.431 0.857 2.525 0.857 0.787 0 1.467-0.197 2.040-0.596 0.565-0.387 0.907-0.813 1.040-1.253h3.451c-0.537 1.707-1.397 2.933-2.533 3.667-1.133 0.747-2.512 1.107-4.107 1.107-1.116 0-2.112-0.173-3.029-0.533-0.897-0.36-1.653-0.867-2.293-1.52-0.619-0.653-1.097-1.44-1.436-2.36-0.337-0.92-0.497-1.933-0.497-3.027 0-1.071 0.18-2.053 0.537-2.973 0.36-0.933 0.859-1.707 1.493-2.387 0.66-0.68 1.417-1.193 2.315-1.592s1.867-0.577 2.96-0.577c1.213 0 2.253 0.219 3.173 0.697 0.893 0.453 1.627 1.093 2.213 1.867 0.587 0.781 1 1.68 1.253 2.693 0.253 1 0.333 2.053 0.28 3.173h-10.253c0 1.12 0.373 2.176 0.947 2.753l-0.107 0.040zM8.933 22.287c0.423 0 0.827-0.040 1.208-0.124 0.387-0.080 0.731-0.22 1.017-0.4 0.28-0.18 0.52-0.437 0.693-0.777 0.173-0.32 0.253-0.76 0.253-1.28 0-1-0.293-1.72-0.853-2.16-0.573-0.427-1.32-0.64-2.253-0.64h-4.679v5.4h4.613zM27.076 14.753c-0.469-0.513-1.253-0.789-2.209-0.789-0.624 0-1.14 0.099-1.555 0.317-0.403 0.2-0.733 0.467-0.987 0.787s-0.423 0.64-0.523 1c-0.1 0.347-0.16 0.667-0.18 0.947h6.349c-0.093-1-0.44-1.733-0.907-2.253zM8.693 13.933c0.765 0 1.4-0.179 1.9-0.549 0.499-0.36 0.739-0.96 0.739-1.784 0-0.459-0.093-0.833-0.24-1.128-0.173-0.293-0.4-0.52-0.667-0.683-0.28-0.165-0.6-0.28-0.96-0.343-0.36-0.071-0.747-0.099-1.12-0.099h-4.039v4.587zM20.824 7.323h7.957v1.939h-7.957v-1.955z"/>
  </symbol>
</svg>
