<svg height="512pt" viewBox="-78 0 512 512.00166" width="512pt" xmlns="http://www.w3.org/2000/svg"><path d="m52.253906 202.675781v47.316407s26.042969 12.84375 60.890625 18.375v-47.316407c-34.847656-5.535156-60.890625-18.375-60.890625-18.375zm0 0" fill="#e4eaf8"/><path d="m87.363281 215.410156c-21.144531-5.855468-35.105469-12.734375-35.105469-12.734375v47.316407s13.960938 6.878906 35.105469 12.738281zm0 0" fill="#c7d2e5"/><path d="m288.875 237.03125c21.207031.808594 38.917969 5.328125 49.675781 8.804688 5.53125 1.789062 11.214844-2.28125 11.214844-8.003907v-35.15625c-.003906 0-25.613281-11.617187-60.890625-12.964843zm0 0" fill="#e4eaf8"/><path d="m288.875 142.363281v47.351563c35.28125 1.34375 60.886719 12.960937 60.890625 12.960937v-47.351562s-25.609375-11.617188-60.890625-12.960938zm0 0" fill="#ff6b6b"/><path d="m52.253906 155.324219v47.351562s26.042969 12.839844 60.890625 18.375v-47.351562c-34.847656-5.535157-60.890625-18.375-60.890625-18.375zm0 0" fill="#ff6b6b"/><path d="m87.363281 168.058594c-21.144531-5.855469-35.105469-12.734375-35.105469-12.734375v47.351562s13.960938 6.878907 35.105469 12.738281zm0 0" fill="#ee5253"/><path d="m113.144531 126.347656c-34.847656-5.535156-60.890625-18.375-60.890625-18.375v47.351563s26.042969 12.839843 60.890625 18.375zm0 0" fill="#e4eaf8"/><path d="m87.363281 120.707031c-21.144531-5.855469-35.105469-12.734375-35.105469-12.734375v47.351563s13.960938 6.878906 35.105469 12.734375zm0 0" fill="#c7d2e5"/><path d="m288.875 142.363281c35.28125 1.34375 60.886719 12.960938 60.890625 12.960938v-47.351563s-25.609375-11.613281-60.890625-12.964844zm0 0" fill="#e4eaf8"/><path d="m113.144531 126.347656v-47.351562c-29.734375-4.722656-56.867187-16.078125-60.890625-18.375v47.351562s26.042969 12.839844 60.890625 18.375zm0 0" fill="#ff6b6b"/><path d="m87.363281 73.296875c-18.292969-5.085937-32.304687-11.078125-35.105469-12.675781v47.351562s13.960938 6.875 35.105469 12.734375zm0 0" fill="#ee5253"/><path d="m349.765625 107.972656v-41.675781c0-3.507813-2.203125-6.65625-5.546875-7.882813-9.367188-3.4375-29.824219-9.785156-55.34375-10.757812v47.351562c35.28125 1.351563 60.890625 12.964844 60.890625 12.964844zm0 0" fill="#ff6b6b"/><path d="m171.722656 221.015625c-20.296875 3.796875-40.605468 2.886719-58.578125.035156v47.316407c9.429688 2.097656 35.039063 4.367187 58.578125-.03125zm0 0" fill="#ff6b6b"/><path d="m113.144531 173.699219v47.351562c17.972657 2.851563 38.28125 3.761719 58.578125-.035156v-47.351563c-20.296875 3.796876-40.605468 2.886719-58.578125.035157zm0 0" fill="#e4eaf8"/><path d="m171.722656 173.664062v-47.351562c-20.296875 3.796875-40.605468 2.886719-58.578125.035156v47.351563c17.972657 2.851562 38.28125 3.761719 58.578125-.035157zm0 0" fill="#ff6b6b"/><path d="m171.722656 126.3125v-47.351562c-19.109375 3.574218-39.121094 3.125-58.578125.035156v47.351562c17.972657 2.851563 38.28125 3.761719 58.578125-.035156zm0 0" fill="#e4eaf8"/><path d="m230.296875 198.277344c-7.148437 2.535156-14.347656 5.707031-21.515625 9.65625-11.972656 6.597656-24.511719 10.738281-37.058594 13.082031v47.320313c29.886719-5.582032 34.867188-14.335938 58.574219-22.742188zm0 0" fill="#e4eaf8"/><path d="m208.78125 160.582031c-11.972656 6.597657-24.511719 10.738281-37.058594 13.082031v47.351563c12.546875-2.347656 25.085938-6.488281 37.058594-13.082031 7.167969-3.949219 14.367188-7.121094 21.515625-9.65625v-47.351563c-7.148437 2.535157-14.347656 5.707031-21.515625 9.65625zm0 0" fill="#ff6b6b"/><path d="m171.722656 126.3125v47.351562c12.546875-2.34375 25.085938-6.484374 37.058594-13.082031 7.167969-3.945312 14.367188-7.121093 21.515625-9.65625v-47.351562c-7.148437 2.535156-14.347656 5.710937-21.515625 9.65625-11.972656 6.597656-24.511719 10.734375-37.058594 13.082031zm0 0" fill="#e4eaf8"/><path d="m208.78125 113.230469c7.167969-3.945313 14.367188-7.121094 21.515625-9.65625v-47.359375c-23.886719 8.46875-29.207031 17.253906-58.574219 22.746094v47.351562c12.546875-2.347656 25.085938-6.484375 37.058594-13.082031zm0 0" fill="#ff6b6b"/><path d="m230.296875 198.277344v47.316406c17.421875-6.179688 37.039063-9.382812 58.578125-8.5625v-47.316406c-17.753906-.679688-37.953125 1.25-58.578125 8.5625zm0 0" fill="#ff6b6b"/><path d="m230.296875 150.925781v47.351563c20.625-7.3125 40.824219-9.242188 58.578125-8.5625v-47.351563c-17.753906-.679687-37.953125 1.25-58.578125 8.5625zm0 0" fill="#e4eaf8"/><path d="m230.296875 103.574219v47.351562c20.625-7.3125 40.824219-9.242187 58.578125-8.566406v-47.351563c-17.753906-.675781-37.953125 1.253907-58.578125 8.566407zm0 0" fill="#ff6b6b"/><path d="m230.296875 56.214844v47.359375c20.625-7.3125 40.824219-9.242188 58.578125-8.566407v-47.351562c-3.210938 0-29.074219-1.898438-58.578125 8.558594zm0 0" fill="#e4eaf8"/><path d="m39.777344 65.878906c-6.472656 0-12.492188-1.9375-17.515625-5.257812v426.296875c0 9.671875 7.84375 17.515625 17.515625 17.515625 9.675781 0 17.519531-7.84375 17.519531-17.515625v-426.296875c-5.023437 3.320312-11.042969 5.257812-17.519531 5.257812zm0 0" fill="#3e4b5a"/><path d="m44.238281 486.917969v-421.359375c-1.457031.203125-2.945312.320312-4.460937.320312-6.472656 0-12.492188-1.9375-17.515625-5.257812v426.292968c0 9.675782 7.84375 17.519532 17.515625 17.519532 4.164062 0 7.984375-1.460938 10.992187-3.886719-3.980469-3.210937-6.53125-8.121094-6.53125-13.628906zm0 0" fill="#374451"/><path d="m72.203125 34.652344c0 17.910156-14.515625 32.425781-32.425781 32.425781-17.90625 0-32.421875-14.515625-32.421875-32.425781 0-17.90625 14.515625-32.425782 32.421875-32.425782 17.910156 0 32.425781 14.519532 32.425781 32.425782zm0 0" fill="#e4eaf8"/><path d="m36.515625 34.652344c0-12.660156 7.261719-23.621094 17.84375-28.960938-4.382813-2.210937-9.332031-3.464844-14.578125-3.464844-17.910156 0-32.425781 14.519532-32.425781 32.425782 0 17.910156 14.515625 32.425781 32.425781 32.425781 5.246094 0 10.195312-1.253906 14.578125-3.464844-10.582031-5.335937-17.84375-16.296875-17.84375-28.960937zm0 0" fill="#c7d2e5"/><path d="m25.9375 13.878906c3.480469-2.328125 4.410156-7.035156 2.082031-10.515625-2.328125-3.476562-7.039062-4.410156-10.515625-2.082031-10.957031 7.339844-17.503906 19.589844-17.503906 32.757812 0 12.199219 5.574219 23.121094 14.308594 30.355469v422.507813c0 13.839844 11.257812 25.097656 25.097656 25.097656s25.097656-11.257812 25.097656-25.097656v-127.832032c0-4.183593-3.394531-7.578124-7.578125-7.578124-4.1875 0-7.582031 3.394531-7.582031 7.578124v127.832032c0 5.480468-4.457031 9.941406-9.9375 9.941406s-9.941406-4.460938-9.941406-9.941406v-414.722656c6.363281 1.625 13.226562 1.734374 19.878906 0v251.523437c0 4.183594 3.394531 7.578125 7.582031 7.578125 4.183594 0 7.578125-3.394531 7.578125-7.578125v-62.125c47.605469 19.125 105.113282 25.425781 150 .277344 37.160156-20.828125 82.105469-21.785157 121.496094-8.828125 10.296875 3.386718 20.96875-4.320313 20.96875-15.210938 0-7.417968 0-163.832031 0-171.535156 0-6.78125-4.339844-12.722656-10.378906-14.980469-43.523438-16.246093-94.851563-15.867187-136.761719 6.460938-3.277344 1.746093-8.941406 5.199219-18.394531 8.65625-37.972656 13.835937-83.8125 6.53125-120.953125-8.191407 5.210937-6.683593 8.328125-15.074218 8.328125-24.1875 0-13.171874-6.542969-25.417968-17.503906-32.757812-3.476563-2.328125-8.183594-1.398438-10.511719 2.082031-2.328125 3.476563-1.398438 8.183594 2.082031 10.515625 6.746094 4.519532 10.777344 12.054688 10.777344 20.160156 0 13.480469-11.011719 24.25-24.246094 24.25-13.246094 0-24.246094-10.78125-24.246094-24.25 0-8.101562 4.027344-15.640624 10.777344-20.160156zm271.175781 41.878906c20.5625 1.773438 36.722657 6.964844 44.175781 9.746094.316407.117188.523438.429688.523438.777344v30.675781c-13.847656-4.660156-29.308594-7.878906-44.699219-9.097656zm0 47.3125c16.246094 1.429688 31.90625 5.160157 44.699219 9.988282v31.25c-13.855469-4.664063-29.320312-7.878906-44.699219-9.097656zm0 47.351563c16.25 1.429687 31.898438 5.15625 44.699219 9.988281v31.25c-13.5-4.542968-28.953125-7.851562-44.699219-9.09375zm0 47.351563c16.25 1.429687 31.898438 5.15625 44.699219 9.988281v30.054687c0 .109375 0 .4375-.355469.695313-.335937.242187-.617187.148437-.722656.113281-9.246094-3.039062-24.714844-7.195312-43.621094-8.679688zm-57.585937-136.117188c13.570312-4.285156 27.773437-6.410156 42.425781-6.507812v32.167968c-14.648437.109375-28.878906 2.09375-42.425781 5.902344zm0 47.3125c13.429687-4.273438 27.601562-6.445312 42.425781-6.523438v32.222657c-14.648437.113281-28.878906 2.09375-42.425781 5.902343zm0 47.351562c13.429687-4.277343 27.601562-6.449218 42.425781-6.523437v32.222656c-14.648437.109375-28.878906 2.09375-42.425781 5.902344zm0 47.351563c13.429687-4.277344 27.601562-6.449219 42.425781-6.523437v32.171874c-14.035156.085938-28.464844 1.953126-42.425781 5.890626zm-57.582032-118.59375c21.542969-5.128906 31.109376-12.410156 42.425782-17.601563v30.882813c-18.632813 7.457031-22.003906 12.917969-42.425782 18.402344zm0 47.289063c21.925782-5.191407 31.273438-12.441407 42.425782-17.546876v30.890626c-18.636719 7.457031-22 12.917968-42.425782 18.402343zm0 47.351562c21.925782-5.191406 31.273438-12.4375 42.425782-17.546875v30.890625c-18.667969 7.46875-21.988282 12.914062-42.425782 18.402344zm0 47.351562c21.925782-5.191406 31.273438-12.441406 42.425782-17.546874v30.847656c-18.730469 7.507812-21.964844 12.917968-42.425782 18.410156zm-57.585937-139.371093c13.902344 1.652343 28.554687 1.863281 42.425781.113281v32.015625c-14.550781 2.023437-29.035156 1.582031-42.425781-.140625zm0 47.328125c14.242187 1.675781 28.203125 1.863281 42.425781.0625v32.089844c-14.550781 2.023437-29.035156 1.582031-42.425781-.140626zm0 47.351562c14.269531 1.679688 28.234375 1.859375 42.425781.066406v32.085938c-14.550781 2.023438-29.035156 1.582031-42.425781-.140625zm0 47.351563c14.269531 1.679687 28.234375 1.863281 42.425781.066406v32.054687c-14.550781 2.023438-29.035156 1.578126-42.425781-.140624zm-59.855469-157.523438c13.792969 5.539063 29.152344 10.152344 44.699219 13.125v31.8125c-20.78125-4.269531-37.316406-10.832031-44.699219-14.050781zm0 47.351563c13.753906 5.523437 29.078125 10.132812 44.699219 13.121094v31.820312c-20.78125-4.269531-37.320313-10.835938-44.699219-14.054688zm0 47.351562c13.753906 5.523438 29.078125 10.132813 44.699219 13.121094v31.820312c-20.78125-4.269531-37.320313-10.835937-44.699219-14.054687zm0 47.351563c13.753906 5.523437 29.078125 10.132812 44.699219 13.121093v31.785157c-20.78125-4.269531-37.316406-10.832031-44.699219-14.050781zm0 0"/></svg>