<svg height="511pt" viewBox="0 -103 511.99988 511" width="511pt" xmlns="http://www.w3.org/2000/svg"><path d="m66 269.597656c0 16.050782-13.015625 29.066406-29.066406 29.066406-16.050782 0-29.0625-13.015624-29.0625-29.066406 0-16.050781 13.011718-29.0625 29.0625-29.0625 16.050781 0 29.066406 13.011719 29.066406 29.0625zm0 0" fill="#54a0ff"/><path d="m365.445312 240.535156h-237.386718c-16.054688 0-29.066406 13.011719-29.066406 29.0625 0 16.050782 13.011718 29.066406 29.066406 29.066406h237.386718c16.054688 0 29.066407-13.015624 29.066407-29.066406 0-16.050781-13.011719-29.0625-29.066407-29.0625zm0 0" fill="#e4eaf8"/><path d="m36.933594 268.097656c-10.445313 0-19.597656-5.511718-24.722656-13.78125-2.75 4.441406-4.339844 9.671875-4.339844 15.28125 0 16.050782 13.011718 29.066406 29.0625 29.066406 16.050781 0 29.066406-13.015624 29.066406-29.066406 0-5.609375-1.59375-10.839844-4.34375-15.28125-5.125 8.269532-14.277344 13.78125-24.722656 13.78125zm0 0" fill="#338def"/><path d="m365.445312 268.097656h-237.386718c-10.445313 0-19.597656-5.511718-24.722656-13.78125-2.75 4.441406-4.34375 9.675782-4.34375 15.28125 0 16.054688 13.011718 29.066406 29.066406 29.066406h237.386718c16.054688 0 29.066407-13.011718 29.066407-29.066406 0-5.605468-1.59375-10.839844-4.34375-15.28125-5.125 8.269532-14.277344 13.78125-24.722657 13.78125zm0 0" fill="#c7d2e5"/><path d="m66 153.339844c0 16.050781-13.015625 29.0625-29.066406 29.0625-16.050782 0-29.0625-13.011719-29.0625-29.0625 0-16.054688 13.011718-29.066406 29.0625-29.066406 16.050781 0 29.066406 13.011718 29.066406 29.066406zm0 0" fill="#54a0ff"/><path d="m365.445312 124.273438h-237.386718c-16.054688 0-29.066406 13.011718-29.066406 29.0625 0 16.054687 13.011718 29.066406 29.066406 29.066406h237.386718c16.054688 0 29.066407-13.011719 29.066407-29.066406 0-16.050782-13.011719-29.0625-29.066407-29.0625zm0 0" fill="#e4eaf8"/><path d="m36.933594 151.839844c-10.445313 0-19.597656-5.511719-24.722656-13.785156-2.75 4.441406-4.339844 9.675781-4.339844 15.285156 0 16.050781 13.011718 29.0625 29.0625 29.0625 16.050781 0 29.066406-13.011719 29.066406-29.0625 0-5.609375-1.59375-10.84375-4.34375-15.285156-5.125 8.269531-14.277344 13.785156-24.722656 13.785156zm0 0" fill="#338def"/><path d="m365.445312 151.835938h-237.386718c-10.445313 0-19.597656-5.511719-24.722656-13.78125-2.75 4.441406-4.34375 9.675781-4.34375 15.285156 0 16.050781 13.011718 29.0625 29.066406 29.0625h237.386718c16.054688 0 29.066407-13.011719 29.066407-29.0625 0-5.609375-1.59375-10.84375-4.34375-15.285156-5.125 8.269531-14.277344 13.78125-24.722657 13.78125zm0 0" fill="#c7d2e5"/><path d="m66 37.078125c0 16.050781-13.015625 29.0625-29.066406 29.0625-16.050782 0-29.0625-13.011719-29.0625-29.0625 0-16.054687 13.011718-29.066406 29.0625-29.066406 16.050781 0 29.066406 13.011719 29.066406 29.066406zm0 0" fill="#54a0ff"/><path d="m365.445312 8.011719h-237.386718c-16.054688 0-29.066406 13.011719-29.066406 29.066406 0 16.050781 13.011718 29.0625 29.066406 29.0625h237.386718c16.054688 0 29.066407-13.011719 29.066407-29.0625 0-16.054687-13.011719-29.066406-29.066407-29.066406zm0 0" fill="#e4eaf8"/><path d="m36.933594 35.578125c-10.445313 0-19.597656-5.511719-24.722656-13.785156-2.75 4.441406-4.339844 9.675781-4.339844 15.285156 0 16.050781 13.011718 29.0625 29.0625 29.0625 16.050781 0 29.066406-13.011719 29.066406-29.0625 0-5.609375-1.59375-10.84375-4.34375-15.285156-5.125 8.273437-14.277344 13.785156-24.722656 13.785156zm0 0" fill="#338def"/><path d="m365.445312 35.578125h-237.386718c-10.445313 0-19.597656-5.511719-24.722656-13.78125-2.75 4.441406-4.34375 9.671875-4.34375 15.28125 0 16.050781 13.011718 29.066406 29.066406 29.066406h237.386718c16.054688 0 29.066407-13.015625 29.066407-29.066406 0-5.605469-1.59375-10.839844-4.34375-15.28125-5.125 8.269531-14.277344 13.78125-24.722657 13.78125zm0 0" fill="#c7d2e5"/><path d="m36.566406 73.632812c20.160156 0 36.5625-16.40625 36.5625-36.566406 0-20.164062-16.402344-36.566406-36.5625-36.566406-20.164062 0-36.566406 16.402344-36.566406 36.566406 0 20.160156 16.402344 36.566406 36.566406 36.566406zm0-58.132812c11.890625 0 21.5625 9.675781 21.5625 21.566406s-9.671875 21.5625-21.5625 21.5625-21.566406-9.671875-21.566406-21.5625 9.675781-21.566406 21.566406-21.566406zm0 0"/><path d="m127.6875 189.890625h237.390625c20.160156 0 36.5625-16.402344 36.5625-36.5625 0-20.164063-16.402344-36.566406-36.5625-36.566406h-237.390625c-20.160156 0-36.5625 16.402343-36.5625 36.566406 0 20.160156 16.402344 36.5625 36.5625 36.5625zm0-58.128906h237.390625c11.890625 0 21.5625 9.671875 21.5625 21.5625s-9.671875 21.566406-21.5625 21.566406h-237.390625c-11.890625 0-21.5625-9.675781-21.5625-21.566406s9.671875-21.5625 21.5625-21.5625zm0 0"/><path d="m36.566406 306.152344c20.160156 0 36.5625-16.402344 36.5625-36.566406 0-20.160157-16.402344-36.566407-36.5625-36.566407-20.164062 0-36.566406 16.40625-36.566406 36.566407 0 20.164062 16.402344 36.566406 36.566406 36.566406zm0-58.132813c11.890625 0 21.5625 9.675781 21.5625 21.566407 0 11.890624-9.671875 21.5625-21.5625 21.5625s-21.566406-9.671876-21.566406-21.5625c0-11.890626 9.675781-21.566407 21.566406-21.566407zm0 0"/><path d="m127.6875 306.152344h237.390625c20.160156 0 36.5625-16.402344 36.5625-36.566406 0-20.160157-16.402344-36.566407-36.5625-36.566407h-237.390625c-20.160156 0-36.5625 16.40625-36.5625 36.566407 0 20.164062 16.402344 36.566406 36.5625 36.566406zm0-58.132813h237.390625c11.890625 0 21.5625 9.675781 21.5625 21.566407 0 11.890624-9.671875 21.5625-21.5625 21.5625h-237.390625c-11.890625 0-21.5625-9.671876-21.5625-21.5625 0-11.890626 9.671875-21.566407 21.5625-21.566407zm0 0"/><path d="m509.804688 8.695312c-2.933594-2.929687-7.679688-2.929687-10.609376 0l-40.828124 40.828126-23.660157-23.660157c-2.929687-2.929687-7.679687-2.929687-10.609375 0-2.929687 2.925781-2.929687 7.675781 0 10.605469l28.96875 28.964844c2.929688 2.929687 7.675782 2.929687 10.605469 0l46.132813-46.128906c2.925781-2.929688 2.925781-7.679688 0-10.609376zm0 0"/><path d="m509.804688 124.957031c-2.933594-2.929687-7.679688-2.929687-10.609376 0l-40.828124 40.828125-23.660157-23.664062c-2.929687-2.929688-7.679687-2.929688-10.609375 0-2.929687 2.929687-2.929687 7.679687 0 10.605468l28.96875 28.96875c2.929688 2.929688 7.675782 2.929688 10.605469 0l46.132813-46.132812c2.925781-2.925781 2.925781-7.675781 0-10.605469zm0 0"/><path d="m509.804688 241.21875c-2.933594-2.929688-7.679688-2.929688-10.609376 0l-40.828124 40.828125-23.660157-23.664063c-2.929687-2.929687-7.679687-2.929687-10.609375 0-2.929687 2.929688-2.929687 7.679688 0 10.605469l28.96875 28.964844c2.929688 2.929687 7.675782 2.929687 10.605469 0l46.132813-46.128906c2.925781-2.929688 2.925781-7.679688 0-10.605469zm0 0"/><path d="m127.6875 15.5h101.195312c4.144532 0 7.5-3.355469 7.5-7.5 0-4.140625-3.355468-7.5-7.5-7.5h-101.195312c-20.160156 0-36.5625 16.402344-36.5625 36.566406 0 20.160156 16.402344 36.5625 36.5625 36.5625h237.390625c20.160156 0 36.5625-16.402344 36.5625-36.5625 0-20.164062-16.402344-36.566406-36.5625-36.566406h-101.195313c-4.140624 0-7.5 3.359375-7.5 7.5 0 4.144531 3.359376 7.5 7.5 7.5h101.195313c11.890625 0 21.5625 9.675781 21.5625 21.566406s-9.671875 21.5625-21.5625 21.5625h-237.390625c-11.890625 0-21.5625-9.671875-21.5625-21.5625s9.671875-21.566406 21.5625-21.566406zm0 0"/><path d="m36.566406 189.890625c11.566406 0 22.203125-5.300781 29.1875-14.542969 2.496094-3.304687 1.84375-8.007812-1.464844-10.503906-3.304687-2.496094-8.007812-1.84375-10.503906 1.460938-4.121094 5.457031-10.398437 8.585937-17.21875 8.585937-11.894531 0-21.566406-9.671875-21.566406-21.5625 0-11.894531 9.675781-21.566406 21.566406-21.566406 6.820313 0 13.097656 3.128906 17.21875 8.585937 2.496094 3.304688 7.199219 3.960938 10.503906 1.460938 3.308594-2.496094 3.960938-7.199219 1.464844-10.503906-6.980468-9.242188-17.621094-14.542969-29.1875-14.542969-20.164062 0-36.566406 16.402343-36.566406 36.5625 0 20.164062 16.402344 36.566406 36.566406 36.566406zm0 0"/></svg>