<svg height="512pt" viewBox="-16 0 512 512" width="512pt" xmlns="http://www.w3.org/2000/svg"><path d="m240.609375 512c-12.964844 0-23.515625-10.546875-23.515625-23.515625 0-12.964844 10.546875-23.515625 23.515625-23.515625 12.964844 0 23.515625 10.550781 23.515625 23.515625 0 12.96875-10.550781 23.515625-23.515625 23.515625zm0-32.027344c-4.695313 0-8.515625 3.816406-8.515625 8.511719s3.820312 8.515625 8.515625 8.515625 8.515625-3.820312 8.515625-8.515625-3.820312-8.511719-8.515625-8.511719zm0 0" fill="#576574"/><path d="m14.808594 107.714844h451.601562v284.675781h-451.601562zm0 0" fill="#e4eaf8"/><path d="m14.808594 107.714844h30v284.675781h-30zm0 0" fill="#c7d2e5"/><path d="m256.625 23.527344c0 8.84375-7.171875 16.015625-16.015625 16.015625s-16.015625-7.171875-16.015625-16.015625 7.171875-16.015625 16.015625-16.015625 16.015625 7.171875 16.015625 16.015625zm0 0" fill="#54a0ff"/><path d="m243.261719 23.527344c0-5.359375 2.640625-10.089844 6.679687-12.996094-2.628906-1.890625-5.84375-3.019531-9.332031-3.019531-8.84375 0-16.015625 7.167969-16.015625 16.015625 0 8.84375 7.167969 16.015625 16.015625 16.015625 3.488281 0 6.703125-1.128907 9.332031-3.019531-4.039062-2.910157-6.679687-7.640626-6.679687-12.996094zm0 0" fill="#338def"/><path d="m466.898438 80.65625h-452.578126c-3.5625 0-6.449218 2.890625-6.449218 6.449219v19.128906c0 3.5625 2.886718 6.453125 6.449218 6.453125h452.578126c3.5625 0 6.449218-2.890625 6.449218-6.453125v-19.128906c0-3.558594-2.886718-6.449219-6.449218-6.449219zm0 0" fill="#bf6122"/><path d="m466.898438 387.0625h-452.578126c-3.5625 0-6.449218 2.886719-6.449218 6.449219v19.128906c0 3.5625 2.886718 6.449219 6.449218 6.449219h452.578126c3.5625 0 6.449218-2.886719 6.449218-6.449219v-19.128906c0-3.5625-2.886718-6.449219-6.449218-6.449219zm0 0" fill="#bf6122"/><path d="m466.898438 93.503906h-452.578126c-3.554687 0-6.433593-2.871094-6.449218-6.421875v.023438 19.128906c0 3.5625 2.886718 6.453125 6.449218 6.453125h452.578126c3.5625 0 6.453124-2.890625 6.453124-6.453125v-19.128906c0-.007813-.003906-.015625-.003906-.023438-.015625 3.550781-2.894531 6.421875-6.449218 6.421875zm0 0" fill="#b2581b"/><path d="m466.898438 399.910156h-452.578126c-3.554687 0-6.433593-2.875-6.449218-6.425781v.027344 19.128906c0 3.5625 2.886718 6.449219 6.449218 6.449219h452.578126c3.5625 0 6.453124-2.886719 6.453124-6.449219v-19.128906c0-.007813-.003906-.015625-.003906-.027344-.015625 3.550781-2.894531 6.425781-6.449218 6.425781zm0 0" fill="#b2581b"/><path d="m62.765625 309.042969c-2.5625 0-4.640625 2.078125-4.640625 4.640625v20.148437c0 2.5625 2.078125 4.640625 4.640625 4.640625h44.3125v-29.429687zm0 0" fill="#fcd486"/><path d="m88.125 333.832031v-20.148437c0-2.5625 2.078125-4.640625 4.640625-4.640625h-30c-2.5625 0-4.640625 2.078125-4.640625 4.640625v20.148437c0 2.5625 2.078125 4.640625 4.640625 4.640625h30c-2.5625 0-4.640625-2.078125-4.640625-4.640625zm0 0" fill="#feca57"/><path d="m110.617188 262.992188c-2.5625 0-4.640626 2.078124-4.640626 4.640624v70.839844h48.953126v-75.480468zm0 0" fill="#feca57"/><path d="m140.617188 262.992188h-30c-2.5625 0-4.640626 2.078124-4.640626 4.640624v70.839844h30v-70.839844c0-2.566406 2.078126-4.640624 4.640626-4.640624zm0 0" fill="#f4b537"/><path d="m158.46875 216.9375c-2.566406 0-4.640625 2.078125-4.640625 4.640625v116.894531h48.949219v-121.535156zm0 0" fill="#f4b537"/><path d="m188.46875 216.9375h-30c-2.566406 0-4.640625 2.078125-4.640625 4.640625v116.894531h30v-116.894531c0-2.5625 2.078125-4.640625 4.640625-4.640625zm0 0" fill="#e59d1f"/><path d="m244.886719 170.882812h-38.570313c-2.5625 0-4.640625 2.078126-4.640625 4.640626v162.949218h43.210938c2.566406 0 4.640625-2.078125 4.640625-4.640625v-158.308593c0-2.5625-2.074219-4.640626-4.640625-4.640626zm0 0" fill="#e59d1f"/><path d="m236.320312 170.882812h-30.003906c-2.5625 0-4.640625 2.078126-4.640625 4.640626v162.949218h30.003907v-162.949218c0-2.5625 2.078124-4.640626 4.640624-4.640626zm0 0" fill="#dd8e10"/><path d="m13.949219 426.578125h218.789062v39.613281c-9.296875 3.140625-16.011719 11.9375-16.011719 22.28125 0 12.964844 10.546876 23.515625 23.511719 23.515625 12.96875 0 23.515625-10.546875 23.515625-23.515625 0-10.34375-6.714844-19.140625-16.015625-22.28125v-39.613281h218.792969c7.6875 0 13.949219-6.257813 13.949219-13.949219v-19.128906c0-5.136719-2.796875-9.621094-6.941407-12.039062v-100.984376c0-4.140624-3.355468-7.5-7.5-7.5-4.140624 0-7.5 3.359376-7.5 7.5v99.074219h-436.597656v-259.378906h436.597656v125.304687c0 4.144532 3.359376 7.5 7.5 7.5 4.144532 0 7.5-3.355468 7.5-7.5v-127.210937c4.144532-2.421875 6.941407-6.90625 6.941407-12.042969v-19.128906c0-7.691406-6.261719-13.949219-13.949219-13.949219h-41.496094l-161.960937-55.226562c-2.515625-10.273438-11.796875-17.917969-22.835938-17.917969-11.035156 0-20.316406 7.644531-22.835937 17.917969l-161.957032 55.226562h-41.496093c-7.691407 0-13.949219 6.257813-13.949219 13.949219v19.128906c0 5.136719 2.796875 9.621094 6.9375 12.042969v263.195313c-4.140625 2.421874-6.9375 6.90625-6.9375 12.039062v19.128906c0 7.691406 6.257812 13.949219 13.949219 13.949219zm234.804687 61.894531c0 4.695313-3.820312 8.515625-8.515625 8.515625-4.691406 0-8.511719-3.820312-8.511719-8.515625 0-4.695312 3.816407-8.515625 8.511719-8.515625 4.695313 0 8.515625 3.820313 8.515625 8.515625zm-8.515625-473.472656c4.695313 0 8.515625 3.820312 8.515625 8.515625s-3.820312 8.511719-8.515625 8.511719c-4.691406 0-8.511719-3.816406-8.511719-8.511719s3.820313-8.515625 8.511719-8.515625zm-225.238281 73.144531h207.023438c4.140624 0 7.5-3.355469 7.5-7.5 0-4.140625-3.359376-7.5-7.5-7.5h-120.101563l116.929687-39.875c3.714844 8.109375 11.902344 13.761719 21.386719 13.761719 9.488281 0 17.675781-5.652344 21.386719-13.761719l116.933594 39.875h-121.535156c-4.144532 0-7.5 3.359375-7.5 7.5 0 4.144531 3.355468 7.5 7.5 7.5h208.453124v17.027344h-450.476562zm0 306.40625h450.480469v17.027344h-450.480469zm0 0"/><path d="m205.949219 163.371094c-6.695313 0-12.140625 5.445312-12.140625 12.140625v33.914062h-35.710938c-6.695312 0-12.140625 5.445313-12.140625 12.140625v33.910156h-35.710937c-6.695313 0-12.140625 5.449219-12.140625 12.140626v33.914062h-35.710938c-6.691406 0-12.140625 5.445312-12.140625 12.140625v20.148437c0 6.695313 5.445313 12.140626 12.140625 12.140626h182.125c6.691407 0 12.140625-5.445313 12.140625-12.140626v-158.308593c0-6.695313-5.445312-12.140625-12.140625-12.140625zm-107.84375 167.589844h-32.851563v-14.429688h32.851563zm47.851562 0h-32.851562c0-6.171876 0-53.613282 0-60.484376h32.851562zm47.851563 0h-32.851563c0-11.21875 0-95.082032 0-106.535157h32.851563zm47.851562 0h-32.851562c0-7.417969 0-145.175782 0-152.589844h32.851562zm0 0"/><path d="m412.558594 196.660156h-117.546875c-4.140625 0-7.5 3.355469-7.5 7.5 0 4.140625 3.359375 7.5 7.5 7.5h117.546875c4.144531 0 7.5-3.359375 7.5-7.5 0-4.144531-3.355469-7.5-7.5-7.5zm0 0"/><path d="m412.558594 235.871094h-117.546875c-4.140625 0-7.5 3.359375-7.5 7.5 0 4.144531 3.359375 7.5 7.5 7.5h117.546875c4.144531 0 7.5-3.355469 7.5-7.5 0-4.140625-3.355469-7.5-7.5-7.5zm0 0"/><path d="m412.558594 275.085938h-117.546875c-4.140625 0-7.5 3.355468-7.5 7.5 0 4.140624 3.359375 7.5 7.5 7.5h117.546875c4.144531 0 7.5-3.359376 7.5-7.5 0-4.144532-3.355469-7.5-7.5-7.5zm0 0"/><path d="m412.558594 314.296875h-117.546875c-4.140625 0-7.5 3.355469-7.5 7.5 0 4.140625 3.359375 7.5 7.5 7.5h117.546875c4.144531 0 7.5-3.359375 7.5-7.5 0-4.144531-3.355469-7.5-7.5-7.5zm0 0"/></svg>