<svg height="511pt" viewBox="-28 0 511 511.99983" width="511pt" xmlns="http://www.w3.org/2000/svg"><path d="m280.769531 360.992188c0-40.78125 30.058594-70.839844 70.839844-70.839844 26.570313 0 49.855469 14.042968 62.863281 35.105468v-248.441406c0-6.71875-5.496094-12.214844-12.214844-12.214844h-381.671874c-6.71875 0-12.214844 5.496094-12.214844 12.214844v287.015625c0 6.71875 5.496094 12.214844 12.214844 12.214844h261.722656c-1.007813-4.859375-1.539063-9.894531-1.539063-15.054687zm0 0" fill="#ce7132"/><path d="m38.371094 363.832031v-287.015625c0-6.71875 5.496094-12.214844 12.214844-12.214844h-30.003907c-6.71875 0-12.210937 5.496094-12.210937 12.214844v287.015625c0 6.71875 5.496094 12.214844 12.210937 12.214844h30.003907c-6.71875 0-12.214844-5.496094-12.214844-12.214844zm0 0" fill="#bf6122"/><path d="m402.257812 64.601562h-381.671874c-6.71875 0-12.214844 5.496094-12.214844 12.214844v47.617188c0 62.195312 49.117187 113.472656 110.476562 116.96875 45.441406.292968 138.527344.304687 185.144532 0 61.363281-3.496094 110.480468-54.773438 110.480468-116.96875v-47.617188c0-6.71875-5.5-12.214844-12.214844-12.214844zm0 0" fill="#bf6122"/><path d="m38.371094 76.816406c0-6.71875 5.496094-12.214844 12.214844-12.214844h-30.003907c-6.71875 0-12.210937 5.496094-12.210937 12.214844v47.617188c0 29.921875 11.371094 57.3125 30 78.074218zm0 0" fill="#b2581b"/><path d="m109.894531 64.601562v9.773438c0 10.558594 8.640625 19.199219 19.199219 19.199219h164.652344c10.558594 0 19.199218-8.636719 19.199218-19.199219v-9.773438zm0 0" fill="#b2581b"/><path d="m139.898438 74.375v-9.773438h-30.003907v9.773438c0 10.558594 8.640625 19.199219 19.199219 19.199219h30.003906c-10.5625 0-19.199218-8.640625-19.199218-19.199219zm0 0" fill="#a04a10"/><path d="m143.234375 213.484375h-18.238281c-3.398438 0-6.148438 2.753906-6.148438 6.148437v43.9375c0 3.394532 2.75 6.148438 6.148438 6.148438h18.238281c3.394531 0 6.148437-2.753906 6.148437-6.148438v-43.9375c0-3.394531-2.753906-6.148437-6.148437-6.148437zm0 0" fill="#e4eaf8"/><path d="m297.84375 213.484375h-18.238281c-3.394531 0-6.148438 2.753906-6.148438 6.148437v43.9375c0 3.394532 2.753907 6.148438 6.148438 6.148438h18.238281c3.398438 0 6.148438-2.753906 6.148438-6.148438v-43.9375c0-3.394531-2.75-6.148437-6.148438-6.148437zm0 0" fill="#e4eaf8"/><path d="m139.097656 263.570312v-43.9375c0-3.050781 2.226563-5.578124 5.140625-6.058593-.328125-.054688-.660156-.089844-1.003906-.089844h-18.238281c-3.398438 0-6.148438 2.753906-6.148438 6.148437v43.9375c0 3.394532 2.75 6.148438 6.148438 6.148438h18.238281c.34375 0 .675781-.035156 1.003906-.089844-2.914062-.480468-5.140625-3.007812-5.140625-6.058594zm0 0" fill="#c7d2e5"/><path d="m293.710938 263.570312v-43.9375c0-3.050781 2.222656-5.578124 5.140624-6.058593-.328124-.054688-.664062-.089844-1.007812-.089844h-18.238281c-3.394531 0-6.148438 2.753906-6.148438 6.148437v43.9375c0 3.394532 2.753907 6.148438 6.148438 6.148438h18.238281c.34375 0 .679688-.035156 1.007812-.089844-2.914062-.480468-5.140624-3.007812-5.140624-6.058594zm0 0" fill="#c7d2e5"/><path d="m448.800781 471.628906-38.296875-67.894531c-12.789062 17.191406-32.664062 28.613281-55.203125 29.742187l39.371094 69.800782c.984375 1.746094 3.503906 1.613281 4.308594-.226563l13.050781-29.886719c.425781-.980468 1.429688-1.566406 2.476562-1.449218l31.929688 3.585937c1.96875.222657 3.347656-1.925781 2.363281-3.671875zm0 0" fill="#ff6b6b"/><path d="m401.636719 431.101562c6.964843-1.867187 13.527343-4.742187 19.53125-8.464843l-10.664063-18.902344c-12.789062 17.191406-32.667968 28.613281-55.203125 29.742187l39.371094 69.800782c.984375 1.746094 3.503906 1.613281 4.308594-.226563l11.675781-26.738281-16.042969-28.445312c-3.691406-6.542969-.234375-14.824219 7.023438-16.765626zm0 0" fill="#ee5253"/><path d="m292.710938 403.734375-38.292969 67.894531c-.988281 1.746094.394531 3.894532 2.363281 3.671875l31.929688-3.585937c1.046874-.117188 2.046874.46875 2.476562 1.449218l13.050781 29.886719c.804688 1.839844 3.324219 1.972657 4.308594.226563l39.371094-69.800782c-22.539063-1.128906-42.417969-12.550781-55.207031-29.742187zm0 0" fill="#ff6b6b"/><path d="m283.648438 471.628906 28.15625-49.914062c-7.359376-4.808594-13.828126-10.902344-19.09375-17.980469l-38.292969 67.894531c-.988281 1.746094.394531 3.894532 2.363281 3.671875l26.601562-2.984375c.054688-.234375.140626-.464844.265626-.6875zm0 0" fill="#ee5253"/><path d="m425.449219 360.992188c0 40.78125-33.0625 73.839843-73.839844 73.839843-40.78125 0-73.839844-33.058593-73.839844-73.839843s33.058594-73.839844 73.839844-73.839844c40.777344 0 73.839844 33.058594 73.839844 73.839844zm0 0" fill="#feca57"/><path d="m307 360.992188c0-35.773438 25.445312-65.601563 59.226562-72.386719-4.726562-.949219-9.613281-1.453125-14.617187-1.453125-40.78125 0-73.839844 33.058594-73.839844 73.839844s33.058594 73.839843 73.839844 73.839843c5.003906 0 9.890625-.503906 14.617187-1.453125-33.78125-6.785156-59.226562-36.609375-59.226562-72.386718zm0 0" fill="#f4b537"/><path d="m385.589844 354.644531c1.773437-1.730469.792968-4.742187-1.65625-5.097656l-18.929688-2.75c-.972656-.140625-1.8125-.753906-2.25-1.632813l-8.464844-17.15625c-1.097656-2.21875-4.265624-2.21875-5.359374 0l-8.464844 17.15625c-.4375.878907-1.277344 1.492188-2.25 1.632813l-18.929688 2.75c-2.453125.355469-3.429687 3.367187-1.65625 5.097656l13.699219 13.351563c.703125.683594 1.023437 1.675781.859375 2.644531l-3.234375 18.851563c-.417969 2.441406 2.140625 4.304687 4.335937 3.152343l16.929688-8.902343c.871094-.457032 1.910156-.457032 2.78125 0l16.929688 8.902343c2.195312 1.152344 4.753906-.710937 4.335937-3.152343l-3.234375-18.851563c-.164062-.96875.15625-1.957031.859375-2.644531zm0 0" fill="#f4b537"/><path d="m355.285156 366.253906c.167969-.96875-.152344-1.957031-.859375-2.644531l-13.695312-13.351563c-1.773438-1.726562-.796875-4.738281 1.65625-5.09375l18.929687-2.75c.023438-.003906.046875-.015624.070313-.023437l-7.097657-14.382813c-1.097656-2.21875-4.261718-2.21875-5.359374 0l-8.464844 17.152344c-.4375.882813-1.277344 1.496094-2.25 1.636719l-18.929688 2.75c-2.453125.355469-3.429687 3.367187-1.65625 5.097656l13.695313 13.351563c.707031.683594 1.027343 1.675781.859375 2.644531l-3.230469 18.851563c-.421875 2.441406 2.140625 4.300781 4.332031 3.148437l16.933594-8.898437c.65625-.347657 1.40625-.429688 2.109375-.253907zm0 0" fill="#e59d1f"/><path d="m384.640625 342.113281-16.582031-2.410156-7.414063-15.027344c-3.84375-7.789062-14.964843-7.789062-18.8125 0l-7.414062 15.027344-16.582031 2.410156c-8.597657 1.246094-12.035157 11.820313-5.8125 17.890625l12 11.695313-2.832032 16.511719c-1.472656 8.5625 7.523438 15.101562 15.214844 11.058593l14.832031-7.796875 14.832031 7.796875c7.6875 4.042969 16.6875-2.492187 15.21875-11.054687l-2.832031-16.515625 11.996094-11.695313c6.222656-6.066406 2.789063-16.644531-5.8125-17.890625zm-18.355469 20.496094c-2.472656 2.414063-3.601562 5.886719-3.015625 9.285156l1.6875 9.84375-8.835937-4.648437c-3.054688-1.605469-6.707032-1.605469-9.761719 0l-8.839844 4.648437 1.6875-9.84375c.585938-3.402343-.546875-6.875-3.015625-9.28125l-7.152344-6.96875 9.886719-1.4375c3.417969-.496093 6.367188-2.644531 7.894531-5.738281l4.417969-8.953125 4.421875 8.957031c1.527344 3.09375 4.480469 5.238282 7.894532 5.734375l9.882812 1.4375zm0 0"/><path d="m454.933594 468.464844-35.929688-62.566406c5.457032-8.230469 9.429688-17.421876 11.59375-27.105469.90625-4.042969-1.640625-8.050781-5.683594-8.957031-4.039062-.902344-8.050781 1.640624-8.957031 5.683593-6.753906 30.222657-34.164062 51.800781-64.71875 51.800781-36.6875 0-66.339843-29.851562-66.339843-66.339843 0-36.578125 29.761718-66.335938 66.339843-66.335938 30.121094 0 56.511719 20.351563 64.152344 49.417969 1.054687 4.007812 5.15625 6.398438 9.164063 5.347656 4.003906-1.054687 6.398437-5.15625 5.347656-9.160156-1.886719-7.171875-4.710938-13.894531-8.300782-20.078125 0-10.660156 0-232.707031 0-243.367187 0-10.871094-8.84375-19.714844-19.714843-19.714844-10.628907 0-83.675781 0-93.011719 0-19.945312-35.328125-57.007812-57.089844-97.824219-57.089844-40.816406 0-77.875 21.761719-97.824219 57.089844-9.328124 0-82.199218 0-93.011718 0-10.871094 0-19.714844 8.84375-19.714844 19.714844v287.015624c0 10.871094 8.84375 19.714844 19.714844 19.714844h252.890625c2.320312 8.03125 5.839843 15.558594 10.367187 22.363282l-35.929687 62.566406c-4.042969 7.039062 1.636719 15.695312 9.6875 14.800781l28.242187-3.117187 11.539063 25.960937c3.292969 7.40625 13.621093 7.957031 17.667969.910156l36.558593-63.65625 36.558594 63.65625c4.042969 7.039063 14.367187 6.507813 17.667969-.910156l11.542968-25.960937 28.234376 3.117187c8.078124.882813 13.726562-7.773437 9.691406-14.800781zm-243.882813-453.464844c32.429688 0 62.132813 15.851562 80.167969 42.089844h-160.335938c18.039063-26.238282 47.738282-42.089844 80.167969-42.089844zm-195.550781 61.804688c0-2.558594 2.160156-4.714844 4.714844-4.714844h81.808594v2.273437c0 14.722657 11.980468 26.699219 26.703124 26.699219h64.824219c4.140625 0 7.5-3.355469 7.5-7.5 0-4.140625-3.359375-7.5-7.5-7.5h-64.824219c-6.453124 0-11.699218-5.25-11.699218-11.699219v-2.273437h188.046875v2.273437c0 6.449219-5.246094 11.699219-11.699219 11.699219h-64.820312c-4.144532 0-7.503907 3.359375-7.503907 7.5 0 4.144531 3.359375 7.5 7.503907 7.5h64.820312c14.722656 0 26.703125-11.976562 26.703125-26.699219v-2.273437h81.808594c2.554687 0 4.714843 2.160156 4.714843 4.714844v47.617187c0 55.410156-41.335937 101.722656-95.476562 108.742187v-13.542968c0-7.523438-6.125-13.648438-13.648438-13.648438h-18.238281c-7.527343 0-13.648437 6.125-13.648437 13.648438v14.46875h-109.078125v-14.46875c0-7.523438-6.121094-13.648438-13.648438-13.648438h-18.234375c-7.527344 0-13.652344 6.125-13.652344 13.648438v13.542968c-54.144531-7.015624-95.476562-53.328124-95.476562-108.742187zm280.625 144.167968v41.234375h-15.535156v-41.234375zm-154.613281 20.636719v20.597656h-15.535157v-41.234375h15.535157v20.617188zm128.386719 119.371094c0 2.261719.117187 5.003906.351562 7.554687h-250.035156c-2.554688 0-4.714844-2.160156-4.714844-4.714844v-180.253906c18.871094 34.742188 53.925781 59.945313 95.476562 64.699219v15.292969c0 7.523437 6.125 13.648437 13.648438 13.648437h18.238281c7.527344 0 13.648438-6.125 13.648438-13.648437v-14.46875h109.074219v14.46875c0 7.523437 6.125 13.648437 13.652343 13.648437h18.234375c7.527344 0 13.648438-6.125 13.648438-13.648437v-15.292969c41.582031-4.753906 76.628906-29.996094 95.476562-64.699219v117.773438c-15.058594-14.050782-34.835937-21.699219-55.359375-21.699219-44.851562 0-81.339843 36.488281-81.339843 81.339844zm36.757812 129.890625-8.984375-20.207032c-1.777344-3.996093-5.878906-6.304687-10.152344-5.832031l-21.984375 2.425781 28.070313-48.875c11.390625 11.453126 25.957031 19.261719 41.820312 22.398438zm108.300781-26.039063c-4.300781-.472656-8.386719 1.871094-10.148437 5.832031l-8.984375 20.207032-28.769531-50.089844c15.851562-3.125 30.390624-10.910156 41.820312-22.402344l28.066406 48.878906zm0 0"/></svg>