<svg height="511pt" viewBox="0 -27 511.99829 511" width="511pt" xmlns="http://www.w3.org/2000/svg"><path d="m344.617188 73.058594c4.160156-3.972656 1.863281-10.894532-3.886719-11.714844l-44.421875-6.320312c-2.28125-.328126-4.257813-1.730469-5.277344-3.757813l-19.867188-39.429687c-2.570312-5.105469-10.003906-5.105469-12.574218 0l-19.863282 39.429687c-1.023437 2.027344-2.996093 3.429687-5.28125 3.753906l-44.421874 6.324219c-5.75.820312-8.046876 7.742188-3.882813 11.714844l32.140625 30.691406c1.652344 1.578125 2.40625 3.851562 2.015625 6.078125l-7.585937 43.335937c-.984376 5.613282 5.027343 9.890626 10.171874 7.242188l39.730469-20.460938c2.042969-1.050781 4.484375-1.050781 6.527344 0l39.730469 20.460938c5.140625 2.648438 11.152344-1.628906 10.171875-7.242188l-7.585938-43.335937c-.390625-2.226563.363281-4.5 2.015625-6.078125zm0 0" fill="#feca57"/><path d="m458.621094 140.800781c2.574218-2.457031 1.152344-6.738281-2.402344-7.242187l-27.472656-3.910156c-1.410156-.203126-2.632813-1.070313-3.265625-2.324219l-12.285157-24.386719c-1.589843-3.15625-6.1875-3.15625-7.777343 0l-12.285157 24.386719c-.632812 1.253906-1.851562 2.121093-3.265624 2.324219l-27.472657 3.910156c-3.554687.503906-4.976562 4.785156-2.402343 7.242187l19.878906 18.984375c1.023437.972656 1.488281 2.378906 1.246094 3.757813l-4.691407 26.800781c-.609375 3.472656 3.109375 6.117188 6.289063 4.480469l24.574218-12.65625c1.261719-.648438 2.773438-.648438 4.035157 0l24.570312 12.65625c3.183594 1.636719 6.902344-1.007813 6.292969-4.480469l-4.691406-26.800781c-.242188-1.378907.222656-2.785157 1.246094-3.757813zm0 0" fill="#feca57"/><path d="m169.761719 140.800781c2.574219-2.457031 1.152343-6.738281-2.402344-7.242187l-27.472656-3.910156c-1.410157-.203126-2.632813-1.070313-3.265625-2.324219l-12.285156-24.386719c-1.589844-3.15625-6.1875-3.15625-7.777344 0l-12.285156 24.386719c-.632813 1.253906-1.851563 2.121093-3.265626 2.324219l-27.472656 3.910156c-3.558594.503906-4.976562 4.785156-2.402344 7.242187l19.878907 18.984375c1.019531.972656 1.488281 2.378906 1.246093 3.757813l-4.691406 26.800781c-.609375 3.472656 3.109375 6.117188 6.289063 4.480469l24.574219-12.65625c1.261718-.648438 2.769531-.648438 4.035156 0l24.570312 12.65625c3.183594 1.636719 6.902344-1.007813 6.292969-4.480469l-4.691406-26.800781c-.242188-1.378907.222656-2.785157 1.246093-3.757813zm0 0" fill="#feca57"/><path d="m263.445312 50.117188c2.285157-.324219 4.257813-1.730469 5.28125-3.757813l9.914063-19.683594-7.476563-14.839843c-2.570312-5.105469-10.003906-5.105469-12.574218 0l-19.863282 39.429687c-.574218 1.132813-1.449218 2.0625-2.503906 2.726563zm0 0" fill="#f4b537"/><path d="m241.710938 148.261719 7.589843-43.335938c.390625-2.230469-.367187-4.503906-2.015625-6.082031l-32.144531-30.691406c-3.382813-3.230469-2.496094-8.410156 1.046875-10.675782l-27.160156 3.867188c-5.753906.816406-8.046875 7.742188-3.886719 11.714844l32.140625 30.691406c1.652344 1.578125 2.40625 3.851562 2.015625 6.078125l-7.585937 43.335937c-.980469 5.613282 5.03125 9.890626 10.171874 7.242188l19.769532-10.179688c-.070313-.628906-.058594-1.289062.058594-1.964843zm0 0" fill="#f4b537"/><path d="m392.394531 128.652344 27.472657-3.910156c1.367187-.195313 2.554687-1.019532 3.199218-2.210938l-9.871094-19.59375c-1.589843-3.15625-6.1875-3.15625-7.777343 0l-12.285157 24.386719c-.285156.558593-.691406 1.039062-1.175781 1.421875.144531-.035156.289063-.074219.4375-.09375zm0 0" fill="#f4b537"/><path d="m411.117188 158.636719c.242187-1.378907-.222657-2.78125-1.246094-3.757813l-19.878906-18.980468c-1.96875-1.882813-1.59375-4.828126.285156-6.335938-.132813.03125-.269532.0625-.410156.085938l-27.472657 3.910156c-3.554687.503906-4.976562 4.785156-2.402343 7.242187l19.878906 18.980469c1.023437.976562 1.488281 2.382812 1.246094 3.761719l-4.691407 26.800781c-.609375 3.472656 3.109375 6.117188 6.292969 4.480469l24.25-12.492188zm0 0" fill="#f4b537"/><path d="m122.261719 158.636719c.238281-1.378907-.226563-2.78125-1.25-3.757813l-19.878907-18.984375c-1.96875-1.878906-1.59375-4.824219.285157-6.332031-.132813.03125-.269531.0625-.410157.082031l-27.46875 3.910157c-3.558593.507812-4.980468 4.789062-2.40625 7.246093l19.878907 18.980469c1.023437.976562 1.492187 2.382812 1.25 3.761719l-4.695313 26.800781c-.609375 3.46875 3.113282 6.117188 6.292969 4.476562l24.253906-12.488281zm0 0" fill="#f4b537"/><path d="m103.539062 128.652344 27.46875-3.910156c1.371094-.195313 2.554688-1.019532 3.199219-2.210938l-9.871093-19.59375c-1.589844-3.15625-6.183594-3.15625-7.777344 0l-12.285156 24.386719c-.28125.558593-.6875 1.039062-1.171876 1.421875.140626-.035156.285157-.074219.4375-.09375zm0 0" fill="#f4b537"/><g fill="#ffbeab"><path d="m467.703125 325.246094-95.398437 6.636718c2.035156-2.691406 4.605468-5.046874 7.6875-6.875l66.726562-39.609374c12.765625-7.578126 29.261719-3.375 36.839844 9.394531 5.804687 9.773437 4.679687 21.71875-1.886719 30.191406-6.929687-.988281-12.9375.117187-13.96875.261719zm0 0"/><path d="m478.699219 304.242188-72.179688 5.019531-26.527343 15.75c-3.082032 1.828125-5.652344 4.183593-7.6875 6.871093l95.398437-6.632812c1.03125-.148438 7.039063-1.253906 13.96875-.265625 4.6875-6.050781 6.585937-13.871094 5.179687-21.410156-4.238281-.011719-7.425781.566406-8.152343.667969zm0 0"/><path d="m168.417969 361.125-15.160157 6.242188-42.863281-104.09375c22.210938-9.042969 45.183594-16.132813 68.6875-20.910157 26.289063-5.347656 35.589844-3.695312 84.273438 6.929688v.003906c15.835937 3.773437 22.382812 9.671875 79.609375 48.660156 20.648437 14.0625 8.292968 34.382813 8.292968 34.382813l116.445313-8.097656c2.339844-.328126 30.527344-5.660157 36.535156 20.171874 4.785157 24.078126-19.617187 32.222657-24.386719 33.46875l-155.320312 31.203126s-.007812.003906-.019531.003906c-23.511719 6.140625-42.804688-3.125-50.984375-8.140625l-45.855469-31.242188c-17.578125-11.972656-39.808594-16.589843-59.253906-8.582031zm0 0"/><path d="m168.417969 361.125-15.160157 6.242188-42.863281-104.09375c22.210938-9.042969 45.183594-16.132813 68.6875-20.910157 26.289063-5.347656 35.589844-3.695312 84.273438 6.929688v.003906c15.835937 3.773437 22.382812 9.671875 79.609375 48.660156 20.648437 14.0625 8.292968 34.382813 8.292968 34.382813l116.445313-8.097656c2.339844-.328126 30.527344-5.660157 36.535156 20.171874 4.785157 24.078126-19.617187 32.222657-24.386719 33.46875l-155.320312 31.203126s-.007812.003906-.019531.003906c-23.511719 6.140625-42.804688-3.125-50.984375-8.140625l-45.855469-31.242188c-17.578125-11.972656-39.808594-16.589843-59.253906-8.582031zm0 0"/><path d="m134.417969 254.382812c-8.097657 2.707032-16.109375 5.671876-24.023438 8.890626l42.863281 104.097656 15.160157-6.242188c1.351562-.558594 2.722656-1.050781 4.109375-1.492187zm0 0"/><path d="m292.699219 399.136719c-51.757813-38.640625-53.171875-41.816407-73.574219-46.613281-17.847656-4.199219-29.449219 1.253906-42.53125 5.992187 15.117188-3.535156 34.0625-.394531 51.078125 11.195313l45.855469 31.238281c7.644531 4.6875 24.984375 13.078125 46.402344 9.15625-12.5-2.128907-22.105469-7.515625-27.230469-10.96875zm0 0"/><path d="m340.441406 353.292969c12.898438 0 21.953125-9.378907 25.558594-15.890625.03125-.058594.0625-.117188.09375-.175782l3.183594-6.136718-17.886719 1.242187c-2.664063 3.359375-8.761719 8.707031-18.3125 3.996094-19.070313-9.410156-64.546875-31.632813-65.003906-31.855469-3.71875-1.816406-8.210938-.277344-10.027344 3.445313-1.820313 3.71875-.277344 8.207031 3.445313 10.027343.457031.222657 45.90625 22.433594 64.949218 31.832032 5.046875 2.488281 9.734375 3.515625 14 3.515625zm0 0"/></g><path d="m160.265625 380.234375-53.789063-130.628906c-2.253906-5.464844-8.507812-8.074219-13.976562-5.820313l-77.765625 32.019532c-4.152344 1.710937-6.863281 5.761718-6.863281 10.253906v156.03125c0 5.871094 5.953125 9.863281 11.382812 7.632812l135.1875-55.511718c5.46875-2.253907 8.074219-8.507813 5.824219-13.976563zm0 0" fill="#54a0ff"/><path d="m27.863281 441.488281v-167.375c0-1.390625.25-2.738281.703125-4l-13.832031 5.691407c-4.152344 1.710937-6.863281 5.761718-6.863281 10.253906v156.03125c0 5.871094 5.957031 9.863281 11.382812 7.632812l9.691406-3.976562c-.683593-1.246094-1.082031-2.6875-1.082031-4.257813zm0 0" fill="#54a0ff"/><path d="m467.703125 325.246094-95.398437 6.636718c2.035156-2.691406 4.605468-5.046874 7.6875-6.875l66.726562-39.609374c12.765625-7.578126 29.261719-3.375 36.839844 9.394531 5.804687 9.773437 4.679687 21.71875-1.886719 30.191406-6.929687-.988281-12.9375.117187-13.96875.261719zm0 0" fill="#ffcdbf"/><path d="m478.699219 304.242188-72.179688 5.019531-26.527343 15.75c-3.082032 1.828125-5.652344 4.183593-7.6875 6.871093l95.398437-6.632812c1.03125-.148438 7.039063-1.253906 13.96875-.265625 4.6875-6.050781 6.585937-13.871094 5.179687-21.410156-4.238281-.011719-7.425781.566406-8.152343.667969zm0 0" fill="#ffbeab"/><path d="m168.417969 361.125-15.160157 6.242188-42.863281-104.09375c22.210938-9.042969 45.183594-16.132813 68.6875-20.910157 26.289063-5.347656 35.589844-3.695312 84.273438 6.929688v.003906c15.835937 3.773437 22.382812 9.671875 79.609375 48.660156 20.648437 14.0625 8.292968 34.382813 8.292968 34.382813l116.445313-8.097656c2.339844-.328126 30.527344-5.660157 36.535156 20.171874 4.785157 24.078126-19.617187 32.222657-24.386719 33.46875l-155.320312 31.203126s-.007812.003906-.019531.003906c-23.511719 6.140625-42.804688-3.125-50.984375-8.140625l-45.855469-31.242188c-17.578125-11.972656-39.808594-16.589843-59.253906-8.582031zm0 0" fill="#ffbeab"/><path d="m168.417969 361.125-15.160157 6.242188-42.863281-104.09375c22.210938-9.042969 45.183594-16.132813 68.6875-20.910157 26.289063-5.347656 35.589844-3.695312 84.273438 6.929688v.003906c15.835937 3.773437 22.382812 9.671875 79.609375 48.660156 20.648437 14.0625 8.292968 34.382813 8.292968 34.382813l116.445313-8.097656c2.339844-.328126 30.527344-5.660157 36.535156 20.171874 4.785157 24.078126-19.617187 32.222657-24.386719 33.46875l-155.320312 31.203126s-.007812.003906-.019531.003906c-23.511719 6.140625-42.804688-3.125-50.984375-8.140625l-45.855469-31.242188c-17.578125-11.972656-39.808594-16.589843-59.253906-8.582031zm0 0" fill="#ffcdbf"/><path d="m134.417969 254.382812c-8.097657 2.707032-16.109375 5.671876-24.023438 8.890626l42.863281 104.097656 15.160157-6.242188c1.351562-.558594 2.722656-1.050781 4.109375-1.492187zm0 0" fill="#ffbeab"/><path d="m292.699219 399.136719c-51.757813-38.640625-53.171875-41.816407-73.574219-46.613281-17.847656-4.199219-29.449219 1.253906-42.53125 5.992187 15.117188-3.535156 34.0625-.394531 51.078125 11.195313l45.855469 31.238281c7.644531 4.6875 24.984375 13.078125 46.402344 9.15625-12.5-2.128907-22.105469-7.515625-27.230469-10.96875zm0 0" fill="#ffbeab"/><path d="m160.265625 380.234375-53.789063-130.628906c-2.253906-5.464844-8.507812-8.074219-13.976562-5.820313l-77.765625 32.019532c-4.152344 1.710937-6.863281 5.761718-6.863281 10.253906v156.03125c0 5.871094 5.953125 9.863281 11.382812 7.632812l135.1875-55.511718c5.46875-2.253907 8.074219-8.507813 5.824219-13.976563zm0 0" fill="#54a0ff"/><path d="m27.863281 441.488281v-167.375c0-1.390625.25-2.738281.703125-4l-13.832031 5.691407c-4.152344 1.710937-6.863281 5.761718-6.863281 10.253906v156.03125c0 5.871094 5.957031 9.863281 11.382812 7.632812l9.691406-3.976562c-.683593-1.246094-1.082031-2.6875-1.082031-4.257813zm0 0" fill="#338def"/><path d="m21.738281 456.648438 135.246094-55.535157c9.285156-3.824219 13.726563-14.488281 9.902344-23.773437l-2.671875-6.488282 8.160156-3.359374c17.101562-7.042969 36.675781-2.570313 51.917969 7.808593 49.734375 33.886719 46.917969 32.3125 53.898437 35.535157 3.757813 1.730468 8.214844.089843 9.953125-3.671876 1.734375-3.761718.089844-8.214843-3.671875-9.953124-5.574218-2.570313-2.75-.933594-51.734375-34.304688-11.570312-7.882812-20.316406-10.65625-31.511719-12.78125-11.671874-2.21875-23.621093-1.007812-34.5625 3.496094l-8.160156 3.359375c-1.140625-2.769531-25.640625-62.261719-36.929687-89.671875 19.835937-7.640625 40.007812-13.566406 60.058593-17.644532 24.773438-5.039062 33.355469-3.472656 80.632813 6.839844.011719.003906.023437.007813.035156.011719 14.234375 3.390625 20.375 8.925781 76.777344 47.347656 13.75 9.367188 7.445313 21.792969 6.070313 24.140625-.019532.035156-.03125.070313-.054688.101563-.03125.058593-.066406.105469-.097656.160156-.625 1.128906-6.417969 10.863281-17.414063 5.441406-17.539062-8.65625-59.363281-29.09375-59.785156-29.296875-3.726563-1.820312-8.214844-.277344-10.03125 3.445313-1.816406 3.722656-.273437 8.210937 3.445313 10.03125.421874.203125 42.21875 20.628906 59.730468 29.269531 13.777344 6.800781 26.910156 2.042969 34.773438-8.027344.429687-.03125 112.402344-7.804687 112.828125-7.867187 13.417969-2.019531 24.835937.925781 27.992187 14.238281 3.375 17.429688-14.496094 23.3125-18.648437 24.433594-120.292969 24.164062-160.230469 32.289062-162.414063 32.542968-4.117187.476563-7.066406 4.195313-6.589844 8.3125.476563 4.121094 4.210938 7.066407 8.3125 6.585938 3.097657-.355469-11.425781 2.433594 163.871094-32.78125 9-1.8125 35.804688-13.738281 30.160156-42.136719-.019531-.078125-.035156-.160156-.050781-.234375-2.585937-11.117187-9.242187-19.109375-18.726562-23.273437 3.507812-9.5 2.664062-20.195313-2.71875-29.265625-9.644531-16.246094-30.710938-21.617188-46.960938-11.972656l-66.433593 39.4375c-2.785157 1.652343-5.292969 3.675781-7.492188 6.027343l-6.511719.453125c1.621094-10-.769531-22.597656-14.808593-32.164062-57.140626-38.925782-64.394532-45.375-81.566407-49.5-.105469-.03125-.214843-.054688-.320312-.078125-49.132813-10.722657-59.261719-12.5625-86.996094-6.921875-20.976563 4.261718-42.054687 10.484375-62.773437 18.480468l-2.792969-6.78125c-3.832031-9.304687-14.464844-13.738281-23.769531-9.902343l-77.792969 32.03125c-6.992188 2.882812-11.511719 9.628906-11.511719 17.191406v156.089844c0 11.203125 11.382812 18.828125 21.738281 14.574219zm428.691407-166.039063c16.542968-9.816406 35.558593 8.109375 27.105468 25.09375-1.316406-.050781-77.417968 5.296875-78.417968 5.367187zm-435.429688-4.625c0-1.460937.871094-2.761719 2.222656-3.320313l77.796875-32.035156c1.644531-.675781 3.515625.113282 4.1875 1.746094 5.800781 14.085938 47.285157 114.824219 53.8125 130.675781.671875 1.636719-.109375 3.515625-1.738281 4.1875l-135.238281 55.535157c-.511719.207031-1.042969-.15625-1.042969-.699219zm0 0"/><path d="m463.433594 146.214844c7.089844-6.773438 3.234375-18.707032-6.527344-20.09375l-25.851562-3.679688-11.53125-22.890625c-4.359376-8.652343-16.8125-8.652343-21.171876 0l-11.53125 22.886719-25.851562 3.679688c-9.746094 1.386718-13.628906 13.3125-6.527344 20.097656l18.613282 17.769531-4.386719 25.054687c-1.671875 9.554688 8.414062 16.921876 17.113281 12.441407l23.15625-11.925781 23.152344 11.921874c8.695312 4.480469 18.789062-2.871093 17.117187-12.4375l-4.386719-25.054687zm-30.238282 8.132812c-2.839843 2.710938-4.132812 6.628906-3.457031 10.476563l3.574219 20.410156-18.921875-9.746094c-3.414063-1.757812-7.492187-1.757812-10.902344 0l-18.925781 9.746094 3.574219-20.410156c.675781-3.847657-.617188-7.765625-3.453125-10.476563l-14.996094-14.316406 20.867188-2.972656c3.839843-.546875 7.167968-2.929688 8.90625-6.375l9.476562-18.808594 9.476562 18.8125c1.738282 3.441406 5.066407 5.824219 8.90625 6.371094l20.867188 2.972656zm0 0"/><path d="m168.046875 126.117188-25.847656-3.679688-11.535157-22.886719c-4.355468-8.652343-16.816406-8.65625-21.171874 0l-11.53125 22.886719-25.851563 3.679688c-9.78125 1.394531-13.605469 13.335937-6.523437 20.097656l18.609374 17.769531-4.386718 25.054687c-1.675782 9.582032 8.4375 16.90625 17.113281 12.441407l23.15625-11.925781 23.15625 11.925781c8.699219 4.480469 18.785156-2.882813 17.113281-12.441407l-4.386718-25.054687 18.609374-17.769531c7.09375-6.773438 3.242188-18.707032-6.523437-20.097656zm-23.710937 28.230468c-2.839844 2.707032-4.128907 6.625-3.457032 10.476563l3.574219 20.410156-18.925781-9.746094c-3.417969-1.761719-7.492188-1.753906-10.902344 0l-18.921875 9.746094 3.574219-20.410156c.675781-3.847657-.617188-7.765625-3.457032-10.476563l-14.992187-14.316406 20.867187-2.972656c3.84375-.546875 7.171876-2.929688 8.90625-6.371094l9.476563-18.808594 9.476563 18.804688c1.734374 3.445312 5.0625 5.828125 8.90625 6.375l20.867187 2.972656zm0 0"/><path d="m318.421875 97.703125c2.859375 2.996094 7.609375 3.105469 10.605469.246094l20.398437-19.476563c8.683594-8.292968 3.9375-22.867187-8.011719-24.566406l-44.1875-6.289062-19.734374-39.167969c-5.339844-10.601563-20.632813-10.597657-25.972657 0l-19.730469 39.167969-44.191406 6.289062c-11.9375 1.699219-16.699218 16.269531-8.007812 24.566406l31.882812 30.441406-7.519531 42.945313c-2.054687 11.722656 10.359375 20.679687 20.996094 15.203125l39.558593-20.375 39.558594 20.375c10.648438 5.484375 23.046875-3.492188 20.996094-15.203125l-4.488281-25.628906c-.714844-4.078125-4.601563-6.808594-8.683594-6.09375-4.078125.714843-6.804687 4.601562-6.09375 8.683593l4.285156 24.46875-38.878906-20.023437c-4.191406-2.160156-9.199219-2.160156-13.394531 0l-38.878906 20.023437 7.386718-42.175781c.824219-4.703125-.757812-9.488281-4.226562-12.796875l-31.136719-29.734375 43.175781-6.148437c4.714844-.667969 8.796875-3.585938 10.921875-7.804688l19.453125-38.613281 19.457032 38.609375c2.121093 4.21875 6.207031 7.140625 10.921874 7.808594l43.175782 6.148437-19.390625 18.515625c-2.996094 2.863282-3.105469 7.609375-.246094 10.605469zm0 0"/></svg>