<svg height="512pt" viewBox="-42 0 512 512.00156" width="512pt" xmlns="http://www.w3.org/2000/svg"><path d="m175.984375 5.679688c-46.226563 0-83.695313 37.472656-83.695313 83.699218v118.050782c0 6.128906 4.96875 11.09375 11.097657 11.09375h38.472656 68.066406 38.664063c6.125 0 11.09375-4.964844 11.09375-11.09375 0-11.191407 0-32.605469 0-54.707032v-31.238281c0-13.09375 0-24.617187 0-32.105469 0-46.226562-37.472656-83.699218-83.699219-83.699218zm0 0" fill="#576574"/><path d="m122.402344 207.429688c0-1.230469 0-116.820313 0-118.050782 0-41.082031 29.601562-75.226562 68.636718-82.320312-4.886718-.886719-9.910156-1.378906-15.054687-1.378906-46.226563 0-83.695313 37.472656-83.695313 83.699218v118.050782c0 6.128906 4.96875 11.097656 11.097657 11.097656h30.109375c-6.128906-.003906-11.09375-4.96875-11.09375-11.097656zm0 0" fill="#3e4b5a"/><path d="m236.5625 114.121094v44.660156c0 .4375-.023438.863281-.035156 1.296875 15.9375 3.054687 29.207031-8.394531 29.207031-22.976563-.003906-14.566406-13.253906-26.007812-29.171875-22.980468zm0 0" fill="#ffbeab"/><path d="m259.71875 121.480469c-5.367188-5.917969-13.796875-9.140625-23.15625-7.359375v44.660156c0 .4375-.023438.863281-.035156 1.296875 9.371094 1.796875 17.820312-1.425781 23.191406-7.351563zm0 0" fill="#f7af9f"/><path d="m176.851562 216.609375c-13.519531 0-25.351562-3.8125-34.945312-10.152344v31.082031l34.03125 42.007813 34.035156-42.007813v-30.964843c-9.492187 6.332031-20.882812 10.035156-33.121094 10.035156zm0 0" fill="#ffbeab"/><path d="m172.015625 216.441406c-11.515625-.796875-21.679687-4.410156-30.109375-9.984375v31.082031l30.109375 37.167969zm0 0" fill="#f7af9f"/><path d="m232.75 102.902344c-7.449219-2.261719-22.046875-8.226563-36.109375-22.730469-2.292969-2.367187-6.050781-2.191406-8.152344.203125-9.855469 11.238281-36.359375 38.699219-69.578125 50.964844-2.179687.804687-3.628906 2.882812-3.628906 5.207031v22.140625c0 31.261719 24.492188 59.835938 61.570312 59.835938 32.992188 0 59.835938-26.839844 59.835938-59.835938v-50.476562c0-2.441407-1.597656-4.597657-3.9375-5.308594zm0 0" fill="#ffcdbf"/><path d="m145.394531 158.6875v-40.777344c-8.136719 5.222656-17.035156 9.941406-26.484375 13.429688-2.179687.804687-3.628906 2.882812-3.628906 5.207031v22.140625c0 31.265625 24.492188 59.839844 61.566406 59.839844 4.890625 0 9.640625-.605469 14.191406-1.714844-26.164062-6.390625-45.644531-30.019531-45.644531-58.125zm0 0" fill="#ffbeab"/><path d="m166.707031 347.265625c6.300781-5.464844 15.800781-4.953125 21.476563 1.164063l61.265625 66.003906 83.855469-80.070313c0-4.550781 0-8.671875 0-12.222656 0-37.960937-33.300782-51.652344-33.300782-51.652344l-90.035156-34.867187-34.03125 42.011718-34.03125-42.011718-89.941406 34.867187s-33.300782 13.691407-33.300782 51.652344v148.925781c0 1.378906.265626 2.695313.726563 3.917969zm0 0" fill="#e4eaf8"/><g fill="#c7d2e5"><path d="m48.777344 307.085938c0-21.554688 10.734375-35.277344 20.011718-43.121094l-16.824218 6.523437s-33.300782 13.691407-33.300782 51.652344v148.925781c0 1.378906.265626 2.695313.726563 3.917969l29.386719-25.476563c0-40.910156 0-114.300781 0-142.421874zm0 0"/><path d="m217.03125 299.214844 25.449219-51.003906-32.511719-12.589844-34.03125 42.007812 33.183594 23.566406c2.683594 1.90625 6.4375.96875 7.910156-1.980468zm0 0"/><path d="m134.894531 299.214844-25.453125-51.003906 32.511719-12.589844 34.03125 42.007812-33.179687 23.566406c-2.6875 1.90625-6.441407.96875-7.910157-1.980468zm0 0"/></g><path d="m154.042969 296.59375c-14.1875 14.046875-22.625 34.527344-25.703125 43.03125-.785156 2.179688.277344 4.585938 2.417968 5.46875l21.011719 8.613281c2.46875 1.011719 5.269531-.433593 5.84375-3.039062 3.835938-17.488281 10.878907-31.363281 15.929688-39.71875-8.796875-.878907-16.167969-6.542969-19.5-14.355469zm0 0" fill="#ff6b6b"/><path d="m197.863281 296.523438c-3.308593 7.820312-10.660156 13.503906-19.441406 14.414062 5.054687 8.355469 12.097656 22.238281 15.9375 39.730469.574219 2.605469 3.375 4.054687 5.84375 3.039062l21.011719-8.613281c2.140625-.878906 3.203125-3.289062 2.417968-5.46875-3.082031-8.515625-11.542968-29.050781-25.769531-43.101562zm0 0" fill="#ff6b6b"/><path d="m175.960938 277.648438-23.589844 16.753906c2.964844 10.222656 12.390625 17.695312 23.566406 17.695312 11.1875 0 20.621094-7.488281 23.578125-17.722656zm0 0" fill="#ee5253"/><path d="m182.925781 298.65625c-1.183593-2.316406-.410156-5.160156 1.710938-6.667969l5.757812-4.089843-14.433593-10.253907-23.589844 16.757813c2.964844 10.21875 12.390625 17.695312 23.566406 17.695312 5.402344 0 10.382812-1.757812 14.433594-4.714844-3.117188-2.273437-5.683594-5.261718-7.445313-8.726562zm0 0" fill="#d83941"/><path d="m420.757812 271.390625c-.035156-1.960937-1.652343-3.523437-3.613281-3.488281l-55.019531.972656c-3.15625.058594-4.675781 3.902344-2.402344 6.101562l13.386719 12.957032c1.535156 1.484375 1.527344 3.949218-.019531 5.425781l-123.640625 118.0625-61.265625-66.003906c-5.675782-6.113281-15.175782-6.628907-21.476563-1.164063l-153.484375 133.066406c-6.460937 5.601563-7.15625 15.375-1.554687 21.828126 5.597656 6.464843 15.375 7.152343 21.828125 1.558593l142.183594-123.269531 61.765624 66.542969c5.847657 6.300781 15.765626 6.644531 22.03125.664062l136.085938-129.949219c1.460938-1.394531 3.765625-1.386718 5.214844.019532l14.9375 14.453125c2.273437 2.203125 6.074218.550781 6.019531-2.613281zm0 0" fill="#feca57"/><path d="m40.894531 477.320312 149.453125-129.574218-2.164062-2.328125c-5.675782-6.113281-15.175782-6.628907-21.476563-1.164063l-153.484375 133.066406c-6.460937 5.601563-7.15625 15.375-1.554687 21.828126 5.601562 6.464843 15.375 7.152343 21.828125 1.558593l4.289062-3.71875c-3.816406-6.328125-2.664062-14.664062 3.109375-19.667969zm0 0" fill="#f4b537"/><path d="m400.78125 287.933594-13.386719-12.957032s-.066406-.070312-.175781-.195312c-.09375-.105469-.1875-.214844-.269531-.328125-.820313-1.050781-2.429688-3.519531-1.730469-5.988281l-23.09375.410156c-3.15625.054688-4.675781 3.902344-2.402344 6.101562l13.386719 12.957032c1.535156 1.484375 1.527344 3.949218-.019531 5.425781l-123.640625 118.0625 3.039062 3.128906c5.703125 5.875 15.078125 6.050781 21 .394531l127.273438-121.585937c1.546875-1.476563 1.554687-3.941406.019531-5.425781zm0 0" fill="#f4b537"/><path d="m201.75 375.714844c-5.707031-6.148438-15.179688-6.878906-21.761719-1.683594l-4.308593 3.40625 61.765624 66.542969c5.847657 6.300781 15.765626 6.644531 22.027344.664062l3.320313-3.167969zm0 0" fill="#f4b537"/><path d="m389.992188 309.238281-52.523438 50.15625c-3.007812 2.871094-3.117188 7.636719-.246094 10.644531 2.871094 3.003907 7.636719 3.117188 10.644532.246094l49.90625-47.65625 12.335937 11.9375c7.078125 6.851563 18.953125 1.710938 18.78125-8.15625l-.976563-55.167968c-.109374-6.039063-5.058593-10.878907-11.074218-10.878907-.066406 0-.132813 0-.199219 0l-55.015625.976563c-9.851562.171875-14.574219 12.195312-7.507812 19.035156l10.574218 10.234375-24.675781 23.5625c-4.152344-36.503906-36.066406-50.058594-37.519531-50.65625-.046875-.019531-.09375-.039063-.140625-.054687l-85.226563-33.007813v-4.410156h31.089844c10.269531 0 18.625-8.355469 18.625-18.625v-52.023438c3.894531-5.242187 6.046875-11.621093 6.046875-18.304687s-2.15625-13.0625-6.046875-18.300782v-29.421874c0-43.59375-30.734375-80.363282-72.089844-89.199219-4.066406-.867188-8.0625 1.722656-8.933594 5.789062-.867187 4.066407 1.726563 8.066407 5.792969 8.933594 34.867188 7.449219 60.175781 38.769531 60.175781 74.476563v18.519531c-2.324218-.78125-5.351562-1.414063-8.082031-1.605469-.707031-4.972656-4.277343-9.117188-9.132812-10.59375-10.757813-3.265625-22.65625-10.203125-32.894531-20.765625-5.351563-5.519531-14.230469-5.207031-19.21875.480469-17.417969 19.863281-41.613282 39.667968-66.527344 48.867187-5.148438 1.902344-8.546875 6.859375-8.546875 12.265625v22.140625c0 21.140625 9.84375 40.152344 24.988281 52.3125h-29.355469c-1.96875 0-3.570312-1.601562-3.570312-3.570312v-118.050781c0-35.707032 25.308593-67.027344 60.175781-74.476563 4.066406-.867187 6.660156-4.867187 5.792969-8.933594-.871094-4.066406-4.882813-6.660156-8.933594-5.789062-41.394531 8.839843-72.089844 45.640625-72.089844 89.199219v118.050781c0 10.269531 8.355469 18.625 18.625 18.625h30.992188v4.410156l-85.132813 33.007813c-.046875.019531-.09375.035156-.140625.054687-1.550781.640625-37.964843 16.097656-37.964843 58.613281v147.023438l-2.847657 2.46875c-9.582031 8.308594-10.621093 22.867187-2.3125 32.449218 8.371094 9.664063 22.921875 10.570313 32.449219 2.316407l136.679688-118.507813 56.8125 61.210938c8.628906 9.292968 23.390624 9.917968 32.746093.984375l58.128907-55.503907c3.003906-2.871093 3.117187-7.636718.246093-10.644531-2.871093-3.003906-7.636719-3.117187-10.644531-.242187l-58.125 55.503906c-3.15625 3.007812-8.253906 2.957031-11.316406-.339844l-61.765625-66.546875c-2.761719-2.972656-7.382813-3.222656-10.449219-.5625l-142.179688 123.269531c-3.414062 2.957032-8.410156 2.433594-11.210937-.800781-2.871094-3.3125-2.515625-8.339843.796875-11.210937 2.605469-2.257813 140.304688-121.640625 153.488281-133.066406 3.375-2.929688 8.269531-2.378907 11.027344.597656l61.265625 66.003906c2.648438 2.851562 7.261719 3.332031 10.457031.546875.085938-.074219.175781-.144531.261719-.222656 4.832031-4.617188 118.785156-113.433594 123.636719-118.0625 4.636719-4.425781 4.648437-11.832031.054687-16.28125l-6.5-6.292969 41.457032-.730469.734374 41.566407-8.019531-7.761719c-4.371093-4.234375-11.246093-4.257813-15.652343-.054688zm-158.308594-57.003906-20.632813 41.351563c-18.664062-13.257813 4.855469 3.445312-24.585937-17.460938l25.53125-31.515625zm-56.09375 13.398437-26.527344-32.746093v-12.054688c8.675781 3.535157 18.011719 5.210938 27.417969 5.210938 9.042969 0 18-1.925781 25.59375-5.054688v11.953125zm68.253906-144.21875c8.152344 1.09375 13.988281 7.820313 13.988281 15.675782 0 7.757812-5.710937 14.5625-13.988281 15.679687zm-.652344 46.519532c2.699219-.148438 5.867188-.71875 8.59375-1.636719v41.121094c0 1.96875-1.601562 3.570312-3.570312 3.570312h-29.347656c13.023437-10.5625 21.953124-25.875 24.324218-43.054687zm-120.753906-9.257813v-20.773437c26.15625-9.992188 51.230469-30.117188 69.929688-50.984375 10.980468 10.871093 23.867187 18.632812 36.421874 22.734375 0 1.671875 0 48.574218-.03125 50.15625-.605468 28.410156-23.957031 51.175781-52.277343 51.175781-33.160157 0-54.042969-25.914063-54.042969-52.308594zm16.710938 85.949219 25.539062 31.519531c-.003906.003907-16.351562 11.613281-16.351562 11.613281l-8.203126 5.828126-20.632812-41.351563zm-56.652344 162.339844v-71.960938c0-4.160156-3.367188-7.527344-7.527344-7.527344-4.15625 0-7.527344 3.367188-7.527344 7.527344v85.011719l-41.621094 36.085937v-133.972656c0-31.914062 26.921876-43.957031 28.589844-44.671875l50.984375-19.765625 22.390625 44.871094c1.429688 2.867188 3.859375 5.0625 6.800782 6.226562-7.125 11.347657-11.644532 22.59375-13.695313 28.261719-2.167969 5.992188.75 12.578125 6.640625 14.992188l12.429688 5.097656zm68.269531-61.664063-14.636719-6.003906c2.84375-7.3125 8.414063-19.789063 16.734375-30.457031 2.621094 2.757812 5.726563 5.019531 9.152344 6.667968-4.039063 7.878907-8.292969 17.988282-11.25 29.792969zm19.5-11.539062c1.726563-4.375 3.566406-8.328125 5.351563-11.78125 1.726562 3.339843 3.503906 7.144531 5.179687 11.351562-3.4375-.660156-7-.5625-10.53125.429688zm5.300781-30.21875c-5.222656 0-10.351562-2.59375-13.433594-7.117188 1.707032-1.210937 11.78125-8.367187 13.457032-9.558593l13.429687 9.539062c-3.121093 4.585938-8.269531 7.136719-13.453125 7.136719zm13.628906 11.925781c3.421876-1.65625 6.515626-3.921875 9.128907-6.683594 8.34375 10.675782 13.929687 23.179688 16.777343 30.511719l-14.636718 6.003906c-2.960938-11.824219-7.222656-21.949219-11.269532-29.832031zm136.210938 12.648438-41.617188 39.742187v-32.859375c0-4.15625-3.371093-7.527344-7.527343-7.527344-4.160157 0-7.53125 3.371094-7.53125 7.527344v47.234375l-19.328125 18.457031-39.789063-42.871094 14.082031-5.777343c5.894532-2.414063 8.8125-9 6.644532-14.992188-2.050782-5.671875-6.578125-16.925781-13.707032-28.28125 2.921876-1.164062 5.339844-3.351562 6.761719-6.207031l22.390625-44.867188 51.03125 19.765626c1.300782.558593 28.589844 12.742187 28.589844 44.667968zm0 0"/></svg>