<svg height="512pt" viewBox="-50 0 512 512.001" width="512pt" xmlns="http://www.w3.org/2000/svg"><path d="m235.074219 7.511719c-93.378907 0-169.28125 75.679687-169.28125 169.28125v25.164062c0 27.140625-10.78125 53.171875-29.976563 72.363281l-23.304687 23.308594c-9.871094 9.867188-2.878907 26.746094 11.078125 26.746094h33.519531c4.796875 0 8.683594 3.890625 8.683594 8.683594v28.753906c0 42.972656 35.160156 78.132812 78.128906 78.132812 16.753906 0 30.382813 13.574219 30.382813 30.382813v24.957031c0 5.097656 4.132812 9.226563 9.226562 9.226563h144.1875c5.171875 0 9.359375-4.191407 9.359375-9.359375v-64.011719c0-25.097656 8.367187-49.800781 24.972656-68.621094 26.328125-29.832031 42.308594-69.011719 42.308594-111.933593v-73.789063c0-93.492187-75.789063-169.285156-169.285156-169.285156zm0 0" fill="#e4eaf8"/><path d="m42.097656 297.628906 23.304688-23.308594c19.195312-19.191406 29.976562-45.222656 29.976562-72.363281v-25.164062c0-88.609375 68.019532-161.140625 154.492188-168.628907-4.875-.421874-9.808594-.652343-14.792969-.652343-93.382813 0-169.285156 75.675781-169.285156 169.28125v25.160156c0 27.144531-10.78125 53.175781-29.972657 72.367187l-23.308593 23.304688c-9.871094 9.871094-2.878907 26.75 11.082031 26.75h29.582031c-13.957031 0-20.949219-16.875-11.078125-26.746094zm0 0" fill="#c7d2e5"/><path d="m203.890625 495.285156v-24.957031c0-16.804687-13.628906-30.382813-30.382813-30.382813-42.96875 0-78.128906-35.160156-78.128906-78.128906v-28.757812c0-4.792969-3.886718-8.683594-8.683594-8.683594h-29.582031c4.792969 0 8.679688 3.890625 8.679688 8.683594v28.757812c0 42.96875 35.160156 78.128906 78.132812 78.128906 16.753907 0 30.382813 13.578126 30.382813 30.382813v24.960937c0 5.09375 4.128906 9.222657 9.222656 9.222657h29.585938c-5.097657 0-9.226563-4.128907-9.226563-9.226563zm0 0" fill="#c7d2e5"/><path d="m343.578125 154.761719h-22.375c-1.277344-4.542969-2.894531-8.941407-4.820313-13.167969l-26.414062 26.414062c.761719 3.757813 1.164062 7.652344 1.164062 11.636719 0 32.21875-26.121093 58.34375-58.34375 58.34375-32.21875 0-58.339843-26.121093-58.339843-58.34375 0-5.9375.890625-11.660156 2.539062-17.058593l-4.457031-4.457032c-7.128906-7.125-7.128906-18.683594 0-25.808594 7.125-7.125 18.679688-7.125 25.804688 0l.148437.148438c9.628906-7.015625 21.480469-11.167969 34.304687-11.167969 14.566407 0 27.875 5.351563 38.097657 14.175781l39.601562-39.601562-12.167969-12.167969c-1.320312-1.320312-3.464843-1.320312-4.785156 0l-15.824218 15.824219c-6.261719-3.515625-12.976563-6.316406-20.035157-8.300781v-22.375c0-1.871094-1.515625-3.382813-3.386719-3.382813h-42.996093c-1.871094 0-3.386719 1.511719-3.386719 3.382813v22.378906c-7.058594 1.980469-13.773438 4.78125-20.035156 8.296875l-15.824219-15.824219c-1.324219-1.320312-3.46875-1.320312-4.789063 0l-30.402343 30.40625c-1.324219 1.320313-1.324219 3.464844 0 4.785157l15.824219 15.824218c-3.519532 6.261719-6.316407 12.976563-8.300782 20.039063h-22.378906c-1.867188 0-3.382812 1.515625-3.382812 3.382812v43c0 1.867188 1.515624 3.382813 3.382812 3.382813h22.378906c1.984375 7.058594 4.78125 13.777344 8.300782 20.039062l-15.824219 15.824219c-1.324219 1.320313-1.324219 3.464844 0 4.785156l30.402343 30.402344c1.320313 1.324219 3.464844 1.324219 4.789063 0l15.824219-15.824219c6.261718 3.519532 12.976562 6.316406 20.035156 8.300782v22.375c0 1.871093 1.515625 3.386718 3.386719 3.386718h42.996093c1.867188 0 3.382813-1.515625 3.382813-3.386718v-22.375c7.0625-1.984376 13.773437-4.78125 20.039063-8.300782l15.824218 15.824219c1.320313 1.324219 3.464844 1.324219 4.785156 0l30.402344-30.402344c1.324219-1.320312 1.324219-3.464843 0-4.785156l-15.820312-15.824219c3.515625-6.261718 6.316406-12.980468 8.296875-20.039062h22.378906c1.871094 0 3.382813-1.515625 3.382813-3.382813v-43c.003906-1.867187-1.511719-3.382812-3.382813-3.382812zm0 0" fill="#54a0ff"/><path d="m166.855469 240.386719 9.6875-9.683594c3.523437-3.523437 4.515625-8.859375 2.472656-13.402344-.746094-1.660156-1.445313-3.34375-2.09375-5.054687-1.765625-4.65625-6.242187-7.71875-11.21875-7.71875h-13.699219c-1.867187 0-3.382812-1.515625-3.382812-3.382813v-43c0-1.867187 1.515625-3.382812 3.382812-3.382812h17.890625c-4.320312-7.03125-3.453125-16.347657 2.636719-22.441407 1.351562-1.347656 2.859375-2.441406 4.46875-3.277343l-10.140625-10.140625c-1.324219-1.324219-1.324219-3.464844 0-4.789063l17.796875-17.796875-12.609375-12.605468c-1.320313-1.320313-3.464844-1.320313-4.785156 0l-30.40625 30.402343c-1.320313 1.324219-1.320313 3.464844 0 4.789063l15.824219 15.824218c-3.515626 6.261719-6.316407 12.976563-8.300782 20.035157h-22.375c-1.871094 0-3.386718 1.515625-3.386718 3.382812v43c0 1.867188 1.519531 3.382813 3.386718 3.382813h22.378906c1.980469 7.058594 4.78125 13.777344 8.296876 20.039062l-15.824219 15.824219c-1.320313 1.320313-1.320313 3.464844 0 4.785156l30.40625 30.402344c1.320312 1.324219 3.464843 1.324219 4.789062 0l12.605469-12.605469-17.796875-17.796875c-1.324219-1.324219-1.324219-3.464843-.003906-4.789062zm0 0" fill="#338def"/><path d="m340.078125 92.089844c-7.324219-7.328125-19.183594-7.328125-26.511719 0l-74.238281 74.238281c-1.734375 1.730469-4.550781 1.730469-6.28125 0l-34.355469-34.359375c-7.324218-7.328125-19.1875-7.328125-26.515625 0s-7.328125 19.1875 0 26.515625l50.753907 50.753906c7.328124 7.328125 19.1875 7.328125 26.515624 0l90.632813-90.632812c7.328125-7.328125 7.328125-19.1875 0-26.515625zm0 0" fill="#feca57"/><path d="m202.179688 158.480469c-6.738282-6.730469-7.265626-17.285157-1.617188-24.640625l-1.871094-1.871094c-7.324218-7.328125-19.1875-7.332031-26.515625 0-7.328125 7.328125-7.328125 19.1875 0 26.511719l50.753907 50.757812c7.328124 7.324219 19.1875 7.328125 26.515624 0l1.742188-1.746093zm0 0" fill="#f4b537"/><path d="m211.292969 65.472656c-1.871094 0-3.386719 1.515625-3.386719 3.382813v22.378906s11.078125-3.398437 25.140625-4.378906c2.734375-.1875 4.859375-2.464844 4.859375-5.207031v-12.792969c0-1.871094 1.519531-3.382813 3.386719-3.382813zm0 0" fill="#338def"/><path d="m237.90625 290.429688v-10.949219c0-2.992188-2.328125-5.457031-5.316406-5.667969-15.515625-1.109375-24.683594-5.757812-24.683594-5.757812v22.375c0 1.871093 1.515625 3.386718 3.386719 3.386718h30c-1.871094 0-3.386719-1.515625-3.386719-3.386718zm0 0" fill="#338def"/><path d="m210.921875 301.308594h43c6 0 10.882813-4.886719 10.882813-10.890625v-16.863281c3.800781-1.308594 7.519531-2.851563 11.128906-4.609376l11.929687 11.929688c4.246094 4.238281 11.148438 4.234375 15.394531-.003906l30.402344-30.402344c4.242188-4.246094 4.242188-11.148438 0-15.394531l-11.925781-11.925781c1.761719-3.613282 3.300781-7.332032 4.609375-11.132813h16.867188c6 0 10.882812-4.882813 10.882812-10.882813v-43c0-6-4.882812-10.886718-10.882812-10.886718h-16.871094c-.453125-1.316406-.949219-2.625-1.457032-3.925782l19.777344-19.777343c10.066406-10.0625 10.066406-26.351563 0-36.414063-9.574218-9.578125-24.503906-9.886718-34.445312-1.777344l-6.957032-6.957031c-4.246093-4.242187-11.148437-4.242187-15.398437 0l-11.925781 11.925781c-3.609375-1.757812-7.328125-3.300781-11.128906-4.609374v-16.867188c0-6.003906-4.882813-10.886719-10.882813-10.886719h-43c-6 0-10.886719 4.882813-10.886719 10.886719v16.867188c-3.800781 1.308593-7.519531 2.847656-11.128906 4.609374l-11.925781-11.929687c-4.246094-4.238281-11.148438-4.238281-15.394531.003906l-30.40625 30.402344c-4.242188 4.246094-4.242188 11.148437 0 15.394531l11.929687 11.925782c-1.761719 3.609374-3.300781 7.332031-4.609375 11.128906h-16.867188c-6.003906 0-10.886718 4.882812-10.886718 10.886718v43c0 6 4.882812 10.882813 10.886718 10.882813h16.867188c1.308594 3.800781 2.847656 7.523437 4.609375 11.132813l-11.929687 11.925781c-4.242188 4.242187-4.242188 11.148437 0 15.390625l30.410156 30.410156c4.242187 4.234375 11.144531 4.238281 15.390625-.003906l11.925781-11.925782c3.609375 1.757813 7.328125 3.300782 11.128906 4.609376v16.863281c0 6.003906 4.886719 10.890625 10.886719 10.890625zm104.5-200.140625 3.429687-3.433594c4.203126-4.199219 11-4.203125 15.203126 0 4.199218 4.199219 4.203124 11 0 15.199219-10.773438 10.773437-79.480469 79.476562-90.636719 90.636718-4.199219 4.199219-11 4.199219-15.199219-.003906-2.273438-2.269531-49.144531-49.140625-50.753906-50.753906-4.203125-4.199219-4.203125-10.996094 0-15.199219 4.199218-4.199219 10.996094-4.203125 15.199218 0l.136719.136719c0 .003906.003907.003906.003907.007812l34.21875 34.214844c4.851562 4.851563 12.742187 4.851563 17.59375 0 7.046874-7.050781 63.613281-63.617187 70.804687-70.804687zm-32.476563 84.089843c-2.8125 25.394532-24.390624 45.214844-50.523437 45.214844-28.035156 0-50.84375-22.804687-50.84375-50.839844 0-.488281.011719-.976562.027344-1.460937l36.003906 36.003906c10.066406 10.066407 26.351563 10.066407 36.414063 0zm-72.765624-51.34375c15.570312-7.609374 34.015624-6.703124 48.851562 2.425782l-23.214844 23.210937zm-19.003907 119.289063c-2.929687-1.648437-6.601562-1.144531-8.980469 1.234375l-12.914062 12.914062-24.582031-24.582031 12.914062-12.914062c2.378907-2.378907 2.882813-6.046875 1.234375-8.980469-3.253906-5.789062-5.816406-11.976562-7.617187-18.390625-.910157-3.234375-3.859375-5.46875-7.222657-5.46875h-18.261718v-34.769531h18.261718c3.363282 0 6.3125-2.234375 7.222657-5.472656 1.800781-6.410157 4.363281-12.597657 7.617187-18.390626 1.648438-2.929687 1.144532-6.601562-1.234375-8.976562l-12.914062-12.914062 24.582031-24.585938 12.917969 12.917969c2.378906 2.375 6.046875 2.878906 8.976562 1.234375 5.789063-3.253906 11.976563-5.816406 18.390625-7.621094 3.234375-.90625 5.472656-3.859375 5.472656-7.21875v-18.261719h34.765626v18.261719c0 3.359375 2.234374 6.3125 5.472656 7.21875 6.414062 1.804688 12.597656 4.367188 18.390625 7.621094 2.929687 1.644531 6.601562 1.140625 8.980469-1.234375l12.914062-12.917969 3.949219 3.953125c-18.660157 18.664063-12.089844 12.09375-29.632813 29.636719-21.128906-14.632813-49.128906-15.742188-71.402344-2.28125-9.691406-5.929688-22.867187-4.960938-31.617187 3.789062-10.101563 10.101563-10.019531 26.390625 0 36.414063l1.402344 1.402343c-1.117188 4.84375-1.679688 9.808594-1.679688 14.808594 0 36.304688 29.535157 65.84375 65.84375 65.84375 36.304688 0 65.839844-29.539062 65.839844-65.84375 0-3.03125-.207031-6.070312-.621094-9.070312 5.300781-5.300782 10.011719-10.011719 15.476563-15.476563.171875.5625.335937 1.125.492187 1.691407.910157 3.234374 3.859375 5.472656 7.222657 5.472656h18.261718v34.769531h-18.261718c-3.359376 0-6.3125 2.234375-7.222657 5.46875-1.796875 6.410156-4.359375 12.597656-7.617187 18.390625-1.644532 2.933594-1.140625 6.601562 1.234375 8.980469l12.914062 12.914062-24.582031 24.582031-12.914062-12.914062c-2.378907-2.378906-6.050782-2.882812-8.980469-1.234375-5.789063 3.253906-11.976563 5.816406-18.390625 7.621094-3.234375.910156-5.472656 3.859375-5.472656 7.21875v18.261719h-34.765626v-18.261719c0-3.359375-2.234374-6.308594-5.472656-7.21875-6.414062-1.804688-12.601562-4.367188-18.390625-7.621094zm0 0"/><path d="m23.222656 331.863281h33.519532c.652343 0 1.179687.53125 1.179687 1.183594v28.753906c0 47.21875 38.414063 85.632813 85.632813 85.632813 12.617187 0 22.882812 10.265625 22.882812 22.882812v24.960938c0 9.222656 7.503906 16.722656 16.726562 16.722656h55.09375c4.144532 0 7.5-3.355469 7.5-7.5s-3.355468-7.5-7.5-7.5h-55.09375c-.953124 0-1.726562-.773438-1.726562-1.722656v-24.960938c0-20.890625-16.992188-37.882812-37.882812-37.882812-38.945313 0-70.628907-31.6875-70.628907-70.632813v-28.753906c0-8.925781-7.261719-16.183594-16.183593-16.183594h-33.519532c-7.273437 0-10.921875-8.796875-5.777344-13.945312l23.308594-23.304688c20.746094-20.746093 32.171875-48.332031 32.171875-77.671875v-25.160156c-.003906-89.207031 72.574219-161.78125 161.78125-161.78125s161.78125 72.578125 161.78125 161.785156v19.929688c0 4.144531 3.359375 7.5 7.5 7.5 4.144531 0 7.503907-3.355469 7.503907-7.5v-19.929688c0-97.480468-79.304688-176.785156-176.785157-176.785156s-176.785156 79.304688-176.785156 176.78125v25.160156c0 25.335938-9.863281 49.152344-27.777344 67.0625l-23.304687 23.308594c-14.597656 14.59375-4.285156 39.550781 16.382812 39.550781zm0 0"/><path d="m273.261719 512h54.089843c9.296876 0 16.859376-7.5625 16.859376-16.859375v-64.011719c0-24.175781 8.199218-46.78125 23.09375-63.65625 28.492187-32.289062 44.1875-73.804687 44.1875-116.898437v-18.855469c0-4.144531-3.359376-7.5-7.5-7.5-4.144532 0-7.5 3.355469-7.5 7.5v18.855469c0 39.4375-14.359376 77.425781-40.433594 106.972656-17.3125 19.617187-26.847656 45.75-26.847656 73.582031v64.011719c0 1.023437-.835938 1.859375-1.859376 1.859375h-54.089843c-4.144531 0-7.5 3.355469-7.5 7.5s3.355469 7.5 7.5 7.5zm0 0"/></svg>