<svg height="512pt" viewBox="0 -81 512 512" width="512pt" xmlns="http://www.w3.org/2000/svg"><path d="m275.550781 189.25c-7.378906 2.910156-15.585937 2.910156-22.960937 0l-143.167969-56.46875v123.03125c0 8.058594 4.925781 15.296875 12.421875 18.253906l130.207031 51.355469c7.722657 3.046875 16.316407 3.046875 24.039063 0l130.207031-51.359375c7.5-2.957031 12.425781-10.195312 12.425781-18.253906v-123.03125zm0 0" fill="#3e4b5a"/><path d="m294.074219 181.945312-18.523438 7.304688c-4.351562 1.71875-8.996093 2.410156-13.589843 2.101562v136.28125c4.777343.308594 9.601562-.421874 14.128906-2.210937l17.984375-7.09375zm0 0" fill="#374451"/><path d="m264.074219 191.433594c-3.898438 0-7.796875-.730469-11.484375-2.183594l-143.167969-56.46875v123.03125c0 8.058594 4.925781 15.296875 12.421875 18.253906l130.207031 51.355469c3.863281 1.523437 7.941407 2.285156 12.023438 2.285156zm0 0" fill="#576574"/><path d="m139.425781 269.234375v-124.621094l-30.003906-11.832031v123.03125c0 8.058594 4.929687 15.296875 12.421875 18.253906l20.519531 8.09375c-1.894531-3.953125-2.9375-8.351562-2.9375-12.925781zm0 0" fill="#3e4b5a"/><path d="m501.324219 94.777344-225.773438-89.050782c-7.378906-2.910156-15.585937-2.910156-22.960937 0l-225.773438 89.050782c-4.726562 1.867187-4.726562 8.554687 0 10.421875l225.773438 89.050781c7.378906 2.910156 15.585937 2.910156 22.960937 0l225.773438-89.050781c4.726562-1.867188 4.726562-8.554688 0-10.421875zm0 0" fill="#576574"/><path d="m97.820312 105.199219c-4.726562-1.867188-4.726562-8.554688 0-10.421875l201.753907-79.574219-24.023438-9.476563c-7.375-2.910156-15.582031-2.910156-22.960937 0l-225.773438 89.050782c-4.726562 1.867187-4.726562 8.554687 0 10.421875l225.773438 89.050781c7.378906 2.910156 15.585937 2.910156 22.960937 0l24.023438-9.472656zm0 0" fill="#3e4b5a"/><path d="m262.640625 62.503906c-9.109375.597656-16.867187 7.234375-19.039063 16.101563-.363281 1.484375-.554687 2.941406-.59375 4.359375-.101562 3.777344 2.257813 7.148437 5.855469 8.296875 4.796875 1.523437 9.90625 2.351562 15.207031 2.351562 5.402344 0 10.605469-.859375 15.480469-2.441406 3.277344-1.066406 5.578125-4.140625 5.589844-7.585937 0-.019532 0-.042969 0-.0625-.003906-12.109376-10.21875-21.832032-22.5-21.019532zm0 0" fill="#3e4b5a"/><path d="m274.53125 91.257812c-3.597656-1.144531-5.957031-4.515624-5.851562-8.292968.039062-1.421875.226562-2.878906.589843-4.359375 1.164063-4.761719 3.953125-8.867188 7.683594-11.753907-3.910156-3.023437-8.910156-4.707031-14.3125-4.351562-9.109375.601562-16.867187 7.238281-19.039063 16.105469-.363281 1.480469-.550781 2.9375-.589843 4.359375-.105469 3.777344 2.253906 7.148437 5.851562 8.292968 4.796875 1.527344 9.90625 2.355469 15.207031 2.355469 4.4375 0 8.734376-.589843 12.832032-1.671875-.796875-.210937-1.589844-.433594-2.371094-.683594zm0 0" fill="#374451"/><path d="m33.011719 280.574219h-19.476563c-3.128906 0-5.664062 2.535156-5.664062 5.664062v50.28125c0 3.128907 2.535156 5.664063 5.664062 5.664063h19.476563c3.128906 0 5.664062-2.535156 5.664062-5.664063v-50.28125c0-3.128906-2.539062-5.664062-5.664062-5.664062zm0 0" fill="#feca57"/><path d="m28.871094 336.519531v-50.28125c0-2.871093 2.136718-5.234375 4.902344-5.609375-.25-.03125-.503907-.054687-.761719-.054687h-19.476563c-3.128906 0-5.664062 2.535156-5.664062 5.664062v50.28125c0 3.128907 2.535156 5.664063 5.664062 5.664063h19.476563c.257812 0 .511719-.023438.761719-.054688-2.765626-.375-4.902344-2.742187-4.902344-5.609375zm0 0" fill="#f4b537"/><path d="m503.707031 87.789062-221.238281-87.261718c-3.851562-1.523438-8.210938.367187-9.730469 4.222656s.371094 8.210938 4.226563 9.730469l216.753906 85.496093-221.289062 87.28125c-5.765626 2.277344-11.996094 2.15625-17.457032 0l-207.800781-81.960937 188.71875-17.207031c1.523437 4.820312 5.273437 8.695312 10.332031 10.304687 11.136719 3.546875 23.527344 3.710938 35.273438-.101562 6.421875-2.085938 10.753906-7.992188 10.773437-14.78125 0-16.117188-13.574219-29.644531-30.492187-28.507813-10.894532.722656-20.480469 7.882813-24.550782 17.902344l-175.472656 15.996094 185.710938-73.25c3.855468-1.519532 5.746094-5.875 4.226562-9.730469-1.519531-3.851563-5.878906-5.746094-9.730468-4.222656l-218.265626 86.089843c-5.039062 1.988282-8.292968 6.769532-8.292968 12.1875v173.082032h-2.238282c-7.257812 0-13.164062 5.90625-13.164062 13.167968v50.277344c0 7.261719 5.90625 13.167969 13.164062 13.167969h19.476563c7.261719 0 13.167969-5.90625 13.167969-13.167969v-50.277344c0-7.261718-5.90625-13.167968-13.167969-13.167968h-2.238281v-158.25l71.152344 28.0625v112.929687c0 11.558594 7.125 21.265625 17.171874 25.230469 1.632813.644531 85.046876 33.546875 130.203126 51.355469 9.523437 3.757812 20.015624 3.761719 29.542968 0l130.210938-51.355469c10.429687-4.117188 17.171875-14.019531 17.171875-25.230469v-32.636719c0-4.144531-3.359375-7.5-7.503907-7.5-4.140624 0-7.5 3.355469-7.5 7.5v32.636719c0 5.007813-3.011718 9.4375-7.671874 11.273438-140.050782 55.242187-130.285157 51.433593-131.976563 51.960937v-115.847656c2.28125-.453125 4.535156-1.105469 6.730469-1.972656l132.917968-52.429688v39.375c0 4.144532 3.359376 7.5 7.5 7.5 4.144532 0 7.5-3.355468 7.5-7.5v-45.289062l77.855469-30.707032c5.039063-1.988281 8.292969-6.773437 8.292969-12.1875 0-5.417968-3.253906-10.199218-8.292969-12.1875zm-240.941406-17.816406c7.886719-.515625 14.503906 5.664063 14.503906 13.574219 0 .164063-.175781.402344-.40625.480469-8.402343 2.726562-17.667969 2.753906-26.09375.074218-.398437-.128906-.644531-.488281-.632812-.945312.183593-6.859375 5.738281-12.726562 12.628906-13.183594zm-231.960937 218.089844v46.609375h-15.804688v-46.609375zm225.398437 30.976562c-1.691406-.527343 8.039063 3.265626-131.972656-51.960937-4.515625-1.78125-7.675781-6.132813-7.675781-11.277344v-107.011719l132.910156 52.425782c2.222656.875 4.5625 1.546875 6.738281 1.976562zm0 0"/></svg>