<svg height="512pt" viewBox="-40 0 512 512" width="512pt" xmlns="http://www.w3.org/2000/svg"><path d="m424.90625 304.132812c0 110.664063-89.714844 200.378907-200.378906 200.378907-110.667969 0-200.382813-89.714844-200.382813-200.378907 0-110.667968 89.714844-200.382812 200.382813-200.382812 110.664062 0 200.378906 89.714844 200.378906 200.382812zm0 0" fill="#ff6b6b"/><path d="m54.148438 304.132812c0-105.621093 81.71875-192.152343 185.378906-199.824218-4.953125-.367188-9.953125-.558594-15-.558594-110.667969 0-200.382813 89.714844-200.382813 200.382812 0 110.664063 89.714844 200.378907 200.382813 200.378907 5.046875 0 10.046875-.191407 15-.558594-103.660156-7.671875-185.378906-94.203125-185.378906-199.820313zm0 0" fill="#ee5253"/><path d="m240.136719 23.125c0 8.621094-6.988281 15.613281-15.609375 15.613281-8.625 0-15.613282-6.992187-15.613282-15.613281s6.988282-15.613281 15.613282-15.613281c8.621094 0 15.609375 6.992187 15.609375 15.613281zm0 0" fill="#54a0ff"/><path d="m227.769531 23.125c0-5.074219 2.433594-9.570312 6.183594-12.421875-2.621094-1.992187-5.882813-3.191406-9.429687-3.191406-8.621094 0-15.609376 6.992187-15.609376 15.613281s6.988282 15.613281 15.609376 15.613281c3.546874 0 6.808593-1.195312 9.429687-3.1875-3.75-2.855469-6.183594-7.351562-6.183594-12.425781zm0 0" fill="#338def"/><path d="m65.777344 304.132812c0 87.53125 71.214844 158.746094 158.75 158.746094 87.53125 0 158.746094-71.214844 158.746094-158.746094 0-87.535156-71.214844-158.75-158.746094-158.75-87.535156 0-158.75 71.214844-158.75 158.75zm0 0" fill="#e4eaf8"/><path d="m95.777344 304.132812c0-82.476562 63.226562-150.453124 143.75-158.035156-4.941406-.46875-9.941406-.714844-15-.714844-87.535156 0-158.75 71.214844-158.75 158.746094 0 87.535156 71.214844 158.75 158.75 158.75 5.058594 0 10.058594-.246094 15-.714844-80.523438-7.582031-143.75-75.558593-143.75-158.03125zm0 0" fill="#c7d2e5"/><path d="m107.40625 304.132812c0 64.578126 52.539062 117.117188 117.117188 117.117188 64.582031 0 117.121093-52.539062 117.121093-117.117188 0-64.582031-52.539062-117.121093-117.121093-117.121093-64.578126.003906-117.117188 52.539062-117.117188 117.121093zm0 0" fill="#ff6b6b"/><path d="m107.40625 304.132812c0 64.578126 52.539062 117.117188 117.117188 117.117188 64.582031 0 117.121093-52.539062 117.121093-117.117188 0-64.582031-52.539062-117.121093-117.121093-117.121093-64.578126.003906-117.117188 52.539062-117.117188 117.121093zm0 0" fill="#ff6b6b"/><path d="m137.410156 304.132812c0-59.5 44.597656-108.773437 102.117188-116.160156-4.914063-.632812-9.921875-.957031-15.003906-.957031-64.578126 0-117.117188 52.539063-117.117188 117.117187 0 64.578126 52.539062 117.117188 117.117188 117.117188 5.082031 0 10.089843-.324219 15.003906-.957031-57.519532-7.386719-102.117188-56.664063-102.117188-116.160157zm0 0" fill="#ee5253"/><path d="m149.039062 304.132812c0 41.621094 33.863282 75.484376 75.488282 75.484376 41.621094 0 75.484375-33.863282 75.484375-75.484376 0-41.625-33.863281-75.488281-75.484375-75.488281-41.625 0-75.488282 33.863281-75.488282 75.488281zm0 0" fill="#e4eaf8"/><path d="m179.042969 304.132812c0-36.488281 26.023437-67.007812 60.484375-73.984374-4.851563-.984376-9.867188-1.503907-15-1.503907-41.625 0-75.488282 33.863281-75.488282 75.488281 0 41.621094 33.863282 75.484376 75.488282 75.484376 5.132812 0 10.148437-.519532 15-1.5-34.460938-6.976563-60.484375-37.496094-60.484375-73.984376zm0 0" fill="#c7d2e5"/><path d="m190.667969 304.132812c0 18.667969 15.1875 33.855469 33.855469 33.855469 18.667968 0 33.859374-15.1875 33.859374-33.855469 0-18.667968-15.191406-33.859374-33.859374-33.859374-18.667969 0-33.855469 15.191406-33.855469 33.859374zm0 0" fill="#ff6b6b"/><path d="m220.671875 304.132812c0-13.285156 7.691406-24.800781 18.855469-30.339843-4.523438-2.246094-9.617188-3.519531-15-3.519531-18.667969 0-33.855469 15.191406-33.855469 33.859374 0 18.667969 15.1875 33.855469 33.855469 33.855469 5.382812 0 10.476562-1.269531 15-3.515625-11.164063-5.542968-18.855469-17.058594-18.855469-30.339844zm0 0" fill="#ee5253"/><path d="m58.835938 90.5625 28.863281 28.863281c2.578125 2.578125 3.644531 6.300781 2.820312 9.855469l-7.683593 33.160156-55.410157-55.410156 16.46875-16.46875c4.125-4.125 10.816407-4.125 14.941407 0zm0 0" fill="#54a0ff"/><path d="m82.835938 162.441406-33.164063 7.683594c-3.550781.824219-7.273437-.242188-9.851563-2.820312l-28.863281-28.863282c-4.125-4.125-4.125-10.8125 0-14.941406l16.46875-16.46875zm0 0" fill="#54a0ff"/><path d="m56.511719 113.613281c-3.636719-3.632812-3.636719-9.527343 0-13.164062l6.105469-6.105469-3.78125-3.78125c-4.125-4.125-10.816407-4.125-14.941407 0l-16.46875 16.46875 55.410157 55.410156 4.230468-18.269531zm0 0" fill="#338def"/><path d="m33.457031 138.441406c-4.125-4.125-4.125-10.816406 0-14.941406l5.21875-5.21875-11.25-11.25-16.46875 16.46875c-4.125 4.125-4.125 10.816406 0 14.941406l28.863281 28.863282c2.578126 2.578124 6.300782 3.644531 9.851563 2.820312l12.558594-2.910156zm0 0" fill="#338def"/><path d="m416.292969 287.265625c.359375 4.128906 4.003906 7.191406 8.121093 6.824219 4.125-.355469 7.183594-3.992188 6.824219-8.117188-6.234375-72.074218-49.5-134.957031-112.917969-167.214844l-71.207031-98.292968c-1.316406-11.5-11.109375-20.464844-22.957031-20.464844s-21.636719 8.964844-22.957031 20.464844l-71.277344 98.390625c-12.390625 6.328125-24.058594 13.863281-34.859375 22.449219l2.394531-10.34375c1.417969-6.117188-.386719-12.414063-4.824219-16.851563l-28.863281-28.863281c-7.042969-7.042969-18.5-7.042969-25.546875 0l-11.167968 11.164062-6.347657-6.347656c-2.929687-2.925781-7.679687-2.925781-10.605469 0-2.929687 2.929688-2.929687 7.679688 0 10.609375l6.347657 6.347656-11.167969 11.167969c-7.042969 7.042969-7.042969 18.5 0 25.546875l28.863281 28.859375c4.503907 4.503906 10.828125 6.222656 16.851563 4.824219l10.34375-2.394531c-28.195313 35.484374-45.066406 80.355468-45.066406 129.097656 0 114.625 93.257812 207.878906 207.882812 207.878906 108.484375 0 197.863281-83.195312 207.082031-189.734375.355469-4.125-2.699219-7.761719-6.828125-8.117187-4.117187-.363282-7.761718 2.699218-8.117187 6.824218-8.542969 98.707032-92.9375 176.027344-192.136719 176.027344-106.355469 0-192.878906-86.527344-192.878906-192.878906 0-50.484375 19.503906-96.492188 51.363281-130.90625l18.832031 18.832031c-27.042968 29.578125-43.566406 68.929687-43.566406 112.074219 0 41.136718 15.203125 80.644531 42.808594 111.242187 27.394531 30.367188 64.726562 49.539063 105.117187 53.992188 4.15625.449219 7.828125-2.546875 8.277344-6.636719.453125-4.117188-2.515625-7.820312-6.632813-8.273438-76.71875-8.453124-134.570312-73.078124-134.570312-150.324218 0-39.007813 14.84375-74.609375 39.179688-101.460938l18.851562 18.851563c-19.523438 22.007812-31.402344 50.945312-31.402344 82.609375 0 68.714844 55.902344 124.617187 124.617188 124.617187s124.621094-55.902343 124.621094-124.617187c0-107.089844-127.035157-164.367188-207.230469-93.21875l-18.851563-18.851563c26.851563-24.335937 62.457032-39.179687 101.460938-39.179687 83.398437 0 151.25 67.851562 151.25 151.25 0 77.242187-57.855469 141.867187-134.570313 150.320312-4.117187.457032-7.085937 4.160156-6.632812 8.277344s4.132812 7.074219 8.273437 6.632812c83.6875-9.21875 147.929688-80.355468 147.929688-165.234374 0-91.667969-74.578125-166.246094-166.25-166.246094-43.144532 0-82.496094 16.519531-112.074219 43.566406l-18.832031-18.832031c34.414062-31.859375 80.421875-51.367188 130.90625-51.367188 99.203125 0 183.601562 77.320313 192.140625 176.027344zm-368.683594-124.460937c-1.039063.246093-2.105469-.0625-2.855469-.816407l-28.863281-28.859375c-1.195313-1.195312-1.195313-3.140625 0-4.335937l11.167969-11.164063 40.542968 40.546875zm35.234375-35.230469-4.632812 19.992187-40.546876-40.546875 11.164063-11.164062c1.195313-1.195313 3.140625-1.199219 4.332031 0v-.003907l28.863282 28.867188c.753906.75 1.058593 1.816406.820312 2.855469zm58.714844 104.558593 18.886718 18.882813c-12.023437 14.402344-19.273437 32.917969-19.273437 53.105469 0 45.757812 37.226563 82.984375 82.984375 82.984375s82.988281-37.226563 82.988281-82.984375c0-70.183594-82.226562-108.6875-136.09375-63.714844l-18.882812-18.882812c70.476562-61.503907 181.605469-11.476563 181.605469 82.59375 0 60.445312-49.175782 109.617187-109.617188 109.617187s-109.617188-49.171875-109.617188-109.617187c0-27.527344 10.203126-52.714844 27.019532-71.984376zm82.597656 113.34375c22.804688 0 41.355469-18.554687 41.355469-41.355468 0-33.246094-37.476563-52.914063-64.792969-34.046875l-19.007812-19.007813c44.414062-35.605468 110.429687-3.734375 110.429687 53.050782 0 37.488281-30.496094 67.988281-67.984375 67.988281s-67.984375-30.5-67.984375-67.988281c0-16.046876 5.601563-30.800782 14.933594-42.441407l19.003906 19.003907c-4.605469 6.667968-7.308594 14.742187-7.308594 23.4375 0 22.804687 18.550781 41.359374 41.355469 41.359374zm5.304688-46.660156-17.863282-17.863281c17.503906-9.527344 38.914063 3.246094 38.914063 23.167969 0 14.53125-11.824219 26.355468-26.355469 26.355468s-26.355469-11.824218-26.355469-26.355468c0-4.542969 1.15625-8.824219 3.1875-12.558594l17.863281 17.859375c2.929688 2.929687 7.675782 2.929687 10.605469 0 2.929688-2.925781 2.929688-7.675781.003907-10.605469zm-5.304688-283.816406c4.472656 0 8.109375 3.640625 8.109375 8.113281 0 4.472657-3.636719 8.109375-8.109375 8.109375s-8.109375-3.640625-8.109375-8.109375c0-4.472656 3.636719-8.113281 8.109375-8.113281zm-17.375 23.328125c9.230469 10.523437 25.515625 10.53125 34.75 0l50.074219 69.121094c-42.984375-14.730469-90.679688-15.1875-134.925781.039062zm0 0"/></svg>