<svg height="511pt" viewBox="0 -15 511.99987 511" width="511pt" xmlns="http://www.w3.org/2000/svg"><path d="m446.332031 167.324219c-4.886719 3.332031-12.125 6.179687-17.652343 8.476562v284.742188c0 7.679687-6.226563 13.90625-13.910157 13.90625h59.796875c9.988282 0 17.625-8.898438 16.105469-18.769531zm0 0" fill="#c7d2e5"/><path d="m459.589844 460.542969v-206.996094l-13.257813-86.222656c-4.886719 3.332031-12.125 6.179687-17.652343 8.476562v284.742188c0 7.679687-6.226563 13.90625-13.910157 13.90625h30.910157c7.683593 0 13.910156-6.226563 13.910156-13.90625zm0 0" fill="#bac7db"/><path d="m397.226562 182.457031c-48.171874 0-87.226562-39.050781-87.226562-87.226562 0-15.882813 4.265625-30.761719 11.683594-43.589844h-299.90625c-7.679688 0-13.90625 6.226563-13.90625 13.910156v394.992188c0 7.679687 6.226562 13.90625 13.90625 13.90625h394.992187c7.683594 0 13.910157-6.226563 13.910157-13.90625v-284.742188c-10.304688 4.28125-21.597657 6.65625-33.453126 6.65625zm0 0" fill="#e4eaf8"/><path d="m37.871094 460.542969v-394.992188c0-7.683593 6.226562-13.910156 13.910156-13.910156h-30.003906c-7.679688 0-13.90625 6.226563-13.90625 13.910156v394.992188c0 7.679687 6.226562 13.90625 13.90625 13.90625h30.003906c-7.683594 0-13.910156-6.226563-13.910156-13.90625zm0 0" fill="#c7d2e5"/><path d="m310 95.230469c0-15.882813 4.265625-30.761719 11.683594-43.589844h-299.90625c-7.679688 0-13.90625 6.226563-13.90625 13.910156v73.269531h313.8125c-7.417969-12.828124-11.683594-27.707031-11.683594-43.589843zm0 0" fill="#ff6b6b"/><path d="m7.871094 138.820312h30v-73.269531c0-7.683593 6.226562-13.910156 13.910156-13.910156h-30.003906c-7.667969 0-13.90625 6.210937-13.90625 13.910156zm0 0" fill="#ee5253"/><path d="m481.132812 72.175781-16.621093-32.023437c-16.082031-19.625-40.507813-32.152344-67.859375-32.152344-48.433594 0-87.695313 39.265625-87.695313 87.695312 0 48.433594 39.261719 87.695313 87.695313 87.695313 57.75 0 100.074218-55.085937 84.480468-111.214844zm0 0" fill="#54a0ff"/><path d="m337.914062 95.695312c0-43.5 31.675782-79.597656 73.21875-86.5-4.710937-.78125-9.546874-1.195312-14.480468-1.195312-48.429688 0-87.691406 39.265625-87.691406 87.695312 0 48.433594 39.261718 87.695313 87.691406 87.695313 4.957031 0 9.796875-.414063 14.5-1.191406-41.554688-6.894531-73.238282-42.996094-73.238282-86.503907zm0 0" fill="#338def"/><path d="m499.824219 29.164062c-6.714844-6.71875-17.605469-6.71875-24.320313 0l-69.96875 69.964844c-1.816406 1.816406-4.761718 1.816406-6.582031 0l-32.378906-32.382812c-6.714844-6.71875-17.605469-6.71875-24.324219 0-6.714844 6.714844-6.714844 17.605468 0 24.320312l47.835938 47.835938c6.707031 6.710937 17.605468 6.714844 24.320312 0l85.417969-85.417969c6.71875-6.714844 6.71875-17.605469 0-24.320313zm0 0" fill="#e4eaf8"/><path d="m372 91.066406c-5.785156-5.78125-6.574219-14.652344-2.402344-21.292968l-3.027344-3.027344c-6.710937-6.71875-17.601562-6.71875-24.320312 0-6.71875 6.714844-6.71875 17.605468 0 24.320312l47.832031 47.835938c6.710938 6.710937 17.609375 6.714844 24.324219 0l2.710938-2.714844zm0 0" fill="#c7d2e5"/><path d="m469.984375 23.734375-5.328125 5.332031c-42.230469-43.339844-114.316406-36.609375-147.535156 15.0625h-26.265625v-10.8125c0-4.144531-3.359375-7.5-7.5-7.5-4.144531 0-7.5 3.355469-7.5 7.5v10.8125h-27.964844v-10.8125c0-4.144531-3.359375-7.5-7.5-7.5-4.144531 0-7.503906 3.355469-7.503906 7.5v10.8125h-27.964844v-10.8125c0-4.144531-3.355469-7.5-7.5-7.5s-7.5 3.355469-7.5 7.5v10.8125h-27.964844v-10.8125c0-4.144531-3.359375-7.5-7.5-7.5-4.144531 0-7.5 3.355469-7.5 7.5v10.8125h-27.96875v-10.8125c0-4.144531-3.355469-7.5-7.5-7.5-4.140625 0-7.5 3.355469-7.5 7.5v10.8125h-27.964843v-10.8125c0-4.144531-3.355469-7.5-7.5-7.5-4.144532 0-7.5 3.355469-7.5 7.5v10.8125h-39.613282c-11.804687 0-21.410156 9.601563-21.410156 21.40625v394.996094c0 11.804688 9.605469 21.40625 21.410156 21.40625h158.511719c4.140625 0 7.5-3.355469 7.5-7.5s-3.359375-7.5-7.5-7.5h-158.511719c-3.535156 0-6.410156-2.875-6.410156-6.40625v-314.222656h302.117188c16.863281 26.226562 46.308593 43.636718 79.742187 43.636718 8.960937 0 17.863281-1.300781 25.949219-3.605468v274.191406c0 3.53125-2.875 6.40625-6.40625 6.40625h-201.480469c-4.144531 0-7.5 3.355469-7.5 7.5s3.355469 7.5 7.5 7.5h259.277344c14.585937 0 25.730469-13.011719 23.519531-27.410156l-18.363281-119.394532c-.628907-4.09375-4.449219-6.90625-8.550781-6.273437-4.097657.632813-6.902344 4.460937-6.273438 8.554687l18.359375 119.394532c.820313 5.332031-3.285156 10.128906-8.691406 10.128906h-37.367188c.675781-2.285156.976563-4.460938.976563-6.40625v-279.882812c.816406-.394532 1.625-.796876 2.429687-1.210938l18.910157 122.972656c.628906 4.09375 4.460937 6.902344 8.550781 6.273438 4.097656-.628906 6.902343-4.457032 6.273437-8.550782l-19.90625-129.464843c29.277344-22.253907 43.558594-59.609375 35.125-96.542969l15.59375-15.59375c9.617188-9.613281 9.621094-25.183594 0-34.800781-9.617187-9.617188-25.183594-9.613281-34.800781.003906zm-160.707031 107.570313h-294.277344v-65.769532c0-3.53125 2.875-6.40625 6.410156-6.40625h39.613282v27.894532c0 4.144531 3.355468 7.5 7.5 7.5 4.144531 0 7.5-3.355469 7.5-7.5v-27.894532h27.964843v27.894532c0 4.144531 3.359375 7.5 7.503907 7.5 4.140624 0 7.5-3.355469 7.5-7.5v-27.894532h27.964843v27.894532c0 4.144531 3.355469 7.5 7.5 7.5s7.5-3.355469 7.5-7.5v-27.894532h27.964844v27.894532c0 4.144531 3.359375 7.5 7.5 7.5 4.144531 0 7.5-3.355469 7.5-7.5v-27.894532h27.96875v27.894532c0 4.144531 3.355469 7.5 7.5 7.5 4.140625 0 7.5-3.355469 7.5-7.5v-27.894532h27.964844v27.894532c0 4.144531 3.355469 7.5 7.5 7.5s7.5-3.355469 7.5-7.5v-27.894532h18.425781c-.003906 0-.003906.003906-.003906.003906-4.726563 11.4375-7.148438 23.65625-7.148438 36.085938 0 11.980469 2.253906 24.246094 7.148438 36.085938zm87.582031 43.640624c-44.019531 0-79.730469-35.835937-79.730469-79.726562 0-72.183594 87.710938-106.277344 136.917969-55.546875l-51.625 51.625-30.179687-30.179687c-9.617188-9.617188-25.179688-9.621094-34.800782 0-9.617187 9.613281-9.621094 25.183593 0 34.800781l47.578125 47.578125c9.628907 9.632812 25.207031 9.597656 34.800781 0l56.355469-56.351563c4.808594 46.996094-32.292969 87.800781-79.316406 87.800781zm97.320313-127.019531c-6.710938 6.710938-64.65625 64.652344-84.964844 84.964844-3.753906 3.753906-9.832032 3.753906-13.585938 0l-47.582031-47.582031c-3.761719-3.761719-3.746094-9.839844.003906-13.582032 3.753907-3.757812 9.828125-3.757812 13.582031-.003906l32.210938 32.214844c4.730469 4.726562 12.425781 4.726562 17.15625-.003906 8.535156-8.535156 61.238281-61.238282 69.59375-69.59375 3.753906-3.753906 9.828125-3.753906 13.582031 0h.003907c3.753906 3.753906 3.753906 9.832031 0 13.585937zm0 0"/><path d="m67.320312 225.054688h303.167969c4.144531 0 7.503907-3.359376 7.503907-7.5 0-4.144532-3.359376-7.5-7.503907-7.5h-303.167969c-4.144531 0-7.5 3.355468-7.5 7.5 0 4.140624 3.355469 7.5 7.5 7.5zm0 0"/><path d="m67.320312 269.648438h303.167969c4.144531 0 7.503907-3.355469 7.503907-7.5 0-4.140626-3.359376-7.5-7.503907-7.5h-303.167969c-4.144531 0-7.5 3.359374-7.5 7.5 0 4.144531 3.355469 7.5 7.5 7.5zm0 0"/><path d="m67.320312 314.246094h303.167969c4.144531 0 7.503907-3.355469 7.503907-7.5 0-4.144532-3.359376-7.5-7.503907-7.5h-303.167969c-4.144531 0-7.5 3.355468-7.5 7.5 0 4.144531 3.355469 7.5 7.5 7.5zm0 0"/><path d="m67.320312 358.84375h303.167969c4.144531 0 7.503907-3.359375 7.503907-7.5 0-4.144531-3.359376-7.503906-7.503907-7.503906h-303.167969c-4.144531 0-7.5 3.359375-7.5 7.503906 0 4.140625 3.355469 7.5 7.5 7.5zm0 0"/><path d="m67.320312 403.4375h303.167969c4.144531 0 7.503907-3.355469 7.503907-7.5s-3.359376-7.5-7.503907-7.5h-303.167969c-4.144531 0-7.5 3.355469-7.5 7.5s3.355469 7.5 7.5 7.5zm0 0"/></svg>