<svg height="512pt" viewBox="-66 0 512 512.00055" width="512pt" xmlns="http://www.w3.org/2000/svg"><path d="m314.183594 162.191406-118.914063-117.644531c-8.742187-1.855469-17.75-2.980469-26.96875-3.292969-87.027343-2.976562-160.191406 67.457032-160.402343 154.539063-.128907 53.835937 27.191406 101.292969 68.746093 129.179687 4.929688 3.308594 7.941407 8.804688 7.941407 14.742188v38.628906h156.652343v-38.628906c0-5.929688 3-11.429688 7.925781-14.734375 41.464844-27.816407 68.761719-75.121094 68.761719-128.804688-.003906-11.675781-1.296875-23.050781-3.742187-33.984375zm0 0" fill="#feca57"/><path d="m106.75 324.972656c-41.554688-27.886718-68.875-75.34375-68.746094-129.179687.195313-80.199219 62.265625-146.273438 140.058594-153.894531-3.226562-.316407-6.480469-.535157-9.761719-.648438-87.03125-2.972656-160.195312 67.460938-160.402343 154.542969-.128907 53.835937 27.1875 101.292969 68.746093 129.179687 4.929688 3.304688 7.9375 8.804688 7.9375 14.742188v38.628906h30.109375v-38.628906c0-5.9375-3.011718-11.433594-7.941406-14.742188zm0 0" fill="#f4b537"/><path d="m136.765625 473.390625v6.484375c0 13.59375 11.019531 24.609375 24.613281 24.609375h3.0625c13.59375 0 24.609375-11.015625 24.609375-24.609375v-6.484375zm0 0" fill="#54a0ff"/><path d="m166.875 479.875v-6.484375h-30.109375v6.484375c0 13.59375 11.019531 24.609375 24.613281 24.609375h3.0625c4.996094 0 9.640625-1.492187 13.523438-4.050781-6.679688-4.398438-11.089844-11.964844-11.089844-20.558594zm0 0" fill="#338def"/><path d="m97.820312 412.503906v28.671875c0 18.308594 14.710938 33.152344 32.863282 33.152344h64.457031c18.148437 0 32.859375-14.84375 32.859375-33.152344v-28.671875zm0 0" fill="#c7d2e5"/><path d="m127.929688 441.175781v-28.671875h-30.109376v28.671875c0 18.308594 14.710938 33.152344 32.863282 33.152344h30.105468c-18.148437 0-32.859374-14.84375-32.859374-33.152344zm0 0" fill="#bac7db"/><path d="m244.9375 373.324219h-164.054688c-2.59375 0-4.699218 2.105469-4.699218 4.699219v30.324218c0 2.59375 2.105468 4.695313 4.699218 4.695313h164.054688c2.597656 0 4.699219-2.101563 4.699219-4.695313v-30.324218c0-2.59375-2.105469-4.699219-4.699219-4.699219zm0 0" fill="#e4eaf8"/><path d="m244.9375 386.703125h-164.054688c-2.59375 0-4.699218-2.105469-4.699218-4.699219v26.34375c0 2.59375 2.105468 4.699219 4.699218 4.699219h164.054688c2.597656 0 4.699219-2.105469 4.699219-4.699219v-26.34375c0 2.59375-2.105469 4.699219-4.699219 4.699219zm0 0" fill="#c7d2e5"/><path d="m349.097656 68.21875-16.1875-31.183594c-15.660156-19.109375-39.441406-31.308594-66.078125-31.308594-47.164062 0-85.398437 38.234376-85.398437 85.398438 0 47.160156 38.234375 85.394531 85.398437 85.394531 56.234375 0 97.449219-53.640625 82.265625-108.300781zm0 0" fill="#54a0ff"/><path d="m209.628906 91.125c0-42.363281 30.847656-77.511719 71.300782-84.234375-4.585938-.761719-9.292969-1.164063-14.097657-1.164063-47.164062 0-85.398437 38.234376-85.398437 85.398438 0 47.160156 38.234375 85.394531 85.398437 85.394531 4.828125 0 9.539063-.402343 14.121094-1.160156-40.464844-6.710937-71.324219-41.867187-71.324219-84.234375zm0 0" fill="#338def"/><path d="m367.300781 26.332031c-6.539062-6.539062-17.144531-6.539062-23.683593 0l-68.132813 68.132813c-1.773437 1.769531-4.640625 1.769531-6.414063 0l-31.53125-31.535156c-6.539062-6.539063-17.144531-6.539063-23.683593 0-6.542969 6.542968-6.542969 17.144531 0 23.6875l46.578125 46.582031c6.535156 6.535156 17.148437 6.539062 23.6875 0l83.179687-83.179688c6.539063-6.542969 6.539063-17.144531 0-23.6875zm0 0" fill="#e4eaf8"/><path d="m242.824219 86.617188c-5.632813-5.632813-6.402344-14.269532-2.335938-20.738282l-2.949219-2.945312c-6.539062-6.542969-17.144531-6.542969-23.683593 0-6.542969 6.539062-6.542969 17.144531 0 23.683594l46.578125 46.582031c6.535156 6.535156 17.148437 6.539062 23.683594 0l2.644531-2.640625zm0 0" fill="#c7d2e5"/><path d="m191.605469 36.230469c-99.921875-18.046875-191.363281 59.296875-191.605469 159.53125-.128906 54.4375 26.816406 105.070312 72.078125 135.449219 2.886719 1.9375 4.609375 5.109374 4.609375 8.492187v28.714844c-4.871094 1.609375-8.398438 6.195312-8.398438 11.601562v28.316407c0 6.742187 5.484376 12.226562 12.222657 12.226562h9.410156v20.894531c0 22.058594 17.785156 40.035157 39.769531 40.371094.644532 16.746094 14.460938 30.171875 31.363282 30.171875h2.972656c16.902344 0 30.71875-13.425781 31.363281-30.171875 21.984375-.335937 39.765625-18.3125 39.765625-40.371094v-20.894531h9.414062c6.738282 0 12.222657-5.484375 12.222657-12.226562v-28.316407c0-5.40625-3.527344-9.992187-8.398438-11.601562v-28.714844c0-3.382813 1.71875-6.554687 4.59375-8.484375 32.457031-21.773438 56.003907-54.441406 66.300781-91.976562 1.097657-4.007813-1.257812-8.148438-5.269531-9.25-4.011719-1.105469-8.148437 1.261718-9.25 5.269531-9.339843 34.050781-30.707031 63.691406-60.167969 83.457031-7.050781 4.730469-11.261718 12.574219-11.261718 20.984375v28.089844h-44.75v-67.207031c0-6.277344 2.757812-12.199219 7.558594-16.242188l15.335937-12.914062c3.480469-2.929688 5.882813-6.835938 6.96875-11.148438h8.996094c4.160156 0 7.527343-3.367188 7.527343-7.523438 0-4.160156-3.367187-7.527343-7.527343-7.527343h-8.339844v-1.222657c0-4.160156-3.367187-7.527343-7.523437-7.527343-4.160157 0-7.527344 3.367187-7.527344 7.527343v1.222657h-83.035156v-1.222657c0-4.160156-3.371094-7.527343-7.527344-7.527343s-7.527344 3.367187-7.527344 7.527343v1.222657h-8.335938c-4.160156 0-7.527343 3.367187-7.527343 7.527343 0 4.15625 3.367187 7.523438 7.527343 7.523438h8.992188c1.085938 4.3125 3.492188 8.21875 6.96875 11.148438l15.335938 12.914062c4.804687 4.042969 7.558593 9.964844 7.558593 16.242188v67.207031h-44.75v-28.089844c0-8.410156-4.210937-16.257813-11.269531-20.992187-41.082031-27.566407-65.535156-73.515626-65.414062-122.914063.210937-88.488281 79.164062-158.101563 168.023437-145.699219-30.121094 61.070313 14.585937 133.9375 83.382813 133.9375 14.128906 0 28.601562-3.234375 41.914062-9.976562 1.414062 9.402344 1.882812 18.535156 1.53125 27.78125-.160156 4.152344 3.078125 7.648437 7.234375 7.804687 4.140625.164063 7.648437-3.078125 7.808594-7.230469.464843-12.164062-.386719-24.445312-2.78125-36.972656 29.078125-21.847656 43.121093-58.679687 34.886719-94.917968l15.195312-15.195313c9.488281-9.484375 9.492188-24.839844 0-34.328125-9.484375-9.488281-24.839844-9.488281-34.328125 0l-5.09375 5.09375c-12.828125-13.074219-29.335937-22.183594-47.265625-25.929688-4.070312-.855468-8.054688 1.753907-8.90625 5.824219-.851562 4.070313 1.757812 8.058594 5.828125 8.910157 15.0625 3.148437 28.9375 10.816406 39.703125 21.835937l-50.28125 50.28125-29.414062-29.417969c-9.488282-9.488281-24.84375-9.488281-34.332032 0-9.488281 9.484375-9.488281 24.84375 0 34.328125l46.578125 46.578125c9.484375 9.492188 24.847657 9.496094 34.332031.003906l54.894532-54.894531c4.414062 45.410157-31.316406 85.367188-77.503906 85.367188-14.761719 0-28.574219-4.125-40.347657-11.289063-60.679687-36.90625-44.253906-128.453125 24.324219-142.792968 4.070312-.851563 6.679688-4.839844 5.828125-8.910157-.851563-4.066406-4.835937-6.675781-8.910156-5.824219-22.960938 4.800782-42.535157 18.054688-55.75 36.066407zm-27.578125 460.714843h-2.972656c-8.59375 0-15.660157-6.667968-16.296876-15.101562h35.5625c-.636718 8.433594-7.699218 15.101562-16.292968 15.101562zm56.074218-55.492187c0 13.972656-11.363281 25.335937-25.332031 25.335937-7.523437 0-57.160156 0-64.460937 0-13.96875 0-25.332032-11.363281-25.332032-25.335937v-20.894531h115.125zm-96.371093-181.171875h77.617187l-14.898437 12.542969c-8.207031 6.914062-12.914063 17.03125-12.914063 27.761719v67.207031h-21.992187v-67.207031c0-10.730469-4.707031-20.847657-12.914063-27.761719zm-40.390625 122.566406h158.398437v22.660156c-1.21875 0-156.039062 0-158.398437 0zm195.085937-254.984375c-3.597656 3.601563-9.433593 3.605469-13.039062 0l-46.582031-46.582031c-3.601563-3.601562-3.601563-9.433594.003906-13.039062 3.585937-3.589844 9.417968-3.621094 13.039062 0l31.53125 31.535156c4.710938 4.710937 12.347656 4.707031 17.054688 0 7.746094-7.746094 60.46875-60.46875 68.132812-68.132813 3.601563-3.601562 9.433594-3.605469 13.039063 0h.003906c3.601563 3.605469 3.601563 9.433594-.003906 13.039063-7.246094 7.246094-75.964844 75.964844-83.179688 83.179687zm0 0"/></svg>