<svg height="512pt" viewBox="-41 0 512 512" width="512pt" xmlns="http://www.w3.org/2000/svg"><path d="m193.152344 128.777344c6.65625 0 13.230468.359375 19.710937 1.042968v-40.835937c0-10.886719-8.824219-19.710937-19.710937-19.710937-10.886719 0-19.710938 8.824218-19.710938 19.710937v40.835937c6.476563-.683593 13.050782-1.042968 19.710938-1.042968zm0 0" fill="#e4eaf8"/><path d="m200.011719 88.984375c0-5.761719 2.488281-10.925781 6.425781-14.53125-3.507812-3.207031-8.160156-5.179687-13.285156-5.179687-10.886719 0-19.710938 8.824218-19.710938 19.710937v40.835937c6.476563-.683593 13.050782-1.042968 19.710938-1.042968 2.296875 0 4.582031.058594 6.863281.140625v-39.933594zm0 0" fill="#c7d2e5"/><path d="m82.082031 164.175781c10.730469-8.097656 22.34375-15.070312 34.675781-20.765625l-16.671874-23.175781c-6.496094-9.027344-19.078126-11.078125-28.101563-4.578125v.003906c-9.023437 6.5-11.070313 19.089844-4.574219 28.121094zm0 0" fill="#e4eaf8"/><path d="m93.984375 143.78125c-6.113281-8.496094-4.660156-20.132812 3.042969-26.898438-6.890625-6.066406-17.277344-6.816406-25.042969-1.226562-9.023437 6.503906-11.070313 19.09375-4.574219 28.125l14.671875 20.394531c5.734375-4.328125 11.734375-8.324219 17.949219-11.988281zm0 0" fill="#c7d2e5"/><path d="m244.386719 424.308594c0-44.296875 35.910156-80.207032 80.203125-80.207032 17.738281 0 34.121094 5.761719 47.402344 15.511719 4.191406-15.476562 6.441406-31.75 6.441406-48.554687 0-102.328125-82.953125-185.28125-185.28125-185.28125s-185.28125 82.953125-185.28125 185.28125 82.953125 185.28125 185.28125 185.28125c26.492187 0 51.675781-5.570313 74.46875-15.585938-14.359375-14.496094-23.234375-34.433594-23.234375-56.445312zm0 0" fill="#feca57"/><path d="m37.679688 311.058594c0-97.3125 75.019531-177.089844 170.375-184.683594-4.914063-.390625-9.886719-.597656-14.902344-.597656-102.328125 0-185.28125 82.953125-185.28125 185.28125s82.953125 185.28125 185.28125 185.28125c5.023437 0 10.003906-.203125 14.925781-.597656-95.367187-7.582032-170.398437-87.367188-170.398437-184.683594zm0 0" fill="#f4b537"/><path d="m244.386719 424.308594c0-44.296875 35.910156-80.207032 80.203125-80.207032 2.203125 0 4.382812.09375 6.539062.265626 2.566406-10.683594 3.9375-21.835938 3.9375-33.308594 0-78.378906-63.535156-141.917969-141.914062-141.917969s-141.917969 63.539063-141.917969 141.917969 63.539063 141.917968 141.917969 141.917968c18.871094 0 36.878906-3.695312 53.351562-10.382812-1.371094-5.878906-2.117187-11.992188-2.117187-18.285156zm0 0" fill="#e4eaf8"/><path d="m89.167969 311.058594c0-71.945313 53.542969-131.378906 122.949219-140.652344-6.203126-.828125-12.535157-1.265625-18.964844-1.265625-78.378906 0-141.917969 63.539063-141.917969 141.917969s63.539063 141.917968 141.917969 141.917968c6.425781 0 12.75-.4375 18.949218-1.269531-69.402343-9.277343-122.933593-68.707031-122.933593-140.648437zm0 0" fill="#c7d2e5"/><path d="m401.855469 402.796875-15.203125-29.289063c-14.707032-17.949218-37.046875-29.40625-62.0625-29.40625-44.292969 0-80.203125 35.910157-80.203125 80.207032 0 44.292968 35.90625 80.203125 80.203125 80.203125 52.816406 0 91.527344-50.378907 77.265625-101.714844zm0 0" fill="#54a0ff"/><path d="m270.867188 424.308594c0-39.789063 28.96875-72.800782 66.964843-79.113282-4.308593-.714843-8.730469-1.09375-13.242187-1.09375-44.292969 0-80.203125 35.910157-80.203125 80.207032 0 44.292968 35.910156 80.203125 80.203125 80.203125 4.535156 0 8.960937-.378907 13.261718-1.089844-38.003906-6.304687-66.984374-39.324219-66.984374-79.113281zm0 0" fill="#338def"/><path d="m418.953125 363.453125c-6.144531-6.140625-16.101563-6.140625-22.246094 0l-63.992187 63.992187c-1.660156 1.660157-4.355469 1.660157-6.019532 0l-29.617187-29.617187c-6.140625-6.140625-16.097656-6.140625-22.242187 0-6.144532 6.144531-6.144532 16.101563 0 22.246094l43.746093 43.746093c6.136719 6.140626 16.105469 6.144532 22.246094 0l78.125-78.121093c6.140625-6.140625 6.140625-16.101563 0-22.246094zm0 0" fill="#e4eaf8"/><path d="m302.042969 420.074219c-5.289063-5.289063-6.011719-13.402344-2.195313-19.476563l-2.769531-2.769531c-6.140625-6.144531-16.097656-6.144531-22.242187 0-6.144532 6.140625-6.144532 16.101563 0 22.246094l43.75 43.746093c6.132812 6.140626 16.101562 6.144532 22.242187 0l2.480469-2.480468zm0 0" fill="#c7d2e5"/><path d="m254.402344 303.546875h-54.121094v-83.246094c0-4.140625-3.355469-7.5-7.5-7.5s-7.5 3.359375-7.5 7.5v90.746094c0 4.140625 3.355469 7.5 7.5 7.5h61.621094c4.144531 0 7.5-3.359375 7.5-7.5 0-4.144531-3.355469-7.5-7.5-7.5zm0 0"/><path d="m423.886719 358.140625c-.003907-.003906-.003907 0-.003907 0-9.074218-9.082031-23.769531-9.082031-32.851562 0l-4.472656 4.472656c-2.0625-2.089843-4.214844-4.070312-6.457032-5.925781 2.171876-8.964844 3.71875-18.171875 4.589844-27.4375.390625-4.125-2.636718-7.78125-6.761718-8.171875-4.128907-.390625-7.785157 2.640625-8.171876 6.765625-.625 6.644531-1.621093 13.253906-2.972656 19.746094-8.457031-4.699219-17.5625-7.9375-27.023437-9.625 16.8125-92.324219-54.425781-176.335938-146.980469-176.335938-82.390625 0-149.417969 67.027344-149.417969 149.417969s67.027344 149.417969 149.417969 149.417969c16.59375 0 32.8125-2.699219 48.339844-8.011719 3.066406 9.074219 7.625 17.609375 13.554687 25.289063-14.476562 5.378906-29.601562 8.828124-45.097656 10.285156-4.125.386718-7.152344 4.042968-6.765625 8.167968.386719 4.117188 4.039062 7.15625 8.167969 6.765626 18.878906-1.773438 37.253906-6.285157 54.695312-13.417969 15.539063 13.953125 36.066407 22.457031 58.542969 22.457031 55.746094 0 97.921875-51.796875 85.5625-106.90625l14.101562-14.101562c9.082032-9.078126 9.082032-23.773438.003907-32.851563zm-186.328125 79.675781c-12.007813 4.25-24.5 6.734375-37.277344 7.433594v-12.054688c0-4.144531-3.355469-7.5-7.5-7.5s-7.5 3.355469-7.5 7.5v12.054688c-19.207031-1.0625-37.351562-6.167969-53.589844-14.488281l5.964844-10.328125c2.070312-3.585938.839844-8.175782-2.746094-10.246094-3.589844-2.070312-8.175781-.84375-10.246094 2.746094l-5.914062 10.246094c-15.53125-10.285157-28.808594-23.703126-38.925781-39.351563l9.976562-5.757813c3.585938-2.074218 4.816407-6.660156 2.742188-10.246093-2.070313-3.589844-6.660157-4.816407-10.242188-2.746094l-9.902343 5.714844c-8.074219-16.203125-12.976563-34.257813-13.875-53.339844h11.015624c4.140626 0 7.5-3.359375 7.5-7.5 0-4.144531-3.359374-7.5-7.5-7.5h-10.890624c1.199218-18.941406 6.335937-36.828125 14.605468-52.851563l9.042969 5.222657c3.59375 2.074219 8.179687.839843 10.246094-2.746094 2.070312-3.585937.84375-8.171875-2.746094-10.246094l-8.929687-5.152343c10.183593-15.273438 23.40625-28.351563 38.796874-38.371094l5 8.660156c2.070313 3.589844 6.660157 4.816406 10.242188 2.746094 3.589844-2.074219 4.816406-6.660156 2.746094-10.246094l-4.980469-8.625c15.988281-8.027344 33.789063-12.960938 52.605469-14v9.863281c0 4.144531 3.359375 7.5 7.503906 7.5 4.140625 0 7.5-3.355469 7.5-7.5v-9.863281c18.820312 1.039062 36.617188 5.972656 52.605469 14l-4.980469 8.625c-2.070312 3.585938-.839844 8.175781 2.746094 10.246094 3.59375 2.070312 8.179687.839844 10.246094-2.746094l5-8.65625c15.390624 10.015625 28.613281 23.09375 38.792968 38.367188l-8.929687 5.152343c-3.585938 2.074219-4.816407 6.660157-2.742188 10.246094 2.070313 3.589844 6.660157 4.816406 10.242188 2.746094l9.046875-5.222657c8.269531 16.023438 13.402344 33.910157 14.605468 52.851563h-10.890624c-4.140626 0-7.5 3.355469-7.5 7.5 0 4.140625 3.359374 7.5 7.5 7.5h11.019531c-.304688 6.429687-1.066407 12.832031-2.28125 19.136719-53.996094-.289063-95.488281 47.847656-87.203125 101.226562zm86.664062 59.183594c-34.59375 0-63.605468-24.296875-70.910156-56.714844-14.734375-65.539062 60.035156-114.164062 113.871094-74.636718 3.097656 2.273437 6.039062 4.792968 8.773437 7.566406l-46.621093 46.621094-27.320313-27.320313c-14.824219-14.828125-39.65625-3.820313-39.65625 16.425781 0 6.332032 2.542969 12.164063 6.804687 16.425782l43.746094 43.75c9.074219 9.074218 23.773438 9.078124 32.851563 0l50.910156-50.90625c3.566406 42.296874-29.9375 78.789062-72.449219 78.789062zm89.054688-116.617188-78.125 78.125c-3.203125 3.207032-8.414063 3.222657-11.632813-.003906l-43.75-43.746094c-3.207031-3.207031-3.207031-8.429687 0-11.636718 3.214844-3.21875 8.421875-3.21875 11.636719-.003906l29.613281 29.617187c4.589844 4.585937 12.046875 4.585937 16.632813 0 6.957031-6.957031 57.132812-57.132813 63.988281-63.988281 3.214844-3.214844 8.421875-3.21875 11.636719 0 3.214844 3.214844 3.21875 8.421875 0 11.636718zm0 0"/><path d="m174.578125 502.964844c4.109375.386718 7.78125-2.628906 8.167969-6.765625.386718-4.125-2.640625-7.78125-6.765625-8.167969-91.773438-8.601562-160.980469-84.6875-160.980469-176.984375 0-91.730469 69.832031-167.449219 159.125-176.804687 98.449219-10.261719 186.316406 60.507812 195.640625 160.003906.386719 4.121094 4.035156 7.148437 8.167969 6.765625 4.125-.386719 7.152344-4.042969 6.765625-8.167969-4.457031-47.574219-26.398438-91.617188-61.773438-124.015625-28.855469-26.421875-64.675781-43.21875-102.933593-48.644531v-19.941406c16.304687-9.589844 26.609374-27.3125 26.609374-46.421876 0-29.675781-24.144531-53.820312-53.820312-53.820312s-53.820312 24.144531-53.820312 53.820312c0 19.109376 10.304687 36.832032 26.609374 46.421876v19.953124c-16.6875 2.367188-32.699218 6.867188-47.734374 13.234376l-12.792969-17.769532c-8.804688-12.226562-25.804688-14.953125-37.984375-6.183594-12.203125 8.789063-14.972656 25.777344-6.183594 37.980469l10.214844 14.1875c-43.355469 35.378907-71.089844 89.210938-71.089844 149.402344 0 100.027344 76.332031 182.710937 174.578125 191.917969zm30.414063-384.3125c-8.640626-.546875-16.859376-.476563-24.421876 0 0-11.304688 0-18.578125 0-29.679688 0-6.734375 5.476563-12.210937 12.210938-12.210937 6.730469 0 12.210938 5.476562 12.210938 12.210937zm-51.03125-64.832032c0-21.40625 17.414062-38.820312 38.820312-38.820312s38.820312 17.414062 38.820312 38.820312c0 10.914063-4.660156 21.207032-12.441406 28.453126-6.546875-26.667969-45.835937-27.808594-52.757812 0-7.78125-7.246094-12.441406-17.539063-12.441406-28.453126zm-78.136719 67.828126c5.472656-3.9375 13.097656-2.699219 17.042969 2.777343l11.136718 15.46875c-7.25 3.765625-14.265625 8-20.980468 12.65625l-9.972657-13.855469c-3.945312-5.476562-2.707031-13.101562 2.773438-17.046874zm0 0"/></svg>