<svg height="511pt" viewBox="1 -60 511.999 511" width="511pt" xmlns="http://www.w3.org/2000/svg"><path d="m178.972656 338.980469-31.652344-71.101563c-1.363281-3.054687-4.394531-5.027344-7.742187-5.027344h-73.042969c-3.347656 0-6.378906 1.972657-7.742187 5.027344l-31.648438 71.101563c-2.496093 5.605469 1.605469 11.917969 7.738281 11.917969h136.347657c6.132812 0 10.234375-6.3125 7.742187-11.917969zm0 0" fill="#feca57"/><path d="m178.972656 338.980469-31.652344-71.101563c-1.363281-3.054687-4.394531-5.027344-7.742187-5.027344h-73.042969c-3.347656 0-6.378906 1.972657-7.742187 5.027344l-31.648438 71.101563c-2.496093 5.605469 1.605469 11.917969 7.738281 11.917969h136.347657c6.132812 0 10.234375-6.3125 7.742187-11.917969zm0 0" fill="#feca57"/><path d="m57.144531 338.980469 31.652344-71.101563c1.359375-3.054687 4.394531-5.027344 7.738281-5.027344h-30c-3.347656 0-6.378906 1.972657-7.742187 5.027344l-31.648438 71.101563c-2.496093 5.605469 1.605469 11.917969 7.738281 11.917969h30.003907c-6.136719 0-10.238281-6.3125-7.742188-11.917969zm0 0" fill="#f4b537"/><path d="m332.28125 338.980469-31.648438-71.101563c-1.363281-3.054687-4.394531-5.027344-7.742187-5.027344h-73.042969c-3.347656 0-6.378906 1.972657-7.742187 5.027344l-31.652344 71.101563c-2.492187 5.605469 1.609375 11.917969 7.742187 11.917969h136.347657c6.132812 0 10.234375-6.3125 7.738281-11.917969zm0 0" fill="#feca57"/><path d="m210.457031 338.980469 31.652344-71.101563c1.359375-3.054687 4.390625-5.027344 7.738281-5.027344h-30c-3.347656 0-6.378906 1.972657-7.742187 5.027344l-31.652344 71.101563c-2.492187 5.605469 1.609375 11.917969 7.742187 11.917969h30c-6.132812 0-10.234374-6.3125-7.738281-11.917969zm0 0" fill="#f4b537"/><path d="m485.59375 338.980469-31.648438-71.101563c-1.363281-3.054687-4.394531-5.027344-7.742187-5.027344h-73.042969c-3.347656 0-6.382812 1.972657-7.742187 5.027344l-31.652344 71.101563c-2.492187 5.605469 1.609375 11.917969 7.742187 11.917969h136.347657c6.132812 0 10.234375-6.3125 7.738281-11.917969zm0 0" fill="#feca57"/><path d="m363.769531 338.980469 31.652344-71.101563c1.359375-3.054687 4.390625-5.027344 7.738281-5.027344h-30.003906c-3.34375 0-6.378906 1.972657-7.738281 5.027344l-31.652344 71.101563c-2.492187 5.605469 1.609375 11.917969 7.742187 11.917969h30c-6.132812 0-10.234374-6.3125-7.738281-11.917969zm0 0" fill="#f4b537"/><g fill="#feca57"><path d="m255.625 250.933594-31.648438-71.101563c-1.363281-3.058593-4.394531-5.027343-7.742187-5.027343h-73.042969c-3.347656 0-6.382812 1.96875-7.742187 5.027343l-31.652344 71.101563c-2.492187 5.601562 1.609375 11.917968 7.742187 11.917968h136.347657c6.132812 0 10.234375-6.316406 7.738281-11.917968zm0 0"/><path d="m408.9375 250.933594-31.648438-71.101563c-1.363281-3.058593-4.394531-5.027343-7.742187-5.027343h-73.046875c-3.34375 0-6.378906 1.96875-7.738281 5.027343l-31.652344 71.101563c-2.492187 5.601562 1.609375 11.917968 7.742187 11.917968h136.347657c6.132812 0 10.234375-6.316406 7.738281-11.917968zm0 0"/><path d="m332.28125 162.886719-31.648438-71.101563c-1.363281-3.054687-4.394531-5.027344-7.742187-5.027344h-73.042969c-3.347656 0-6.378906 1.972657-7.742187 5.027344l-31.652344 71.101563c-2.492187 5.605469 1.609375 11.917969 7.742187 11.917969h136.347657c6.132812 0 10.234375-6.3125 7.738281-11.917969zm0 0"/></g><path d="m133.800781 250.933594 31.648438-71.101563c1.363281-3.058593 4.394531-5.027343 7.742187-5.027343h-30c-3.347656 0-6.382812 1.96875-7.742187 5.027343l-31.652344 71.101563c-2.492187 5.601562 1.609375 11.917968 7.742187 11.917968h30c-6.132812 0-10.234374-6.316406-7.738281-11.917968zm0 0" fill="#f4b537"/><path d="m287.113281 250.933594 31.648438-71.101563c1.363281-3.058593 4.394531-5.027343 7.742187-5.027343h-30.003906c-3.34375 0-6.378906 1.96875-7.738281 5.027343l-31.652344 71.101563c-2.492187 5.601562 1.609375 11.917968 7.742187 11.917968h30c-6.132812 0-10.234374-6.316406-7.738281-11.917968zm0 0" fill="#f4b537"/><path d="m210.457031 162.886719 31.652344-71.101563c1.359375-3.054687 4.390625-5.027344 7.738281-5.027344h-30c-3.347656 0-6.378906 1.972657-7.742187 5.027344l-31.652344 71.101563c-2.492187 5.605469 1.609375 11.917969 7.742187 11.917969h30c-6.132812 0-10.234374-6.3125-7.738281-11.917969zm0 0" fill="#f4b537"/><path d="m497.300781 349.898438h-481.863281c-4.179688 0-7.566406 3.386718-7.566406 7.570312v19.207031c0 4.179688 3.386718 7.570313 7.566406 7.570313h481.863281c4.179688 0 7.566407-3.386719 7.566407-7.570313v-19.207031c0-4.179688-3.386719-7.570312-7.566407-7.570312zm0 0" fill="#e4eaf8"/><path d="m497.300781 361.390625h-481.863281c-3.550781 0-6.519531-2.449219-7.339844-5.746094-.144531.585938-.226562 1.195313-.226562 1.824219v19.207031c0 4.183594 3.386718 7.570313 7.566406 7.570313h481.863281c4.179688 0 7.566407-3.386719 7.566407-7.570313v-19.207031c0-.628906-.082032-1.238281-.230469-1.824219-.816407 3.296875-3.785157 5.746094-7.335938 5.746094zm0 0" fill="#c7d2e5"/><path d="m248.5 8v40.703125c0 4.140625 3.355469 7.5 7.5 7.5s7.5-3.359375 7.5-7.5v-40.703125c0-4.144531-3.355469-7.5-7.5-7.5s-7.5 3.355469-7.5 7.5zm0 0"/><path d="m375.65625 145.953125c4.140625 0 7.5-3.355469 7.5-7.5v-7.792969h7.792969c4.144531 0 7.5-3.359375 7.5-7.503906 0-4.140625-3.355469-7.5-7.5-7.5h-7.792969v-7.792969c0-4.140625-3.359375-7.5-7.5-7.5-4.144531 0-7.503906 3.359375-7.503906 7.5v7.792969h-7.792969c-4.140625 0-7.5 3.359375-7.5 7.5 0 4.144531 3.359375 7.503906 7.5 7.503906h7.792969v7.792969c0 4.144531 3.359375 7.5 7.503906 7.5zm0 0"/><path d="m147.445312 105.726562c4.144532 0 7.503907-3.355468 7.503907-7.5v-7.792968h7.792969c4.144531 0 7.5-3.355469 7.5-7.5 0-4.144532-3.355469-7.5-7.5-7.5h-7.792969v-7.792969c0-4.144531-3.359375-7.5-7.503907-7.5-4.140624 0-7.5 3.355469-7.5 7.5v7.792969h-7.792968c-4.144532 0-7.5 3.355468-7.5 7.5 0 4.144531 3.355468 7.5 7.5 7.5h7.792968v7.792968c0 4.144532 3.359376 7.5 7.5 7.5zm0 0"/><path d="m322.816406 25.996094-24.390625 32.585937c-2.484375 3.316407-1.808593 8.015625 1.507813 10.5 3.316406 2.480469 8.015625 1.804688 10.5-1.511719l24.390625-32.582031c2.484375-3.316406 1.808593-8.015625-1.507813-10.5s-8.019531-1.804687-10.5 1.507813zm0 0"/><path d="m178.683594 24.488281c-3.316406 2.484375-3.992188 7.183594-1.511719 10.5l24.394531 32.582031c2.484375 3.316407 7.183594 3.992188 10.5 1.511719 3.316406-2.484375 3.992188-7.183593 1.507813-10.5l-24.390625-32.585937c-2.484375-3.3125-7.183594-3.988282-10.5-1.507813zm0 0"/><path d="m496.929688 343.386719h-3.5c.152343-2.519531-.289063-5.078125-1.351563-7.46875l-31.652344-71.101563c-2.5625-5.757812-8.292969-9.476562-14.589843-9.476562h-29.0625c.15625-2.519532-.285157-5.078125-1.351563-7.46875l-7.8125-17.554688c-1.6875-3.785156-6.125-5.484375-9.902344-3.800781-3.785156 1.683594-5.484375 6.117187-3.800781 9.902344l7.8125 17.554687c.054688.117188.214844.480469-.074219.921875-.285156.445313-.683593.441407-.8125.441407-19.167969 0-117.128906 0-136.351562 0-.128907 0-.527344 0-.8125-.441407-.289063-.441406-.125-.804687-.074219-.925781l31.652344-71.097656c.398437-.902344-3.792969-.578125 73.933594-.578125.382812 0 .734374.226562.890624.574219l8.253907 18.546874c1.683593 3.785157 6.117187 5.488282 9.902343 3.804688 3.785157-1.6875 5.484376-6.121094 3.800782-9.902344l-8.253906-18.546875c-2.5625-5.757812-8.292969-9.480469-14.59375-9.480469h-29.058594c.152344-2.519531-.289063-5.074218-1.355469-7.464843l-31.648437-71.101563c-2.5625-5.757812-8.289063-9.480468-14.59375-9.480468h-73.046876c-6.296874 0-12.027343 3.71875-14.589843 9.480468l-31.652344 71.101563c-1.0625 2.390625-1.503906 4.945312-1.351563 7.464843h-29.0625c-6.300781 0-12.03125 3.722657-14.589843 9.480469l-31.652344 71.101563c-1.0625 2.390625-1.503906 4.949218-1.351563 7.46875h-29.0625c-6.300781 0-12.03125 3.71875-14.59375 9.476562l-31.648437 71.101563c-1.066406 2.390625-1.507813 4.949219-1.355469 7.46875h-3.496094c-8.308593 0-15.070312 6.761719-15.070312 15.070312v18.207031c0 8.308594 6.761719 15.070313 15.070312 15.070313h223.429688c4.140625 0 7.5-3.359375 7.5-7.5 0-4.144531-3.359375-7.503906-7.5-7.503906l-223.5-.066407.070312-18.277343 481.929688.070312-.070312 18.273438h-223.429688c-4.144531 0-7.5 3.359375-7.5 7.503906 0 4.140625 3.355469 7.5 7.5 7.5h223.429688c8.308593 0 15.070312-6.761719 15.070312-15.070313v-18.207031c0-8.308593-6.761719-15.070312-15.070312-15.070312zm-240.929688-109.242188-23.082031-51.851562h46.164062zm-37.410156-139.320312c.15625-.351563.503906-.578125.886718-.578125h73.046876c.382812 0 .730468.226562.886718.578125l31.652344 71.101562c.050781.121094.214844.480469-.074219.925781-.285156.441407-.683593.441407-.8125.441407-12.3125 0-96.554687 0-108.308593 0-29.949219 0-28.386719.28125-28.855469-.441407-.449219-.6875-2.292969 4.058594 31.578125-72.027343zm-108.308594 159.148437 31.652344-71.101562c.152344-.351563.503906-.578125.886718-.578125h73.046876c.382812 0 .730468.226562.886718.578125l31.652344 71.101562c.050781.121094.210938.480469-.074219.925782-.285156.441406-.683593.441406-.8125.441406-19.167969 0-117.128906 0-136.351562 0-.128907 0-.527344 0-.8125-.441406-.289063-.445313-.125-.808594-.074219-.925782zm61.394531 88.972656c-.285156.441407-.683593.441407-.8125.441407h-136.351562c-.128907 0-.527344 0-.8125-.441407-.289063-.441406-.125-.808593-.074219-.925781l31.652344-71.101562c.15625-.351563.503906-.578125.886718-.578125h73.046876c.382812 0 .730468.226562.886718.578125l31.652344 71.101562c.050781.117188.214844.480469-.074219.925781zm-15.414062-72.605468h46.164062l-23.082031 51.851562zm168.726562 72.605468c-.285156.441407-.683593.441407-.8125.441407h-136.351562c-.128907 0-.527344 0-.8125-.441407-.289063-.441406-.128907-.808593-.074219-.925781l31.652344-71.101562c.15625-.351563.503906-.578125.886718-.578125h73.046876c.382812 0 .730468.226562.886718.578125l31.652344 71.101562c.050781.117188.214844.480469-.074219.925781zm-15.414062-72.605468h46.164062l-23.082031 51.851562zm168.726562 72.605468c-.289062.441407-.683593.441407-.816406.441407h-136.347656c-.128907 0-.527344 0-.8125-.441407-.289063-.445312-.128907-.808593-.074219-.925781l31.652344-71.101562c.152344-.351563.503906-.578125.886718-.578125h73.046876c.382812 0 .730468.226562.886718.578125l31.652344 71.101562c.050781.117188.214844.480469-.074219.925781zm0 0"/></svg>