<svg height="511pt" viewBox="-31 0 511 511.999" width="511pt" xmlns="http://www.w3.org/2000/svg"><path d="m367.945312 139.371094c-4.207031-6.140625-10.5-10.550782-17.707031-12.410156l-117.085937-14.214844c-5.046875-1.304688-10.339844-1.304688-15.386719 0l-117.089844 14.214844c-7.207031 1.859374-13.496093 6.269531-17.703125 12.410156l-74.613281 108.894531h434.199219zm0 0" fill="#338def"/><path d="m8.824219 248.265625 204.984375 250.507813c6.261718 7.652343 17.964844 7.652343 24.226562 0l204.984375-250.507813zm0 0" fill="#338def"/><path d="m119.410156 124.6875-18.734375 2.273438c-7.207031 1.859374-13.496093 6.269531-17.703125 12.410156l-74.613281 108.894531h30l74.613281-116.265625c1.796875-2.800781 3.972656-5.257812 6.4375-7.3125zm0 0" fill="#2388e2"/><path d="m38.824219 248.265625h-30l204.984375 250.507813c6.261718 7.652343 17.964844 7.652343 24.226562 0l2.890625-3.53125zm0 0" fill="#2d80e2"/><path d="m237.042969 499.34375 61.203125-251.078125h-145.574219l61.199219 251.078125c6.195312 6.859375 16.976562 6.859375 23.171875 0zm0 0" fill="#2388e2"/><path d="m225.484375 504.488281c4.238281-.007812 8.46875-1.722656 11.558594-5.144531l1.664062-6.8125-37.738281-46.113281 12.730469 52.21875.113281.136719c3.027344 3.699218 7.332031 5.59375 11.671875 5.714843zm0 0" fill="#117ac9"/><g fill="#54a0ff"><path d="m225.457031 248.265625h72.789063l-64.132813-135.273437-.960937-.246094c-5.046875-1.300782-10.339844-1.300782-15.386719 0l-.964844.246094-64.128906 135.273437zm0 0"/><path d="m298.246094 248.265625h144.3125l-74.613282-108.894531c-2.238281-3.265625-5.074218-6.019532-8.3125-8.183594zm0 0"/><path d="m152.671875 248.265625h-144.3125l74.613281-108.894531c2.234375-3.265625 5.074219-6.019532 8.3125-8.183594zm0 0"/></g><path d="m8.359375 248.265625h30l62.910156-98.03125-9.984375-19.046875c-3.238281 2.164062-6.074218 4.917969-8.3125 8.179688 0 .003906 0 .003906-.003906.003906l-29.015625 42.347656zm0 0" fill="#338def"/><path d="m76.414062 135.117188-74.613281 108.894531c-1.8124998 2.644531-1.7734372 6.324219.382813 8.988281l204.988281 250.507812c9.269531 11.332032 26.582031 11.308594 35.835937.003907l124.980469-152.738281c2.625-3.207032 2.152344-7.933594-1.054687-10.558594-3.207032-2.621094-7.929688-2.148438-10.554688 1.058594l-104.621094 127.851562 52.007813-213.375h122.59375l-47.375 57.898438c-2.625 3.203124-2.152344 7.929687 1.054687 10.554687 3.207032 2.621094 7.933594 2.148437 10.554688-1.054687l57.398438-70.148438c2.171874-2.683594 2.183593-6.371094.382812-8.988281l-74.613281-108.894531c-7.367188-10.757813-18.769531-15.097657-22.984375-15.613282l-116.628906-14.160156c-5.652344-1.375-12.019532-1.484375-18.121094 0l-116.625 14.160156c-4.253906.519532-15.648438 4.902344-22.988282 15.613282zm12.375 8.480468s.003907-.003906.003907-.003906c.03125-.046875.066406-.085938.097656-.128906l51.007813 97.285156h-117.675782zm-64.96875 112.152344h122.589844l52.007813 213.375zm337.46875-112.285156c.03125.046875.066407.085937.097657.132812l34.253906 49.988282 32.316406 47.164062h-117.679687zm-12.253906-8.9375-50.824218 96.925781-51.925782-109.523437c109.164063 13.253906 101.75 12.289062 102.75 12.597656zm-127.40625-15c2.3125-.347656 4.539063-.355469 6.917969 0l57.472656 121.222656h-43.429687c-4.144532 0-7.5 3.359375-7.5 7.503906 0 4.140625 3.355468 7.5 7.5 7.5h45.734375l-58.410157 239.640625c-2.832031 2.113281-6.8125 2.117188-9.652343 0l-58.410157-239.640625h45.738282c4.140625 0 7.5-3.359375 7.5-7.5 0-4.144531-3.359375-7.503906-7.5-7.503906h-43.429688zm-119.890625 14.804687 102.152344-12.402343-51.925781 109.523437-50.824219-96.925781c.199219-.0625.394531-.140625.597656-.195313zm0 0"/><path d="m411.019531 69.46875c-4.140625 0-7.5 3.359375-7.5 7.5v11.285156h-11.285156c-4.144531 0-7.5 3.359375-7.5 7.5 0 4.144532 3.355469 7.503906 7.5 7.503906h11.285156v11.285157c0 4.140625 3.359375 7.5 7.5 7.5 4.144531 0 7.5-3.359375 7.5-7.5v-11.285157h11.285157c4.144531 0 7.503906-3.359374 7.503906-7.503906 0-4.140625-3.359375-7.5-7.503906-7.5h-11.285157v-11.285156c0-4.140625-3.355469-7.5-7.5-7.5zm0 0"/><path d="m54.910156 386.914062c-4.144531 0-7.5 3.359376-7.5 7.5v11.285157h-11.285156c-4.144531 0-7.5 3.359375-7.5 7.5 0 4.144531 3.355469 7.503906 7.5 7.503906h11.285156v11.285156c0 4.140625 3.355469 7.5 7.5 7.5 4.144532 0 7.5-3.359375 7.5-7.5v-11.285156h11.285156c4.144532 0 7.5-3.359375 7.5-7.503906 0-4.140625-3.355468-7.5-7.5-7.5h-11.285156v-11.285157c0-4.140624-3.359375-7.5-7.5-7.5zm0 0"/><path d="m225.089844 64.996094c4.140625 0 7.5-3.355469 7.5-7.5v-49.996094c0-4.144531-3.359375-7.5-7.5-7.5-4.144532 0-7.5 3.355469-7.5 7.5v49.996094c0 4.144531 3.355468 7.5 7.5 7.5zm0 0"/><path d="m290.578125 79.648438 29.960937-40.023438c2.484376-3.316406 1.808594-8.015625-1.507812-10.5s-8.019531-1.804688-10.5 1.511719l-29.960938 40.019531c-2.480468 3.316406-1.808593 8.019531 1.507813 10.5s8.019531 1.804688 10.5-1.507812zm0 0"/><path d="m131.144531 29.125c-3.316406 2.484375-3.992187 7.183594-1.507812 10.5l29.960937 40.023438c2.484375 3.316406 7.183594 3.988281 10.5 1.507812s3.992188-7.183594 1.507813-10.5l-29.960938-40.019531c-2.484375-3.316407-7.183593-3.992188-10.5-1.511719zm0 0"/></svg>