<svg height="512pt" viewBox="-39 0 512 512.001" width="512pt" xmlns="http://www.w3.org/2000/svg"><path d="m67.148438 181.976562c10.25 0 18.5625-8.308593 18.5625-18.558593v-23.507813c0-52.535156 42.738281-95.277344 95.273437-95.277344s95.277344 42.742188 95.277344 95.277344v88.726563h37.121093v-88.726563c0-73.003906-59.394531-132.398437-132.394531-132.398437-73.003906 0-132.398437 59.394531-132.398437 132.398437v23.507813c0 10.25 8.308594 18.558593 18.558594 18.558593zm0 0" fill="#e4eaf8"/><path d="m75.355469 163.417969v-23.507813c0-68.488281 52.273437-124.992187 119.015625-131.726562-4.402344-.441406-8.867188-.671875-13.386719-.671875-73.003906 0-132.394531 59.394531-132.394531 132.394531v23.511719c0 10.25 8.308594 18.558593 18.5625 18.558593 5.261718 0 10.003906-2.199218 13.382812-5.722656-3.199218-3.332031-5.179687-7.851562-5.179687-12.835937zm0 0" fill="#c7d2e5"/><path d="m207.753906 44.632812c-4.542968 0-9.011718.328126-13.386718.945313 46.222656 6.523437 81.890624 46.335937 81.890624 94.328125v88.730469h26.769532v-88.726563c0-52.535156-42.738282-95.277344-95.273438-95.277344zm0 0" fill="#c7d2e5"/><path d="m339.25 223.636719h-316.53125c-8.167969 0-14.847656 6.679687-14.847656 14.847656v251.179687c0 8.167969 6.679687 14.847657 14.847656 14.847657h316.53125c8.167969 0 14.847656-6.679688 14.847656-14.847657 0-11.269531 0-240.378906 0-251.179687 0-8.167969-6.679687-14.847656-14.847656-14.847656zm0 0" fill="#54a0ff"/><path d="m37.871094 489.664062v-251.179687c0-8.167969 6.683594-14.847656 14.847656-14.847656h-30c-8.167969 0-14.847656 6.679687-14.847656 14.847656v251.179687c0 8.167969 6.679687 14.847657 14.847656 14.847657h30c-8.164062 0-14.847656-6.679688-14.847656-14.847657zm0 0" fill="#338def"/><path d="m217.109375 326.816406c-3.671875-17.46875-19.691406-30.386718-38.503906-29.210937-16.628907 1.042969-30.339844 13.375-33.726563 29.210937zm0 0" fill="#576574"/><path d="m161.636719 368.058594c.503906 1.238281.789062 2.5625.789062 3.9375v6.265625c0 9.992187 7.679688 18.59375 17.664063 19.0625 10.65625.5 19.453125-7.992188 19.453125-18.539063v-6.671875c0-1.402343.28125-2.773437.78125-4.050781h-38.6875zm0 0" fill="#576574"/><path d="m195.613281 300.550781c-5.167969-2.230469-10.9375-3.324219-17.007812-2.945312-16.628907 1.042969-30.339844 13.375-33.726563 29.210937h29.195313c2.507812-11.742187 10.695312-21.550781 21.539062-26.265625zm0 0" fill="#3e4b5a"/><path d="m191.617188 378.261719v-6.265625c0-1.375-.28125-2.699219-.785157-3.9375h-29.195312c.503906 1.238281.789062 2.5625.789062 3.9375v6.265625c0 9.992187 7.679688 18.59375 17.664063 19.0625 6.34375.296875 12.007812-2.605469 15.570312-7.214844-2.535156-3.289063-4.042968-7.429687-4.042968-11.847656zm0 0" fill="#3e4b5a"/><path d="m322.101562 326.816406h-177.222656c-.46875 2.191406-.742187 4.449219-.796875 6.753906-.28125 12.121094 5.285157 22.945313 14.070313 29.871094 1.5625 1.230469 2.761718 2.828125 3.488281 4.617188h159.773437c-3.617187-5.832032-5.710937-12.710938-5.710937-20.078125 0-7.832031 2.355469-15.109375 6.398437-21.164063zm0 0" fill="#feca57"/><path d="m187.308594 363.441406c-8.785156-6.925781-14.351563-17.75-14.070313-29.871094.054688-2.304687.332031-4.5625.796875-6.753906h-29.15625c-.46875 2.191406-.742187 4.449219-.796875 6.753906-.28125 12.121094 5.285157 22.945313 14.070313 29.871094 1.5625 1.230469 2.761718 2.828125 3.488281 4.617188h29.15625c-.726563-1.789063-1.925781-3.386719-3.488281-4.617188zm0 0" fill="#f4b537"/><path d="m412.132812 314.625c-2.808593-1.570312-4.445312-4.546875-4.28125-7.761719.023438-.460937.035157-.929687.035157-1.394531 0-16.40625-13.300781-29.703125-29.707031-29.703125-16.402344 0-29.703126 13.296875-29.703126 29.703125v.042969c.007813 2.3125-1.589843 4.335937-3.882812 4.652343-18.582031 2.582032-32.890625 18.523438-32.890625 37.816407s14.308594 35.234375 32.890625 37.8125c2.292969.316406 3.898438 2.339843 3.886719 4.65625v.121093c0 16.40625 13.296875 29.703126 29.703125 29.703126 16.402344 0 29.703125-13.296876 29.703125-29.703126 0-.492187-.011719-.980468-.039063-1.464843-.171875-3.214844 1.472656-6.199219 4.28125-7.769531 11.691406-6.527344 19.597656-19.015626 19.597656-33.355469-.003906-14.339844-7.90625-26.828125-19.59375-33.355469zm-16.675781 36.9375c0 10.25-8.308593 18.558594-18.558593 18.558594s-18.5625-8.308594-18.5625-18.558594v-8.25c0-10.25 8.3125-18.558594 18.5625-18.558594s18.558593 8.308594 18.558593 18.558594zm0 0" fill="#f4b537"/><path d="m378.480469 390.570312c0-.039062 0-.082031 0-.121093.011719-2.316407-1.589844-4.339844-3.882813-4.65625-18.585937-2.578125-32.894531-18.519531-32.894531-37.8125s14.308594-35.234375 32.890625-37.816407c2.292969-.316406 3.890625-2.339843 3.882812-4.652343 0-.015625 0-.03125 0-.042969 0-10.933594 5.910157-20.476562 14.703126-25.636719-4.402344-2.582031-9.527344-4.066406-15-4.066406-16.402344 0-29.703126 13.296875-29.703126 29.703125v.042969c.003907 2.3125-1.59375 4.335937-3.882812 4.652343-18.585938 2.582032-32.890625 18.523438-32.890625 37.816407s14.308594 35.234375 32.890625 37.8125c2.292969.316406 3.898438 2.339843 3.882812 4.65625v.121093c0 16.40625 13.300782 29.703126 29.703126 29.703126 5.476562 0 10.597656-1.484376 15.003906-4.066407-8.792969-5.160156-14.703125-14.703125-14.703125-25.636719zm0 0" fill="#e59d1f"/><path d="m376.527344 317.242188c-14.367188 0-26.0625 11.691406-26.0625 26.0625v8.246093c0 14.371094 11.691406 26.0625 26.0625 26.0625s26.0625-11.691406 26.0625-26.0625v-8.246093c-.003906-14.371094-11.691406-26.0625-26.0625-26.0625zm11.058594 34.308593c0 6.097657-4.960938 11.058594-11.058594 11.058594s-11.0625-4.960937-11.0625-11.058594v-8.25c0-6.097656 4.964844-11.058593 11.0625-11.058593s11.058594 4.960937 11.058594 11.058593zm0 0"/><path d="m408.105469 321.160156c5.304687 2.964844 9.578125 7.382813 12.363281 12.78125 1.894531 3.683594 6.421875 5.125 10.101562 3.230469 3.683594-1.898437 5.128907-6.421875 3.230469-10.105469-4.140625-8.023437-10.496093-14.597656-18.378906-19-.398437-.222656-.464844-.578125-.453125-.835937 1.074219-20.847657-15.691406-38.980469-37.15625-38.980469-5.957031 0-11.585938 1.414062-16.582031 3.914062v-33.695312c0-12.320312-10.027344-22.347656-22.347657-22.347656h-18.371093v-76.226563c0-77.136719-62.757813-139.894531-139.894531-139.894531-77.140626 0-139.898438 62.757812-139.898438 139.894531v23.511719c0 14.371094 11.691406 26.058594 26.0625 26.058594s26.0625-11.6875 26.0625-26.058594v-23.511719c0-48.398437 39.375-87.773437 87.773438-87.773437 48.398437 0 87.777343 39.375 87.777343 87.773437v76.230469h-246.042969c-12.324218 0-22.351562 10.023438-22.351562 22.347656v251.179688c0 12.320312 10.027344 22.347656 22.351562 22.347656h140.773438c4.140625 0 7.5-3.355469 7.5-7.5s-3.359375-7.5-7.5-7.5h-140.773438c-4.054687 0-7.351562-3.296875-7.351562-7.347656v-251.183594c0-4.050781 3.296875-7.347656 7.351562-7.347656h316.53125c4.050782 0 7.347657 3.296875 7.347657 7.347656v47.328125c-3.335938 5.339844-5.1875 11.472656-5.546875 17.347656-10.753906 2.113281-20.078125 8.011719-26.660156 16.15625h-91.648438c-6.625-18.1875-24.804688-30.425781-44.605469-29.191406-22.875 1.433594-41.03125 20.421875-41.554687 43.277344-.328125 14.097656 5.839844 27.195312 16.925781 35.933593.804687.632813 1.414063 1.664063 1.414063 2.664063v6.261719c0 14.578125 11.460937 26.585937 26.082031 26.585937 14.558593 0 26.039062-11.867187 26.039062-26.0625v-3.222656h106.488281c6.617188 8.707031 16.289063 15.035156 27.507813 17.238281.335937 5.921875 2.238281 12.113282 5.558594 17.433594v79.433594c0 4.050781-3.296875 7.347656-7.347657 7.347656h-140.757812c-4.144531 0-7.5 3.355469-7.5 7.5s3.355469 7.5 7.5 7.5h140.757812c12.320313 0 22.347657-10.027344 22.347657-22.347656v-65.804688c4.996093 2.5 10.625 3.914063 16.582031 3.914063 21.464844 0 38.296875-18.167969 37.152344-39.0625-.019532-.367188.140625-.652344.453125-.828125 7.851562-4.386719 14.191406-10.925782 18.328125-18.914063 1.90625-3.675781.472656-8.203125-3.207032-10.109375-3.675781-1.902344-8.199218-.46875-10.109374 3.207032-2.785157 5.371093-7.046876 9.773437-12.328126 12.722656-5.328124 2.976562-8.4375 8.613281-8.113281 14.722656.683594 12.242188-9.226562 23.261719-22.175781 23.261719-12.101562 0-22.203125-9.800781-22.203125-22.28125.03125-6.089844-4.417969-11.304688-10.355469-12.128907-15.21875-2.109374-26.421875-15.3125-26.421875-30.382812 0-15.15625 11.304688-28.285156 26.421875-30.386719 5.914063-.816406 10.367188-6.015625 10.355469-12.125 0-12.132812 9.871094-22.203125 22.199219-22.203125 12.714844 0 22.789062 10.695313 22.179687 23.222656-.304687 6.089844 2.804688 11.714844 8.117188 14.683594zm-102.59375-105.039062h-22.121094v-76.226563c0-56.667969-46.105469-102.773437-102.773437-102.773437-56.671876 0-102.777344 46.105468-102.777344 102.773437v23.511719c0 6.097656-4.960938 11.058594-11.0625 11.058594-6.097656 0-11.058594-4.960938-11.058594-11.058594v-23.511719c.003906-68.867187 56.03125-124.894531 124.898438-124.894531 68.867187 0 124.894531 56.027344 124.894531 124.894531zm-126.804688 88.960937c11.164063-.695312 21.566407 5.0625 27.117188 14.222657h-50.394531c4.894531-8.117188 13.523437-13.613282 23.277343-14.222657zm9.539063 81.695313c-2.207032 2.105468-5.109375 3.183594-8.175782 3.042968-5.796874-.273437-10.515624-5.464843-10.515624-11.574218v-2.699219h22.121093c0 3.535156.441407 7.535156-3.429687 11.230469zm117.347656-26.230469c-2.863281 0-137.027344 0-140.128906 0-.890625-1.109375-1.910156-2.121094-3.039063-3.007813-7.191406-5.671874-11.261719-14.113281-11.222656-23.234374h154.707031c-1.402344 4.488281-2.078125 9.226562-2.078125 13.664062 0 4.296875.699219 8.863281 1.761719 12.578125zm0 0"/></svg>