<svg height="512pt" viewBox="-30 0 512 512" width="512pt" xmlns="http://www.w3.org/2000/svg"><path d="m17.535156 408.574219c-5.335937 0-9.664062 4.328125-9.664062 9.667969v76.601562c0 5.339844 4.328125 9.667969 9.664062 9.667969h101.375v-95.9375zm0 0" fill="#acd6fc"/><path d="m37.871094 494.84375v-76.601562c0-5.339844 4.328125-9.667969 9.667968-9.667969h-30.003906c-5.335937 0-9.664062 4.328125-9.664062 9.667969v76.601562c0 5.339844 4.328125 9.667969 9.664062 9.667969h30.003906c-5.339843 0-9.667968-4.328125-9.667968-9.667969zm0 0" fill="#8ac2ff"/><path d="m126.578125 312.636719c-5.339844 0-9.667969 4.328125-9.667969 9.664062v182.210938h111.042969v-191.875zm0 0" fill="#8ac2ff"/><path d="m156.582031 312.636719h-30.003906c-5.339844 0-9.667969 4.328125-9.667969 9.667969v182.207031h30.003906v-182.207031c0-5.339844 4.328126-9.667969 9.667969-9.667969zm0 0" fill="#54a0ff"/><path d="m235.621094 216.699219c-5.339844 0-9.667969 4.328125-9.667969 9.664062v278.148438h111.042969v-287.8125zm0 0" fill="#54a0ff"/><path d="m265.621094 216.699219h-30c-5.339844 0-9.667969 4.328125-9.667969 9.667969v278.144531h30v-278.144531c0-5.339844 4.328125-9.667969 9.667969-9.667969zm0 0" fill="#338def"/><path d="m434.367188 120.761719h-89.707032c-5.339844 0-9.664062 4.328125-9.664062 9.667969v374.082031h99.371094c5.339843 0 9.667968-4.328125 9.667968-9.667969v-364.414062c0-5.339844-4.328125-9.667969-9.667968-9.667969zm0 0" fill="#338def"/><path d="m374.664062 120.761719h-30.003906c-5.335937 0-9.664062 4.328125-9.664062 9.667969v374.082031h30v-374.082031c0-5.339844 4.328125-9.667969 9.667968-9.667969zm0 0" fill="#2388e2"/><g fill="#feca57"><path d="m79.703125 312.636719c0 9.558593-7.75 17.308593-17.3125 17.308593-9.558594 0-17.3125-7.75-17.3125-17.308593 0-9.5625 7.753906-17.3125 17.3125-17.3125 9.5625 0 17.3125 7.75 17.3125 17.3125zm0 0"/><path d="m188.742188 216.699219c0 9.558593-7.75 17.308593-17.308594 17.308593-9.5625 0-17.3125-7.75-17.3125-17.308593 0-9.5625 7.75-17.3125 17.3125-17.3125 9.558594 0 17.308594 7.75 17.308594 17.3125zm0 0"/><path d="m297.785156 120.761719c0 9.558593-7.75 17.3125-17.3125 17.3125-9.558594 0-17.3125-7.753907-17.3125-17.3125 0-9.5625 7.753906-17.3125 17.3125-17.3125 9.5625 0 17.3125 7.75 17.3125 17.3125zm0 0"/><path d="m406.824219 24.824219c0 9.558593-7.75 17.308593-17.308594 17.308593-9.5625 0-17.3125-7.75-17.3125-17.308593 0-9.5625 7.75-17.3125 17.3125-17.3125 9.558594 0 17.308594 7.75 17.308594 17.3125zm0 0"/></g><path d="m69.582031 312.636719c0-4.773438 1.933594-9.097657 5.058594-12.230469-3.132813-3.136719-7.464844-5.082031-12.25-5.082031-9.558594 0-17.3125 7.753906-17.3125 17.3125 0 9.5625 7.753906 17.3125 17.3125 17.3125 4.785156 0 9.117187-1.941407 12.25-5.082031-3.125-3.132813-5.058594-7.457032-5.058594-12.230469zm0 0" fill="#f4b537"/><path d="m178.621094 216.699219c0-4.773438 1.9375-9.097657 5.0625-12.230469-3.132813-3.136719-7.464844-5.082031-12.25-5.082031-9.5625 0-17.3125 7.75-17.3125 17.3125 0 9.558593 7.75 17.308593 17.3125 17.308593 4.785156 0 9.117187-1.941406 12.25-5.078124-3.125-3.132813-5.0625-7.457032-5.0625-12.230469zm0 0" fill="#f4b537"/><path d="m287.664062 120.761719c0-4.773438 1.933594-9.097657 5.0625-12.230469-3.136718-3.136719-7.46875-5.078125-12.253906-5.078125-9.558594 0-17.308594 7.75-17.308594 17.308594 0 9.558593 7.75 17.3125 17.308594 17.3125 4.785156 0 9.117188-1.945313 12.253906-5.082031-3.128906-3.132813-5.0625-7.457032-5.0625-12.230469zm0 0" fill="#f4b537"/><path d="m396.703125 24.824219c0-4.773438 1.9375-9.097657 5.0625-12.230469-3.132813-3.140625-7.464844-5.082031-12.25-5.082031-9.5625 0-17.3125 7.75-17.3125 17.3125 0 9.558593 7.75 17.308593 17.3125 17.308593 4.785156 0 9.117187-1.941406 12.25-5.078124-3.125-3.132813-5.0625-7.457032-5.0625-12.230469zm0 0" fill="#f4b537"/><path d="m17.167969 512h245.433593c4.144532 0 7.5-3.359375 7.5-7.5 0-4.144531-3.355468-7.5-7.5-7.5h-29.519531c0-9.972656 0-260.671875 0-270.644531 0-1.195313.972657-2.167969 2.167969-2.167969h91.875v272.8125h-29.519531c-4.144531 0-7.5 3.355469-7.5 7.5 0 4.140625 3.355469 7.5 7.5 7.5h136.394531c9.464844 0 17.164062-7.703125 17.164062-17.167969v-164.707031c0-4.140625-3.355468-7.5-7.5-7.5-4.140624 0-7.5 3.359375-7.5 7.5v164.707031c0 1.195313-.972656 2.167969-2.164062 2.167969h-91.875c0-2.601562 0-361.890625 0-366.585938 0-1.191406.972656-2.164062 2.167969-2.164062h89.707031c1.191406 0 2.164062.972656 2.164062 2.164062v164.707032c0 4.144531 3.359376 7.503906 7.5 7.503906 4.144532 0 7.503907-3.359375 7.503907-7.503906v-164.707032c0-9.464843-7.703125-17.167968-17.167969-17.167968h-89.707031c-9.46875 0-17.167969 7.703125-17.167969 17.167968v78.773438h-91.875c-9.46875 0-17.167969 7.699219-17.167969 17.167969v78.769531h-91.875c-9.464843 0-17.164062 7.699219-17.164062 17.167969v78.769531h-91.875c-9.46875 0-17.167969 7.703125-17.167969 17.167969v76.601562c0 9.464844 7.699219 17.167969 17.167969 17.167969zm106.875-189.710938c0-1.195312.972656-2.164062 2.164062-2.164062h91.875v176.875h-94.039062c0-7.558594 0-167.125 0-174.710938zm-109.042969 95.9375c0-1.191406.972656-2.164062 2.167969-2.164062h91.875v80.9375h-91.875c-1.195313 0-2.167969-.972656-2.167969-2.167969zm0 0"/><path d="m62.023438 337.433594c17.824218 0 29.945312-18.398438 22.703124-34.796875l73.542969-64.703125c20.464844 12.375 45.324219-8.976563 35.5-31.234375l73.539063-64.703125c20.671875 12.496094 45.222656-9.226563 35.5-31.234375l73.542968-64.703125c16.472657 9.957031 37.605469-1.988282 37.605469-21.246094 0-13.683594-11.128906-24.8125-24.8125-24.8125-17.824219 0-29.941406 18.398438-22.703125 34.796875l-73.539062 64.703125c-3.738282-2.261719-8.117188-3.5625-12.796875-3.5625-17.828125 0-29.945313 18.398438-22.707031 34.796875l-73.539063 64.703125c-3.738281-2.261719-8.117187-3.5625-12.796875-3.5625-13.679688 0-24.8125 11.128906-24.8125 24.8125 0 3.550781.757812 6.925781 2.109375 9.984375l-73.542969 64.703125c-16.472656-9.957031-37.605468 1.992188-37.605468 21.25 0 13.679688 11.128906 24.808594 24.8125 24.808594zm327.121093-322.433594c5.410157 0 9.8125 4.402344 9.8125 9.8125 0 8.984375-11.152343 13.242188-17.140625 6.5-5.636718-6.445312-1.023437-16.3125 7.328125-16.3125zm-101.71875 99.242188c.070313.082031.089844.097656.089844.097656 5.5 6.347656.957031 16.21875-7.410156 16.21875-5.398438 0-9.8125-4.425782-9.8125-9.808594 0-8.976562 11.136719-13.246094 17.132812-6.507812zm-116.363281 92.632812c5.433594 0 9.808594 4.464844 9.808594 9.8125 0 8.789062-10.890625 13.402344-17.226563 6.402344-5.484375-6.351563-.949219-16.214844 7.417969-16.214844zm-101.628906 99.339844c5.496094 6.347656.957031 16.21875-7.410156 16.21875-5.410157 0-9.8125-4.398438-9.8125-9.8125 0-8.84375 10.984374-13.371094 17.222656-6.40625zm0 0"/></svg>