<svg height="512pt" viewBox="-53 0 512 512.00048" width="512pt" xmlns="http://www.w3.org/2000/svg"><path d="m159.605469 5.726562c-43.589844 0-78.925781 35.339844-78.925781 78.929688v31.914062c5.273437-4.890624 12.777343-7.546874 20.105468-6.570312v-3.933594c0-3.125 2.667969-5.59375 5.761719-5.359375 30.519531 2.191407 61.574219-7.503906 85.054687-22.84375 2.191407-1.433593 5.09375-1.078125 6.878907.835938 20.074219 21.578125 19.953125 20.746093 19.953125 23.5625v7.722656c8.027344-1.203125 15.152344 1.277344 20.101562 5.878906v-31.207031c0-43.589844-35.335937-78.929688-78.929687-78.929688zm0 0" fill="#576574"/><path d="m110.785156 84.65625c0-38.441406 27.488282-70.449219 63.875-77.476562-4.875-.941407-9.902344-1.453126-15.054687-1.453126-43.589844 0-78.925781 35.339844-78.925781 78.929688v31.914062c5.273437-4.890624 12.777343-7.546874 20.105468-6.570312v-3.933594c0-3.125 2.667969-5.59375 5.761719-5.359375 1.414063.101563 2.824219.167969 4.238281.21875zm0 0" fill="#3e4b5a"/><path d="m218.328125 107.125v43.40625c0 .472656-.027344.933594-.035156 1.402344 15.359375 2.328125 27.390625-8.769532 27.390625-22.402344 0-13.65625-12.042969-24.699219-27.355469-22.40625zm0 0" fill="#ffbeab"/><path d="m100.960938 150.585938v-43.5c-13.40625-1.789063-27.425782 8.5-27.425782 22.445312 0 13.648438 12.035156 24.796875 27.457032 22.460938-.007813-.46875-.03125-.9375-.03125-1.40625zm0 0" fill="#ffbeab"/><path d="m238.398438 112.933594c-4.960938-4.558594-12.066407-7.007813-20.070313-5.808594v43.40625c0 .472656-.027344.933594-.035156 1.402344 8.027343 1.21875 15.140625-1.238282 20.105469-5.800782zm0 0" fill="#f7af9f"/><path d="m100.960938 146.222656c-4.582032-4.183594-7.355469-10.148437-7.355469-16.691406 0-6.355469 2.917969-11.945312 7.355469-15.984375v-6.460937c-13.40625-1.789063-27.425782 8.5-27.425782 22.445312 0 13.648438 12.03125 24.796875 27.457032 22.460938-.007813-.46875-.03125-.9375-.03125-1.40625zm0 0" fill="#f7af9f"/><path d="m160.449219 205.664062c-12.753907 0-23.957031-3.5-33.125-9.355468v32.335937l32.980469 40.707031 32.980468-40.707031v-33.210937c-9.34375 6.445312-20.652344 10.230468-32.835937 10.230468zm0 0" fill="#ffbeab"/><path d="m157.433594 205.589844c-11.503906-.507813-21.671875-3.894532-30.109375-9.28125v32.335937l30.109375 37.160157zm0 0" fill="#f7af9f"/><path d="m240.738281 404.339844c-9.0625-12.292969-14.425781-27.484375-14.425781-43.929688 0-40.9375 33.1875-74.125 74.125-74.125 2.515625 0 5 .128906 7.449219.375-9.03125-19.457031-27.351563-27-27.351563-27l-87.25-33.789062-32.980468 40.710937-32.980469-40.710937-87.15625 33.789062s-32.269531 13.265625-32.269531 50.054688v144.316406c0 5.9375 4.8125 10.753906 10.753906 10.753906h187.992187zm0 0" fill="#e4eaf8"/><path d="m38.007812 454.03125c0-26.890625 0-126.085938 0-159.371094 0-20.703125 10.21875-33.957031 19.15625-41.589844l-16.996093 6.589844s-32.269531 13.265625-32.269531 50.054688v144.316406c0 5.9375 4.8125 10.753906 10.753906 10.753906h30.109375c-5.941407 0-10.753907-4.816406-10.753907-10.753906zm0 0" fill="#c7d2e5"/><path d="m198.480469 75.929688c-1.78125-1.914063-4.6875-2.269532-6.878907-.839844-23.480468 15.339844-54.535156 25.039062-85.054687 22.847656-3.09375-.238281-5.761719 2.234375-5.761719 5.359375v47.152344c0 30.304687 23.742188 57.984375 59.664063 57.984375 31.972656 0 57.984375-26.011719 57.984375-57.984375v-50.957031c0-2.820313.121094-1.984376-19.953125-23.5625zm0 0" fill="#ffcdbf"/><path d="m130.890625 150.449219v-53.183594c-8.050781.984375-16.214844 1.253906-24.34375.671875-3.09375-.238281-5.761719 2.234375-5.761719 5.359375v47.152344c0 30.304687 23.742188 57.984375 59.664063 57.984375 5.023437 0 9.902343-.644532 14.558593-1.851563-27.0625-6.664062-44.117187-30.453125-44.117187-56.132812zm0 0" fill="#ffbeab"/><path d="m200.128906 287.5 24.660156-49.425781-31.503906-12.203125-32.980468 40.710937 32.15625 22.835938c2.601562 1.847656 6.242187.9375 7.667968-1.917969zm0 0" fill="#c7d2e5"/><path d="m120.53125 287.5-24.664062-49.425781 31.503906-12.203125 32.980468 40.710937-32.15625 22.835938c-2.601562 1.847656-6.238281.9375-7.664062-1.917969zm0 0" fill="#c7d2e5"/><path d="m193.847656 424.847656-21.164062-125.292968h-24.707032l-21.167968 125.292968c-.222656 1.613282.25 3.25 1.261718 4.363282l29.222657 32.210937c1.628906 1.792969 4.445312 1.792969 6.070312 0l29.222657-32.210937c1.011718-1.109376 1.484374-2.75 1.261718-4.363282zm0 0" fill="#ee5253"/><path d="m160.347656 266.609375v-.027344l-.019531.011719-.019531-.011719v.027344l-23.386719 16.609375 11.054687 16.636719h24.703126l11.054687-16.636719zm0 0" fill="#ee5253"/><path d="m151.476562 429.210938c-1.007812-1.113282-1.480468-2.75-1.261718-4.363282l21.167968-125.292968h-23.40625l-21.167968 125.292968c-.222656 1.613282.25 3.25 1.261718 4.363282l29.222657 32.210937c1.628906 1.792969 4.445312 1.792969 6.070312 0l8.667969-9.554687zm0 0" fill="#d83941"/><path d="m164.023438 280.59375 8.007812-5.6875-11.683594-8.296875v-.027344l-.019531.011719-.019531-.011719v.027344l-23.386719 16.609375 11.054687 16.636719h23.40625l-8.546874-12.863281c-1.398438-2.101563-.871094-4.933594 1.1875-6.398438zm0 0" fill="#d83941"/><path d="m183.382812 363.089844-51.222656 30.214844-5.351562 31.613281c-.222656 1.609375.25 3.246093 1.261718 4.355469l4.875 5.367187 56.871094-33.550781zm0 0" fill="#ff6b6b"/><path d="m132.160156 393.304688-5.351562 31.613281c-.027344.195312-.042969.394531-.050782.589843-.027343 1.390626.441407 2.742188 1.3125 3.703126l4.90625 5.410156 17.3125-10.214844 7.84375-46.421875zm0 0" fill="#ee5253"/><path d="m176.671875 323.4375-3.992187-23.582031h-24.703126l-7.617187 45.003906zm0 0" fill="#ff6b6b"/><path d="m160.347656 299.855469h-12.371094l-7.617187 45.003906 25.957031-15.3125 5.015625-29.691406zm0 0" fill="#ee5253"/><path d="m398 470.925781-39.082031-69.289062c-13.050781 17.542969-33.339844 29.199219-56.339844 30.351562l40.179687 71.234375c1.007813 1.785156 3.578126 1.648438 4.398438-.230468l13.316406-30.5c.4375-1 1.460938-1.597657 2.527344-1.476563l32.589844 3.660156c2.007812.226563 3.417968-1.96875 2.410156-3.75zm0 0" fill="#ff6b6b"/><path d="m349.867188 429.566406c7.109374-1.90625 13.808593-4.839844 19.933593-8.640625l-10.882812-19.289062c-13.050781 17.542969-33.335938 29.199219-56.339844 30.351562l40.179687 71.234375c1.007813 1.785156 3.578126 1.648438 4.398438-.230468l11.917969-27.289063-16.375-29.027344c-3.765625-6.675781-.238281-15.128906 7.167969-17.109375zm0 0" fill="#ee5253"/><path d="m238.703125 401.636719-39.082031 69.289062c-1.007813 1.78125.402344 3.976563 2.410156 3.75l32.585938-3.660156c1.070312-.121094 2.09375.476563 2.527343 1.476563l13.320313 30.5c.820312 1.882812 3.390625 2.015624 4.398437.234374l40.179688-71.234374c-23-1.15625-43.289063-12.8125-56.339844-30.355469zm0 0" fill="#ff6b6b"/><path d="m229.453125 470.925781 28.734375-50.941406c-7.511719-4.902344-14.113281-11.125-19.484375-18.347656l-39.082031 69.289062c-1.007813 1.78125.402344 3.976563 2.410156 3.75l27.152344-3.050781c.050781-.234375.140625-.472656.269531-.699219zm0 0" fill="#ee5253"/><path d="m374.167969 358.015625c0 41.617187-33.738281 75.359375-75.359375 75.359375-41.617188 0-75.355469-33.742188-75.355469-75.359375s33.738281-75.355469 75.355469-75.355469c41.621094 0 75.359375 33.738282 75.359375 75.355469zm0 0" fill="#feca57"/><path d="m253.285156 358.015625c0-36.511719 25.96875-66.949219 60.441406-73.875-4.820312-.96875-9.808593-1.480469-14.917968-1.480469-41.617188 0-75.355469 33.738282-75.355469 75.355469s33.738281 75.359375 75.355469 75.359375c5.109375 0 10.097656-.515625 14.917968-1.484375-34.472656-6.921875-60.441406-37.363281-60.441406-73.875zm0 0" fill="#f4b537"/><path d="m333.488281 351.535156c1.8125-1.765625.8125-4.839844-1.6875-5.203125l-19.320312-2.804687c-.992188-.144532-1.851563-.769532-2.296875-1.667969l-8.640625-17.507813c-1.117188-2.265624-4.347657-2.265624-5.46875 0l-8.640625 17.507813c-.441406.898437-1.300782 1.523437-2.292969 1.667969l-19.320313 2.804687c-2.5.363281-3.5 3.4375-1.691406 5.203125l13.980469 13.628906c.71875.699219 1.046875 1.707032.875 2.695313l-3.296875 19.242187c-.429688 2.492188 2.1875 4.390626 4.421875 3.214844l17.28125-9.085937c.886719-.464844 1.949219-.464844 2.835937 0l17.28125 9.085937c2.238282 1.175782 4.851563-.722656 4.425782-3.214844l-3.300782-19.242187c-.171874-.988281.160157-1.996094.875-2.695313zm0 0" fill="#f4b537"/><path d="m302.5625 363.386719c.171875-.988281-.15625-2-.875-2.699219l-13.980469-13.628906c-1.808593-1.761719-.808593-4.835938 1.691407-5.199219l19.320312-2.808594c.023438-.003906.046875-.015625.070312-.019531l-7.242187-14.679688c-1.121094-2.265624-4.351563-2.265624-5.46875 0l-8.640625 17.507813c-.445312.898437-1.304688 1.523437-2.296875 1.667969l-19.320313 2.804687c-2.5.363281-3.5 3.4375-1.6875 5.203125l13.976563 13.625c.71875.703125 1.046875 1.710938.878906 2.699219l-3.300781 19.242187c-.425781 2.492188 2.1875 4.390626 4.425781 3.214844l17.277344-9.085937c.671875-.351563 1.4375-.4375 2.15625-.257813zm0 0" fill="#e59d1f"/><path d="m332.511719 338.875-16.988281-2.46875-7.597657-15.398438c-3.878906-7.855468-15.09375-7.851562-18.96875 0l-7.597656 15.398438-16.992187 2.46875c-8.667969 1.257812-12.132813 11.921875-5.859376 18.039062l12.292969 11.980469-2.902343 16.921875c-1.480469 8.636719 7.59375 15.226563 15.347656 11.148438l15.195312-7.988282 15.195313 7.988282c7.75 4.078125 16.828125-2.507813 15.34375-11.148438l-2.898438-16.917968 12.289063-11.984376c6.277344-6.113281 2.8125-16.78125-5.859375-18.039062zm-18.621094 20.878906c-2.496094 2.429688-3.636719 5.929688-3.046875 9.367188l1.765625 10.296875-9.25-4.863281c-3.078125-1.617188-6.757813-1.617188-9.84375 0l-9.246094 4.863281 1.765625-10.292969c.589844-3.433594-.546875-6.933594-3.039062-9.367188l-7.484375-7.292968 10.339843-1.5c3.445313-.5 6.421876-2.664063 7.964844-5.789063l4.625-9.371093 4.625 9.371093c1.539063 3.125 4.515625 5.285157 7.960938 5.785157l10.34375 1.503906zm0 0"/><path d="m37.078125 252.628906c-.046875.019532-.09375.039063-.140625.058594-1.511719.617188-36.9375 15.660156-36.9375 57.015625v144.316406c0 10.082031 8.199219 18.28125 18.28125 18.28125h173.140625c-.09375 2.050781.429687 4.117188 1.605469 5.917969 2.074218 3.164062 5.703125 4.875 9.460937 4.457031l28.914063-3.1875 11.8125 26.574219c3.324218 7.480469 13.730468 8.011719 17.804687.921875l37.421875-65.160156 37.417969 65.160156c4.078125 7.097656 14.488281 6.546875 17.804687-.917969l11.816407-26.578125 28.910156 3.1875c8.101563.914063 13.84375-7.8125 9.765625-14.914062l-36.707031-63.914063c5.648437-8.496094 9.734375-18.003906 11.933593-28.019531.890626-4.0625-1.679687-8.074219-5.742187-8.964844-4.054687-.886719-8.074219 1.679688-8.964844 5.738281-8.957031 40.847657-53.539062 64.601563-92.832031 47.796876-24.441406-10.460938-41.234375-34.667969-41.234375-62.394532 0-39.585937 34.082031-71.292968 74.238281-67.519531 28.199219 2.660156 52.074219 22.664063 59.265625 50.488281 1.039063 4.023438 5.148438 6.441406 9.171875 5.40625 4.023438-1.042968 6.445313-5.148437 5.402344-9.171875-8.457031-32.71875-35.785156-56.589843-68.53125-61.242187-10.710938-16.359375-26.417969-22.984375-27.125-23.273438-.046875-.019531-.097656-.039062-.148438-.0625l-82.441406-31.925781v-18.722656c13.03125-10.226563 22.097656-25.265625 24.5-42.421875 16.050782-1.371094 27.894532-14.503906 27.894532-30.035156 0-7.191407-2.5625-14.0625-7.144532-19.441407v-25.4375c0-40.222656-27.308594-74.804687-66.40625-84.09375-4.050781-.964843-8.101562 1.539063-9.0625 5.582031-.964844 4.042969 1.535156 8.101563 5.582032 9.0625 32.285156 7.671876 54.832031 36.230469 54.832031 69.449219v15.855469c-1.640625-.449219-3.324219-.769531-5.046875-.949219v-.125c0-6.21875-1.148438-6.257812-21.96875-28.636719-4.289063-4.609374-11.230469-5.457031-16.503906-2.015624-24.351563 15.914062-53.714844 23.558593-80.367188 21.644531-3.652344-.28125-7.550781 1.222656-9.730469 3.402343 0 0-2.578125 2.234376-3.636719 5.929688-1.59375.203125-3.703124.636719-5.546874 1.210938v-16.316407c0-33.355469 23.625-62.695312 56.179687-69.761719 4.0625-.878906 6.640625-4.886718 5.757813-8.949218-.882813-4.066406-4.890626-6.644532-8.953126-5.757813-39.089843 8.484375-68.039062 43.292969-68.039062 84.46875v26.105469c-4.628906 5.324219-7.144531 11.851562-7.144531 18.769531 0 15.527344 11.835937 28.675781 27.917969 30.039063 2.425781 16.683594 11.441406 32.773437 25.871093 43.46875v17.675781zm320.207031 163.746094 28.855469 50.242188-22.679687-2.5c-4.34375-.492188-8.460938 1.878906-10.234376 5.875l-9.273437 20.855468-29.574219-51.496094c16.277344-3.171874 31.203125-11.160156 42.90625-22.976562zm-131.695312-301.574219c7.507812 1.554688 12.195312 7.878907 12.195312 14.71875 0 7.058594-4.894531 13.234375-12.195312 14.742188zm-132.703125 29.460938c-7.289063-1.5-12.195313-7.664063-12.195313-14.738281 0-6.847657 5.5-12.472657 12.195313-14.324219zm-22.910157 312.984375v-134.898438c0-4.160156-3.367187-7.527344-7.527343-7.527344-4.15625 0-7.527344 3.367188-7.527344 7.527344v134.898438h-36.640625c-1.777344 0-3.226562-1.445313-3.226562-3.226563v-144.316406c0-30.757813 25.941406-42.378906 27.558593-43.074219l49.207031-19.078125 21.605469 43.296875c3.492188 7 12.40625 9.207032 18.757813 4.695313l2.394531-1.703125 5.109375 7.6875c-.03125.175781-20.679688 122.175781-20.707031 122.347656-.519531 3.792969.648437 7.699219 3.148437 10.449219 4.3125 4.742187 16.660156 18.328125 20.835938 22.921875zm89.980469-181.429688 13.097657 9.304688-4.78125 7.195312h-16.632813l-4.78125-7.195312zm0-21.234375-25.476562-31.445312v-11.816407c8.191406 3.167969 17.039062 4.628907 25.597656 4.628907 8.832031 0 17.570313-1.832031 25.308594-5.089844v12.332031zm8.058594 64.992188-17.902344 10.558593 3.851563-22.761718h11.984375zm2.691406 15.890625 4.019531 23.761718-32.8125 19.355469 4.910157-29.03125zm6.710938 39.652344 3.742187 22.109374-47.105468 27.789063 4.570312-27.015625zm-33.050781 61.292968 39.480468-23.289062 2.019532 11.933594-25.910157 28.507812zm95.226562-20.035156c11.828125 11.9375 26.871094 19.851562 42.90625 22.976562l-29.574219 51.496094-9.269531-20.851562c-1.765625-3.96875-5.855469-6.359375-10.234375-5.878906l-22.683594 2.503906zm37.742188-149.75c.554687.242188 6.617187 3.003906 12.890624 8.898438-62.519531 6.105468-94.933593 77.234374-60.816406 128.351562l-30.648437 53.371094h-21.808594l20.832031-22.921875c2.496094-2.742188 3.671875-6.644531 3.148438-10.445313-.007813-.074218-.019532-.152344-.035156-.230468l-20.667969-122.121094 5.105469-7.6875 2.398437 1.703125c6.320313 4.492187 15.246094 2.339843 18.757813-4.695313l21.601562-43.292968zm-63.34375-24.53125-19.757813 39.601562c-.773437-.546874-6.847656-4.863281-23.402344-16.621093l24.480469-30.214844zm-106.050782-91.65625v-44.863281c29.554688 1.589843 60.574219-7.125 85.882813-23.210938 9.523437 10.222657 14.863281 15.789063 16.710937 18.003907v50.070312c0 27.820312-22.679687 50.457031-50.457031 50.457031-31.457031 0-52.136719-24.464843-52.136719-50.457031zm16.628906 84.433594 24.484376 30.222656c-10.871094 7.722656-22.1875 15.761719-23.375 16.601562l-19.757813-39.601562zm0 0"/></svg>