<svg height="512pt" viewBox="0 -16 512 511" width="512pt" xmlns="http://www.w3.org/2000/svg"><g fill="#ff6b6b"><path d="m176.648438 351.847656c0 11.867188-9.621094 21.488282-21.488282 21.488282-11.867187 0-21.488281-9.621094-21.488281-21.488282 0-11.867187 9.621094-21.488281 21.488281-21.488281 11.867188 0 21.488282 9.621094 21.488282 21.488281zm0 0"/><path d="m50.84375 451.375c0 11.867188-9.621094 21.488281-21.488281 21.488281-11.867188 0-21.484375-9.621093-21.484375-21.488281s9.617187-21.488281 21.484375-21.488281c11.867187 0 21.488281 9.621093 21.488281 21.488281zm0 0"/><path d="m302.449219 451.375c0 11.867188-9.621094 21.488281-21.488281 21.488281-11.867188 0-21.484376-9.621093-21.484376-21.488281s9.617188-21.488281 21.484376-21.488281c11.867187 0 21.488281 9.621093 21.488281 21.488281zm0 0"/><path d="m428.25 269.984375c0 11.867187-9.617188 21.488281-21.484375 21.488281s-21.488281-9.621094-21.488281-21.488281c0-11.863281 9.621094-21.484375 21.488281-21.484375s21.484375 9.621094 21.484375 21.484375zm0 0"/></g><path d="m158.136719 351.847656c0-7.320312 3.664062-13.773437 9.253906-17.65625-3.472656-2.410156-7.683594-3.832031-12.230469-3.832031-11.867187 0-21.488281 9.621094-21.488281 21.488281 0 11.867188 9.621094 21.488282 21.488281 21.488282 4.546875 0 8.757813-1.421876 12.230469-3.832032-5.589844-3.882812-9.253906-10.335937-9.253906-17.65625zm0 0" fill="#ee5253"/><path d="m32.332031 451.375c0-7.320312 3.667969-13.777344 9.257813-17.65625-3.472656-2.410156-7.683594-3.832031-12.230469-3.832031-11.871094 0-21.488281 9.621093-21.488281 21.488281s9.617187 21.488281 21.488281 21.488281c4.546875 0 8.757813-1.421875 12.230469-3.832031-5.589844-3.882812-9.257813-10.335938-9.257813-17.65625zm0 0" fill="#ee5253"/><path d="m283.9375 451.375c0-7.320312 3.667969-13.777344 9.257812-17.65625-3.476562-2.410156-7.683593-3.832031-12.234374-3.832031-11.867188 0-21.488282 9.621093-21.488282 21.488281s9.621094 21.488281 21.488282 21.488281c4.550781 0 8.757812-1.421875 12.234374-3.832031-5.589843-3.882812-9.257812-10.335938-9.257812-17.65625zm0 0" fill="#ee5253"/><path d="m409.742188 269.984375c0-7.316406 3.664062-13.773437 9.253906-17.652344-3.472656-2.410156-7.683594-3.832031-12.230469-3.832031-11.867187 0-21.488281 9.621094-21.488281 21.484375 0 11.871094 9.621094 21.488281 21.488281 21.488281 4.546875 0 8.757813-1.421875 12.230469-3.832031-5.589844-3.878906-9.253906-10.335937-9.253906-17.65625zm0 0" fill="#ee5253"/><path d="m406.765625 161.816406c-6.769531 0-13.289063-1.074218-19.402344-3.050781l-10.085937 44.628906h58.972656l-10.085938-44.628906c-6.109374 1.976563-12.628906 3.050781-19.398437 3.050781zm0 0" fill="#f4b537"/><path d="m409.667969 161.746094c-.964844.042968-1.929688.070312-2.902344.070312-6.769531 0-13.289063-1.074218-19.402344-3.054687l-10.085937 44.632812h22.976562zm0 0" fill="#e59d1f"/><path d="m452.714844 212.335938v-2.136719c0-5.058594-4.140625-9.199219-9.199219-9.199219h-73.503906c-5.058594 0-9.199219 4.140625-9.199219 9.199219v2.136719c0 5.0625 4.140625 9.203124 9.199219 9.203124h73.503906c5.058594 0 9.199219-4.140624 9.199219-9.203124zm0 0" fill="#feca57"/><path d="m343.859375 26.15625v74.355469c0 34.742187 28.164063 62.902343 62.90625 62.902343 34.738281 0 62.902344-28.160156 62.902344-62.902343v-74.355469zm0 0" fill="#feca57"/><path d="m367.003906 100.511719v-74.355469h-23.144531v74.355469c0 34.742187 28.164063 62.902343 62.90625 62.902343 3.953125 0 7.820313-.382812 11.570313-1.082031-29.210938-5.433593-51.332032-31.035156-51.332032-61.820312zm0 0" fill="#f4b537"/><path d="m479.757812 8.011719h-145.984374c-4.5 0-8.179688 3.683593-8.179688 8.179687v4.179688c0 4.5 3.679688 8.179687 8.179688 8.179687h145.984374c4.496094 0 8.179688-3.679687 8.179688-8.179687v-4.179688c-.003906-4.496094-3.683594-8.179687-8.179688-8.179687zm0 0" fill="#f4b537"/><path d="m443.515625 207.5625h-73.503906c-2.808594 0-5.332031-1.277344-7.023438-3.28125-1.351562 1.605469-2.175781 3.667969-2.175781 5.917969v2.136719c0 5.0625 4.140625 9.203124 9.199219 9.203124h73.503906c5.0625 0 9.199219-4.140624 9.199219-9.203124v-2.136719c0-2.25-.820313-4.3125-2.175782-5.917969-1.691406 2.003906-4.214843 3.28125-7.023437 3.28125zm0 0" fill="#f4b537"/><path d="m479.757812 14.574219h-145.984374c-2.664063 0-5.03125-1.292969-6.527344-3.28125-1.03125 1.371093-1.652344 3.066406-1.652344 4.898437v4.179688c0 4.5 3.679688 8.179687 8.179688 8.179687h145.984374c4.496094 0 8.179688-3.679687 8.179688-8.179687v-4.179688c0-1.835937-.621094-3.527344-1.652344-4.898437-1.496094 1.988281-3.867187 3.28125-6.527344 3.28125zm0 0" fill="#e59d1f"/><path d="m406.394531 240.988281c-15.984375 0-28.988281 13.003907-28.988281 28.984375 0 7.65625 2.988281 14.625 7.855469 19.8125l-96.300781 133.824219c-8.625-2.605469-18.160157-1.09375-25.664063 4.503906l-81.898437-64.789062c1.53125-3.527344 2.378906-7.410157 2.378906-11.488281 0-15.984376-13.003906-28.988282-28.984375-28.988282-15.984375 0-28.988281 13.003906-28.988281 28.988282 0 4.078124.851562 7.960937 2.378906 11.484374l-81.898438 64.792969c-19.066406-14.21875-46.285156-.507812-46.285156 23.246094 0 15.984375 13.003906 28.988281 28.988281 28.988281 20.75 0 34.898438-21.34375 26.609375-40.472656l81.894532-64.792969c10.171874 7.585938 24.242187 7.726563 34.59375 0l81.898437 64.792969c-1.527344 3.523438-2.378906 7.40625-2.378906 11.484375 0 15.984375 13.003906 28.988281 28.988281 28.988281s28.988281-13.003906 28.988281-28.988281c0-7.65625-2.988281-14.621094-7.855469-19.808594l96.300782-133.824219c18.652344 5.632813 37.355468-8.4375 37.355468-27.753906 0-15.980468-13.003906-28.984375-28.988281-28.984375zm-377.40625 224.359375c-7.714843 0-13.988281-6.273437-13.988281-13.984375 0-7.714843 6.273438-13.988281 13.988281-13.988281 7.710938 0 13.984375 6.273438 13.984375 13.988281 0 7.710938-6.273437 13.984375-13.984375 13.984375zm125.800781-99.527344c-7.710937 0-13.984374-6.273437-13.984374-13.984374 0-7.714844 6.273437-13.988282 13.984374-13.988282 7.714844 0 13.988282 6.273438 13.988282 13.988282 0 7.710937-6.273438 13.984374-13.988282 13.984374zm125.804688 99.527344c-7.714844 0-13.988281-6.273437-13.988281-13.984375 0-7.714843 6.273437-13.988281 13.988281-13.988281 7.710938 0 13.984375 6.273438 13.984375 13.988281 0 7.710938-6.273437 13.984375-13.984375 13.984375zm125.800781-181.386718c-7.710937 0-13.984375-6.273438-13.984375-13.984376 0-7.714843 6.273438-13.988281 13.984375-13.988281 7.714844 0 13.988281 6.273438 13.988281 13.988281 0 7.710938-6.273437 13.984376-13.988281 13.984376zm0 0"/><path d="m496.902344 43.03125h-20.101563v-6.992188h2.335938c8.785156 0 15.929687-7.144531 15.929687-15.929687v-3.679687c0-8.785157-7.144531-15.929688-15.929687-15.929688h-145.484375c-8.78125 0-15.929688 7.144531-15.929688 15.929688v3.679687c0 8.785156 7.148438 15.929687 15.929688 15.929687h2.339844v6.992188h-20.101563c-8.324219 0-15.097656 6.769531-15.097656 15.097656v37.945313c0 24.375 18.605469 48.410156 50.6875 48.410156 7.0625 8.800781 16.1875 15.871094 26.640625 20.472656l-7.078125 28.53125h-1.398438c-9.210937 0-16.699219 7.492188-16.699219 16.699219v2.136719c0 9.210937 7.488282 16.703125 16.699219 16.703125h19.25c4.144531 0 7.5-3.359375 7.5-7.503906 0-4.140626-3.355469-7.5-7.5-7.5h-19.25c-.921875 0-1.699219-.777344-1.699219-1.699219v-2.136719c0-.921875.777344-1.699219 1.699219-1.699219h73.503907c.917968 0 1.699218.777344 1.699218 1.699219v2.136719c0 .921875-.78125 1.699219-1.699218 1.699219h-19.25c-4.144532 0-7.503907 3.359374-7.503907 7.5 0 4.144531 3.359375 7.503906 7.503907 7.503906h19.25c9.207031 0 16.699218-7.492188 16.699218-16.703125v-2.136719c0-9.207031-7.492187-16.699219-16.699218-16.699219h-1.398438l-7.074219-28.507812c10.125-4.441407 19.296875-11.300781 26.667969-20.496094 31.453125 0 50.65625-23.496094 50.65625-48.410156v-37.945313c0-8.328125-6.773438-15.097656-15.097656-15.097656zm-181.109375 53.042969v-37.945313c0-.054687.042969-.097656.097656-.097656h20.101563v42.46875c0 10.011719 2.113281 19.535156 5.898437 28.167969-14.914063-3.34375-26.097656-16.683594-26.097656-32.59375zm17.859375-75.035157c-.496094 0-.925782-.4375-.925782-.929687v-3.683594c0-.492187.429688-.925781.925782-.925781h145.488281c.492187 0 .925781.433594.925781.925781v3.683594c0 .492187-.433594.929687-.925781.929687-7.054687 0-141.324219 0-145.488281 0zm52.847656 172.449219 5.949219-23.972656c8.886719 1.789063 18.53125 1.890625 27.894531 0l5.949219 23.972656zm110.5-97.414062c0 15.902343-11.171875 29.234375-26.074219 32.585937 3-6.871094 4.902344-14.234375 5.578125-21.839844.367188-4.128906-2.679687-7.769531-6.804687-8.136718-4.117188-.359375-7.769531 2.675781-8.136719 6.804687-1.519531 17.046875-10.046875 27.03125-10.570312 28.035157-30.703126 41.632812-100 21.179687-100-33.023438v-64.460938h110.804687v35.109376c0 4.144531 3.359375 7.503906 7.5 7.503906 4.144531 0 7.503906-3.359375 7.503906-7.503906v-13.117188h20.101563c.054687 0 .097656.042969.097656.097656zm0 0"/></svg>