<svg height="512pt" viewBox="-22 0 512 512.001" width="512pt" xmlns="http://www.w3.org/2000/svg"><path d="m32.949219 321.609375c-4.886719 0-8.851563 3.964844-8.851563 8.851563v174.050781h144.203125v-182.902344zm0 0" fill="#e59d1f"/><path d="m62.953125 321.609375h-30.003906c-4.886719 0-8.851563 3.964844-8.851563 8.851563v174.050781h30v-174.050781c0-4.890626 3.964844-8.851563 8.855469-8.851563zm0 0" fill="#dd8e10"/><path d="m438.855469 376.433594h-135.347657v128.078125h144.203126v-119.226563c0-4.886718-3.964844-8.851562-8.855469-8.851562zm0 0" fill="#ce7132"/><path d="m303.507812 376.433594h30v128.078125h-30zm0 0" fill="#b75f23"/><path d="m297.652344 248.355469h-123.496094c-4.890625 0-8.855469 3.960937-8.855469 8.851562v247.304688h141.207031v-247.304688c0-4.890625-3.964843-8.851562-8.855468-8.851562zm0 0" fill="#feca57"/><path d="m204.15625 248.355469h-30c-4.890625 0-8.855469 3.960937-8.855469 8.851562v247.304688h30.003907v-247.304688c0-4.890625 3.960937-8.851562 8.851562-8.851562zm0 0" fill="#f4b537"/><path d="m235.902344 180.992188c-7.636719 0-14.988282-1.210938-21.882813-3.441407l-11.375 50.339844h66.519531l-11.375-50.339844c-6.894531 2.230469-14.25 3.441407-21.886718 3.441407zm0 0" fill="#f4b537"/><path d="m239.175781 180.910156c-1.085937.050782-2.175781.082032-3.273437.082032-7.636719 0-14.988282-1.210938-21.882813-3.441407l-11.375 50.339844h25.917969zm0 0" fill="#e59d1f"/><path d="m287.734375 237.976562v-2.410156c0-5.707031-4.671875-10.375-10.378906-10.375h-82.90625c-5.707031 0-10.375 4.667969-10.375 10.375v2.410156c0 5.707032 4.667969 10.378907 10.375 10.378907h82.90625c5.707031 0 10.378906-4.671875 10.378906-10.378907zm0 0" fill="#feca57"/><path d="m164.953125 27.976562v83.867188c0 39.183594 31.765625 70.953125 70.949219 70.953125 39.1875 0 70.953125-31.769531 70.953125-70.953125v-83.867188zm0 0" fill="#feca57"/><g fill="#f4b537"><path d="m191.058594 111.84375v-83.867188h-26.105469v83.867188c0 39.183594 31.765625 70.953125 70.949219 70.953125 4.460937 0 8.820312-.433594 13.054687-1.222656-32.949219-6.128907-57.898437-35.007813-57.898437-69.730469zm0 0"/><path d="m318.230469 7.511719h-164.65625c-5.074219 0-9.226563 4.152343-9.226563 9.226562v4.710938c0 5.074219 4.152344 9.226562 9.226563 9.226562h164.65625c5.074219 0 9.226562-4.152343 9.226562-9.226562v-4.710938c0-5.074219-4.152343-9.226562-9.226562-9.226562zm0 0"/><path d="m277.355469 232.589844h-82.90625c-3.167969 0-6.015625-1.441406-7.921875-3.699219-1.527344 1.808594-2.453125 4.136719-2.453125 6.675781v2.410156c0 5.707032 4.667969 10.375 10.375 10.375h82.90625c5.710937 0 10.378906-4.667968 10.378906-10.375v-2.410156c0-2.539062-.925781-4.867187-2.453125-6.675781-1.910156 2.257813-4.753906 3.699219-7.925781 3.699219zm0 0"/></g><path d="m318.230469 14.914062h-164.65625c-3.003907 0-5.675781-1.460937-7.363281-3.699218-1.164063 1.542968-1.863282 3.453125-1.863282 5.523437v4.710938c0 5.074219 4.152344 9.226562 9.226563 9.226562h164.65625c5.074219 0 9.226562-4.152343 9.226562-9.226562v-4.710938c0-2.070312-.699219-3.980469-1.863281-5.523437-1.6875 2.238281-4.359375 3.699218-7.363281 3.699218zm0 0" fill="#e59d1f"/><path d="m460.433594 497h-5.59375v-39.039062c0-4.140626-3.355469-7.5-7.5-7.5-4.140625 0-7.5 3.359374-7.5 7.5v39.039062h-126.203125v-113.078125h124.851562c.746094 0 1.351563.605469 1.351563 1.351563v37.6875c0 4.140624 3.359375 7.5 7.5 7.5 4.144531 0 7.503906-3.359376 7.503906-7.5v-37.6875c0-9.019532-7.339844-16.355469-16.355469-16.355469h-124.851562v-111.722657c0-9.019531-7.335938-16.355468-16.355469-16.355468h-2.671875c.152344-.9375.253906-1.894532.253906-2.875v-2.410156c0-9.859376-8.019531-17.878907-17.878906-17.878907h-2.324219l-8.359375-33.683593c12.101563-5.179688 22.632813-13.328126 30.707031-23.507813 35.914063 0 56.679688-26.398437 56.679688-53.644531v-42.800782c0-8.859374-7.207031-16.070312-16.070312-16.070312h-23.632813v-9.804688h2.761719c9.839844 0 17.84375-8.003906 17.84375-17.84375v-2.476562c0-9.839844-8.003906-17.84375-17.84375-17.84375h-65.277344c-4.144531 0-7.5 3.355469-7.5 7.5s3.355469 7.5 7.5 7.5h65.277344c1.539062 0 2.84375 1.304688 2.84375 2.84375v2.476562c0 1.542969-1.304688 2.84375-2.84375 2.84375-6.742188 0-151.730469 0-162.425782 0-1.539062 0-2.839843-1.300781-2.839843-2.84375v-2.476562c0-1.539062 1.300781-2.84375 2.839843-2.84375h62.144532c4.144531 0 7.503906-3.355469 7.503906-7.5s-3.359375-7.5-7.503906-7.5h-62.144532c-9.839843 0-17.84375 8.003906-17.84375 17.84375v2.476562c0 9.839844 8.003907 17.84375 17.84375 17.84375h2.761719v9.804688h-23.632812c-8.859375 0-16.070313 7.210938-16.070313 16.070312v42.800782c0 27.078125 20.546875 53.644531 56.679688 53.644531 8.074218 10.183594 18.605468 18.328125 30.710937 23.507813l-8.359375 33.683593h-2.328125c-9.859375 0-17.878906 8.023438-17.878906 17.878907v2.410156c0 .980468.101563 1.9375.253906 2.875h-2.671875c-9.019531 0-16.355468 7.339844-16.355468 16.355468v56.902344h-124.847657c-9.019531 0-16.355469 7.335938-16.355469 16.351563v166.550781h-8.726562c-4.140625 0-7.5 3.355469-7.5 7.5s3.359375 7.5 7.5 7.5h452.929688c4.144531 0 7.503906-3.355469 7.503906-7.5s-3.359375-7.5-7.5-7.5zm-146.449219-385.167969v-48.859375h23.632813c.589843 0 1.070312.476563 1.070312 1.066406v42.800782c0 19.058594-13.867188 34.921875-32.039062 38.066406 4.695312-10.058594 7.335937-21.261719 7.335937-33.074219zm-181.605469-4.992187v-42.800782c0-.589843.480469-1.066406 1.070313-1.066406h23.632812v48.859375c0 11.8125 2.640625 23.015625 7.335938 33.074219-18.167969-3.144531-32.039063-19.007812-32.039063-38.066406zm25.054688 390.160156h-126.207032v-166.550781c0-.746094.609376-1.351563 1.355469-1.351563h124.851563zm14.648437-385.167969v-73.667969h126.902344v73.667969c0 40.332031-37.167969 70.328125-76.5 62.09375-28.949219-6.074219-50.402344-31.773437-50.402344-62.09375zm87.121094 105.84375h-47.339844l7.230469-29.125c10.597656 2.265625 22.042969 2.328125 32.882812 0zm-68 17.878907c0-1.558594 1.316406-2.878907 2.878906-2.878907h82.902344c1.5625 0 2.878906 1.320313 2.878906 2.878907v2.410156c0 1.558594-1.316406 2.875-2.878906 2.875h-82.902344c-1.5625 0-2.878906-1.316406-2.878906-2.875zm107.433594 261.445312h-126.203125c0-4.824219 0-234.363281 0-239.804688 0-.746093.605468-1.355468 1.351562-1.355468h123.496094c.746094 0 1.355469.609375 1.355469 1.355468zm0 0"/><path d="m209.1875 281.195312c-1.089844 0-2.082031.199219-2.875.691407l-13.089844 7.933593c-1.980468 1.191407-2.875 3.175782-2.875 5.257813 0 3.070313 1.984375 6.144531 4.859375 6.144531.691407 0 1.585938-.195312 2.476563-.792968l2.878906-1.785157v50.472657c0 3.175781 3.867188 4.761718 7.730469 4.761718 3.867187 0 7.734375-1.585937 7.734375-4.761718v-63.0625c.003906-2.976563-3.664063-4.859376-6.839844-4.859376zm0 0"/><path d="m276.296875 305.339844c4.144531 0 7.5-3.355469 7.5-7.5 0-4.132813-3.34375-7.484375-7.472656-7.5l.210937-1.585938c.546875-4.105468-2.335937-7.878906-6.441406-8.425781-4.09375-.554687-7.878906 2.335937-8.429688 6.441406l-.476562 3.570313h-7.902344l.210938-1.585938c.546875-4.105468-2.335938-7.878906-6.441406-8.429687-4.109376-.550781-7.878907 2.339843-8.429688 6.445312l-.472656 3.566407h-5.046875c-4.144531 0-7.503907 3.359374-7.503907 7.503906 0 4.140625 3.359376 7.5 7.503907 7.5h3.046875l-1.074219 8.035156h-1.972656c-4.144531 0-7.5 3.355469-7.5 7.5 0 4.132812 3.34375 7.484375 7.472656 7.5l-.210937 1.585938c-.546876 4.105468 2.339843 7.878906 6.445312 8.425781.335938.046875.667969.066406 1 .066406 3.699219 0 6.921875-2.738281 7.425781-6.507813l.476563-3.570312h7.902344l-.214844 1.585938c-.546875 4.105468 2.339844 7.878906 6.445312 8.425781.335938.046875.667969.066406 1 .066406 3.703125 0 6.921875-2.738281 7.425782-6.507813l.476562-3.570312h5.046875c4.144531 0 7.5-3.355469 7.5-7.5s-3.355469-7.5-7.5-7.5h-3.046875l1.070312-8.035156zm-18.179687 8.035156h-7.902344l1.070312-8.035156h7.902344zm0 0"/></svg>