<svg height="511pt" viewBox="0 -48 511.99955 511" width="511pt" xmlns="http://www.w3.org/2000/svg"><path d="m373.066406 199.574219c0 64.097656-51.964844 116.058593-116.0625 116.058593s-116.0625-51.960937-116.0625-116.058593c0-64.101563 51.964844-116.0625 116.0625-116.0625s116.0625 51.960937 116.0625 116.0625zm0 0" fill="#fcd486"/><path d="m336.683594 199.574219c0 44.003906-35.671875 79.679687-79.679688 79.679687-44.007812 0-79.683594-35.675781-79.683594-79.679687 0-44.007813 35.675782-79.683594 79.683594-79.683594 44.007813 0 79.679688 35.675781 79.679688 79.683594zm0 0" fill="#feca57"/><path d="m298.546875 190.285156c2.167969-2.113281.972656-5.796875-2.023437-6.230468l-23.144532-3.363282c-1.191406-.171875-2.21875-.921875-2.75-2l-10.351562-20.96875c-1.339844-2.714844-5.210938-2.714844-6.550782 0l-10.351562 20.96875c-.53125 1.078125-1.558594 1.828125-2.75 2l-23.140625 3.363282c-2.996094.433593-4.195313 4.117187-2.027344 6.230468l16.746094 16.324219c.863281.839844 1.253906 2.046875 1.050781 3.234375l-3.953125 23.050781c-.511719 2.984375 2.621094 5.257813 5.300781 3.851563l20.703126-10.882813c1.0625-.5625 2.332031-.5625 3.398437 0l20.699219 10.882813c2.679687 1.40625 5.8125-.867188 5.300781-3.851563l-3.953125-23.050781c-.203125-1.1875.191406-2.394531 1.050781-3.234375zm0 0" fill="#f4b537"/><path d="m170.945312 199.574219c0-59.015625 44.046876-107.742188 101.058594-115.097657-4.910156-.636718-9.917968-.964843-15-.964843-64.101562 0-116.0625 51.960937-116.0625 116.0625 0 64.097656 51.960938 116.058593 116.0625 116.058593 5.082032 0 10.089844-.328124 15-.960937-57.011718-7.359375-101.058594-56.082031-101.058594-115.097656zm0 0" fill="#feca57"/><path d="m207.324219 199.574219c0-38.878907 27.847656-71.234375 64.679687-78.253907-4.859375-.925781-9.871094-1.429687-15-1.429687-44.007812 0-79.683594 35.675781-79.683594 79.683594 0 44.003906 35.675782 79.679687 79.683594 79.679687 5.128906 0 10.140625-.503906 15-1.429687-36.832031-7.019531-64.679687-39.375-64.679687-78.25zm0 0" fill="#f4b537"/><path d="m263.257812 206.21875c.203126-1.1875-.191406-2.394531-1.050781-3.234375l-16.746093-16.324219c-2.167969-2.113281-.972657-5.796875 2.023437-6.230468l22.394531-3.253907-9.601562-19.453125c-1.339844-2.714844-5.210938-2.714844-6.550782 0l-10.351562 20.96875c-.53125 1.078125-1.558594 1.828125-2.75 2l-23.140625 3.363282c-2.996094.433593-4.195313 4.117187-2.027344 6.230468l16.746094 16.324219c.863281.839844 1.253906 2.046875 1.050781 3.234375l-3.953125 23.050781c-.511719 2.984375 2.621094 5.257813 5.300781 3.851563l20.703126-10.882813c1.0625-.5625 2.332031-.5625 3.398437 0l1.085937.570313zm0 0" fill="#e59d1f"/><g fill="#1dd1a1"><path d="m448.53125 356.605469c2.066406-2.648438 2.074219-6.425781.019531-9.085938-10.976562-14.171875-32.164062-23.441406-50.898437-23.476562-18.953125-.03125-30.964844 9.394531-40.296875 23.8125-1.585938 2.453125-1.59375 5.632812-.015625 8.089843 9.285156 14.453126 21.261718 23.921876 40.214844 23.957032 18.734374.03125 39.953124-9.160156 50.976562-23.296875zm0 0"/><path d="m494.394531 277.957031c1.675781-2.910156 1.152344-6.652343-1.253906-8.996093-12.847656-12.5-35.125-18.714844-53.679687-16.128907-18.769532 2.617188-29.347657 13.628907-36.570313 29.210938-1.230469 2.648437-.789063 5.800781 1.117187 8.011719 11.210938 13.011718 24.394532 20.714843 43.164063 18.097656 18.554687-2.585938 38.28125-14.65625 47.222656-30.195313zm0 0"/><path d="m505.492188 176.710938c.167968-3.183594-1.878907-6.125-4.921876-7.074219-16.242187-5.058594-37.761718-.75-52.351562 9.40625-14.761719 10.277343-18.980469 24.136719-18.402344 40.425781.101563 2.769531 1.824219 5.246094 4.386719 6.300781 15.078125 6.195313 29.539063 7.050781 44.300781-3.226562 14.589844-10.15625 26.097656-28.84375 26.988282-45.832031zm0 0"/><path d="m502.902344 100.707031c.042968-2.71875-1.796875-5.160156-4.421875-5.871093-14.003907-3.800782-32.207031.554687-44.316407 9.675781-12.253906 9.226562-15.410156 21.175781-14.402343 35.039062.175781 2.359375 1.722656 4.414063 3.941406 5.230469 13.042969 4.800781 25.398437 5.070312 37.652344-4.15625 12.113281-9.121094 21.328125-25.410156 21.546875-39.917969zm0 0"/><path d="m432.480469 8.867188c-2.332031-1.394532-5.367188-1.027344-7.296875.886718-10.300782 10.214844-15.652344 28.152344-13.824219 43.203125 1.84375 15.230469 10.605469 23.945313 23.109375 30.015625 2.125 1.03125 4.683594.722656 6.5-.789062 10.691406-8.882813 17.113281-19.441406 15.265625-34.667969-1.824219-15.050781-11.308594-31.1875-23.753906-38.648437zm0 0"/><path d="m65.472656 356.605469c-2.066406-2.648438-2.074218-6.425781-.015625-9.085938 10.976563-14.171875 32.164063-23.441406 50.898438-23.476562 18.953125-.03125 30.960937 9.394531 40.296875 23.8125 1.585937 2.453125 1.589844 5.632812.011718 8.089843-9.28125 14.453126-21.257812 23.921876-40.210937 23.957032-18.734375.03125-39.957031-9.160156-50.980469-23.296875zm0 0"/><path d="m19.613281 277.957031c-1.675781-2.910156-1.15625-6.652343 1.253907-8.996093 12.847656-12.5 35.125-18.714844 53.679687-16.128907 18.769531 2.617188 29.34375 13.628907 36.570313 29.210938 1.226562 2.648437.789062 5.800781-1.117188 8.011719-11.210938 13.015624-24.394531 20.714843-43.164062 18.097656-18.558594-2.585938-38.285157-14.65625-47.222657-30.195313zm0 0"/><path d="m8.511719 176.710938c-.167969-3.183594 1.882812-6.125 4.925781-7.074219 16.242188-5.058594 37.761719-.75 52.351562 9.40625 14.761719 10.277343 18.976563 24.136719 18.398438 40.425781-.097656 2.769531-1.824219 5.246094-4.386719 6.300781-15.074219 6.195313-29.539062 7.050781-44.296875-3.226562-14.589844-10.15625-26.101562-28.84375-26.992187-45.832031zm0 0"/><path d="m11.101562 100.707031c-.039062-2.71875 1.800782-5.160156 4.421876-5.871093 14.003906-3.800782 32.207031.554687 44.320312 9.675781 12.253906 9.226562 15.410156 21.175781 14.398438 35.039062-.171876 2.359375-1.71875 4.414063-3.9375 5.230469-13.046876 4.800781-25.398438 5.070312-37.652344-4.15625-12.113282-9.121094-21.328125-25.410156-21.550782-39.917969zm0 0"/><path d="m81.523438 8.867188c2.332031-1.394532 5.371093-1.027344 7.300781.886718 10.300781 10.214844 15.652343 28.152344 13.824219 43.203125-1.847657 15.230469-10.605469 23.945313-23.109376 30.015625-2.128906 1.03125-4.683593.722656-6.503906-.789062-10.6875-8.882813-17.113281-19.441406-15.265625-34.667969 1.828125-15.050781 11.3125-31.1875 23.753907-38.648437zm0 0"/></g><path d="m387.34375 355.945312c-1.578125-2.457031-1.574219-5.636718.011719-8.089843 6.761719-10.445313 14.945312-18.246094 26.136719-21.753907-5.289063-1.328124-10.65625-2.046874-15.839844-2.058593-18.953125-.03125-30.964844 9.394531-40.296875 23.8125-1.585938 2.453125-1.59375 5.636719-.015625 8.089843 9.285156 14.453126 21.261718 23.921876 40.214844 23.957032 5.242187.007812 10.679687-.707032 16.035156-2.046875-11.277344-3.519531-19.484375-11.382813-26.246094-21.910157zm0 0" fill="#15ba8b"/><path d="m434.007812 290.054688c-1.90625-2.210938-2.34375-5.363282-1.117187-8.011719 6.433594-13.871094 15.535156-24.101563 30.695313-28.03125-8.058594-1.789063-16.410157-2.253907-24.125-1.179688-18.773438 2.617188-29.347657 13.628907-36.574219 29.210938-1.226563 2.648437-.789063 5.800781 1.117187 8.011719 11.214844 13.015624 24.394532 20.714843 43.167969 18.097656 2.910156-.40625 5.847656-1.042969 8.769531-1.894532-8.414062-3.023437-15.5-8.734374-21.933594-16.203124zm0 0" fill="#15ba8b"/><path d="m464.207031 225.769531c-2.566406-1.050781-4.289062-3.53125-4.386719-6.300781-.578124-16.289062 3.640626-30.148438 18.398438-40.425781 6.28125-4.371094 13.847656-7.652344 21.71875-9.574219-16.164062-4.761719-37.3125-.453125-51.71875 9.574219-14.761719 10.277343-18.980469 24.136719-18.402344 40.425781.097656 2.769531 1.824219 5.25 4.386719 6.300781 11.890625 4.886719 23.402344 6.445313 34.976563 1.847657-1.652344-.546876-3.308594-1.160157-4.972657-1.847657zm0 0" fill="#15ba8b"/><path d="m473.703125 144.78125c-2.21875-.816406-3.765625-2.875-3.9375-5.230469-1.011719-13.863281 2.144531-25.8125 14.398437-35.039062 4.8125-3.625 10.59375-6.476563 16.683594-8.382813-.671875-.59375-1.46875-1.050781-2.367187-1.292968-14.003907-3.800782-32.207031.554687-44.316407 9.675781-12.253906 9.226562-15.410156 21.175781-14.402343 35.039062.175781 2.359375 1.722656 4.414063 3.941406 5.230469 10.511719 3.871094 20.574219 4.785156 30.496094.171875-.164063-.058594-.328125-.109375-.496094-.171875zm0 0" fill="#15ba8b"/><path d="m441.359375 52.960938c-1.203125-9.921876.726563-21.082032 5.121094-30.472657-3.878907-5.621093-8.664063-10.421875-14-13.621093-2.332031-1.394532-5.367188-1.027344-7.296875.886718-10.300782 10.214844-15.652344 28.152344-13.828125 43.203125 1.847656 15.230469 10.605469 23.945313 23.113281 30.015625 2.125 1.03125 4.683594.722656 6.5-.789062 3.546875-2.949219 6.609375-6.085938 9.070312-9.511719-4.601562-5.054687-7.671874-11.410156-8.679687-19.710937zm0 0" fill="#15ba8b"/><path d="m95.476562 356.605469c-2.066406-2.648438-2.074218-6.429688-.015624-9.085938 7.9375-10.253906 21.222656-17.9375 35.054687-21.417969-4.257813-1.332031-8.9375-2.066406-14.160156-2.058593-18.734375.035156-39.921875 9.304687-50.898438 23.476562-2.054687 2.65625-2.050781 6.4375.015625 9.085938 11.023438 14.136719 32.246094 23.328125 50.980469 23.292969 5.148437-.007813 9.765625-.734376 13.96875-2.046876-13.78125-3.449218-27.007813-11.066406-34.945313-21.246093zm0 0" fill="#15ba8b"/><path d="m49.613281 277.957031c-1.675781-2.910156-1.152343-6.652343 1.253907-8.996093 7.507812-7.304688 18.234374-12.441407 29.554687-14.953126-1.867187-.484374-3.816406-.890624-5.875-1.175781-18.554687-2.585937-40.832031 3.628907-53.679687 16.128907-2.40625 2.34375-2.929688 6.085937-1.253907 8.996093 8.9375 15.539063 28.664063 27.609375 47.222657 30.195313 7.996093 1.117187 14.980468.351562 21.230468-1.894532-15.707031-4.5625-30.914062-15.195312-38.453125-28.300781zm0 0" fill="#15ba8b"/><path d="m65.503906 222.542969c-14.589844-10.15625-26.097656-28.84375-26.988281-45.832031-.167969-3.183594 1.882813-6.125 4.925781-7.074219.203125-.0625.421875-.109375.628906-.167969-10.421874-2.546875-21.382812-2.714844-30.632812.167969-3.042969.949219-5.09375 3.890625-4.925781 7.074219.890625 16.988281 12.402343 35.675781 26.992187 45.832031 13.128906 9.144531 26.023438 9.472656 39.324219 5.074219-3.101563-1.234376-6.203125-2.902344-9.324219-5.074219zm0 0" fill="#15ba8b"/><path d="m62.652344 140.625c-12.113282-9.121094-21.328125-25.410156-21.546875-39.917969-.027344-1.789062.769531-3.445312 2.054687-4.582031-9.234375-2.890625-19.195312-3.578125-27.636718-1.292969-2.621094.714844-4.460938 3.15625-4.421876 5.875.222657 14.507813 9.4375 30.796875 21.550782 39.917969 12.097656 9.109375 24.292968 8.953125 37.15625 4.328125-2.390625-1.113281-4.773438-2.535156-7.15625-4.328125zm0 0" fill="#15ba8b"/><path d="m87.773438 47.515625c1.042968-8.597656 4.589843-17.542969 9.753906-25.027344-2.269532-4.859375-5.191406-9.25-8.703125-12.734375-1.929688-1.914062-4.96875-2.28125-7.300781-.882812-12.441407 7.457031-21.925782 23.59375-23.75 38.644531-1.847657 15.230469 4.574218 25.785156 15.265624 34.671875 1.816407 1.507812 4.371094 1.820312 6.5.785156 5.6875-2.761718 10.589844-6.078125 14.429688-10.300781-4.957031-6.898437-7.429688-14.980469-6.195312-25.15625zm0 0" fill="#15ba8b"/><path d="m501.796875 162.464844c-18.101563-5.640625-41.691406-1.488282-58.746094 10.328125.839844-6.585938 1.480469-13.050781 1.964844-19.382813 39.1875 11.179688 64.003906-27.683594 64.382813-52.601562.09375-6.171875-4-11.609375-9.957032-13.226563-17.375-4.714843-39.667968.964844-53.769531 13.367188-.226563-4.535157-.515625-8.898438-.851563-13.0625 13.972657-11.636719 19.8125-25.144531 17.855469-41.289063-2.175781-17.925781-13.164062-35.679687-27.34375-44.175781-5.296875-3.171875-12.050781-2.3515625-16.4375 1.992187-11.738281 11.640626-18.164062 31.507813-15.988281 49.433594 1.949219 16.070313 10.785156 27.753906 27 35.714844 6.464844 81.03125-6.480469 224.128906-154.648438 312.339844-3.558593 2.117187-4.726562 6.722656-2.605468 10.28125 2.117187 3.558594 6.71875 4.726562 10.28125 2.605468 25.855468-15.390624 48.742187-32.933593 68.601562-52.539062 12.007813 17.527344 26.582032 25.136719 45.113282 25.136719 21.425781 0 44.765624-10.757813 56.796874-26.183594 4.191407-5.375 4.207032-12.898437.03125-18.289063-13.179687-17.019531-40.375-28.714843-63.953124-25.992187 4.03125-5.863281 7.851562-11.867187 11.460937-18.003906 13.113281 13.441406 27.78125 19.21875 46.21875 16.648437 21.246094-2.960937 42.914063-16.894531 52.6875-33.882812 3.398437-5.910156 2.363281-13.359375-2.523437-18.113282-16.859376-16.40625-49.136719-24.007812-72.597657-14.960937 1.789063-4.855469 3.304688-9.160156 5.421875-15.988281 47.570313 20.324218 80.226563-25.714844 81.789063-55.53125.347656-6.632813-3.839844-12.648438-10.183594-14.625zm-44.125-51.972656c10.21875-7.699219 25.425781-11.269532 36.683594-8.71875-.660157 11.519531-8.292969 25.152343-18.515625 32.847656-8.757813 6.59375-17.671875 7.640625-29.660156 3.429687-.734376-12.683593 2.734374-20.964843 11.492187-27.558593zm-61.035156 221.039062c16.855469.03125 35.765625 8.675781 44.9375 20.5-8.953125 11.4375-27.554688 20.355469-45.011719 20.355469-14.554688-.023438-24.695312-6.15625-33.914062-20.46875 8.746093-13.511719 18.632812-20.386719 33.988281-20.386719zm50.335937-71.785156c14.835938 0 30.714844 5.613281 39.886719 14.515625-7.519531 13.007812-25.054687 24.128906-41.726563 26.453125-14.414062 2.007812-25.316406-2.648438-36.441406-15.527344 7.871094-16.980469 18.8125-25.441406 38.28125-25.441406zm-29.171875-207.703125c-1.542969-12.699219 2.988281-27.652344 10.832031-36.117188 9.640626 6.34375 17.613282 19.777344 19.152344 32.480469 1.320313 10.886719-2.242187 19.121094-11.894531 27.390625-11.34375-5.722656-16.769531-12.867187-18.089844-23.753906zm55.414063 164.332031c-11.15625 7.769531-22.207032 8.535156-36.914063 2.546875-.507812-15.871094 4.046875-25.96875 15.199219-33.734375 12.925781-9 31.984375-12.550781 45.480469-8.511719-.894531 14.0625-10.839844 30.699219-23.765625 39.699219zm0 0"/><path d="m236.738281 401.902344c-148.167969-88.210938-161.109375-231.308594-154.644531-312.339844 16.210938-7.957031 25.046875-19.640625 27-35.710938 2.171875-17.925781-4.253906-37.792968-15.992188-49.433593-4.382812-4.3476565-11.140624-5.167969-16.433593-1.996094-14.183594 8.5-25.171875 26.253906-27.34375 44.179687-1.960938 16.140626 3.882812 29.648438 17.855469 41.285157-.335938 4.167969-.625 8.527343-.851563 13.0625-14.117187-12.414063-36.40625-18.074219-53.769531-13.367188-5.957032 1.617188-10.054688 7.058594-9.957032 13.230469.375 24.792969 25.058594 63.816406 64.382813 52.601562.484375 6.328126 1.125 12.792969 1.964844 19.382813-17.054688-11.820313-40.640625-15.972656-58.746094-10.332031-6.34375 1.976562-10.53125 7.992187-10.1835938 14.628906 1.5273438 29.144531 33.5859378 75.96875 81.7890628 55.53125 2.078125 6.707031 3.585937 11.003906 5.421875 15.988281-23.46875-9.046875-55.742188-1.433593-72.597657 14.960938-4.886718 4.753906-5.925781 12.203125-2.523437 18.113281 9.769531 16.988281 31.4375 30.921875 52.6875 33.882812 18.242187 2.550782 32.964844-3.0625 46.214844-16.648437 3.613281 6.136719 7.433593 12.140625 11.464843 18.003906-23.582031-2.722656-50.777343 8.972657-63.953124 25.992188-4.171876 5.390625-4.160157 12.910156.03125 18.289062 11.765624 15.085938 34.855468 26.183594 56.910156 26.183594 18.925781-.03125 33.285156-8.039063 45-25.136719 19.859375 19.605469 42.746094 37.148438 68.601562 52.539063 3.5625 2.121093 8.164063.949219 10.28125-2.605469 2.121094-3.5625.953125-8.164062-2.609375-10.285156zm-170.917969-263.851563c-11.988281 4.210938-20.902343 3.164063-29.660156-3.429687-10.222656-7.695313-17.855468-21.328125-18.515625-32.847656 11.253907-2.550782 26.460938 1.019531 36.683594 8.71875 8.761719 6.59375 12.226563 14.875 11.492187 27.558593zm9.878907 80.871094c-14.707031 5.988281-25.761719 5.21875-36.914063-2.546875-12.925781-9-22.867187-25.636719-23.765625-39.699219 13.5-4.039062 32.554688-.488281 45.480469 8.511719 11.152344 7.765625 15.707031 17.863281 15.199219 33.734375zm-11.484375-170.515625c1.539062-12.703125 9.511718-26.136719 19.152344-32.480469 7.84375 8.464844 12.371093 23.417969 10.832031 36.117188-1.320313 10.886719-6.746094 18.03125-18.09375 23.753906-9.648438-8.269531-13.210938-16.503906-11.890625-27.390625zm2.652344 252.304688c-16.667969-2.320313-34.199219-13.4375-41.71875-26.4375 10.789062-10.453126 30.691406-16.34375 47.359374-14.023438 15.535157 2.164062 24.222657 10.742188 30.808594 24.898438-11.132812 12.917968-22.027344 17.570312-36.449218 15.5625zm48.570312 71.675781c-.03125 0-.058594 0-.089844 0-16.808594 0-35.671875-8.542969-44.917968-20.347657 9.179687-11.804687 28.066406-20.507812 45.023437-20.507812 15.363281 0 25.269531 7.058594 33.898437 20.347656-9.214843 14.351563-19.359374 20.484375-33.914062 20.507813zm0 0"/><path d="m237.722656 243.371094 18.910156-9.941406 18.910157 9.941406c8.175781 4.296875 17.746093-2.652344 16.183593-11.757813l-3.609374-21.058593 15.296874-14.910157c6.617188-6.453125 2.960938-17.695312-6.179687-19.023437l-21.144531-3.074219-9.453125-19.15625c-4.089844-8.289063-15.917969-8.285156-20.003907 0l-9.457031 19.15625-21.140625 3.074219c-9.144531 1.328125-12.796875 12.574218-6.183594 19.023437l15.300782 14.910157-3.613282 21.058593c-1.554687 9.082031 7.988282 16.066407 16.183594 11.757813zm3.613282-55.269532c3.636718-.527343 6.777343-2.8125 8.398437-6.101562l6.898437-13.980469 6.898438 13.980469c1.625 3.292969 4.765625 5.574219 8.398438 6.101562l15.429687 2.242188-11.164063 10.882812c-2.628906 2.5625-3.828124 6.253907-3.207031 9.871094l2.632813 15.367188-13.796875-7.253906c-3.253907-1.710938-7.132813-1.710938-10.382813 0l-13.800781 7.253906 2.636719-15.367188c.621094-3.621094-.578125-7.3125-3.207032-9.871094l-11.167968-10.882812zm0 0"/><path d="m275.082031 284.769531c39.476563-8.511719 68.734375-43.644531 68.734375-85.207031 0-48.074219-39.109375-87.183594-87.183594-87.183594-48.074218 0-87.183593 39.109375-87.183593 87.183594 0 40.855469 28.378906 75.8125 67.347656 84.886719 4.03125.933593 8.066406-1.570313 9.007813-5.605469.9375-4.035156-1.570313-8.066406-5.605469-9.003906-32.824219-7.644532-55.75-36.542969-55.75-70.277344 0-39.804688 32.382812-72.183594 72.183593-72.183594 39.800782 0 72.183594 32.378906 72.183594 72.183594 0 33.765625-23.929687 63.433594-56.898437 70.542969-4.046875.871093-6.621094 4.863281-5.75 8.914062.867187 4.023438 4.832031 6.625 8.914062 5.75zm0 0"/><path d="m378.699219 218.808594c.640625-4.09375-2.15625-7.929688-6.25-8.570313-4.105469-.640625-7.929688 2.15625-8.570313 6.25-8.308594 53.097657-53.414062 91.632813-107.246094 91.632813-59.859374 0-108.558593-48.699219-108.558593-108.558594 0-59.863281 48.699219-108.5625 108.558593-108.5625 53.515626 0 99.691407 39.863281 107.410157 92.730469.601562 4.101562 4.421875 6.9375 8.503906 6.335937 4.101563-.597656 6.9375-4.40625 6.339844-8.503906-8.820313-60.414062-60.863281-105.5625-122.253907-105.5625-68.132812 0-123.5625 55.429688-123.5625 123.5625 0 68.128906 55.429688 123.558594 123.5625 123.558594 61.554688 0 112.800782-45.113282 122.066407-104.3125zm0 0"/></svg>