<svg height="511pt" viewBox="-10 1 511 511.999" width="511pt" xmlns="http://www.w3.org/2000/svg"><path d="m202.445312 235.457031h43.65625v269.054688h-43.65625zm0 0" fill="#ce7132"/><path d="m202.445312 235.457031h28.609376v269.054688h-28.609376zm0 0" fill="#b75f23"/><path d="m246.101562 58.113281v-38.265625c0-6.8125-5.523437-12.335937-12.332031-12.335937h-18.992187c-6.808594 0-12.332032 5.523437-12.332032 12.335937v38.265625zm0 0" fill="#ce7132"/><path d="m238.578125 8.488281c-1.476563-.628906-3.101563-.976562-4.808594-.976562h-18.992187c-6.808594 0-12.332032 5.523437-12.332032 12.335937v38.265625h28.609376v-38.265625c0-5.105468 3.101562-9.488281 7.523437-11.359375zm0 0" fill="#b75f23"/><path d="m475.171875 125.867188-62.113281-62.09375c-5.585938-5.585938-13.015625-8.660157-20.910156-8.660157h-348.914063c-19.253906 0-34.867187 15.609375-34.867187 34.867188v113.613281c0 19.253906 15.613281 34.863281 34.867187 34.863281h348.914063c7.898437 0 15.328124-3.074219 20.910156-8.660156l62.109375-62.089844c5.589843-5.589843 8.667969-13.019531 8.667969-20.921875s-3.078126-15.328125-8.664063-20.917968zm0 0" fill="#4ef4c0"/><path d="m38.371094 203.59375v-113.613281c0-19.257813 15.609375-34.867188 34.867187-34.867188h-30.003906c-19.253906 0-34.867187 15.609375-34.867187 34.867188v113.613281c0 19.253906 15.613281 34.863281 34.867187 34.863281h30.003906c-19.257812 0-34.867187-15.609375-34.867187-34.863281zm0 0" fill="#1dd1a1"/><path d="m451.003906 141.273438-56.617187-56.601563c-1.460938-1.460937-3.445313-2.285156-5.511719-2.285156h-344.707031c-4.308594 0-7.796875 3.492187-7.796875 7.796875v113.203125c0 4.308593 3.488281 7.796875 7.796875 7.796875h344.707031c2.066406 0 4.050781-.820313 5.511719-2.28125l56.617187-56.601563c3.046875-3.046875 3.046875-7.984375 0-11.027343zm0 0" fill="#1dd1a1"/><path d="m66.371094 203.386719v-113.203125c0-4.304688 3.492187-7.796875 7.796875-7.796875h-30c-4.308594 0-7.796875 3.492187-7.796875 7.796875v113.203125c0 4.308593 3.488281 7.796875 7.796875 7.796875h30c-4.304688 0-7.796875-3.488282-7.796875-7.796875zm0 0" fill="#15ba8b"/><path d="m28.5 90.171875v113.203125c0 8.433594 6.863281 15.296875 15.296875 15.296875h344.710937c4.082032 0 7.921876-1.589844 10.8125-4.480469l56.617188-56.601562c5.980469-5.976563 5.980469-15.65625 0-21.636719l-56.617188-56.601563c-2.890624-2.886718-6.730468-4.480468-10.8125-4.480468h-344.710937c-8.433594.003906-15.296875 6.867187-15.296875 15.300781zm360.214844-.210937c.328125.328124 56.945312 56.695312 56.617187 57.023437-.136719.136719-56.632812 56.6875-56.824219 56.6875h-344.710937c-.164063 0-.296875-.132813-.296875-.296875v-113.203125c0-.164063.132812-.296875.296875-.296875h344.710937c.078126 0 .152344.03125.207032.085938zm0 0"/><path d="m480.105469 120.550781-62.113281-62.097656c-7.003907-7-16.3125-10.851563-26.214844-10.851563h-58c-4.140625 0-7.5 3.355469-7.5 7.5 0 4.140626 3.359375 7.5 7.5 7.5h58c5.894531 0 11.441406 2.292969 15.609375 6.460938l62.066406 62.046875c.015625.015625.03125.03125.046875.050781 8.628906 8.632813 8.628906 22.601563-.003906 31.230469l-62.109375 62.089844c-4.167969 4.167969-9.710938 6.464843-15.609375 6.464843h-348.914063c-15.089843 0-27.363281-12.273437-27.363281-27.363281v-113.613281c0-15.089844 12.277344-27.367188 27.367188-27.367188h255.910156c4.140625 0 7.5-3.355468 7.5-7.5 0-4.144531-3.359375-7.5-7.5-7.5h-45.542969v-27.765624c0-10.9375-8.898437-19.835938-19.835937-19.835938h-18.988282c-10.9375 0-19.832031 8.898438-19.832031 19.835938v27.765624h-151.710937c-23.363282 0-42.367188 19.003907-42.367188 42.367188v113.613281c0 23.359375 19.003906 42.363281 42.367188 42.363281h151.710937v251.054688h-16.316406c-4.144531 0-7.5 3.355469-7.5 7.5 0 4.140625 3.355469 7.5 7.5 7.5h91.285156c4.144531 0 7.503906-3.359375 7.503906-7.5 0-4.144531-3.359375-7.5-7.503906-7.5h-16.3125v-108.027344c0-4.140625-3.359375-7.5-7.5-7.5-4.144531 0-7.5 3.359375-7.5 7.5v108.027344h-28.65625v-251.054688h28.65625v108.027344c0 4.140625 3.355469 7.5 7.5 7.5 4.140625 0 7.5-3.359375 7.5-7.5v-108.027344h138.542969c9.90625 0 19.214844-3.855468 26.214844-10.855468l62.113281-62.089844c14.460937-14.460938 14.5-37.859375.078125-52.367188-.023438-.027343-.050782-.054687-.078125-.082031zm-270.527344-100.714843c0-2.667969 2.167969-4.835938 4.832031-4.835938h18.988282c2.667968 0 4.835937 2.167969 4.835937 4.835938v27.765624h-28.65625zm0 0"/><path d="m100.820312 155.785156c0-9.78125-25.625-8.085937-25.625-27 0-12.125 10.589844-16.730468 20.691407-16.730468 4.285156 0 16.085937.808593 16.085937 7.113281 0 2.183593-1.453125 6.628906-5.011718 6.628906-2.90625 0-4.445313-3.070313-11.074219-3.070313-5.738281 0-8.082031 2.34375-8.082031 4.847657 0 8.085937 25.625 6.550781 25.625 26.917969 0 11.640624-8.488282 17.945312-20.207032 17.945312-10.589844 0-19.480468-5.175781-19.480468-10.507812 0-2.75 2.425781-6.792969 5.496093-6.792969 3.796875 0 6.222657 5.980469 13.738281 5.980469 3.722657 0 7.84375-1.453126 7.84375-5.332032zm0 0"/><path d="m147.542969 116.339844c0-2.667969 3.070312-3.800782 6.304687-3.800782 3.070313 0 6.304688 1.132813 6.304688 3.800782v36.695312c0 13.902344-8.972656 19.078125-20.367188 19.078125-11.480468 0-20.371094-5.175781-20.371094-19.078125v-36.695312c0-2.667969 3.070313-3.800782 6.304688-3.800782 3.074219 0 6.304688 1.132813 6.304688 3.800782v36.695312c0 5.496094 2.910156 8.082032 7.761718 8.082032 4.851563 0 7.757813-2.585938 7.757813-8.082032zm0 0"/><path d="m187.878906 123.53125c-4.605468 0-7.273437 2.589844-7.273437 8.085938v21.417968c0 5.496094 2.667969 8.082032 7.355469 8.082032 6.464843 0 6.871093-4.929688 7.113281-8.082032.242187-2.988281 2.988281-3.796875 6.222656-3.796875 4.363281 0 6.386719 1.128907 6.386719 5.980469 0 10.75-8.730469 16.894531-20.289063 16.894531-10.589843 0-19.398437-5.175781-19.398437-19.078125v-21.417968c0-13.902344 8.8125-19.078126 19.398437-19.078126 11.558594 0 20.289063 5.820313 20.289063 16.085938 0 4.851562-2.023438 5.980469-6.304688 5.980469-3.394531 0-6.144531-.886719-6.304687-3.796875-.082031-2.101563-.324219-7.277344-7.195313-7.277344zm0 0"/><path d="m233.3125 123.53125c-4.609375 0-7.277344 2.589844-7.277344 8.085938v21.417968c0 5.496094 2.667969 8.082032 7.355469 8.082032 6.46875 0 6.871094-4.929688 7.113281-8.082032.242188-2.988281 2.992188-3.796875 6.222656-3.796875 4.367188 0 6.386719 1.128907 6.386719 5.980469 0 10.75-8.730469 16.894531-20.289062 16.894531-10.585938 0-19.398438-5.175781-19.398438-19.078125v-21.417968c0-13.902344 8.8125-19.078126 19.398438-19.078126 11.558593 0 20.289062 5.820313 20.289062 16.085938 0 4.851562-2.019531 5.980469-6.304687 5.980469-3.394532 0-6.144532-.886719-6.304688-3.796875-.082031-2.101563-.324218-7.277344-7.191406-7.277344zm0 0"/><path d="m272.113281 137.195312h12.125c2.425781 0 3.796875 2.34375 3.796875 4.929688 0 2.183594-1.128906 4.769531-3.796875 4.769531h-12.125v13.742188h21.660157c2.425781 0 3.800781 2.585937 3.800781 5.578125 0 2.585937-1.132813 5.414062-3.800781 5.414062h-28.773438c-2.75 0-5.496094-1.292968-5.496094-3.878906v-51.328125c0-2.585937 2.746094-3.882813 5.496094-3.882813h28.773438c2.667968 0 3.800781 2.832032 3.800781 5.417969 0 2.992188-1.375 5.578125-3.800781 5.578125h-21.660157zm0 0"/><path d="m327.324219 155.785156c0-9.78125-25.625-8.085937-25.625-27 0-12.125 10.589843-16.730468 20.691406-16.730468 4.285156 0 16.085937.808593 16.085937 7.113281 0 2.183593-1.453124 6.628906-5.011718 6.628906-2.910156 0-4.445313-3.070313-11.074219-3.070313-5.738281 0-8.082031 2.34375-8.082031 4.847657 0 8.085937 25.625 6.550781 25.625 26.917969 0 11.640624-8.488282 17.945312-20.207032 17.945312-10.589843 0-19.480468-5.175781-19.480468-10.507812 0-2.75 2.421875-6.792969 5.496094-6.792969 3.796874 0 6.222656 5.980469 13.738281 5.980469 3.71875 0 7.84375-1.453126 7.84375-5.332032zm0 0"/><path d="m370.410156 155.785156c0-9.78125-25.625-8.085937-25.625-27 0-12.125 10.589844-16.730468 20.691406-16.730468 4.285157 0 16.085938.808593 16.085938 7.113281 0 2.183593-1.453125 6.628906-5.011719 6.628906-2.910156 0-4.445312-3.070313-11.074219-3.070313-5.738281 0-8.082031 2.34375-8.082031 4.847657 0 8.085937 25.625 6.550781 25.625 26.917969 0 11.640624-8.488281 17.945312-20.210937 17.945312-10.585938 0-19.476563-5.175781-19.476563-10.507812 0-2.75 2.421875-6.792969 5.496094-6.792969 3.796875 0 6.222656 5.980469 13.738281 5.980469 3.71875 0 7.84375-1.453126 7.84375-5.332032zm0 0"/></svg>