<svg height="512pt" viewBox="0 0 512 512" width="512pt" xmlns="http://www.w3.org/2000/svg"><path d="m348.15625 112.105469c3.949219 0 7.148438-3.179688 7.148438-7.101563v-28.496094h50.226562c3.238281 0 5.113281 3.652344 3.207031 6.257813l-21.988281 30.023437c-1.011719 1.382813-1.011719 3.253907 0 4.636719l21.988281 30.023438c1.90625 2.605469.035157 6.257812-3.207031 6.257812h-92.757812c-3.988282 0-7.21875-3.210937-7.21875-7.171875v-34.429687zm0 0" fill="#ff6b6b"/><path d="m305.554688 146.535156v-31.429687h45.601562l-44 35.929687c-1-1.230468-1.601562-2.796875-1.601562-4.5zm0 0" fill="#ee5253"/><path d="m335.503906 115.105469h-29.949218v31.429687c0 1.707032.601562 3.269532 1.601562 4.5l28.351562-23.148437v-12.78125zm0 0" fill="#d83941"/><path d="m351.15625 37.910156c3.949219 0 7.152344 3.179688 7.152344 7.105469v62.988281c0 3.921875-3.203125 7.101563-7.152344 7.101563h-82.316406v-77.195313zm0 0" fill="#ff6b6b"/><path d="m268.839844 37.910156h30.902344v77.195313h-30.902344zm0 0" fill="#ee5253"/><path d="m269.738281 228.035156v-195.125c-3.296875 3.527344-7.980469 5.746094-13.191406 5.746094s-9.894531-2.21875-13.191406-5.746094v195.125zm0 0" fill="#e4eaf8"/><path d="m274.621094 25.585938c0 9.980468-8.089844 18.074218-18.074219 18.074218-9.980469 0-18.070313-8.09375-18.070313-18.074218 0-9.980469 8.089844-18.074219 18.070313-18.074219 9.984375 0 18.074219 8.09375 18.074219 18.074219zm0 0" fill="#feca57"/><path d="m261.558594 25.585938c0-5.59375 2.542968-10.589844 6.53125-13.902344-3.128906-2.605469-7.152344-4.171875-11.542969-4.171875-9.980469 0-18.074219 8.09375-18.074219 18.074219 0 9.980468 8.09375 18.074218 18.074219 18.074218 4.390625 0 8.414063-1.570312 11.542969-4.171875-3.988282-3.3125-6.53125-8.3125-6.53125-13.902343zm0 0" fill="#f4b537"/><path d="m276.019531 221.035156h-39.300781c-3.890625 0-7.042969 3.152344-7.042969 7.042969v46.65625h53.382813v-46.65625c.003906-3.890625-3.152344-7.042969-7.039063-7.042969zm0 0" fill="#feca57"/><path d="m271.722656 221.035156h-35.003906c-3.890625 0-7.042969 3.152344-7.042969 7.042969v46.65625h35.003907v-46.65625c0-3.890625 3.152343-7.042969 7.042968-7.042969zm0 0" fill="#f4b537"/><path d="m326.71875 271.734375h-140.699219c-3.890625 0-7.042969 3.152344-7.042969 7.042969v46.660156h154.785157v-46.660156c0-3.890625-3.152344-7.042969-7.042969-7.042969zm0 0" fill="#338def"/><path d="m178.976562 292.433594h154.785157v33.003906h-154.785157zm0 0" fill="#2388e2"/><path d="m377.417969 322.4375h-242.101563c-3.886718 0-7.042968 3.152344-7.042968 7.042969v46.65625h256.1875v-46.65625c0-3.890625-3.152344-7.042969-7.042969-7.042969zm0 0" fill="#54a0ff"/><path d="m128.273438 343.136719h256.1875v33h-256.1875zm0 0" fill="#338def"/><path d="m428.121094 373.136719h-343.503906c-3.890626 0-7.042969 3.15625-7.042969 7.046875v46.65625h357.589843v-46.65625c0-3.890625-3.152343-7.046875-7.042968-7.046875zm0 0" fill="#8ac2ff"/><path d="m77.574219 393.835938h357.589843v33.003906h-357.589843zm0 0" fill="#54a0ff"/><path d="m478.820312 423.839844h-444.902343c-3.890625 0-7.046875 3.152344-7.046875 7.042968v46.65625h458.992187v-46.65625c0-3.890624-3.152343-7.042968-7.042969-7.042968zm0 0" fill="#acd6fc"/><path d="m26.875 444.539062h458.992188v33h-458.992188zm0 0" fill="#8ac2ff"/><path d="m496.824219 474.539062h-480.910157c-4.445312 0-8.042968 3.601563-8.042968 8.046876v13.882812c0 4.441406 3.597656 8.042969 8.042968 8.042969h480.910157c4.441406 0 8.042969-3.601563 8.042969-8.042969v-13.882812c0-4.445313-3.601563-8.046876-8.042969-8.046876zm0 0" fill="#e4eaf8"/><path d="m496.824219 485.511719h-480.910157c-3.546874 0-6.550781-2.300781-7.621093-5.488281-.269531.804687-.421875 1.664062-.421875 2.558593v13.886719c0 4.441406 3.597656 8.042969 8.042968 8.042969h480.910157c4.441406 0 8.042969-3.601563 8.042969-8.042969v-13.886719c0-.894531-.152344-1.753906-.421876-2.558593-1.070312 3.1875-4.074218 5.488281-7.621093 5.488281zm0 0" fill="#c7d2e5"/><path d="m496.453125 467.027344h-3.457031v-36.15625c0-8.019532-6.523438-14.542969-14.542969-14.542969h-36.160156v-36.15625c0-8.019531-6.523438-14.542969-14.542969-14.542969h-36.15625v-36.160156c0-8.019531-6.523438-14.542969-14.542969-14.542969h-36.15625v-36.160156c0-8.019531-6.527343-14.542969-14.546875-14.542969h-36.15625v-36.15625c0-7.609375-5.875-13.859375-13.320312-14.484375v-25.957031c0-4.144531-3.359375-7.5-7.5-7.5-4.144532 0-7.5 3.355469-7.5 7.5v25.898438h-11.382813v-163.023438c3.726563.851562 7.558594.875 11.382813 0v102.121094c0 4.144531 3.355468 7.5 7.5 7.5 4.140625 0 7.5-3.355469 7.5-7.5v-30.027344h21.480468v23.929688c0 8.113281 6.648438 14.667968 14.667969 14.667968h92.167969c9.339844 0 14.746094-10.613281 9.25-18.167968l-20.320312-27.929688 20.320312-27.929688c5.496094-7.554687.09375-18.167968-9.25-18.167968h-39.421875v-23.992188c0-8.054687-6.550781-14.605468-14.605469-14.605468h-69.871094c.300782-1.5625.460938-3.175782.460938-4.824219 0-14.101563-11.472656-25.574219-25.570312-25.574219-14.101563 0-25.574219 11.472656-25.574219 25.574219 0 5.601562 1.816406 10.78125 4.882812 15v172.992187c-7.617187.449219-13.683593 6.769532-13.683593 14.5v36.15625h-36.15625c-8.019532 0-14.542969 6.523438-14.542969 14.542969v36.160156h-36.15625c-8.019531 0-14.546875 6.523438-14.546875 14.542969v36.15625h-36.15625c-8.019532 0-14.542969 6.523438-14.542969 14.542969v36.160156h-36.15625c-8.019531 0-14.542969 6.523437-14.542969 14.539063v36.160156h-3.460937c-8.570313 0-15.542969 6.972656-15.542969 15.542968v13.882813c0 8.574219 6.972656 15.546875 15.542969 15.546875h223.132812c4.144531 0 7.503907-3.359375 7.503907-7.5 0-4.144531-3.359376-7.5-7.503907-7.5h-223.132812c-.300781 0-.542969-.246094-.542969-.546875v-13.882813c0-.296874.242188-.542968.542969-.542968 502.699219 0 481.457031-.296875 481.457031.542968 0 13.964844.34375 14.429688-.546875 14.429688h-222.773437c-4.144532 0-7.5 3.355469-7.5 7.5 0 4.140625 3.355468 7.5 7.5 7.5h222.773437c8.574219 0 15.546875-6.972656 15.546875-15.546875v-13.882813c0-8.570312-6.972656-15.542968-15.546875-15.542968zm-142.195313-344.769532c6.570313-1.425781 11.507813-7.277343 11.507813-14.265624v-23.996094h32.425781l-17.730468 24.367187c-2.929688 4.027344-2.929688 9.433594 0 13.460938l17.730468 24.367187h-73.058594zm-40.90625 14.199219v-13.863281h16.871094zm-36.480468-91.058593h73.894531v62.195312c-7.308594 0-65.390625 0-73.894531 0zm-20.691406-30.398438c5.828124 0 10.570312 4.746094 10.570312 10.574219 0 5.738281-4.6875 10.570312-10.570312 10.570312-5.773438 0-10.574219-4.730469-10.574219-10.570312 0-5.828125 4.742187-10.574219 10.574219-10.574219zm-19.371094 213.523438h38.382812v35.699218h-38.382812zm-50.703125 50.699218h139.785156v35.703125h-139.785156zm-50.699219 50.703125h241.1875v35.699219h-241.1875zm-50.699219 50.703125h342.585938v35.699219h-342.585938zm393.289063 86.398438h-443.992188v-35.699219h443.992188zm0 0"/></svg>