<svg height="511pt" viewBox="-133 1 511 511.999" width="511pt" xmlns="http://www.w3.org/2000/svg"><path d="m40.0625 7.511719h166.808594l-17.542969 45.121093h-131.71875zm0 0" fill="#ee5253"/><path d="m48.835938 30.074219 8.773437 22.558593h131.71875l8.773437-22.558593zm0 0" fill="#d83941"/><path d="m40.0625 7.511719-26.417969 31.546875c-5.613281 6.707031-6.878906 16.039062-3.257812 23.996094l81.78125 175.207031h11.632812l21.667969-47.585938zm0 0" fill="#ff6b6b"/><path d="m40.390625 63.054688c-3.625-7.957032-2.359375-17.289063 3.253906-23.996094l7.148438-8.535156-10.730469-23.011719-26.417969 31.546875c-5.617187 6.707031-6.882812 16.039062-3.257812 23.996094l81.78125 175.207031h11.632812l9.070313-19.921875zm0 0" fill="#ee5253"/><path d="m107.183594 263.371094v32c5.308594-1.066406 10.75-1.621094 16.285156-1.621094s10.972656.554688 16.285156 1.621094v-32zm0 0" fill="#338def"/><path d="m129.851562 263.371094h-22.667968v32c5.3125-1.066406 10.75-1.621094 16.285156-1.621094 2.144531 0 4.269531.109375 6.386719.273438v-30.652344zm0 0" fill="#2388e2"/><path d="m233.289062 39.058594-26.417968-31.546875-105.070313 230.75h54.964844l79.78125-175.207031c3.625-7.957032 2.359375-17.289063-3.257813-23.996094zm0 0" fill="#ff6b6b"/><path d="m206.871094 7.511719-105.070313 230.75h28.050781l95.191407-209.050781zm0 0" fill="#ee5253"/><path d="m74.285156 240.78125v22.507812c0 2.496094 2.023438 4.519532 4.519532 4.519532h89.324218c2.496094 0 4.519532-2.023438 4.519532-4.519532v-22.507812c0-2.496094-2.023438-4.519531-4.519532-4.519531h-89.324218c-2.496094 0-4.519532 2.023437-4.519532 4.519531zm0 0" fill="#54a0ff"/><path d="m104.289062 263.289062v-22.507812c0-2.496094 2.023438-4.519531 4.519532-4.519531h-30.003906c-2.496094 0-4.519532 2.023437-4.519532 4.519531v22.507812c0 2.496094 2.023438 4.519532 4.519532 4.519532h30.003906c-2.496094 0-4.519532-2.023438-4.519532-4.519532zm0 0" fill="#338def"/><path d="m230.246094 397.734375c0 58.972656-47.804688 106.777344-106.777344 106.777344s-106.777344-47.804688-106.777344-106.777344 47.804688-106.78125 106.777344-106.78125 106.777344 47.808594 106.777344 106.78125zm0 0" fill="#fcd486"/><path d="m196.777344 397.734375c0 40.484375-32.820313 73.308594-73.308594 73.308594s-73.308594-32.824219-73.308594-73.308594c0-40.488281 32.820313-73.308594 73.308594-73.308594s73.308594 32.820313 73.308594 73.308594zm0 0" fill="#feca57"/><path d="m161.691406 389.1875c1.992188-1.941406.890625-5.332031-1.863281-5.730469l-21.292969-3.09375c-1.097656-.160156-2.042968-.847656-2.53125-1.839843l-9.523437-19.292969c-1.230469-2.5-4.792969-2.5-6.027344 0l-9.523437 19.292969c-.488282.992187-1.433594 1.679687-2.527344 1.839843l-21.292969 3.09375c-2.757813.398438-3.859375 3.789063-1.863281 5.730469l15.40625 15.019531c.792968.773438 1.15625 1.882813.96875 2.976563l-3.636719 21.207031c-.472656 2.742187 2.410156 4.835937 4.875 3.542969l19.042969-10.015625c.980468-.511719 2.148437-.511719 3.128906 0l19.042969 10.015625c2.464843 1.292968 5.347656-.796875 4.878906-3.542969l-3.636719-21.207031c-.1875-1.089844.171875-2.203125.964844-2.976563zm0 0" fill="#f4b537"/><path d="m46.691406 397.734375c0-53.882813 39.910156-98.433594 91.777344-105.726563-4.902344-.6875-9.910156-1.054687-15-1.054687-58.972656 0-106.78125 47.808594-106.78125 106.78125s47.808594 106.777344 106.78125 106.777344c5.089844 0 10.097656-.363281 15-1.054688-51.867188-7.292969-91.777344-51.84375-91.777344-105.722656zm0 0" fill="#feca57"/><path d="m80.160156 397.734375c0-35.347656 25.015625-64.84375 58.308594-71.769531-4.84375-1.007813-9.859375-1.542969-15-1.542969-40.488281 0-73.308594 32.824219-73.308594 73.308594 0 40.488281 32.820313 73.308593 73.308594 73.308593 5.140625 0 10.15625-.53125 15-1.539062-33.292969-6.925781-58.308594-36.421875-58.308594-71.765625zm0 0" fill="#f4b537"/><path d="m131.621094 407.183594c.1875-1.09375-.171875-2.203125-.964844-2.976563l-15.40625-15.019531c-1.996094-1.945312-.894531-5.332031 1.863281-5.730469l21.289063-3.097656c.023437 0 .042968-.011719.066406-.015625-1.066406-.175781-1.984375-.851562-2.464844-1.820312l-9.523437-19.296876c-1.230469-2.496093-4.792969-2.496093-6.027344 0l-9.519531 19.296876c-.492188.992187-1.4375 1.675781-2.53125 1.835937l-21.292969 3.097656c-2.757813.398438-3.859375 3.785157-1.863281 5.730469l15.40625 15.019531c.792968.773438 1.15625 1.882813.964844 2.976563l-3.636719 21.203125c-.46875 2.746093 2.414062 4.839843 4.878906 3.542969l19.042969-10.011719c.980468-.515625 2.148437-.515625 3.128906 0l3.726562 1.960937zm0 0" fill="#e59d1f"/><path d="m123.097656 316.910156c-44.558594 0-80.808594 36.253906-80.808594 80.808594 0 44.558594 36.25 80.8125 80.808594 80.8125s80.808594-36.253906 80.808594-80.8125-36.25-80.808594-80.808594-80.808594zm0 146.617188c-36.285156 0-65.808594-29.519532-65.808594-65.808594 0-36.285156 29.523438-65.808594 65.808594-65.808594 36.289063 0 65.808594 29.523438 65.808594 65.808594 0 36.289062-29.519531 65.808594-65.808594 65.808594zm0 0"/><path d="m238.671875 34.230469-26.417969-31.546875s0 0-.003906 0c-1.390625-1.660156-3.519531-2.683594-5.804688-2.683594h-166.753906c-2.097656 0-4.289062.945312-5.746094 2.683594l-26.421874 31.546875c-7.421876 8.867187-9.125 21.398437-4.332032 31.921875l74.957032 164.609375c-6.492188.15625-11.730469 5.476562-11.730469 12.007812v20.507813c0 6.628906 5.390625 12.019531 12.019531 12.019531h20.878906v10.640625c-51.636718 10.976562-90.496094 56.921875-90.496094 111.78125 0 63.015625 51.265626 114.28125 114.277344 114.28125 56.550782 0 103.78125-41.210938 112.746094-95.558594.671875-4.085937-2.09375-7.945312-6.179688-8.621094-4.101562-.675781-7.949218 2.09375-8.621093 6.179688-7.933594 48.09375-49.121094 83-97.945313 83-54.742187 0-99.277344-44.535156-99.277344-99.277344 0-50.808594 38.363282-92.699218 87.300782-98.554687 52.5625-6.359375 101.183594 29.289062 109.921875 82.273437.671875 4.085938 4.527343 6.851563 8.621093 6.179688 4.085938-.675782 6.851563-4.535156 6.179688-8.621094-7.464844-45.25-42.007812-83.054688-88.960938-93.046875v-10.65625h20.878907c6.625 0 12.019531-5.390625 12.019531-12.019531v-20.507813c0-6.53125-5.238281-11.851562-11.734375-12.003906l74.957031-164.613281c4.792969-10.523438 3.09375-23.054688-4.332031-31.921875zm-43.824219-19.230469-13.71875 30.121094h-39.34375c-4.140625 0-7.5 3.359375-7.5 7.5 0 4.144531 3.359375 7.5 7.5 7.5h32.515625l-51.203125 112.445312-51.203125-112.445312h34.890625c4.140625 0 7.5-3.355469 7.5-7.5 0-4.140625-3.359375-7.5-7.5-7.5h-41.71875l-13.714844-30.121094zm-178.003906 44.9375c-2.414062-5.300781-1.558594-11.609375 2.183594-16.074219l18.773437-22.421875 77.054688 169.222656-18.25 40.082032h-1.980469zm115.039062 223.835938c-4.550781-.34375-8.800781-.332032-8.785156-.332032-2.4375 0-5.796875.113282-8.78125.332032v-8.476563h17.566406zm32.898438-23.476563c-5.675781 0-80.382812 0-83.363281 0v-14.546875h83.363281zm64.570312-200.359375-77.78125 170.808594h-38.484374l79.695312-175.007813c0-.003906.003906-.007812.003906-.007812l15.613282-34.289063 18.773437 22.421875c3.738281 4.464844 4.59375 10.773438 2.179687 16.074219zm0 0"/><path d="m160.535156 376.019531-19.136718-2.78125-8.5625-17.339843c-3.980469-8.070313-15.496094-8.070313-19.476563 0l-8.5625 17.339843-19.136719 2.78125c-8.902344 1.292969-12.464844 12.246094-6.023437 18.527344l13.851562 13.5-3.269531 19.0625c-1.519531 8.851563 7.785156 15.640625 15.757812 11.449219l17.121094-9 17.117188 9c7.964844 4.1875 17.28125-2.582032 15.757812-11.449219l-3.269531-19.0625 13.851563-13.5c6.445312-6.28125 2.882812-17.234375-6.019532-18.527344zm-19.855468 22.804688c-2.5625 2.496093-3.730469 6.089843-3.125 9.613281l2.21875 12.9375-11.617188-6.105469c-3.167969-1.667969-6.945312-1.664062-10.109375-.003906l-11.621094 6.109375 2.21875-12.933594c.605469-3.527344-.5625-7.121094-3.125-9.617187l-9.398437-9.164063 12.992187-1.890625c3.535157-.511719 6.589844-2.730469 8.175781-5.941406l5.8125-11.773437 5.808594 11.773437c1.582032 3.207031 4.640625 5.425781 8.179688 5.941406l12.992187 1.890625zm0 0"/></svg>