<svg height="512pt" viewBox="-77 0 512 512" width="512pt" xmlns="http://www.w3.org/2000/svg"><path d="m272.585938 78.960938h-101.566407c.570313 3.9375.871094 7.964843.871094 12.0625 0 46.121093-34.386719 80.511718-80.507813 80.511718-11.886718 0-23.191406-2.488281-33.425781-6.964844v327.773438c0 6.71875 5.449219 12.167969 12.171875 12.167969h267.734375c6.71875 0 12.167969-5.449219 12.167969-12.167969v-335.9375zm0 0" fill="#fff6e9"/><g fill="#f9e4c7"><path d="m106.574219 170.21875c4.804687.859375 9.753906 1.316406 14.808593 1.316406 46.121094 0 80.511719-34.390625 80.511719-80.511718 0-4.097657-.300781-8.121094-.871093-12.0625h-30.003907c.570313 3.9375.871094 7.964843.871094 12.0625 0 40.890624-27.039063 72.539062-65.316406 79.195312zm0 0"/><path d="m87.957031 492.34375v-320.886719c-10.632812-.429687-20.753906-2.84375-30-6.886719v327.773438c0 6.71875 5.449219 12.167969 12.167969 12.167969h30.003906c-6.722656 0-12.171875-5.449219-12.171875-12.167969zm0 0"/><path d="m284.757812 156.40625h65.273438l-77.445312-77.445312v65.277343c0 6.71875 5.449218 12.167969 12.171874 12.167969zm0 0"/></g><path d="m302.589844 144.238281v-35.273437l-30.003906-30.003906v65.277343c0 6.71875 5.449218 12.167969 12.171874 12.167969h30c-6.71875 0-12.167968-5.449219-12.167968-12.167969zm0 0" fill="#f2d5b1"/><path d="m174.890625 91.023438c0 46.121093-37.390625 83.511718-83.511719 83.511718s-83.507812-37.390625-83.507812-83.511718c0-46.121094 37.386718-83.511719 83.507812-83.511719s83.511719 37.390625 83.511719 83.511719zm0 0" fill="#ff6b6b"/><path d="m37.871094 91.023438c0-40.996094 29.554687-75.070313 68.511718-82.140626-4.871093-.882812-9.878906-1.371093-15.003906-1.371093-46.121094 0-83.507812 37.390625-83.507812 83.511719 0 46.121093 37.386718 83.511718 83.507812 83.511718 5.125 0 10.132813-.488281 15.003906-1.371094-38.960937-7.070312-68.511718-41.144531-68.511718-82.140624zm0 0" fill="#ee5253"/><path d="m121.96875 203.828125h163.3125c4.140625 0 7.5-3.355469 7.5-7.5 0-4.140625-3.359375-7.5-7.5-7.5h-163.3125c-4.144531 0-7.5 3.359375-7.5 7.5 0 4.144531 3.355469 7.5 7.5 7.5zm0 0"/><path d="m121.96875 241.988281h163.3125c4.140625 0 7.5-3.359375 7.5-7.5 0-4.144531-3.359375-7.5-7.5-7.5h-163.3125c-4.144531 0-7.5 3.355469-7.5 7.5 0 4.140625 3.355469 7.5 7.5 7.5zm0 0"/><path d="m121.96875 280.144531h163.3125c4.140625 0 7.5-3.355469 7.5-7.5 0-4.140625-3.359375-7.5-7.5-7.5h-163.3125c-4.144531 0-7.5 3.359375-7.5 7.5 0 4.144531 3.355469 7.5 7.5 7.5zm0 0"/><path d="m121.96875 318.304688h163.3125c4.140625 0 7.5-3.359376 7.5-7.5 0-4.144532-3.359375-7.5-7.5-7.5h-163.3125c-4.144531 0-7.5 3.355468-7.5 7.5 0 4.140624 3.355469 7.5 7.5 7.5zm0 0"/><path d="m121.96875 356.460938h163.3125c4.140625 0 7.5-3.359376 7.5-7.5 0-4.140626-3.359375-7.5-7.5-7.5h-163.3125c-4.144531 0-7.5 3.359374-7.5 7.5 0 4.140624 3.355469 7.5 7.5 7.5zm0 0"/><path d="m121.96875 394.621094h163.3125c4.140625 0 7.5-3.359375 7.5-7.5 0-4.144532-3.359375-7.503906-7.5-7.503906h-163.3125c-4.144531 0-7.5 3.359374-7.5 7.503906 0 4.140625 3.355469 7.5 7.5 7.5zm0 0"/><path d="m121.96875 432.777344h163.3125c4.140625 0 7.5-3.355469 7.5-7.5 0-4.140625-3.359375-7.5-7.5-7.5h-163.3125c-4.144531 0-7.5 3.359375-7.5 7.5 0 4.144531 3.355469 7.5 7.5 7.5zm0 0"/><path d="m97.824219 45.738281c-2.671875-5.832031-11.023438-5.75-13.625 0l-34.675781 75.222657c-1.734376 3.761718-.089844 8.21875 3.671874 9.953124 3.761719 1.734376 8.214844.089844 9.949219-3.671874l10.878907-23.59375h33.976562l10.875 23.59375c1.734375 3.761718 6.1875 5.40625 9.949219 3.671874 3.765625-1.734374 5.40625-6.191406 3.671875-9.953124zm-16.886719 42.910157 10.074219-21.851563 10.074219 21.851563zm0 0"/><path d="m58.15625 72.226562v-4.171874h4.175781c4.140625 0 7.5-3.359376 7.5-7.503907 0-4.140625-3.359375-7.5-7.5-7.5h-4.175781v-4.171875c0-4.140625-3.355469-7.5-7.5-7.5-4.140625 0-7.5 3.359375-7.5 7.5v4.171875h-4.171875c-4.144531 0-7.5 3.359375-7.5 7.5 0 4.144531 3.355469 7.503907 7.5 7.503907h4.171875v4.171874c0 4.140626 3.359375 7.5 7.5 7.5 4.144531 0 7.5-3.359374 7.5-7.5zm0 0"/><path d="m221.125 512h116.367188c10.847656 0 19.667968-8.824219 19.667968-19.671875v-164.023437c0-4.140626-3.355468-7.5-7.5-7.5-4.140625 0-7.5 3.359374-7.5 7.5v164.023437c0 2.574219-2.09375 4.671875-4.667968 4.671875h-116.367188c-4.144531 0-7.5 3.355469-7.5 7.5 0 4.140625 3.359375 7.5 7.5 7.5zm0 0"/><path d="m357.164062 156.394531c0-1.867187-.738281-3.84375-2.199218-5.304687l-77.441406-77.445313c-1.316407-1.316406-3.226563-2.195312-5.304688-2.195312h-92.320312c-8.976563-40.8125-45.417969-71.449219-88.886719-71.449219-50.183594 0-91.011719 40.828125-91.011719 91.011719 0 35.472656 20.402344 66.265625 50.085938 81.273437v320.042969c0 10.847656 8.824218 19.671875 19.671874 19.671875h116.367188c4.140625 0 7.5-3.359375 7.5-7.5 0-4.144531-3.359375-7.5-7.5-7.5h-116.367188c-2.574218 0-4.667968-2.097656-4.667968-4.671875v-314.050781c59.839844 17.800781 119.933594-29.003906 116.816406-91.828125h82.8125v57.777343c0 10.84375 8.824219 19.667969 19.667969 19.667969h57.777343v129.410157c0 4.140624 3.355469 7.5 7.5 7.5 4.140626 0 7.5-3.359376 7.5-7.5zm-266.152343 10.625c-41.921875 0-76.011719-34.105469-76.011719-76.007812 0-41.914063 34.097656-76.011719 76.011719-76.011719 42.054687 0 76.007812 34.253906 76.007812 76.011719 0 41.910156-34.097656 76.007812-76.007812 76.007812zm193.375-18.125c-2.574219 0-4.667969-2.09375-4.667969-4.671875v-47.164062l51.835938 51.835937zm0 0"/></svg>