<?xml version="1.0" encoding="iso-8859-1"?>
<!-- Generator: Adobe Illustrator 19.0.0, SVG Export Plug-In . SVG Version: 6.00 Build 0)  -->
<svg version="1.1" id="Layer_1" xmlns="http://www.w3.org/2000/svg" xmlns:xlink="http://www.w3.org/1999/xlink" x="0px" y="0px"
	 viewBox="0 0 512 512" style="enable-background:new 0 0 512 512;" xml:space="preserve" fill="#dee3e5">
<g>
	<g>
		<g>
			<circle cx="256" cy="51.2" r="51.2"/>
			<path d="M341.333,119.467H170.667c-23.564,0-42.667,19.103-42.667,42.667v128c0,14.138,11.461,25.6,25.6,25.6
				c14.138,0,25.6-11.461,25.6-25.6V179.2h17.067v307.2c0,14.138,11.462,25.6,25.6,25.6s25.6-11.461,25.6-25.6V315.733h17.067V486.4
				c0,14.138,11.462,25.6,25.6,25.6s25.6-11.461,25.6-25.6V179.2H332.8v110.933c0,14.138,11.462,25.6,25.6,25.6
				s25.6-11.461,25.6-25.6v-128C384,138.569,364.898,119.467,341.333,119.467z"/>
		</g>
	</g>
</g>
</svg>
