<?xml version="1.0" encoding="iso-8859-1"?>
<!-- Generator: Adobe Illustrator 19.0.0, SVG Export Plug-In . SVG Version: 6.00 Build 0)  -->
<svg version="1.1" id="Layer_1" xmlns="http://www.w3.org/2000/svg" xmlns:xlink="http://www.w3.org/1999/xlink" x="0px" y="0px"
	 viewBox="0 0 512 512" style="enable-background:new 0 0 512 512;" xml:space="preserve" fill="#dee3e5">
<g>
	<g>
		<g>
			<circle cx="255.99" cy="51.2" r="51.2"/>
			<path d="M411.553,235.349l-53.163-94.208c-7.549-13.359-21.69-21.635-37.035-21.675H190.625
				c-15.362,0.057-29.507,8.368-37.035,21.76l-52.992,93.867c-6.956,12.309-2.616,27.926,9.694,34.882
				c0.011,0.006,0.023,0.013,0.034,0.019c12.284,6.847,27.791,2.504,34.731-9.728l47.787-89.6h15.531l-79.531,166.997
				c-2.027,4.255-0.22,9.347,4.035,11.374c1.139,0.542,2.384,0.826,3.645,0.829h59.733V486.4c0,14.138,11.462,25.6,25.6,25.6
				s25.6-11.461,25.6-25.6V349.867h17.067V486.4c0,14.138,11.462,25.6,25.6,25.6s25.6-11.461,25.6-25.6V349.867h59.733
				c4.713-0.013,8.523-3.845,8.509-8.557c-0.004-1.261-0.287-2.506-0.829-3.645l-79.531-166.997h15.531l47.787,89.771
				c7.049,12.256,22.699,16.476,34.955,9.427C413.964,262.913,418.264,247.569,411.553,235.349z"/>
		</g>
	</g>
</g>
<g>
</g>
<g>
</g>
<g>
</g>
<g>
</g>
<g>
</g>
<g>
</g>
<g>
</g>
<g>
</g>
<g>
</g>
<g>
</g>
<g>
</g>
<g>
</g>
<g>
</g>
<g>
</g>
<g>
</g>
</svg>
