<?xml version="1.0" encoding="iso-8859-1"?>
<!-- Generator: Adobe Illustrator 19.0.0, SVG Export Plug-In . SVG Version: 6.00 Build 0)  -->
<svg version="1.1" id="Capa_1" xmlns="http://www.w3.org/2000/svg" xmlns:xlink="http://www.w3.org/1999/xlink" x="0px" y="0px"
	 viewBox="0 0 511.999 511.999" style="enable-background:new 0 0 511.999 511.999;" xml:space="preserve" fill="#fff">
<g>
	<g>
		<path d="M377.003,15.988H45c-24.82,0-45,20.19-45,45V300.99c0,24.82,20.18,45,45,45c31.49,0,35.72,0,35.72,0h9.28v75.001
			c0,13.38,16.22,19.99,25.6,10.61c41.88-41.89,12.47-12.47,81.211-81.211c2.82-2.82,6.62-4.4,10.61-4.4h169.581
			c24.81,0,45-20.18,45-45c0-140.061,0-99.601,0-240.002C422.003,36.178,401.813,15.988,377.003,15.988z M75.001,105.988h212.002
			c8.29,0,15,6.71,15,15s-6.71,15-15,15H75.001c-8.29,0-15-6.71-15-15S66.711,105.988,75.001,105.988z M227.002,255.99H75.001
			c-8.29,0-15-6.71-15-15c0-8.29,6.71-15,15-15h152.001c8.29,0,15,6.71,15,15C242.002,249.28,235.292,255.99,227.002,255.99z
			 M347.003,195.989H75.001c-8.29,0-15-6.71-15-15s6.71-15,15-15h272.002c8.29,0,15,6.71,15,15S355.293,195.989,347.003,195.989z"/>
	</g>
</g>
<g>
	<g>
		<path d="M467,75.989h-14.8v225.002c0,41.353-33.847,75.001-75.201,75.001H215.631l-32,29.8h127.157l85.606,85.806
			c9.405,9.405,25.605,2.804,25.605-10.605v-75.201h45c24.814,0,45-19.986,45-44.8V120.99C512,96.175,491.815,75.989,467,75.989z"/>
	</g>
</g>

</svg>
