<svg height="512pt" viewBox="0 0 511 512" width="512pt" xmlns="http://www.w3.org/2000/svg" fill="#fff"><path d="m467.449219 111.988281h-88.945313c-5.347656-62.644531-58.035156-111.988281-122.039062-111.988281s-116.695313 49.34375-122.042969 111.988281h-88.925781c-24.8125 0-44.996094 20.183594-44.996094 44.996094v309.964844c0 24.8125 20.183594 44.996093 44.996094 44.996093h217.25c.378906.027344.761718.054688 1.144531.054688s.765625-.027344 1.148437-.054688h202.410157c24.8125 0 44.996093-20.183593 44.996093-44.996093v-309.964844c0-24.8125-20.183593-44.996094-44.996093-44.996094zm-179.375 345.253907 24.707031 24.707031h-42.730469l-239.554687-239.664063v-43.0625l215.144531 215.585938c2.8125 2.816406 6.628906 4.402344 10.609375 4.402344h.007812c3.976563 0 7.789063-1.578126 10.605469-4.390626l215.582031-215.585937v41.953125l-194.382812 194.855469c-5.847656 5.859375-5.839844 15.347656.011719 21.199219zm-257.578125-172.523438 62.121094 62.148438-62.121094 62.121093zm451.953125-1.058594v128.796875l-64.320313-64.320312zm-225.984375-253.664062c51.003906 0 92.496094 41.496094 92.496094 92.5 0 42.144531-28.449219 78.96875-69.1875 89.539062-4.628907 1.203125-8.410157 4.542969-10.171876 8.988282l-13.140624 33.132812-13.136719-33.132812c-1.761719-4.449219-5.542969-7.789063-10.175781-8.988282-40.734376-10.574218-69.183594-47.394531-69.183594-89.539062 0-51.003906 41.492187-92.5 92.5-92.5zm-210.96875 111.988281h90.023437c7.203125 44.863281 38.886719 82.53125 82.613281 96.886719l24.386719 61.507812c2.265625 5.714844 7.792969 9.46875 13.941407 9.46875 6.152343 0 11.675781-3.753906 13.945312-9.46875l24.386719-61.507812c43.726562-14.355469 75.414062-52.023438 82.613281-96.886719h90.042969c8.214843 0 14.902343 6.640625 14.992187 14.835937l-226.175781 226.171876-225.757813-226.222657c.117188-8.171875 6.789063-14.785156 14.988282-14.785156zm-15 324.964844v-15.636719c.34375-.289062.683594-.585938 1.003906-.910156l82.324219-82.320313 113.816406 113.867188h-182.144531c-8.269532 0-15-6.730469-15-15zm436.953125 15h-112.246094l-35.328125-35.328125 77.066406-77.25 85.507813 85.507812v12.070313c0 8.269531-6.730469 15-15 15zm0 0"/><path d="m256.464844 167.492188c24.808594 0 44.992187-20.1875 44.992187-44.996094 0-24.8125-20.183593-44.996094-44.992187-44.996094-24.8125 0-44.996094 20.183594-44.996094 44.996094 0 24.808594 20.183594 44.996094 44.996094 44.996094zm0-59.996094c8.269531 0 14.996094 6.730468 14.996094 15 0 8.269531-6.726563 15-14.996094 15-8.269532 0-15-6.730469-15-15 0-8.269532 6.730468-15 15-15zm0 0"/></svg>
