<svg xmlns="http://www.w3.org/2000/svg" height="922pt" version="1.1" viewBox="0 0 922.50079 922" width="922pt" fill="#fff">
<g id="surface1">
<path d="M 329.460938 247.359375 C 329.460938 265.546875 314.71875 280.304688 296.515625 280.304688 C 278.320312 280.304688 263.566406 265.546875 263.566406 247.359375 C 263.566406 229.15625 278.320312 214.40625 296.515625 214.40625 C 314.71875 214.40625 329.460938 229.15625 329.460938 247.359375 Z M 329.460938 247.359375 " style=" stroke:none;fill-rule:nonzero;fill:#fff;fill-opacity:1;" />
<path d="M 434.472656 333.328125 C 490.761719 288.429688 560.589844 263.9375 632.574219 263.828125 L 635.863281 263.828125 C 707.875 263.925781 777.714844 288.421875 834.007812 333.328125 C 858.339844 352.714844 885.679688 368.003906 914.933594 378.597656 C 903.066406 313.640625 877.316406 252.023438 839.4375 197.941406 L 551.847656 197.941406 C 511.378906 197.882812 471.476562 188.460938 435.253906 170.410156 L 406.617188 156.09375 C 342.363281 124.640625 267.160156 124.640625 202.902344 156.09375 L 174.238281 170.410156 C 146.175781 183.476562 116.085938 191.683594 85.285156 194.710938 C 42.8125 254.296875 15.203125 323.183594 4.78125 395.617188 L 256.984375 395.617188 C 321.492188 395.523438 384.054688 373.5625 434.472656 333.328125 Z M 230.621094 247.359375 C 230.621094 210.964844 260.128906 181.464844 296.515625 181.464844 C 332.914062 181.464844 362.40625 210.964844 362.40625 247.359375 C 362.40625 283.742188 332.914062 313.246094 296.515625 313.246094 C 260.128906 313.246094 230.621094 283.742188 230.621094 247.359375 Z M 230.621094 247.359375 " style=" stroke:none;fill-rule:nonzero;fill:#fff;fill-opacity:1;" />
<path d="M 188.183594 126.621094 C 261.726562 90.597656 347.800781 90.597656 421.355469 126.621094 L 449.980469 140.9375 C 481.625 156.71875 516.503906 164.945312 551.847656 164.988281 L 814.183594 164.988281 C 728.039062 62.144531 601.300781 2 467.140625 0.289062 C 332.992188 -1.410156 204.773438 55.476562 116.023438 156.09375 C 131.050781 152.738281 145.65625 147.65625 159.511719 140.9375 Z M 188.183594 126.621094 " style=" stroke:none;fill-rule:nonzero;fill:#fff;fill-opacity:1;" />
<path d="M 428.296875 823.914062 C 383.660156 823.914062 345.933594 846.546875 345.933594 873.332031 C 345.933594 892.644531 365.707031 909.574219 393.3125 917.710938 C 407.925781 919.894531 422.765625 921.398438 437.792969 922.160156 C 478.125 919.195312 510.667969 898.179688 510.667969 873.332031 C 510.664062 846.546875 472.945312 823.914062 428.296875 823.914062 Z M 428.296875 823.914062 " style=" stroke:none;fill-rule:nonzero;fill:#fff;fill-opacity:1;" />
<path d="M 711.789062 515.554688 C 660.699219 465.449219 578.90625 465.449219 527.816406 515.554688 C 490.0625 553.964844 438.710938 575.976562 384.859375 576.824219 L 14.597656 576.824219 C 17.222656 586.917969 20.277344 596.917969 23.589844 606.851562 C 24.28125 608.890625 24.957031 610.9375 25.667969 612.960938 C 29.097656 622.839844 32.785156 632.523438 36.886719 642.128906 L 37.136719 642.710938 L 384.859375 642.710938 C 438.722656 643.554688 490.074219 665.558594 527.816406 703.980469 C 578.90625 754.082031 660.699219 754.082031 711.789062 703.980469 C 749.546875 665.558594 800.894531 643.554688 854.746094 642.710938 L 885.363281 642.710938 L 885.617188 642.144531 C 889.71875 632.523438 893.414062 622.777344 896.84375 612.960938 C 897.550781 610.9375 898.222656 608.898438 898.914062 606.851562 C 902.207031 596.96875 905.285156 586.917969 907.90625 576.824219 L 854.746094 576.824219 C 800.894531 575.972656 749.546875 553.964844 711.789062 515.554688 Z M 619.804688 708.601562 C 565.210938 708.601562 520.960938 664.359375 520.960938 609.765625 C 520.960938 555.175781 565.210938 510.925781 619.804688 510.925781 C 674.386719 510.925781 718.640625 555.175781 718.640625 609.765625 C 718.589844 664.328125 674.367188 708.546875 619.804688 708.601562 Z M 619.804688 708.601562 " style=" stroke:none;fill-rule:nonzero;fill:#fff;fill-opacity:1;" />
<path d="M 734.855469 727.511719 C 670.941406 790.15625 568.660156 790.15625 504.753906 727.511719 C 473.160156 695.144531 430.078125 676.511719 384.859375 675.65625 L 52.917969 675.65625 C 109.09375 782.304688 204.601562 862.867188 319.1875 900.269531 C 315.152344 891.855469 313.042969 882.664062 312.988281 873.332031 C 312.988281 827.214844 363.652344 790.972656 428.296875 790.972656 C 492.964844 790.972656 543.609375 827.214844 543.609375 873.332031 C 543.386719 890.027344 536.921875 906.019531 525.5 918.1875 C 672.480469 897.28125 800.492188 807.058594 869.585938 675.65625 L 854.765625 675.65625 C 809.527344 676.527344 766.457031 695.148438 734.855469 727.511719 Z M 734.855469 727.511719 " style=" stroke:none;fill-rule:nonzero;fill:#fff;fill-opacity:1;" />
<path d="M 920.117188 414.625 C 881.335938 403.042969 845.105469 384.1875 813.359375 359.0625 C 762.945312 318.816406 700.375 296.875 635.863281 296.777344 L 632.574219 296.777344 C 568.042969 296.851562 505.453125 318.8125 455.023438 359.0625 C 398.761719 403.941406 328.953125 428.4375 256.984375 428.558594 L 1.296875 428.558594 C 0.53125 439.449219 0 450.414062 0 461.507812 C 0.0351562 489.128906 2.546875 516.699219 7.507812 543.871094 L 384.859375 543.871094 C 430.085938 543.011719 473.160156 524.382812 504.761719 492.015625 C 568.660156 429.375 670.941406 429.375 734.859375 492.015625 C 766.457031 524.371094 809.519531 543.003906 854.746094 543.871094 L 914.992188 543.871094 C 922.796875 501.25 924.535156 457.734375 920.117188 414.625 Z M 920.117188 414.625 " style=" stroke:none;fill-rule:nonzero;fill:#fff;fill-opacity:1;" />
<path d="M 685.695312 609.765625 C 685.695312 646.144531 656.199219 675.65625 619.804688 675.65625 C 583.410156 675.65625 553.910156 646.144531 553.910156 609.765625 C 553.910156 573.371094 583.410156 543.871094 619.804688 543.871094 C 656.199219 543.871094 685.695312 573.371094 685.695312 609.765625 Z M 685.695312 609.765625 " style=" stroke:none;fill-rule:nonzero;fill:#fff;fill-opacity:1;" />
</g>
</svg>