<?xml version="1.0" encoding="iso-8859-1"?>
<!-- Generator: Adobe Illustrator 19.0.0, SVG Export Plug-In . SVG Version: 6.00 Build 0)  -->
<svg version="1.1" id="Layer_1" xmlns="http://www.w3.org/2000/svg" xmlns:xlink="http://www.w3.org/1999/xlink" x="0px" y="0px"
	 viewBox="0 0 512 512" style="enable-background:new 0 0 512 512;" xml:space="preserve" fill="#fff">
<g>
	<g>
		<g>
			<path d="M490.667,234.667h-64V35.371C426.667,14.549,412.117,0,391.296,0H37.589C16.875,0,0,16.875,0,37.589v436.821
				C0,495.125,16.875,512,37.589,512H448c35.285,0,64-28.715,64-64V256C512,244.224,502.443,234.667,490.667,234.667z M64,85.333
				C64,73.557,73.557,64,85.333,64h128c11.776,0,21.333,9.557,21.333,21.333V192c0,11.776-9.557,21.333-21.333,21.333h-128
				C73.557,213.333,64,203.776,64,192V85.333z M170.667,426.667H85.333c-11.776,0-21.333-9.557-21.333-21.333S73.557,384,85.333,384
				h85.333c11.776,0,21.333,9.557,21.333,21.333S182.443,426.667,170.667,426.667z M170.667,362.667H85.333
				c-11.776,0-21.333-9.557-21.333-21.333C64,329.557,73.557,320,85.333,320h85.333c11.776,0,21.333,9.557,21.333,21.333
				C192,353.109,182.443,362.667,170.667,362.667z M341.333,426.667H256c-11.776,0-21.333-9.557-21.333-21.333S244.224,384,256,384
				h85.333c11.776,0,21.333,9.557,21.333,21.333S353.109,426.667,341.333,426.667z M341.333,362.667H256
				c-11.776,0-21.333-9.557-21.333-21.333c0-11.776,9.557-21.333,21.333-21.333h85.333c11.776,0,21.333,9.557,21.333,21.333
				C362.667,353.109,353.109,362.667,341.333,362.667z M341.333,298.667h-256c-11.776,0-21.333-9.557-21.333-21.333
				S73.557,256,85.333,256h256c11.776,0,21.333,9.557,21.333,21.333S353.109,298.667,341.333,298.667z M341.333,192h-64
				C265.557,192,256,182.443,256,170.667s9.557-21.333,21.333-21.333h64c11.776,0,21.333,9.557,21.333,21.333
				S353.109,192,341.333,192z M341.333,128h-64C265.557,128,256,118.443,256,106.667s9.557-21.333,21.333-21.333h64
				c11.776,0,21.333,9.557,21.333,21.333S353.109,128,341.333,128z M469.333,448c0,11.755-9.579,21.333-21.333,21.333
				c-10.56,0-21.333-10.773-21.333-21.333V277.333h42.667V448z"/>
			<rect x="106.667" y="106.667" width="85.333" height="64"/>
		</g>
	</g>
</g>
</svg>
