<?xml version="1.0"?>
<svg xmlns="http://www.w3.org/2000/svg" id="Solid" viewBox="0 0 512 512" width="512" height="512" fill="#fff"><path d="M64,328V72a8,8,0,0,1,8-8H264a8,8,0,0,1,8,8v56h17.387A24.109,24.109,0,0,1,304,113.371V94.629a24,24,0,0,1,0-45.258V32H286.629a24,24,0,0,1-45.258,0H222.629a24,24,0,0,1-45.258,0H158.629a24,24,0,0,1-45.258,0H94.629a24,24,0,0,1-45.258,0H32V49.371a24,24,0,0,1,0,45.258v18.742a24,24,0,0,1,0,45.258v18.742a24,24,0,0,1,0,45.258v18.742a24,24,0,0,1,0,45.258v18.742a24,24,0,0,1,0,45.258V368H49.371a24,24,0,0,1,45.258,0h18.742a24,24,0,0,1,45.258,0h18.739A23.994,23.994,0,0,1,192,353.375V336H72A8,8,0,0,1,64,328Z"/><path d="M200,304a8,8,0,0,1-8-8V264a8,8,0,0,1,8-8,8,8,0,0,0,.844-15.954,174.553,174.553,0,0,1-30.035,15.445,8.005,8.005,0,0,1-5.618,0C162.366,254.431,96,229.026,96,184a39.988,39.988,0,0,1,72-23.975,40.058,40.058,0,0,1,24-15.205V136a8,8,0,0,1,8-8h32a8,8,0,0,1,8,8,8,8,0,0,0,16,0V80H80V320H200a8,8,0,0,0,0-16Z"/><polygon points="280 355.313 256 379.313 256 432 260.847 432 310.419 385.733 280 355.313"/><path d="M176,184a8,8,0,0,1-16,0,24,24,0,0,0-48,0c0,26.67,38.016,47.95,55.962,55.381A166.057,166.057,0,0,0,192,226.706V200a8,8,0,0,1,8-8,8,8,0,0,0,0-16,8,8,0,0,1-8-8v-6.624A24.038,24.038,0,0,0,176,184Z"/><polygon points="284.296 432 432 432 432 379.679 384.227 338.731 284.296 432"/><path d="M440,160a24.042,24.042,0,0,1-22.629-16H398.629a24,24,0,0,1-45.258,0H334.629a24,24,0,0,1-45.258,0H270.629a24,24,0,0,1-45.258,0H208v17.371a24,24,0,0,1,0,45.258v18.742a24,24,0,0,1,0,45.258v18.742a24,24,0,0,1,0,45.258v18.742a24,24,0,0,1,0,45.258v18.742a24,24,0,0,1,0,45.258V480h17.371a24,24,0,0,1,45.258,0h18.742a24,24,0,0,1,45.258,0h18.742a24,24,0,0,1,45.258,0h18.742a24,24,0,0,1,45.258,0H480V462.629a24,24,0,0,1,0-45.258V398.629a24,24,0,0,1,0-45.258V334.629a24,24,0,0,1,0-45.258V270.629a24,24,0,0,1,0-45.258V206.629a24,24,0,0,1,0-45.258V144H462.629A24.042,24.042,0,0,1,440,160Zm8,280a8,8,0,0,1-8,8H248a8,8,0,0,1-8-8V184a8,8,0,0,1,8-8H440a8,8,0,0,1,8,8Z"/><path d="M256,356.686l18.343-18.343a8,8,0,0,1,11.314,0l36.466,36.466,56.418-52.658a8,8,0,0,1,10.665-.225L432,358.606V192H256ZM368,224a32,32,0,1,1-32,32A32.036,32.036,0,0,1,368,224Z"/><circle cx="368" cy="256" r="16"/></svg>
