<svg height="512pt" viewBox="0 0 512 512" width="512pt" fill="#fff" xmlns="http://www.w3.org/2000/svg"><path d="m456.835938 208.867188h-192.800782c-30.417968 0-55.164062 24.746093-55.164062 55.164062v104.75l-49.953125 35.679688c-3.941407 2.8125-6.28125 7.359374-6.28125 12.203124 0 4.847657 2.339843 9.394532 6.28125 12.207032l50.554687 36.109375c3.949219 26.570312 26.914063 47.019531 54.5625 47.019531h192.800782c30.417968 0 55.164062-24.746094 55.164062-55.167969v-192.800781c0-30.417969-24.746094-55.164062-55.164062-55.164062zm-64.828126 210.773437c-3.535156 0-6.265624-1.121094-7.066406-4.175781l-6.109375-21.371094h-36.796875l-6.101562 21.371094c-.804688 3.054687-3.535156 4.175781-7.070313 4.175781-5.625 0-13.175781-3.53125-13.175781-8.671875 0-.324219.160156-.964844.320312-1.609375l31.011719-101.0625c1.445313-4.820313 7.390625-7.074219 13.335938-7.074219 6.105469 0 12.050781 2.253906 13.496093 7.074219l31.011719 101.0625c.160157.644531.320313 1.125.320313 1.609375 0 4.976562-7.550782 8.671875-13.175782 8.671875zm0 0"/><path d="m346.375 377.703125h27.960938l-13.984376-49.324219zm0 0"/><path d="m178.871094 264.03125c0-20.140625 7.042968-38.65625 18.773437-53.253906-17.113281 0-32.992187-5.355469-46.082031-14.453125-13.089844 9.101562-28.96875 14.453125-46.085938 14.453125-4.667968 0-8.457031-3.789063-8.457031-8.460938s3.789063-8.457031 8.457031-8.457031c11.988282 0 23.207032-3.320313 32.8125-9.070313-11.585937-12.503906-19.289062-28.648437-21.152343-46.515624h-11.65625c-4.671875 0-8.460938-3.785157-8.460938-8.457032s3.789063-8.460937 8.460938-8.460937h37.628906v-20.539063c0-4.675781 3.785156-8.460937 8.457031-8.460937s8.457032 3.785156 8.457032 8.460937v20.539063h37.628906c4.671875 0 8.460937 3.789062 8.460937 8.460937s-3.789062 8.457032-8.460937 8.457032h-11.65625c-1.863282 17.867187-9.566406 34.011718-21.152344 46.515624 9.601562 5.757813 20.824219 9.070313 32.808594 9.070313 4.464844 0 8.113281 3.460937 8.429687 7.847656 15.214844-14.15625 35.585938-22.839843 57.957031-22.839843h39.09375v-35.648438l49.953126-35.679688c3.9375-2.8125 6.277343-7.359374 6.277343-12.203124 0-4.847657-2.339843-9.394532-6.277343-12.207032l-50.554688-36.109375c-3.953125-26.570312-26.917969-47.019531-54.566406-47.019531h-192.796875c-30.421875 0-55.167969 24.746094-55.167969 55.164062v192.804688c0 30.417969 24.746094 55.164062 55.167969 55.164062h123.703125zm0 0"/><path d="m151.5625 174.21875c9.257812-9.605469 15.542969-22.078125 17.382812-35.941406h-34.761718c1.839844 13.863281 8.128906 26.335937 17.378906 35.941406zm0 0"/></svg>