<?xml version="1.0" encoding="UTF-8" standalone="no"?>
<svg
   xmlns:dc="http://purl.org/dc/elements/1.1/"
   xmlns:cc="http://creativecommons.org/ns#"
   xmlns:rdf="http://www.w3.org/1999/02/22-rdf-syntax-ns#"
   xmlns:svg="http://www.w3.org/2000/svg"
   xmlns="http://www.w3.org/2000/svg"
   xmlns:sodipodi="http://sodipodi.sourceforge.net/DTD/sodipodi-0.dtd"
   xmlns:inkscape="http://www.inkscape.org/namespaces/inkscape"
   width="62.567871mm"
   height="78.706161mm"
   viewBox="0 0 62.567871 78.706161"
   version="1.1"
   id="svg1227"
   inkscape:version="1.0.1 (3bc2e813f5, 2020-09-07)"
   sodipodi:docname="intercatpol3.svg">
  <defs
     id="defs1221" />
  <sodipodi:namedview
     id="base"
     pagecolor="#ffffff"
     bordercolor="#666666"
     borderopacity="1.0"
     inkscape:pageopacity="0.0"
     inkscape:pageshadow="2"
     inkscape:zoom="1.5325895"
     inkscape:cx="189.87818"
     inkscape:cy="231.24894"
     inkscape:document-units="mm"
     inkscape:current-layer="layer1"
     inkscape:document-rotation="0"
     showgrid="true"
     inkscape:snap-others="false"
     inkscape:object-nodes="false"
     inkscape:snap-nodes="false"
     showguides="true"
     inkscape:lockguides="false"
     inkscape:window-width="1920"
     inkscape:window-height="993"
     inkscape:window-x="0"
     inkscape:window-y="31"
     inkscape:window-maximized="1" />
  <metadata
     id="metadata1224">
    <rdf:RDF>
      <cc:Work
         rdf:about="">
        <dc:format>image/svg+xml</dc:format>
        <dc:type
           rdf:resource="http://purl.org/dc/dcmitype/StillImage" />
        <dc:title />
      </cc:Work>
    </rdf:RDF>
  </metadata>
  <g
     inkscape:label="Layer 1"
     inkscape:groupmode="layer"
     id="layer1"
     transform="translate(-71.90357,-128.46629)">
    <g
       aria-label="INTERCATPOL"
       transform="matrix(0.71372999,-0.023877,0.0247396,0.73951663,24.78903,45.3942)"
       id="text1233"
       style="font-style:normal;font-variant:normal;font-weight:bold;font-stretch:normal;font-size:4.93889px;line-height:1.25;font-family:sans-serif;-inkscape-font-specification:'sans-serif, Bold';font-variant-ligatures:normal;font-variant-caps:normal;font-variant-numeric:normal;font-variant-east-asian:normal;letter-spacing:0.394229px;fill:#ffffff;fill-opacity:1;stroke:none;stroke-width:0.264583">
      <path
         d="m 82.367725,197.98194 0.983736,0.39771 -1.542285,3.81485 -0.983736,-0.39771 z"
         style="font-style:normal;font-variant:normal;font-weight:bold;font-stretch:normal;font-size:5.64444px;font-family:sans-serif;-inkscape-font-specification:'sans-serif, Bold';font-variant-ligatures:normal;font-variant-caps:normal;font-variant-numeric:normal;font-variant-east-asian:normal;fill:#ffffff"
         id="path1381" />
      <path
         d="m 84.581208,198.93702 1.108637,0.41883 0.402582,3.16899 0.997393,-2.6401 0.941052,0.35552 -1.454207,3.84928 -1.108636,-0.41882 -0.402583,-3.16899 -0.997392,2.6401 -0.941052,-0.35552 z"
         style="font-style:normal;font-variant:normal;font-weight:bold;font-stretch:normal;font-size:5.64444px;font-family:sans-serif;-inkscape-font-specification:'sans-serif, Bold';font-variant-ligatures:normal;font-variant-caps:normal;font-variant-numeric:normal;font-variant-east-asian:normal;fill:#ffffff"
         id="path1383" />
      <path
         d="m 88.643006,200.45196 3.635425,1.07966 -0.22833,0.76883 -1.307802,-0.38839 -0.943134,3.17571 -1.017179,-0.30209 0.943134,-3.17571 -1.310444,-0.38918 z"
         style="font-style:normal;font-variant:normal;font-weight:bold;font-stretch:normal;font-size:5.64444px;font-family:sans-serif;-inkscape-font-specification:'sans-serif, Bold';font-variant-ligatures:normal;font-variant-caps:normal;font-variant-numeric:normal;font-variant-east-asian:normal;fill:#ffffff"
         id="path1385" />
      <path
         d="m 92.914163,201.68112 2.795705,0.61969 -0.173561,0.78301 -1.75976,-0.39006 -0.165808,0.74803 1.654821,0.36681 -0.173561,0.78301 -1.654821,-0.36681 -0.203979,0.92025 1.818958,0.40318 -0.173561,0.78301 -2.854902,-0.63281 z"
         style="font-style:normal;font-variant:normal;font-weight:bold;font-stretch:normal;font-size:5.64444px;font-family:sans-serif;-inkscape-font-specification:'sans-serif, Bold';font-variant-ligatures:normal;font-variant-caps:normal;font-variant-numeric:normal;font-variant-east-asian:normal;fill:#ffffff"
         id="path1387" />
      <path
         d="m 97.992268,204.5134 q 0.330337,0.0457 0.489301,-0.0575 0.161693,-0.10283 0.200604,-0.38402 0.03853,-0.27847 -0.08954,-0.41861 -0.12534,-0.13977 -0.455678,-0.18548 l -0.442269,-0.0612 -0.144691,1.04561 z m -0.54276,0.66499 -0.213446,1.54249 -1.051073,-0.14545 0.564028,-4.07598 1.605275,0.22214 q 0.805367,0.11144 1.141985,0.43348 0.339348,0.32241 0.258503,0.90664 -0.05591,0.40405 -0.288365,0.6362 -0.229724,0.23254 -0.639852,0.30099 0.208874,0.079 0.35396,0.27713 0.148193,0.19579 0.274183,0.57215 l 0.410404,1.2365 -1.119325,-0.15489 -0.356714,-1.08161 q -0.107842,-0.32654 -0.247966,-0.46001 -0.137394,-0.13309 -0.39402,-0.1686 z"
         style="font-style:normal;font-variant:normal;font-weight:bold;font-stretch:normal;font-size:5.64444px;font-family:sans-serif;-inkscape-font-specification:'sans-serif, Bold';font-variant-ligatures:normal;font-variant-caps:normal;font-variant-numeric:normal;font-variant-east-asian:normal;fill:#ffffff"
         id="path1389" />
      <path
         d="m 104.15945,207.08743 q -0.29891,0.13776 -0.61912,0.20003 -0.32021,0.0623 -0.66435,0.0462 -1.02689,-0.0481 -1.60026,-0.64879 -0.57323,-0.60348 -0.52723,-1.58632 0.0461,-0.9856 0.67309,-1.53014 0.6271,-0.5473 1.65399,-0.49924 0.34413,0.0161 0.65713,0.10801 0.31299,0.0919 0.59773,0.25698 l -0.0398,0.85069 q -0.28517,-0.21476 -0.56711,-0.32176 -0.28193,-0.10701 -0.59853,-0.12182 -0.56714,-0.0265 -0.909,0.32165 -0.34187,0.3482 -0.37177,0.98691 -0.0298,0.63596 0.27809,1.01457 0.30786,0.37861 0.87499,0.40515 0.3166,0.0148 0.6073,-0.0654 0.2907,-0.0802 0.59468,-0.26739 z"
         style="font-style:normal;font-variant:normal;font-weight:bold;font-stretch:normal;font-size:5.64444px;font-family:sans-serif;-inkscape-font-specification:'sans-serif, Bold';font-variant-ligatures:normal;font-variant-caps:normal;font-variant-numeric:normal;font-variant-east-asian:normal;fill:#ffffff"
         id="path1391" />
      <path
         d="m 107.88332,206.43651 -1.65728,0.079 -0.22585,0.76127 -1.0654,0.0508 1.32655,-4.18269 1.26361,-0.0602 1.71821,4.03762 -1.06539,0.0508 z m -1.42933,-0.69619 1.12596,-0.0537 -0.63952,-1.6085 z"
         style="font-style:normal;font-variant:normal;font-weight:bold;font-stretch:normal;font-size:5.64444px;font-family:sans-serif;-inkscape-font-specification:'sans-serif, Bold';font-variant-ligatures:normal;font-variant-caps:normal;font-variant-numeric:normal;font-variant-east-asian:normal;fill:#ffffff"
         id="path1393" />
      <path
         d="m 108.65812,203.02942 3.75217,-0.55067 0.11645,0.79352 -1.3498,0.1981 0.48104,3.27769 -1.04985,0.15407 -0.48103,-3.27769 -1.35252,0.1985 z"
         style="font-style:normal;font-variant:normal;font-weight:bold;font-stretch:normal;font-size:5.64444px;font-family:sans-serif;-inkscape-font-specification:'sans-serif, Bold';font-variant-ligatures:normal;font-variant-caps:normal;font-variant-numeric:normal;font-variant-east-asian:normal;fill:#ffffff"
         id="path1395" />
      <path
         d="m 112.9064,202.36263 1.70558,-0.43885 q 0.7607,-0.19572 1.25363,0.0389 0.49491,0.23124 0.65562,0.85581 0.16138,0.62725 -0.15977,1.07131 -0.31918,0.4407 -1.07989,0.63642 l -0.67796,0.17444 0.35575,1.38262 -1.02762,0.2644 z m 1.21923,0.48028 0.28638,1.11303 0.56852,-0.14628 q 0.29895,-0.0769 0.42468,-0.26294 0.12504,-0.1887 0.0564,-0.45561 -0.0687,-0.26692 -0.26858,-0.36916 -0.1999,-0.10224 -0.49885,-0.0253 z"
         style="font-style:normal;font-variant:normal;font-weight:bold;font-stretch:normal;font-size:5.64444px;font-family:sans-serif;-inkscape-font-specification:'sans-serif, Bold';font-variant-ligatures:normal;font-variant-caps:normal;font-variant-numeric:normal;font-variant-east-asian:normal;fill:#ffffff"
         id="path1397" />
      <path
         d="m 118.809,201.28431 q -0.4517,0.1768 -0.57005,0.60789 -0.11835,0.43108 0.11873,1.03677 0.23607,0.60312 0.61561,0.83932 0.37954,0.2362 0.83124,0.0594 0.45427,-0.17781 0.57262,-0.60889 0.11836,-0.43109 -0.11772,-1.03421 -0.23708,-0.60569 -0.61662,-0.84188 -0.37954,-0.2362 -0.83381,-0.0584 z m -0.28027,-0.71605 q 0.92393,-0.36164 1.65443,-0.0379 0.7305,0.32376 1.09516,1.25539 0.36366,0.92906 0.047,1.66269 -0.31662,0.73362 -1.24055,1.09527 -0.92136,0.36064 -1.65443,0.0379 -0.73051,-0.32376 -1.09416,-1.25282 -0.36466,-0.93163 -0.048,-1.66526 0.31919,-0.73463 1.24055,-1.09527 z"
         style="font-style:normal;font-variant:normal;font-weight:bold;font-stretch:normal;font-size:5.64444px;font-family:sans-serif;-inkscape-font-specification:'sans-serif, Bold';font-variant-ligatures:normal;font-variant-caps:normal;font-variant-numeric:normal;font-variant-east-asian:normal;fill:#ffffff"
         id="path1399" />
      <path
         d="m 121.16865,199.51776 0.93747,-0.49704 1.55182,2.92686 1.64606,-0.87274 0.37569,0.70858 -2.58353,1.36979 z"
         style="font-style:normal;font-variant:normal;font-weight:bold;font-stretch:normal;font-size:5.64444px;font-family:sans-serif;-inkscape-font-specification:'sans-serif, Bold';font-variant-ligatures:normal;font-variant-caps:normal;font-variant-numeric:normal;font-variant-east-asian:normal;fill:#ffffff"
         id="path1401" />
    </g>
    <path
       d="m 134.44719,198.45319 c 0,0 -1.89884,0.001 -2.86221,0.001 -1.17043,-3.03225 -2.32633,-6.07253 -3.40301,-9.19996 1.11378,-1.4065 2.47265,-2.57042 3.62854,-3.93463 -1.07,-0.19052 -2.49638,0.1103 -3.62854,0 2.02016,-1.73272 3.03627,-4.46917 3.56804,-7.68885 -0.70775,0.29999 -1.58088,0.96062 -2.58378,1.16894 1.77759,-2.59407 2.86748,-6.1886 2.58378,-10.64072 -0.8656,0.73366 -1.46599,2.06053 -2.33686,2.58303 1.62418,-3.5535 1.24957,-9.92802 -1.53885,-11.87115 -0.69021,0.54064 -1.02905,1.43249 -1.41427,2.27695 -0.99362,-1.11779 -1.98599,-2.23793 -2.82895,-3.50688 -0.58242,0.77127 -0.82642,1.9341 -1.04677,3.01337 -0.69021,-0.92836 -1.4644,-1.83884 -2.55704,-2.72007 1.25107,-1.64038 2.40688,-3.27383 3.65896,-4.91287 -4.377,-4.05078 -10.02821,-6.50454 -17.89271,-7.06666 0.0928,-1.04326 0.34595,-2.32299 0.34595,-2.32299 h 3.59043 v 1.04167 l 1.36723,-0.001 c 0,0 0.004,-0.47546 0.004,-0.75205 1.7353,0.68855 1.66144,-2.46362 -0.004,-1.70555 v -0.74537 l -1.36723,-0.004 v 0.9744 h -4.16717 l -0.62922,-10.93819 0.66264,0.008 0.0167,-1.36222 c 0,0 -0.98452,0 -1.48839,-0.0167 1.2733,-1.75687 -2.08827,-2.25773 -2.26383,-0.84722 -0.0502,0.41028 0.14707,0.71611 0.41614,0.85382 -0.46961,0.0167 -1.58874,0.008 -1.58874,0.008 l 0.0167,1.34859 0.73784,0.006 -0.50387,10.93877 -4.118714,0.006 v -0.92234 l -1.427971,0.006 c 0,0 0.0079,0.67935 -0.0045,0.82809 -1.176285,-0.85658 -1.667038,1.21581 -0.815553,1.65793 0.383544,0.1362 0.683527,0.0167 0.811375,-0.13704 0.0084,0.24483 0.0084,0.83786 0.0084,0.83786 h 1.429641 l -0.0084,-1.0893 3.564792,0.008 c 0,0 0.32003,1.55515 0.31335,2.2538 -8.016909,0.42951 -13.738985,2.94251 -18.162861,6.96629 1.202941,1.77032 2.610774,3.20531 3.804941,4.98474 -0.85959,0.84163 -1.736561,1.94563 -2.658905,2.94452 -0.252353,-1.08078 -0.559857,-2.32308 -0.943234,-3.27107 -1.040415,1.19416 -1.975377,2.42259 -2.899643,3.79357 -0.249847,-0.8966 -0.726144,-1.7887 -1.282826,-2.37922 -2.26941,1.84034 -3.309876,6.32923 -2.33743,9.96379 0.21893,0.81889 0.747452,1.53476 0.615009,2.33761 -0.963399,-0.77962 -1.614629,-1.87026 -2.275696,-2.95237 -0.719792,4.20929 0.850516,7.93301 2.275696,10.39463 -1.022593,-0.12367 -1.683158,-0.61166 -2.39838,-1.04576 0.498859,3.41738 2.26886,5.88911 4.058816,7.81135 -1.292936,-0.0418 -2.667921,-0.31921 -3.9981,-0.122 0.574647,0.65762 1.21077,1.36421 1.82699,1.98038 0.621525,0.6217 1.124093,1.20755 1.741524,1.89383 -1.242716,3.10319 -3.558662,9.26815 -3.558662,9.26815 l -2.594789,0.008 0.0026,1.60854 h 1.475859 c 3.257902,2.23133 7.15852,3.95326 12.301353,3.6908 3.292964,-0.16879 5.989889,-1.16392 8.179934,-2.39887 0.435352,-0.24566 1.999025,-1.28666 1.999025,-1.28666 l 1.838588,-0.004 0.02506,-1.63228 -3.217676,0.006 c 0,0 -0.375188,-0.96989 -0.580748,-1.6957 2.363267,0.73366 7.256755,1.04526 7.256755,1.04526 l 0.008,7.03306 1.99068,2.34221 1.69152,-2.26307 V 197.828 c 0,0 4.72385,-0.29748 7.32477,-1.06114 -0.25319,0.57407 -0.71529,1.68392 -0.71529,1.68392 l -2.74196,-0.004 0.0251,1.60454 h 0.91423 c 0,0 0.85224,0.56236 1.41711,0.82391 3.37402,1.55816 6.9368,2.89772 10.46909,2.86848 6.89585,-0.0585 11.48526,-3.67367 11.48526,-3.67367 l 1.41861,-0.0167 z M 94.884242,143.80601 c -0.580748,0.0418 -0.622528,-1.10116 -0.185505,-1.29118 0.671829,-0.29079 0.807197,1.25115 0.185505,1.29118 m 0.828923,0.56236 v -2.53465 h 0.792992 v 2.52689 z m 35.323745,54.08239 c -3.11791,0 -9.17857,0.004 -9.17857,0.004 l -0.10529,-3.15517 c 0,0 2.78408,-0.2323 5.01415,-2.41466 -1.22968,-0.26656 -2.27218,-0.72029 -3.19854,-1.29168 1.59651,-0.51474 3.26856,-0.95535 4.30547,-2.02952 1.16801,2.89237 2.16414,5.82711 3.16303,8.88702 m -12.08155,-4.09056 c 0.50386,-0.19887 0.99896,-0.89334 1.66001,-1.04375 0.99763,-0.2298 2.09529,0.10027 3.01529,-0.30834 -0.5632,-0.0902 -1.62592,0.10696 -2.27511,-0.0585 -0.29664,-0.0251 0.13119,-0.18383 0.12284,-0.3075 -0.40527,-0.59913 -0.83945,-1.17052 -1.10852,-1.90535 2.55462,0.0501 3.19729,1.73906 5.67269,2.30109 -1.44226,1.19041 -3.65119,2.02677 -6.28761,1.81971 -0.25487,-0.17548 -0.40193,-0.45875 -0.79968,-0.49385 m -0.31586,0.63172 c 0.3192,-0.0953 0.46627,0.1078 0.52894,0.38438 0.23899,1.02788 -1.61256,-0.0585 -0.52894,-0.38438 m 0.99237,-6.10545 c -0.0752,0.10529 -0.12702,0.24149 -0.30751,0.2465 -0.0502,-0.0501 -0.0334,-0.16879 -0.12366,-0.18467 0.0334,-0.21057 0.2983,-0.0944 0.43117,-0.0585 m 0.10278,-1.37632 c 0.22143,-0.0668 0.51055,0.008 0.49384,0.36933 -0.0501,0.93422 -1.40274,-0.0836 -0.49384,-0.36933 m 0.57406,2.8531 c -0.35346,0.0668 -0.6969,-0.68103 -0.67684,-0.98477 0.30081,0.25235 0.33508,0.77127 0.67684,0.98477 m -1.47661,-2.09153 c -0.25319,-0.34093 -0.47796,-0.71111 -0.676,-1.10718 2.54301,-1.72068 4.52064,-4.00875 6.21107,-6.58192 0.0501,-0.008 0.0585,0.0251 0.0585,0.0585 0.42115,2.95279 -2.04114,5.41641 -3.6908,6.76776 -0.45373,-1.07292 -2.40663,-0.54231 -1.9066,0.86034 m 2.46086,0.8616 c -0.0502,0.9342 -1.40123,-0.0836 -0.49217,-0.36934 0.2206,-0.0752 0.51055,0.008 0.49217,0.36934 m 9.71687,-3.44539 c -1.53301,1.45012 -3.02039,3.76993 -5.41115,4.73581 -0.74536,0.30082 -1.9056,0.67852 -2.76845,0.55401 -0.48716,-0.0668 -0.798,-0.51975 -1.47535,-0.4905 1.26294,-1.07418 3.03777,-1.63897 4.54989,-2.46229 -1.53326,0.37185 -2.73144,1.08203 -4.12106,1.59927 0.0669,-0.67851 -0.20137,-1.02663 -0.615,-1.22993 2.4754,-1.66503 5.66734,-2.94226 9.84078,-2.70628 m 0.18468,-7.38001 c 0.0752,0.0251 0.12701,0.0752 0.12367,0.18384 -0.5348,2.29683 -1.39873,4.28909 -2.89221,5.78157 -0.47797,0.4788 -0.94374,1.10467 -1.47552,1.35385 -0.69272,0.32171 -1.59517,0.34594 -2.33811,0.61501 -0.71361,0.25736 -1.28107,0.65344 -2.02961,0.86159 1.67715,-1.52264 3.43234,-2.96624 4.73731,-4.85964 -1.76831,1.77733 -3.5759,3.5164 -5.59732,5.04456 0.47462,-0.79466 1.14119,-1.37499 1.72185,-2.21544 0.28996,-0.42116 0.50638,-0.85124 0.73785,-1.29194 0.42615,-0.80887 0.68519,-1.65994 1.35385,-2.21419 0.75873,-0.0418 1.11754,-0.48298 1.16893,-1.22985 0.94482,0.14623 1.25366,-0.34595 1.47535,-0.92234 1.22584,-0.14874 2.19706,-0.55151 3.01379,-1.10702 m -6.27325,3.25921 v -0.30584 c 0.16546,0.0251 0.28829,0.32757 0,0.30584 m 1.04677,-0.86034 c -0.22812,0.15876 -0.34594,0.11447 -0.43201,0 -0.76542,-0.92903 1.20194,-0.93313 0.43201,0 m 1.57002,-1.82012 c 0.32338,0.42782 -0.15876,0.91147 -0.58743,0.58993 -0.24817,-0.44621 0.14373,-0.8392 0.58743,-0.58993 m 2.05727,-7.71409 c 0.64927,-0.70525 1.19283,-1.51362 1.90677,-2.15303 0.12117,4.59142 -1.16918,7.76957 -3.32137,10.08679 0.008,-0.16879 0.0334,-0.21976 -0.10445,-0.44036 -0.37352,-0.3568 -0.44872,-0.23648 -0.61334,-0.32505 0.76124,-1.31023 1.5783,-2.63843 2.0719,-4.21648 -0.9211,1.51888 -1.94522,3.96379 -2.89898,4.47778 -0.32338,0.21558 -0.51724,0.63589 -0.48465,0.93487 -0.58994,-0.1362 -0.93563,0.0585 -1.29185,0.30834 0.79716,-1.47017 1.40524,-3.34987 1.7841,-5.10682 0.1688,-0.77962 1.29995,-1.55365 1.72194,-2.15194 0.88408,0.23063 1.58615,-0.60415 1.22993,-1.4146 m -2.15219,1.78319 c 0.0502,0.23898 -0.36767,0.53562 -0.49217,0.79967 -0.18885,-0.37519 0.38939,-0.51055 0.49217,-0.79967 m 1.65993,-1.90661 c 0.19805,0.19971 0.20473,0.48548 0.0585,0.73951 -0.71277,0.39608 -1.00665,-0.96387 -0.0585,-0.73951 m -1.13743,-11.59606 c 2.27486,3.26321 2.39761,7.61957 0.82976,11.16647 -1.38786,-0.17798 -0.77795,1.96477 -1.8446,1.90661 0.0585,-0.3451 0.0167,-1.16166 -0.0585,-1.72244 0.64258,-1.408 1.05052,-3.05005 1.23118,-4.91989 -0.41948,1.38485 -0.57239,3.03626 -1.35385,4.0588 -0.0251,-0.40193 -0.0501,-0.8072 -0.18467,-1.10643 1.03465,-1.3267 1.13467,-2.96374 0.95785,-5.04114 -0.0836,-0.97574 -0.88005,-2.03537 -0.83393,-2.15554 0.40276,-1.07542 1.10726,-1.9595 1.26018,-2.18644 m -4.33572,-1.19693 c 1.10267,1.95499 3.32647,3.26982 3.56655,6.02766 0.11113,1.27146 -0.18635,2.58503 -0.73785,3.50613 -0.8697,-1.79531 -1.31307,-4.01803 -2.0296,-5.96625 0.0334,0.55736 0.33925,1.3821 0.43033,2.09128 -0.32422,-0.40443 -0.58994,-1.06465 -0.96187,-1.60779 -0.27408,-0.39859 -0.90646,-1.03516 -0.86569,-1.42722 0.12117,-1.16818 0.21225,-1.47251 0.5983,-2.62381 m -8.25246,-9.89778 c 2.93725,1.13367 5.50766,2.87274 7.63729,4.79271 -0.93922,1.62418 -2.22054,3.09869 -3.28419,4.59719 -3.75672,-3.16754 -8.07707,-5.10657 -14.12161,-5.60217 -0.001,-1.8731 -0.0836,-3.99813 0.17297,-5.71272 3.59178,0.31502 6.76283,0.8306 9.59571,1.92499 m -3.98752,-5.90875 c 0.67183,-0.29162 0.80636,1.25032 0.18466,1.29035 -0.58074,0.0418 -0.62336,-1.10092 -0.18466,-1.29035 m -1.31985,-0.67684 h 0.70442 v 2.58353 h -0.70442 z m -7.8405,-12.14172 c -0.40695,-0.98761 1.7577,-1.17954 1.81435,-0.26739 0.0502,0.85373 -1.54913,0.91298 -1.81435,0.26739 m -1.1864,1.54178 -0.006,-0.72698 4.27472,-0.006 -0.008,0.75372 z m 0.81388,0.32756 h 2.64378 l 0.25486,5.03086 0.29999,5.91802 h -3.6293 z m -5.047073,11.78274 v -0.47045 l 12.918923,0.006 0.008,0.46878 z m 8.367783,8.82185 -1.67858,-0.0585 -0.0251,-8.39101 c 0,0 1.52272,-0.0167 2.19681,-0.0167 -0.54732,2.33886 -0.49385,8.46479 -0.49385,8.46479 m -4.37096,-8.47091 c 0.60582,-0.002 2.22932,0.0167 2.22932,0.0167 l -0.0334,8.36778 -1.70281,0.10027 c 0,0 0.0877,-6.31519 -0.49133,-8.48727 m -17.647875,9.33174 c 2.263579,-2.03337 4.870759,-3.75531 8.049078,-4.87486 2.762938,-0.97574 5.973511,-1.47326 9.540807,-1.64489 0.14038,1.77868 0.16712,4.07275 0.12868,5.67528 -5.965654,0.55401 -10.582806,2.38525 -14.213356,5.27361 -1.285333,-1.36045 -2.370118,-2.91812 -3.505292,-4.42914 m 1.791711,6.88265 c 2.250794,-2.49487 4.261851,-4.00239 7.120717,-5.24369 1.3836,-0.59329 3.008105,-1.12431 4.759205,-1.5254 1.968609,-0.47713 4.047015,-0.74035 6.193695,-0.75957 0.0418,-10e-4 0.46627,-10e-4 0.56988,0 0.29414,0.002 1.25083,0.0418 1.43549,0.0502 0.0251,0.001 0.0501,0.002 0.0752,0.004 0.17547,0.0167 1.0105,0.0836 1.11353,0.0944 9.73809,1.02989 17.05083,6.92351 19.67164,15.00969 0.59077,1.88162 0.85632,3.95978 0.57238,6.21509 -0.43702,3.47287 -2.13639,6.77435 -4.06005,8.91727 -0.0502,0.0585 -0.13118,0.21141 -0.23815,0.25486 -0.25987,0.305 -0.52893,0.60164 -0.80886,0.89335 -0.0752,0.16294 -0.23564,0.29163 -0.36683,0.4529 -0.0168,-0.0167 -0.0251,-0.0251 -0.0418,-0.0418 -0.15292,0.15207 -0.30835,0.30081 -0.46878,0.44871 -0.85884,1.01878 -2.0373,1.93176 -3.30533,2.66818 -1.03566,0.59997 -2.16155,1.15457 -3.29899,1.58716 -3.17455,1.36697 -6.77435,2.13907 -10.59032,2.13907 -3.1723,0 -6.193193,-0.53311 -8.94577,-1.49925 0.0074,0.0167 0.0084,0.0334 0.01671,0.0501 -3.899867,-0.96186 -7.015264,-3.22494 -9.655702,-5.9669 -2.629157,-2.72893 -4.849367,-6.65169 -5.043897,-11.37814 -0.02507,-0.63841 0.12952,-1.28534 0.122835,-1.90686 -0.01671,-1.73047 0.766252,-3.64108 1.849952,-5.65072 0.180491,-0.33341 0.374352,-0.66681 0.574063,-0.99963 0.74202,-1.36372 1.669043,-2.64053 2.751072,-3.81222 m 0.237313,27.43987 c -1.988497,-1.51763 -3.415632,-3.59579 -3.566793,-6.95151 1.727954,2.51501 3.694223,4.79246 6.088324,6.64258 -0.109465,0.30082 -0.293299,0.52477 -0.429503,0.79968 0.221436,-1.52674 -1.830817,-1.73381 -2.092028,-0.4905 m 0.983761,2.02927 c 0.168793,0.18467 -0.246504,1.1269 -0.676843,0.92226 0.183834,-0.35096 0.656789,-0.41028 0.676843,-0.92226 m 0.185505,-2.39886 c 0.267395,0.37185 -0.0585,0.89861 -0.554008,0.67517 -0.344271,-0.36683 0.05014,-0.979 0.554008,-0.67517 m -0.245668,1.59919 c 0.22812,0.0585 0.6125,0.21642 0.492172,0.43033 -0.216422,0.12116 -0.468775,-0.16462 -0.492172,-0.43033 m -1.353936,4.24354 c -0.538132,0.2415 -1.383349,0.17465 -2.09019,0.24567 0.74202,0.36683 1.883627,-0.21391 2.521029,0.12367 0.737007,0.38605 2.214947,1.22843 2.214947,1.22843 0,0 -0.449558,0.38772 -0.923097,0.43117 -2.287226,0.2064 -5.118433,-0.6384 -6.212244,-1.78385 1.891483,-0.56989 2.973511,-2.27494 5.22723,-2.27494 -0.274916,0.62586 -0.670994,1.13091 -0.983762,1.72068 -0.04178,0.2323 0.161272,0.20807 0.245669,0.30834 m 2.913598,2.1379 c 1.043006,-0.14539 -0.207231,1.59902 -0.431174,0.49385 -0.06685,-0.32756 0.148739,-0.45374 0.431174,-0.49385 m -3.036265,-5.7057 c -0.139547,-0.83393 0.772937,-0.72029 0.799676,-0.24567 0.01671,0.36182 -0.470447,0.61084 -0.799676,0.24567 M 82.60751,158.07284 c 0.42616,0.82474 0.562364,1.93911 0.799676,2.95237 -0.660965,0.89736 -1.325691,1.79071 -1.84569,2.82837 -0.185505,-0.73952 0.09359,-1.5458 0.184669,-2.21345 -0.648432,1.01201 -0.479639,2.22807 -0.799677,3.44388 -0.256532,0.97724 -0.996128,1.961 -1.107013,2.95262 -0.37101,-0.75539 -0.565707,-1.62977 -0.615844,-2.58303 -0.17297,-3.36099 1.816362,-5.47015 3.383879,-7.38076 m -4.182218,1.3526 c 0.297476,0.19051 1.115035,1.66043 1.106428,2.27544 -0.0052,0.38271 -0.258203,0.92301 -0.368503,1.35385 -0.332571,1.28784 -0.3919,3.03752 -0.0585,4.49039 0.19971,0.87547 0.721965,1.59268 0.308339,2.7062 -0.63339,-0.98635 -0.866358,-2.37396 -1.106512,-3.75196 -0.138711,2.35199 1.127152,3.83436 1.04451,6.33424 -0.209738,0.19721 -0.636734,-0.41863 -0.798841,-0.67517 0.365161,-0.77461 -0.160437,-1.6164 -1.107515,-1.47735 -1.971575,-3.11005 -1.486605,-9.07972 0.984848,-11.25539 m 1.045763,14.39318 c -0.517241,-0.26405 -0.742855,-0.81555 -1.230433,-1.10852 0.390229,0.14373 0.922261,0.67684 1.230433,1.10852 M 77.5067,171.97301 c -0.190519,-0.008 -0.174642,-0.0752 -0.368503,-0.18383 -0.01671,-1.58691 1.451368,0.2465 0.368503,0.18383 m -0.799677,5.41265 c -1.262194,-2.08492 -2.274449,-4.65333 -2.029575,-7.99644 v -0.18383 c 0.31469,0.19888 0.594285,0.7696 1.045764,1.3526 0.329731,0.42533 0.862314,0.84572 0.983811,1.10652 0.159602,0.3426 0.08774,0.69689 0.431174,0.92301 0.17882,0.11782 0.425325,0.0334 0.615007,0.12283 0.46042,0.21392 1.710573,1.47477 1.906524,1.96886 0.151245,0.38104 0.132026,0.88424 0.245668,1.29185 0.328394,1.17579 0.752883,2.23208 1.29185,3.32121 -0.289955,0.0877 -0.629213,-0.21058 -1.04568,-0.0585 0.0084,-0.23648 0.0026,-0.4529 -0.0585,-0.61501 -0.167121,-0.34427 -0.436187,-0.58911 -0.862347,-0.67517 -0.930868,-1.01753 -1.642806,-2.25247 -2.458861,-3.38338 0.29497,1.24296 1.232439,2.37513 1.967356,3.38338 -0.195532,0.29664 -0.467941,0.5164 -0.615007,0.86084 -0.733665,-0.0334 -1.072921,-0.84973 -1.414517,-1.4151 m 4.613057,3.56737 v 0.55402 c -0.242326,-0.0752 -0.489666,-0.5724 0,-0.55402 m -0.737842,-1.22993 c 0.129519,1.67607 -1.612556,-0.46794 0,0 m -1.660687,-0.493 c -0.660967,0.0418 -0.48131,-1.19735 0.305832,-0.67518 0.177985,0.36349 -0.05849,0.66181 -0.305832,0.67518 m -2.214696,3.38271 c -0.862389,-1.30096 -1.566531,-2.68532 -1.844663,-4.30422 0.963632,0.36766 1.775057,0.88934 3.198265,0.798 0.301654,0.47129 0.655116,1.09891 1.475265,0.8621 -0.0752,0.87446 0.393572,1.20553 1.107264,1.29268 1.290347,1.27197 1.507521,3.61668 2.828868,4.8584 -2.158793,-1.36714 -4.361623,-3.22486 -6.211074,-5.10532 1.737312,2.40288 4.489889,4.32536 6.888,6.27458 -0.759567,-0.15709 -1.345245,-0.56988 -2.091276,-0.86309 -0.742855,-0.29163 -1.601192,-0.37185 -2.33636,-0.67601 -1.069913,-0.44371 -2.369868,-2.16532 -3.014289,-3.13779 m -1.476085,3.01503 c 4.024021,-0.0251 7.082012,0.9145 9.472269,2.52187 -0.233135,0.35513 -0.662638,0.7228 -0.430338,1.35235 -1.312323,-0.49217 -2.405465,-1.20219 -3.813464,-1.59802 1.236449,0.83394 3.195949,1.47786 4.428388,2.52028 -0.671829,-0.0167 -1.010751,0.48716 -1.475767,0.554 -0.856582,0.12368 -1.954989,-0.30582 -2.706535,-0.615 -2.448499,-1.00824 -3.657707,-3.10629 -5.474135,-4.73606 m 3.013855,3.81371 c 1.115536,0.95535 2.452509,1.68894 4.121051,2.09128 -0.808869,0.52477 -1.60654,1.05838 -2.767199,1.22968 1.221074,1.76982 4.677817,2.27495 4.677817,2.27495 l 0.03342,3.431 c 0,0 -6.222355,-0.006 -9.359411,-0.006 1.017286,-3.16394 2.201092,-5.92864 3.290223,-9.02131 m 6.458414,14.02234 c -4.393877,0.0251 -8.062196,-1.61765 -10.716547,-3.37661 -0.01086,-0.0501 14.265959,0.0334 21.297852,-0.004 -2.525626,1.92775 -6.216924,3.36098 -10.581305,3.38196 m 10.886886,-4.61307 c 0.280764,0 1.642806,0.0167 1.642806,0.0167 l 0.01671,0.75958 c 0,0 -0.653445,0.0251 -1.29043,0.0251 -8.693833,0 -23.671755,0.0418 -23.671755,0.0418 l 0.01588,-0.81388 c 0,0 15.163345,-0.0251 23.287042,-0.0251 m -1.528661,-0.38773 -9.40176,0.006 -0.01671,-3.35447 c 0,0 1.401231,0.1454 2.083505,0.0251 -0.182998,1.64406 2.4795,1.43423 1.85271,-0.16295 1.632193,0.56069 3.058659,1.32895 4.920394,1.65994 0.228957,0.65344 0.5632,1.82622 0.5632,1.82622 m 7.496908,6.31661 0.0251,-6.92477 1.2977,0.0251 0.0752,8.47364 z m 2.96123,0.0418 -1.16927,1.54655 0.002,-8.47139 1.16668,-0.0334 z m -1.46875,-7.62968 c -6.799093,-0.008 -13.613058,-1.74692 -17.54919,-4.92048 0.850315,-1.65216 1.789205,-3.21458 2.768955,-4.73597 3.806445,2.13656 8.638432,4.0603 14.699595,3.99838 5.68322,-0.0585 10.87168,-1.46323 14.69952,-3.81472 0.99889,1.50401 1.8487,3.15493 2.82895,4.67506 -3.98986,3.12192 -10.71024,4.80826 -17.44783,4.79773 m 9.63648,-0.54231 c 1.85923,-0.4153 3.49777,-1.00524 5.0444,-1.7338 h 0.12284 c -0.60415,1.64815 1.99275,1.98315 1.96885,0.43117 0.53145,0.0585 1.59928,0 1.59928,0 l -0.10278,3.10888 h -9.23823 c 0,0 0.36933,-1.2418 0.60581,-1.80658 m 9.96905,6.75472 c -4.12631,0.41864 -8.3819,-1.25893 -12.53019,-3.33308 l 22.49398,-0.008 c 0,0 -3.68294,2.70495 -9.96379,3.3436 m -13.4502,-3.80285 v -0.72949 h 24.81648 l 0.0167,0.75873 -24.8311,-0.0334"
       style="fill:#ffffff;fill-opacity:1;fill-rule:nonzero;stroke:none;stroke-width:0.0251928"
       id="path114"
       sodipodi:nodetypes="ccccccccccccccccccccccccccccccccccccccccccccccccccccccccccccscccccccccccccccccccccccccccccccccccccccccccccccccccccccccccccccccccccccccccccccccccccccccccccccccccccccccccccccccccccccccccccccccccccccccccccccccccccccccccccccccccccccccccccccccccccccccccccccccccccccccccccccscccccccccccccccccccccccccccccccccccccccccccccccccccccccccccccccccccccccccccccccccccccccccccccccccccccccccccccccccccccccscccccccccccccccccccccccccccccccccccccccccccc" />
    <g
       aria-label="MEOW"
       transform="matrix(0.71412922,0,0,0.71412922,29.492718,46.788579)"
       id="text1233-5"
       style="font-style:normal;font-variant:normal;font-weight:bold;font-stretch:normal;font-size:5.64444px;line-height:1.25;font-family:sans-serif;-inkscape-font-specification:'sans-serif, Bold';font-variant-ligatures:normal;font-variant-caps:normal;font-variant-numeric:normal;font-variant-east-asian:normal;letter-spacing:-0.113771px;word-spacing:-0.108479px;fill:#ffffff;fill-opacity:1;stroke:none;stroke-width:0.999999">
      <path
         d="m 77.913497,148.88509 1.139068,-0.72547 1.973338,1.35399 -0.38794,-2.36373 1.136743,-0.72399 2.210469,3.47067 -0.846165,0.53893 -1.616766,-2.5385 0.392174,2.38064 -0.567209,0.36125 -1.99152,-1.36201 1.616767,2.53849 -0.84849,0.54041 z"
         style="font-style:normal;font-variant:normal;font-weight:bold;font-stretch:normal;font-size:5.64444px;font-family:sans-serif;-inkscape-font-specification:'sans-serif, Bold';font-variant-ligatures:normal;font-variant-caps:normal;font-variant-numeric:normal;font-variant-east-asian:normal;stroke-width:0.999999;fill:#ffffff"
         id="path1363" />
      <path
         d="m 83.229071,145.7846 2.628072,-1.1372 0.318503,0.73606 -1.654243,0.71582 0.304275,0.70318 1.555596,-0.67313 0.318503,0.73606 -1.555595,0.67313 0.374324,0.86506 1.70989,-0.73989 0.318504,0.73606 -2.683719,1.16128 z"
         style="font-style:normal;font-variant:normal;font-weight:bold;font-stretch:normal;font-size:5.64444px;font-family:sans-serif;-inkscape-font-specification:'sans-serif, Bold';font-variant-ligatures:normal;font-variant-caps:normal;font-variant-numeric:normal;font-variant-east-asian:normal;stroke-width:0.999999;fill:#ffffff"
         id="path1365" />
      <path
         d="m 89.056607,144.2702 q -0.461858,0.14826 -0.606899,0.57111 -0.145041,0.42285 0.05375,1.04216 0.197953,0.61669 0.562005,0.87613 0.364053,0.25943 0.825911,0.11118 0.464482,-0.1491 0.609523,-0.57195 0.145041,-0.42285 -0.05291,-1.03954 -0.198795,-0.61931 -0.562848,-0.87874 -0.364052,-0.25944 -0.828534,-0.11035 z m -0.235016,-0.73215 q 0.94471,-0.30324 1.653569,0.0655 0.70886,0.36875 1.014633,1.32133 0.304931,0.94996 -0.05688,1.66238 -0.361811,0.71242 -1.30652,1.01567 -0.942086,0.3024 -1.65357,-0.0655 -0.708859,-0.36874 -1.01379,-1.3187 -0.305774,-0.95258 0.05604,-1.66501 0.364436,-0.71326 1.306521,-1.01567 z"
         style="font-style:normal;font-variant:normal;font-weight:bold;font-stretch:normal;font-size:5.64444px;font-family:sans-serif;-inkscape-font-specification:'sans-serif, Bold';font-variant-ligatures:normal;font-variant-caps:normal;font-variant-numeric:normal;font-variant-east-asian:normal;stroke-width:0.999999;fill:#ffffff"
         id="path1367" />
      <path
         d="m 91.750721,142.63197 1.003055,-0.16778 1.194678,2.83204 0.202531,-3.06576 1.008492,-0.1687 1.189241,2.83296 0.207968,-3.06668 0.9949,-0.16642 -0.277969,4.21849 -1.206928,0.20189 -1.252751,-2.96206 -0.212416,3.20714 -1.206928,0.20189 z"
         style="font-style:normal;font-variant:normal;font-weight:bold;font-stretch:normal;font-size:5.64444px;font-family:sans-serif;-inkscape-font-specification:'sans-serif, Bold';font-variant-ligatures:normal;font-variant-caps:normal;font-variant-numeric:normal;font-variant-east-asian:normal;stroke-width:0.999999;fill:#ffffff"
         id="path1369" />
    </g>
    <g
       aria-label="MEOW"
       transform="matrix(0.52627061,0.48272131,-0.48272131,0.52627061,138.38633,32.236465)"
       id="text1233-5-2"
       style="font-style:normal;font-variant:normal;font-weight:bold;font-stretch:normal;font-size:5.64444px;line-height:1.25;font-family:sans-serif;-inkscape-font-specification:'sans-serif, Bold';font-variant-ligatures:normal;font-variant-caps:normal;font-variant-numeric:normal;font-variant-east-asian:normal;letter-spacing:-0.113771px;word-spacing:-0.108479px;fill:#ffffff;fill-opacity:1;stroke:none;stroke-width:0.999999">
      <path
         d="m 77.913497,148.88509 1.139068,-0.72547 1.973338,1.35399 -0.38794,-2.36373 1.136743,-0.72399 2.210469,3.47067 -0.846165,0.53893 -1.616766,-2.5385 0.392174,2.38064 -0.567209,0.36125 -1.99152,-1.36201 1.616767,2.53849 -0.84849,0.54041 z"
         style="font-style:normal;font-variant:normal;font-weight:bold;font-stretch:normal;font-size:5.64444px;font-family:sans-serif;-inkscape-font-specification:'sans-serif, Bold';font-variant-ligatures:normal;font-variant-caps:normal;font-variant-numeric:normal;font-variant-east-asian:normal;fill:#ffffff;stroke-width:0.999999"
         id="path1372" />
      <path
         d="m 83.229071,145.7846 2.628072,-1.1372 0.318503,0.73606 -1.654243,0.71582 0.304275,0.70318 1.555596,-0.67313 0.318503,0.73606 -1.555595,0.67313 0.374324,0.86506 1.70989,-0.73989 0.318504,0.73606 -2.683719,1.16128 z"
         style="font-style:normal;font-variant:normal;font-weight:bold;font-stretch:normal;font-size:5.64444px;font-family:sans-serif;-inkscape-font-specification:'sans-serif, Bold';font-variant-ligatures:normal;font-variant-caps:normal;font-variant-numeric:normal;font-variant-east-asian:normal;fill:#ffffff;stroke-width:0.999999"
         id="path1374" />
      <path
         d="m 89.056607,144.2702 q -0.461858,0.14826 -0.606899,0.57111 -0.145041,0.42285 0.05375,1.04216 0.197953,0.61669 0.562005,0.87613 0.364053,0.25943 0.825911,0.11118 0.464482,-0.1491 0.609523,-0.57195 0.145041,-0.42285 -0.05291,-1.03954 -0.198795,-0.61931 -0.562848,-0.87874 -0.364052,-0.25944 -0.828534,-0.11035 z m -0.235016,-0.73215 q 0.94471,-0.30324 1.653569,0.0655 0.70886,0.36875 1.014633,1.32133 0.304931,0.94996 -0.05688,1.66238 -0.361811,0.71242 -1.30652,1.01567 -0.942086,0.3024 -1.65357,-0.0655 -0.708859,-0.36874 -1.01379,-1.3187 -0.305774,-0.95258 0.05604,-1.66501 0.364436,-0.71326 1.306521,-1.01567 z"
         style="font-style:normal;font-variant:normal;font-weight:bold;font-stretch:normal;font-size:5.64444px;font-family:sans-serif;-inkscape-font-specification:'sans-serif, Bold';font-variant-ligatures:normal;font-variant-caps:normal;font-variant-numeric:normal;font-variant-east-asian:normal;fill:#ffffff;stroke-width:0.999999"
         id="path1376" />
      <path
         d="m 91.750721,142.63197 1.003055,-0.16778 1.194678,2.83204 0.202531,-3.06576 1.008492,-0.1687 1.189241,2.83296 0.207968,-3.06668 0.9949,-0.16642 -0.277969,4.21849 -1.206928,0.20189 -1.252751,-2.96206 -0.212416,3.20714 -1.206928,0.20189 z"
         style="font-style:normal;font-variant:normal;font-weight:bold;font-stretch:normal;font-size:5.64444px;font-family:sans-serif;-inkscape-font-specification:'sans-serif, Bold';font-variant-ligatures:normal;font-variant-caps:normal;font-variant-numeric:normal;font-variant-east-asian:normal;fill:#ffffff;stroke-width:0.999999"
         id="path1378" />
    </g>
    <path
       style="color:#000000;font-style:normal;font-variant:normal;font-weight:normal;font-stretch:normal;font-size:medium;line-height:normal;font-family:sans-serif;font-variant-ligatures:normal;font-variant-position:normal;font-variant-caps:normal;font-variant-numeric:normal;font-variant-alternates:normal;font-variant-east-asian:normal;font-feature-settings:normal;font-variation-settings:normal;text-indent:0;text-align:start;text-decoration:none;text-decoration-line:none;text-decoration-style:solid;text-decoration-color:#000000;letter-spacing:normal;word-spacing:normal;text-transform:none;writing-mode:lr-tb;direction:ltr;text-orientation:mixed;dominant-baseline:auto;baseline-shift:baseline;text-anchor:start;white-space:normal;shape-padding:0;shape-margin:0;inline-size:0;clip-rule:nonzero;display:inline;overflow:visible;visibility:visible;isolation:auto;mix-blend-mode:normal;color-interpolation:sRGB;color-interpolation-filters:linearRGB;solid-color:#000000;solid-opacity:1;vector-effect:none;fill:#ffffff;fill-opacity:1;fill-rule:nonzero;stroke:none;stroke-width:0.584926;stroke-linecap:butt;stroke-linejoin:miter;stroke-miterlimit:4;stroke-dasharray:none;stroke-dashoffset:0;stroke-opacity:1;color-rendering:auto;image-rendering:auto;shape-rendering:auto;text-rendering:auto;enable-background:accumulate;stop-color:#000000;stop-opacity:1;opacity:1"
       d="M 109.22656 154.79102 L 108.6582 154.89258 L 108.80664 161.27539 L 97.294922 161.27539 L 97.755859 155.01562 L 97.1875 154.89844 L 91.541016 171.08594 L 94.162109 179.57617 L 89.794922 188.40625 L 90.066406 188.5332 C 94.18628 190.45885 98.318261 191.58596 103.64648 191.52539 C 108.11998 191.4748 111.85876 190.44032 116.17578 188.64844 L 116.0625 188.08594 L 116.32422 188.25 L 112.13281 179.75977 L 114.86328 171.19922 L 109.22656 154.79102 z M 109.28516 156.76172 L 114.24805 171.20703 L 111.50391 179.80664 L 115.65234 188.21094 C 111.50622 189.90725 107.91886 190.89105 103.63867 190.93945 C 98.51517 190.99769 94.565714 189.92199 90.595703 188.10156 L 94.789062 179.625 L 92.15625 171.09766 L 97.007812 157.18945 L 96.664062 161.86133 L 109.4043 161.86133 L 109.28516 156.76172 z "
       id="path892" />
    <circle
       style="opacity:1;fill:#ffffff;fill-rule:evenodd;stroke:none;stroke-width:0.685948;stroke-linecap:round;paint-order:stroke fill markers"
       id="path1458"
       cx="97.445557"
       cy="170.95949"
       r="1.1573232" />
    <circle
       style="opacity:1;fill:#ffffff;fill-rule:evenodd;stroke:none;stroke-width:0.685948;stroke-linecap:round;paint-order:stroke fill markers"
       id="path1458-0"
       cx="108.88327"
       cy="170.98155"
       r="1.1573232" />
    <path
       id="path1475"
       style="fill:#ffffff;stroke:none;stroke-width:0.25141px;stroke-linecap:butt;stroke-linejoin:miter;stroke-opacity:1"
       d="m 100.94929,172.79056 2.01656,1.96043 -1.36452,1.39045 0.29364,0.29362 1.3602,-1.36884 1.39907,1.41634 0.29365,-0.29364 -1.40341,-1.42066 1.96906,-1.9777 z" />
    <g
       id="g42"
       style="opacity:1;fill:#ffffff"
       transform="matrix(8.35608,0,0,8.35608,-759.05695,-1234.5033)">
      <path
         style="color:#000000;font-style:normal;font-variant:normal;font-weight:normal;font-stretch:normal;font-size:medium;line-height:normal;font-family:sans-serif;font-variant-ligatures:normal;font-variant-position:normal;font-variant-caps:normal;font-variant-numeric:normal;font-variant-alternates:normal;font-variant-east-asian:normal;font-feature-settings:normal;font-variation-settings:normal;text-indent:0;text-align:start;text-decoration:none;text-decoration-line:none;text-decoration-style:solid;text-decoration-color:#000000;letter-spacing:normal;word-spacing:normal;text-transform:none;writing-mode:lr-tb;direction:ltr;text-orientation:mixed;dominant-baseline:auto;baseline-shift:baseline;text-anchor:start;white-space:normal;shape-padding:0;shape-margin:0;inline-size:0;clip-rule:nonzero;display:inline;overflow:visible;visibility:visible;isolation:auto;mix-blend-mode:normal;color-interpolation:sRGB;color-interpolation-filters:linearRGB;solid-color:#000000;solid-opacity:1;vector-effect:none;fill:#ffffff;fill-opacity:1;fill-rule:nonzero;stroke:none;stroke-width:0.050042;stroke-linecap:butt;stroke-linejoin:miter;stroke-miterlimit:4;stroke-dasharray:none;stroke-dashoffset:0;stroke-opacity:1;color-rendering:auto;image-rendering:auto;shape-rendering:auto;text-rendering:auto;enable-background:accumulate;stop-color:#000000;stop-opacity:1"
         d="m 103.19038,168.65601 -0.17448,0.17739"
         id="path44" />
    </g>
    <g
       id="g36"
       style="opacity:1;fill:#ffffff"
       transform="matrix(8.35608,0,0,8.35608,-759.05695,-1234.5033)">
      <path
         style="color:#000000;font-style:normal;font-variant:normal;font-weight:normal;font-stretch:normal;font-size:medium;line-height:normal;font-family:sans-serif;font-variant-ligatures:normal;font-variant-position:normal;font-variant-caps:normal;font-variant-numeric:normal;font-variant-alternates:normal;font-variant-east-asian:normal;font-feature-settings:normal;font-variation-settings:normal;text-indent:0;text-align:start;text-decoration:none;text-decoration-line:none;text-decoration-style:solid;text-decoration-color:#000000;letter-spacing:normal;word-spacing:normal;text-transform:none;writing-mode:lr-tb;direction:ltr;text-orientation:mixed;dominant-baseline:auto;baseline-shift:baseline;text-anchor:start;white-space:normal;shape-padding:0;shape-margin:0;inline-size:0;clip-rule:nonzero;display:inline;overflow:visible;visibility:visible;isolation:auto;mix-blend-mode:normal;color-interpolation:sRGB;color-interpolation-filters:linearRGB;solid-color:#000000;solid-opacity:1;vector-effect:none;fill:#ffffff;fill-opacity:1;fill-rule:nonzero;stroke:none;stroke-width:0.050042;stroke-linecap:butt;stroke-linejoin:miter;stroke-miterlimit:4;stroke-dasharray:none;stroke-dashoffset:0;stroke-opacity:1;color-rendering:auto;image-rendering:auto;shape-rendering:auto;text-rendering:auto;enable-background:accumulate;stop-color:#000000;stop-opacity:1"
         d="m 103.20571,168.66252 0.17449,0.17739"
         id="path38" />
    </g>
  </g>
</svg>
