<svg height="512pt" viewBox="-21 0 512 512" width="512pt" xmlns="http://www.w3.org/2000/svg"><path d="m360.46875 512h-227.191406c-22.429688 0-40.617188-18.183594-40.617188-40.617188v-430.765624c0-22.433594 18.1875-40.617188 40.617188-40.617188h227.191406c22.429688 0 40.617188 18.183594 40.617188 40.617188v430.765624c0 22.433594-18.1875 40.617188-40.617188 40.617188zm0 0" fill="#4e5660"/><path d="m209.789062 0h-76.511718c-22.429688 0-40.617188 18.183594-40.617188 40.617188v430.765624c0 22.433594 18.1875 40.617188 40.617188 40.617188h141.523437c-95.578125-101.597656-95.9375-403.148438-65.011719-512zm0 0" fill="#383c43"/><path d="m92.660156 430.980469v-358.695313c0-9.644531 7.820313-17.460937 17.464844-17.460937h273.496094c9.644531 0 17.464844 7.816406 17.464844 17.460937v358.695313c0 9.648437-7.820313 17.464843-17.464844 17.464843h-273.496094c-9.644531 0-17.464844-7.820312-17.464844-17.464843zm0 0" fill="#a3defe"/><path d="m198.972656 54.824219h-88.847656c-9.644531 0-17.464844 7.816406-17.464844 17.460937v358.695313c0 9.648437 7.820313 17.464843 17.464844 17.464843h125.410156c-46.476562-109.339843-51.34375-285.480468-36.5625-393.621093zm0 0" fill="#7acefa"/><path d="m255.105469 24c-1.882813-4.542969-7.089844-6.703125-11.632813-4.820312-4.542968 1.882812-6.703125 7.089843-4.820312 11.636718 1.882812 4.542969 7.089844 6.699219 11.632812 4.816406 4.542969-1.882812 6.703125-7.089843 4.820313-11.632812zm0 0" fill="#fff"/><path d="m269.351562 487.210938h-44.957031c-4.140625 0-7.5-3.359376-7.5-7.5 0-4.144532 3.359375-7.5 7.5-7.5h44.957031c4.140626 0 7.5 3.355468 7.5 7.5 0 4.140624-3.359374 7.5-7.5 7.5zm0 0" fill="#f7ef87"/><path d="m183.425781 240.171875c0-16.316406-16.609375-29.542969-37.101562-29.542969-20.488281 0-37.097657 13.226563-37.097657 29.542969s16.609376 29.546875 37.097657 29.546875c20.492187 0 37.101562-13.230469 37.101562-29.546875zm0 0" fill="#fff"/><path d="m384.519531 240.171875c0-16.316406-16.609375-29.542969-37.097656-29.542969-20.492187 0-37.101563 13.226563-37.101563 29.542969s16.609376 29.546875 37.101563 29.546875c20.488281 0 37.097656-13.230469 37.097656-29.546875zm0 0" fill="#fff"/><g fill="#4e5660"><path d="m152.527344 212.785156c-4.140625 0-7.5-3.355468-7.5-7.5v-15.921875c0-4.140625 3.359375-7.5 7.5-7.5s7.5 3.359375 7.5 7.5v15.921875c0 4.144532-3.359375 7.5-7.5 7.5zm0 0"/><path d="m276.785156 217.472656c0-18.484375-13.390625-33.472656-29.914062-33.472656-16.519532 0-29.910156 14.988281-29.910156 33.472656s13.390624 33.46875 29.910156 33.46875c16.523437 0 29.914062-14.984375 29.914062-33.46875zm0 0"/><path d="m341.21875 212.785156c-4.140625 0-7.5-3.355468-7.5-7.5v-15.921875c0-4.140625 3.359375-7.5 7.5-7.5s7.5 3.359375 7.5 7.5v15.921875c0 4.144532-3.359375 7.5-7.5 7.5zm0 0"/></g><path d="m452.347656 292.421875h-139.863281c-10.050781 0-18.199219 8.148437-18.199219 18.199219v36.34375c0 10.050781 8.148438 18.199218 18.199219 18.199218 5.015625 0 9.101563 3.96875 9.324219 8.976563.273437 6.28125-.210938 12.789063-1.984375 18.972656-1.34375 4.695313 3.003906 9 7.691406 7.628907 13.824219-4.042969 23.191406-11.6875 29.976563-28.167969 1.839843-4.472657 6.1875-7.410157 11.023437-7.410157h83.832031c10.050782 0 18.199219-8.148437 18.199219-18.199218v-36.34375c0-10.050782-8.148437-18.199219-18.199219-18.199219zm0 0" fill="#fcf2d0"/><path d="m429.851562 336.292969h-94.871093c-4.140625 0-7.5-3.359375-7.5-7.5s3.359375-7.5 7.5-7.5h94.871093c4.140626 0 7.5 3.359375 7.5 7.5s-3.359374 7.5-7.5 7.5zm0 0" fill="#4e5660"/><path d="m18.199219 35.332031h139.863281c10.050781 0 18.203125 8.148438 18.203125 18.199219v36.34375c0 10.054688-8.148437 18.199219-18.203125 18.199219-5.011719 0-9.101562 3.96875-9.320312 8.976562-.277344 6.28125.210937 12.789063 1.980468 18.972657 1.347656 4.695312-3.003906 9-7.691406 7.628906-13.824219-4.042969-23.191406-11.6875-29.976562-28.167969-1.839844-4.472656-6.1875-7.410156-11.023438-7.410156h-83.832031c-10.050781 0-18.199219-8.144531-18.199219-18.199219v-36.34375c0-10.050781 8.148438-18.199219 18.199219-18.199219zm0 0" fill="#fcf2d0"/><path d="m135.566406 79.203125h-94.867187c-4.144531 0-7.5-3.359375-7.5-7.5s3.355469-7.5 7.5-7.5h94.867187c4.140625 0 7.5 3.359375 7.5 7.5s-3.359375 7.5-7.5 7.5zm0 0" fill="#4e5660"/><path d="m85.34375 404.027344-11.902344 8.253906c-8.199218 5.6875-19.46875.261719-20.132812-9.691406l-.96875-14.453125c-.355469-5.347657-3.992188-9.910157-9.125-11.445313l-13.875-4.160156c-9.558594-2.863281-12.34375-15.058594-4.972656-21.785156l10.695312-9.765625c3.957031-3.613281 5.257812-9.300781 3.257812-14.273438l-5.398437-13.441406c-3.722656-9.257813 4.074219-19.035156 13.929687-17.46875l14.304688 2.273437c5.292969.839844 10.550781-1.691406 13.191406-6.351562l7.140625-12.601562c4.917969-8.683594 17.425781-8.683594 22.347657 0l7.140624 12.601562c2.640626 4.660156 7.894532 7.191406 13.1875 6.351562l14.304688-2.273437c9.855469-1.566406 17.652344 8.210937 13.933594 17.46875l-5.402344 13.441406c-1.996094 4.972657-.699219 10.660157 3.257812 14.273438l10.699219 9.765625c7.367188 6.730468 4.585938 18.921875-4.972656 21.785156l-13.875 4.160156c-5.132813 1.535156-8.769531 6.097656-9.128906 11.445313l-.964844 14.453125c-.664063 9.953125-11.933594 15.382812-20.132813 9.691406l-11.902343-8.253906c-4.402344-3.054688-10.238281-3.054688-14.636719 0zm0 0" fill="#eda1ab"/><path d="m29.339844 372.53125 13.875 4.15625c5.132812 1.539062 8.769531 6.101562 9.125 11.445312l.96875 14.453126c.664062 9.957031 11.933594 15.382812 20.132812 9.695312l11.902344-8.253906c4.398438-3.054688 10.234375-3.054688 14.636719 0l11.902343 8.253906c5.941407 4.121094 13.496094 2.402344 17.457032-2.644531-49-30.828125-58.484375-90.625-48.234375-129.847657l-6.757813 11.929688c-2.640625 4.660156-7.898437 7.191406-13.191406 6.351562l-14.304688-2.273437c-9.855468-1.566406-17.652343 8.210937-13.929687 17.46875l5.398437 13.441406c1.996094 4.972657.699219 10.660157-3.257812 14.273438l-10.695312 9.765625c-7.371094 6.726562-4.585938 18.921875 4.972656 21.785156zm0 0" fill="#e26e7e"/><path d="m454.101562 48.089844c-21.917968-21.921875-57.460937-21.921875-79.382812 0s-21.921875 57.460937 0 79.382812 57.464844 21.921875 79.382812 0c21.921876-21.921875 21.921876-57.460937 0-79.382812zm0 0" fill="#f7ef87"/><path d="m455.671875 125.832031c-48.074219-11.410156-62.636719-60.304687-53.527344-92.824219-25.097656 5.601563-43.863281 27.988282-43.863281 54.773438 0 31 25.132812 56.132812 56.132812 56.132812 16.316407-.003906 31-6.96875 41.257813-18.082031zm0 0" fill="#efd176"/><path d="m437.246094 87.777344c0 12.613281-10.222656 22.832031-22.832032 22.832031-12.609374 0-22.832031-10.21875-22.832031-22.832031 0-12.609375 10.222657-22.832032 22.832031-22.832032 12.609376 0 22.832032 10.222657 22.832032 22.832032zm0 0" fill="#eda1ab"/><path d="m423.226562 108.847656c-11.761718-10.90625-18.867187-25.210937-21.902343-39.769531-5.886719 4.128906-9.742188 10.960937-9.742188 18.699219 0 12.609375 10.222657 22.832031 22.832031 22.832031 3.125.003906 6.101563-.625 8.8125-1.761719zm0 0" fill="#e26e7e"/></svg>