<svg height="512pt" viewBox="0 -19 512 512" width="512pt" xmlns="http://www.w3.org/2000/svg"><path d="m479.515625 311.035156c-22.984375-22.988281-60.253906-22.988281-83.238281 0-22.984375 22.984375-22.984375 60.25 0 83.238282 22.984375 22.984374 60.253906 22.984374 83.238281 0 22.984375-22.988282 22.984375-60.253907 0-83.238282zm0 0" fill="#f7ef87"/><path d="m481.160156 392.550781c-50.40625-11.964843-65.679687-63.230469-56.128906-97.328125-26.3125 5.871094-45.988281 29.34375-45.988281 57.429688 0 32.507812 26.351562 58.859375 58.859375 58.859375 17.109375 0 32.503906-7.304688 43.257812-18.960938zm0 0" fill="#efd176"/><path d="m461.84375 352.652344c0 13.222656-10.71875 23.941406-23.941406 23.941406s-23.941406-10.71875-23.941406-23.941406 10.71875-23.941406 23.941406-23.941406 23.941406 10.71875 23.941406 23.941406zm0 0" fill="#eda1ab"/><path d="m447.140625 374.742188c-12.332031-11.433594-19.78125-26.433594-22.964844-41.699219-6.171875 4.328125-10.214843 11.496093-10.214843 19.609375 0 13.222656 10.71875 23.941406 23.941406 23.941406 3.273437 0 6.394531-.660156 9.238281-1.851562zm0 0" fill="#e26e7e"/><path d="m442.722656 287.113281h-96.300781v-70.5h96.300781c14.25 0 25.800782-11.554687 25.800782-25.804687s-11.550782-25.800782-25.800782-25.800782h-96.300781v-96.300781c0-14.25-11.554687-25.800781-25.804687-25.800781s-25.800782 11.550781-25.800782 25.800781v96.300781h-70.5v-96.300781c0-14.25-11.550781-25.800781-25.800781-25.800781s-25.804687 11.550781-25.804687 25.800781v96.300781h-96.300782c-14.25 0-25.800781 11.550782-25.800781 25.800782s11.550781 25.804687 25.800781 25.804687h96.300782v70.5h-96.300782c-14.25 0-25.800781 11.550781-25.800781 25.800781s11.550781 25.804688 25.800781 25.804688h96.300782v96.300781c0 14.25 11.550781 25.800781 25.800781 25.800781s25.804687-11.550781 25.804687-25.800781v-96.300781h70.5v96.300781c0 14.25 11.550782 25.800781 25.800782 25.800781s25.800781-11.550781 25.800781-25.800781v-96.300781h96.300781c14.25 0 25.804688-11.554688 25.804688-25.804688s-11.550782-25.800781-25.800782-25.800781zm-218.40625 0v-70.5h70.5v70.5zm0 0" fill="#8eafe2"/><path d="m76.410156 287.113281c-14.25 0-25.800781 11.550781-25.800781 25.800781s11.550781 25.804688 25.800781 25.804688h96.300782v96.300781c0 14.25 11.550781 25.800781 25.800781 25.800781s25.804687-11.550781 25.804687-25.800781v-96.300781h51.527344c-15.128906-15.121094-28.699219-32.660156-40.667969-51.605469h-10.859375v-18.335937c-28.785156-51.890625-46.332031-111.335938-51.605468-160.066406v56.296874h-96.300782c-14.25 0-25.800781 11.550782-25.800781 25.800782s11.550781 25.804687 25.800781 25.804687h96.300782v70.5zm0 0" fill="#6a96d7"/><path d="m294.816406 355.695312v79.324219c0 14.25 11.550782 25.800781 25.800782 25.800781s25.804687-11.550781 25.804687-25.800781v-50.402343c-18.59375-6.414063-35.8125-16.355469-51.605469-28.921876zm0 0" fill="#6a96d7"/><path d="m147.859375 400.535156c0 40.828125-33.101563 73.929688-73.929687 73.929688-40.832032 0-73.929688-33.101563-73.929688-73.929688s33.097656-73.929687 73.929688-73.929687c40.828124 0 73.929687 33.101562 73.929687 73.929687zm0 0" fill="#f7ef87"/><path d="m134.070312 443.503906c-90.375 11.363282-105.046874-77.214844-79.476562-114.328125-31.449219 8.503907-54.59375 37.222657-54.59375 71.359375 0 40.828125 33.097656 73.929688 73.929688 73.929688 24.796874 0 46.730468-12.226563 60.140624-30.960938zm0 0" fill="#efd176"/><path d="m60.691406 429.964844c-5.488281-5.488282-15.519531-4.347656-22.410156 2.542968-6.890625 6.886719-8.027344 16.921876-2.542969 22.410157 5.488281 5.488281 15.523438 4.347656 22.414063-2.542969 6.890625-6.886719 8.027344-16.921875 2.539062-22.410156zm0 0" fill="#eda1ab"/><path d="m128.3125 362.34375c-5.484375-5.488281-15.519531-4.351562-22.410156 2.539062-6.890625 6.890626-8.027344 16.925782-2.539063 22.414063 5.484375 5.484375 15.519531 4.347656 22.410157-2.542969 6.890624-6.890625 8.027343-16.921875 2.539062-22.410156zm0 0" fill="#eda1ab"/><g fill="#4e5660"><path d="m45.578125 432.765625c-1.921875 0-3.839844-.734375-5.304687-2.199219l-4.40625-4.40625c-2.929688-2.925781-2.929688-7.675781 0-10.605468 2.929687-2.925782 7.679687-2.925782 10.605468.003906l4.40625 4.40625c2.929688 2.925781 2.929688 7.675781 0 10.605468-1.464844 1.460938-3.382812 2.195313-5.300781 2.195313zm0 0"/><path d="m98.660156 379.683594c-1.921875 0-3.839844-.734375-5.304687-2.199219l-4.40625-4.40625c-2.929688-2.925781-2.929688-7.675781 0-10.605469 2.929687-2.925781 7.679687-2.925781 10.605469.003906l4.40625 4.40625c2.929687 2.925782 2.929687 7.675782 0 10.605469-1.464844 1.460938-3.382813 2.195313-5.300782 2.195313zm0 0"/><path d="m66.21875 413.449219c-.472656 0-.941406-.019531-1.417969-.050781-4.132812-.285157-7.25-3.863282-6.96875-7.996094.285157-4.132813 3.851563-7.246094 7.996094-6.96875 1.640625.113281 3.203125-.464844 4.371094-1.628906 1.164062-1.164063 1.742187-2.71875 1.628906-4.371094-.285156-4.128906 2.835937-7.710938 6.96875-7.996094 4.128906-.277344 7.710937 2.835938 7.996094 6.96875.410156 5.957031-1.773438 11.789062-5.988281 16.003906-3.878907 3.878906-9.128907 6.039063-14.585938 6.039063zm0 0"/></g><path d="m488.984375 0h-134.417969c-12.710937 0-23.015625 10.304688-23.015625 23.015625v45.964844c0 12.714843 10.304688 23.019531 23.015625 23.019531 6.34375 0 11.515625 5.015625 11.792969 11.351562.34375 7.945313-.269531 16.171876-2.507813 23.996094-1.703124 5.9375 3.796876 11.382813 9.726563 9.648438 17.484375-5.113282 29.328125-14.785156 37.910156-35.628906 2.328125-5.65625 7.828125-9.367188 13.945313-9.367188h63.550781c12.710937 0 23.015625-10.304688 23.015625-23.019531v-45.960938c0-12.714843-10.304688-23.019531-23.015625-23.019531zm0 0" fill="#fcf2d0"/><path d="m354.566406 0c-12.710937 0-23.015625 10.304688-23.015625 23.019531v45.960938c0 12.714843 10.304688 23.019531 23.015625 23.019531 6.34375 0 11.515625 5.015625 11.792969 11.351562.34375 7.945313-.269531 16.171876-2.507813 23.996094-1.703124 5.9375 3.796876 11.382813 9.726563 9.648438 17.484375-5.117188 29.328125-14.785156 37.910156-35.628906 2.328125-5.65625 7.828125-9.367188 13.945313-9.367188h5.203125c-23.839844-19.101562-36.542969-58.996094-19.273438-92zm0 0" fill="#f6e3a3"/><path d="m460.527344 53.5h-77.507813c-4.140625 0-7.5-3.355469-7.5-7.5s3.359375-7.5 7.5-7.5h77.507813c4.144531 0 7.5 3.355469 7.5 7.5s-3.355469 7.5-7.5 7.5zm0 0" fill="#4e5660"/><path d="m129.941406 107.753906c7.308594-8.828125 11.625-19.632812 11.625-31.308594 0-29.785156-27.96875-53.925781-62.472656-53.925781s-62.472656 24.140625-62.472656 53.925781c0 29.78125 27.96875 53.925782 62.472656 53.925782 8.960938 0 17.476562-1.640625 25.179688-4.574219 4.914062 7.777344 11.246093 11.945313 19.683593 14.414063 3.65625 1.066406 7.128907-2.300782 6.074219-5.960938-2.550781-8.855469-1.757812-18.550781-.089844-26.496094zm0 0" fill="#8ee2cf"/><path d="m106.265625 83.945312h-54.34375c-4.144531 0-7.5-3.359374-7.5-7.5 0-4.144531 3.355469-7.5 7.5-7.5h54.34375c4.140625 0 7.5 3.355469 7.5 7.5 0 4.140626-3.359375 7.5-7.5 7.5zm0 0" fill="#4e5660"/></svg>