<svg height="512pt" viewBox="0 -24 512 512" width="512pt" xmlns="http://www.w3.org/2000/svg"><path d="m326.339844 35.46875h-288.765625c-20.75 0-37.574219 16.824219-37.574219 37.574219v75.035156c0 20.753906 16.824219 37.578125 37.574219 37.578125 10.355469 0 18.796875 8.1875 19.25 18.53125.566406 12.96875-.4375 26.402344-4.09375 39.171875-2.777344 9.691406 6.203125 18.582031 15.878906 15.75 28.542969-8.347656 47.882813-24.132813 61.886719-58.15625 3.804687-9.234375 12.777344-15.296875 22.765625-15.296875h173.078125c20.753906 0 37.574218-16.824219 37.574218-37.578125v-75.035156c0-20.75-16.820312-37.574219-37.574218-37.574219zm0 0" fill="#8eafe2"/><path d="m37.574219 35.46875c-20.75 0-37.574219 16.824219-37.574219 37.574219v75.035156c0 20.753906 16.824219 37.578125 37.574219 37.578125 10.355469 0 18.796875 8.1875 19.25 18.53125.566406 12.96875-.4375 26.402344-4.09375 39.171875-2.777344 9.691406 6.203125 18.582031 15.878906 15.75 28.542969-8.347656 47.882813-24.132813 61.886719-58.15625 3.804687-9.234375 12.777344-15.296875 22.765625-15.296875h11.273437c-34.582031-33.277344-54.894531-101.007812-40.640625-150.1875zm0 0" fill="#6a96d7"/><path d="m155.816406 118.0625h-100.777344c-4.144531 0-7.5-3.359375-7.5-7.5 0-4.144531 3.355469-7.5 7.5-7.5h100.777344c4.140625 0 7.5 3.355469 7.5 7.5 0 4.140625-3.359375 7.5-7.5 7.5zm0 0" fill="#4e5660"/><path d="m185.660156 228.960938h288.765625c20.75 0 37.574219 16.824218 37.574219 37.578124v75.035157c0 20.753906-16.824219 37.574219-37.574219 37.574219-10.355469 0-18.796875 8.191406-19.25 18.535156-.566406 12.964844.4375 26.402344 4.09375 39.171875 2.777344 9.691406-6.203125 18.582031-15.878906 15.75-28.542969-8.351563-47.882813-24.132813-61.886719-58.160157-3.804687-9.234374-12.777344-15.296874-22.765625-15.296874h-173.078125c-20.753906 0-37.574218-16.820313-37.574218-37.574219v-75.035157c0-20.753906 16.820312-37.578124 37.574218-37.578124zm0 0" fill="#a3defe"/><path d="m299.210938 228.960938h-113.550782c-20.753906 0-37.574218 16.824218-37.574218 37.578124v75.035157c0 20.753906 16.820312 37.574219 37.574218 37.574219h144.8125c-26.753906-33.347657-39.542968-111.707032-31.261718-150.1875zm0 0" fill="#7acefa"/><path d="m196.027344 309.636719c-35.203125-35.203125-92.28125-35.203125-127.484375 0-35.203125 35.207031-35.203125 92.28125 0 127.484375s92.28125 35.203125 127.484375 0 35.203125-92.277344 0-127.484375zm0 0" fill="#f7ef87"/><path d="m94.78125 387.597656c0 9.644532-9.820312 17.464844-21.933594 17.464844-12.113281 0-21.929687-7.820312-21.929687-17.464844 0-9.648437 9.816406-17.46875 21.929687-17.46875 12.113282 0 21.933594 7.820313 21.933594 17.46875zm0 0" fill="#eda1ab"/><path d="m169.796875 387.597656c0 9.644532 9.820313 17.464844 21.933594 17.464844s21.929687-7.820312 21.929687-17.464844c0-9.648437-9.816406-17.46875-21.929687-17.46875s-21.933594 7.820313-21.933594 17.46875zm0 0" fill="#eda1ab"/><g fill="#4e5660"><path d="m76.515625 374.472656c-4.144531 0-7.5-3.355468-7.5-7.5v-9.414062c0-4.140625 3.355469-7.5 7.5-7.5 4.140625 0 7.5 3.359375 7.5 7.5v9.414062c0 4.144532-3.359375 7.5-7.5 7.5zm0 0"/><path d="m149.972656 374.175781c0-10.925781-7.917968-11.953125-17.683594-11.953125-9.765624 0-17.683593 1.027344-17.683593 11.953125 0 10.929688 7.917969 19.789063 17.683593 19.789063 9.765626 0 17.683594-8.859375 17.683594-19.789063zm0 0"/><path d="m188.0625 374.472656c-4.140625 0-7.5-3.355468-7.5-7.5v-9.414062c0-4.140625 3.359375-7.5 7.5-7.5s7.5 3.359375 7.5 7.5v9.414062c0 4.144532-3.359375 7.5-7.5 7.5zm0 0"/><path d="m421.710938 290.738281h-183.339844c-4.140625 0-7.5-3.359375-7.5-7.5 0-4.144531 3.359375-7.5 7.5-7.5h183.339844c4.144531 0 7.5 3.355469 7.5 7.5 0 4.140625-3.355469 7.5-7.5 7.5zm0 0"/><path d="m421.710938 332.375h-183.339844c-4.140625 0-7.5-3.359375-7.5-7.5s3.359375-7.5 7.5-7.5h183.339844c4.144531 0 7.5 3.359375 7.5 7.5s-3.355469 7.5-7.5 7.5zm0 0"/></g><path d="m181.613281 45.035156c-.523437-24.050781 18.496094-44.738281 42.546875-45.03124975 13.773438-.16796825 26.078125 6.12499975 34.085938 16.03906275 8.007812-9.910157 20.3125-16.207031 34.082031-16.03906275 24.054687.29296875 43.074219 20.98046875 42.550781 45.03124975-.964844 44.394532-35.199218 73.527344-60.667968 87.988282-9.914063 5.628906-22.015626 5.628906-31.929688 0-25.46875-14.460938-59.703125-43.59375-60.667969-87.988282zm0 0" fill="#eda1ab"/></svg>