<svg height="512pt" viewBox="0 0 512 512" width="512pt" xmlns="http://www.w3.org/2000/svg"><path d="m406.765625 341.4375c58.117187 0 105.234375-47.117188 105.234375-105.238281 0-52.386719-38.28125-95.8125-88.394531-103.875-4.289063-73.796875-65.46875-132.324219-140.339844-132.324219-70.207031 0-128.382813 51.457031-138.898437 118.707031-9.816407-2.765625-20.160157-4.28125-30.859376-4.28125-62.691406 0-113.507812 50.820313-113.507812 113.507813 0 62.683594 50.816406 113.503906 113.503906 113.503906zm0 0" fill="#a3defe"/><path d="m194.722656 31.390625c-26.390625 21.425781-44.867187 52.214844-50.355468 87.316406-9.816407-2.765625-20.160157-4.28125-30.859376-4.28125-62.691406 0-113.507812 50.820313-113.507812 113.507813 0 62.683594 50.816406 113.503906 113.503906 113.503906h199.777344c-87.441406-41.09375-152.015625-219.289062-118.558594-310.046875zm0 0" fill="#7acefa"/><path d="m256 512c-19.808594 0-38.242188-8.886719-50.582031-24.378906l-69.632813-87.433594c-10.710937-13.445312-12.726562-31.417969-5.261718-46.898438 7.460937-15.484374 22.773437-25.105468 39.964843-25.105468h.863281v-80.84375c0-28.96875 23.566407-52.535156 52.53125-52.535156h64.234376c28.964843 0 52.53125 23.566406 52.53125 52.535156v80.84375h.863281c17.191406 0 32.503906 9.621094 39.964843 25.105468 7.464844 15.484376 5.449219 33.453126-5.261718 46.898438l-69.632813 87.433594c-12.339843 15.492187-30.773437 24.378906-50.582031 24.378906zm0 0" fill="#f7ef87"/><path d="m306.582031 487.621094 31.140625-39.097656c-87.589844-17.71875-147.496094-161.25-126.824218-252.09375-22.707032 5.796874-39.546876 26.421874-39.546876 50.90625v80.847656h-.863281c-17.191406 0-32.503906 9.621094-39.964843 25.105468-7.464844 15.484376-5.449219 33.453126 5.261718 46.898438l69.632813 87.433594c12.339843 15.492187 30.773437 24.378906 50.582031 24.378906s38.242188-8.886719 50.582031-24.378906zm0 0" fill="#efd176"/><path d="m309.46875 359.363281v-112.027343c0-11.789063-9.5625-21.351563-21.351562-21.351563h-64.230469c-11.792969 0-21.351563 9.5625-21.351563 21.351563v112.027343h-32.046875c-11.039062 0-17.191406 12.761719-10.3125 21.398438l69.632813 87.433593c13.40625 16.832032 38.976562 16.832032 52.382812 0l69.632813-87.433593c6.878906-8.636719.730469-21.398438-10.3125-21.398438zm0 0" fill="#8eafe2"/><path d="m231.558594 137.191406c0-13.296875-13.535156-24.074218-30.234375-24.074218s-30.234375 10.777343-30.234375 24.074218c0 13.300782 13.535156 24.078125 30.234375 24.078125s30.234375-10.777343 30.234375-24.078125zm0 0" fill="#fff"/><path d="m395.4375 137.191406c0-13.296875-13.535156-24.074218-30.234375-24.074218s-30.234375 10.777343-30.234375 24.074218c0 13.300782 13.535156 24.078125 30.234375 24.078125s30.234375-10.777343 30.234375-24.078125zm0 0" fill="#fff"/><g fill="#4e5660"><path d="m218.945312 120.675781c-4.144531 0-7.5-3.359375-7.5-7.5v-10.679687c0-4.140625 3.355469-7.5 7.5-7.5 4.140626 0 7.5 3.359375 7.5 7.5v10.679687c0 4.140625-3.359374 7.5-7.5 7.5zm0 0"/><path d="m347.582031 120.675781c-4.140625 0-7.5-3.359375-7.5-7.5v-10.679687c0-4.140625 3.359375-7.5 7.5-7.5 4.144531 0 7.5 3.359375 7.5 7.5v10.679687c0 4.140625-3.355469 7.5-7.5 7.5zm0 0"/><path d="m283.265625 128.871094c-8.667969 0-16.910156-3.753906-22.613281-10.296875-2.722656-3.121094-2.394532-7.859375.726562-10.582031 3.125-2.71875 7.859375-2.394532 10.582032.726562 2.855468 3.277344 6.976562 5.152344 11.304687 5.152344s8.449219-1.875 11.300781-5.152344c2.722656-3.121094 7.457032-3.445312 10.582032-.726562 3.125 2.722656 3.449218 7.460937.730468 10.582031-5.707031 6.542969-13.949218 10.296875-22.613281 10.296875zm0 0"/></g><path d="m206.800781 234.566406c-2.667969 3.566406-4.269531 7.976563-4.269531 12.769532v112.027343h-32.042969c-11.042969 0-17.191406 12.761719-10.3125 21.398438l69.632813 87.433593c13.40625 16.832032 38.976562 16.832032 52.382812 0l24.96875-31.351562c-59.855468-34.089844-100.660156-126.34375-100.359375-202.277344zm0 0" fill="#6a96d7"/><path d="m406.125 295.835938c-1.917969 0-3.839844-.730469-5.304688-2.195313-2.925781-2.929687-2.925781-7.679687 0-10.609375l26.613282-26.609375c2.929687-2.929687 7.675781-2.929687 10.605468 0 2.929688 2.929687 2.929688 7.679687 0 10.605469l-26.609374 26.613281c-1.464844 1.460937-3.382813 2.195313-5.304688 2.195313zm0 0" fill="#7acefa"/><path d="m407.359375 243.125c-1.921875 0-3.839844-.730469-5.304687-2.195312-2.929688-2.929688-2.929688-7.675782 0-10.605469l24.144531-24.148438c2.933593-2.925781 7.679687-2.925781 10.609375 0 2.929687 2.929688 2.929687 7.679688 0 10.609375l-24.148438 24.144532c-1.464844 1.464843-3.382812 2.195312-5.300781 2.195312zm0 0" fill="#7acefa"/></svg>