<svg height="511pt" viewBox="1 -6 511.99975 511" width="511pt" xmlns="http://www.w3.org/2000/svg"><path d="m302.84375 251.390625-55.5625-55.5625-237.707031 237.707031c-12.765625 12.765625-12.765625 33.460938 0 46.226563l9.335937 9.335937c12.765625 12.765625 33.460938 12.765625 46.226563 0zm0 0" fill="#4e5660"/><path d="m88.792969 354.316406-79.21875 79.21875c-12.765625 12.765625-12.765625 33.460938 0 46.226563l9.335937 9.335937c12.765625 12.765625 33.460938 12.765625 46.226563 0l41.023437-41.023437c-15.769531-24.875-19.566406-60.054688-17.367187-93.757813zm0 0" fill="#383c43"/><path d="m247.28125 195.828125-51.875 51.875c2.34375 1.140625 4.78125 2.121094 7.320312 2.878906l13.273438 3.980469c6.265625 1.878906 10.707031 7.449219 11.144531 13.972656l.921875 13.828125c.789063 11.789063 5.746094 22.398438 13.351563 30.453125l61.425781-61.425781zm0 0" fill="#383c43"/><path d="m312.191406 283.265625-21.691406 15.046875c-14.9375 10.363281-35.476562.472656-36.6875-17.671875l-1.757812-26.335937c-.652344-9.742188-7.28125-18.058594-16.636719-20.859376l-25.285157-7.578124c-17.417968-5.21875-22.488281-27.4375-9.0625-39.699219l19.496094-17.800781c7.210938-6.582032 9.574219-16.949219 5.933594-26.007813l-9.839844-24.492187c-6.78125-16.875 7.429688-34.695313 25.390625-31.839844l26.070313 4.144531c9.640625 1.535156 19.222656-3.078125 24.035156-11.574219l13.011719-22.964844c8.964843-15.820312 31.761719-15.820312 40.722656 0l13.015625 22.964844c4.8125 8.496094 14.394531 13.109375 24.035156 11.574219l26.070313-4.144531c17.957031-2.855469 32.167969 14.964844 25.390625 31.839844l-9.84375 24.492187c-3.640625 9.058594-1.273438 19.425781 5.9375 26.007813l19.496094 17.800781c13.425781 12.261719 8.355468 34.480469-9.0625 39.699219l-25.285157 7.578124c-9.355469 2.800782-15.984375 11.117188-16.636719 20.859376l-1.757812 26.335937c-1.214844 18.144531-21.75 28.035156-36.6875 17.671875l-21.691406-15.046875c-8.023438-5.566406-18.65625-5.566406-26.679688 0zm0 0" fill="#f7ef87"/><path d="m210.132812 225.867188 25.285157 7.578124c9.351562 2.800782 15.984375 11.117188 16.632812 20.855469l1.761719 26.339844c1.210938 18.144531 21.75 28.03125 36.6875 17.667969l21.691406-15.046875c8.019532-5.5625 18.65625-5.5625 26.675782 0l21.691406 15.046875c10.828125 7.511718 24.59375 4.378906 31.8125-4.824219-89.300782-56.175781-106.582032-165.148437-87.898438-236.628906l-12.320312 21.742187c-4.8125 8.492188-14.394532 13.105469-24.035156 11.574219l-26.070313-4.144531c-17.957031-2.855469-32.167969 14.964844-25.386719 31.835937l9.839844 24.496094c3.640625 9.058594 1.273438 19.425781-5.933594 26.007813l-19.496094 17.796874c-13.429687 12.261719-8.355468 34.484376 9.0625 39.703126zm0 0" fill="#efd176"/><path d="m356.382812 149.789062c-1.917968 0-3.839843-.730468-5.304687-2.195312-2.925781-2.929688-2.925781-7.679688 0-10.609375l17.078125-17.078125c2.929688-2.929688 7.679688-2.929688 10.609375 0 2.925781 2.929688 2.925781 7.679688 0 10.605469l-17.078125 17.078125c-1.464844 1.464844-3.382812 2.199218-5.304688 2.199218zm0 0" fill="#efd176"/><path d="m294.679688 149.789062c-1.921876 0-3.839844-.730468-5.304688-2.195312l-17.078125-17.078125c-2.929687-2.929687-2.929687-7.679687 0-10.609375 2.929687-2.925781 7.679687-2.925781 10.605469 0l17.078125 17.078125c2.929687 2.929687 2.929687 7.679687 0 10.609375-1.460938 1.460938-3.382813 2.195312-5.300781 2.195312zm0 0" fill="#f7ef87"/><path d="m325.53125 248.425781c-4.140625 0-7.5-3.359375-7.5-7.5v-24.152343c0-4.140626 3.359375-7.5 7.5-7.5s7.5 3.359374 7.5 7.5v24.152343c0 4.140625-3.359375 7.5-7.5 7.5zm0 0" fill="#f7ef87"/><path d="m373.460938 228.570312c-1.917969 0-3.839844-.730468-5.304688-2.195312l-17.078125-17.078125c-2.925781-2.929687-2.925781-7.679687 0-10.605469 2.929687-2.929687 7.679687-2.929687 10.609375 0l17.078125 17.078125c2.925781 2.925781 2.925781 7.675781 0 10.605469-1.464844 1.464844-3.386719 2.195312-5.304687 2.195312zm0 0" fill="#efd176"/><g fill="#a3defe"><path d="m65.136719 489.097656 60.914062-60.914062c-13.117187-7.050782-22.941406-6.5-36.003906-19.5625-13.058594-13.058594-12.507813-22.882813-19.558594-36l-60.914062 60.914062c-12.765625 12.765625-12.765625 33.460938 0 46.226563l9.335937 9.335937c12.765625 12.765625 33.460938 12.765625 46.226563 0zm0 0"/><path d="m219.492188 56.265625c-4.140626 0-7.5-3.359375-7.5-7.5v-40.765625c0-4.140625 3.359374-7.5 7.5-7.5 4.140624 0 7.5 3.359375 7.5 7.5v40.765625c0 4.140625-3.359376 7.5-7.5 7.5zm0 0"/><path d="m239.875 35.882812h-40.765625c-4.144531 0-7.5-3.359374-7.5-7.5 0-4.140624 3.355469-7.5 7.5-7.5h40.765625c4.140625 0 7.5 3.359376 7.5 7.5 0 4.140626-3.359375 7.5-7.5 7.5zm0 0"/></g><path d="m353.261719 397.644531c-1.917969 0-3.839844-.734375-5.304688-2.199219l-28.824219-28.824218c-2.929687-2.929688-2.929687-7.679688 0-10.609375 2.929688-2.929688 7.679688-2.929688 10.605469 0l28.828125 28.828125c2.929688 2.929687 2.929688 7.675781 0 10.605468-1.464844 1.464844-3.386718 2.199219-5.304687 2.199219zm0 0" fill="#8ee2cf"/><path d="m324.4375 397.644531c-1.921875 0-3.839844-.734375-5.304688-2.199219-2.929687-2.929687-2.929687-7.675781 0-10.605468l28.824219-28.828125c2.929688-2.929688 7.679688-2.929688 10.609375 0 2.925782 2.929687 2.925782 7.679687 0 10.609375l-28.828125 28.824218c-1.464843 1.464844-3.382812 2.199219-5.300781 2.199219zm0 0" fill="#8ee2cf"/><path d="m505.777344 328.921875c8.296875 3.53125 8.296875 15.289063 0 18.820313-14.84375 6.316406-26.664063 18.136718-32.980469 32.980468-3.53125 8.296875-15.292969 8.296875-18.820313 0-6.316406-14.84375-18.140624-26.664062-32.984374-32.980468-8.292969-3.53125-8.292969-15.289063 0-18.820313 14.84375-6.316406 26.667968-18.136719 32.984374-32.980469 3.527344-8.296875 15.289063-8.296875 18.820313 0 6.316406 14.84375 18.136719 26.664063 32.980469 32.980469zm0 0" fill="#8eafe2"/><path d="m168.390625 128.210938c3.371094 8.363281-4.945313 16.679687-13.308594 13.308593-14.960937-6.03125-31.679687-6.03125-46.640625 0-8.363281 3.371094-16.679687-4.945312-13.308594-13.308593 6.03125-14.960938 6.03125-31.679688 0-46.640626-3.371093-8.363281 4.945313-16.679687 13.308594-13.308593 14.960938 6.027343 31.679688 6.027343 46.640625 0 8.363281-3.371094 16.679688 4.945312 13.308594 13.308593-6.027344 14.960938-6.027344 31.679688 0 46.640626zm0 0" fill="#eda1ab"/><path d="m65.136719 489.097656 41.023437-41.023437c-6.933594-10.933594-11.554687-23.855469-14.367187-37.773438-.574219-.535156-1.15625-1.089843-1.746094-1.679687-13.0625-13.058594-12.507813-22.882813-19.558594-36l-60.914062 60.914062c-12.765625 12.765625-12.765625 33.460938 0 46.226563l9.335937 9.335937c12.765625 12.765625 33.460938 12.765625 46.226563 0zm0 0" fill="#7acefa"/></svg>