<svg height="512pt" viewBox="0 0 512.01496 512" width="512pt" xmlns="http://www.w3.org/2000/svg"><path d="m388.496094 512.007812c16.378906 0 28.773437-14.929687 25.636718-31.007812-14.453124-74.148438-79.757812-130.113281-158.136718-130.113281s-143.683594 55.964843-158.140625 130.113281c-3.132813 16.078125 9.257812 31.007812 25.636719 31.007812zm0 0" fill="#8eafe2"/><path d="m222.894531 354.328125c-63.113281 13.183594-112.675781 63.261719-125.039062 126.671875-3.132813 16.078125 9.257812 31.007812 25.636719 31.007812h122.515624c-47.980468-31.882812-46.589843-123.707031-23.113281-157.679687zm0 0" fill="#6a96d7"/><path d="m310.515625 512.007812c0-35.433593-24.410156-64.15625-54.519531-64.15625s-54.519532 28.722657-54.519532 64.15625zm0 0" fill="#f7ef87"/><path d="m215.140625 469.546875c-8.496094 11.3125-13.664063 26.171875-13.664063 42.460937h44.53125c-14.609374-9.707031-24.640624-24.964843-30.867187-42.460937zm0 0" fill="#efd176"/><path d="m105.324219 205.082031c-4.433594-28.914062-31.46875-48.761719-60.386719-44.324219-28.914062 4.433594-48.761719 31.46875-44.324219 60.386719 4.433594 28.914063 31.46875 48.757813 60.386719 44.324219 28.914062-4.433594 48.761719-31.472656 44.324219-60.386719zm0 0" fill="#ffd4be"/><path d="m468.9375 161.097656c-28.738281-5.464844-56.46875 13.402344-61.933594 42.144532-5.464844 28.738281 13.40625 56.46875 42.144532 61.933593 28.742187 5.464844 56.46875-13.40625 61.933593-42.144531 5.464844-28.742188-13.402343-56.46875-42.144531-61.933594zm0 0" fill="#ffbf9e"/><path d="m467.914062 213.125c0 117.039062-111.898437 193.582031-211.917968 193.582031-100.023438 0-211.921875-76.542969-211.921875-193.582031 0-117.042969 94.882812-189.128906 211.921875-189.128906 117.039062 0 211.917968 72.085937 211.917968 189.128906zm0 0" fill="#ffd4be"/><path d="m255.996094 406.707031c28.617187 0 58.203125-6.277343 85.867187-17.964843-230.519531-10.640626-250.429687-232.050782-179.640625-347.484376-70 27.949219-118.148437 88.496094-118.148437 171.867188 0 117.039062 111.898437 193.582031 211.921875 193.582031zm0 0" fill="#ffbf9e"/><path d="m373.097656 99.214844c13.019532 56.890625 44.917969 87.546875 81.050782 104.398437 8.28125 3.863281 17.988281-1.539062 18.746093-10.648437 8.527344-102.539063-84.371093-192.9570315-216.898437-192.9570315s-225.425782 90.4179685-216.902344 192.9570315c.757812 9.109375 10.464844 14.511718 18.75 10.648437 36.128906-16.851562 68.027344-47.507812 81.050781-104.398437zm0 0" fill="#4e5660"/><path d="m366.953125 24.230469c-24.996094 24.996093-49.992187 49.988281-74.988281 74.984375h81.132812c6.609375 28.878906 18.089844 50.984375 32.511719 67.96875 22.679687-6.335938 43.835937-15.035156 62.925781-25.917969-12.695312-49.332031-49.355468-91.878906-101.582031-117.035156zm0 0" fill="#383c43"/><path d="m255.996094.0078125c108.484375 0 166.265625 36.8945315 227.960937 84.6679685 8.242188 6.382813 8.21875 18.859375-.0625 25.191407-109.210937 83.488281-300.722656 56.140624-345-10.652344zm0 0" fill="#4e5660"/><path d="m317.222656 123.109375c-23.453125 0-46.925781-2.980469-69.21875-8.855469-26.144531-6.894531-45.457031-16.339844-54.054687-22.335937-3.398438-2.367188-4.230469-7.042969-1.859375-10.441407 2.367187-3.394531 7.042968-4.226562 10.441406-1.859374 14.046875 9.796874 70.988281 35.722656 145.804688 26.621093 4.121093-.496093 7.847656 2.425781 8.347656 6.539063.5 4.109375-2.425782 7.851562-6.539063 8.351562-10.882812 1.320313-21.902343 1.980469-32.921875 1.980469zm0 0" fill="#383c43"/><path d="m333.878906 83.625c-12.144531 0-22.859375-1.195312-29.613281-2.859375-4.023437-.992187-6.480469-5.054687-5.488281-9.078125.992187-4.023438 5.058594-6.480469 9.078125-5.484375 13.765625 3.390625 44.78125 4.113281 67.199219-3.359375 3.929687-1.308594 8.175781.8125 9.488281 4.746094 1.308593 3.929687-.816407 8.175781-4.746094 9.484375-14.382813 4.792969-31.199219 6.550781-45.917969 6.550781zm0 0" fill="#383c43"/><path d="m178.089844 257.550781c0-20.035156-20.398438-36.277343-45.558594-36.277343s-45.554688 16.242187-45.554688 36.277343c0 20.035157 20.394532 36.277344 45.554688 36.277344s45.558594-16.242187 45.558594-36.277344zm0 0" fill="#eda1ab"/><path d="m425.015625 257.550781c0-20.035156-20.398437-36.277343-45.558594-36.277343-25.160156 0-45.554687 16.242187-45.554687 36.277343 0 20.035157 20.394531 36.277344 45.554687 36.277344 25.160157 0 45.558594-16.242187 45.558594-36.277344zm0 0" fill="#eda1ab"/><g fill="#4e5660"><path d="m159.082031 228.863281c-4.144531 0-7.5-3.359375-7.5-7.5v-16.089843c0-4.140626 3.355469-7.5 7.5-7.5 4.140625 0 7.5 3.359374 7.5 7.5v16.089843c0 4.140625-3.359375 7.5-7.5 7.5zm0 0"/><path d="m352.910156 228.863281c-4.144531 0-7.5-3.359375-7.5-7.5v-16.089843c0-4.140626 3.355469-7.5 7.5-7.5 4.140625 0 7.5 3.359374 7.5 7.5v16.089843c0 4.140625-3.359375 7.5-7.5 7.5zm0 0"/><path d="m255.996094 241.214844c-11.960938 0-23.335938-5.179688-31.207032-14.210938-2.71875-3.125-2.394531-7.863281.726563-10.582031 3.125-2.722656 7.859375-2.398437 10.582031.726563 5.023438 5.761718 12.277344 9.066406 19.898438 9.066406s14.875-3.304688 19.894531-9.066406c2.722656-3.125 7.460937-3.449219 10.582031-.726563 3.125 2.71875 3.449219 7.457031.726563 10.582031-7.871094 9.03125-19.242188 14.210938-31.203125 14.210938zm0 0"/></g></svg>