<svg height="512pt" viewBox="0 -37 512 511" width="512pt" xmlns="http://www.w3.org/2000/svg"><path d="m440.070312 332.167969h-368.140624c-39.726563 0-71.929688-32.203125-71.929688-71.929688v-187.808593c0-39.726563 32.203125-71.929688 71.929688-71.929688h368.140624c39.726563 0 71.929688 32.203125 71.929688 71.929688v187.808593c0 39.726563-32.203125 71.929688-71.929688 71.929688zm0 0" fill="#8eafe2"/><path d="m204.964844.5h-133.035156c-39.726563 0-71.929688 32.203125-71.929688 71.929688v187.808593c0 39.726563 32.203125 71.929688 71.929688 71.929688h185.003906c-71.101563-76.382813-72.480469-252.65625-51.96875-331.667969zm0 0" fill="#6a96d7"/><path d="m71.929688 300.730469c-22.328126 0-40.492188-18.164063-40.492188-40.492188v-187.808593c0-22.328126 18.164062-40.492188 40.492188-40.492188h368.140624c22.328126 0 40.492188 18.164062 40.492188 40.492188v187.808593c0 22.328125-18.164062 40.496094-40.492188 40.496094h-368.140624zm0 0" fill="#f7ef87"/><path d="m198.734375 31.933594h-126.804687c-22.328126 0-40.492188 18.167968-40.492188 40.496094v187.808593c0 22.328125 18.164062 40.492188 40.492188 40.492188h162.363281c-42.027344-74.394531-46.796875-193.1875-35.558594-268.796875zm0 0" fill="#efd176"/><path d="m0 243.453125v16.785156c0 39.726563 32.203125 71.929688 71.929688 71.929688h368.140624c39.726563 0 71.929688-32.203125 71.929688-71.929688v-16.785156zm0 0" fill="#a3defe"/><path d="m210.957031 243.453125h-210.957031v16.785156c0 39.726563 32.203125 71.929688 71.929688 71.929688h185.003906c-20.996094-22.554688-35.90625-53.816407-45.976563-88.714844zm0 0" fill="#7acefa"/><path d="m320.972656 332.167969h-129.945312l-7.128906 67.582031h144.203124zm0 0" fill="#4e5660"/><path d="m361.433594 436.699219h-210.867188c-7.011718 0-11.832031-7.042969-9.292968-13.578125l3.820312-9.84375c3.167969-8.15625 11.019531-13.527344 19.765625-13.527344h182.28125c8.75 0 16.597656 5.371094 19.765625 13.527344l3.824219 9.84375c2.535156 6.535156-2.285157 13.578125-9.296875 13.578125zm0 0" fill="#a3defe"/><path d="m196.003906 138.644531c0-15.429687-15.707031-27.9375-35.078125-27.9375-19.375 0-35.082031 12.507813-35.082031 27.9375 0 15.429688 15.707031 27.9375 35.082031 27.9375 19.371094 0 35.078125-12.507812 35.078125-27.9375zm0 0" fill="#eda1ab"/><path d="m386.15625 138.644531c0-15.429687-15.707031-27.9375-35.082031-27.9375-19.371094 0-35.078125 12.507813-35.078125 27.9375 0 15.429688 15.707031 27.9375 35.078125 27.9375 19.375 0 35.082031-12.507812 35.082031-27.9375zm0 0" fill="#eda1ab"/><g fill="#4e5660"><path d="m166.789062 113.15625c-4.144531 0-7.5-3.355469-7.5-7.5v-15.054688c0-4.144531 3.355469-7.5 7.5-7.5 4.144532 0 7.5 3.355469 7.5 7.5v15.054688c0 4.144531-3.355468 7.5-7.5 7.5zm0 0"/><path d="m284.285156 117.179688c0-17.480469-12.664062-31.652344-28.285156-31.652344s-28.285156 14.171875-28.285156 31.652344c0 17.480468 12.664062 31.648437 28.285156 31.648437s28.285156-14.167969 28.285156-31.648437zm0 0"/><path d="m345.210938 113.15625c-4.144532 0-7.5-3.355469-7.5-7.5v-15.054688c0-4.144531 3.355468-7.5 7.5-7.5 4.144531 0 7.5 3.355469 7.5 7.5v15.054688c0 4.144531-3.359376 7.5-7.5 7.5zm0 0"/><path d="m395.574219 148.164062c-1.921875 0-3.839844-.730468-5.304688-2.195312l-28.484375-28.484375c-2.929687-2.929687-2.929687-7.679687 0-10.605469 2.933594-2.929687 7.679688-2.929687 10.609375 0l28.480469 28.480469c2.929688 2.929687 2.929688 7.679687 0 10.609375-1.464844 1.460938-3.382812 2.195312-5.300781 2.195312zm0 0"/><path d="m389.902344 105.984375-17.871094 3.554687c-3.828125.761719-6.820312 3.753907-7.582031 7.582032l-3.554688 17.871094c-1.933593 9.710937-15.492187 10.5625-18.621093 1.167968l-18.296876-54.886718c-2.515624-7.546876 4.664063-14.722657 12.207032-12.207032l54.890625 18.292969c9.390625 3.132813 8.539062 16.691406-1.171875 18.625zm0 0"/></g><path d="m335.03125 218.75h-158.0625c-7.242188 0-13.113281-5.871094-13.113281-13.113281v-12.183594c0-7.238281 5.871093-13.109375 13.113281-13.109375h158.0625c7.242188 0 13.113281 5.867188 13.113281 13.109375v12.183594c0 7.242187-5.871093 13.113281-13.113281 13.113281zm0 0" fill="#8eafe2"/><path d="m198.148438 180.34375h-21.179688c-7.242188 0-13.113281 5.871094-13.113281 13.109375v12.183594c0 7.242187 5.871093 13.113281 13.113281 13.113281h27.789062c-2.734374-12.578125-4.917968-25.449219-6.609374-38.40625zm0 0" fill="#6a96d7"/><path d="m86.480469 80.863281h-20.328125c-4.144532 0-7.5-3.355469-7.5-7.5 0-4.140625 3.355468-7.5 7.5-7.5h20.324218c4.144532 0 7.5 3.359375 7.5 7.5.003907 4.144531-3.355468 7.5-7.496093 7.5zm0 0" fill="#fff"/><path d="m86.480469 105.628906h-20.328125c-4.144532 0-7.5-3.359375-7.5-7.5s3.355468-7.5 7.5-7.5h20.324218c4.144532 0 7.5 3.359375 7.5 7.5.003907 4.140625-3.355468 7.5-7.496093 7.5zm0 0" fill="#fff"/><path d="m310.363281 295.308594h-108.726562c-4.144531 0-7.5-3.355469-7.5-7.5 0-4.140625 3.355469-7.5 7.5-7.5h108.726562c4.144531 0 7.5 3.359375 7.5 7.5 0 4.144531-3.355469 7.5-7.5 7.5zm0 0" fill="#fff"/><path d="m243.375 399.75h-78.515625c-8.75 0-16.597656 5.371094-19.765625 13.527344l-3.820312 9.84375c-2.539063 6.535156 2.28125 13.578125 9.292968 13.578125h105.394532c-6.972657-7.90625-13.640626-22.683594-12.585938-36.949219zm0 0" fill="#7acefa"/></svg>