<svg height="512pt" viewBox="0 -33 512.0005 512" width="512pt" xmlns="http://www.w3.org/2000/svg"><path d="m243.914062 432.566406-119.542968-119.539062c-18.234375-18.234375-18.234375-47.796875 0-66.03125l188.382812-188.378906c18.234375-18.234376 47.796875-18.234376 66.027344 0l119.542969 119.539062c18.234375 18.234375 18.234375 47.796875 0 66.03125l-188.382813 188.378906c-18.230468 18.234375-47.792968 18.234375-66.027344 0zm0 0" fill="#fcf2d0"/><path d="m302.429688 68.9375-178.058594 178.058594c-18.234375 18.234375-18.234375 47.796875 0 66.03125l119.542968 119.539062c18.234376 18.234375 47.796876 18.234375 66.03125 0l46.449219-46.449218c-69.480469-55.769532-79.867187-218.757813-53.964843-317.179688zm0 0" fill="#f6e3a3"/><path d="m276.929688 421.429688c-8.15625 0-15.824219-3.179688-21.59375-8.945313l-110.882813-110.882813c-11.902344-11.90625-11.902344-31.273437 0-43.179687l179.726563-179.726563c11.90625-11.902343 31.273437-11.902343 43.179687 0l110.882813 110.882813c11.90625 11.90625 11.90625 31.277344 0 43.183594l-179.722657 179.722656c-5.765625 5.765625-13.433593 8.945313-21.589843 8.945313zm68.839843-336.667969c-3.980469 0-7.957031 1.515625-10.984375 4.542969l-179.722656 179.722656c-6.054688 6.058594-6.054688 15.910156 0 21.96875l110.882812 110.882812c2.933594 2.933594 6.835938 4.550782 10.984376 4.550782 4.148437 0 8.050781-1.617188 10.980468-4.550782l179.726563-179.726562c6.054687-6.054688 6.054687-15.910156 0-21.964844l-110.882813-110.882812c-3.027344-3.027344-7.007812-4.542969-10.984375-4.542969zm0 0" fill="#8eafe2"/><path d="m354.496094 187.960938-67.464844 18.707031c-7.097656 1.964843-12.640625 7.507812-14.609375 14.605469l-18.703125 67.464843c-2.445312 8.816407 5.664062 16.929688 14.484375 14.484375l67.464844-18.707031c7.09375-1.964844 12.640625-7.511719 14.605469-14.605469l18.707031-67.464844c2.445312-8.816406-5.667969-16.929687-14.484375-14.484374zm0 0" fill="#8eafe2"/><path d="m290.164062 205.796875-3.132812.871094c-7.097656 1.964843-12.640625 7.507812-14.609375 14.605469l-18.703125 67.464843c-2.445312 8.816407 5.664062 16.929688 14.484375 14.484375l35.394531-9.8125c-7.472656-27.265625-11.832031-57.328125-13.433594-87.613281zm0 0" fill="#6a96d7"/><path d="m368.058594 89.992188c0 45.339843-36.757813 82.097656-82.097656 82.097656-45.34375 0-82.101563-36.757813-82.101563-82.097656 0-45.34375 36.757813-82.101563 82.101563-82.101563 45.339843 0 82.097656 36.757813 82.097656 82.101563zm0 0" fill="#8ee2cf"/><path d="m273.640625 8.8125c-39.496094 5.945312-69.78125 40.023438-69.78125 81.179688 0 45.339843 36.757813 82.097656 82.101563 82.097656 27.636718 0 52.066406-13.671875 66.945312-34.609375-63.589844-11.652344-93.808594-78.660157-79.265625-128.667969zm0 0" fill="#6fce91"/><path d="m330.554688 89.992188c0 24.628906-19.964844 44.59375-44.59375 44.59375-24.632813 0-44.597657-19.964844-44.597657-44.59375 0-24.632813 19.964844-44.597657 44.597657-44.597657 24.628906 0 44.59375 19.964844 44.59375 44.597657zm0 0" fill="#f7ef87"/><path d="m316.222656 122.734375c-25.925781-17.28125-41.609375-45.871094-45.316406-74.726563-17.222656 6.175782-29.542969 22.636719-29.542969 41.984376 0 24.628906 19.964844 44.59375 44.597657 44.59375 11.683593 0 22.3125-4.5 30.261718-11.851563zm0 0" fill="#efd176"/><path d="m215.746094 359.792969h-169.054688c-25.789062 0-46.691406-20.902344-46.691406-46.691407v-266.410156c0-25.785156 20.902344-46.691406 46.691406-46.691406h169.054688c25.785156 0 46.691406 20.90625 46.691406 46.691406v266.410156c0 25.789063-20.902344 46.691407-46.691406 46.691407zm0 0" fill="#fcf2d0"/><path d="m46.691406 0c-25.789062 0-46.691406 20.902344-46.691406 46.691406v266.410156c0 25.785157 20.902344 46.691407 46.691406 46.691407h119.761719c-85.488281-69.898438-91.4375-240.996094-60.464844-359.792969zm0 0" fill="#f6e3a3"/><path d="m209.625 337.511719h-156.8125c-16.835938 0-30.53125-13.695313-30.53125-30.53125v-254.167969c0-16.835938 13.695312-30.535156 30.53125-30.535156h156.808594c16.839844 0 30.535156 13.699218 30.535156 30.535156v254.167969c0 16.835937-13.695312 30.53125-30.53125 30.53125zm-156.8125-300.234375c-8.566406 0-15.53125 6.972656-15.53125 15.535156v254.167969c0 8.5625 6.964844 15.53125 15.53125 15.53125h156.808594c8.566406 0 15.535156-6.96875 15.535156-15.53125v-254.167969c0-8.5625-6.96875-15.535156-15.535156-15.535156zm0 0" fill="#eda1ab"/><path d="m64.417969 159.335938c-.457031-20.960938 16.121093-38.996094 37.089843-39.253907 12.007813-.148437 22.730469 5.339844 29.710938 13.980469 6.980469-8.640625 17.707031-14.128906 29.710938-13.980469 20.964843.257813 37.546874 18.292969 37.089843 39.253907-.839843 38.699218-30.683593 64.09375-52.886719 76.699218-8.636718 4.902344-19.191406 4.902344-27.828124 0-22.203126-12.605468-52.042969-38-52.886719-76.699218zm0 0" fill="#eda1ab"/><path d="m96.039062 221.03125c-5.742187-31.617188-7.867187-65.222656-6.980468-98.585938-14.699219 5.566407-25 20.308594-24.640625 36.894532.585937 26.96875 15.265625 47.472656 31.621093 61.691406zm0 0" fill="#e26e7e"/><g fill="#f6e3a3"><path d="m181.105469 94.148438c-1.917969 0-3.839844-.730469-5.304688-2.195313-2.929687-2.929687-2.929687-7.679687 0-10.605469l9.769531-9.769531c2.929688-2.933594 7.679688-2.929687 10.605469-.003906 2.929688 2.929687 2.929688 7.679687.003907 10.605469l-9.773438 9.773437c-1.460938 1.464844-3.382812 2.195313-5.300781 2.195313zm0 0"/><path d="m417.621094 219.214844c-4.140625 0-7.5-3.359375-7.5-7.5v-12.632813c0-4.140625 3.359375-7.5 7.5-7.5 4.144531 0 7.5 3.359375 7.5 7.5v12.632813c0 4.140625-3.355469 7.5-7.5 7.5zm0 0"/></g></svg>