<?xml version="1.0" encoding="iso-8859-1"?>
<!-- Generator: Adobe Illustrator 19.0.0, SVG Export Plug-In . SVG Version: 6.00 Build 0)  -->
<svg version="1.1" id="Capa_1" xmlns="http://www.w3.org/2000/svg" xmlns:xlink="http://www.w3.org/1999/xlink" x="0px" y="0px"
	 viewBox="0 0 512 512" style="enable-background:new 0 0 512 512;" xml:space="preserve">
<path style="fill:#EDA751;" d="M386.063,475.457H302.06c-13.578,0-24.585-11.007-24.585-24.585s11.007-24.585,24.585-24.585h84.003
	c13.578,0,24.585,11.007,24.585,24.585C410.648,464.45,399.641,475.457,386.063,475.457z"/>
<path style="opacity:0.2;fill:#A35F00;enable-background:new    ;" d="M386.063,475.457H302.06
	c-13.578,0-24.585-11.007-24.585-24.585s11.007-24.585,24.585-24.585h84.003c13.578,0,24.585,11.007,24.585,24.585
	C410.648,464.45,399.641,475.457,386.063,475.457z"/>
<path style="fill:#EDA751;" d="M93.435,467.827c-11.528,0-21.25-3.837-28.672-8.317c-23.22-14.02-28.618-36.851-33.38-56.995
	c-4.923-20.823-8.692-34.007-23.531-42.328c-7.402-4.15-10.037-13.516-5.886-20.918c4.149-7.401,13.511-10.041,20.918-5.886
	c27.362,15.343,33.485,41.248,38.406,62.062c4.457,18.853,7.778,30.764,19.357,37.755c7.187,4.338,16.632,7.317,32.2-3.48
	c13.101-9.087,25.373-24.226,36.201-37.584c1.269-1.565,2.51-3.096,3.723-4.581c5.372-6.573,15.052-7.545,21.621-2.179
	c6.572,5.37,7.547,15.05,2.179,21.621c-1.19,1.456-2.406,2.957-3.649,4.491c-11.521,14.212-25.859,31.9-42.559,43.483
	C116.73,464.43,104.283,467.827,93.435,467.827z"/>
<path style="opacity:0.2;fill:#C18F00;enable-background:new    ;" d="M174.393,385.377c-6.569-5.366-16.249-4.394-21.621,2.179
	c-1.212,1.485-2.454,3.016-3.723,4.581c-10.828,13.358-23.1,28.497-36.201,37.584c-2.52,1.748-4.878,3.13-7.093,4.208
	c5.56,8.794,12.229,16.898,19.828,24.14c1.577-0.953,3.17-1.979,4.781-3.096c16.7-11.583,31.038-29.271,42.559-43.483
	c1.244-1.534,2.46-3.035,3.649-4.491C181.94,400.427,180.965,390.747,174.393,385.377z"/>
<path style="fill:#FCD79D;" d="M22.885,333.383c-7.407-4.155-16.769-1.515-20.918,5.886c-4.151,7.402-1.516,16.768,5.886,20.918
	c3.524,1.976,6.418,4.231,8.857,6.793c6.889-4.505,14.685-12.49,18.9-24.455C31.965,339.202,27.769,336.122,22.885,333.383z"/>
<ellipse style="fill:#FCD690;" cx="220.51" cy="370.089" rx="113.4" ry="105.37"/>
<path style="opacity:0.1;fill:#C18F00;enable-background:new    ;" d="M203.955,474.335
	c-51.818-34.021-35.759-103.749-26.963-134.242v-67.33c-41.026,15.86-69.874,53.459-69.874,97.324
	C107.118,423.054,149.178,466.887,203.955,474.335z"/>
<path style="fill:#EDA751;" d="M151.505,187.376c22.189-18.619,37.004-49.875,5.706-96.079
	c-31.545-46.569-78.51-58.243-115.177-53.923c-9.04,1.065-16.624,7.429-19.243,16.147C12.17,88.88,15.51,137.159,55.894,176.311
	C95.963,215.157,129.316,205.995,151.505,187.376z"/>
<path style="fill:#FF91AB;" d="M21.316,58.931c-8.707,34.766-3.784,80.187,34.579,117.38c34.729,33.67,64.408,31.264,86.151,17.904
	C127.093,92.702,61.77,65.782,21.316,58.931z"/>
<path style="fill:#EDA751;" d="M289.522,187.376c-22.189-18.619-37.004-49.875-5.706-96.079
	c31.545-46.569,78.511-58.243,115.177-53.923c9.04,1.065,16.624,7.429,19.243,16.147c10.621,35.359,7.28,83.638-33.103,122.79
	C345.065,215.157,311.711,205.995,289.522,187.376z"/>
<path style="fill:#FF91AB;" d="M419.711,58.931c8.707,34.766,3.784,80.187-34.579,117.38c-34.729,33.67-64.408,31.264-86.151,17.904
	C313.935,92.702,379.258,65.782,419.711,58.931z"/>
<path style="fill:#FCD690;" d="M413.569,215.478c0,88.27-86.434,126.931-193.055,126.931S27.46,303.748,27.46,215.478
	S113.894,55.651,220.514,55.651C327.135,55.651,413.569,127.208,413.569,215.478z"/>
<path style="opacity:0.1;fill:#C18F00;enable-background:new    ;" d="M117.432,80.327c-54.067,28.324-89.973,78.263-89.973,135.15
	c0,75.88,63.872,115.1,149.533,124.615C54.028,266.643,70.065,167.846,117.432,80.327z"/>
<g>
	<ellipse style="fill:#FF91AB;" cx="139.3" cy="220.429" rx="34.955" ry="27.836"/>
	<ellipse style="fill:#FF91AB;" cx="328.77" cy="220.429" rx="34.955" ry="27.836"/>
</g>
<g>
	<path style="fill:#495059;" d="M159.674,200.161c-4.143,0-7.5-3.357-7.5-7.5v-12.344c0-4.143,3.357-7.5,7.5-7.5s7.5,3.357,7.5,7.5
		v12.344C167.174,196.804,163.816,200.161,159.674,200.161z"/>
	<path style="fill:#495059;" d="M308.398,200.161c-4.143,0-7.5-3.357-7.5-7.5v-12.344c0-4.143,3.357-7.5,7.5-7.5
		c4.142,0,7.5,3.357,7.5,7.5v12.344C315.898,196.804,312.54,200.161,308.398,200.161z"/>
	<path style="fill:#495059;" d="M234.036,209.64c-9.683,0-18.89-4.193-25.26-11.505c-2.722-3.123-2.396-7.86,0.727-10.581
		c3.122-2.722,7.86-2.396,10.581,0.728c3.521,4.041,8.606,6.358,13.951,6.358s10.429-2.317,13.95-6.358
		c2.721-3.124,7.458-3.449,10.581-0.728c3.123,2.721,3.449,7.458,0.728,10.581C252.925,205.446,243.719,209.64,234.036,209.64z"/>
	<path style="fill:#495059;" d="M90.014,224.686c-3.36,0-6.419-2.275-7.271-5.684c-1.004-4.019,1.439-8.09,5.458-9.095
		c9.603-2.399,32.485-4.109,43.628-2.638c4.106,0.543,6.995,4.311,6.453,8.418c-0.543,4.106-4.309,6.992-8.418,6.453
		c-9.078-1.198-30.085,0.335-38.026,2.319C91.228,224.612,90.616,224.686,90.014,224.686z"/>
	<path style="fill:#495059;" d="M101.147,266.104c-2.3,0-4.569-1.055-6.04-3.047c-2.46-3.332-1.753-8.028,1.58-10.488
		c7.962-5.878,28.466-16.178,39.332-19.063c4.005-1.061,8.111,1.321,9.174,5.324c1.063,4.004-1.321,8.111-5.324,9.174
		c-8.854,2.351-27.689,11.772-34.273,16.633C104.255,265.626,102.693,266.104,101.147,266.104z"/>
	<path style="fill:#495059;" d="M378.059,224.686c-0.603,0-1.214-0.073-1.824-0.226c-7.94-1.984-28.945-3.517-38.026-2.319
		c-4.099,0.538-7.875-2.346-8.418-6.453c-0.542-4.107,2.347-7.875,6.453-8.418c11.143-1.473,34.027,0.239,43.628,2.638
		c4.019,1.005,6.462,5.076,5.458,9.095C384.477,222.41,381.418,224.686,378.059,224.686z"/>
	<path style="fill:#495059;" d="M366.925,266.104c-1.548,0-3.108-0.478-4.448-1.467c-6.584-4.86-25.42-14.282-34.273-16.633
		c-4.003-1.063-6.387-5.17-5.324-9.174c1.063-4.003,5.166-6.385,9.174-5.324c10.866,2.885,31.37,13.185,39.332,19.063
		c3.333,2.46,4.04,7.156,1.58,10.488C371.494,265.049,369.225,266.104,366.925,266.104z"/>
</g>
<g>
	<path style="fill:#EDA751;" d="M304.518,475.457h-84.004c-13.578,0-24.585-11.007-24.585-24.585s11.007-24.585,24.585-24.585
		h84.004c13.578,0,24.585,11.007,24.585,24.585C329.103,464.45,318.096,475.457,304.518,475.457z"/>
	<path style="fill:#EDA751;" d="M123.393,383.373c-2.625-0.475-5.216-1.39-7.672-2.772c-11.835-6.656-16.031-21.646-9.374-33.481
		c11.271-20.038,39.766-34.364,67.754-34.065c28.159,0.305,52.134,15.118,65.789,40.653c6.403,11.974,1.886,26.87-10.087,33.273
		c-11.972,6.403-26.87,1.887-33.273-10.087c-5.055-9.453-11.908-14.106-21.564-14.625c-12.429-0.676-23.677,6.012-25.821,9.062
		C143.85,380.64,133.381,385.182,123.393,383.373z M149.202,371.227c-0.001,0.002-0.002,0.004-0.004,0.007
		C149.199,371.232,149.201,371.229,149.202,371.227z"/>
</g>
<path style="opacity:0.15;fill:#C18F00;enable-background:new    ;" d="M123.393,383.373c-2.625-0.475-5.216-1.39-7.672-2.772
	c-11.835-6.656-16.031-21.646-9.374-33.481c11.271-20.038,39.766-34.364,67.754-34.065c28.159,0.305,52.134,15.118,65.789,40.653
	c6.403,11.974,1.886,26.87-10.087,33.273c-11.972,6.403-26.87,1.887-33.273-10.087c-5.055-9.453-11.908-14.106-21.564-14.625
	c-12.429-0.676-23.677,6.012-25.821,9.062C143.85,380.64,133.381,385.182,123.393,383.373z M149.202,371.227
	c-0.001,0.002-0.002,0.004-0.004,0.007C149.199,371.232,149.201,371.229,149.202,371.227z"/>
<path style="fill:#DEE2E5;" d="M512,384.593H222.324v-150.9c0-10.775,8.735-19.509,19.509-19.509h250.658
	c10.775,0,19.509,8.734,19.509,19.509V384.593z"/>
<g>
	<path style="fill:#7694E4;" d="M512,384.593H222.324v44.215h276.328c7.372,0,13.347-5.976,13.347-13.347L512,384.593L512,384.593z"
		/>
	<path style="fill:#7694E4;" d="M120.49,384.593h101.834v44.215H120.49c-7.371,0-13.347-5.976-13.347-13.347V397.94
		C107.143,390.569,113.119,384.593,120.49,384.593z"/>
</g>
<path style="opacity:0.1;enable-background:new    ;" d="M120.49,384.593h101.834v44.215H120.49
	c-7.371,0-13.347-5.976-13.347-13.347V397.94C107.143,390.569,113.119,384.593,120.49,384.593z"/>
<circle style="fill:#FFFFFF;" cx="367.16" cy="299.389" r="29.846"/>
<g>
</g>
<g>
</g>
<g>
</g>
<g>
</g>
<g>
</g>
<g>
</g>
<g>
</g>
<g>
</g>
<g>
</g>
<g>
</g>
<g>
</g>
<g>
</g>
<g>
</g>
<g>
</g>
<g>
</g>
</svg>
