<svg height="512pt" viewBox="0 -83 512 512" width="512pt" xmlns="http://www.w3.org/2000/svg"><path d="m440.335938 346.46875h-368.671876c-39.578124 0-71.664062-32.085938-71.664062-71.667969v-203.136719c0-39.578124 32.085938-71.664062 71.664062-71.664062h368.671876c39.578124 0 71.664062 32.085938 71.664062 71.664062v203.136719c0 39.582031-32.085938 71.667969-71.664062 71.667969zm0 0" fill="#a3defe"/><path d="m512 71.664062c0-39.578124-32.085938-71.664062-71.664062-71.664062h-368.671876c-39.578124 0-71.664062 32.085938-71.664062 71.664062v203.140626c0 39.578124 32.085938 71.664062 71.664062 71.664062h178.488282c-27.429688-19.433594-46.304688-54.546875-58.160156-96.449219 19.492187 10.71875 41.496093 16.480469 64.007812 16.480469 31.621094 0 62.273438-11.316406 86.304688-31.867188l164.921874-141.03125c1.683594-1.4375 3.269532-2.960937 4.773438-4.546874zm0 0" fill="#7acefa"/><path d="m440.335938 0h-368.671876c-21.582031 0-40.933593 9.542969-54.070312 24.640625-12.65625 14.542969-10.640625 36.742187 4.011719 49.273437l164.921875 141.03125c19.347656 16.539063 44.019531 25.652344 69.472656 25.652344s50.125-9.113281 69.472656-25.65625l164.921875-141.027344c14.652344-12.53125 16.667969-34.730468 4.011719-49.273437-13.136719-15.097656-32.488281-24.640625-54.070312-24.640625zm0 0" fill="#f7ef87"/><path d="m17.59375 24.640625c-12.65625 14.542969-10.640625 36.742187 4.011719 49.273437l161.851562 138.402344c-12.710937-72.15625-8.582031-155.113281 6.046875-212.316406h-117.839844c-21.582031 0-40.933593 9.542969-54.070312 24.640625zm0 0" fill="#efd176"/><path d="m440.335938 0h-368.671876c-20.136718 0-38.324218 8.320312-51.34375 21.691406l191.460938 163.722656c25.457031 21.773438 62.980469 21.773438 88.4375 0l191.460938-163.71875c-13.019532-13.375-31.207032-21.695312-51.34375-21.695312zm0 0" fill="#8eafe2"/><path d="m71.664062 0c-20.136718 0-38.324218 8.320312-51.34375 21.691406l156.59375 133.90625c-3.378906-56.085937 1.691407-112.984375 12.589844-155.597656zm0 0" fill="#6a96d7"/><path d="m62.078125 296.570312c-2.117187 0-4.222656-.890624-5.707031-2.625-2.691406-3.148437-2.320313-7.882812.828125-10.574218l64.335937-55.019532c3.148438-2.691406 7.886719-2.320312 10.574219.828126 2.695313 3.148437 2.324219 7.882812-.824219 10.574218l-64.339844 55.015625c-1.410156 1.210938-3.144531 1.800781-4.867187 1.800781zm0 0" fill="#a3defe"/><path d="m449.921875 296.570312c-1.722656 0-3.457031-.589843-4.867187-1.800781l-64.339844-55.015625c-3.148438-2.691406-3.519532-7.425781-.824219-10.574218 2.691406-3.148438 7.425781-3.519532 10.574219-.828126l64.335937 55.019532c3.148438 2.691406 3.519531 7.425781.828125 10.574218-1.484375 1.734376-3.589844 2.625-5.707031 2.625zm0 0" fill="#7acefa"/><path d="m201.164062 96.960938c0-14.105469-14.355468-25.535157-32.066406-25.535157-17.707031 0-32.066406 11.429688-32.066406 25.535157 0 14.101562 14.359375 25.535156 32.066406 25.535156 17.710938 0 32.066406-11.433594 32.066406-25.535156zm0 0" fill="#fff"/><path d="m374.96875 96.960938c0-14.105469-14.359375-25.535157-32.066406-25.535157-17.710938 0-32.066406 11.429688-32.066406 25.535157 0 14.101562 14.355468 25.535156 32.066406 25.535156 17.707031 0 32.066406-11.433594 32.066406-25.535156zm0 0" fill="#fff"/><g fill="#4e5660"><path d="m187.785156 78.984375c-4.144531 0-7.5-3.355469-7.5-7.5v-11.320313c0-4.144531 3.355469-7.5 7.5-7.5 4.144532 0 7.5 3.355469 7.5 7.5v11.320313c0 4.144531-3.355468 7.5-7.5 7.5zm0 0"/><path d="m324.214844 78.984375c-4.144532 0-7.5-3.355469-7.5-7.5v-11.320313c0-4.144531 3.355468-7.5 7.5-7.5 4.144531 0 7.5 3.355469 7.5 7.5v11.320313c0 4.144531-3.359375 7.5-7.5 7.5zm0 0"/><path d="m256 87.683594c-9.0625 0-17.675781-3.925782-23.640625-10.769532-2.71875-3.121093-2.394531-7.859374.730469-10.578124 3.121094-2.722657 7.859375-2.398438 10.582031.726562 3.109375 3.570312 7.605469 5.621094 12.328125 5.621094s9.21875-2.050782 12.328125-5.621094c2.726563-3.125 7.460937-3.449219 10.582031-.726562 3.125 2.71875 3.449219 7.457031.730469 10.578124-5.964844 6.84375-14.582031 10.769532-23.640625 10.769532zm0 0"/></g></svg>