<svg height="512pt" viewBox="0 -29 512 512" width="512pt" xmlns="http://www.w3.org/2000/svg"><path d="m449.652344 441.671875-87.90625-19.8125c-13.4375-3.027344-27.386719-3.027344-40.824219 0l-129.84375 29.261719c-13.4375 3.03125-27.386719 3.03125-40.824219 0l-110.378906-24.875c-23.316406-5.253906-39.875-25.960938-39.875-49.859375v-259.851563c0-32.761718 30.390625-57.066406 62.347656-49.863281l87.90625 19.8125c13.4375 3.03125 27.386719 3.03125 40.824219 0l129.84375-29.261719c13.4375-3.03125 27.386719-3.03125 40.824219 0l110.378906 24.875c23.316406 5.257813 39.875 25.964844 39.875 49.863282v259.851562c0 32.761719-30.390625 57.0625-62.347656 49.859375zm0 0" fill="#fcf2d0"/><path d="m320.921875 57.222656-129.84375 29.261719c-6.71875 1.515625-13.566406 2.273437-20.414063 2.273437v364.636719c6.847657 0 13.695313-.753906 20.414063-2.269531l129.84375-29.265625c6.71875-1.511719 13.566406-2.269531 20.414063-2.269531v-364.640625c-6.847657 0-13.695313.757812-20.414063 2.273437zm0 0" fill="#f6e3a3"/><path d="m38.464844 369.984375v-243.4375c0-13.238281 12.277344-23.058594 25.191406-20.148437l86.53125 19.503906c13.484375 3.039062 27.472656 3.039062 40.953125 0l129.714844-29.238282c13.480469-3.035156 27.46875-3.035156 40.953125 0l95.613281 21.550782c9.417969 2.125 16.109375 10.492187 16.109375 20.148437v243.4375c0 13.238281-12.277344 23.058594-25.191406 20.144531l-86.53125-19.5c-13.484375-3.039062-27.472656-3.039062-40.953125 0l-129.714844 29.234376c-13.480469 3.039062-27.46875 3.039062-40.953125 0l-95.613281-21.550782c-9.417969-2.121094-16.109375-10.488281-16.109375-20.144531zm0 0" fill="#8eafe2"/><path d="m341.332031 94.386719c-6.867187 0-13.734375.761719-20.476562 2.277343l-129.710938 29.238282c-6.742187 1.519531-13.609375 2.277344-20.480469 2.277344v285.777343c6.871094 0 13.738282-.757812 20.476563-2.277343l129.714844-29.234376c6.742187-1.519531 13.609375-2.28125 20.476562-2.28125zm0 0" fill="#6a96d7"/><path d="m191.144531 125.902344c-13.484375 3.035156-27.472656 3.035156-40.953125 0l-86.535156-19.503906c-12.914062-2.910157-25.191406 6.910156-25.191406 20.148437v137.675781h67.238281c67.082031 0 121.460937-54.378906 121.460937-121.457031v-24.984375zm0 0" fill="#8ee2cf"/><path d="m170.667969 128.179688v117.222656c33.953125-21.535156 56.496093-59.453125 56.496093-102.636719v-24.984375l-36.019531 8.121094c-6.742187 1.519531-13.609375 2.277344-20.476562 2.277344zm0 0" fill="#6fce91"/><path d="m182.140625 413.222656c3.015625-.375 6.023437-.871094 9.003906-1.542968l69.148438-15.585938 41.902343-295.222656-78.21875 17.632812zm0 0" fill="#f7ef87"/><path d="m473.535156 381.800781v-109.550781c-55.449218 8.90625-98.34375 55.34375-101.8125 112.429688l76.617188 17.269531c12.917968 2.910156 25.195312-6.910157 25.195312-20.148438zm0 0" fill="#8ee2cf"/><path d="m281.523438 92.875c0 59.203125 53.191406 128.628906 79.0625 158.898438 7.257812 8.488281 20.367187 8.488281 27.621093 0 25.875-30.269532 79.0625-99.695313 79.0625-158.898438 0-51.292969-41.582031-92.875-92.875-92.875s-92.871093 41.582031-92.871093 92.875zm0 0" fill="#eda1ab"/><path d="m351.785156 2.777344c-40.363281 10.097656-70.261718 46.605468-70.261718 90.097656 0 59.203125 53.191406 128.628906 79.0625 158.898438 7.257812 8.488281 20.367187 8.488281 27.621093 0 5.582031-6.53125 12.441407-14.890626 19.761719-24.578126-42.421875 5.5-120.753906-164.09375-56.183594-224.417968zm0 0" fill="#e26e7e"/><path d="m427.464844 92.875c0 29.308594-23.757813 53.066406-53.066406 53.066406-29.3125 0-53.070313-23.757812-53.070313-53.066406s23.757813-53.070312 53.070313-53.070312c29.308593 0 53.066406 23.761718 53.066406 53.070312zm0 0" fill="#fcf2d0"/><path d="m327.230469 68.558594c-3.765625 7.285156-5.902344 15.550781-5.902344 24.316406 0 14.585938 5.886719 27.792969 15.410156 37.386719-6.109375-20.375-9.777343-41.738281-9.507812-61.703125zm0 0" fill="#f6e3a3"/><g fill="#6a96d7"><path d="m101.519531 318.214844c-1.921875 0-3.839843-.730469-5.304687-2.195313-2.929688-2.929687-2.929688-7.679687 0-10.605469l10.921875-10.921874c2.929687-2.929688 7.675781-2.929688 10.605469 0 2.929687 2.929687 2.929687 7.679687 0 10.605468l-10.921876 10.921875c-1.464843 1.464844-3.382812 2.195313-5.300781 2.195313zm0 0"/><path d="m99.1875 370.804688c-1.917969 0-3.839844-.730469-5.300781-2.195313-2.929688-2.929687-2.929688-7.679687 0-10.605469l18.089843-18.09375c2.925782-2.925781 7.675782-2.925781 10.605469 0 2.929688 2.933594 2.929688 7.679688 0 10.609375l-18.089843 18.089844c-1.464844 1.464844-3.386719 2.195313-5.304688 2.195313zm0 0"/></g></svg>