<svg id="Layer_1" enable-background="new 0 0 512 512" height="512" viewBox="0 0 512 512" width="512" xmlns="http://www.w3.org/2000/svg"><g><circle cx="392" cy="392" fill="#f79caf" r="120"/><g fill="#acebe2"><path d="m240 66v108c0 36.39-29.61 66-66 66h-108c-36.39 0-66-29.61-66-66v-108c0-36.39 29.61-66 66-66h108c36.39 0 66 29.61 66 66z"/><path d="m512 66v108c0 36.39-29.61 66-66 66h-108c-36.39 0-66-29.61-66-66v-108c0-36.39 29.61-66 66-66h108c36.39 0 66 29.61 66 66z"/><path d="m240 338v108c0 36.39-29.61 66-66 66h-108c-36.39 0-66-29.61-66-66v-108c0-36.39 29.61-66 66-66h108c36.39 0 66 29.61 66 66z"/></g><path d="m512 392c0 66.17-53.83 120-120 120-5.42 0-10.77-.36-16-1.07 58.64-7.84 104-58.19 104-118.93s-45.36-111.09-104-118.93c5.23-.71 10.58-1.07 16-1.07 66.17 0 120 53.83 120 120z" fill="#e3889b"/><path d="m240 66v108c0 36.39-29.61 66-66 66h-32c36.39 0 66-29.61 66-66v-108c0-36.39-29.61-66-66-66h32c36.39 0 66 29.61 66 66z" fill="#98d7ce"/><path d="m512 66v108c0 36.39-29.61 66-66 66h-32c36.39 0 66-29.61 66-66v-108c0-36.39-29.61-66-66-66h32c36.39 0 66 29.61 66 66z" fill="#98d7ce"/><path d="m240 338v108c0 36.39-29.61 66-66 66h-32c36.39 0 66-29.61 66-66v-108c0-36.39-29.61-66-66-66h32c36.39 0 66 29.61 66 66z" fill="#98d7ce"/></g></svg>