<svg height="511pt" viewBox="0 0 511 511.99992" width="511pt" xmlns="http://www.w3.org/2000/svg"><path d="m271.605469 0h9.632812v375.472656h-73.550781v-311.554687c0-35.300781 28.617188-63.917969 63.917969-63.917969zm0 0" fill="#8eafe2"/><path d="m281.238281 306.921875c-17.464843-19.972656-42.949219-34.292969-73.550781-40.546875v109.097656h73.550781zm0 0" fill="#6a96d7"/><path d="m505.738281 123.929688-24.308593 24.308593c-13.652344 13.652344-32.167969 21.320313-51.476563 21.320313h-148.714844v-169.558594h207.292969c20.433594 0 30.664062 24.703125 16.214844 39.148438l-33.1875 33.191406c-4.589844 4.589844-1.339844 12.441406 5.152344 12.441406h12.808593c20.433594 0 30.664063 24.699219 16.21875 39.148438zm0 0" fill="#f7ef87"/><path d="m281.238281 0v169.558594h132.097657c-48.21875-37.621094-49.761719-116.625-28.171876-169.558594zm0 0" fill="#efd176"/><path d="m275.59375 345.875c-21.75-53.933594-99.699219-73.328125-174.109375-43.320312-74.40625 30.003906-117.09375 98.050781-95.34375 151.984374 21.75 53.933594 99.703125 73.328126 174.109375 43.324219 74.40625-30.007812 117.09375-98.054687 95.34375-151.988281zm0 0" fill="#a3defe"/><path d="m140.867188 509.199219c39.261718-6.921875 74.75-25.699219 100.226562-50.359375-153.558594 42.386718-194.597656-84.9375-165.847656-143.398438-44.457032 26.128906-74.746094 67.75-74.746094 109.53125 0 60.1875 62.84375 97.898438 140.367188 84.226563zm0 0" fill="#7acefa"/><path d="m91.546875 414.191406c0-12.683594-12.910156-22.96875-28.839844-22.96875-15.925781 0-28.839843 10.285156-28.839843 22.96875s12.914062 22.964844 28.839843 22.964844c15.929688 0 28.839844-10.28125 28.839844-22.964844zm0 0" fill="#fff"/><path d="m247.867188 414.191406c0-12.683594-12.910157-22.96875-28.839844-22.96875-15.925782 0-28.839844 10.285156-28.839844 22.96875s12.914062 22.964844 28.839844 22.964844c15.929687 0 28.839844-10.28125 28.839844-22.964844zm0 0" fill="#fff"/><g fill="#4e5660"><path d="m93.242188 396.699219c-4.140626 0-7.5-3.359375-7.5-7.5 0-3.433594-2.792969-6.226563-6.226563-6.226563s-6.226563 2.792969-6.226563 6.226563c0 4.140625-3.359374 7.5-7.5 7.5-4.144531 0-7.5-3.359375-7.5-7.5 0-11.707031 9.523438-21.226563 21.226563-21.226563s21.226563 9.519532 21.226563 21.226563c0 4.140625-3.355469 7.5-7.5 7.5zm0 0"/><path d="m215.949219 396.699219c-4.144531 0-7.5-3.359375-7.5-7.5 0-3.433594-2.792969-6.226563-6.226563-6.226563-3.4375 0-6.230468 2.792969-6.230468 6.226563 0 4.140625-3.355469 7.5-7.5 7.5-4.140626 0-7.5-3.359375-7.5-7.5 0-11.707031 9.523437-21.226563 21.230468-21.226563 11.703125 0 21.226563 9.519532 21.226563 21.226563 0 4.140625-3.359375 7.5-7.5 7.5zm0 0"/><path d="m140.867188 419.378906c-7.746094 0-15.113282-3.359375-20.214844-9.207031-2.71875-3.125-2.394532-7.859375.726562-10.582031 3.125-2.722656 7.859375-2.398438 10.582032.726562 2.25 2.578125 5.496093 4.0625 8.90625 4.0625 3.410156 0 6.660156-1.484375 8.910156-4.0625 2.71875-3.125 7.457031-3.449218 10.578125-.726562 3.125 2.722656 3.449219 7.457031.726562 10.582031-5.097656 5.847656-12.464843 9.207031-20.214843 9.207031zm0 0"/></g></svg>