<svg height="512pt" viewBox="0 0 512 512" width="512pt" xmlns="http://www.w3.org/2000/svg"><path d="m512 256c0 141.386719-114.613281 256-256 256s-256-114.613281-256-256 114.613281-256 256-256 256 114.613281 256 256zm0 0" fill="#a3defe"/><path d="m166.320312 16.164062c-97.148437 36.34375-166.320312 130.007813-166.320312 239.835938 0 141.386719 114.613281 256 256 256 88.257812 0 166.082031-44.664062 212.109375-112.621094-337.46875 85.5625-424.804687-263.402344-301.789063-383.214844zm0 0" fill="#7acefa"/><path d="m379.484375 138.613281h104.066406c-2.636719-5.101562-5.4375-10.105469-8.398437-15h-102.1875c-25.101563-54.058593-63.011719-97.644531-101.835938-123.15625-5.007812-.292969-10.046875-.457031-15.128906-.457031s-10.121094.164062-15.128906.457031c-38.824219 25.511719-76.734375 69.097657-101.835938 123.15625h-102.1875c-2.960937 4.894531-5.761718 9.898438-8.398437 15h104.066406c-13.648437 33.640625-22.253906 70.820313-23.238281 109.886719h-109.160156c-.070313 2.492188-.117188 4.992188-.117188 7.5s.046875 5.007812.117188 7.5h109.160156c.984375 39.066406 9.59375 76.246094 23.238281 109.886719h-104.066406c2.636719 5.101562 5.4375 10.105469 8.398437 15h102.1875c25.101563 54.058593 63.015625 97.644531 101.835938 123.15625 5.007812.292969 10.050781.457031 15.128906.457031s10.121094-.164062 15.128906-.457031c38.820313-25.511719 76.734375-69.097657 101.835938-123.15625h102.1875c2.960937-4.894531 5.761718-9.898438 8.398437-15h-104.066406c13.648437-33.640625 22.253906-70.820313 23.238281-109.886719h109.160156c.070313-2.492188.117188-4.992188.117188-7.5s-.046875-5.007812-.117188-7.5h-109.160156c-.984375-39.066406-9.589844-76.246094-23.238281-109.886719zm-123.484375-129.941406c37.648438 22.398437 75.160156 63.277344 100.488281 114.941406h-200.976562c25.328125-51.664062 62.839843-92.542969 100.488281-114.941406zm0 494.65625c-37.648438-22.398437-75.160156-63.277344-100.488281-114.941406h200.976562c-25.328125 51.664062-62.839843 92.542969-100.488281 114.941406zm107.355469-129.941406h-214.710938c-14.246093-33.363281-23.328125-70.605469-24.363281-109.886719h263.4375c-1.035156 39.28125-10.117188 76.523438-24.363281 109.886719zm-239.074219-124.886719c1.035156-39.28125 10.117188-76.523438 24.363281-109.886719h214.710938c14.246093 33.363281 23.328125 70.605469 24.363281 109.886719zm0 0" fill="#6a96d7"/><path d="m204.878906 216.195312c0-13.148437-13.382812-23.804687-29.890625-23.804687-16.507812 0-29.890625 10.65625-29.890625 23.804687 0 13.144532 13.382813 23.800782 29.890625 23.800782 16.507813 0 29.890625-10.65625 29.890625-23.800782zm0 0" fill="#fff"/><path d="m366.902344 216.195312c0-13.148437-13.382813-23.804687-29.890625-23.804687-16.507813 0-29.890625 10.65625-29.890625 23.804687 0 13.144532 13.382812 23.800782 29.890625 23.800782 16.507812 0 29.890625-10.65625 29.890625-23.800782zm0 0" fill="#fff"/><g fill="#4e5660"><path d="m192.410156 199.945312c-4.144531 0-7.5-3.355468-7.5-7.5v-10.554687c0-4.140625 3.355469-7.5 7.5-7.5 4.140625 0 7.5 3.359375 7.5 7.5v10.554687c0 4.144532-3.359375 7.5-7.5 7.5zm0 0"/><path d="m319.589844 199.945312c-4.140625 0-7.5-3.355468-7.5-7.5v-10.554687c0-4.140625 3.359375-7.5 7.5-7.5 4.144531 0 7.5 3.359375 7.5 7.5v10.554687c0 4.144532-3.355469 7.5-7.5 7.5zm0 0"/><path d="m256 208.054688c-8.59375 0-16.765625-3.722657-22.421875-10.210938-2.71875-3.125-2.394531-7.859375.730469-10.582031 3.121094-2.722657 7.855468-2.398438 10.582031.726562 2.804687 3.21875 6.851563 5.066407 11.109375 5.066407s8.308594-1.847657 11.109375-5.066407c2.722656-3.125 7.460937-3.449219 10.582031-.726562 3.125 2.71875 3.449219 7.457031.726563 10.582031-5.652344 6.488281-13.824219 10.210938-22.417969 10.210938zm0 0"/></g></svg>