<svg height="512pt" viewBox="-65 0 512 512.00002" width="512pt" xmlns="http://www.w3.org/2000/svg"><path d="m257.453125 445.742188c0 36.59375-29.664063 66.257812-66.253906 66.257812-36.59375 0-66.257813-29.664062-66.257813-66.257812s29.664063-66.257813 66.257813-66.257813c36.589843 0 66.253906 29.664063 66.253906 66.257813zm0 0" fill="#f7ef87"/><path d="m191.199219 379.484375c-36.59375 0-66.257813 29.664063-66.257813 66.257813s29.664063 66.257812 66.257813 66.257812c15.464843 0 29.683593-5.3125 40.957031-14.195312-27.96875 3.15625-50.171875-13.871094-54.089844-30.621094h75.820313c2.300781-6.726563 3.566406-13.933594 3.566406-21.441406 0-36.59375-29.664063-66.257813-66.253906-66.257813zm0 0" fill="#efd176"/><path d="m191.199219 148.742188c-41.011719 0-74.375-33.363282-74.375-74.371094 0-41.007813 33.363281-74.371094 74.375-74.371094 41.007812 0 74.371093 33.363281 74.371093 74.371094 0 41.011718-33.363281 74.371094-74.371093 74.371094zm0-112.8125c-21.199219 0-38.445313 17.246093-38.445313 38.441406 0 21.199218 17.246094 38.445312 38.445313 38.445312s38.441406-17.246094 38.441406-38.445312c0-21.195313-17.246094-38.441406-38.441406-38.441406zm0 0" fill="#efd176"/><path d="m375.777344 394.324219c-28.730469-37.976563-39.167969-83.171875-39.34375-137.214844-.261719-80.464844-65.15625-146.8125-145.621094-146.578125-79.980469.238281-144.742188 65.144531-144.742188 145.183594 0 54.773437-10.414062 100.496094-39.535156 138.851562-15.941406 21-.894531 51.175782 25.46875 51.175782h318.484375c26.503907 0 41.28125-30.28125 25.289063-51.417969zm0 0" fill="#f7ef87"/><path d="m137.675781 120.738281c-53.667969 21.320313-91.609375 73.714844-91.609375 134.976563 0 54.773437-10.410156 100.496094-39.53125 138.851562-15.941406 21-.898437 51.175782 25.46875 51.175782h171.917969c-72.855469-57.5-94.386719-236.488282-66.246094-325.003907zm0 0" fill="#efd176"/><path d="m14.042969 383.882812h354.417969c-7.453126-11.480468-13.402344-23.589843-18.050782-36.367187h-318.316406c-4.652344 12.777344-10.601562 24.886719-18.050781 36.367187zm0 0" fill="#8ee2cf"/><path d="m342.042969 79.101562c-21.945313-21.949218-57.527344-21.949218-79.476563 0-21.945312 21.945313-21.945312 57.527344 0 79.476563 21.949219 21.945313 57.53125 21.945313 79.476563 0 21.949219-21.949219 21.949219-57.53125 0-79.476563zm0 0" fill="#eda1ab"/><path d="m321.605469 99.539062c-10.660157-10.660156-27.941407-10.660156-38.597657 0-10.660156 10.660157-10.660156 27.941407 0 38.597657 10.65625 10.660156 27.9375 10.660156 38.597657 0 10.660156-10.65625 10.660156-27.9375 0-38.597657zm0 0" fill="#e26e7e"/><path d="m154.398438 258.914062c0-13.738281-13.988282-24.878906-31.242188-24.878906s-31.242188 11.140625-31.242188 24.878906c0 13.742188 13.988282 24.878907 31.242188 24.878907s31.242188-11.136719 31.242188-24.878907zm0 0" fill="#eda1ab"/><path d="m323.734375 258.914062c0-13.738281-13.984375-24.878906-31.242187-24.878906-17.253907 0-31.238282 11.140625-31.238282 24.878906 0 13.742188 13.984375 24.878907 31.238282 24.878907 17.257812 0 31.242187-11.136719 31.242187-24.878907zm0 0" fill="#eda1ab"/><g fill="#4e5660"><path d="m128.378906 237.039062c-4.144531 0-7.5-3.359374-7.5-7.5v-13.410156c0-4.140625 3.355469-7.5 7.5-7.5 4.140625 0 7.5 3.359375 7.5 7.5v13.410156c0 4.140626-3.359375 7.5-7.5 7.5zm0 0"/><path d="m233.011719 239.800781c0-15.570312-11.277344-28.1875-25.1875-28.1875-13.910157 0-25.1875 12.617188-25.1875 28.1875 0 15.566407 11.277343 28.183594 25.1875 28.183594 13.910156 0 25.1875-12.617187 25.1875-28.183594zm0 0"/><path d="m287.269531 237.039062c-4.140625 0-7.5-3.359374-7.5-7.5v-13.410156c0-4.140625 3.359375-7.5 7.5-7.5 4.144531 0 7.5 3.359375 7.5 7.5v13.410156c0 4.140626-3.355469 7.5-7.5 7.5zm0 0"/></g><path d="m6.535156 394.566406c-15.941406 21-.894531 51.175782 25.46875 51.175782h318.484375c26.503907 0 41.28125-30.28125 25.289063-51.417969-2.585938-3.421875-5.019532-6.902344-7.316406-10.441407h-354.417969c-2.351563 3.621094-4.847657 7.183594-7.507813 10.683594zm0 0" fill="#8eafe2"/><path d="m6.535156 394.566406c-15.941406 21-.894531 51.175782 25.46875 51.175782h171.921875c-18.046875-14.242188-32.945312-35.933594-44.71875-61.859376h-145.164062c-2.351563 3.621094-4.847657 7.183594-7.507813 10.683594zm0 0" fill="#6a96d7"/><path d="m32.09375 347.515625c-4.652344 12.777344-10.601562 24.886719-18.050781 36.367187h145.164062c-5.175781-11.398437-9.746093-23.609374-13.71875-36.367187zm0 0" fill="#6fce91"/><path d="m91.914062 198.460938c-1.921874 0-3.839843-.730469-5.304687-2.195313-2.929687-2.929687-2.929687-7.679687 0-10.609375l5-5c2.929687-2.929688 7.679687-2.929688 10.609375 0s2.929688 7.679688 0 10.605469l-5.003906 5.003906c-1.460938 1.464844-3.382813 2.195313-5.300782 2.195313zm0 0" fill="#f7ef87"/><path d="m302.308594 427.523438c-1.921875 0-3.839844-.730469-5.304688-2.195313-2.929687-2.929687-2.929687-7.679687 0-10.609375l5.519532-5.515625c2.929687-2.929687 7.679687-2.929687 10.605468 0 2.929688 2.929687 2.929688 7.679687 0 10.605469l-5.519531 5.519531c-1.460937 1.464844-3.382813 2.195313-5.300781 2.195313zm0 0" fill="#6a96d7"/></svg>