<svg height="512pt" viewBox="-23 0 512 512.001" width="512pt" xmlns="http://www.w3.org/2000/svg"><path d="m373.164062 512h-281.160156c-50.8125 0-92.003906-41.191406-92.003906-92.003906v-129.96875c0-50.8125 41.191406-92.003906 92.003906-92.003906h281.160156c50.8125 0 92.003907 41.191406 92.003907 92.003906v129.96875c0 50.8125-41.191407 92.003906-92.003907 92.003906zm0 0" fill="#8ee2cf"/><g fill="#6fce91"><path d="m92.003906 198.023438c-50.8125 0-92.003906 41.191406-92.003906 92.003906v129.96875c0 50.8125 41.191406 92.003906 92.003906 92.003906h194.359375c-110.050781-70.1875-124.320312-212.613281-96.464843-313.976562zm0 0"/><path d="m392.09375 458.085938c-1.921875 0-3.839844-.734376-5.304688-2.199219-2.929687-2.929688-2.929687-7.675781 0-10.605469l21.9375-21.9375c2.929688-2.929688 7.675782-2.929688 10.605469 0 2.929688 2.929688 2.929688 7.679688 0 10.609375l-21.9375 21.933594c-1.460937 1.464843-3.382812 2.199219-5.300781 2.199219zm0 0"/><path d="m403.0625 405.972656c-1.921875 0-3.839844-.734375-5.304688-2.199218-2.929687-2.925782-2.929687-7.675782 0-10.605469l12.945313-12.945313c2.929687-2.929687 7.679687-2.929687 10.609375 0 2.929688 2.929688 2.929688 7.675782 0 10.605469l-12.949219 12.945313c-1.464843 1.464843-3.382812 2.199218-5.300781 2.199218zm0 0"/></g><path d="m169.363281 100.222656h126.441407v97.800782h-126.441407zm0 0" fill="#8eafe2"/><path d="m295.375 41.8125h-125.582031c-19.847657 0-35.941407 16.089844-35.941407 35.941406v44.84375c0 19.847656 16.09375 35.9375 35.941407 35.9375h125.582031c19.851562 0 35.941406-16.089844 35.941406-35.9375v-44.84375c0-19.851562-16.089844-35.941406-35.941406-35.941406zm0 0" fill="#a3defe"/><path d="m217.214844 41.8125h-47.421875c-19.847657 0-35.941407 16.089844-35.941407 35.941406v44.839844c0 19.851562 16.09375 35.941406 35.941407 35.941406h65.808593c-21.289062-29.730468-30.886718-81.472656-18.386718-116.722656zm0 0" fill="#7acefa"/><path d="m286.078125 90.109375h-106.988281c-4.144532 0-7.5-3.355469-7.5-7.5 0-4.140625 3.355468-7.5 7.5-7.5h106.988281c4.144531 0 7.5 3.359375 7.5 7.5 0 4.144531-3.355469 7.5-7.5 7.5zm0 0" fill="#fff"/><path d="m286.078125 125.238281h-106.988281c-4.144532 0-7.5-3.355469-7.5-7.5 0-4.140625 3.355468-7.5 7.5-7.5h106.988281c4.144531 0 7.5 3.359375 7.5 7.5 0 4.144531-3.355469 7.5-7.5 7.5zm0 0" fill="#fff"/><path d="m342.746094 355.011719c0 60.839843-49.320313 110.160156-110.160156 110.160156-60.839844 0-110.164063-49.320313-110.164063-110.160156 0-60.839844 49.324219-110.160157 110.164063-110.160157 60.839843 0 110.160156 49.320313 110.160156 110.160157zm0 0" fill="#f7ef87"/><path d="m342.746094 355.011719c0 60.839843-49.320313 110.160156-110.160156 110.160156-60.839844 0-110.164063-49.320313-110.164063-110.160156 0-60.839844 49.324219-110.160157 110.164063-110.160157 60.839843 0 110.160156 49.320313 110.160156 110.160157zm0 0" fill="#f7ef87"/><path d="m317.960938 424.625c-121.910157 16.507812-159.828126-135.515625-108.316407-177.375-49.828125 10.554688-87.222656 54.789062-87.222656 107.761719 0 60.839843 49.324219 110.160156 110.164063 110.160156 34.433593 0 65.171874-15.800781 85.375-40.546875zm0 0" fill="#efd176"/><path d="m305.769531 355.011719c0 40.417969-32.765625 73.183593-73.183593 73.183593-40.421876 0-73.1875-32.765624-73.1875-73.183593s32.765624-73.183594 73.1875-73.183594c40.417968 0 73.183593 32.765625 73.183593 73.183594zm0 0" fill="#4e5660"/><path d="m391.417969 241.5c-14.585938-3.445312-29.207031 5.585938-32.652344 20.175781-3.445313 14.589844 5.589844 29.207031 20.179687 32.652344 14.585938 3.445313 29.207032-5.589844 32.652344-20.175781 3.441406-14.589844-5.589844-29.207032-20.179687-32.652344zm0 0" fill="#8eafe2"/><path d="m30.082031 415.683594h-30.082031v-121.34375h30.082031c22.898438 0 41.460938 18.5625 41.460938 41.460937v38.421875c0 22.898438-18.5625 41.460938-41.460938 41.460938zm0 0" fill="#f6e3a3"/><path d="m333.808594 160.480469-14.535156 10.078125c-10.011719 6.945312-23.769532.320312-24.582032-11.835938l-1.179687-17.652344c-.4375-6.523437-4.878907-12.097656-11.144531-13.972656l-16.945313-5.078125c-11.671875-3.496093-15.070313-18.386719-6.074219-26.601562l13.066406-11.925781c4.828126-4.414063 6.414063-11.359376 3.976563-17.429688l-6.59375-16.410156c-4.542969-11.308594 4.980469-23.246094 17.011719-21.335938l17.46875 2.777344c6.460937 1.027344 12.878906-2.0625 16.105468-7.753906l8.71875-15.390625c6.007813-10.597657 21.28125-10.597657 27.285157 0l8.722656 15.390625c3.222656 5.691406 9.644531 8.78125 16.105469 7.753906l17.46875-2.777344c12.03125-1.910156 21.554687 10.03125 17.011718 21.335938l-6.59375 16.410156c-2.441406 6.070312-.855468 13.015625 3.976563 17.429688l13.0625 11.925781c9 8.214843 5.601563 23.105469-6.070313 26.601562l-16.945312 5.078125c-6.265625 1.875-10.707031 7.445313-11.144531 13.972656l-1.179688 17.652344c-.8125 12.15625-14.574219 18.78125-24.585937 11.835938l-14.53125-10.078125c-5.375-3.730469-12.5-3.730469-17.875 0zm0 0" fill="#eda1ab"/><path d="m276.773438 316.15625c-6.835938-8.628906-19.375-10.082031-28.003907-3.242188-8.628906 6.835938-10.078125 19.375-3.242187 28.003907 6.839844 8.628906 19.378906 10.078125 28.003906 3.242187 8.628906-6.839844 10.082031-19.375 3.242188-28.003906zm0 0" fill="#fff"/></svg>