<svg height="511.99979pt" viewBox="0 0 511.99979 511.99979" width="511.99979pt" xmlns="http://www.w3.org/2000/svg"><path d="m326.734375 268.324219-83.058594-83.058594-32.175781 26.140625c-77.429688 62.90625-145.519531 136.5-202.230469 218.578125-14.355469 20.777344-11.808593 48.84375 6.046875 66.699219 17.855469 17.855468 45.925782 20.402344 66.699219 6.046875 82.078125-56.710938 155.671875-124.800781 218.578125-202.230469zm0 0" fill="#e1b89a"/><path d="m243.675781 185.265625-32.175781 26.140625c-33.789062 27.449219-65.796875 56.9375-95.855469 88.273438 21.914063 41.019531 55.65625 74.761718 96.675781 96.679687 31.335938-30.0625 60.824219-62.070313 88.273438-95.859375l26.140625-32.175781zm0 0" fill="#d2996f"/><path d="m82.015625 502.730469c21.703125-14.996094 42.796875-30.8125 63.273437-47.359375-17.082031-20.59375-34.5-8.734375-57.210937-31.449219-22.714844-22.710937-10.855469-40.128906-31.449219-57.210937-16.550781 20.476562-32.363281 41.566406-47.359375 63.273437-14.355469 20.777344-11.808593 48.84375 6.046875 66.699219 17.855469 17.855468 45.925782 20.402344 66.699219 6.046875zm0 0" fill="#6a96d7"/><path d="m512 189.257812c0 104.527344-84.734375 189.261719-189.257812 189.261719-104.527344 0-189.261719-84.734375-189.261719-189.261719 0-104.523437 84.734375-189.257812 189.261719-189.257812 104.523437 0 189.257812 84.734375 189.257812 189.257812zm0 0" fill="#f7ef87"/><path d="m478.808594 296.328125c-256.101563 35.078125-273.515625-207.730469-205.875-289.691406-80.359375 21.867187-139.453125 95.335937-139.453125 182.625 0 104.523437 84.734375 189.257812 189.261719 189.257812 64.78125 0 121.949218-32.554687 156.066406-82.191406zm0 0" fill="#efd176"/><path d="m459.144531 189.257812c0 75.332032-61.070312 136.402344-136.402343 136.402344-75.335938 0-136.402344-61.070312-136.402344-136.402344 0-75.332031 61.066406-136.402343 136.402344-136.402343 75.332031 0 136.402343 61.070312 136.402343 136.402343zm0 0" fill="#8eafe2"/><path d="m322.742188 52.855469c-75.335938 0-136.402344 61.070312-136.402344 136.402343 0 1.765626.042968 3.523438.109375 5.273438l141.5625-141.5625c-1.75-.066406-3.503907-.113281-5.269531-.113281zm0 0" fill="#6a96d7"/><path d="m322.742188 325.660156c75.332031 0 136.402343-61.066406 136.402343-136.402344 0-10.710937-1.238281-21.132812-3.574219-31.132812l-163.964843 163.964844c10 2.332031 20.421875 3.570312 31.136719 3.570312zm0 0" fill="#6a96d7"/><path d="m271.511719 206.886719c0 13.175781-13.414063 23.855469-29.957031 23.855469-16.542969 0-29.957032-10.679688-29.957032-23.855469s13.414063-23.855469 29.957032-23.855469c16.546874 0 29.957031 10.679688 29.957031 23.855469zm0 0" fill="#fff"/><path d="m373.96875 206.886719c0 13.175781 13.414062 23.855469 29.957031 23.855469s29.957031-10.679688 29.957031-23.855469-13.414062-23.855469-29.957031-23.855469-29.957031 10.679688-29.957031 23.855469zm0 0" fill="#fff"/><g fill="#4e5660"><path d="m246.5625 186.21875c-4.140625 0-7.5-3.359375-7.5-7.5v-12.859375c0-4.140625 3.359375-7.5 7.5-7.5 4.144531 0 7.5 3.359375 7.5 7.5v12.859375c0 4.140625-3.355469 7.5-7.5 7.5zm0 0"/><path d="m346.890625 188.558594c0-14.925782-10.8125-16.332032-24.152344-16.332032-13.335937 0-24.152343 1.402344-24.152343 16.332032 0 14.925781 10.816406 27.023437 24.152343 27.023437 13.339844 0 24.152344-12.097656 24.152344-27.023437zm0 0"/><path d="m398.917969 186.21875c-4.140625 0-7.5-3.359375-7.5-7.5v-12.859375c0-4.140625 3.359375-7.5 7.5-7.5s7.5 3.359375 7.5 7.5v12.859375c0 4.140625-3.359375 7.5-7.5 7.5zm0 0"/></g></svg>