<svg height="512pt" viewBox="0 0 512.003 512" width="512pt" xmlns="http://www.w3.org/2000/svg"><path d="m481.453125 198.382812h-46.328125c-3.152344-9.808593-7.078125-19.265624-11.722656-28.300781l32.757812-32.757812c11.929688-11.929688 11.929688-31.269531 0-43.199219l-38.285156-38.285156c-11.929688-11.929688-31.269531-11.929688-43.199219 0l-32.757812 32.757812c-9.03125-4.644531-18.492188-8.570312-28.300781-11.722656v-46.324219c.003906-16.871093-13.675782-30.550781-30.546876-30.550781h-54.144531c-16.871093 0-30.546875 13.679688-30.546875 30.550781v46.324219c-9.808594 3.152344-19.265625 7.078125-28.296875 11.722656l-32.757812-32.757812c-11.929688-11.929688-31.273438-11.929688-43.203125 0l-38.28125 38.285156c-11.929688 11.929688-11.929688 31.273438 0 43.203125l32.757812 32.757813c-4.644531 9.03125-8.570312 18.488281-11.722656 28.296874h-46.328125c-16.871094 0-30.546875 13.675782-30.546875 30.546876v54.144531c0 16.871093 13.675781 30.546875 30.546875 30.546875h46.328125c3.152344 9.808594 7.078125 19.265625 11.722656 28.300781l-32.757812 32.757813c-11.929688 11.929687-11.929688 31.269531 0 43.199218l38.285156 38.285156c11.929688 11.929688 31.269531 11.929688 43.199219 0l32.757812-32.757812c9.03125 4.644531 18.492188 8.570312 28.300781 11.722656v46.328125c0 16.871094 13.675782 30.546875 30.546876 30.546875h54.144531c16.871093 0 30.546875-13.675781 30.546875-30.546875v-46.328125c9.808594-3.152344 19.269531-7.078125 28.300781-11.722656l32.757813 32.757812c11.929687 11.929688 31.269531 11.929688 43.199218 0l38.285156-38.285156c11.929688-11.929687 11.929688-31.269531 0-43.199218l-32.757812-32.757813c4.644531-9.03125 8.570312-18.492187 11.722656-28.300781h46.324219c16.871094 0 30.550781-13.675782 30.550781-30.546875v-54.144531c-.003906-16.871094-13.679687-30.546876-30.550781-30.546876zm0 0" fill="#a3defe"/><path d="m180.820312 83.542969c-3.632812 1.585937-7.226562 3.25-10.738281 5.054687l-32.757812-32.757812c-11.929688-11.929688-31.269531-11.929688-43.199219 0l-38.285156 38.285156c-11.929688 11.929688-11.929688 31.273438 0 43.203125l32.757812 32.757813c-4.644531 9.03125-8.570312 18.488281-11.722656 28.296874h-46.328125c-16.871094 0-30.546875 13.675782-30.546875 30.546876v54.144531c0 16.871093 13.675781 30.546875 30.546875 30.546875h46.328125c3.152344 9.808594 7.078125 19.265625 11.722656 28.300781l-32.757812 32.757813c-11.929688 11.929687-11.929688 31.269531 0 43.199218l38.285156 38.285156c11.929688 11.929688 31.269531 11.929688 43.199219 0l32.757812-32.757812c9.03125 4.644531 18.492188 8.570312 28.300781 11.722656v46.328125c0 16.871094 13.675782 30.546875 30.546876 30.546875h54.144531c16.871093 0 30.546875-13.675781 30.546875-30.546875v-46.328125c5.308594-1.707031 10.503906-3.65625 15.59375-5.804687-180.789063-60.410157-203.003906-235.050781-148.394532-345.78125zm0 0" fill="#7acefa"/><path d="m367.226562 256c0 61.429688-49.796874 111.226562-111.226562 111.226562s-111.226562-49.796874-111.226562-111.226562c0-61.425781 49.796874-111.226562 111.226562-111.226562s111.226562 49.800781 111.226562 111.226562zm0 0" fill="#fcf2d0"/><path d="m154.894531 209.652344c-6.480469 14.113281-10.121093 29.800781-10.121093 46.347656 0 47.726562 30.0625 88.414062 72.277343 104.203125-40.769531-43.320313-59.746093-97.269531-62.15625-150.550781zm0 0" fill="#f6e3a3"/><path d="m322.203125 256c0 36.566406-29.640625 66.207031-66.203125 66.207031s-66.203125-29.640625-66.203125-66.207031c0-36.5625 29.640625-66.203125 66.203125-66.203125s66.203125 29.640625 66.203125 66.203125zm0 0" fill="#6a96d7"/><path d="m281.457031 256c0 14.0625-11.398437 25.457031-25.457031 25.457031s-25.457031-11.394531-25.457031-25.457031c0-14.058594 11.398437-25.457031 25.457031-25.457031s25.457031 11.398437 25.457031 25.457031zm0 0" fill="#8ee2cf"/><path d="m256 84.851562c-4.140625 0-7.5-3.355468-7.5-7.5v-20.558593c0-4.140625 3.359375-7.5 7.5-7.5s7.5 3.359375 7.5 7.5v20.558593c0 4.144532-3.359375 7.5-7.5 7.5zm0 0" fill="#7acefa"/><g fill="#a3defe"><path d="m129.675781 137.175781c-1.917969 0-3.839843-.730469-5.304687-2.195312l-14.535156-14.535157c-2.929688-2.929687-2.929688-7.679687 0-10.605468 2.929687-2.929688 7.675781-2.929688 10.605468-.003906l14.539063 14.539062c2.925781 2.929688 2.925781 7.675781 0 10.605469-1.464844 1.464843-3.382813 2.195312-5.304688 2.195312zm0 0"/><path d="m77.351562 263.5h-20.558593c-4.144531 0-7.5-3.355469-7.5-7.5 0-4.140625 3.355469-7.5 7.5-7.5h20.558593c4.140626 0 7.5 3.359375 7.5 7.5 0 4.144531-3.359374 7.5-7.5 7.5zm0 0"/><path d="m115.140625 404.363281c-1.921875 0-3.839844-.734375-5.304687-2.199219-2.929688-2.925781-2.929688-7.675781 0-10.605468l14.539062-14.535156c2.929688-2.929688 7.675781-2.929688 10.605469 0 2.929687 2.929687 2.929687 7.675781 0 10.605468l-14.539063 14.535156c-1.464844 1.464844-3.382812 2.199219-5.300781 2.199219zm0 0"/><path d="m256 462.710938c-4.140625 0-7.5-3.359376-7.5-7.5v-20.5625c0-4.140626 3.359375-7.5 7.5-7.5s7.5 3.359374 7.5 7.5v20.5625c0 4.140624-3.359375 7.5-7.5 7.5zm0 0"/></g><path d="m396.859375 404.363281c-1.917969 0-3.835937-.734375-5.300781-2.195312l-14.539063-14.539063c-2.929687-2.929687-2.929687-7.675781 0-10.605468 2.929688-2.929688 7.679688-2.929688 10.609375 0l14.535156 14.535156c2.929688 2.929687 2.929688 7.679687 0 10.609375-1.464843 1.460937-3.382812 2.195312-5.304687 2.195312zm0 0" fill="#7acefa"/><path d="m455.207031 263.5h-20.558593c-4.140626 0-7.5-3.355469-7.5-7.5 0-4.140625 3.359374-7.5 7.5-7.5h20.558593c4.144531 0 7.5 3.359375 7.5 7.5 0 4.144531-3.355469 7.5-7.5 7.5zm0 0" fill="#7acefa"/><path d="m382.324219 137.175781c-1.917969 0-3.839844-.730469-5.304688-2.195312-2.925781-2.929688-2.925781-7.679688 0-10.605469l14.539063-14.539062c2.929687-2.925782 7.679687-2.925782 10.605468.003906 2.929688 2.925781 2.929688 7.675781 0 10.605468l-14.535156 14.535157c-1.464844 1.464843-3.386718 2.195312-5.304687 2.195312zm0 0" fill="#7acefa"/></svg>