<svg height="512pt" viewBox="-39 0 512 512.00025" width="512pt" xmlns="http://www.w3.org/2000/svg"><path d="m379.488281 152.015625-187.097656 187.097656c-12.019531 12.019531-31.507813 12.019531-43.523437 0l-99.480469-99.476562c-12.019531-12.019531-12.019531-31.503907 0-43.523438l187.101562-187.097656c12.019531-12.019531 31.503907-12.019531 43.523438 0l99.476562 99.476563c12.019531 12.019531 12.019531 31.503906 0 43.523437zm0 0" fill="#8ee2cf"/><g fill="#6fce91"><path d="m209.347656 200.46875c-26.203125-39.46875-36.972656-89.609375-27.507812-136.808594l-132.453125 132.453125c-12.019531 12.019531-12.019531 31.503907 0 43.523438l99.480469 99.476562c12.019531 12.019531 31.503906 12.019531 43.523437 0l133.21875-133.21875h-106.066406c-4.085938 0-7.933594-2.019531-10.195313-5.425781zm0 0"/><path d="m286.761719 142.867188c-4.140625 0-7.5-3.359376-7.5-7.5v-16.144532c0-4.144531 3.359375-7.5 7.5-7.5s7.5 3.355469 7.5 7.5v16.144532c0 4.140624-3.359375 7.5-7.5 7.5zm0 0"/><path d="m310.261719 126.722656c-4.140625 0-7.5-3.355468-7.5-7.5v-31.210937c0-4.144531 3.359375-7.5 7.5-7.5 4.144531 0 7.5 3.355469 7.5 7.5v31.210937c0 4.144532-3.355469 7.5-7.5 7.5zm0 0"/></g><path d="m247.597656 140.902344c-22.449218-22.445313-55.492187-25.796875-73.808594-7.484375-18.3125 18.316406-14.960937 51.359375 7.484376 73.808593 22.449218 22.445313 55.492187 25.796876 73.804687 7.480469 18.316406-18.3125 14.964844-51.355469-7.480469-73.804687zm0 0" fill="#fcf2d0"/><path d="m255.082031 214.707031c2.652344-2.652343 4.835938-5.621093 6.589844-8.8125h-42.128906c-4.085938 0-7.933594-2.019531-10.195313-5.425781-14.429687-21.738281-24.171875-46.714844-28.4375-72.65625-2.550781 1.570312-4.941406 3.429688-7.117187 5.605469-18.3125 18.316406-14.960938 51.359375 7.484375 73.808593 22.445312 22.445313 55.492187 25.796876 73.804687 7.480469zm0 0" fill="#f6e3a3"/><path d="m49.386719 239.636719 18.878906 18.878906c22.445313-22.445313 22.445313-58.835937 0-81.28125l-18.878906 18.878906c-12.019531 12.019531-12.015625 31.503907 0 43.523438zm0 0" fill="#f6e3a3"/><path d="m280.011719 9.015625 18.878906 18.875c-22.445313 22.445313-58.835937 22.445313-81.28125 0l18.878906-18.875c12.019531-12.019531 31.503907-12.019531 43.523438 0zm0 0" fill="#fcf2d0"/><path d="m148.867188 339.113281-18.878907-18.878906c22.445313-22.441406 58.832031-22.441406 81.277344 0l-18.875 18.878906c-12.019531 12.019531-31.507813 12.019531-43.523437 0zm0 0" fill="#f6e3a3"/><path d="m379.488281 108.492188-18.878906-18.878907c-22.445313 22.445313-22.445313 58.832031 0 81.277344l18.878906-18.875c12.019531-12.019531 12.019531-31.503906 0-43.523437zm0 0" fill="#fcf2d0"/><path d="m374.625 512h-333.058594c-22.957031 0-41.566406-18.609375-41.566406-41.566406v-205.964844c0-22.953125 18.609375-41.566406 41.566406-41.566406h333.058594c22.957031 0 41.566406 18.613281 41.566406 41.566406v205.964844c0 22.957031-18.609375 41.566406-41.566406 41.566406zm0 0" fill="#e1b89a"/><path d="m41.566406 222.902344c-22.957031 0-41.566406 18.613281-41.566406 41.566406v205.964844c0 22.957031 18.609375 41.566406 41.566406 41.566406h219.222656c-101.15625-58.175781-113.648437-212.234375-81.34375-289.097656zm0 0" fill="#d2996f"/><path d="m108.996094 376.964844c0-10.851563-11.046875-19.648438-24.671875-19.648438s-24.671875 8.796875-24.671875 19.648438c0 10.851562 11.046875 19.648437 24.671875 19.648437s24.671875-8.796875 24.671875-19.648437zm0 0" fill="#fff"/><path d="m242.726562 376.964844c0-10.851563-11.046874-19.648438-24.671874-19.648438s-24.671876 8.796875-24.671876 19.648438c0 10.851562 11.046876 19.648437 24.671876 19.648437s24.671874-8.796875 24.671874-19.648437zm0 0" fill="#fff"/><path d="m110.445312 363.085938c-4.140624 0-7.5-3.359376-7.5-7.5 0-2.339844-1.902343-4.242188-4.242187-4.242188s-4.242187 1.902344-4.242187 4.242188c0 4.140624-3.359376 7.5-7.5 7.5-4.144532 0-7.5-3.359376-7.5-7.5 0-10.609376 8.632812-19.242188 19.242187-19.242188s19.242187 8.632812 19.242187 19.242188c0 4.140624-3.355468 7.5-7.5 7.5zm0 0" fill="#4e5660"/><path d="m215.417969 363.085938c-4.140625 0-7.5-3.359376-7.5-7.5 0-2.339844-1.902344-4.242188-4.242188-4.242188-2.339843 0-4.242187 1.902344-4.242187 4.242188 0 4.140624-3.359375 7.5-7.5 7.5s-7.5-3.359376-7.5-7.5c0-10.609376 8.632812-19.242188 19.242187-19.242188 10.613281 0 19.242188 8.632812 19.242188 19.242188 0 4.140624-3.355469 7.5-7.5 7.5zm0 0" fill="#4e5660"/><path d="m151.1875 382.484375c-6.9375 0-13.539062-3.003906-18.109375-8.246094-2.722656-3.121093-2.394531-7.859375.726563-10.582031 3.121093-2.722656 7.859374-2.394531 10.582031.726562 1.71875 1.972657 4.199219 3.101563 6.800781 3.101563 2.605469 0 5.082031-1.128906 6.800781-3.101563 2.722657-3.121093 7.460938-3.449218 10.582031-.726562 3.125 2.722656 3.449219 7.460938.726563 10.582031-4.566406 5.242188-11.167969 8.246094-18.109375 8.246094zm0 0" fill="#4e5660"/><path d="m374.625 488.175781h-333.058594c-9.785156 0-17.742187-7.957031-17.742187-17.742187v-205.960938c0-9.785156 7.957031-17.746094 17.742187-17.746094h333.058594c9.78125 0 17.742188 7.960938 17.742188 17.746094v205.960938c0 9.785156-7.960938 17.742187-17.742188 17.742187zm-333.058594-226.449219c-1.511718 0-2.742187 1.230469-2.742187 2.742188v205.964844c0 1.511718 1.230469 2.742187 2.742187 2.742187h333.058594c1.511719 0 2.742188-1.230469 2.742188-2.742187v-205.960938c0-1.515625-1.230469-2.746094-2.742188-2.746094zm0 0" fill="#fcf2d0"/><path d="m412.507812 331.019531h-121.992187c-9.742187 0-19.125 3.664063-26.289063 10.265625-15.292968 14.09375-15.292968 38.242188 0 52.335938 7.164063 6.597656 16.546876 10.265625 26.289063 10.265625h121.992187c11.460938 0 20.75-9.292969 20.75-20.75v-31.367188c0-11.460937-9.289062-20.75-20.75-20.75zm0 0" fill="#f7ef87"/><path d="m309.742188 374.953125h-18.226563c-4.140625 0-7.5-3.359375-7.5-7.5 0-4.144531 3.359375-7.5 7.5-7.5h18.226563c4.144531 0 7.5 3.355469 7.5 7.5 0 4.140625-3.355469 7.5-7.5 7.5zm0 0" fill="#4e5660"/></svg>