<svg height="512pt" viewBox="0 0 512.01646 512" width="512pt" xmlns="http://www.w3.org/2000/svg"><path d="m437.214844 411.558594h-362.421875c-22.707031 0-38.128907-23.066406-29.449219-44.050782 4.535156-10.972656 6.871094-22.730468 6.871094-34.605468v-173.644532h407.578125v173.644532c0 11.875 2.335937 23.632812 6.875 34.605468 8.675781 20.984376-6.746094 44.050782-29.453125 44.050782zm0 0" fill="#4e5660"/><path d="m388.503906 512.007812c16.382813 0 28.773438-14.929687 25.640625-31.007812-14.457031-74.148438-79.761719-130.113281-158.140625-130.113281s-143.683594 55.964843-158.140625 130.113281c-3.132812 16.078125 9.261719 31.007812 25.640625 31.007812zm0 0" fill="#8ee2cf"/><path d="m222.902344 354.328125c-63.113282 13.183594-112.675782 63.261719-125.039063 126.671875-3.132812 16.078125 9.261719 31.007812 25.640625 31.007812h122.511719c-47.980469-31.878906-46.589844-123.707031-23.113281-157.679687zm0 0" fill="#6fce91"/><path d="m322.652344 374.425781c-7.585938-36.808593-43.570313-60.496093-80.378906-52.914062-36.808594 7.585937-60.496094 43.570312-52.914063 80.378906 7.585937 36.804687 43.570313 60.496094 80.378906 52.914063 36.804688-7.585938 60.496094-43.570313 52.914063-80.378907zm0 0" fill="#ffd4be"/><path d="m192.394531 363.996094c-2.859375 7.515625-4.4375 15.660156-4.4375 24.179687 0 18.792969 7.617188 35.804688 19.929688 48.117188-3.242188-31.945313 2.984375-64.550781 15.015625-81.960938-10.59375 2.210938-20.789063 5.484375-30.507813 9.664063zm0 0" fill="#ffbf9e"/><path d="m105.457031 205.953125c-3.964843-28.984375-30.675781-49.269531-59.664062-45.304687-28.984375 3.960937-49.269531 30.671874-45.304688 59.660156 3.964844 28.984375 30.675781 49.269531 59.660157 45.304687 28.988281-3.964843 49.269531-30.675781 45.308593-59.660156zm0 0" fill="#ffd4be"/><path d="m66.9375 254.523438c-9.101562-11.058594-25.445312-12.648438-36.503906-3.546876-11.0625 9.101563-12.648438 25.445313-3.550782 36.503907 9.101563 11.0625 25.445313 12.648437 36.507813 3.550781 11.058594-9.101562 12.648437-25.445312 3.546875-36.507812zm0 0" fill="#8ee2cf"/><path d="m467.53125 160.835938c-28.878906-4.6875-56.085938 14.921874-60.773438 43.800781-4.6875 28.878906 14.921876 56.085937 43.800782 60.773437s56.085937-14.925781 60.773437-43.800781c4.6875-28.878906-14.921875-56.089844-43.800781-60.773437zm0 0" fill="#ffbf9e"/><path d="m483.433594 252.667969c-10.125-10.128907-26.546875-10.128907-36.675782 0-10.125 10.125-10.125 26.546875 0 36.675781 10.128907 10.125 26.550782 10.125 36.675782 0 10.128906-10.128906 10.128906-26.550781 0-36.675781zm0 0" fill="#8ee2cf"/><path d="m467.925781 213.125c0 117.039062-111.898437 193.585938-211.921875 193.585938-100.023437 0-211.917968-76.546876-211.917968-193.585938s94.878906-189.128906 211.917968-189.128906c117.039063 0 211.921875 72.089844 211.921875 189.128906zm0 0" fill="#ffd4be"/><path d="m256.003906 406.710938c28.621094 0 58.207032-6.277344 85.871094-17.964844-230.523438-10.644532-250.433594-232.054688-179.644531-347.484375-70 27.945312-118.144531 88.492187-118.144531 171.863281 0 117.039062 111.894531 193.585938 211.917968 193.585938zm0 0" fill="#ffbf9e"/><path d="m182.886719 257.058594c0-18.800782-19.140625-34.046875-42.753907-34.046875-23.613281 0-42.753906 15.246093-42.753906 34.046875 0 18.804687 19.140625 34.046875 42.753906 34.046875 23.613282 0 42.753907-15.242188 42.753907-34.046875zm0 0" fill="#eda1ab"/><path d="m414.628906 257.058594c0-18.800782-19.140625-34.046875-42.753906-34.046875s-42.753906 15.246093-42.753906 34.046875c0 18.804687 19.140625 34.046875 42.753906 34.046875s42.753906-15.242188 42.753906-34.046875zm0 0" fill="#eda1ab"/><g fill="#4e5660"><path d="m165.050781 230.59375c-4.144531 0-7.5-3.355469-7.5-7.5v-15.097656c0-4.140625 3.355469-7.5 7.5-7.5 4.140625 0 7.5 3.359375 7.5 7.5v15.097656c0 4.144531-3.359375 7.5-7.5 7.5zm0 0"/><path d="m346.957031 230.59375c-4.140625 0-7.5-3.355469-7.5-7.5v-15.097656c0-4.140625 3.359375-7.5 7.5-7.5 4.144531 0 7.5 3.359375 7.5 7.5v15.097656c0 4.144531-3.355469 7.5-7.5 7.5zm0 0"/><path d="m256.003906 242.1875c-11.359375 0-22.160156-4.917969-29.632812-13.496094-2.722656-3.121094-2.398438-7.859375.726562-10.582031 3.125-2.71875 7.859375-2.394531 10.582032.730469 4.625 5.304687 11.304687 8.351562 18.324218 8.351562 7.019532 0 13.699219-3.046875 18.324219-8.351562 2.722656-3.125 7.457031-3.449219 10.582031-.730469 3.121094 2.722656 3.449219 7.460937.726563 10.582031-7.472657 8.578125-18.273438 13.496094-29.632813 13.496094zm0 0"/><path d="m256.003906.0078125c-204.117187 0-228.097656 158.2226565-216.25 215.4140625 1.421875 6.871094 9.820313 9.652344 15.058594 4.984375 25.4375-22.664062 49.296875-60.769531 77.730469-119.121094-4.570313 14.3125-8.308594 36.585938-10.230469 53.660156-1.160156 10.292969 6.894531 19.292969 17.25 19.292969h232.882812c10.355469 0 18.410157-9 17.253907-19.292969-1.925781-17.074218-5.660157-39.347656-10.230469-53.660156 28.433594 58.351563 52.289062 96.457032 77.730469 119.121094 5.238281 4.667969 13.632812 1.886719 15.058593-4.984375 11.84375-57.191406-12.132812-215.4140625-216.253906-215.4140625zm0 0"/></g><path d="m182.886719 125.992188c-4.140625 0-7.5-3.355469-7.5-7.5 0-12.261719 3.621093-32.3125 7.195312-45.78125 1.0625-4.003907 5.171875-6.382813 9.171875-5.324219 4.003906 1.0625 6.386719 5.171875 5.328125 9.171875-3.292969 12.394531-6.695312 31.46875-6.695312 41.9375 0 4.140625-3.359375 7.496094-7.5 7.496094zm0 0" fill="#383c43"/><path d="m329.121094 149.582031c-4.144532 0-7.5-3.355469-7.5-7.5 0-7.5-2.285156-25.980469-4.53125-36.621093-.855469-4.054688 1.738281-8.03125 5.792968-8.886719 4.050782-.855469 8.027344 1.738281 8.886719 5.789062 2.492188 11.828125 4.851563 31.132813 4.851563 39.71875 0 4.144531-3.355469 7.5-7.5 7.5zm0 0" fill="#383c43"/></svg>