<svg height="512pt" viewBox="0 -76 512 512" width="512pt" xmlns="http://www.w3.org/2000/svg"><path d="m434.089844 359.125h-356.179688c-43.027344 0-77.910156-34.882812-77.910156-77.914062v-203.300782c0-43.027344 34.882812-77.910156 77.910156-77.910156h356.179688c43.027344 0 77.910156 34.882812 77.910156 77.910156v203.300782c0 43.03125-34.882812 77.914062-77.910156 77.914062zm0 0" fill="#fcf2d0"/><path d="m77.910156 0c-43.027344 0-77.910156 34.882812-77.910156 77.910156v203.300782c0 43.03125 34.882812 77.910156 77.910156 77.910156h247.226563c-113.070313-81.929688-133.097657-209.78125-104.710938-359.121094zm0 0" fill="#f6e3a3"/><path d="m434.089844 0h-356.179688c-43.027344 0-77.910156 34.882812-77.910156 77.910156v15.390625h512v-15.390625c0-43.027344-34.882812-77.910156-77.910156-77.910156zm0 0" fill="#8eafe2"/><path d="m77.910156 0c-43.027344 0-77.910156 34.882812-77.910156 77.910156v15.390625h209.261719c1.175781-29.9375 5.046875-61.121093 11.164062-93.300781zm0 0" fill="#6a96d7"/><path d="m215.632812 25.941406c-11.4375-1.855468-22.214843 5.910156-24.070312 17.347656-1.859375 11.4375 5.910156 22.214844 17.347656 24.070313s22.214844-5.910156 24.070313-17.347656-5.910157-22.214844-17.347657-24.070313zm0 0" fill="#8ee2cf"/><path d="m215.949219 26.015625c-1.199219-.214844-2.425781-.34375-3.683594-.34375-11.589844 0-20.980469 9.390625-20.980469 20.980469 0 11.128906 8.671875 20.207031 19.621094 20.910156 1.1875-13.625 2.878906-27.480469 5.042969-41.546875zm0 0" fill="#6fce91"/><path d="m148.574219 26.246094c-11.273438-2.664063-22.574219 4.320312-25.238281 15.597656-2.664063 11.273438 4.320312 22.574219 15.597656 25.238281 11.277344 2.664063 22.574218-4.320312 25.238281-15.597656s-4.320313-22.574219-15.597656-25.238281zm0 0" fill="#efd176"/><path d="m78.605469 25.941406c-11.4375-1.855468-22.214844 5.914063-24.070313 17.347656-1.855468 11.4375 5.910156 22.214844 17.347656 24.074219 11.4375 1.855469 22.214844-5.914062 24.070313-17.351562 1.859375-11.4375-5.910156-22.210938-17.347656-24.070313zm0 0" fill="#e68a97"/><path d="m199.464844 192.039062c0 15.839844 1.0625 29.273438 2.433594 40.011719 2 15.636719 18.746093 24.707031 32.96875 17.914063 19.789062-9.453125 46.6875-23.324219 67.199218-37.753906 13.960938-9.816407 13.960938-30.527344 0-40.347657-20.511718-14.425781-47.410156-28.296875-67.199218-37.75-14.222657-6.796875-30.96875 2.277344-32.96875 17.910157-1.371094 10.742187-2.433594 24.171874-2.433594 40.015624zm0 0" fill="#eda1ab"/><path d="m234.867188 249.964844c.121093-.058594.253906-.121094.375-.183594-15.175782-34.234375-23.304688-71.867188-25.636719-112.210938-4.0625 3.535157-6.949219 8.523438-7.707031 14.457032-1.371094 10.738281-2.4375 24.171875-2.4375 40.011718 0 15.84375 1.066406 29.273438 2.4375 40.011719 2 15.636719 18.746093 24.707031 32.96875 17.914063zm0 0" fill="#e26e7e"/><path d="m416.171875 313.96875h-320.34375c-4.140625 0-7.5-3.355469-7.5-7.5 0-4.140625 3.359375-7.5 7.5-7.5h320.34375c4.140625 0 7.5 3.359375 7.5 7.5 0 4.144531-3.359375 7.5-7.5 7.5zm0 0" fill="#4e5660"/><path d="m369.609375 301.453125c-2.75-11.652344-14.429687-18.867187-26.082031-16.117187s-18.867188 14.429687-16.117188 26.082031c2.753906 11.652343 14.429688 18.867187 26.082032 16.117187 11.652343-2.753906 18.867187-14.429687 16.117187-26.082031zm0 0" fill="#eda1ab"/><path d="m418.777344 153.386719h42.488281c5.550781 0 10.050781-4.5 10.050781-10.050781v-6.546876c0-5.550781-4.5-10.050781-10.050781-10.050781h-42.488281c-5.550782 0-10.050782 4.5-10.050782 10.050781v6.546876c0 5.550781 4.5 10.050781 10.050782 10.050781zm0 0" fill="#4e5660"/><path d="m93.222656 173.386719h-42.488281c-5.550781 0-10.050781-4.5-10.050781-10.050781v-26.546876c0-5.550781 4.5-10.050781 10.050781-10.050781h42.488281c5.550782 0 10.050782 4.5 10.050782 10.050781v26.546876c0 5.550781-4.5 10.050781-10.050782 10.050781zm0 0" fill="#6a96d7"/></svg>