<?xml version="1.0" encoding="iso-8859-1"?>
<!-- Generator: Adobe Illustrator 18.1.1, SVG Export Plug-In . SVG Version: 6.00 Build 0)  -->
<svg version="1.1" id="Capa_1" xmlns="http://www.w3.org/2000/svg" xmlns:xlink="http://www.w3.org/1999/xlink" x="0px" y="0px"
	 viewBox="0 0 309.627 309.627" style="enable-background:new 0 0 309.627 309.627;" xml:space="preserve">
<g>
	<path style="fill:#010002;" d="M157.603,0.042c-3.061,0-5.328,0.197-6.516,0.328C149.846,0.221,147.423,0,144.166,0
		c-10.323,0-29.948,2.309-45.402,17.799C84.395,32.191,77.14,54.346,77.187,83.632c0.095,50.259,19.524,79.849,35.807,95.822
		c17.817,17.477,35.64,22.853,36.392,23.074c0.549,0.161,1.116,0.245,1.683,0.245c0.513,0,1.026-0.066,1.528-0.197
		c0.8-0.215,79.884-22.298,76.185-119.182C225.822,6.056,173.552,0.042,157.603,0.042z M151.159,190.546
		c-10.072-3.634-61.894-26.284-62.044-106.938c-0.048-26.004,6.038-45.312,18.086-57.377c12.417-12.441,28.486-14.297,36.959-14.297
		c3.646,0,5.961,0.346,5.967,0.346c0.591,0.09,1.211,0.095,1.808,0.006c0.018,0,2.19-0.31,5.669-0.31
		c16.994,0,56.775,7.005,59.245,71.865C219.927,164.548,162.006,187.049,151.159,190.546z"/>
	<path style="fill:#010002;" d="M214.622,180.373c-0.835,3.186,1.074,6.45,4.26,7.286c15.997,4.195,55.038,16.892,76.513,45.074
		v64.961H14.219v-64.961c21.206-27.812,59.71-40.569,75.493-44.805c3.18-0.853,5.072-4.129,4.219-7.309
		c-0.853-3.18-4.105-5.09-7.309-4.219c-21.481,5.764-60.85,20.037-83.196,50.856c-0.74,1.014-1.134,2.244-1.134,3.503v72.903
		c0,3.294,2.673,5.967,5.967,5.967h293.111c3.294,0,5.967-2.673,5.967-5.967v-72.903c0-1.259-0.394-2.488-1.14-3.503
		c-23.468-32.376-66.763-46.548-84.288-51.142C218.728,175.277,215.452,177.186,214.622,180.373z"/>
</g>
<g>
</g>
<g>
</g>
<g>
</g>
<g>
</g>
<g>
</g>
<g>
</g>
<g>
</g>
<g>
</g>
<g>
</g>
<g>
</g>
<g>
</g>
<g>
</g>
<g>
</g>
<g>
</g>
<g>
</g>
</svg>
