<svg enable-background="new 0 0 36 36" height="512" viewBox="0 0 36 36" width="512" xmlns="http://www.w3.org/2000/svg"><path d="m34.904 20.355c-3.782-5.791-3.38-11.727-5.203-14.518s-7.256-7.603-20.093.782-9.572 17.5-7.566 20.569c9.388 14.372 39.561 3.423 32.862-6.833z" fill="#efefef"/><g fill="#a4afc1"><path d="m7.875 5.5h2v1h-2z"/><path d="m13.625 5.5h2v1h-2z"/><path d="m11.125 2.25h1v2h-1z"/></g><path d="m29.25 10.75v4h-22.5v-4c0-1.1.9-2 2-2h18.5c1.1 0 2 .9 2 2z" fill="#2fdf84"/><path d="m29.25 14.75v12.5c0 1.1-.9 2-2 2h-18.5c-1.1 0-2-.9-2-2v-12.5z" fill="#f3f3f1"/><path d="m11 8.75h-2.25c-1.1 0-2 .9-2 2v4h2.25v-4c0-1.1.9-2 2-2z" fill="#00b871"/><path d="m9 27.25v-12.5h-2.25v12.5c0 1.1.9 2 2 2h2.25c-1.1 0-2-.9-2-2z" fill="#d5dbe1"/><path d="m31 7.5c-.827 0-1.5-.673-1.5-1.5s.673-1.5 1.5-1.5 1.5.673 1.5 1.5-.673 1.5-1.5 1.5zm0-2c-.276 0-.5.224-.5.5s.224.5.5.5.5-.224.5-.5-.224-.5-.5-.5z" fill="#a4afc1"/><path d="m16.25 26h-3.5c-.414 0-.75-.336-.75-.75v-1.25c0-1.378 1.122-2.5 2.5-2.5.551 0 1-.449 1-1s-.449-1-1-1h-1.75v-1.5h1.75c1.378 0 2.5 1.122 2.5 2.5s-1.122 2.5-2.5 2.5c-.551 0-1 .449-1 1v.5h2.75z"/><path d="m21.5 26h-1.75v-1.5h1.75c.551 0 1-.449 1-1s-.449-1-1-1h-1.75c-.414 0-.75-.336-.75-.75v-3c0-.414.336-.75.75-.75h3.5v1.5h-2.75v1.5h1c1.378 0 2.5 1.122 2.5 2.5s-1.122 2.5-2.5 2.5z"/><path d="m27.25 30h-18.5c-1.517 0-2.75-1.233-2.75-2.75v-16.5c0-1.517 1.233-2.75 2.75-2.75h18.5c1.517 0 2.75 1.233 2.75 2.75v16.5c0 1.517-1.233 2.75-2.75 2.75zm-18.5-20.5c-.689 0-1.25.561-1.25 1.25v16.5c0 .689.561 1.25 1.25 1.25h18.5c.689 0 1.25-.561 1.25-1.25v-16.5c0-.689-.561-1.25-1.25-1.25z"/><path d="m6.75 14h22.5v1.5h-22.5z"/><path d="m11 6.75h1.5v4.5h-1.5z"/><path d="m23.5 6.75h1.5v4.5h-1.5z"/></svg>