<svg enable-background="new 0 0 36 36" height="512" viewBox="0 0 36 36" width="512" xmlns="http://www.w3.org/2000/svg"><path d="m8.377 31.833c6.917 0 11.667 3.583 15 3.583s10.333-1.916 10.333-17.249-9.417-17.584-13.083-17.584c-17.167 0-24.5 31.25-12.25 31.25z" fill="#efefef"/><path d="m29.25 12.25v1.38l-10.32 5.39c-.58.3-1.28.3-1.86 0l-10.32-5.39v-1.38c0-.83.67-1.5 1.5-1.5h19.5c.83 0 1.5.67 1.5 1.5z" fill="#2fdf84"/><path d="m29.25 13.63v10.12c0 .83-.67 1.5-1.5 1.5h-19.5c-.83 0-1.5-.67-1.5-1.5v-10.12l10.32 5.39c.58.3 1.28.3 1.86 0z" fill="#f3f3f1"/><path d="m9 13.38v-1.13c0-.83.67-1.5 1.5-1.5h-2.25c-.83 0-1.5.67-1.5 1.5v1.38l10.32 5.39c.58.3 1.28.3 1.86 0l.195-.352z" fill="#00b871"/><path d="m9 23.75v-8.945l-2.25-1.175v10.12c0 .83.67 1.5 1.5 1.5h2.25c-.83 0-1.5-.67-1.5-1.5z" fill="#d5dbe1"/><g fill="#a4afc1"><path d="m31 6.71c-.827 0-1.5-.673-1.5-1.5s.673-1.5 1.5-1.5 1.5.673 1.5 1.5-.673 1.5-1.5 1.5zm0-2c-.276 0-.5.224-.5.5s.224.5.5.5.5-.224.5-.5-.224-.5-.5-.5z"/><path d="m3.555 3.119h1v2h-1z" transform="matrix(.707 -.707 .707 .707 -1.725 4.075)"/><path d="m7.621 7.185h1v2h-1z" transform="matrix(.707 -.707 .707 .707 -3.409 8.142)"/><path d="m2.879 7.685h2v1h-2z" transform="matrix(.707 -.707 .707 .707 -4.651 5.14)"/><path d="m6.945 3.619h2v1h-2z" transform="matrix(.707 -.707 .707 .707 -.585 6.824)"/></g><path d="m27.75 26h-19.5c-1.241 0-2.25-1.009-2.25-2.25v-11.5c0-1.241 1.009-2.25 2.25-2.25h11.792v1.5h-11.792c-.414 0-.75.336-.75.75v11.5c0 .414.336.75.75.75h19.5c.414 0 .75-.336.75-.75v-11.5c0-.414-.336-.75-.75-.75h-5.292v-1.5h5.292c1.241 0 2.25 1.009 2.25 2.25v11.5c0 1.241-1.009 2.25-2.25 2.25z"/><path d="m17.999 19.996c-.438 0-.875-.103-1.273-.309l-10.323-5.393.694-1.329 10.32 5.39c.358.185.808.185 1.169-.002l10.317-5.388.694 1.329-10.32 5.39c-.401.208-.839.312-1.278.312z"/><path d="m2 24.5h32v1.5h-32z"/></svg>