<svg id="line" enable-background="new 0 0 36 36" height="512" viewBox="0 0 36 36" width="512" xmlns="http://www.w3.org/2000/svg"><path d="m4.167 8.377c0 6.917-3.583 11.667-3.583 15s1.916 10.333 17.249 10.333 17.583-9.417 17.583-13.083c.001-17.167-31.249-24.5-31.249-12.25z" fill="#efefef"/><path d="m32.5 12c-.827 0-1.5-.673-1.5-1.5s.673-1.5 1.5-1.5 1.5.673 1.5 1.5-.673 1.5-1.5 1.5zm0-2c-.276 0-.5.224-.5.5s.224.5.5.5.5-.224.5-.5-.224-.5-.5-.5z" fill="#a4afc1"/><path d="m26.25 15.75v-7c0-1.1-.9-2-2-2h-12.5c-1.1 0-2 .9-2 2v7z" fill="#2fdf84"/><path d="m8.75 29.25c-1.105 0-2-.895-2-2v-11.5c0-1.105.895-2 2-2h4.836c.265 0 .52.105.707.293l1.414 1.414c.188.188.442.293.707.293h10.836c1.105 0 2 .895 2 2v9.5c0 1.105-.895 2-2 2z" fill="#f3f3f1"/><path d="m14 6.75h-2.25c-1.1 0-2 .9-2 2v5h2.25v-5c0-1.1.9-2 2-2z" fill="#00b871"/><path d="m9 27.25v-11.5c0-1.105.895-2 2-2h-2.25c-1.105 0-2 .895-2 2v11.5c0 1.105.895 2 2 2h2.25c-1.105 0-2-.895-2-2z" fill="#d5dbe1"/><path d="m27 15.25h-1.5v-6.5c0-.689-.561-1.25-1.25-1.25h-12.5c-.689 0-1.25.561-1.25 1.25v4.5h-1.5v-4.5c0-1.517 1.233-2.75 2.75-2.75h12.5c1.517 0 2.75 1.233 2.75 2.75z"/><path d="m27.25 30h-18.5c-1.517 0-2.75-1.233-2.75-2.75v-11.5c0-1.517 1.233-2.75 2.75-2.75h4.836c.468 0 .907.182 1.238.513l1.414 1.414c.046.046.11.073.176.073h10.836c1.517 0 2.75 1.233 2.75 2.75v9.5c0 1.517-1.233 2.75-2.75 2.75zm-18.5-15.5c-.689 0-1.25.561-1.25 1.25v11.5c0 .689.561 1.25 1.25 1.25h18.5c.689 0 1.25-.561 1.25-1.25v-9.5c0-.689-.561-1.25-1.25-1.25h-10.836c-.467 0-.907-.182-1.237-.513l-1.414-1.414c-.047-.047-.11-.073-.177-.073z"/><path d="m2 28.5h32v1.5h-32z"/></svg>