<svg id="line" enable-background="new 0 0 36 36" height="512" viewBox="0 0 36 36" width="512" xmlns="http://www.w3.org/2000/svg"><path d="m27.623 4.167c-6.917 0-11.667-3.583-15-3.583s-10.333 1.916-10.333 17.249 9.417 17.583 13.083 17.583c17.167.001 24.5-31.249 12.25-31.249z" fill="#efefef"/><path d="m32.5 32c-.827 0-1.5-.673-1.5-1.5s.673-1.5 1.5-1.5 1.5.673 1.5 1.5-.673 1.5-1.5 1.5zm0-2c-.276 0-.5.224-.5.5s.224.5.5.5.5-.224.5-.5-.224-.5-.5-.5z" fill="#a4afc1"/><path d="m18 29.25h-9.25c-1.105 0-2-.895-2-2v-9.25h11.25z" fill="#f3f3f1"/><path d="m18 6.75h-9.25c-1.105 0-2 .895-2 2v9.25h11.25z" fill="#2fdf84"/><path d="m18 29.25h9.25c1.105 0 2-.895 2-2v-9.25h-11.25z" fill="#2fdf84"/><path d="m18 6.75h9.25c1.105 0 2 .895 2 2v9.25h-11.25z" fill="#f3f3f1"/><path d="m11 6.75h-2.25c-1.105 0-2 .895-2 2v9.25h2.25v-9.25c0-1.105.895-2 2-2z" fill="#00b871"/><path d="m18 18h2.25v11.25h-2.25z" fill="#00b871"/><path d="m9 27.25v-9.25h-2.25v9.25c0 1.105.895 2 2 2h2.25c-1.105 0-2-.895-2-2z" fill="#d5dbe1"/><path d="m18 6.75h2.25v11.25h-2.25z" fill="#d5dbe1"/><path d="m27.25 30h-18.5c-1.517 0-2.75-1.233-2.75-2.75v-18.5c0-1.517 1.233-2.75 2.75-2.75h18.5c1.517 0 2.75 1.233 2.75 2.75v18.5c0 1.517-1.233 2.75-2.75 2.75zm-18.5-22.5c-.689 0-1.25.561-1.25 1.25v18.5c0 .689.561 1.25 1.25 1.25h18.5c.689 0 1.25-.561 1.25-1.25v-18.5c0-.689-.561-1.25-1.25-1.25z"/><path d="m17.25 6.75h1.5v22.5h-1.5z"/><path d="m6.75 17.25h22.5v1.5h-22.5z"/><path d="m11.25 10h1.5v5h-1.5z"/><path d="m9.5 11.75h5v1.5h-5z"/><path d="m9.482 23.25h5.035v1.5h-5.035z" transform="matrix(.707 -.707 .707 .707 -13.456 15.515)"/><path d="m11.25 21.482h1.5v5.035h-1.5z" transform="matrix(.707 -.707 .707 .707 -13.456 15.515)"/><path d="m21 11.5h6v1.5h-6z"/><path d="m21 24.5h6v1.5h-6z"/><path d="m21 21.5h6v1.5h-6z"/><path d="m2 28.5h32v1.5h-32z"/></svg>