<svg id="_x31__x2C_5" enable-background="new 0 0 36 36" height="512" viewBox="0 0 36 36" width="512" xmlns="http://www.w3.org/2000/svg"><path d="m31.833 27.623c0-6.917 3.583-11.667 3.583-15s-1.916-10.333-17.249-10.333-17.584 9.417-17.584 13.083c0 17.167 31.25 24.5 31.25 12.25z" fill="#efefef"/><g fill="#a4afc1"><path d="m27.467 1.967h1v2h-1z" transform="matrix(.707 -.707 .707 .707 6.09 20.641)"/><path d="m31.533 6.033h1v2h-1z" transform="matrix(.707 -.707 .707 .707 4.406 24.706)"/><path d="m30.856 2.467h2v1h-2z" transform="matrix(.707 -.707 .707 .707 7.233 23.395)"/></g><path d="m10.56 9.5c-1.03 0-1.89.78-1.99 1.8l-1.6 15.75c-.12 1.18.81 2.2 1.99 2.2h9.05 9.03c1.18 0 2.11-1.02 1.99-2.2l-1.6-15.75c-.1-1.02-.96-1.8-1.99-1.8z" fill="#f3f3f1"/><path d="m22.25 11.063c0 3.551-4.25 7.188-4.25 7.188s-4.25-3.636-4.25-7.188c0-2.382 1.903-4.313 4.25-4.313s4.25 1.931 4.25 4.313z" fill="#2fdf84"/><circle cx="18" cy="11" fill="#f3f3f1" r="1.25"/><path d="m16 11.063c0-1.984 1.328-3.637 3.125-4.14-.361-.102-.733-.173-1.125-.173-2.347 0-4.25 1.931-4.25 4.313 0 3.551 4.25 7.188 4.25 7.188s.486-.419 1.125-1.102c-1.259-1.345-3.125-3.731-3.125-6.086z" fill="#00b871"/><path d="m9.22 27.05 1.6-15.75c.1-1.02.96-1.8 1.99-1.8h-2.25c-1.03 0-1.89.78-1.99 1.8l-1.6 15.75c-.12 1.18.81 2.2 1.99 2.2h2.25c-1.18 0-2.11-1.02-1.99-2.2z" fill="#d5dbe1"/><path d="m19 11c0-.19.049-.365.125-.526-.2-.425-.625-.724-1.125-.724-.69 0-1.25.56-1.25 1.25s.56 1.25 1.25 1.25c.5 0 .925-.299 1.125-.724-.076-.161-.125-.336-.125-.526z" fill="#d5dbe1"/><path d="m18 19c-.174 0-.348-.06-.487-.18-.185-.158-4.513-3.905-4.513-7.757 0-2.792 2.243-5.063 5-5.063s5 2.271 5 5.063c0 3.853-4.328 7.6-4.513 7.757-.139.12-.313.18-.487.18zm0-11.5c-1.93 0-3.5 1.598-3.5 3.563 0 2.482 2.436 5.126 3.5 6.164 1.064-1.037 3.5-3.682 3.5-6.164 0-1.965-1.57-3.563-3.5-3.563z"/><path d="m18 13c-1.103 0-2-.897-2-2s.897-2 2-2 2 .897 2 2-.897 2-2 2zm0-2.5c-.275 0-.5.224-.5.5s.225.5.5.5.5-.224.5-.5-.225-.5-.5-.5z"/><path d="m27.04 30h-18.08c-.776 0-1.521-.331-2.042-.908-.52-.576-.772-1.348-.694-2.119l1.601-15.749c.137-1.409 1.313-2.474 2.735-2.474v1.5c-.646 0-1.181.482-1.243 1.123l-1.601 15.754c-.036.354.076.695.315.96.241.266.571.413.929.413h18.08c.358 0 .688-.147.929-.413.239-.265.352-.606.315-.961l-1.601-15.751c-.063-.642-.597-1.125-1.243-1.125v-1.5c1.422 0 2.598 1.065 2.735 2.477l1.601 15.746c.078.772-.175 1.544-.694 2.12-.521.576-1.266.907-2.042.907z"/><path d="m8 19.005h6.7v1.5h-6.7z" transform="matrix(1 -.001 .001 1 -.026 .015)"/><path d="m15.45 29.485-1.232-.855 6.466-9.307c.14-.202.37-.323.615-.323l6.7-.01.002 1.5-6.309.01z"/></svg>