<svg enable-background="new 0 0 36 36" height="512" viewBox="0 0 36 36" width="512" xmlns="http://www.w3.org/2000/svg"><g id="bg"><g><path d="m27.417 3.914c-6.915.129-11.732-3.365-15.064-3.302s-10.296 2.109-10.009 17.44 9.744 17.404 13.41 17.336c17.163-.321 23.911-31.703 11.663-31.474z" fill="#efefef"/></g></g><g id="effect"><g><g><path d="m19.875 3.441h2v1h-2z" fill="#a4afc1"/></g><g><path d="m14.125 3.441h2v1h-2z" fill="#a4afc1"/></g><g><path d="m17.625-.059h1v2h-1z" fill="#a4afc1"/></g></g><g><path d="m32.5 22.75c-.827 0-1.5-.673-1.5-1.5s.673-1.5 1.5-1.5 1.5.673 1.5 1.5-.673 1.5-1.5 1.5zm0-2c-.276 0-.5.225-.5.5s.224.5.5.5.5-.225.5-.5-.224-.5-.5-.5z" fill="#a4afc1"/></g></g><g id="color"><g><path d="m28.25 29.25h-20.5c-.552 0-1-.448-1-1v-20.5c0-.552.448-1 1-1h20.5c.552 0 1 .448 1 1v20.5c0 .552-.448 1-1 1z" fill="#f3f3f1"/></g><g><path d="m25.25 23.25h-14.5c-.552 0-1-.448-1-1v-9.5c0-.552.448-1 1-1h14.5c.552 0 1 .448 1 1v9.5c0 .552-.448 1-1 1z" fill="#2fdf84"/></g><g><path d="m15.75 14.75 5.5 2.75-5.5 2.75z" fill="#f3f3f1"/></g></g><g id="shadow"><g><path d="m9 28.25v-20.5c0-.552.448-1 1-1h-2.25c-.552 0-1 .448-1 1v20.5c0 .552.448 1 1 1h2.25c-.552 0-1-.448-1-1z" fill="#d5dbe1"/></g><g><path d="m12 22.25v-9.5c0-.552.448-1 1-1h-2.25c-.552 0-1 .448-1 1v9.5c0 .552.448 1 1 1h2.25c-.552 0-1-.448-1-1z" fill="#00b871"/></g><g><path d="m18 15.875-2.25-1.125v5.5l2.25-1.125z" fill="#d5dbe1"/></g></g><g id="regular"><g><path d="m15.75 21c-.137 0-.274-.037-.395-.112-.22-.137-.355-.378-.355-.638v-5.5c0-.26.135-.501.355-.638.222-.139.497-.148.73-.033l5.5 2.75c.254.127.415.387.415.671s-.161.544-.415.671l-5.5 2.75c-.106.053-.22.079-.335.079zm.75-5.036v3.072l3.073-1.536z"/></g><g><path d="m28.25 30h-20.5c-.965 0-1.75-.785-1.75-1.75v-20.5c0-.965.785-1.75 1.75-1.75h20.5c.965 0 1.75.785 1.75 1.75v20.5c0 .965-.785 1.75-1.75 1.75zm-20.5-22.5c-.138 0-.25.112-.25.25v20.5c0 .138.112.25.25.25h20.5c.138 0 .25-.112.25-.25v-20.5c0-.138-.112-.25-.25-.25z"/></g><g><path d="m25.25 24h-14.5c-.965 0-1.75-.785-1.75-1.75v-9.5c0-.965.785-1.75 1.75-1.75h14.5c.965 0 1.75.785 1.75 1.75v9.5c0 .965-.785 1.75-1.75 1.75zm-14.5-11.5c-.138 0-.25.112-.25.25v9.5c0 .138.112.25.25.25h14.5c.138 0 .25-.112.25-.25v-9.5c0-.138-.112-.25-.25-.25z"/></g></g></svg>