<svg enable-background="new 0 0 24 24" height="512" viewBox="0 0 24 24" width="512" xmlns="http://www.w3.org/2000/svg"><path d="m4.5 6h-3c-.827 0-1.5-.673-1.5-1.5v-3c0-.827.673-1.5 1.5-1.5h3c.827 0 1.5.673 1.5 1.5v3c0 .827-.673 1.5-1.5 1.5zm-3-5c-.276 0-.5.225-.5.5v3c0 .275.224.5.5.5h3c.276 0 .5-.225.5-.5v-3c0-.275-.224-.5-.5-.5z"/><path d="m4.5 15h-3c-.827 0-1.5-.673-1.5-1.5v-3c0-.827.673-1.5 1.5-1.5h3c.827 0 1.5.673 1.5 1.5v3c0 .827-.673 1.5-1.5 1.5zm-3-5c-.276 0-.5.225-.5.5v3c0 .275.224.5.5.5h3c.276 0 .5-.225.5-.5v-3c0-.275-.224-.5-.5-.5z"/><path d="m4.5 24h-3c-.827 0-1.5-.673-1.5-1.5v-3c0-.827.673-1.5 1.5-1.5h3c.827 0 1.5.673 1.5 1.5v3c0 .827-.673 1.5-1.5 1.5zm-3-5c-.276 0-.5.225-.5.5v3c0 .275.224.5.5.5h3c.276 0 .5-.225.5-.5v-3c0-.275-.224-.5-.5-.5z"/><path d="m13.5 6h-3c-.827 0-1.5-.673-1.5-1.5v-3c0-.827.673-1.5 1.5-1.5h3c.827 0 1.5.673 1.5 1.5v3c0 .827-.673 1.5-1.5 1.5zm-3-5c-.276 0-.5.225-.5.5v3c0 .275.224.5.5.5h3c.276 0 .5-.225.5-.5v-3c0-.275-.224-.5-.5-.5z"/><path d="m13.5 15h-3c-.827 0-1.5-.673-1.5-1.5v-3c0-.827.673-1.5 1.5-1.5h3c.827 0 1.5.673 1.5 1.5v3c0 .827-.673 1.5-1.5 1.5zm-3-5c-.276 0-.5.225-.5.5v3c0 .275.224.5.5.5h3c.276 0 .5-.225.5-.5v-3c0-.275-.224-.5-.5-.5z"/><path d="m13.5 24h-3c-.827 0-1.5-.673-1.5-1.5v-3c0-.827.673-1.5 1.5-1.5h3c.827 0 1.5.673 1.5 1.5v3c0 .827-.673 1.5-1.5 1.5zm-3-5c-.276 0-.5.225-.5.5v3c0 .275.224.5.5.5h3c.276 0 .5-.225.5-.5v-3c0-.275-.224-.5-.5-.5z"/><path d="m22.5 6h-3c-.827 0-1.5-.673-1.5-1.5v-3c0-.827.673-1.5 1.5-1.5h3c.827 0 1.5.673 1.5 1.5v3c0 .827-.673 1.5-1.5 1.5zm-3-5c-.276 0-.5.225-.5.5v3c0 .275.224.5.5.5h3c.276 0 .5-.225.5-.5v-3c0-.275-.224-.5-.5-.5z"/><path d="m22.5 15h-3c-.827 0-1.5-.673-1.5-1.5v-3c0-.827.673-1.5 1.5-1.5h3c.827 0 1.5.673 1.5 1.5v3c0 .827-.673 1.5-1.5 1.5zm-3-5c-.276 0-.5.225-.5.5v3c0 .275.224.5.5.5h3c.276 0 .5-.225.5-.5v-3c0-.275-.224-.5-.5-.5z"/><path d="m22.5 24h-3c-.827 0-1.5-.673-1.5-1.5v-3c0-.827.673-1.5 1.5-1.5h3c.827 0 1.5.673 1.5 1.5v3c0 .827-.673 1.5-1.5 1.5zm-3-5c-.276 0-.5.225-.5.5v3c0 .275.224.5.5.5h3c.276 0 .5-.225.5-.5v-3c0-.275-.224-.5-.5-.5z"/></svg>