<svg id="Effect" enable-background="new 0 0 36 36" height="512" viewBox="0 0 36 36" width="512" xmlns="http://www.w3.org/2000/svg"><g><path d="m4.167 27.623c0-6.917-3.583-11.667-3.583-15s1.916-10.333 17.249-10.333 17.583 9.417 17.583 13.083c.001 17.167-31.249 24.5-31.249 12.25z" fill="#efefef"/></g><g><path d="m29.039 23.672-1.289 2.578-1.289-2.578c-.139-.278-.211-.584-.211-.894v-8.528c0-.828.672-1.5 1.5-1.5.828 0 1.5.672 1.5 1.5v8.528c0 .31-.072.617-.211.894z" fill="#2fdf84"/></g><g><path d="m21.25 9.75h-1.882-.118v1c0 .552-.448 1-1 1h-6.5c-.552 0-1-.448-1-1v-1h-.118-1.882c-1.105 0-2 .895-2 2v15.5c0 1.105.895 2 2 2h12.5c1.105 0 2-.895 2-2v-15.5c0-1.105-.895-2-2-2z" fill="#f3f3f1"/></g><g><path d="m19.25 8.75v2c0 .552-.448 1-1 1h-6.5c-.552 0-1-.448-1-1v-2h2.25c0-1.1.9-2 2-2s2 .9 2 2z" fill="#2fdf84"/></g><g><path d="m21.5 10.75v-.975c-.083-.01-.164-.025-.25-.025h-1.882-.118v1c0 .552-.448 1-1 1h2.25c.552 0 1-.448 1-1z" fill="#d5dbe1"/></g><g><path d="m9 27.25v-15.5c0-1.019.765-1.851 1.75-1.975v-.025h-.118-1.882c-1.105 0-2 .895-2 2v15.5c0 1.105.895 2 2 2h2.25c-1.105 0-2-.895-2-2z" fill="#d5dbe1"/></g><g><path d="m13 10.75v-2h-2.25v2c0 .552.448 1 1 1h2.25c-.552 0-1-.448-1-1z" fill="#00b871"/></g><g><path d="m16.125 7.1c-.321-.22-.708-.35-1.125-.35-1.1 0-2 .9-2 2h2.25c0-.683.348-1.289.875-1.65z" fill="#00b871"/></g><g><path d="m27.75 27c-.284 0-.544-.161-.671-.415l-1.289-2.578c-.189-.38-.29-.806-.29-1.23v-8.527c0-1.241 1.01-2.25 2.25-2.25s2.25 1.009 2.25 2.25v8.528c0 .424-.101.85-.29 1.229l-1.289 2.578c-.127.254-.387.415-.671.415zm0-13.5c-.413 0-.75.336-.75.75v8.528c0 .193.046.387.132.56l.618 1.236.618-1.236c.086-.173.132-.367.132-.56v-8.528c0-.414-.337-.75-.75-.75z"/></g><g><path d="m9.75 15h10.5v1.5h-10.5z"/></g><g><path d="m9.75 18h10.5v1.5h-10.5z"/></g><g><path d="m9.75 21h10.5v1.5h-10.5z"/></g><g><path d="m9.75 24h10.5v1.5h-10.5z"/></g><g><path d="m21.25 30h-12.5c-1.517 0-2.75-1.233-2.75-2.75v-15.5c0-1.517 1.233-2.75 2.75-2.75h1.883v1.5h-1.883c-.689 0-1.25.561-1.25 1.25v15.5c0 .689.561 1.25 1.25 1.25h12.5c.689 0 1.25-.561 1.25-1.25v-15.5c0-.689-.561-1.25-1.25-1.25h-1.883v-1.5h1.883c1.517 0 2.75 1.233 2.75 2.75v15.5c0 1.517-1.233 2.75-2.75 2.75z"/></g><g><path d="m18.25 12.5h-6.5c-.965 0-1.75-.785-1.75-1.75v-2c0-.414.336-.75.75-.75h1.604c.328-1.153 1.39-2 2.646-2s2.318.847 2.646 2h1.604c.414 0 .75.336.75.75v2c0 .965-.785 1.75-1.75 1.75zm-6.75-3v1.25c0 .138.112.25.25.25h6.5c.138 0 .25-.112.25-.25v-1.25h-1.5c-.414 0-.75-.336-.75-.75 0-.689-.561-1.25-1.25-1.25s-1.25.561-1.25 1.25c0 .414-.336.75-.75.75z"/></g><g><path d="m16.777 3.665h2v1h-2z" fill="#a4afc1"/></g><g><path d="m11.027 3.665h2v1h-2z" fill="#a4afc1"/></g><g><path d="m14.527.415h1v2h-1z" fill="#a4afc1"/></g><g><path d="m32.841 13.25c-.827 0-1.5-.673-1.5-1.5s.673-1.5 1.5-1.5 1.5.673 1.5 1.5-.673 1.5-1.5 1.5zm0-2c-.275 0-.5.224-.5.5s.225.5.5.5.5-.224.5-.5-.225-.5-.5-.5z" fill="#a4afc1"/></g></svg>