<svg id="_x31__x2C_5" enable-background="new 0 0 36 36" height="512" viewBox="0 0 36 36" width="512" xmlns="http://www.w3.org/2000/svg"><g><path d="m31.833 8.377c0 6.917 3.583 11.667 3.583 15s-1.916 10.333-17.249 10.333-17.584-9.417-17.584-13.083c0-17.167 31.25-24.5 31.25-12.25z" fill="#efefef"/></g><g><path d="m31.5 5c-.827 0-1.5-.673-1.5-1.5s.673-1.5 1.5-1.5 1.5.673 1.5 1.5-.673 1.5-1.5 1.5zm0-2c-.275 0-.5.225-.5.5s.225.5.5.5.5-.225.5-.5-.225-.5-.5-.5z" fill="#a4afc1"/></g><g><path d="m27.25 28.25h-18.5c-1.105 0-2-.895-2-2v-15h22.5v15c0 1.105-.895 2-2 2z" fill="#f3f3f1"/></g><g><path d="m29.25 11.25h-22.5v-1.5c0-1.105.895-2 2-2h18.5c1.105 0 2 .895 2 2z" fill="#2fdf84"/></g><g><path d="m9.25 26.25v-15h-2.5v15c0 1.105.895 2 2 2h2.5c-1.105 0-2-.895-2-2z" fill="#d5dbe1"/></g><g><path d="m11 7.75h-2.25c-1.105 0-2 .895-2 2v1.5h2.25v-1.5c0-1.105.895-2 2-2z" fill="#00b871"/></g><g><path d="m14 21h-1.5v-4.5c0-.552-.448-1-1-1s-1 .448-1 1v4.5h-1.5v-4.5c0-1.379 1.121-2.5 2.5-2.5s2.5 1.121 2.5 2.5z"/></g><g><path d="m9.75 17.5h3.5v1.5h-3.5z"/></g><g><path d="m21 20.004h6v1.5h-6z"/></g><g><path d="m22.25 26h-1.25v-1.5h1.25c1.24 0 2.25-1.01 2.25-2.25v-2.246h1.5v2.246c0 2.067-1.683 3.75-3.75 3.75z"/></g><g><path d="m27 26h-.75c-1.575 0-3.029-.922-3.796-2.405l-.345-.667 1.333-.688.344.666c.509.983 1.452 1.595 2.464 1.595h.75z"/></g><g><path d="m23.25 18.75h1.5v2.504h-1.5z"/></g><g><path d="m10.575 19.25h14.849v1.5h-14.849z" transform="matrix(.707 -.707 .707 .707 -8.87 18.586)"/></g><g><path d="m27.25 29h-18.5c-1.517 0-2.75-1.233-2.75-2.75v-16.5c0-1.517 1.233-2.75 2.75-2.75h18.5c1.517 0 2.75 1.233 2.75 2.75v16.5c0 1.517-1.233 2.75-2.75 2.75zm-18.5-20.5c-.689 0-1.25.561-1.25 1.25v16.5c0 .689.561 1.25 1.25 1.25h18.5c.689 0 1.25-.561 1.25-1.25v-16.5c0-.689-.561-1.25-1.25-1.25z"/></g><g><path d="m6.75 10.5h22.5v1.5h-22.5z"/></g><g><path d="m2 27.5h32v1.5h-32z"/></g></svg>