<svg id="_x31__x2C_5" enable-background="new 0 0 36 36" height="512" viewBox="0 0 36 36" width="512" xmlns="http://www.w3.org/2000/svg"><g><path d="m31.833 27.623c0-6.917 3.583-11.667 3.583-15s-1.916-10.333-17.249-10.333-17.584 9.417-17.584 13.083c0 17.167 31.25 24.5 31.25 12.25z" fill="#efefef"/></g><g><path d="m28.467 1.967h1v2h-1z" fill="#a4afc1" transform="matrix(.707 -.707 .707 .707 6.386 21.352)"/></g><g><path d="m32.533 6.033h1v2h-1z" fill="#a4afc1" transform="matrix(.707 -.707 .707 .707 4.702 25.418)"/></g><g><path d="m31.856 2.467h2v1h-2z" fill="#a4afc1" transform="matrix(.707 -.707 .707 .707 7.525 24.102)"/></g><g><path d="m27.25 28.25h-18.5c-1.105 0-2-.895-2-2v-15h22.5v15c0 1.105-.895 2-2 2z" fill="#f3f3f1"/></g><g><path d="m29.25 11.25h-22.5v-1.5c0-1.105.895-2 2-2h18.5c1.105 0 2 .895 2 2z" fill="#2fdf84"/></g><g><circle cx="17.483" cy="19.517" fill="#2fdf84" r="4.75"/></g><g><path d="m9.25 26.25v-15h-2.5v15c0 1.105.895 2 2 2h2.5c-1.105 0-2-.895-2-2z" fill="#d5dbe1"/></g><g><path d="m11 7.75h-2.25c-1.105 0-2 .895-2 2v1.5h2.25v-1.5c0-1.105.895-2 2-2z" fill="#00b871"/></g><g><path d="m14.983 19.517c0-2.234 1.547-4.094 3.625-4.601-.362-.088-.735-.149-1.125-.149-2.623 0-4.75 2.127-4.75 4.75s2.127 4.75 4.75 4.75c.39 0 .763-.06 1.125-.149-2.077-.507-3.625-2.367-3.625-4.601z" fill="#00b871"/></g><g><path d="m17.483 25.017c-3.033 0-5.5-2.467-5.5-5.5s2.467-5.5 5.5-5.5 5.5 2.467 5.5 5.5-2.467 5.5-5.5 5.5zm0-9.5c-2.206 0-4 1.794-4 4s1.794 4 4 4 4-1.794 4-4-1.795-4-4-4z"/></g><g><path d="m21.909 22.351h1.5v4.548h-1.5z" transform="matrix(.707 -.707 .707 .707 -10.776 23.237)"/></g><g><path d="m27.25 29h-18.5c-1.517 0-2.75-1.233-2.75-2.75v-16.5c0-1.517 1.233-2.75 2.75-2.75h18.5c1.517 0 2.75 1.233 2.75 2.75v16.5c0 1.517-1.233 2.75-2.75 2.75zm-18.5-20.5c-.689 0-1.25.561-1.25 1.25v16.5c0 .689.561 1.25 1.25 1.25h18.5c.689 0 1.25-.561 1.25-1.25v-16.5c0-.689-.561-1.25-1.25-1.25z"/></g><g><path d="m6.75 10.5h22.5v1.5h-22.5z"/></g><g><path d="m2 27.5h32v1.5h-32z"/></g></svg>