<svg id="_x31__x2C_5" enable-background="new 0 0 36 36" height="512" viewBox="0 0 36 36" width="512" xmlns="http://www.w3.org/2000/svg"><g><path d="m8.377 4.167c6.917 0 11.667-3.583 15-3.583s10.333 1.916 10.333 17.249-9.417 17.583-13.083 17.583c-17.167.001-24.5-31.249-12.25-31.249z" fill="#efefef"/></g><g><path d="m32.5 6c-.827 0-1.5-.673-1.5-1.5s.673-1.5 1.5-1.5 1.5.673 1.5 1.5-.673 1.5-1.5 1.5zm0-2c-.275 0-.5.225-.5.5s.225.5.5.5.5-.225.5-.5-.225-.5-.5-.5z" fill="#a4afc1"/></g><g><path d="m27.25 28.25h-18.5c-1.105 0-2-.895-2-2v-15h22.5v15c0 1.105-.895 2-2 2z" fill="#f3f3f1"/></g><g><path d="m29.25 11.25h-22.5v-1.5c0-1.105.895-2 2-2h18.5c1.105 0 2 .895 2 2z" fill="#2fdf84"/></g><g><ellipse cx="13.5" cy="24" fill="#2fdf84" rx="1.768" ry="1.224" transform="matrix(.98 -.198 .198 .98 -4.481 3.145)"/></g><g><ellipse cx="20.5" cy="23" fill="#2fdf84" rx="1.768" ry="1.224" transform="matrix(.98 -.198 .198 .98 -4.145 4.51)"/></g><g><path d="m14.035 24.42c-.147-.5.186-1.037.779-1.365-.399-.282-1.02-.389-1.658-.232-.947.232-1.561.947-1.371 1.597s1.113.989 2.06.756c.218-.053.415-.135.592-.232-.194-.136-.34-.311-.402-.524z" fill="#00b871"/></g><g><path d="m21.035 23.42c-.147-.5.186-1.037.779-1.365-.399-.282-1.02-.389-1.658-.232-.947.232-1.561.947-1.371 1.597s1.113.989 2.06.756c.218-.053.415-.135.592-.232-.194-.136-.34-.311-.402-.524z" fill="#00b871"/></g><g><path d="m9.25 26.25v-15h-2.5v15c0 1.105.895 2 2 2h2.5c-1.105 0-2-.895-2-2z" fill="#d5dbe1"/></g><g><path d="m11 7.75h-2.25c-1.105 0-2 .895-2 2v1.5h2.25v-1.5c0-1.105.895-2 2-2z" fill="#00b871"/></g><g><path d="m13.246 26.001c-1.044 0-1.935-.527-2.182-1.369-.127-.438-.063-.91.18-1.332.334-.577.965-1.017 1.732-1.205 1.354-.331 2.652.229 2.959 1.273v.001c.127.437.063.909-.18 1.331-.334.577-.965 1.017-1.732 1.205-.263.065-.525.096-.777.096zm.51-2.502c-.13 0-.271.016-.422.053-.433.106-.696.335-.79.498-.026.045-.055.11-.04.161.05.172.532.394 1.162.237.433-.106.696-.335.79-.498.026-.045.055-.109.04-.16-.039-.131-.326-.291-.74-.291z"/></g><g><path d="m20.246 25.001c-1.044 0-1.935-.527-2.182-1.369-.127-.438-.063-.91.18-1.332.334-.577.965-1.017 1.732-1.205 1.356-.331 2.652.229 2.959 1.273v.001c.127.437.063.909-.18 1.331-.334.577-.965 1.017-1.732 1.205-.263.065-.525.096-.777.096zm.51-2.502c-.13 0-.271.016-.422.053-.433.106-.696.335-.79.498-.026.045-.055.11-.04.161.05.172.534.394 1.162.237.433-.106.696-.335.79-.498.026-.045.055-.109.04-.16-.039-.131-.326-.291-.74-.291z"/></g><g><path d="m16 23.495h-1.5v-6.745c0-.373.274-.689.644-.742l7-1c.222-.027.435.033.598.176.163.142.258.348.258.566v7h-1.5v-6.135l-5.5.785z"/></g><g><path d="m27.25 29h-18.5c-1.517 0-2.75-1.233-2.75-2.75v-16.5c0-1.517 1.233-2.75 2.75-2.75h18.5c1.517 0 2.75 1.233 2.75 2.75v16.5c0 1.517-1.233 2.75-2.75 2.75zm-18.5-20.5c-.689 0-1.25.561-1.25 1.25v16.5c0 .689.561 1.25 1.25 1.25h18.5c.689 0 1.25-.561 1.25-1.25v-16.5c0-.689-.561-1.25-1.25-1.25z"/></g><g><path d="m6.75 10.5h22.5v1.5h-22.5z"/></g><g><path d="m2 27.5h32v1.5h-32z"/></g></svg>