<svg enable-background="new 0 0 36 36" height="512" viewBox="0 0 36 36" width="512" xmlns="http://www.w3.org/2000/svg"><g id="BG"><g><path d="m27.417 3.914c-6.915.129-11.732-3.365-15.064-3.302s-10.296 2.109-10.009 17.44 9.744 17.404 13.41 17.336c17.163-.321 23.911-31.703 11.663-31.474z" fill="#efefef"/></g></g><g id="Effect"><g><g><path d="m32.294 4.425h1.001v2h-1.001z" fill="#a4afc1" transform="matrix(.603 -.798 .798 .603 8.705 28.329)"/></g><g><path d="m27.705.961h1.001v2h-1.001z" fill="#a4afc1" transform="matrix(.603 -.798 .798 .603 9.646 23.29)"/></g><g><path d="m31.407.874h2v.999h-2z" fill="#a4afc1" transform="matrix(.602 -.799 .799 .602 11.8 26.423)"/></g></g><g><path d="m30 28.75c-.827 0-1.5-.673-1.5-1.5s.673-1.5 1.5-1.5 1.5.673 1.5 1.5-.673 1.5-1.5 1.5zm0-2c-.276 0-.5.225-.5.5s.224.5.5.5.5-.225.5-.5-.224-.5-.5-.5z" fill="#a4afc1"/></g></g><g id="color_1_"><g><path d="m30 8.75v13.5c0 1.52-1.23 2.75-2.75 2.75h-11.44l-.84.84-3.94 3.94c-.14.14-.33.22-.53.22-.1 0-.19-.02-.29-.06-.28-.11-.46-.39-.46-.69v-4.25h-1c-.52 0-1.01-.15-1.42-.39-.8-.49-1.33-1.36-1.33-2.36v-13.5c0-1.62 1.58-2.75 3-2.75h18.25c1.52 0 2.75 1.23 2.75 2.75z" fill="#f3f3f1"/></g><g><path d="m12.5 25h-1c-.52 0-1.01-.15-1.42-.39-.8-.49-1.33-1.36-1.33-2.36v-13.5c0-1.62 1.58-2.75 3-2.75h-2.75c-1.42 0-3 1.13-3 2.75v13.5c0 1 .53 1.87 1.33 2.36.41.24.9.39 1.42.39h1v4.25c0 .3.18.58.46.69.1.04.19.06.29.06.2 0 .39-.08.53-.22l1.47-1.47z" fill="#d5dbe1"/></g><g><circle cx="11" cy="11" fill="#2fdf84" r="2"/></g><g><path d="m22.74 11.68c-.68-.68-1.8-.68-2.48 0l-4.76 4.76-1.26-1.26c-.68-.68-1.8-.68-2.48 0l-5.76 5.76v1.31c0 1 .53 1.87 1.33 2.36.41.24.9.39 1.42.39h1v1.13 3.12c0 .3.18.58.46.69.1.04.19.06.29.06.2 0 .39-.08.53-.22l3.94-3.94.84-.84h8.25 3.19c1.52 0 2.75-1.23 2.75-2.75v-3.31z" fill="#2fdf84"/></g><g><g><path d="m8.5 24.25v-.941c0-.236.094-.463.261-.63l4.869-4.869c1.028-1.028 2.711-1.028 3.74 0 .348.348.912.348 1.26 0l4.13-4.13c.404-.404.964-.562 1.494-.486l-.884-.884c-1.028-1.028-2.711-1.028-3.74 0l-3.5 3.5c-.348.348-.533 1.132-.881.784l-.379-.784c-1.028-1.028-2.711-1.028-3.74 0l-4.869 4.869c-.167.167-.261.394-.261.63v.941c0 1 .53 1.87 1.33 2.36.369.216.807.342 1.268.369-.063-.232-.098-.476-.098-.729z" fill="#00b871"/></g><g><path d="m12.25 28.13v-1.13h-1c-.52 0-1.01-.15-1.42-.39-.029-.018-.051-.045-.08-.064v2.704c0 .3.18.58.46.69.1.04.19.06.29.06.2 0 .39-.08.53-.22l1.22-1.22z" fill="#00b871"/></g></g></g><g id="regular_1.5"><g><path d="m10.507 30c-.097 0-.194-.019-.287-.057-.28-.116-.463-.39-.463-.693v-4.25h-1c-1.517 0-2.75-1.233-2.75-2.75v-13.5c0-1.621 1.581-2.75 3-2.75h18.25c1.517 0 2.75 1.233 2.75 2.75v13.5c0 1.517-1.233 2.75-2.75 2.75h-11.44l-4.78 4.78c-.143.144-.335.22-.53.22zm-1.5-22.5c-.743 0-1.5.631-1.5 1.25v13.5c0 .689.561 1.25 1.25 1.25h1.75c.414 0 .75.336.75.75v3.189l3.72-3.72c.141-.141.332-.22.53-.22h11.75c.689 0 1.25-.561 1.25-1.25v-13.499c0-.689-.561-1.25-1.25-1.25z"/></g><g><path d="m11.007 13c-1.103 0-2-.897-2-2s.897-2 2-2 2 .897 2 2-.897 2-2 2zm0-2.5c-.276 0-.5.225-.5.5s.224.5.5.5.5-.225.5-.5-.224-.5-.5-.5z"/></g><g><path d="m7.267 21.8-1.061-1.061 5.56-5.56c.685-.684 1.797-.684 2.48 0l1.26 1.26 4.76-4.76c.685-.684 1.797-.684 2.48 0l7.04 7.04-1.061 1.061-7.04-7.04c-.098-.098-.261-.098-.36 0l-5.29 5.29c-.293.293-.768.293-1.061 0l-1.79-1.79c-.098-.098-.261-.098-.36 0z"/></g></g></svg>