<svg enable-background="new 0 0 36 36" height="512" viewBox="0 0 36 36" width="512" xmlns="http://www.w3.org/2000/svg"><g id="BG"><g><path d="m13.411 34.999c6.298-2.859 12.105-1.559 15.14-2.936 3.035-1.378 8.617-6.016 2.28-19.978s-15.841-12.12-19.18-10.605c-15.632 7.095-9.395 38.582 1.76 33.519z" fill="#efefef"/></g></g><g id="effect"><g><g><path d="m3.805 25.595h1v2h-1z" fill="#a4afc1" transform="matrix(.707 -.707 .707 .707 -17.545 10.834)"/></g><g><path d="m7.871 29.661h1v2h-1z" fill="#a4afc1" transform="matrix(.707 -.707 .707 .707 -19.229 14.9)"/></g><g><path d="m3.128 30.161h2v1h-2z" fill="#a4afc1" transform="matrix(.707 -.707 .707 .707 -20.472 11.9)"/></g></g><g><path d="m30 6.5c-.827 0-1.5-.673-1.5-1.5s.673-1.5 1.5-1.5 1.5.673 1.5 1.5-.673 1.5-1.5 1.5zm0-2c-.276 0-.5.224-.5.5s.224.5.5.5.5-.224.5-.5-.224-.5-.5-.5z" fill="#a4afc1"/></g></g><g id="color"><g><path d="m13.424 20.74 4.576 2.69 4.576-2.69v-5.38l-4.576-2.69-4.576 2.69z" fill="#2fdf84"/></g><g><path d="m15.424 21.74v-5.38l4.427-2.603-1.851-1.087-4.576 2.69v5.38l4.576 2.69.149-.087z" fill="#00b871"/></g></g><g id="_x31_.5"><g><path d="m17.25 6.8h1.5v5.87h-1.5z"/></g><g><path d="m18 10.485c-.176 0-.352-.062-.493-.185l-3.363-2.935.986-1.13 2.87 2.504 2.87-2.504.986 1.13-3.363 2.935c-.141.123-.317.185-.493.185z"/></g><g><path d="m17.25 23.431h1.5v5.869h-1.5z"/></g><g><path d="m20.87 29.865-2.87-2.504-2.87 2.504-.986-1.13 3.363-2.935c.282-.247.704-.247.986 0l3.363 2.935z"/></g><g><path d="m10.178 10.997h1.5v5.791h-1.5z" transform="matrix(.507 -.862 .862 .507 -6.587 16.272)"/></g><g><path d="m7.003 16.096-.506-1.412 3.578-1.283-.7-3.806 1.476-.271.815 4.433c.066.361-.139.718-.485.842z"/></g><g><path d="m24.323 19.312h1.5v5.791h-1.5z" transform="matrix(.507 -.862 .862 .507 -6.778 32.57)"/></g><g><path d="m25.149 26.776-.815-4.433c-.066-.361.139-.718.485-.842l4.178-1.498.506 1.412-3.578 1.283.7 3.806z"/></g><g><path d="m8.032 21.458h5.791v1.5h-5.791z" transform="matrix(.862 -.507 .507 .862 -9.745 8.597)"/></g><g><path d="m10.851 26.776-1.476-.271.7-3.806-3.578-1.283.506-1.412 4.178 1.498c.346.124.551.48.485.842z"/></g><g><path d="m22.177 13.142h5.791v1.5h-5.791z" transform="matrix(.862 -.507 .507 .862 -3.582 14.617)"/></g><g><path d="m28.997 16.096-4.178-1.498c-.346-.124-.551-.48-.485-.842l.815-4.433 1.476.271-.7 3.806 3.578 1.283z"/></g><g><path d="m18 24.181c-.131 0-.263-.035-.38-.104l-4.576-2.69c-.229-.135-.37-.381-.37-.646v-5.38c0-.266.141-.512.37-.646l4.576-2.69c.234-.138.525-.138.76 0l4.576 2.69c.229.135.37.381.37.646v5.38c0 .266-.141.512-.37.646l-4.576 2.69c-.117.069-.249.104-.38.104zm-3.826-3.87 3.826 2.25 3.826-2.25v-4.522l-3.826-2.249-3.826 2.25z"/></g></g></svg>