<?xml version="1.0" encoding="UTF-8" standalone="no"?>
<svg
   xmlns:dc="http://purl.org/dc/elements/1.1/"
   xmlns:cc="http://creativecommons.org/ns#"
   xmlns:rdf="http://www.w3.org/1999/02/22-rdf-syntax-ns#"
   xmlns:svg="http://www.w3.org/2000/svg"
   xmlns="http://www.w3.org/2000/svg"
   xmlns:sodipodi="http://sodipodi.sourceforge.net/DTD/sodipodi-0.dtd"
   xmlns:inkscape="http://www.inkscape.org/namespaces/inkscape"
   version="1.1"
   id="Layer_1"
   x="0px"
   y="0px"
   viewBox="0 0 122.88 95.95"
   style="enable-background:new 0 0 122.88 95.95"
   xml:space="preserve"
   sodipodi:docname="lines.svg"
   inkscape:version="1.0.1 (3bc2e813f5, 2020-09-07)"><metadata
     id="metadata13"><rdf:RDF><cc:Work
         rdf:about=""><dc:format>image/svg+xml</dc:format><dc:type
           rdf:resource="http://purl.org/dc/dcmitype/StillImage" /></cc:Work></rdf:RDF></metadata><defs
     id="defs11" /><sodipodi:namedview
     pagecolor="#ffffff"
     bordercolor="#666666"
     borderopacity="1"
     objecttolerance="10"
     gridtolerance="10"
     guidetolerance="10"
     inkscape:pageopacity="0"
     inkscape:pageshadow="2"
     inkscape:window-width="1634"
     inkscape:window-height="933"
     id="namedview9"
     showgrid="false"
     inkscape:zoom="8.327254"
     inkscape:cx="60.599385"
     inkscape:cy="52.778503"
     inkscape:window-x="0"
     inkscape:window-y="31"
     inkscape:window-maximized="0"
     inkscape:current-layer="Layer_1" /><style
     type="text/css"
     id="style2">.st0{fill-rule:evenodd;clip-rule:evenodd;}</style><g
     id="g6"
     style="fill:#ffffff"><path
       class="st0"
       d="M8.94,0h105c4.92,0,8.94,4.02,8.94,8.94l0,0c0,4.92-4.02,8.94-8.94,8.94h-105C4.02,17.88,0,13.86,0,8.94l0,0 C0,4.02,4.02,0,8.94,0L8.94,0z M8.94,78.07h105c4.92,0,8.94,4.02,8.94,8.94l0,0c0,4.92-4.02,8.94-8.94,8.94h-105 C4.02,95.95,0,91.93,0,87.01l0,0C0,82.09,4.02,78.07,8.94,78.07L8.94,78.07z M8.94,39.03h105c4.92,0,8.94,4.02,8.94,8.94l0,0 c0,4.92-4.02,8.94-8.94,8.94h-105C4.02,56.91,0,52.89,0,47.97l0,0C0,43.06,4.02,39.03,8.94,39.03L8.94,39.03z"
       id="path4"
       style="fill:#ffffff" /></g></svg>
