<?xml version="1.0" encoding="UTF-8" standalone="no"?>
<svg
   xmlns:dc="http://purl.org/dc/elements/1.1/"
   xmlns:cc="http://creativecommons.org/ns#"
   xmlns:rdf="http://www.w3.org/1999/02/22-rdf-syntax-ns#"
   xmlns:svg="http://www.w3.org/2000/svg"
   xmlns="http://www.w3.org/2000/svg"
   xmlns:sodipodi="http://sodipodi.sourceforge.net/DTD/sodipodi-0.dtd"
   xmlns:inkscape="http://www.inkscape.org/namespaces/inkscape"
   width="80"
   height="121.404"
   viewBox="0 0 80 121.404"
   fill="none"
   version="1.1"
   id="svg64"
   sodipodi:docname="notice.svg"
   inkscape:version="1.0.1 (3bc2e813f5, 2020-09-07)">
  <metadata
     id="metadata70">
    <rdf:RDF>
      <cc:Work
         rdf:about="">
        <dc:format>image/svg+xml</dc:format>
        <dc:type
           rdf:resource="http://purl.org/dc/dcmitype/StillImage" />
      </cc:Work>
    </rdf:RDF>
  </metadata>
  <defs
     id="defs68" />
  <sodipodi:namedview
     pagecolor="#ffffff"
     bordercolor="#666666"
     borderopacity="1"
     objecttolerance="10"
     gridtolerance="10"
     guidetolerance="10"
     inkscape:pageopacity="0"
     inkscape:pageshadow="2"
     inkscape:window-width="1662"
     inkscape:window-height="1022"
     id="namedview66"
     showgrid="false"
     inkscape:zoom="3.2745902"
     inkscape:cx="1.630735"
     inkscape:cy="71.732339"
     inkscape:window-x="0"
     inkscape:window-y="31"
     inkscape:window-maximized="0"
     inkscape:current-layer="svg64" />
  <rect
     x="1"
     y="1"
     width="78"
     height="119.404"
     fill="#ffffff"
     stroke="#930000"
     stroke-width="2"
     id="rect2" />
  <rect
     x="0"
     width="80"
     height="80"
     fill="#930000"
     id="rect4"
     y="0" />
  <path
     d="m 27.7552,88.8123 h 4.836 c 0.7887,0 1.4214,0.2123 1.898,0.637 0.4854,0.4246 0.728,0.9836 0.728,1.677 v 0.91 c 0,0.4506 -0.13,0.845 -0.39,1.183 -0.2513,0.3293 -0.6196,0.5806 -1.105,0.754 v 0.026 c 0.2774,0.182 0.4854,0.39 0.624,0.624 0.1474,0.234 0.2904,0.559 0.429,0.975 l 0.728,2.314 h -1.859 l -0.689,-2.158 c -0.1126,-0.3727 -0.2686,-0.65 -0.468,-0.832 -0.1993,-0.182 -0.4463,-0.273 -0.741,-0.273 h -2.197 v 3.263 h -1.794 z m 4.498,4.29 c 0.364,0 0.65,-0.0954 0.858,-0.286 0.208,-0.1994 0.312,-0.455 0.312,-0.767 v -0.845 c 0,-0.2514 -0.078,-0.4507 -0.234,-0.598 -0.156,-0.156 -0.364,-0.234 -0.624,-0.234 h -3.016 v 2.73 z m 5.5736,4.81 c -0.3727,0 -0.676,-0.1127 -0.91,-0.338 -0.234,-0.2254 -0.351,-0.52 -0.351,-0.884 v -7.878 h 6.942 v 1.56 h -5.148 v 2.106 h 4.758 v 1.56 h -4.758 v 2.314 h 5.148 v 1.56 z m 8.1631,0 c -0.3727,0 -0.676,-0.1127 -0.91,-0.338 -0.234,-0.2254 -0.351,-0.52 -0.351,-0.884 v -7.878 h 4.342 c 0.6933,0 1.3,0.13 1.82,0.39 0.5286,0.26 0.936,0.6283 1.222,1.105 0.2946,0.4766 0.442,1.027 0.442,1.651 v 2.548 c 0,1.118 -0.2904,1.9673 -0.871,2.548 -0.5807,0.572 -1.4344,0.858 -2.561,0.858 z m 3.081,-1.586 c 0.5546,0 0.975,-0.1604 1.261,-0.481 0.286,-0.3207 0.429,-0.793 0.429,-1.417 v -2.392 c 0,-0.494 -0.1604,-0.8884 -0.481,-1.183 -0.3207,-0.3034 -0.741,-0.455 -1.261,-0.455 h -2.496 v 5.928 z m -31.7576,8.4857 h 1.599 l 4.368,6.188 v -6.188 h 1.755 v 9.1 h -1.599 l -4.368,-6.188 v 6.188 h -1.755 z m 12.5421,9.204 c -0.6847,0 -1.2913,-0.143 -1.82,-0.429 -0.52,-0.294 -0.9273,-0.702 -1.222,-1.222 -0.286,-0.528 -0.429,-1.139 -0.429,-1.833 v -2.34 c 0,-0.693 0.143,-1.3 0.429,-1.82 0.2947,-0.528 0.702,-0.936 1.222,-1.222 0.5287,-0.294 1.1353,-0.442 1.82,-0.442 h 1.378 c 0.6847,0 1.287,0.148 1.807,0.442 0.5287,0.286 0.936,0.694 1.222,1.222 0.2947,0.52 0.442,1.127 0.442,1.82 v 2.34 c 0,0.694 -0.1473,1.305 -0.442,1.833 -0.286,0.52 -0.6933,0.928 -1.222,1.222 -0.52,0.286 -1.1223,0.429 -1.807,0.429 z m 1.378,-1.586 c 0.5027,0 0.9057,-0.182 1.209,-0.546 0.312,-0.364 0.468,-0.84 0.468,-1.43 v -2.184 c 0,-0.589 -0.156,-1.066 -0.468,-1.43 -0.3033,-0.364 -0.7063,-0.546 -1.209,-0.546 h -1.378 c -0.5027,0 -0.91,0.182 -1.222,0.546 -0.3033,0.364 -0.455,0.841 -0.455,1.43 v 2.184 c 0,0.59 0.1517,1.066 0.455,1.43 0.312,0.364 0.7193,0.546 1.222,0.546 z m 6.6353,-6.058 h -2.886 v -1.56 h 7.566 v 1.56 h -2.886 v 7.54 h -1.794 z m 5.7778,-1.56 h 1.794 v 9.1 h -1.794 z m 6.6329,9.204 c -0.6673,0 -1.2567,-0.143 -1.768,-0.429 -0.5027,-0.286 -0.8927,-0.689 -1.17,-1.209 -0.2773,-0.528 -0.416,-1.135 -0.416,-1.82 v -2.392 c 0,-0.684 0.1387,-1.287 0.416,-1.807 0.286,-0.528 0.6847,-0.936 1.196,-1.222 0.52,-0.286 1.118,-0.429 1.794,-0.429 h 1.378 c 0.65,0 1.222,0.139 1.716,0.416 0.494,0.278 0.8753,0.668 1.144,1.17 0.2773,0.494 0.416,1.071 0.416,1.729 h -1.768 c 0,-0.52 -0.1387,-0.936 -0.416,-1.248 -0.2773,-0.32 -0.6413,-0.481 -1.092,-0.481 h -1.378 c -0.4853,0 -0.8753,0.182 -1.17,0.546 -0.2947,0.356 -0.442,0.824 -0.442,1.404 v 2.236 c 0,0.581 0.143,1.053 0.429,1.417 0.286,0.356 0.663,0.533 1.131,0.533 h 1.404 c 0.4593,0 0.832,-0.177 1.118,-0.533 0.2947,-0.355 0.442,-0.823 0.442,-1.404 h 1.768 c 0,0.702 -0.1387,1.322 -0.416,1.859 -0.2773,0.529 -0.6673,0.941 -1.17,1.235 -0.5027,0.286 -1.0833,0.429 -1.742,0.429 z m 7.1172,-0.104 c -0.3727,0 -0.676,-0.112 -0.91,-0.338 -0.234,-0.225 -0.351,-0.52 -0.351,-0.884 v -7.878 h 6.942 v 1.56 h -5.148 v 2.106 h 4.758 v 1.56 h -4.758 v 2.314 h 5.148 v 1.56 z"
     fill="#930000"
     id="path6" />
  <path
     d="m 3.6316,65.6 h 1.656 V 74 h -1.656 z m 3.2667,0 h 1.476 l 4.032,5.712 V 65.6 h 1.62 V 74 h -1.476 L 8.5183,68.288 V 74 h -1.62 z m 9.7773,8.4 c -0.344,0 -0.624,-0.104 -0.84,-0.312 -0.216,-0.208 -0.324,-0.48 -0.324,-0.816 V 65.6 h 6.408 v 1.44 h -4.752 v 1.944 h 4.392 v 1.44 h -4.392 v 2.136 h 4.752 V 74 Z m 6.3711,-8.4 h 4.464 c 0.728,0 1.312,0.196 1.752,0.588 0.448,0.392 0.672,0.908 0.672,1.548 v 0.84 c 0,0.416 -0.12,0.78 -0.36,1.092 -0.232,0.304 -0.572,0.536 -1.02,0.696 v 0.024 c 0.256,0.168 0.448,0.36 0.576,0.576 0.136,0.216 0.268,0.516 0.396,0.9 L 30.1987,74 h -1.716 l -0.636,-1.992 c -0.104,-0.344 -0.248,-0.6 -0.432,-0.768 -0.184,-0.168 -0.412,-0.252 -0.684,-0.252 h -2.028 V 74 h -1.656 z m 4.152,3.96 c 0.336,0 0.6,-0.088 0.792,-0.264 0.192,-0.184 0.288,-0.42 0.288,-0.708 v -0.78 c 0,-0.232 -0.072,-0.416 -0.216,-0.552 -0.144,-0.144 -0.336,-0.216 -0.576,-0.216 h -2.784 v 2.52 z m 6.79,4.536 c -0.616,0 -1.16,-0.132 -1.632,-0.396 -0.464,-0.264 -0.824,-0.636 -1.08,-1.116 -0.256,-0.488 -0.384,-1.048 -0.384,-1.68 v -2.208 c 0,-0.632 0.128,-1.188 0.384,-1.668 0.264,-0.488 0.632,-0.864 1.104,-1.128 0.48,-0.264 1.032,-0.396 1.656,-0.396 h 1.272 c 0.6,0 1.128,0.128 1.584,0.384 0.456,0.256 0.808,0.616 1.056,1.08 0.256,0.456 0.384,0.988 0.384,1.596 h -1.632 c 0,-0.48 -0.128,-0.864 -0.384,-1.152 -0.256,-0.296 -0.592,-0.444 -1.008,-0.444 h -1.272 c -0.448,0 -0.808,0.168 -1.08,0.504 -0.272,0.328 -0.408,0.76 -0.408,1.296 v 2.064 c 0,0.536 0.132,0.972 0.396,1.308 0.264,0.328 0.612,0.492 1.044,0.492 h 1.296 c 0.424,0 0.768,-0.164 1.032,-0.492 0.272,-0.328 0.408,-0.76 0.408,-1.296 h 1.632 c 0,0.648 -0.128,1.22 -0.384,1.716 -0.256,0.488 -0.616,0.868 -1.08,1.14 -0.464,0.264 -1,0.396 -1.608,0.396 z M 44.08,72.044 H 40.936 L 40.192,74 h -1.728 l 3.288,-8.4 h 0.744 c 0.52,0 0.872,0.24 1.056,0.72 L 46.54,74 h -1.728 z m -2.7,-1.392 h 2.256 L 42.52,67.628 h -0.012 z m 6.8167,-3.612 h -2.664 V 65.6 h 6.984 v 1.44 h -2.664 V 74 h -1.656 z M 53.41,65.6 h 4.428 c 0.488,0 0.92,0.096 1.296,0.288 0.376,0.184 0.668,0.452 0.876,0.804 0.208,0.344 0.312,0.74 0.312,1.188 v 1.116 c 0,0.464 -0.108,0.876 -0.324,1.236 -0.216,0.352 -0.52,0.628 -0.912,0.828 -0.384,0.192 -0.832,0.288 -1.344,0.288 H 55.066 V 74 H 53.41 Z m 4.308,4.308 c 0.28,0 0.508,-0.088 0.684,-0.264 0.176,-0.184 0.264,-0.424 0.264,-0.72 v -0.972 c 0,-0.28 -0.08,-0.5 -0.24,-0.66 C 58.274,67.124 58.07,67.04 57.814,67.04 h -2.748 v 2.868 z m 6.4841,4.188 c -0.632,0 -1.192,-0.132 -1.68,-0.396 -0.48,-0.272 -0.856,-0.648 -1.128,-1.128 -0.264,-0.488 -0.396,-1.052 -0.396,-1.692 v -2.16 c 0,-0.64 0.132,-1.2 0.396,-1.68 0.272,-0.488 0.648,-0.864 1.128,-1.128 0.488,-0.272 1.048,-0.408 1.68,-0.408 h 1.272 c 0.632,0 1.188,0.136 1.668,0.408 0.488,0.264 0.864,0.64 1.128,1.128 0.272,0.48 0.408,1.04 0.408,1.68 v 2.16 c 0,0.64 -0.136,1.204 -0.408,1.692 -0.264,0.48 -0.64,0.856 -1.128,1.128 -0.48,0.264 -1.036,0.396 -1.668,0.396 z m 1.272,-1.464 c 0.464,0 0.836,-0.168 1.116,-0.504 0.288,-0.336 0.432,-0.776 0.432,-1.32 v -2.016 c 0,-0.544 -0.144,-0.984 -0.432,-1.32 -0.28,-0.336 -0.652,-0.504 -1.116,-0.504 h -1.272 c -0.464,0 -0.84,0.168 -1.128,0.504 -0.28,0.336 -0.42,0.776 -0.42,1.32 v 2.016 c 0,0.544 0.14,0.984 0.42,1.32 0.288,0.336 0.664,0.504 1.128,0.504 z M 71.0857,74 c -0.352,0 -0.636,-0.1 -0.852,-0.3 -0.208,-0.208 -0.312,-0.48 -0.312,-0.816 V 65.6 h 1.656 v 6.96 h 4.56 V 74 Z"
     fill="#ffffff"
     id="path8" />
  <path
     d="m 28.7792,48.856 0.5429,0.2062 -0.7676,2.1771 -0.5429,-0.2061 z"
     fill="#ffffff"
     id="path10" />
  <path
     d="m 30.002,49.3537 0.6114,0.2158 0.279,1.7779 0.493,-1.5054 0.519,0.1832 -0.7189,2.1949 -0.6114,-0.2158 -0.2789,-1.7779 -0.4931,1.5054 -0.5189,-0.1832 z"
     fill="#ffffff"
     id="path12" />
  <path
     d="m 32.2417,50.1332 1.9993,0.5422 -0.1098,0.4373 -0.7192,-0.1951 -0.4534,1.8062 -0.5594,-0.1517 0.4534,-1.8062 -0.7206,-0.1954 z"
     fill="#ffffff"
     id="path14" />
  <path
     d="m 34.5899,50.748 1.5335,0.2983 -0.0797,0.4442 -0.9652,-0.1877 -0.0762,0.4244 0.9077,0.1765 -0.0797,0.4443 -0.9076,-0.1766 -0.0937,0.5222 0.9977,0.194 -0.0797,0.4443 -1.5659,-0.3046 z"
     fill="#ffffff"
     id="path16" />
  <path
     d="m 37.4075,52.2512 c 0.1205,0.0132 0.2089,-6e-4 0.2653,-0.0413 0.0574,-0.0405 0.0913,-0.1139 0.1019,-0.2199 0.0105,-0.1051 -0.0084,-0.1832 -0.0566,-0.2342 -0.0473,-0.051 -0.1311,-0.0831 -0.2516,-0.0963 l -0.2419,-0.0264 -0.059,0.5917 z m -0.2828,0.3845 -0.0871,0.8728 -0.5749,-0.0628 0.2301,-2.3065 0.8779,0.096 c 0.2937,0.0321 0.5036,0.1066 0.6298,0.2235 0.1272,0.117 0.1798,0.2856 0.1579,0.506 -0.0152,0.1525 -0.0636,0.2737 -0.145,0.3637 -0.0804,0.0901 -0.1946,0.1505 -0.3426,0.1812 0.0768,0.0271 0.1428,0.077 0.1979,0.1497 0.0563,0.0717 0.1096,0.1775 0.1601,0.3173 l 0.2467,0.6891 -0.6122,-0.0669 -0.2146,-0.6029 C 37.6055,52.8746 37.5576,52.7897 37.5051,52.7413 37.4535,52.693 37.381,52.6637 37.2874,52.6535 Z"
     fill="#ffffff"
     id="path18" />
  <path
     d="m 40.8134,53.5892 c -0.1067,0.0553 -0.2178,0.0966 -0.3332,0.1239 -0.1154,0.0273 -0.2357,0.04 -0.3608,0.0381 -0.3732,-0.0056 -0.6676,-0.1178 -0.8833,-0.3364 -0.2156,-0.2197 -0.3212,-0.5144 -0.3169,-0.8841 0.0043,-0.3707 0.1168,-0.6621 0.3374,-0.8742 0.2207,-0.2132 0.5177,-0.317 0.8909,-0.3113 0.1251,0.0018 0.245,0.0181 0.3597,0.0489 0.1148,0.0307 0.2249,0.0753 0.3303,0.1339 l -0.0056,0.4799 c -0.1062,-0.0772 -0.2111,-0.1341 -0.3148,-0.1709 -0.1037,-0.0368 -0.213,-0.056 -0.3281,-0.0578 -0.2061,-0.0031 -0.369,0.0628 -0.4887,0.1977 -0.1197,0.135 -0.1809,0.3225 -0.1837,0.5628 -0.0028,0.2392 0.054,0.428 0.1705,0.5665 0.1165,0.1384 0.2778,0.2092 0.4839,0.2123 0.1151,0.0018 0.2249,-0.0142 0.3294,-0.0478 0.1044,-0.0337 0.2107,-0.0875 0.3186,-0.1615 z"
     fill="#ffffff"
     id="path20" />
  <path
     d="m 42.8279,53.1547 -0.9006,0.0746 -0.1085,0.433 -0.579,0.048 0.6431,-2.3805 0.6867,-0.0568 1.0115,2.2434 -0.579,0.0479 z m -0.7911,-0.3662 0.6118,-0.0507 -0.3784,-0.8946 z"
     fill="#ffffff"
     id="path22" />
  <path
     d="m 43.1857,51.2212 2.032,-0.3784 0.0784,0.4449 -0.731,0.1361 0.3237,1.8378 -0.5685,0.1059 -0.3238,-1.8378 -0.7324,0.1364 z"
     fill="#ffffff"
     id="path24" />
  <path
     d="m 45.4856,50.7683 0.92,-0.2782 c 0.2736,-0.0828 0.5013,-0.083 0.6832,-9e-4 0.1825,0.0809 0.3068,0.2376 0.373,0.4702 0.0665,0.2336 0.0442,0.4358 -0.0667,0.6064 -0.1103,0.1694 -0.3022,0.2955 -0.5758,0.3782 l -0.3658,0.1106 0.2198,0.7724 -0.5543,0.1676 z m 0.6727,0.2484 0.1769,0.6218 0.3067,-0.0927 c 0.1075,-0.0325 0.1829,-0.0845 0.2262,-0.1559 0.043,-0.0723 0.0503,-0.1582 0.0221,-0.2577 -0.0283,-0.0994 -0.0794,-0.1671 -0.1532,-0.203 -0.0738,-0.036 -0.1645,-0.0377 -0.272,-0.0052 z"
     fill="#ffffff"
     id="path26" />
  <path
     d="m 48.6782,50.0535 c -0.1617,0.0719 -0.2613,0.1895 -0.2988,0.3528 -0.0375,0.1633 -0.0094,0.3573 0.0842,0.5819 0.0933,0.2237 0.2103,0.3775 0.351,0.4617 0.1407,0.0841 0.2919,0.0902 0.4536,0.0183 0.1626,-0.0723 0.2626,-0.1901 0.3002,-0.3534 0.0375,-0.1633 0.0096,-0.3568 -0.0837,-0.5805 -0.0936,-0.2246 -0.2108,-0.379 -0.3515,-0.4631 -0.1407,-0.0841 -0.2924,-0.09 -0.455,-0.0177 z m -0.166,-0.3983 c 0.3307,-0.147 0.6306,-0.1642 0.8998,-0.0514 0.2691,0.1127 0.4758,0.3418 0.6198,0.6873 0.1437,0.3445 0.1627,0.6565 0.057,0.9358 -0.1056,0.2794 -0.3238,0.4926 -0.6546,0.6396 -0.3298,0.1466 -0.6297,0.1637 -0.8998,0.0514 -0.2692,-0.1127 -0.4756,-0.3414 -0.6192,-0.6859 -0.1441,-0.3455 -0.1633,-0.6579 -0.0576,-0.9373 0.1066,-0.2797 0.3247,-0.4929 0.6546,-0.6395 z"
     fill="#ffffff"
     id="path28" />
  <path
     d="m 49.9296,49.0153 0.5009,-0.297 0.8999,1.6207 0.8796,-0.5216 0.2178,0.3923 -1.3804,0.8187 z"
     fill="#ffffff"
     id="path30" />
  <path
     d="m 63.8412,55.4183 c 0,0 -1.4482,8e-4 -2.183,8e-4 -0.8926,-2.3099 -1.7742,-4.6258 -2.5954,-7.0082 0.8495,-1.0714 1.8859,-1.958 2.7674,-2.9972 -0.816,-0.1451 -1.9039,0.084 -2.7674,0 1.5408,-1.3199 2.3157,-3.4044 2.7213,-5.857 -0.5398,0.2285 -1.2057,0.7317 -1.9706,0.8904 1.3557,-1.976 2.187,-4.7142 1.9706,-8.1056 -0.6602,0.5588 -1.1181,1.5696 -1.7823,1.9676 1.2388,-2.7069 0.953,-7.5627 -1.1736,-9.0429 -0.5264,0.4118 -0.7849,1.0912 -1.0787,1.7345 -0.7578,-0.8515 -1.5146,-1.7048 -2.1576,-2.6714 -0.4441,0.5875 -0.6302,1.4733 -0.7983,2.2954 -0.5264,-0.7072 -1.1169,-1.4007 -1.9502,-2.072 0.9542,-1.2496 1.8357,-2.4939 2.7906,-3.7424 -3.3382,-3.0857 -7.6483,-4.9549 -13.6464,-5.3831 0.0708,-0.7947 0.2638,-1.7696 0.2638,-1.7696 h 2.7384 v 0.7935 l 1.0427,-7e-4 c 0,0 0.0031,-0.3622 0.0031,-0.5729 1.3235,0.5245 1.2671,-1.8767 -0.0031,-1.2992 v -0.5678 l -1.0427,-0.0031 v 0.7423 h -3.1782 l -0.4799,-8.33224 0.5054,0.00609 0.0127,-1.03769 c 0,0 -0.7509,1e-5 -1.1352,-0.01271 0.9711,-1.33831 -1.5927,-1.71985 -1.7266,-0.64539 -0.0382,0.31254 0.1122,0.54551 0.3174,0.65041 -0.3581,0.01272 -1.2117,0.0061 -1.2117,0.0061 l 0.0128,1.0273 0.5627,0.00456 -0.3843,8.33267 -3.1413,0.0046 v -0.7026 l -1.089,0.0046 c 0,0 0.006,0.5175 -0.0035,0.6308 -0.8971,-0.6525 -1.2714,0.9261 -0.622,1.2629 0.2925,0.1038 0.5213,0.0127 0.6188,-0.1044 0.0065,0.1865 0.0065,0.6383 0.0065,0.6383 h 1.0903 l -0.0064,-0.8298 2.7188,0.0061 c 0,0 0.2441,1.1846 0.239,1.7168 -6.1144,0.3272 -10.4785,2.2415 -13.8525,5.3067 0.9175,1.3485 1.9912,2.4416 2.902,3.7971 -0.6556,0.6411 -1.3245,1.4821 -2.0279,2.243 -0.1925,-0.8233 -0.427,-1.7696 -0.7194,-2.4917 -0.7935,0.9096 -1.5066,1.8454 -2.2115,2.8897 -0.1906,-0.6829 -0.5538,-1.3625 -0.9784,-1.8123 -1.7308,1.4019 -2.5244,4.8213 -1.7827,7.59 0.167,0.6237 0.5701,1.1691 0.4691,1.7806 -0.7348,-0.5938 -1.2315,-1.4246 -1.7357,-2.2489 -0.5489,3.2064 0.6487,6.043 1.7357,7.9181 -0.78,-0.0942 -1.2838,-0.4659 -1.8292,-0.7966 0.3804,2.6032 1.7304,4.4861 3.0955,5.9504 -0.9861,-0.0319 -2.0347,-0.2432 -3.0492,-0.093 0.4382,0.501 0.9234,1.0392 1.3934,1.5086 0.474,0.4736 0.8573,0.9199 1.3282,1.4427 -0.9478,2.3638 -2.7141,7.06 -2.7141,7.06 l -1.979,0.0061 0.002,1.2253 h 1.1256 c 2.4847,1.6998 5.4596,3.0115 9.382,2.8115 2.5115,-0.1285 4.5684,-0.8866 6.2387,-1.8273 0.332,-0.1871 1.5246,-0.9801 1.5246,-0.9801 l 1.4022,-0.0031 0.0191,-1.2434 -2.454,0.0046 c 0,0 -0.2862,-0.7388 -0.4429,-1.2917 1.8024,0.5588 5.5345,0.7962 5.5345,0.7962 l 0.0061,5.3575 1.5183,1.7842 1.2901,-1.7239 v -5.3943 c 0,0 3.6028,-0.2266 5.5864,-0.8083 -0.1931,0.4373 -0.5455,1.2827 -0.5455,1.2827 l -2.0912,-0.0031 0.0191,1.2223 h 0.6973 c 0,0 0.65,0.4284 1.0808,0.6276 2.5733,1.187 5.2905,2.2074 7.9846,2.1851 5.2593,-0.0445 8.7595,-2.7984 8.7595,-2.7984 l 1.082,-0.0127 z M 33.6673,13.7904 c -0.4429,0.0319 -0.4748,-0.8388 -0.1415,-0.9835 0.5124,-0.2216 0.6156,0.953 0.1415,0.9835 z m 0.6322,0.4284 V 12.288 h 0.6048 v 1.9249 z m 26.9407,41.1977 c -2.3779,0 -7.0003,0.003 -7.0003,0.003 L 54.1596,53.016 c 0,0 2.1234,-0.1769 3.8242,-1.8393 -0.9378,-0.2031 -1.7329,-0.5487 -2.4395,-0.984 1.2177,-0.3921 2.4929,-0.7277 3.2837,-1.546 0.8909,2.2033 1.6506,4.4389 2.4124,6.7698 z m -9.2141,-3.1161 c 0.3842,-0.1514 0.7618,-0.6805 1.266,-0.795 0.7609,-0.1751 1.5981,0.0763 2.2997,-0.2349 -0.4295,-0.0687 -1.24,0.0815 -1.7352,-0.0446 -0.2262,-0.0191 0.1001,-0.14 0.0937,-0.2342 -0.3091,-0.4564 -0.6402,-0.8917 -0.8454,-1.4514 1.9483,0.0381 2.4385,1.3247 4.3264,1.7528 -1.1,0.9068 -2.7847,1.5439 -4.7954,1.3862 -0.1944,-0.1337 -0.3066,-0.3494 -0.6099,-0.3762 z m -0.241,0.4839 c 0.2434,-0.0726 0.3556,0.0822 0.4034,0.2928 0.1823,0.783 -1.2299,-0.0445 -0.4034,-0.2928 z m 0.7569,-4.6508 c -0.0574,0.0802 -0.0969,0.1839 -0.2346,0.1877 -0.0383,-0.0381 -0.0255,-0.1285 -0.0943,-0.1406 0.0255,-0.1604 0.2275,-0.0719 0.3289,-0.0446 z m 0.0783,-1.0459 c 0.1689,-0.0509 0.3894,0.0061 0.3767,0.2813 -0.0382,0.7117 -1.0699,-0.0637 -0.3767,-0.2813 z m 0.4379,2.1734 c -0.2696,0.0508 -0.5316,-0.5188 -0.5162,-0.7502 0.2294,0.1922 0.2555,0.5875 0.5162,0.7502 z M 51.932,47.6677 c -0.1931,-0.2597 -0.3645,-0.5417 -0.5156,-0.8434 1.9395,-1.3107 3.4478,-3.0537 4.7371,-5.0138 0.0382,-0.0061 0.0446,0.0191 0.0446,0.0445 0.3212,2.2494 -1.5567,4.126 -2.8149,5.1554 -0.3461,-0.8173 -1.8355,-0.4131 -1.4541,0.6554 z m 1.8739,0.6544 c -0.0383,0.7117 -1.0687,-0.0636 -0.3754,-0.2813 0.1683,-0.0573 0.3894,0.0061 0.3754,0.2813 z m 7.4109,-2.6245 c -1.1692,1.1046 -2.3036,2.8718 -4.127,3.6075 -0.5685,0.2292 -1.4534,0.5169 -2.1114,0.4221 -0.3716,-0.0509 -0.6087,-0.396 -1.1253,-0.3737 0.9633,-0.8183 2.3169,-1.2485 3.4701,-1.8757 -1.1693,0.2833 -2.0832,0.8243 -3.143,1.2183 0.051,-0.5169 -0.1536,-0.782 -0.4691,-0.9369 1.888,-1.2684 4.3224,-2.2413 7.5054,-2.0615 z m 0.1406,-5.6217 c 0.0573,0.0191 0.0968,0.0573 0.0943,0.14 -0.4079,1.7497 -1.0668,3.2673 -2.2058,4.4042 -0.3646,0.3647 -0.7198,0.8415 -1.1254,1.0313 -0.5283,0.2451 -1.2166,0.2635 -1.7832,0.4685 -0.5443,0.196 -0.9771,0.4977 -1.548,0.6563 1.2792,-1.1599 2.6178,-2.2596 3.6131,-3.7019 -1.3487,1.3539 -2.7273,2.6787 -4.269,3.8428 0.362,-0.6054 0.8704,-1.0474 1.3132,-1.6877 0.2212,-0.3208 0.3863,-0.6484 0.5628,-0.9841 0.325,-0.6162 0.5226,-1.2645 1.0325,-1.6867 0.5787,-0.0318 0.8524,-0.3679 0.8916,-0.9368 0.7206,0.1114 0.9561,-0.2636 1.1252,-0.7026 0.9349,-0.1133 1.6756,-0.4201 2.2985,-0.8433 z m -4.7846,2.4827 v -0.233 c 0.1262,0.0192 0.2198,0.2496 0,0.233 z m 0.7983,-0.6554 c -0.174,0.121 -0.2638,0.0872 -0.3295,0 -0.5837,-0.7077 0.9167,-0.7108 0.3295,0 z m 1.1974,-1.3865 c 0.2467,0.3259 -0.121,0.6944 -0.448,0.4494 -0.1893,-0.3399 0.1096,-0.6392 0.448,-0.4494 z m 1.5691,-5.8762 c 0.4952,-0.5372 0.9097,-1.153 1.4542,-1.6401 0.0924,3.4975 -0.8917,5.9185 -2.5331,7.6837 0.0061,-0.1286 0.0255,-0.1674 -0.0797,-0.3355 -0.2849,-0.2718 -0.3422,-0.1801 -0.4678,-0.2476 0.5806,-0.998 1.2038,-2.0098 1.5802,-3.2119 -0.7025,1.157 -1.4835,3.0194 -2.211,3.411 -0.2466,0.1642 -0.3944,0.4844 -0.3696,0.7121 -0.4499,-0.1037 -0.7136,0.0446 -0.9853,0.2349 0.608,-1.1199 1.0718,-2.5518 1.3607,-3.8902 0.1288,-0.5938 0.9915,-1.1835 1.3133,-1.6392 0.6743,0.1757 1.2098,-0.4602 0.9381,-1.0776 z m -1.6415,1.358 c 0.0383,0.182 -0.2804,0.408 -0.3753,0.6091 -0.1441,-0.2858 0.297,-0.3889 0.3753,-0.6091 z m 1.266,-1.4524 c 0.1511,0.1521 0.1562,0.3698 0.0447,0.5633 -0.5437,0.3017 -0.7678,-0.7342 -0.0447,-0.5633 z m -0.8675,-8.8334 c 1.735,2.4858 1.8287,5.8043 0.6329,8.5061 -1.0585,-0.1355 -0.5933,1.4967 -1.4069,1.4524 0.0447,-0.2629 0.0128,-0.8849 -0.0446,-1.3121 0.4901,-1.0725 0.8012,-2.3234 0.939,-3.7477 -0.3199,1.0549 -0.4365,2.3129 -1.0325,3.0918 -0.0192,-0.3062 -0.0382,-0.6149 -0.1409,-0.8428 0.7891,-1.0107 0.8654,-2.2577 0.7306,-3.8402 -0.0638,-0.7432 -0.6712,-1.5504 -0.6361,-1.642 0.3072,-0.8192 0.8445,-1.4926 0.9611,-1.6655 z m -3.3041,-0.9118 c 0.841,1.4893 2.537,2.4908 2.7201,4.5916 0.0848,0.9686 -0.1421,1.9692 -0.5627,2.6709 -0.6633,-1.3676 -1.0015,-3.0608 -1.548,-4.5449 0.0255,0.4246 0.2588,1.0529 0.3282,1.5931 -0.2472,-0.3081 -0.4499,-0.811 -0.7336,-1.2248 -0.209,-0.3036 -0.6913,-0.7885 -0.6602,-1.0872 0.0924,-0.8898 0.1619,-1.1217 0.4563,-1.9987 z m -6.2939,-7.5397 c 2.2402,0.8636 4.2006,2.1883 5.8248,3.6509 -0.7163,1.2372 -1.6935,2.3605 -2.5048,3.5019 -2.8651,-2.4128 -6.1602,-3.8899 -10.7702,-4.2674 -8e-4,-1.4269 -0.0638,-3.0457 0.1319,-4.3518 2.7394,0.24 5.1579,0.6328 7.3184,1.4664 z m -3.0411,-4.501 c 0.5124,-0.2222 0.615,0.9524 0.1409,0.9829 -0.4429,0.0319 -0.4754,-0.8386 -0.1409,-0.9829 z m -1.0066,-0.5156 h 0.5373 v 1.968 H 45.2489 Z M 39.2691,2.99555 C 38.9587,2.24323 40.6097,2.09703 40.6529,2.79187 40.6912,3.4422 39.4714,3.48733 39.2691,2.99555 Z M 38.3643,4.17001 38.3597,3.61623 41.6199,3.61166 41.6138,4.18581 Z m 0.6207,0.24952 h 2.0164 l 0.1943,3.8323 0.2288,4.50807 h -2.768 z m -3.8493,8.97557 v -0.3583 l 9.853,0.0045 0.0061,0.3571 z m 6.3819,6.7201 -1.2802,-0.0445 -0.0191,-6.3919 c 0,0 1.1613,-0.0128 1.6754,-0.0128 -0.4174,1.7817 -0.3766,6.4482 -0.3766,6.4482 z m -3.3341,-6.4538 c 0.462,-0.0016 1.7002,0.0127 1.7002,0.0127 l -0.0255,6.3742 -1.2987,0.0764 c 0,0 0.0669,-4.8106 -0.3747,-6.4652 z M 24.7251,20.768 c 1.7264,-1.549 3.7149,-2.8607 6.1389,-3.7135 2.1072,-0.7433 4.5559,-1.1222 7.2766,-1.253 0.107,1.3549 0.1274,3.1025 0.0981,4.3232 -4.5499,0.422 -8.0713,1.817 -10.8402,4.0172 -0.9803,-1.0363 -1.8077,-2.2229 -2.6734,-3.3739 z m 1.3665,5.2429 c 1.7166,-1.9005 3.2504,-3.0489 5.4308,-3.9944 1.0552,-0.452 2.2942,-0.8565 3.6297,-1.162 1.5015,-0.3635 3.0866,-0.564 4.7239,-0.5786 0.0318,-8e-4 0.3556,-8e-4 0.4346,0 0.2243,0.0015 0.954,0.0318 1.0948,0.0382 0.0192,8e-4 0.0382,0.0015 0.0574,0.0031 0.1338,0.0127 0.7707,0.0636 0.8492,0.0719 7.4271,0.7845 13.0044,5.274 15.0032,11.4337 0.4506,1.4334 0.6531,3.0164 0.4366,4.7344 -0.3334,2.6455 -1.6294,5.1604 -3.0966,6.7928 -0.0382,0.0446 -0.1,0.1611 -0.1816,0.1942 -0.1982,0.2323 -0.4034,0.4582 -0.6169,0.6805 -0.0574,0.1241 -0.1797,0.2221 -0.2798,0.345 -0.0128,-0.0128 -0.0191,-0.0192 -0.0319,-0.0319 -0.1166,0.1159 -0.2351,0.2292 -0.3575,0.3418 -0.655,0.7761 -1.5538,1.4716 -2.5209,2.0325 -0.7899,0.4571 -1.6486,0.8795 -2.5161,1.2091 -2.4211,1.0413 -5.1666,1.6294 -8.077,1.6294 -2.4195,0 -4.7234,-0.4061 -6.8228,-1.142 0.0057,0.0127 0.0064,0.0254 0.0128,0.0381 -2.9744,-0.7327 -5.3504,-2.4566 -7.3642,-4.5453 -2.0053,-2.0788 -3.6986,-5.067 -3.8469,-8.6674 -0.0191,-0.4863 0.0988,-0.9791 0.0937,-1.4526 -0.0128,-1.3182 0.5844,-2.7736 1.4109,-4.3044 0.1376,-0.254 0.2855,-0.508 0.4378,-0.7615 0.5659,-1.0388 1.273,-2.0115 2.0982,-2.904 z M 26.274,46.914 c -1.5166,-1.156 -2.605,-2.7391 -2.7203,-5.2953 1.3178,1.9158 2.8175,3.6507 4.6434,5.06 -0.0835,0.2291 -0.2237,0.3997 -0.3276,0.6092 0.1689,-1.163 -1.3963,-1.3208 -1.5955,-0.3737 z m 0.7503,1.546 c 0.1287,0.1407 -0.188,0.8585 -0.5162,0.7026 0.1402,-0.2674 0.5009,-0.3126 0.5162,-0.7026 z m 0.1415,-1.8273 c 0.2039,0.2832 -0.0446,0.6845 -0.4226,0.5143 -0.2625,-0.2794 0.0383,-0.7458 0.4226,-0.5143 z m -0.1874,1.2182 c 0.174,0.0445 0.4671,0.1648 0.3754,0.3278 -0.1651,0.0923 -0.3576,-0.1254 -0.3754,-0.3278 z m -1.0326,3.2325 c -0.4104,0.184 -1.0551,0.1331 -1.5942,0.1872 0.566,0.2794 1.4366,-0.163 1.9228,0.0942 0.5621,0.294 1.6893,0.9357 1.6893,0.9357 0,0 -0.3429,0.2954 -0.7041,0.3285 -1.7444,0.1572 -3.9037,-0.4863 -4.7379,-1.3589 1.4426,-0.4341 2.2678,-1.7329 3.9867,-1.7329 -0.2097,0.4767 -0.5118,0.8614 -0.7503,1.3107 -0.0319,0.177 0.123,0.1585 0.1874,0.2349 z m 2.2218,1.6279 c 0.7955,-0.1107 -0.158,1.2181 -0.3288,0.3762 -0.051,-0.2495 0.1134,-0.3456 0.3288,-0.3762 z M 25.8519,48.365 c -0.1064,-0.6353 0.5895,-0.5487 0.6099,-0.1872 0.0128,0.2757 -0.3588,0.4654 -0.6099,0.1872 z M 24.3041,24.6583 c 0.325,0.6282 0.4289,1.4771 0.6099,2.249 -0.5041,0.6835 -1.0111,1.3641 -1.4077,2.1545 -0.1415,-0.5633 0.0714,-1.1775 0.1408,-1.6861 -0.4945,0.7709 -0.3658,1.6973 -0.6099,2.6234 -0.1956,0.7444 -0.7597,1.4938 -0.8443,2.2492 -0.2829,-0.5754 -0.4314,-1.2415 -0.4697,-1.9677 -0.1319,-2.5602 1.3854,-4.1669 2.5809,-5.6223 z m -3.1897,1.0303 c 0.2269,0.1452 0.8504,1.2649 0.8438,1.7334 -0.0039,0.2915 -0.1969,0.7031 -0.281,1.0313 -0.2537,0.981 -0.2989,2.3138 -0.0446,3.4206 0.1523,0.6669 0.5506,1.2132 0.2351,2.0614 -0.4831,-0.7513 -0.6607,-1.8083 -0.8439,-2.858 -0.1058,1.7916 0.8597,2.9208 0.7966,4.8251 -0.1599,0.1502 -0.4856,-0.3189 -0.6092,-0.5143 0.2785,-0.5901 -0.1224,-1.2313 -0.8447,-1.1254 -1.5037,-2.3691 -1.1338,-6.9165 0.7511,-8.5739 z m 0.8008,10.9643 c -0.3945,-0.2011 -0.5666,-0.6212 -0.9384,-0.8444 0.2976,0.1095 0.7034,0.5156 0.9384,0.8444 z m -1.5014,-1.4061 c -0.1453,-0.006 -0.1332,-0.0572 -0.2811,-0.14 -0.0127,-1.2088 1.107,0.1878 0.2811,0.14 z M 19.8039,39.37 C 18.8412,37.7818 18.0692,35.8253 18.256,33.2786 v -0.14 c 0.24,0.1515 0.4532,0.5862 0.7975,1.0303 0.2515,0.324 0.6577,0.6443 0.7504,0.8429 0.1217,0.261 0.0669,0.5309 0.3288,0.7032 0.1364,0.0897 0.3244,0.0254 0.4691,0.0935 0.3511,0.163 1.3046,1.1234 1.4541,1.4998 0.1153,0.2903 0.1006,0.6736 0.1873,0.9841 0.2505,0.8957 0.5742,1.7003 0.9853,2.5299 -0.2212,0.0669 -0.4799,-0.1604 -0.7975,-0.0445 0.0064,-0.1802 0.0019,-0.345 -0.0447,-0.4685 -0.1274,-0.2623 -0.3326,-0.4488 -0.6576,-0.5143 -0.71,-0.7751 -1.253,-1.7159 -1.8754,-2.5773 0.225,0.9468 0.94,1.8092 1.5005,2.5773 -0.1491,0.226 -0.3569,0.3934 -0.4691,0.6557 -0.5595,-0.0254 -0.8183,-0.6473 -1.0788,-1.0779 z m 3.5203,2.7202 v 0.4221 c -0.1848,-0.0573 -0.3735,-0.4361 0,-0.4221 z m -0.5627,-0.9369 c 0.0987,1.2768 -1.2299,-0.3564 0,0 z m -1.2666,-0.3755 c -0.5041,0.0318 -0.3671,-0.9121 0.2332,-0.5143 0.1358,0.2769 -0.0446,0.5041 -0.2332,0.5143 z m -1.6891,2.5768 c -0.6577,-0.991 -1.1948,-2.0456 -1.4069,-3.2788 0.7349,0.2801 1.3538,0.6775 2.4393,0.6079 0.23,0.359 0.4996,0.8371 1.1251,0.6567 -0.0573,0.6661 0.3002,0.9183 0.8445,0.9847 0.9841,0.969 1.1498,2.7551 2.1575,3.701 -1.6465,-1.0415 -3.3265,-2.4566 -4.737,-3.8891 1.325,1.8304 3.4243,3.2949 5.2533,4.7797 -0.5793,-0.1196 -1.026,-0.4341 -1.595,-0.6574 -0.5665,-0.2222 -1.2212,-0.2833 -1.7819,-0.515 -0.816,-0.338 -1.8074,-1.6494 -2.2989,-2.3902 z M 18.68,45.6508 c 3.069,-0.0191 5.4013,0.6966 7.2243,1.9211 -0.1778,0.2705 -0.5054,0.5506 -0.3282,1.0301 -1.0009,-0.3749 -1.8346,-0.9158 -2.9084,-1.2173 0.943,0.6353 2.4374,1.1258 3.3774,1.9199 -0.5124,-0.0128 -0.7709,0.3711 -1.1255,0.422 -0.6533,0.0942 -1.4911,-0.233 -2.0643,-0.4685 -1.8674,-0.768 -2.7896,-2.3662 -4.175,-3.6077 z m 2.2989,2.9047 c 0.8508,0.7277 1.8705,1.2865 3.1431,1.593 -0.6169,0.3998 -1.2253,0.8063 -2.1105,0.9367 0.9313,1.3482 3.5677,1.733 3.5677,1.733 l 0.0255,2.6136 c 0,0 -4.7457,-0.0046 -7.1383,-0.0046 0.7759,-2.4101 1.6787,-4.5162 2.5094,-6.872 z m 4.9226,10.6813 c -3.3511,0.0191 -6.1489,-1.2323 -8.1733,-2.5722 -0.0083,-0.0381 10.8804,0.0255 16.2435,-0.003 -1.9263,1.4685 -4.7416,2.5602 -8.0702,2.5762 z m 8.3032,-3.513 c 0.2142,0 1.253,0.0127 1.253,0.0127 l 0.0127,0.5786 c 0,0 -0.4984,0.0191 -0.9842,0.0191 -6.6306,0 -18.054,0.0319 -18.054,0.0319 l 0.0121,-0.62 c 0,0 11.5648,-0.0191 17.7606,-0.0191 z m -1.1657,-0.2922 -7.1705,0.0046 -0.0127,-2.5553 c 0,0 1.0687,0.1108 1.589,0.0191 -0.1396,1.2524 1.8911,1.0926 1.413,-0.1241 1.2449,0.4271 2.3328,1.0123 3.7527,1.2645 0.1746,0.4977 0.4296,1.3911 0.4296,1.3911 z m 5.7188,4.8116 0.0192,-5.275 0.9897,0.0192 0.0573,6.4548 z m 2.2585,0.0319 -0.8918,1.1781 L 40.126,55 41.0158,54.9746 Z m -1.1202,-5.812 C 34.7106,54.457 29.5137,53.1324 26.5117,50.7149 c 0.6485,-1.2585 1.3646,-2.4487 2.1118,-3.6077 2.9031,1.6276 6.5884,3.093 11.2111,3.0458 4.3345,-0.0445 8.2916,-1.1146 11.211,-2.9059 0.7619,1.1457 1.41,2.4033 2.1576,3.5613 -3.043,2.3782 -8.1685,3.6627 -13.3071,3.6547 z M 47.2457,54.05 c 1.418,-0.3164 2.6676,-0.7657 3.8472,-1.3207 h 0.0937 c -0.4608,1.2555 1.5198,1.5106 1.5016,0.3284 0.4053,0.0446 1.2198,0 1.2198,0 l -0.0784,2.3682 h -7.0459 c 0,0 0.2817,-0.9459 0.4621,-1.3762 z m 7.6033,5.1452 c -3.1471,0.3189 -6.3927,-0.959 -9.5565,-2.539 l 17.1557,-0.0061 c 0,0 -2.8089,2.0605 -7.5992,2.547 z M 44.5908,56.3003 v -0.5557 h 18.927 l 0.0128,0.5779 -18.9382,-0.0254"
     fill="#ffffff"
     id="path32" />
  <path
     d="m 26.2302,20.8792 0.6204,-0.3947 1.0748,0.7366 -0.2113,-1.2859 0.6191,-0.3938 1.204,1.888 -0.4609,0.2932 -0.8806,-1.3809 0.2136,1.295 -0.3089,0.1965 -1.0847,-0.7409 0.8806,1.3809 -0.4621,0.294 z"
     fill="#ffffff"
     id="path34" />
  <path
     d="m 29.1255,19.1925 1.4314,-0.6186 0.1734,0.4004 -0.9009,0.3894 0.1657,0.3826 0.8472,-0.3662 0.1735,0.4004 -0.8472,0.3662 0.2038,0.4706 0.9313,-0.4025 0.1735,0.4004 -1.4617,0.6317 z"
     fill="#ffffff"
     id="path36" />
  <path
     d="m 32.2994,18.3687 c -0.1677,0.0538 -0.2779,0.1573 -0.3305,0.3107 -0.0527,0.1533 -0.0429,0.3423 0.0293,0.5669 0.0718,0.2237 0.1739,0.3825 0.3061,0.4766 0.1321,0.0941 0.2821,0.1143 0.4498,0.0605 0.1686,-0.0541 0.2793,-0.1578 0.332,-0.3111 0.0526,-0.1534 0.043,-0.3419 -0.0289,-0.5655 -0.0721,-0.2246 -0.1743,-0.384 -0.3065,-0.4781 -0.1322,-0.0941 -0.2826,-0.1141 -0.4513,-0.06 z m -0.128,-0.3983 c 0.3431,-0.11 0.6433,-0.0981 0.9006,0.0357 0.2574,0.1337 0.4416,0.3733 0.5527,0.7187 0.1107,0.3446 0.1004,0.646 -0.031,0.9044 -0.1314,0.2583 -0.3686,0.4425 -0.7116,0.5525 -0.3421,0.1097 -0.6423,0.0978 -0.9006,-0.0356 -0.2574,-0.1338 -0.4415,-0.3729 -0.5522,-0.7174 -0.111,-0.3455 -0.1008,-0.6474 0.0305,-0.9058 0.1324,-0.2586 0.3696,-0.4428 0.7116,-0.5525 z"
     fill="#ffffff"
     id="path38" />
  <path
     d="m 33.7668,17.4775 0.5464,-0.0913 0.6506,1.5407 0.1104,-1.6678 0.5492,-0.0918 0.6478,1.5411 0.1132,-1.6682 0.5419,-0.0905 -0.1514,2.2948 -0.6574,0.1098 -0.6823,-1.6113 -0.1157,1.7446 -0.6573,0.1099 z"
     fill="#ffffff"
     id="path40" />
  <path
     d="m 43.3043,17.1383 0.7243,0.128 0.2935,1.2684 0.7145,-1.0903 0.7228,0.1277 -0.3906,2.2043 -0.5381,-0.0951 0.2858,-1.6122 -0.7191,1.0986 -0.3607,-0.0637 -0.2978,-1.2783 -0.2858,1.6122 -0.5395,-0.0954 z"
     fill="#ffffff"
     id="path42" />
  <path
     d="m 46.5796,17.8499 1.4735,0.5104 -0.1432,0.4122 -0.9275,-0.3213 -0.1368,0.3938 0.8722,0.3021 -0.1431,0.4122 -0.8722,-0.3021 -0.1683,0.4845 0.9587,0.332 -0.1432,0.4122 -1.5047,-0.5212 z"
     fill="#ffffff"
     id="path44" />
  <path
     d="m 49.4759,19.3857 c -0.16,-0.0736 -0.3113,-0.0717 -0.4539,0.0058 -0.1426,0.0774 -0.2633,0.2233 -0.3621,0.4375 -0.0984,0.2134 -0.1308,0.3994 -0.097,0.5579 0.0337,0.1586 0.1305,0.2747 0.2905,0.3483 0.1609,0.074 0.3126,0.0723 0.4552,-0.0052 0.1426,-0.0774 0.2631,-0.2229 0.3615,-0.4362 0.0988,-0.2143 0.1314,-0.4007 0.0977,-0.5593 -0.0338,-0.1585 -0.1311,-0.2748 -0.292,-0.3488 z m 0.1752,-0.38 c 0.3272,0.1505 0.5404,0.362 0.6395,0.6343 0.0992,0.2723 0.0728,0.5732 -0.0792,0.9028 -0.1516,0.3286 -0.3632,0.5438 -0.6349,0.6455 -0.2717,0.1018 -0.5711,0.0774 -0.8983,-0.0732 -0.3263,-0.1501 -0.5395,-0.3615 -0.6396,-0.6342 -0.0992,-0.2724 -0.0729,-0.5728 0.0786,-0.9015 0.152,-0.3295 0.3639,-0.5452 0.6356,-0.6469 0.2725,-0.1013 0.572,-0.0769 0.8983,0.0732 z"
     fill="#ffffff"
     id="path46" />
  <path
     d="m 51.1606,19.7196 0.4643,0.3015 -0.5632,1.5747 1.2101,-1.1546 0.4668,0.3031 -0.5657,1.5731 1.2126,-1.153 0.4605,0.2991 -1.6647,1.589 -0.5587,-0.3628 0.5877,-1.6482 -1.266,1.2077 -0.5588,-0.3628 z"
     fill="#ffffff"
     id="path48" />
  <path
     d="m 44.6058,22.1583 -0.4335,0.0774 0.1132,4.8621 h -8.7798 l 0.3516,-4.7684 -0.4335,-0.0893 -4.3064,12.331 1.999,6.4675 -3.3308,6.7264 0.2071,0.0967 c 3.1421,1.4669 6.2935,2.3254 10.3573,2.2793 3.4118,-0.0385 6.2633,-0.8266 9.5558,-2.1915 l -0.0864,-0.4285 0.1996,0.1249 -3.1967,-6.4675 2.0825,-6.521 z m 0.0447,1.5012 3.7851,11.0038 -2.0929,6.5509 3.1639,6.402 c -3.1622,1.2922 -5.8982,2.0416 -9.1626,2.0785 -3.9076,0.0443 -6.9198,-0.7751 -9.9476,-2.1618 l 3.1982,-6.4571 -2.008,-6.4958 3.7002,-10.5947 -0.2622,3.5589 h 9.7167 z"
     fill="#ffffff"
     id="path50" />
  <path
     d="m 35.6207,35.3564 c 0.4875,0 0.8827,-0.3947 0.8827,-0.8816 0,-0.4869 -0.3952,-0.8816 -0.8827,-0.8816 -0.4875,0 -0.8827,0.3947 -0.8827,0.8816 0,0.4869 0.3952,0.8816 0.8827,0.8816 z"
     fill="#ffffff"
     id="path52" />
  <path
     d="m 44.3441,35.3732 c 0.4875,0 0.8827,-0.3947 0.8827,-0.8816 0,-0.4869 -0.3952,-0.8816 -0.8827,-0.8816 -0.4875,0 -0.8827,0.3947 -0.8827,0.8816 0,0.4869 0.3952,0.8816 0.8827,0.8816 z"
     fill="#ffffff"
     id="path54" />
  <path
     d="m 38.293,35.8696 1.538,1.4934 -1.0407,1.0592 0.2239,0.2236 1.0374,-1.0427 1.0671,1.0789 0.2239,-0.2237 -1.0703,-1.0822 1.5017,-1.5065 z"
     fill="#ffffff"
     id="path56" />
  <path
     d="m 40.0172,37.4002 -1.1119,1.1292 z"
     fill="#ffffff"
     id="path58" />
  <path
     d="m 40.115,37.4417 1.112,1.1291 z"
     fill="#ffffff"
     id="path60" />
  <path
     d="M 45.614,78.5965 H 35.0876 l 5.2632,6.3158 z"
     fill="#930000"
     id="path62" />
</svg>
