<?xml version="1.0"?>
<svg xmlns:rdf="http://www.w3.org/1999/02/22-rdf-syntax-ns#" xmlns="http://www.w3.org/2000/svg" xmlns:cc="http://creativecommons.org/ns#" xmlns:xlink="http://www.w3.org/1999/xlink" xmlns:dc="http://purl.org/dc/elements/1.1/" xmlns:svg="http://www.w3.org/2000/svg" id="svg1307" viewBox="0 0 531.41 377.97" version="1.1">
  <defs id="defs1309">
    <radialGradient id="radialGradient3185" gradientUnits="userSpaceOnUse" cy="37.75" cx="-6" gradientTransform="matrix(1 0 0 .26786 0 27.638)" r="14">
      <stop id="stop2307-7-6-6" offset="0"/>
      <stop id="stop2309-1-2-7" stop-opacity="0" offset="1"/>
    </radialGradient>
    <linearGradient id="linearGradient3187" x1="771.08" gradientUnits="userSpaceOnUse" y1="-380.29" gradientTransform="matrix(.66425 0 0 .66425 193.07 -91.913)" x2="757.02" y2="-294.1">
      <stop id="stop4811" stop-color="#d48193" offset="0"/>
      <stop id="stop4813" stop-color="#fff" offset="1"/>
    </linearGradient>
    <linearGradient id="linearGradient3189" x1="771.08" gradientUnits="userSpaceOnUse" y1="-380.29" gradientTransform="matrix(-.66425 0 0 .66425 1387.8 -91.319)" x2="757.02" y2="-294.1">
      <stop id="stop4811-3" stop-color="#d48193" offset="0"/>
      <stop id="stop4813-9" stop-color="#fff" offset="1"/>
    </linearGradient>
  </defs>
  <g id="layer1" transform="translate(-433.46 461.2)">
    <g id="g3153">
      <g id="g5128">
        <path id="path5044-1-8-7" opacity=".48454" style="color:#000000" d="m8 37.75c0 2.0711-6.268 3.75-14 3.75s-14-1.6789-14-3.75 6.268-3.75 14-3.75 14 1.6789 14 3.75z" fill-rule="evenodd" transform="matrix(11.615 0 0 11.443 864.68 -558.13)" fill="url(#radialGradient3185)"/>
        <path id="path5046-4-7-2-5-5" style="color:#000000" fill-rule="evenodd" fill="#d45589" d="m709.86-369.86c6.7195 8.8246 10.604 17.216 11.773 31.787 0.88005 10.97 5.1643 18.405 0.55999 24.069-10.217 12.569-5.6989 7.0155-22.479 17.112-9.236 5.557-22.361-1.5152-25.652-1.5152-29.735 0-38.607-23.448-44.384-51.703-3.4082-16.668-12.85-43.429-13.938-57.096 11.553-1.1486 43.751 9.6109 57.291 15.365 12.956 5.5056 30.11 13.157 36.829 21.982z"/>
        <path id="path4205-1" transform="matrix(.92838 0 0 .80720 106.09 -701.39)" fill="#d45589" d="m877.1 590.83c0 77.941-63.184 141.13-141.13 141.13-77.941 0-141.13-63.184-141.13-141.13 0-77.941 63.184-141.13 141.13-141.13 77.941 0 141.13 63.184 141.13 141.13z"/>
        <path id="path4205" transform="matrix(.87774 0 0 .76002 143.36 -674)" fill="#d48193" d="m877.1 590.83c0 77.941-63.184 141.13-141.13 141.13-77.941 0-141.13-63.184-141.13-141.13 0-77.941 63.184-141.13 141.13-141.13 77.941 0 141.13 63.184 141.13 141.13z"/>
        <path id="path5046-4-7-2-5" style="color:#000000" fill-rule="evenodd" fill="#d48193" d="m708.07-364.38c6.2618 8.2236 8.7433 17.637 9.8326 31.216 0.82011 10.223 5.2679 18.289 4.6199 20.266-4.701 14.344-2.9728 12.794-20.948 15.946-2.9152 0.5112-21.065-6.307-24.132-6.307-27.71 0-35.749-16.956-41.133-43.286-3.1761-15.533-11.975-40.471-12.989-53.207 10.766-1.0703 40.771 8.9563 53.389 14.318 12.074 5.1306 25.099 12.83 31.361 21.054z"/>
        <path id="path5046-4-7-2-5-0" style="color:#000000" fill-rule="evenodd" fill="url(#linearGradient3187)" d="m708.4-345.56c4.1594 5.4625 5.8078 11.716 6.5313 20.735 0.54476 6.7908 3.9969 12.058 2.8245 12.79-5.8712 3.6642-7.655 4.8338-14.953 11.02-1.4997 1.2712-12.71-3.9451-14.747-3.9451-18.406 0-23.747-11.263-27.323-28.753-2.1097-10.318-7.9545-26.883-8.6277-35.343 7.1514-0.71098 27.082 5.9492 35.464 9.5108 8.02 3.408 16.672 8.5226 20.832 13.985z"/>
        <g id="g5056-2-7-6" transform="matrix(7.5635 0 0 7.5635 606.12 -434.23)">
          <g id="g5058-1-5-0" transform="matrix(.41061 0 0 .41061 37.955 10.947)">
            <path id="path5060-6-7-9" transform="matrix(.17771 0 0 .17771 -42.905 -80.331)" fill="#fff" d="m177.14 592.36c0 31.559-25.584 57.143-57.143 57.143s-57.143-25.584-57.143-57.143 25.584-57.143 57.143-57.143 57.143 25.584 57.143 57.143z"/>
            <path id="path5062-8-8-5" stroke-width=".1" stroke="#000" transform="matrix(.11892 0 0 .13546 -35.976 -55.558)" d="m177.14 592.36c0 31.559-25.584 57.143-57.143 57.143s-57.143-25.584-57.143-57.143 25.584-57.143 57.143-57.143 57.143 25.584 57.143 57.143z"/>
            <path id="path5064-5-2-8" d="m177.14 592.36c0 31.559-25.584 57.143-57.143 57.143s-57.143-25.584-57.143-57.143 25.584-57.143 57.143-57.143 57.143 25.584 57.143 57.143z" transform="matrix(.044528 0 0 .044528 -26.134 -5.617)" stroke="#000" stroke-width=".1" fill="#fff"/>
          </g>
          <g id="g5066-7-7-9" transform="matrix(.41061 0 0 .41061 28.22 10.947)">
            <path id="path5068-6-8-0" transform="matrix(.17771 0 0 .17771 -42.905 -80.331)" fill="#fff" d="m177.14 592.36c0 31.559-25.584 57.143-57.143 57.143s-57.143-25.584-57.143-57.143 25.584-57.143 57.143-57.143 57.143 25.584 57.143 57.143z"/>
            <path id="path5070-1-0-0" stroke-width=".1" stroke="#000" transform="matrix(.11892 0 0 .13546 -35.976 -55.558)" d="m177.14 592.36c0 31.559-25.584 57.143-57.143 57.143s-57.143-25.584-57.143-57.143 25.584-57.143 57.143-57.143 57.143 25.584 57.143 57.143z"/>
            <path id="path5072-8-2-0" d="m177.14 592.36c0 31.559-25.584 57.143-57.143 57.143s-57.143-25.584-57.143-57.143 25.584-57.143 57.143-57.143 57.143 25.584 57.143 57.143z" transform="matrix(.044528 0 0 .044528 -26.134 -5.617)" stroke="#000" stroke-width=".1" fill="#fff"/>
          </g>
        </g>
        <path id="path5090" stroke-linejoin="round" d="m731.08-167.19c45.397 33.91 83.886 23.615 120.29 0" stroke="#6b350f" stroke-linecap="round" stroke-width="8.054" fill="none"/>
        <path id="path5046-4-7-2-5-5-7" style="color:#000000" fill-rule="evenodd" fill="#d45589" d="m870.75-370.06c-6.7195 8.8246-10.604 17.216-11.773 31.787-0.88005 10.97-5.1643 18.405-0.55999 24.069 10.217 12.569 5.6989 7.0155 22.479 17.112 9.236 5.557 22.361-1.5152 25.652-1.5152 29.735 0 38.607-23.448 44.384-51.703 3.4082-16.668 12.85-43.429 13.938-57.096-11.553-1.1486-43.751 9.6109-57.291 15.365-12.956 5.5056-30.11 13.157-36.829 21.982z"/>
        <path id="path5046-4-7-2-5-8" style="color:#000000" fill-rule="evenodd" fill="#d48193" d="m872.54-364.58c-6.2618 8.2236-8.7433 17.637-9.8326 31.216-0.82011 10.223-5.2679 18.289-4.6199 20.266 4.701 14.344 2.9728 12.794 20.948 15.946 2.9152 0.5112 21.065-6.307 24.132-6.307 27.71 0 35.749-16.956 41.133-43.286 3.176-15.533 11.975-40.471 12.989-53.207-10.766-1.0704-40.771 8.9563-53.389 14.318-12.074 5.1306-25.099 12.83-31.361 21.054z"/>
        <g id="g5086">
          <path id="path3201-7-0-7" fill-rule="evenodd" fill="#6b350f" d="m844.42-205.93c0 19.686-24.8 35.662-55.358 35.662s-55.358-15.977-55.358-35.662c0-19.686 24.8-35.662 55.358-35.662s55.358 15.977 55.358 35.662z"/>
          <path id="path3201-7-0-7-3" fill-rule="evenodd" fill="#d48193" d="m838.26-205.75c0 17.561-22.124 31.814-49.385 31.814-27.26 0-49.385-14.253-49.385-31.814 0-17.562 22.124-31.814 49.385-31.814s49.385 14.253 49.385 31.814z"/>
          <path id="path3288" transform="translate(618.99 -406.76)" fill="#d45589" d="m160.27 203.46c0 6.2068-5.0316 11.238-11.238 11.238-6.2068 0-11.238-5.0316-11.238-11.238 0-6.2068 5.0316-11.238 11.238-11.238 6.2068 0 11.238 5.0316 11.238 11.238z"/>
          <path id="path3288-3" transform="translate(658.57 -407.25)" fill="#d45589" d="m160.27 203.46c0 6.2068-5.0316 11.238-11.238 11.238-6.2068 0-11.238-5.0316-11.238-11.238 0-6.2068 5.0316-11.238 11.238-11.238 6.2068 0 11.238 5.0316 11.238 11.238z"/>
        </g>
        <path id="path5046-4-7-2-5-0-67" style="color:#000000" fill-rule="evenodd" fill="url(#linearGradient3189)" d="m872.45-344.97c-4.1594 5.4625-5.8078 11.716-6.5313 20.735-0.54476 6.7908-3.9969 12.058-2.8245 12.79 5.8712 3.6642 7.655 4.8338 14.953 11.02 1.4997 1.2712 12.71-3.9451 14.747-3.9451 18.406 0 23.747-11.263 27.323-28.753 2.1097-10.318 7.9545-26.883 8.6277-35.343-7.1514-0.71098-27.082 5.9492-35.464 9.5108-8.02 3.408-16.672 8.5226-20.832 13.985z"/>
      </g>
      <g id="g3772" transform="matrix(1.2547 .078101 -.066817 .99130 314.59 -757.14)">
        <path id="path3770" d="m4.375 241.15 6.75-5.125 6.375-6.75 8.25-3.125 3.875-11 4.625-2 8.375 4.5 5.875-10 5.875-1.75 5.875 8.875 2.5 14.625 7.25-1.5 3.125 2.625-4 8.5 7.375 11.25-4.625 3.5 1.625 5 6.25 6.625 1.875 8.625-4.625 4.125-7.375-4.25 1.25 10.875-2.75 3.25-7-0.125-5.25-8.375-1.25 11.25-5 4.25-5.5 0.25-6.125-3.625-1.75-7.25-2.875 6.75-7.875 1.625-4.375-2.125-2.875-7.625-0.125-9.75-7.875-3.125-5.5-1.875-2.375-5.875 3.375-5.125-0.5-3-2.875-5.375z" transform="translate(123.16 269.73)" stroke="#000" stroke-width="1px" fill="#fff"/>
        <path id="path3000" d="m185.25 189.02 5.5-6.75 5.75 4.25 6.25 2.5 3.75-7 2-5.25 0.25-6.5 5.25-3.25 9.25-13 7-2.75 6.25-3 6-2 4.75-4 5.25-10 11.25-3.25 4.5-0.5 4.25-3 7.5 4.25 4-0.25 3.25-8 5.5 7 7 6.75 12.5 4.75 8.25 3.75 6.75 5 8.25 6.25 6.5-0.25 4.25 6 6.5 3.25 7.5-5 7-2.75-2-12.75 1-2.75 7.25 3.25 4-3.25-5-12.75h10l4.25-2.75-6-7.25-13.75-8-9-18.5-3.75-3.75-21-4-13-1.75-4.75-5.75-2.5-0.5-5.75 5.5-27.75-8.25-4.25-3.5-3.25-7.25-4.5-2-3.25 2.5-3 10-0.75-0.5-7.5-4.25-4 0.5-2.5 8-4.75 1-13.75-6.5-1.75 1.5-0.5 12-6.5-0.75-4.5 2.75 0.25 3.75-11.75 2.75-10.75 5.75-4.75 3.75-7-2.5-2.75 6.5-7.75 0.5-3.75 2.75 3 12-4.5 1.75-4.75 1.75-1.75 5.75 2.25 7.25-2.25 6.25 5.75 3.25-1.5 10 4.75 13.25 4.5 5.25 1.25 8.25 4.75 4.25z" transform="translate(123.16 269.73)" stroke="#000" stroke-width="1px" fill="#fff"/>
        <path id="path3698" d="m463.26 348.65c-3.5105-8.2316-56.071-68.571-97.143-74.286-41.175-5.7287-70 26.429-75.714 31.429-5.7143 5-27.857 62.857-27.857 62.857l-19.286 65-12.857 29.286-12.143 19.286-10 11.429-16.429 7.1429s1.875-3.4821 4.375 0.80357-11.875 13.571 10.625 17.321c22.626 3.7711 43.214-4.5536 70-19.554s27.5-30.893 32.143-41.429c4.6429-10.536-13.571-0.71428-13.571-0.71428l-1.4286-10.714-6.4286-14.286-7.1429-30.714 7.1429-7.8571 4.2857-3.5714-3.5714-10.714 50.714-21.429 11.429-15.714 16.429 6.4286 5.7143-11.429 12.143 5 5-11.429 5-0.71429 4.2857 12.857 30.714 7.8572 5.7143-7.1429 6.4286 8.5714c-4.6046-5.2185 24.939 4.6602 21.429-3.5714z" fill-rule="evenodd" stroke="#000" stroke-width="1px" fill="#f00"/>
        <path id="path2801" d="m176.9 566.02c1.2224-0.85619 2.2225-2.3761 2.2225-3.3776 0-3.3841 2.098-3.9915 8.3122-2.4066 6.9473 1.7719 8.2258 1.094 9.4228-4.9972 0.79306-4.0353 0.94787-4.1714 5.0889-4.4718 3.4949-0.25352 4.4441-0.76507 5.2235-2.8151 1.2446-3.2734 1.2188-8.0925-0.0475-8.8751-0.55-0.33992-1-1.7108-1-3.0465 0-1.7457-1.1246-3.1384-4-4.9535-4.5759-2.8887-4.9209-4.3095-1.75-7.2084 1.6637-1.521 4.2044-2.225 9.75-2.7018 14.153-1.2166 21.504-2.2504 24.315-3.4194 1.5483-0.64378 4.8838-1.1705 7.4121-1.1705 4.2096 0 11.12-1.5383 18.773-4.1792 1.65-0.56937 4.814-1.3507 7.0311-1.7363 4.1293-0.71812 9.9647-4.3284 10.889-6.7367 0.28448-0.74134 1.1341-1.3479 1.888-1.3479 0.75392 0 3.0362-1.8 5.0717-4s4.3756-4 5.2002-4c1.8261 0 9.4201-7.566 9.4201-9.3854 0-0.71754 0.9-2.1191 2-3.1146 1.1-0.99549 2-2.2531 2-2.7947 0-0.54163 0.70023-1.4968 1.5561-2.1226 0.85584-0.62581 1.9165-3.6004 2.357-6.6102 0.44049-3.0098 1.5375-6.8224 2.4378-8.4724 0.90028-1.65 1.6396-3.5359 1.643-4.191 0.0115-2.2264 2.012-2.441 4.763-0.51106 3.5261 2.4737 9.9076 4.5448 11.784 3.8246 0.81051-0.31102 1.4588-1.838 1.4588-3.4362 0-1.5826 0.87781-3.6708 1.9516-4.6426 1.3486-1.2204 2.0438-3.354 2.25-6.905 0.26865-4.6266 0.54761-5.1728 2.7984-5.48 3.1841-0.43453 6-2.933 6-5.3236 0-1.0201 0.94108-2.6379 2.0913-3.595 1.1502-0.95711 2.507-2.7998 3.015-4.0948 0.72634-1.8515 1.4339-2.2266 3.311-1.7555 4.5066 1.1311 8.6973-0.43304 10.1-3.7698 1.1573-2.7523 1.6912-3.052 4.9399-2.7721 4.0045 0.34501 6.5424-1.1429 6.5424-3.8356 0-0.95848 0.85592-2.8308 1.902-4.1607s2.0586-3.5114 2.25-4.8478c0.39218-2.7386 4.3094-4.1185 11.473-4.0415 2.4971 0.0269 4.6171-0.5489 5.3724-1.459 1.5951-1.922 3.463-1.9031 6.4672 0.0653 3.3956 2.2249 8.7788 1.5166 10.023-1.3186 1.1002-2.5078 2.5129-2.9948 2.5129-0.86636 0 1.7124 7.5041 8.6164 9.3654 8.6164 0.74778 0 3.0584 1.35 5.1346 3 2.6969 2.1432 4.8589 3 7.5701 3 2.886 0 3.9436 0.4677 4.4148 1.9523 0.35544 1.1199 3.2622 3.2067 6.8174 4.8942 3.4088 1.618 7.2451 4.158 8.5252 5.6444 1.9637 2.2801 2.8541 2.6038 5.696 2.0707 2.7675-0.51918 3.5679-0.25927 4.4863 1.4568 2.7519 5.142 12.38 7.7484 16.12 4.3638 0.98328-0.88986 3.2523-1.9174 5.0423-2.2835 4.8508-0.9921 7.052-5.2863 5.5581-10.843-1.4224-5.2912-0.33919-6.8172 3.7385-5.2669 6.004 2.2827 9.2215-2.2196 6.1656-8.6278-2.7563-5.78-2.3094-6.7248 2.8464-6.0182 3.778 0.51784 4.798 0.27419 6.5-1.5526 2.5468-2.7337 2.5315-3.0172-0.41517-7.685-2.6219-4.1534-6.5388-7.6439-9.7054-8.6489-2.9247-0.92826-1.829-3.778 1.7327-4.5064 1.6947-0.3466 3.6045-0.95355 4.244-1.3488 1.6193-1.0008 1.4526-4.1151-0.29807-5.568-2.1383-1.7746-8.9357-2.4386-12.444-1.2155-2.8156 0.98154-3.214 0.82112-5.2834-2.1277-1.231-1.7541-2.8208-3.6393-3.5328-4.1893-0.71208-0.55-2.0786-2.575-3.0367-4.5-1.4265-2.8661-2.425-3.5906-5.5132-4-2.6044-0.3453-4.306-1.3021-5.5-3.0926-0.95087-1.4259-2.6288-3.9091-3.7288-5.5183-1.1-1.6091-5.2289-5.8425-9.1754-9.4074-3.9465-3.565-7.4628-7.4148-7.8141-8.5553-0.57858-1.8784-9.5521-10.765-24.607-24.369-3.0782-2.7815-6.3248-5.0572-7.2148-5.0572-0.89001 0-2.0783-0.85978-2.6407-1.9106-0.56239-1.0508-2.7157-2.9318-4.7852-4.18s-5.4177-3.5505-7.4405-5.1162c-2.0228-1.5658-5.1728-3.346-7-3.9561-1.8272-0.61006-4.4472-2.0777-5.8222-3.2615s-5.875-3.6494-10-5.4791c-4.125-1.8298-8.9721-4.026-10.771-4.8806-2.7676-1.3145-4.2481-1.3738-9.6153-0.3848-3.4892 0.64291-7.7904 1.1689-9.5582 1.1689-3.1348 0-13.893 3.6735-19.21 6.5593-1.4599 0.79241-3.2762 1.4407-4.0363 1.4407-0.76012 0-6.9912 2.8963-13.847 6.4361-11.199 5.7823-13.184 7.2299-19.548 14.25-8.2441 9.0942-15.688 19.741-18.397 26.314-0.56682 1.375-1.7529 3.7798-2.6358 5.344-0.88286 1.5642-2.1838 5.1642-2.891 8-1.3832 5.5463-3.2322 11.101-4.6241 13.892-0.47628 0.95504-0.86596 2.616-0.86596 3.691s-0.41084 2.2085-0.91299 2.5188c-0.50214 0.31034-1.2304 2.4744-1.6182 4.809-0.38789 2.3346-1.3196 5.4455-2.0704 6.913-2.0336 3.9746-6.3453 17.609-7.0398 22.261-0.5963 3.9942-5.1841 16.599-7.8674 21.615-0.74849 1.3992-1.9023 5.6742-2.564 9.5-0.70921 4.1002-2.994 10.695-5.5652 16.064-2.3991 5.0093-4.362 9.6988-4.362 10.421 0 0.72242-0.60089 2.0239-1.3353 2.8922-0.73441 0.86831-1.9417 3.1537-2.6828 5.0787-0.74112 1.925-2.3902 4.772-3.6647 6.3267s-2.3172 3.2897-2.3172 3.8556-1.125 2.3659-2.5 4-2.5 3.516-2.5 4.182c0 0.66597-2.2853 3.444-5.0785 6.1733s-5.6963 6.1353-6.4514 7.5688c-0.93868 1.782-2.7948 3.0045-5.8678 3.8649-4.1239 1.1546-4.7166 1.084-7.1834-0.85644-1.4788-1.1632-3.2944-2.1149-4.0348-2.1149-0.74035 0-1.6001-1.2375-1.9106-2.75-1.5723-7.6592-2.8306-10.356-6.8429-14.664-4.356-4.6776-4.3871-4.6909-7.7484-3.3194-2.6178 1.0682-3.8159 2.4825-5.3414 6.3053-1.0816 2.7106-2.1015 5.1214-2.2664 5.3575-0.16486 0.23608-1.8844-0.32642-3.8211-1.25-1.9368-0.92357-4.3716-1.6792-5.4107-1.6792-3.0951 0-7.7706 4.689-8.7315 8.7566-0.74163 3.1395-1.6381 4.1016-5.5571 5.9644-2.7796 1.3211-5.2779 3.3911-6.1663 5.1091-0.82144 1.5885-2.8203 3.4378-4.4419 4.1094-4.9295 2.0419-7.3824 5.4661-7.9195 11.056-0.381 3.9651-0.092 5.496 1.3353 7.0732 1.7236 1.9045 1.7306 2.1669 0.1299 4.8766-1.8887 3.1973-2.1844 7.266-0.72613 9.9908 0.53105 0.99227 3.5686 2.8363 6.75 4.0978 7.9431 3.1496 8.2845 3.5257 8.2845 9.1289 0 6.2947 3.0771 12.568 6.5982 13.452 1.4156 0.35531 5.4658 0.41387 9.0003 0.13016 5.0576-0.40598 7.2143-0.11417 10.125 1.37 4.496 2.2922 9.0725 2.4172 12.054 0.32915zm-12.255-6.0031c-2.4258-3.1804-2.5881-3.8668-1.5224-6.4396 1.3752-3.3199 0.69504-5.0005-2.0236-5.0005-2.3333 0-3.9762 2.8505-3.9762 6.8991 0 4.7145-6.1988 6.8739-10.559 3.6782-1.6611-1.2175-1.9411-2.6651-1.9411-10.035 0-9.6512-0.58652-10.58-6.5391-10.361-9.7701 0.36023-13.899-8.219-4.8462-10.07 3.5047-0.71678 5.4935-4.1104 2.409-4.1104-0.89264 0-2.9506-0.68656-4.5733-1.5257-2.4168-1.2498-2.9503-2.1603-2.9503-5.0352 0-4.0864 2.5129-8.442 4.865-8.4326 0.89924 0.004 2.985 0.90066 4.635 1.9934 6.402 4.2399 9.8324 1.0016 4.6276-4.3684-2.7646-2.8524-2.9772-3.455-1.7912-5.0771 1.1943-1.6333 2.2498-1.7617 9.3757-1.1401 9.8569 0.85983 11.076-0.42023 5.8906-6.1868-2.7079-3.0116-3.1884-4.1641-2.5012-5.9998 2.0009-5.3453 8.0846-3.2925 11.102 3.7461 3.6134 8.4297 6.7969 7.2441 6.7969-2.5312 0-12.273 3.5145-14.916 9.0094-6.7735 3.3367 4.944 3.4698 6.8244 1.4277 20.168-1.1362 7.424 2.062 7.9473 6.8034 1.1133 1.5073-2.1725 3.1948-3.95 3.75-3.95 1.8047 0 1.0684 2.7766-1.5667 5.9082-3.0042 3.5703-2.8535 6.4563 0.36107 6.9146 2.6219 0.37374 5.9662 4.8369 4.6138 6.1573-0.49426 0.48255-2.47 1.0219-4.3905 1.1986-5.5237 0.50827-5.0904 3.1529 1.1744 7.167 8.6379 5.5346 13.755 15.662 8.3075 16.442-1.2746 0.1827-3.4524-1.1892-5.9529-3.75-5.7672-5.9062-10.122-4.9123-6.0051 1.3706 2.3026 3.5143 3.0555 11.859 1.2082 13.392-2.478 2.0566-4.5615 0.30385-6.7078-5.6432-2.7364-7.582-3.3933-8.6058-5.748-8.9589-1.9224-0.28832-1.9896 0.11274-1.5206 9.0773 0.48649 9.3008 0.46755 9.3971-2.2715 11.552-3.8544 3.0319-5.833 2.7259-8.9702-1.3872zm33.924-45.622c-3.0482-2.6764-3.5313-3.6423-3.043-6.0842 0.78769-3.9385 4.3428-8.7344 6.4746-8.7344 1.9728 0 17.496-14.671 21.161-20 1.324-1.925 3.1487-4.3098 4.0549-5.2995 0.9062-0.98972 2.4204-3.6897 3.3648-6 0.94446-2.3103 4.4358-10.05 7.7586-17.2 7.2694-15.643 7.6212-16.46 12.26-28.5 2.013-5.225 4.3043-10.978 5.0919-12.784 0.78754-1.8062 1.4319-4.2492 1.4319-5.429 0-2.163 1.1674-6.3482 3.5666-12.787 0.7173-1.925 1.7599-5.75 2.3168-8.5 2.8191-13.919 5.8445-25.618 8.2453-31.883 1.0292-2.6858 1.8712-5.7346 1.8712-6.775s1.575-5.0191 3.5-8.8417c1.925-3.8225 3.5-7.5812 3.5-8.3526 0-0.77139 0.62443-1.9208 1.3876-2.5541 0.76319-0.63339 2.7378-3.951 4.3881-7.3724 2.2344-4.6325 5.5465-8.7103 12.972-15.971 5.4845-5.3625 10.498-9.75 11.14-9.75 1.5273 0 16.172-6.8841 18.112-8.5139 1.7151-1.441 12.228-4.6608 22.5-6.891 9.8055-2.129 23.197-0.0629 30.316 4.6772 2.0264 1.3493 6.6094 4.1103 10.184 6.1356 13.426 7.6062 29.296 18.597 34.588 23.954 2.2484 2.2761 10.519 10.213 18.379 17.638 7.8599 7.425 15.004 14.581 15.876 15.902 1.5012 2.2738 1.4576 2.4868-0.82056 4-2.8484 1.8921-14.023 2.4564-14.023 0.70822 0-1.3791-6.6586-7.6099-8.1324-7.6099-0.58582 0-2.3262 1.35-3.8676 3-3.535 3.7843-7.8942 3.9486-15.228 0.57403-2.8997-1.3343-7.8596-3.1762-11.022-4.0931-3.1625-0.9169-5.75-2.1635-5.75-2.7703 0-2.2541-5.2447-8.5694-8.0984-9.7514-2.5538-1.0578-3.2339-0.96882-5.0342 0.65885-1.1448 1.035-2.7647 3.5881-3.5997 5.6735s-1.7993 3.6486-2.143 3.4739c-0.34363-0.17472-2.3051-1.1733-4.3587-2.2192-3.2674-1.6639-4.0517-1.7314-6.277-0.54049-1.3987 0.74854-2.7964 2.3703-3.106 3.604-0.30962 1.2336-1.3246 2.9323-2.2555 3.7747-1.5287 1.3834-2.1735 1.3016-6.6601-0.84508-10.182-4.8716-11.802-4.3775-13.997 4.2663-1.1061 4.357-1.4607 4.738-4.9354 5.3037-3.6079 0.5874-5.4879 2.1314-5.52 4.5335-0.02 1.4902-2.3833 2.357-6.4263 2.357-2.211 0-4.9774 1.27-8.6682 3.9794-8.7073 6.3919-9.3583 6.6083-12.485 4.1489-1.4881-1.1705-3.7002-2.1283-4.9158-2.1283-2.7206 0-6.1254 3.5783-5.723 6.0147 0.21149 1.2808-0.68999 2.1249-3.1291 2.9298-6.623 2.1858-7.5247 4.7038-5.1228 14.305 0.53136 2.1241 0.33071 2.75-0.8816 2.75-5.7124 0-9.4297 5.3774-8.111 11.733 0.9445 4.5523 0.70907 6.2714-1.1429 8.3454-1.4929 1.6718-1.8786 6.7258-0.64444 8.4444 0.40408 0.5627 1.9722 1.8106 3.4847 2.773 2.2786 1.45 2.7554 2.4745 2.7818 5.9769 0.0175 2.3248 0.6925 5.1005 1.5 6.1681 0.80751 1.0676 1.4682 3.1625 1.4682 4.6554 0 1.6374 1.3886 4.3763 3.5 6.9035 1.925 2.3041 3.5 5.294 3.5 6.6443 0 6.3074 5.3483 10.845 9.9069 8.4056 2.7612-1.4777 2.7648 0.16679 0.0157 7.1631-2.1568 5.489-8.8973 14.15-16.825 21.618-7.3986 6.9698-8.4654 7.552-22.239 12.138-3.1028 1.0331-6.4778 2.3449-7.5 2.9151-6.2543 3.4888-17.768 7.507-23.351 8.1492-3.5794 0.41175-7.7748 1.2477-9.3231 1.8576-1.5483 0.60996-6.2733 1.1159-10.5 1.1243-4.2267 0.008-8.3599 0.45153-9.1849 0.98469-2.207 1.4263-2.5901 1.2988-6.5539-2.1815zm118.03-64.91c-0.378-1.191-1.5226-1.9105-3.039-1.9105-1.8818 0-2.4326 0.52835-2.4326 2.3333 0 3.6482-1.1905 3.9606-3.5961 0.94372l-2.2118-2.7739-1.8461 3.2421c-3.1907 5.6036-6.8569 3.3018-5.7515-3.611 0.60289-3.7702 0.44715-4.1679-1.9959-5.0968-4.2751-1.6254-4.3474-3.8529-0.25065-7.7179 2.0086-1.895 3.6521-3.7772 3.6521-4.1825 0-1.8624-2.5002-2.8796-5.9426-2.4179-4.8712 0.65337-6.1181-1.7932-3.0374-5.96 2.5886-3.5013 2.2474-6.8279-0.85845-8.3704-1.4233-0.70686-1.9125-1.4246-1.25-1.834 1.7811-1.1008 1.2491-3.9484-1.4115-7.5547-4.8794-6.6136-2.5802-9.2986 5.6784-6.6314 7.3037 2.3588 8.4658 2.1606 9.2122-1.5714 0.57661-2.8831 0.11839-3.7315-4.5901-8.4992-4.8979-4.9595-5.1238-5.4032-3.5511-6.9759 1.4108-1.4108 2.2567-1.5023 5.2867-0.5724 3.128 0.96002 3.8634 0.85092 5.5356-0.8213 1.0606-1.0606 1.9284-2.6559 1.9284-3.545 0-1.5942 1.1612-1.5762 5.1727 0.0805 1.0863 0.4486 2.3133-0.0507 3.5-1.4243 5.6224-6.5078 9.7271-9.5417 14.595-10.787 3.9821-1.0191 5.7907-1.0564 7.945-0.16409 3.7865 1.5684 6.1878-0.33624 5.3987-4.282-0.65361-3.268 1.0546-3.7264 4.7831-1.2833 3.0218 1.9799 5.9253 0.92493 5.2519-1.9082-1.4837-6.2418-1.8122-11.614-0.71003-11.614 2.0763 0 6.4949 2.7489 9.501 5.9107 3.3364 3.5093 5.0297 3.861 6.4473 1.3393 0.57309-1.0194 2.1593-1.75 3.7997-1.75 2.6759 0 2.8065-0.21137 2.6266-4.25-0.24728-5.551 1.6935-5.6223 6.8041-0.25 5.1346 5.3976 7.3611 5.3777 6.4919-0.0581-0.74731-4.6734 2.4396-13.423 4.6264-12.702 1.9384 0.63947 3.7357 4.8595 3.7521 8.81 0.021 5.0653 1.4159 5.95 9.3817 5.95 6.0827 0 7.7751 0.44422 13.334 3.5 8.6344 4.7461 12.595 4.6652 15.217-0.31077 1.9319-3.667 3.5412-2.1127 3.22 3.11-0.42181 6.8594 0.43067 8.7008 4.0282 8.7008 2.0708 0 3.909-0.93951 5.801-2.9649 3.1837-3.4081 4.0328-3.058 4.0328 1.663 0 4.7608 2.3783 5.2969 6.3635 1.4342 1.7774-1.7228 3.7674-3.1323 4.4223-3.1323 0.65482 0 1.477 1.7915 1.8272 3.9811 1.0704 6.6941 2.835 7.0766 7.7831 1.6871 4.7438-5.1669 6.025-5.6183 7.5991-2.6772 0.80029 1.4954 0.68459 2.7276-0.46482 4.9503-2.0485 3.9613-1.9293 5.0587 0.54911 5.0587 1.8006 0 1.9891 0.41148 1.4054 3.0689-0.56572 2.5757-0.33742 3.1569 1.4205 3.6166 1.152 0.30126 2.0946 1.1336 2.0946 1.8496 0 0.71601 2.8813 2.2607 6.4028 3.4326 7.2433 2.4104 15.869 7.7081 15.313 9.4048-0.59218 1.8064-5.5558 1.9086-9.8205 0.2022-8.1483-3.2603-8.8272-1.4624-2.8949 7.6672 6.0628 9.3305 5.4135 10.657-2.9414 6.0082-3.9332-2.1885-5.197-2.4971-6.1892-1.5113-0.99504 0.9886-0.6995 2.791 1.4639 8.928 3.2934 9.3424 2.4013 11.407-2.7655 6.3991-4.7789-4.6319-6.5679-3.705-6.5679 3.4028 0 3.0423-0.4132 5.5314-0.91821 5.5314-4.5025 0-7.4666-5.2511-6.5215-11.553 0.61169-4.079 0.49073-4.4466-1.4629-4.4466-1.4494 0-2.6629 1.1181-3.7988 3.5-3.0667 6.4309-7.9988 3.6546-6.8708-3.8675 0.53028-3.5362 0.34136-4.5071-0.97533-5.0123-1.8921-0.72607-3.421 0.0206-5.2592 2.5686-2.7946 3.8736-8.1933 0.72908-8.1933-4.7724 0-1.8005-0.76769-4.0413-1.706-4.9796-1.608-1.608-1.8563-1.5259-4.3228 1.4286-1.4393 1.724-3.0984 3.1346-3.687 3.1346-1.5353 0-2.2542-2.4364-1.207-4.0907 1.3053-2.0619 1.1224-3.5668-0.64864-5.3379-2.2454-2.2454-3.9368-1.946-5.2466 0.92857-3.1699 6.9572-11.06-2.2644-12.407-14.5-0.18515-1.6824-0.88985-2.5-2.1548-2.5-1.8058 0-3.2752 3.3415-5.0567 11.5-1.0511 4.8136-2.1793 5.6535-4.6477 3.4602-1.2134-1.0781-3.0738-3.8994-4.1341-6.2695-2.6477-5.9183-5.1684-5.4363-5.5866 1.0682-0.16764 2.6076-0.74531 4.741-1.2837 4.741-0.53841 0-1.9212-1.5969-3.0728-3.5488-2.859-4.8457-5.2422-4.2712-5.6489 1.3619-0.3713 5.1427-2.351 6.3236-5.5552 3.3134-3.366-3.1622-4.6347-2.6718-4.6347 1.7917 0 6.744-0.66857 7.4749-4.6753 5.1109-1.8915-1.116-3.8633-2.0291-4.3819-2.0291-1.7559 0-0.95543 3.5944 1.5596 7.0033 1.4208 1.9258 2.126 3.7682 1.6316 4.2627-1.0216 1.0216-6.1644-1.2039-11.032-4.7739-6.2828-4.608-8.8544-2.2281-4.7013 4.3508l2.5434 4.029-6.3948-0.46737c-5.8116-0.42474-6.455-0.27764-7.0551 1.613-0.39854 1.2557-0.001 3.0863 1.0026 4.6181 2.0522 3.132 1.2764 4.1161-1.9031 2.4145-4.2653-2.2827-5.736 1.1022-3.1283 7.1998 0.59988 1.4027 0.24641 1.75-1.781 1.75-3.2812 0-5.181 5.204-4.2256 11.575 0.75541 5.0374-0.49477 5.8262-3.0509 1.925-1.9203-2.9308-3.9559-3.2134-5.283-0.73356-0.64303 1.2015-0.50571 2.5607 0.42938 4.25 0.75611 1.366 1.3907 2.8314 1.4102 3.2566 0.0676 1.4751-4.8898-2.4621-5.493-4.3625z"/>
      </g>
    </g>
  </g>
  <metadata>
    <rdf:RDF>
      <cc:Work>
        <dc:format>image/svg+xml</dc:format>
        <dc:type rdf:resource="http://purl.org/dc/dcmitype/StillImage"/>
        <cc:license rdf:resource="http://creativecommons.org/licenses/publicdomain/"/>
        <dc:publisher>
          <cc:Agent rdf:about="http://openclipart.org/">
            <dc:title>Openclipart</dc:title>
          </cc:Agent>
        </dc:publisher>
        <dc:title>Funny piggy face with Santa Claus hat</dc:title>
        <dc:date>2010-12-25T00:35:53</dc:date>
        <dc:description>Funny piggy face with Santa Claus hat - Dr&#xF4;le de museau de petit cochon avec bonnet du P&#xE8;re No&#xEB;l - Lustige Schweinchen Gesicht mit Weihnachtsmann Hut - Musetto di porcellino divertente con berretto del Babbo Natale (partially remixed from "Martouf" and "stephantom" work)</dc:description>
        <dc:source>http://openclipart.org/detail/101863/funny-piggy-face-with-santa-claus-hat-by-palomaironique</dc:source>
        <dc:creator>
          <cc:Agent>
            <dc:title>palomaironique</dc:title>
          </cc:Agent>
        </dc:creator>
        <dc:subject>
          <rdf:Bag>
            <rdf:li>Bild</rdf:li>
            <rdf:li>Christmas</rdf:li>
            <rdf:li>Claus</rdf:li>
            <rdf:li>Ferkel</rdf:li>
            <rdf:li>Festtage</rdf:li>
            <rdf:li>Fleisch</rdf:li>
            <rdf:li>Gesicht</rdf:li>
            <rdf:li>Grafik</rdf:li>
            <rdf:li>Greetings</rdf:li>
            <rdf:li>Hombre</rdf:li>
            <rdf:li>Hut</rdf:li>
            <rdf:li>Ikone</rdf:li>
            <rdf:li>Kopf</rdf:li>
            <rdf:li>Man</rdf:li>
            <rdf:li>Medien</rdf:li>
            <rdf:li>M&#xFC;tze</rdf:li>
            <rdf:li>Nase</rdf:li>
            <rdf:li>Natale</rdf:li>
            <rdf:li>Navidad</rdf:li>
            <rdf:li>No&#xEB;l</rdf:li>
            <rdf:li>Ostern</rdf:li>
            <rdf:li>Pl&#xFC;sch</rdf:li>
            <rdf:li>Santa</rdf:li>
            <rdf:li>Sau</rdf:li>
            <rdf:li>Schwein</rdf:li>
            <rdf:li>Schweinchen</rdf:li>
            <rdf:li>Schweinefleisch</rdf:li>
            <rdf:li>Season</rdf:li>
            <rdf:li>Spielzeug</rdf:li>
            <rdf:li>Symbol</rdf:li>
            <rdf:li>S&#xE4;ugetier</rdf:li>
            <rdf:li>Tier</rdf:li>
            <rdf:li>Vektor</rdf:li>
            <rdf:li>Weihnachten</rdf:li>
            <rdf:li>Weihnachtsgr&#xFC;sse</rdf:li>
            <rdf:li>Weihnachtsmann</rdf:li>
            <rdf:li>Zeichen</rdf:li>
            <rdf:li>animal</rdf:li>
            <rdf:li>animale</rdf:li>
            <rdf:li>auguri</rdf:li>
            <rdf:li>babbo</rdf:li>
            <rdf:li>berretto</rdf:li>
            <rdf:li>bonnet</rdf:li>
            <rdf:li>buone</rdf:li>
            <rdf:li>cappello</rdf:li>
            <rdf:li>carne</rdf:li>
            <rdf:li>cartoon</rdf:li>
            <rdf:li>chapeau</rdf:li>
            <rdf:li>clip art</rdf:li>
            <rdf:li>clipart</rdf:li>
            <rdf:li>cochon</rdf:li>
            <rdf:li>comics</rdf:li>
            <rdf:li>domain</rdf:li>
            <rdf:li>domaine</rdf:li>
            <rdf:li>faccia</rdf:li>
            <rdf:li>faccina</rdf:li>
            <rdf:li>face</rdf:li>
            <rdf:li>feliz</rdf:li>
            <rdf:li>feste</rdf:li>
            <rdf:li>frohe</rdf:li>
            <rdf:li>fumetti</rdf:li>
            <rdf:li>fumetto</rdf:li>
            <rdf:li>f&#xEA;tes</rdf:li>
            <rdf:li>giocattolo</rdf:li>
            <rdf:li>giochi</rdf:li>
            <rdf:li>grafica</rdf:li>
            <rdf:li>graphic</rdf:li>
            <rdf:li>graphique</rdf:li>
            <rdf:li>hat</rdf:li>
            <rdf:li>head</rdf:li>
            <rdf:li>icon</rdf:li>
            <rdf:li>icona</rdf:li>
            <rdf:li>ic&#xF4;ne</rdf:li>
            <rdf:li>image</rdf:li>
            <rdf:li>immagine</rdf:li>
            <rdf:li>jouet</rdf:li>
            <rdf:li>joyeuses</rdf:li>
            <rdf:li>maiale</rdf:li>
            <rdf:li>maialino</rdf:li>
            <rdf:li>mammal</rdf:li>
            <rdf:li>mammifero</rdf:li>
            <rdf:li>mammif&#xE8;re</rdf:li>
            <rdf:li>meat</rdf:li>
            <rdf:li>media</rdf:li>
            <rdf:li>meilleurs</rdf:li>
            <rdf:li>museau</rdf:li>
            <rdf:li>musetto</rdf:li>
            <rdf:li>muso</rdf:li>
            <rdf:li>peluche</rdf:li>
            <rdf:li>pig</rdf:li>
            <rdf:li>piggy</rdf:li>
            <rdf:li>piglet</rdf:li>
            <rdf:li>plush</rdf:li>
            <rdf:li>porc</rdf:li>
            <rdf:li>porcelet</rdf:li>
            <rdf:li>porcellino</rdf:li>
            <rdf:li>porcello</rdf:li>
            <rdf:li>porcin</rdf:li>
            <rdf:li>porco</rdf:li>
            <rdf:li>pork</rdf:li>
            <rdf:li>public</rdf:li>
            <rdf:li>p&#xE8;re</rdf:li>
            <rdf:li>saludos</rdf:li>
            <rdf:li>scrofa</rdf:li>
            <rdf:li>signe</rdf:li>
            <rdf:li>snuggy</rdf:li>
            <rdf:li>sombrero</rdf:li>
            <rdf:li>sow</rdf:li>
            <rdf:li>svg</rdf:li>
            <rdf:li>symbole</rdf:li>
            <rdf:li>testa</rdf:li>
            <rdf:li>toudou</rdf:li>
            <rdf:li>toy</rdf:li>
            <rdf:li>truie</rdf:li>
            <rdf:li>t&#xEA;te</rdf:li>
            <rdf:li>vecteur</rdf:li>
            <rdf:li>vector</rdf:li>
            <rdf:li>vettore</rdf:li>
            <rdf:li>vettoriale</rdf:li>
            <rdf:li>viande</rdf:li>
            <rdf:li>visage</rdf:li>
            <rdf:li>voeux</rdf:li>
            <rdf:li>v&#x153;ux</rdf:li>
          </rdf:Bag>
        </dc:subject>
      </cc:Work>
      <cc:License rdf:about="http://creativecommons.org/licenses/publicdomain/">
        <cc:permits rdf:resource="http://creativecommons.org/ns#Reproduction"/>
        <cc:permits rdf:resource="http://creativecommons.org/ns#Distribution"/>
        <cc:permits rdf:resource="http://creativecommons.org/ns#DerivativeWorks"/>
      </cc:License>
    </rdf:RDF>
  </metadata>
</svg>
