<svg id="Capa_1" enable-background="new 0 0 512 512" height="512" viewBox="0 0 512 512" width="512" xmlns="http://www.w3.org/2000/svg" xmlns:xlink="http://www.w3.org/1999/xlink"><linearGradient id="SVGID_1_" gradientUnits="userSpaceOnUse" x1="256" x2="256" y1="512" y2="0"><stop offset="0" stop-color="#fd5900"/><stop offset="1" stop-color="#ffde00"/></linearGradient><g><g><path d="m283.426 120 77.567 27.432c4.817 1.704 9.865 2.568 15.007 2.568 24.813 0 45-20.187 45-45v-60c0-24.813-20.187-45-45-45-5.142 0-10.19.864-15.006 2.567l-77.568 27.433h-12.426v-15c0-8.284-6.716-15-15-15s-15 6.716-15 15v15h-12.426l-77.567-27.432c-4.817-1.704-9.865-2.568-15.007-2.568-24.813 0-45 20.187-45 45v60c0 24.813 20.187 45 45 45 5.142 0 10.19-.864 15.006-2.567l77.568-27.433h12.426v30.838c-67.406 7.486-120 64.793-120 134.162v92c0 15.798 1.079 37.07-4.177 42.367-2.159 2.176-7.077 2.633-10.823 2.633-8.284 0-15 6.716-15 15s6.716 15 15 15h105v15c0 24.813 20.187 45 45 45s45-20.187 45-45v-15h105c8.284 0 15-6.716 15-15s-6.716-15-15-15c-3.746 0-8.664-.457-10.823-2.633-5.484-5.527-4.177-29.545-4.177-42.367v-92c0-69.369-52.594-126.676-120-134.162v-30.838zm17.574-64.395 69.997-24.755c1.596-.564 3.278-.85 5.003-.85 8.271 0 15 6.729 15 15v60c0 8.271-6.729 15-15 15-1.725 0-3.407-.286-5.004-.851l-69.996-24.754zm-90 38.79-69.997 24.755c-1.596.564-3.278.85-5.003.85-8.271 0-15-6.729-15-15v-60c0-8.271 6.729-15 15-15 1.725 0 3.407.286 5.004.851l69.996 24.754zm60 372.605c0 8.271-6.729 15-15 15s-15-6.729-15-15v-15h30zm90-182v92c0 15.566-.82 31.825 2.718 45-67.357 0-148.531 0-215.436 0 3.534-13.161 2.718-29.075 2.718-45v-92c0-57.897 47.103-105 105-105s105 47.103 105 105zm-120-195v-30h30v30z" fill="url(#SVGID_1_)"/></g></g></svg>