<svg id="Capa_1" enable-background="new 0 0 512 512" height="512" viewBox="0 0 512 512" width="512" xmlns="http://www.w3.org/2000/svg" xmlns:xlink="http://www.w3.org/1999/xlink"><linearGradient id="SVGID_1_" gradientUnits="userSpaceOnUse" x1="256" x2="256" y1="512" y2="0"><stop offset="0" stop-color="#5558ff"/><stop offset="1" stop-color="#00c0ff"/></linearGradient><g><g><path d="m497 211h-15v-15c0-8.284-6.716-15-15-15s-15 6.716-15 15v21.708l-58.649 36.834c-.768-1.148-1.552-2.288-2.351-3.42v-55.122c0-8.284-6.716-15-15-15h-46.596c16.103-15.764 27.165-36.652 30.52-60h16.076c8.284 0 15-6.716 15-15s-6.716-15-15-15h-16.056c-7.24-51.37-51.09-91-103.944-91-57.897 0-105 47.551-105 106 0 29.354 12.113 55.927 31.596 75h-46.596c-8.284 0-15 6.716-15 15v55.122c-.798 1.133-1.583 2.272-2.351 3.42l-58.649-36.834v-21.708c0-8.284-6.716-15-15-15s-15 6.716-15 15v15h-15c-8.284 0-15 6.716-15 15s6.716 15 15 15h25.68l63.607 39.948c-8.752 20.354-13.287 42.345-13.287 65.052 0 91.533 74.019 166 165 166s165-74.467 165-166c0-22.707-4.535-44.699-13.288-65.052l63.608-39.948h25.68c8.284 0 15-6.716 15-15s-6.716-15-15-15zm-316-105c0-41.906 33.645-76 75-76 36.289 0 66.634 26.254 73.526 61h-43.526c-8.284 0-15 6.716-15 15s6.716 14.99 15 14.99l43.491.01c-6.968 34.192-37.271 60-73.491 60-41.355 0-75-33.645-75-75zm-30 105h210v30h-210zm90 60v90h-30v-90zm15 211c-74.439 0-135-61.009-135-136 0-27.022 7.859-52.791 22.757-75h37.243v135c0 8.284 6.716 15 15 15s15-6.716 15-15v-15h30v15c0 8.284 6.716 15 15 15s15-6.716 15-15c0-16.905 0-120.523 0-135h97.243c14.898 22.209 22.757 47.978 22.757 75 0 74.991-60.561 136-135 136z" fill="url(#SVGID_1_)"/></g></g></svg>