<svg id="Capa_1" enable-background="new 0 0 512 512" height="512" viewBox="0 0 512 512" width="512" xmlns="http://www.w3.org/2000/svg" xmlns:xlink="http://www.w3.org/1999/xlink"><linearGradient id="SVGID_1_" gradientUnits="userSpaceOnUse" x1="256" x2="256" y1="451" y2="61"><stop offset="0" stop-color="#fd3a84"/><stop offset="1" stop-color="#ffa68d"/></linearGradient><g><g><path d="m497 361c-8.284 0-15 6.716-15 15 0 24.813-20.187 45-45 45h-45v-60h18.148c22.864 0 42.025-17.062 44.691-39.738l25.111-170.262h17.05c8.284 0 15-6.716 15-15s-6.716-15-15-15h-49.173c-36.813 0-67.927 26.356-73.979 62.67l-9.555 57.33h-63.864c-7.684-100.542-91.952-180-194.429-180h-91c-8.284 0-15 6.716-15 15s6.716 15 15 15h47.574l22.587 203.282c4.227 38.036 36.273 66.718 74.542 66.718h21.297v60h-135c-8.284 0-15 6.716-15 15s6.716 15 15 15h391c41.355 0 75-33.645 75-75 0-8.284-6.716-15-15-15zm-337.297-30c-22.961 0-42.189-17.209-44.725-40.031l-22.219-199.969h13.241c90.981 0 165 74.019 165 165 0 8.284 6.716 15 15 15h91c7.333 0 13.591-5.301 14.796-12.534l11.644-69.864c3.632-21.788 22.3-37.602 44.388-37.602h1.798s-24.549 166.479-24.569 166.657c-.845 7.607-7.254 13.343-14.908 13.343zm202.297 90h-151v-60h151z" fill="url(#SVGID_1_)"/></g></g></svg>