<svg id="Capa_1" enable-background="new 0 0 512 512" height="512" viewBox="0 0 512 512" width="512" xmlns="http://www.w3.org/2000/svg" xmlns:xlink="http://www.w3.org/1999/xlink"><linearGradient id="SVGID_1_" gradientUnits="userSpaceOnUse" x1="256" x2="256" y1="512" y2="0"><stop offset="0" stop-color="#fd5900"/><stop offset="1" stop-color="#ffde00"/></linearGradient><g><g><path d="m419.284 430.033-127.625-243.339 10.261 5.395c2.195 1.154 4.591 1.723 6.979 1.723 3.11 0 6.206-.966 8.818-2.865 4.619-3.356 6.933-9.043 5.968-14.671l-8.77-51.133 37.15-36.213c4.088-3.985 5.56-9.946 3.795-15.376s-6.458-9.388-12.108-10.209l-51.271-7.45-22.982-47.435c-2.507-5.174-7.75-8.46-13.499-8.46s-10.992 3.286-13.499 8.46l-22.981 47.434-51.271 7.45c-5.65.821-10.344 4.779-12.108 10.209s-.293 11.391 3.795 15.376l37.15 36.213-8.77 51.133c-.965 5.628 1.349 11.315 5.968 14.671 4.619 3.355 10.74 3.799 15.797 1.142l10.261-5.395-127.626 243.34c-2.438 4.65-2.269 10.236.448 14.729s7.586 7.238 12.836 7.238h105v45c0 8.284 6.716 15 15 15h60c8.284 0 15-6.716 15-15v-45h105c5.25 0 10.119-2.745 12.836-7.238s2.887-10.079.448-14.729zm-216.644-341.371 29.067-4.224c4.924-.715 9.173-3.826 11.342-8.304l12.951-26.731 12.951 26.732c2.169 4.478 6.418 7.588 11.342 8.304l29.067 4.224-21.033 20.502c-3.535 3.446-5.148 8.411-4.313 13.277l4.965 28.95-25.998-13.668c-.011-.006-.023-.01-.034-.016-2.102-1.098-4.583-1.708-6.947-1.708-2.269 0-4.739.554-6.946 1.708-.011.006-.023.01-.034.016l-25.998 13.668 4.965-28.95c.835-4.866-.778-9.831-4.313-13.277zm68.36 393.338h-30v-30h30zm-140.195-60 125.195-238.705 125.195 238.705c-78.385 0-171.256 0-250.39 0zm110.195-166c0 8.284 6.716 15 15 15s15-6.716 15-15-6.716-15-15-15-15 6.716-15 15zm-15 45c-8.284 0-15 6.716-15 15s6.716 15 15 15 15-6.716 15-15-6.716-15-15-15zm30 60c-8.284 0-15 6.716-15 15s6.716 15 15 15 15-6.716 15-15-6.716-15-15-15zm30-30c8.284 0 15-6.716 15-15s-6.716-15-15-15-15 6.716-15 15 6.716 15 15 15z" fill="url(#SVGID_1_)"/></g></g></svg>