<svg id="Capa_1" enable-background="new 0 0 511.966 511.966" height="512" viewBox="0 0 511.966 511.966" width="512" xmlns="http://www.w3.org/2000/svg" xmlns:xlink="http://www.w3.org/1999/xlink"><linearGradient id="SVGID_1_" gradientUnits="userSpaceOnUse" x1="255.983" x2="255.983" y1="511.966" y2="0"><stop offset="0" stop-color="#fd5900"/><stop offset="1" stop-color="#ffde00"/></linearGradient><g><g><path d="m240.983 83.466c0-8.284-6.716-15-15-15s-15 6.716-15 15 6.716 15 15 15 15-6.716 15-15zm45-15c-8.284 0-15 6.716-15 15s6.716 15 15 15 15-6.716 15-15-6.716-15-15-15zm-30 172.5c-8.284 0-15 6.716-15 15s6.716 15 15 15 15-6.716 15-15-6.716-15-15-15zm0-60c-8.284 0-15 6.716-15 15s6.716 15 15 15 15-6.716 15-15-6.716-15-15-15zm0 120c-8.284 0-15 6.716-15 15s6.716 15 15 15 15-6.716 15-15-6.716-15-15-15zm165-30c33.084 0 60-26.916 60-60s-26.916-60-60-60h-70.355c6.769-14.008 10.355-29.354 10.355-45 0-64.925-58.254-115.527-123.357-104.434-40.84 6.96-75.493 40.713-84.27 82.081-4.936 23.266-2.019 46.696 7.962 67.353h-70.335c-33.084 0-60 26.916-60 60s26.916 60 60 60h60v40.037l-76.058 102.349c-6.292 6.451-13.941 22.497-13.941 38.614 0 33.084 26.916 60 60 60 19.089 0 37.077-9.031 48.117-24.158 14.551-19.916-20.061 26.502 62.774-83.732 5.698-7.583 14.711-12.11 24.109-12.11s18.411 4.527 24.109 12.11c23.461 31.222 56.56 75.227 62.774 83.732 11.04 15.127 29.027 24.158 48.117 24.158 33.084 0 60-26.916 60-60 0-16.175-7.757-32.273-13.941-38.614l-76.059-102.349v-40.037zm0-90c16.542 0 30 13.458 30 30s-13.458 30-30 30zm-330 60c-16.542 0-30-13.458-30-30s13.458-30 30-30zm52.733 231.02c.271-.527.543-.975.784-1.336l.036.024c-.332.499-.6.929-.82 1.312zm1.177-1.844-.026-.019c-5.413 7.416-14.341 11.844-23.884 11.844-16.542 0-30-13.458-30-30 0-7.542 3.232-13.901 4.955-16.753.364-.39.711-.804 1.038-1.24l48.026 36.01c-.036.052-.074.107-.109.158zm222.538.531.036-.024c.241.362.513.809.784 1.336-.221-.382-.489-.812-.82-1.312zm53.552-18.707c0 16.542-13.458 30-30 30-9.543 0-18.472-4.427-23.884-11.844l-.026.019c-.035-.051-.073-.106-.109-.158l48.026-36.01c3.939 5.245 5.993 12.112 5.993 17.993zm-87.039-127.053 63.152 84.981-48.048 36.026c-9.299-12.388-23.445-31.219-44.971-59.866-11.334-15.083-29.313-24.088-48.093-24.088s-36.759 9.005-48.093 24.088c-21.527 28.646-35.672 47.478-44.971 59.866l-48.048-36.026 63.152-84.981c1.922-2.587 2.96-5.724 2.96-8.947v-60c0-8.284-6.716-15-15-15h-45v-60h68.357c5.925 0 11.294-3.488 13.704-8.9 2.409-5.413 1.406-11.737-2.559-16.139-16.358-18.159-22.84-42.248-17.782-66.088 6.288-29.636 30.945-53.788 59.963-58.733 47.688-8.128 88.317 29.347 88.317 74.86 0 18.257-6.926 36-19.502 49.96-3.965 4.402-4.968 10.726-2.559 16.139 2.41 5.413 7.779 8.9 13.704 8.9h68.357v60h-45c-8.284 0-15 6.716-15 15v60c-.001 3.224 1.037 6.361 2.96 8.948zm-67.354-200.84c-2.833 2.833-6.6 4.394-10.607 4.394s-7.773-1.56-10.607-4.394c-5.857-5.858-15.355-5.858-21.213 0s-5.858 15.355 0 21.213c8.772 8.773 20.296 13.159 31.82 13.159s23.047-4.386 31.82-13.159c5.858-5.858 5.858-15.355 0-21.213-5.857-5.858-15.355-5.858-21.213 0z" fill="url(#SVGID_1_)"/></g></g></svg>