<svg id="Capa_1" enable-background="new 0 0 512 512" height="512" viewBox="0 0 512 512" width="512" xmlns="http://www.w3.org/2000/svg" xmlns:xlink="http://www.w3.org/1999/xlink"><linearGradient id="SVGID_1_" gradientUnits="userSpaceOnUse" x1="256" x2="256" y1="512" y2="0"><stop offset="0" stop-color="#a93aff"/><stop offset="1" stop-color="#ff81ff"/></linearGradient><g><g><path d="m466 393.58v-228.58c0-90.981-74.019-165-165-165s-165 74.019-165 165v44.997l-24.026-18.02c-10.447-7.835-22.887-11.977-35.974-11.977-33.084 0-60 26.916-60 60 0 18.787 8.982 36.74 24.026 48.023l95.974 71.98v33.577c-17.459 6.192-30 22.865-30 42.42v31c0 24.813 20.187 45 45 45h300c24.813 0 45-20.187 45-45v-31c0-19.555-12.541-36.228-30-42.42zm-407.974-129.557c-7.643-5.732-12.026-14.488-12.026-24.023 0-16.542 13.458-30 30-30 6.545 0 12.76 2.067 17.974 5.977l48.026 36.02c4.545 3.409 10.627 3.957 15.708 1.417 5.082-2.541 8.292-7.735 8.292-13.417v-74.997c0-74.439 60.561-135 135-135s135 60.561 135 135v226h-270v-38.497c0-4.721-2.223-9.167-6-12zm407.974 202.977c0 8.271-6.729 15-15 15h-300c-8.271 0-15-6.729-15-15v-31c0-8.271 6.729-15 15-15h300c8.271 0 15 6.729 15 15zm-265.606-201.393c5.857 5.857 15.355 5.858 21.213 0l25.606-25.607h17.574l21.213 21.213v17.574l-25.606 25.606c-5.858 5.858-5.858 15.355 0 21.213 5.857 5.858 15.355 5.858 21.213 0l19.393-19.393 19.394 19.394c5.857 5.857 15.355 5.858 21.213 0s5.858-15.355 0-21.213l-25.607-25.607v-17.574l21.213-21.213h17.574l25.607 25.607c5.857 5.857 15.355 5.858 21.213 0s5.858-15.355 0-21.213l-19.394-19.394 19.393-19.393c5.858-5.858 5.858-15.355 0-21.213-5.857-5.858-15.355-5.858-21.213 0l-25.606 25.606h-17.574l-21.213-21.213v-17.574l25.606-25.606c5.858-5.858 5.858-15.355 0-21.213-5.857-5.858-15.355-5.858-21.213 0l-19.393 19.393-19.394-19.394c-5.857-5.858-15.355-5.858-21.213 0s-5.858 15.355 0 21.213l25.607 25.607v17.574l-21.213 21.213h-17.574l-25.607-25.607c-5.857-5.858-15.355-5.858-21.213 0s-5.858 15.355 0 21.213l19.394 19.394-19.393 19.393c-5.858 5.858-5.858 15.356 0 21.214zm100.606-49.394 8.787 8.787-8.787 8.787-8.787-8.787z" fill="url(#SVGID_1_)"/></g></g></svg>