<svg id="Capa_1" enable-background="new 0 0 512.001 512.001" height="512" viewBox="0 0 512.001 512.001" width="512" xmlns="http://www.w3.org/2000/svg" xmlns:xlink="http://www.w3.org/1999/xlink"><linearGradient id="SVGID_1_" gradientUnits="userSpaceOnUse" x1="256" x2="256" y1="512.001" y2="0"><stop offset="0" stop-color="#5558ff"/><stop offset="1" stop-color="#00c0ff"/></linearGradient><g><g><path d="m421 241.001h-45v-45c0-8.284-6.716-15-15-15h-300c-8.284 0-15 6.716-15 15v241c0 41.355 33.645 75 75 75h180c36.22 0 66.522-25.808 73.491-60h46.509c24.813 0 45-20.187 45-45v-121c0-24.813-20.186-45-45-45zm-75 196c0 24.813-20.187 45-45 45h-180c-24.813 0-45-20.187-45-45v-226h270zm90-30c0 8.271-6.729 15-15 15h-45v-151h45c8.271 0 15 6.729 15 15zm-325.606-20.394c5.857 5.857 15.355 5.858 21.213 0l25.607-25.607h17.574l21.212 21.214v18.574l-25.606 25.606c-5.858 5.858-5.858 15.355 0 21.213 5.857 5.858 15.355 5.858 21.213 0l19.393-19.393 19.394 19.394c5.857 5.857 15.355 5.858 21.213 0s5.858-15.355 0-21.213l-25.607-25.608v-18.574l21.213-21.213h17.574l25.607 25.607c5.857 5.857 15.355 5.858 21.213 0s5.858-15.355 0-21.213l-19.394-19.393 19.394-19.393c5.858-5.858 5.858-15.355 0-21.213-5.857-5.858-15.355-5.858-21.213 0l-25.607 25.607h-17.574l-21.213-21.215v-17.574l25.606-25.606c5.858-5.858 5.858-15.355 0-21.213-5.857-5.858-15.355-5.858-21.213 0l-19.393 19.393-19.394-19.394c-5.857-5.858-15.355-5.858-21.213 0s-5.858 15.355 0 21.213l25.607 25.608v17.574l-21.213 21.213h-17.574l-25.607-25.607c-5.857-5.858-15.355-5.858-21.213 0s-5.858 15.355 0 21.213l19.394 19.393-19.394 19.393c-5.858 5.859-5.858 15.356.001 21.214zm100.606-49.393 8.787 8.787-8.787 8.786-8.787-8.787zm-90.118-186.214h.113c2.526 0 14.229-.635 25.341-11.659 13.048-12.946 19.664-34.593 19.664-64.34 0-33.532 10.373-44.087 15.961-45.031 7.953-.504 14.179-7.185 14.037-15.234-.146-8.282-6.934-14.898-15.263-14.733-1.826.032-44.735 1.633-44.735 74.998 0 35.699-11.176 45.271-15.643 46.013-7.934.334-14.294 6.84-14.357 14.869-.064 8.284 6.599 15.052 14.882 15.117zm90 0h.113c2.526 0 14.229-.635 25.341-11.659 13.048-12.946 19.664-34.593 19.664-64.34 0-33.532 10.373-44.087 15.961-45.031 7.953-.504 14.179-7.185 14.037-15.234-.145-8.193-6.831-14.735-14.993-14.735-.089 0-.18.001-.27.002-1.826.032-44.735 1.633-44.735 74.998 0 35.699-11.176 45.271-15.643 46.013-7.934.334-14.294 6.84-14.357 14.869-.064 8.284 6.599 15.052 14.882 15.117zm90 0h.113c2.526 0 14.229-.635 25.341-11.659 13.048-12.946 19.664-34.593 19.664-64.34 0-33.532 10.373-44.087 15.961-45.031 7.953-.504 14.179-7.185 14.037-15.234-.146-8.282-6.954-14.898-15.263-14.733-1.826.032-44.735 1.633-44.735 74.998 0 35.699-11.176 45.271-15.643 46.013-7.934.334-14.294 6.84-14.357 14.869-.064 8.284 6.599 15.052 14.882 15.117z" fill="url(#SVGID_1_)"/></g></g></svg>