<svg id="Capa_1" enable-background="new 0 0 511.867 511.867" height="512" viewBox="0 0 511.867 511.867" width="512" xmlns="http://www.w3.org/2000/svg" xmlns:xlink="http://www.w3.org/1999/xlink"><linearGradient id="SVGID_1_" gradientUnits="userSpaceOnUse" x1="255.934" x2="255.934" y1="511.867" y2="0"><stop offset="0" stop-color="#fd3a84"/><stop offset="1" stop-color="#ffa68d"/></linearGradient><g><g><path d="m430.59 35.086c-21.118-21.118-50.326-32.504-67.226-33.796-36.3-5.346-74.598 5.917-102.479 33.796-10.203 10.203-19.393 19.394-31.819 31.82-17.588 17.588-17.59 46.052 0 63.64 17.584 17.585 46.051 17.588 63.638 0l31.82-31.82c11.725-11.724 30.7-11.727 42.427 0 11.723 11.723 11.726 30.7 0 42.426-326.059 311.479-306.581 292.847-307.338 293.599-.111.104-.22.21-.328.317-17.542 17.545-17.542 46.094.001 63.64 17.487 17.488 45.937 17.559 63.507.131 0 0 307.716-293.966 307.797-294.046 22.666-22.665 35.148-52.8 35.148-84.853.001-32.053-12.482-62.188-35.148-84.854zm-159.099 74.248c-5.86 5.861-15.349 5.863-21.212 0-5.863-5.862-5.865-15.349 0-21.214l9.789-9.789 29.698 12.728zm66.609-48.898c-8.537 1.079-16.653 3.956-23.903 8.455l-31.253-13.394c17.04-16.608 39.077-25.098 61.239-25.478zm29.845 3.745 5.938-29.691c12.984 4.253 25.191 11.506 35.494 21.81 8.589 8.59 15.221 18.613 19.689 29.526l-28.394 9.947c-2.959-6.721-7.158-12.909-12.507-18.259-5.866-5.866-12.738-10.355-20.22-13.333zm-265.988 413.075c-.083.079-.165.159-.245.24-5.849 5.848-15.365 5.849-21.212.001-5.804-5.805-5.848-15.222-.133-21.082l11.543-10.863 41.322 1.827zm61.319-58.578-40.888-1.807 34.337-32.314 39.745 2.411zm62.777-59.972-39.325-2.385 34.885-32.83 40.068 1.179zm66.106-63.152-39.621-1.166 34.478-32.447h40.329zm66.589-63.613h-40.156l33.999-34h41.748zm63.128-64h-39.286l5.575-5.575c9.919-9.918 15.938-22.699 17.284-36.479l30.171-10.569c.077 1.534.119 3.075.119 4.623 0 17.259-4.85 33.764-13.863 48z" fill="url(#SVGID_1_)"/></g></g></svg>