<svg id="Capa_1" enable-background="new 0 0 512 512" height="512" viewBox="0 0 512 512" width="512" xmlns="http://www.w3.org/2000/svg" xmlns:xlink="http://www.w3.org/1999/xlink"><linearGradient id="SVGID_1_" gradientUnits="userSpaceOnUse" x1="256" x2="256" y1="512" y2="0"><stop offset="0" stop-color="#5558ff"/><stop offset="1" stop-color="#00c0ff"/></linearGradient><g><g><path d="m166 151c8.284 0 15-6.716 15-15s-6.716-15-15-15-15 6.716-15 15 6.716 15 15 15zm180 0c8.284 0 15-6.716 15-15s-6.716-15-15-15-15 6.716-15 15 6.716 15 15 15zm60 90c8.284 0 15-6.716 15-15s-6.716-15-15-15-15 6.716-15 15 6.716 15 15 15zm-300-30c-8.284 0-15 6.716-15 15s6.716 15 15 15 15-6.716 15-15-6.716-15-15-15zm150-120c8.284 0 15-6.716 15-15s-6.716-15-15-15-15 6.716-15 15 6.716 15 15 15zm127.279 320.548c61.202-42.079 97.721-111.167 97.721-185.548 0-124.617-100.935-226-225-226s-225 101.383-225 226c0 74.27 36.429 143.408 97.721 185.548l-36.353 79.194c-2.132 4.644-1.753 10.054 1.005 14.355 2.759 4.302 7.518 6.903 12.627 6.903h300c5.109 0 9.868-2.601 12.627-6.903 2.758-4.301 3.137-9.711 1.005-14.355zm-322.279-185.548c0-108.075 87.477-196 195-196s195 87.925 195 196c0 67.649-33.973 129.015-91.068 165h-88.932v-30h75c5.948 0 11.335-3.515 13.73-8.96s1.347-11.791-2.673-16.176l-31.958-34.864h20.901c5.948 0 11.335-3.515 13.73-8.96s1.347-11.791-2.673-16.176l-31.958-34.864h20.901c6.067 0 11.536-3.655 13.858-9.26 2.321-5.605 1.038-12.057-3.252-16.347l-90-90c-5.857-5.858-15.355-5.858-21.213 0l-90 90c-4.29 4.29-5.573 10.742-3.252 16.347 2.322 5.605 7.791 9.26 13.858 9.26h20.901l-31.959 34.864c-4.02 4.385-5.067 10.731-2.673 16.176 2.396 5.445 7.782 8.96 13.73 8.96h20.901l-31.959 34.864c-4.02 4.385-5.067 10.731-2.673 16.176 2.396 5.445 7.782 8.96 13.73 8.96h75v30h-88.932c-57.092-35.985-91.065-97.351-91.065-165zm173.729 53.96c-2.396-5.445-7.782-8.96-13.73-8.96h-20.901l31.959-34.864c4.02-4.385 5.067-10.731 2.673-16.176-2.396-5.445-7.782-8.96-13.73-8.96h-18.786l53.786-53.787 53.787 53.787h-18.786c-5.948 0-11.335 3.515-13.73 8.96s-1.347 11.791 2.673 16.176l31.958 34.864h-20.901c-5.948 0-11.335 3.515-13.73 8.96s-1.347 11.791 2.673 16.176l31.958 34.864h-111.804l31.959-34.864c4.019-4.385 5.067-10.731 2.672-16.176zm-105.338 202.04 28.001-61h197.217l28.001 61z" fill="url(#SVGID_1_)"/></g></g></svg>