<svg id="Capa_1" enable-background="new 0 0 512 512" height="512" viewBox="0 0 512 512" width="512" xmlns="http://www.w3.org/2000/svg" xmlns:xlink="http://www.w3.org/1999/xlink"><linearGradient id="SVGID_1_" gradientUnits="userSpaceOnUse" x1="256" x2="256" y1="512" y2="0"><stop offset="0" stop-color="#5558ff"/><stop offset="1" stop-color="#00c0ff"/></linearGradient><g><g><path d="m482.354 305.156c-2.145-8.002-10.374-12.751-18.371-10.606l-75.96 20.354-17.532-10.122-32.208-48.782 32.208-48.781 17.532-10.122 75.96 20.354c8.035 2.155 16.236-2.641 18.371-10.606 2.144-8.002-2.604-16.227-10.607-18.371l-46.982-12.589 46.581-26.894c7.175-4.142 9.633-13.316 5.49-20.49-4.143-7.175-13.317-9.632-20.49-5.49l-46.58 26.893 12.589-46.982c2.144-8.002-2.605-16.227-10.607-18.371-7.992-2.144-16.227 2.604-18.371 10.606l-20.353 75.96-17.533 10.123-58.349 3.503-26.142-52.283v-20.247l55.606-55.606c5.858-5.858 5.858-15.355 0-21.213-5.857-5.858-15.355-5.858-21.213 0l-34.393 34.393v-54.787c0-8.284-6.716-15-15-15s-15 6.716-15 15v54.787l-34.394-34.393c-5.857-5.858-15.355-5.858-21.213 0s-5.858 15.355 0 21.213l55.607 55.606v20.247l-26.141 52.282-58.349-3.503-17.533-10.123-20.353-75.96c-2.145-8.002-10.373-12.751-18.371-10.606-8.002 2.144-12.751 10.369-10.607 18.371l12.589 46.982-46.58-26.893c-7.175-4.144-16.349-1.685-20.49 5.49-4.143 7.174-1.685 16.348 5.49 20.49l46.581 26.894-46.982 12.589c-8.003 2.144-12.751 10.369-10.607 18.371 2.142 7.992 10.362 12.755 18.371 10.606l75.96-20.354 17.532 10.122 32.207 48.782-32.208 48.781-17.532 10.122-75.96-20.354c-7.99-2.143-16.227 2.604-18.371 10.606s2.604 16.227 10.607 18.371l46.982 12.589-46.581 26.895c-7.175 4.142-9.633 13.316-5.49 20.49 4.155 7.197 13.336 9.62 20.49 5.49l46.58-26.893-12.589 46.982c-2.144 8.002 2.605 16.227 10.607 18.371 8.035 2.155 16.236-2.641 18.371-10.606l20.353-75.96 17.533-10.123 58.349-3.503 26.142 52.282v21.247l-55.606 55.606c-5.858 5.858-5.858 15.355 0 21.213 5.857 5.858 15.355 5.858 21.213 0l34.393-34.393v53.787c0 8.284 6.716 15 15 15s15-6.716 15-15v-53.787l34.394 34.393c5.857 5.857 15.355 5.858 21.213 0s5.858-15.355 0-21.213l-55.607-55.606v-21.247l26.141-52.282 58.349 3.503 17.533 10.123 20.353 75.96c2.142 7.992 10.362 12.755 18.371 10.606 8.002-2.144 12.751-10.369 10.607-18.371l-12.589-46.982 46.58 26.893c7.143 4.125 16.33 1.715 20.49-5.49 4.143-7.174 1.685-16.348-5.49-20.49l-46.581-26.894 46.982-12.589c8.004-2.144 12.752-10.369 10.608-18.371zm-174.563-40.891 23.085 34.964-41.824-2.511c-5.985-.357-11.628 2.892-14.315 8.265l-18.737 37.475-18.736-37.475c-2.552-5.103-7.76-8.292-13.413-8.292-.3 0-.602.009-.902.027l-41.824 2.511 23.085-34.964c3.31-5.013 3.31-11.517 0-16.529l-23.085-34.964 41.824 2.511c5.997.363 11.628-2.892 14.315-8.265l18.736-37.476 18.736 37.475c2.688 5.373 8.353 8.629 14.315 8.265l41.824-2.511-23.085 34.964c-3.309 5.013-3.309 11.517.001 16.53z" fill="url(#SVGID_1_)"/></g></g></svg>