<svg id="Capa_1" enable-background="new 0 0 512 512" height="512" viewBox="0 0 512 512" width="512" xmlns="http://www.w3.org/2000/svg" xmlns:xlink="http://www.w3.org/1999/xlink"><linearGradient id="SVGID_1_" gradientUnits="userSpaceOnUse" x1="256" x2="256" y1="512" y2="0"><stop offset="0" stop-color="#a93aff"/><stop offset="1" stop-color="#ff81ff"/></linearGradient><g><g><path d="m497 120h-78.58c1.665-4.695 2.58-9.742 2.58-15v-60c0-24.813-20.187-45-45-45-9.814 0-19.145 3.107-26.983 8.985l-68.017 51.015h-49.999l-68.018-51.015c-7.837-5.878-17.168-8.985-26.983-8.985-24.813 0-45 20.187-45 45v60c0 5.258.915 10.305 2.58 15h-78.58c-8.284 0-15 6.716-15 15v91c0 8.284 6.716 15 15 15h15v256c0 8.284 6.716 15 15 15h421c8.284 0 15-6.716 15-15v-256h16c8.284 0 15-6.716 15-15v-91c0-8.284-6.716-15-15-15zm-196-37.5 66.016-49.514c2.604-1.954 5.711-2.986 8.984-2.986 8.271 0 15 6.729 15 15v60c0 8.271-6.729 15-15 15h-75zm-60 7.5h30v30h-30zm-120-45c0-8.271 6.729-15 15-15 3.273 0 6.379 1.032 8.983 2.985l66.017 49.515v37.5h-75c-8.271 0-15-6.729-15-15zm330 437h-391v-96.729l8.292 4.146c4.192 2.096 9.123 2.112 13.328.044l54.325-26.717 53.347 26.673c4.223 2.111 9.193 2.111 13.416 0l53.292-26.646 53.292 26.646c4.223 2.111 9.193 2.111 13.416 0l53.292-26.646 53.292 26.646c4.223 2.111 9.193 2.111 13.416 0l8.292-4.146zm0-130.271-15 7.5-53.292-26.646c-4.223-2.111-9.193-2.111-13.416 0l-53.292 26.646-53.292-26.646c-4.223-2.111-9.193-2.111-13.416 0l-53.292 26.646-53.292-26.646c-4.192-2.096-9.123-2.112-13.328-.044l-54.325 26.717-15.055-7.527v-110.729h391zm31-140.729h-452v-61h452zm-346 180c-8.284 0-15 6.716-15 15s6.716 15 15 15 15-6.716 15-15-6.716-15-15-15zm60-60c8.284 0 15-6.716 15-15s-6.716-15-15-15-15 6.716-15 15 6.716 15 15 15zm120 0c8.284 0 15-6.716 15-15s-6.716-15-15-15-15 6.716-15 15 6.716 15 15 15zm-60 60c-8.284 0-15 6.716-15 15s6.716 15 15 15 15-6.716 15-15-6.716-15-15-15zm120 0c-8.284 0-15 6.716-15 15s6.716 15 15 15 15-6.716 15-15-6.716-15-15-15z" fill="url(#SVGID_1_)"/></g></g></svg>