<svg id="Capa_1" enable-background="new 0 0 512 512" height="512" viewBox="0 0 512 512" width="512" xmlns="http://www.w3.org/2000/svg" xmlns:xlink="http://www.w3.org/1999/xlink"><linearGradient id="SVGID_1_" gradientUnits="userSpaceOnUse" x1="256" x2="256" y1="512" y2="0"><stop offset="0" stop-color="#fd5900"/><stop offset="1" stop-color="#ffde00"/></linearGradient><g><g><path d="m498.52 177.201c-1.765-5.43-6.459-9.388-12.109-10.209l-149.889-21.78-67.053-136.813c-2.519-5.141-7.744-8.399-13.469-8.399s-10.95 3.258-13.469 8.399l-67.052 136.813-149.889 21.78c-5.65.821-10.345 4.779-12.109 10.209s-.292 11.391 3.796 15.376l108.479 105.742-25.608 149.31c-.965 5.627 1.348 11.315 5.967 14.671 4.62 3.356 10.744 3.799 15.797 1.142l119.088-62.609v96.167c0 8.284 6.716 15 15 15s15-6.716 15-15v-96.167l119.088 62.608c5.083 2.673 11.205 2.194 15.797-1.142 4.619-3.356 6.933-9.043 5.967-14.671l-25.608-149.31 108.479-105.742c4.089-3.984 5.561-9.945 3.797-15.375zm-138.863 105.14c-3.535 3.446-5.148 8.411-4.314 13.277l21.804 127.126-113.972-59.918c-4.495-2.441-9.968-2.379-14.349 0l-113.972 59.918 21.804-127.126c.834-4.866-.779-9.831-4.314-13.277l-92.363-90.031 127.642-18.547c4.9-.712 9.133-3.796 11.313-8.243l57.064-116.436 57.065 116.436c2.179 4.446 6.412 7.53 11.313 8.243l127.642 18.547zm-90.206-137.393c-2.527-5.12-7.742-8.362-13.451-8.362s-10.924 3.242-13.451 8.362l-27.198 55.109-60.808 8.828c-5.65.82-10.345 4.777-12.11 10.208-1.765 5.43-.294 11.391 3.794 15.377l43.998 42.895-10.386 60.579c-.965 5.627 1.349 11.314 5.968 14.67 4.62 3.356 10.745 3.798 15.797 1.141l54.396-28.601 54.396 28.601c5.093 2.678 11.213 2.188 15.797-1.141 4.619-3.356 6.933-9.043 5.968-14.67l-10.386-60.579 43.998-42.895c4.088-3.986 5.559-9.947 3.794-15.377s-6.459-9.387-12.11-10.208l-60.808-8.828zm25.736 116.44c-3.534 3.446-5.147 8.41-4.313 13.275l6.583 38.395-34.477-18.128c-2.185-1.149-4.583-1.723-6.98-1.723s-4.795.574-6.98 1.723l-34.476 18.127 6.583-38.395c.834-4.865-.779-9.829-4.313-13.275l-27.88-27.181 38.534-5.594c4.886-.709 9.11-3.778 11.296-8.206l17.236-34.927 17.237 34.927c2.186 4.428 6.41 7.497 11.296 8.206l38.534 5.594z" fill="url(#SVGID_1_)"/></g></g></svg>