<svg id="Capa_1" enable-background="new 0 0 512 512" height="512" viewBox="0 0 512 512" width="512" xmlns="http://www.w3.org/2000/svg" xmlns:xlink="http://www.w3.org/1999/xlink"><linearGradient id="SVGID_1_" gradientUnits="userSpaceOnUse" x1="256" x2="256" y1="512" y2="0"><stop offset="0" stop-color="#5558ff"/><stop offset="1" stop-color="#00c0ff"/></linearGradient><g><g><path d="m247.213 196 19.393-19.394c5.858-5.858 5.858-15.355 0-21.213-5.857-5.858-15.355-5.858-21.213 0l-25.606 25.607h-17.574l-21.213-21.213v-17.574l25.606-25.606c5.858-5.858 5.858-15.355 0-21.213-5.857-5.858-15.355-5.858-21.213 0l-19.393 19.393-19.394-19.393c-5.857-5.858-15.355-5.858-21.213 0s-5.858 15.355 0 21.213l25.607 25.606v17.574l-21.213 21.213h-17.574l-25.606-25.606c-5.857-5.858-15.355-5.858-21.213 0s-5.858 15.355 0 21.213l19.393 19.393-19.393 19.394c-5.858 5.858-5.858 15.355 0 21.213 5.857 5.857 15.355 5.858 21.213 0l25.606-25.607h17.574l21.213 21.213v17.574l-25.606 25.606c-5.858 5.858-5.858 15.355 0 21.213 5.857 5.858 15.355 5.858 21.213 0l19.393-19.393 19.394 19.393c5.857 5.857 15.355 5.858 21.213 0s5.858-15.355 0-21.213l-25.607-25.606v-17.574l21.213-21.213h17.574l25.606 25.606c5.857 5.857 15.355 5.858 21.213 0s5.858-15.355 0-21.213zm-81.213 8.787-8.787-8.787 8.787-8.787 8.787 8.787zm210-83.787c-18.49 0-36.604 4.604-53.354 13.408-21.788-77.992-83.771-134.408-156.646-134.408-97.168 0-166 95.394-166 196 0 101.583 66.471 185.259 151 194.195v106.805c0 8.284 6.716 15 15 15s15-6.716 15-15v-106.8c26.734-2.814 52.09-13.129 74.327-30.102 20.415 49.804 60.129 83.724 105.673 89.884v47.018c0 8.284 6.716 15 15 15s15-6.716 15-15v-47.009c67.958-9.088 121-79.161 121-163.991 0-90.981-61.01-165-136-165zm-210 240c-74.991 0-136-74.019-136-165 0-91.533 61.009-166 136-166 76.639 0 135 77.185 135 166 0 90.981-60.561 165-135 165zm210 60c-42.41 0-80.521-33.034-96.841-83.014 33.909-37.809 51.841-88.819 51.841-141.986 0-10.4-.692-20.611-2.012-30.577 14.557-9.453 30.652-14.423 47.012-14.423 52.211 0 106 54.037 106 135 0 81.357-54.064 135-106 135z" fill="url(#SVGID_1_)"/></g></g></svg>