<?xml version="1.0"?>
<svg xmlns="http://www.w3.org/2000/svg" xmlns:xlink="http://www.w3.org/1999/xlink" xmlns:svgjs="http://svgjs.com/svgjs" version="1.1" width="512" height="512" x="0" y="0" viewBox="0 0 486.8 486.8" style="enable-background:new 0 0 512 512" xml:space="preserve" class=""><g>
<g xmlns="http://www.w3.org/2000/svg">
	<g>
		<path d="M140.35,32c0-17.6-14.4-32-32-32h-76.3c-17.6,0-32,14.4-32,32v76.2c0,17.6,14.4,32,32,32h76.2c17.6,0,32-14.4,32-32V32    H140.35z M115.85,108.3c0,4.1-3.4,7.5-7.5,7.5h-76.3c-4.1,0-7.5-3.4-7.5-7.5V32c0-4.1,3.4-7.5,7.5-7.5h76.2c4.1,0,7.5,3.4,7.5,7.5    v76.3H115.85z" fill="#eeeeee" data-original="#000000" style="" class=""/>
		<path d="M140.35,205.3c0-17.6-14.4-32-32-32h-76.3c-17.6,0-32,14.4-32,32v76.2c0,17.6,14.4,32,32,32h76.2c17.6,0,32-14.4,32-32    v-76.2H140.35z M115.85,281.5c0,4.1-3.4,7.5-7.5,7.5h-76.3c-4.1,0-7.5-3.4-7.5-7.5v-76.2c0-4.1,3.4-7.5,7.5-7.5h76.2    c4.1,0,7.5,3.4,7.5,7.5v76.2H115.85z" fill="#eeeeee" data-original="#000000" style="" class=""/>
		<path d="M108.35,346.5h-76.3c-17.6,0-32,14.4-32,32v76.2c0,17.6,14.4,32,32,32h76.2c17.6,0,32-14.4,32-32v-76.2    C140.35,360.9,125.95,346.5,108.35,346.5z M115.85,454.8c0,4.1-3.4,7.5-7.5,7.5h-76.3c-4.1,0-7.5-3.4-7.5-7.5v-76.2    c0-4.1,3.4-7.5,7.5-7.5h76.2c4.1,0,7.5,3.4,7.5,7.5v76.2H115.85z" fill="#eeeeee" data-original="#000000" style="" class=""/>
		<path d="M173.35,281.5c0,17.6,14.4,32,32,32h76.2c17.6,0,32-14.4,32-32v-76.2c0-17.6-14.4-32-32-32h-76.2c-17.6,0-32,14.4-32,32    L173.35,281.5L173.35,281.5z M197.85,205.3c0-4.1,3.4-7.5,7.5-7.5h76.2c4.1,0,7.5,3.4,7.5,7.5v76.2c0,4.1-3.4,7.5-7.5,7.5h-76.2    c-4.1,0-7.5-3.4-7.5-7.5L197.85,205.3L197.85,205.3z" fill="#eeeeee" data-original="#000000" style="" class=""/>
		<path d="M173.35,454.8c0,17.6,14.4,32,32,32h76.2c17.6,0,32-14.4,32-32v-76.2c0-17.6-14.4-32-32-32h-76.2c-17.6,0-32,14.4-32,32    L173.35,454.8L173.35,454.8z M197.85,378.5c0-4.1,3.4-7.5,7.5-7.5h76.2c4.1,0,7.5,3.4,7.5,7.5v76.2c0,4.1-3.4,7.5-7.5,7.5h-76.2    c-4.1,0-7.5-3.4-7.5-7.5L197.85,378.5L197.85,378.5z" fill="#eeeeee" data-original="#000000" style="" class=""/>
		<path d="M346.55,281.5c0,17.6,14.4,32,32,32h76.2c17.6,0,32-14.4,32-32v-76.2c0-17.6-14.4-32-32-32h-76.2c-17.6,0-32,14.4-32,32    L346.55,281.5L346.55,281.5z M371.05,205.3c0-4.1,3.4-7.5,7.5-7.5h76.2c4.1,0,7.5,3.4,7.5,7.5v76.2c0,4.1-3.4,7.5-7.5,7.5h-76.2    c-4.1,0-7.5-3.4-7.5-7.5L371.05,205.3L371.05,205.3z" fill="#eeeeee" data-original="#000000" style="" class=""/>
		<path d="M346.55,454.8c0,17.6,14.4,32,32,32h76.2c17.6,0,32-14.4,32-32v-76.2c0-17.6-14.4-32-32-32h-76.2c-17.6,0-32,14.4-32,32    L346.55,454.8L346.55,454.8z M371.05,378.5c0-4.1,3.4-7.5,7.5-7.5h76.2c4.1,0,7.5,3.4,7.5,7.5v76.2c0,4.1-3.4,7.5-7.5,7.5h-76.2    c-4.1,0-7.5-3.4-7.5-7.5L371.05,378.5L371.05,378.5z" fill="#eeeeee" data-original="#000000" style="" class=""/>
		<path d="M173.35,32v76.2c0,17.6,14.4,32,32,32h76.2c17.6,0,32-14.4,32-32V32c0-17.6-14.4-32-32-32h-76.2    C187.65,0,173.35,14.4,173.35,32z M197.85,32c0-4.1,3.4-7.5,7.5-7.5h76.2c4.1,0,7.5,3.4,7.5,7.5v76.2c0,4.1-3.4,7.5-7.5,7.5h-76.2    c-4.1,0-7.5-3.4-7.5-7.5L197.85,32L197.85,32z" fill="#eeeeee" data-original="#000000" style="" class=""/>
		<path d="M378.55,140.3h76.2c17.6,0,32-14.4,32-32V32c0-17.6-14.4-32-32-32h-76.2c-17.6,0-32,14.4-32,32v76.2    C346.55,125.9,360.95,140.3,378.55,140.3z M371.05,32c0-4.1,3.4-7.5,7.5-7.5h76.2c4.1,0,7.5,3.4,7.5,7.5v76.2    c0,4.1-3.4,7.5-7.5,7.5h-76.2c-4.1,0-7.5-3.4-7.5-7.5L371.05,32L371.05,32z" fill="#eeeeee" data-original="#000000" style="" class=""/>
	</g>
</g>
<g xmlns="http://www.w3.org/2000/svg">
</g>
<g xmlns="http://www.w3.org/2000/svg">
</g>
<g xmlns="http://www.w3.org/2000/svg">
</g>
<g xmlns="http://www.w3.org/2000/svg">
</g>
<g xmlns="http://www.w3.org/2000/svg">
</g>
<g xmlns="http://www.w3.org/2000/svg">
</g>
<g xmlns="http://www.w3.org/2000/svg">
</g>
<g xmlns="http://www.w3.org/2000/svg">
</g>
<g xmlns="http://www.w3.org/2000/svg">
</g>
<g xmlns="http://www.w3.org/2000/svg">
</g>
<g xmlns="http://www.w3.org/2000/svg">
</g>
<g xmlns="http://www.w3.org/2000/svg">
</g>
<g xmlns="http://www.w3.org/2000/svg">
</g>
<g xmlns="http://www.w3.org/2000/svg">
</g>
<g xmlns="http://www.w3.org/2000/svg">
</g>
</g></svg>
