<?xml version="1.0" encoding="iso-8859-1"?>
<!-- Generator: Adobe Illustrator 21.1.0, SVG Export Plug-In . SVG Version: 6.00 Build 0)  -->
<svg version="1.1" id="Layer_1" xmlns="http://www.w3.org/2000/svg" xmlns:xlink="http://www.w3.org/1999/xlink" x="0px" y="0px"
	 viewBox="0 0 100.354 100.352" style="enable-background:new 0 0 100.354 100.352;" xml:space="preserve">
<path d="M49.999,4.604c-14.277,0-25.892,11.616-25.892,25.894c0,0.829,0.671,1.5,1.5,1.5s1.5-0.671,1.5-1.5
	c0-12.624,10.27-22.894,22.892-22.894c12.59,0,22.839,10.213,22.896,22.79c-0.255,1.784-3.578,25.044-4.666,30.045
	c-0.32,1.479-0.744,3.666-1.234,6.198c-0.729,3.767-1.638,8.455-2.512,12.341c-1.452,6.462-6.604,13.416-14.485,13.416
	c-10.713,0-15.18-7.248-15.8-14.128c-0.769-4.925-1.047-11.109-0.153-12.515c0.631-0.999,2.571-1.971,4.325-2.165
	c1.105-0.124,1.768,0.099,1.996,0.326c0.65,0.651,0.94,2.872,1.174,4.656c0.381,2.915,0.776,5.929,2.827,7.113
	c1.169,0.68,2.772,0.435,3.911,0.112c1.542-0.439,3.445-1.384,4.158-2.722c1.04-1.954-0.137-4.513-1.275-6.986
	c-0.592-1.289-1.33-2.892-1.294-3.648c0.062-1.374,2.493-3.807,4.446-5.761c2.93-2.932,5.696-5.7,5.391-8.51
	c-0.497-4.478-8.911-10.949-14.52-11.169c-3.141-0.137-3.971,2.768-4.575,4.885c-0.632,2.21-1.053,3.261-2.188,3.342
	c-0.164,0.009-0.433,0.03-0.797-0.496c-2.014-2.904-1.221-13.093,0.817-17.549c2.688-5.89,6.603-8.876,11.542-8.774
	c8.543,0.117,12.243,11.087,12.278,11.196c0.257,0.786,1.099,1.22,1.891,0.962c0.788-0.256,1.219-1.103,0.963-1.891
	c-0.175-0.536-4.393-13.121-15.091-13.268c-4.312-0.059-10.293,1.721-14.312,10.527c-2.265,4.953-3.438,16.348-0.553,20.506
	c0.863,1.245,2.095,1.877,3.475,1.778c3.354-0.239,4.224-3.286,4.859-5.51c0.63-2.206,0.963-2.762,1.57-2.711
	c4.329,0.17,11.35,5.72,11.658,8.5c0.15,1.378-2.555,4.085-4.53,6.062c-2.677,2.68-5.206,5.21-5.321,7.743
	c-0.07,1.484,0.725,3.212,1.566,5.041c0.592,1.286,1.694,3.682,1.354,4.319c-0.429,0.724-3.189,1.716-3.918,1.427
	c-0.773-0.446-1.124-3.131-1.356-4.906c-0.338-2.579-0.657-5.015-2.025-6.387c-0.974-0.977-2.553-1.398-4.451-1.189
	c-2.223,0.247-5.215,1.462-6.529,3.542c-1.95,3.069-0.572,12.687-0.288,14.485c1.109,12.373,10.808,16.763,18.776,16.763
	c8.167,0,15.327-6.479,17.413-15.758c0.884-3.93,1.796-8.642,2.529-12.429c0.486-2.515,0.907-4.687,1.221-6.132
	c1.148-5.28,4.574-29.345,4.72-30.367c0.01-0.07,0.015-0.14,0.015-0.211C75.895,16.22,64.278,4.604,49.999,4.604z"/>
</svg>
