<?xml version="1.0" encoding="iso-8859-1"?>
<!-- Generator: Adobe Illustrator 21.1.0, SVG Export Plug-In . SVG Version: 6.00 Build 0)  -->
<svg version="1.1" id="Layer_1" xmlns="http://www.w3.org/2000/svg" xmlns:xlink="http://www.w3.org/1999/xlink" x="0px" y="0px"
	 viewBox="0 0 100.353 100.353" style="enable-background:new 0 0 100.353 100.353;" xml:space="preserve">
<g>
	<path d="M69.875,28.664c0.006,1.452-1.651,4.821-2.115,5.715c-0.382,0.735-0.096,1.641,0.64,2.022
		c0.221,0.115,0.457,0.169,0.69,0.169c0.542,0,1.064-0.294,1.332-0.809c0.61-1.174,2.6-5.154,2.585-7.088
		c-0.021-1.856-1.994-5.625-2.585-6.712c-0.464-0.893-2.271-4.293-2.234-5.86c0.032-1.401,1.763-4.306,2.221-5.148
		c0.396-0.728,0.127-1.639-0.601-2.034c-0.727-0.396-1.639-0.127-2.034,0.601c-0.604,1.111-2.579,4.881-2.6,6.741
		c-0.016,1.929,1.976,5.911,2.6,7.11C68.231,24.213,69.869,27.286,69.875,28.664z"/>
	<path d="M93.667,72.278H27.706l40.941-29.196c0.674-0.481,0.831-1.417,0.351-2.092c-0.482-0.675-1.418-0.831-2.093-0.35
		L22.538,72.278H6.334c-0.829,0-1.5,0.672-1.5,1.5v9.984c0,0.828,0.671,1.5,1.5,1.5h87.333c0.828,0,1.5-0.672,1.5-1.5v-9.984
		C95.167,72.949,94.495,72.278,93.667,72.278z M92.167,82.262H7.834v-6.984h84.333V82.262z"/>
</g>
</svg>
