<?xml version="1.0" encoding="iso-8859-1"?>
<!-- Generator: Adobe Illustrator 21.1.0, SVG Export Plug-In . SVG Version: 6.00 Build 0)  -->
<svg version="1.1" id="Layer_1" xmlns="http://www.w3.org/2000/svg" xmlns:xlink="http://www.w3.org/1999/xlink" x="0px" y="0px"
	 viewBox="0 0 100.353 100.352" style="enable-background:new 0 0 100.353 100.352;" xml:space="preserve">
<path d="M50.328,5.953c-16.848,0-30.555,13.707-30.555,30.555c0,15.604,11.315,28.862,25.76,30.183
	c0.864,0.08,2.037,0.124,3.296,0.139v27.715c0,0.828,0.671,1.5,1.5,1.5c0.828,0,1.5-0.672,1.5-1.5V66.816
	c1.332-0.028,2.578-0.082,3.481-0.157c14.344-1.23,25.58-14.474,25.58-30.15C80.891,19.66,67.181,5.953,50.328,5.953z M55.06,63.669
	c-0.835,0.069-1.991,0.12-3.23,0.146v-6.112l11.875-13.152c0.556-0.615,0.507-1.563-0.108-2.119
	c-0.613-0.556-1.563-0.507-2.118,0.108l-9.648,10.687V31.357c0-0.829-0.672-1.5-1.5-1.5c-0.829,0-1.5,0.671-1.5,1.5V63.83
	c-1.168-0.015-2.245-0.055-3.021-0.127c-0.001,0-0.002-0.001-0.002-0.001c-12.916-1.18-23.033-13.125-23.033-27.194
	c0-15.194,12.361-27.555,27.555-27.555c15.198,0,27.562,12.361,27.562,27.555C77.891,50.641,67.859,62.572,55.06,63.669z"/>
</svg>
