<?xml version="1.0" encoding="iso-8859-1"?>
<!-- Generator: Adobe Illustrator 21.1.0, SVG Export Plug-In . SVG Version: 6.00 Build 0)  -->
<svg version="1.1" id="Layer_1" xmlns="http://www.w3.org/2000/svg" xmlns:xlink="http://www.w3.org/1999/xlink" x="0px" y="0px"
	 viewBox="0 0 100.355 100.352" style="enable-background:new 0 0 100.355 100.352;" xml:space="preserve">
<g>
	<path d="M81.587,76.41c-1.243-2.676-4.568-10.217-5.022-12.944c-0.357-2.144,0.379-7.404,0.805-8.211
		c0.612-1.05,1.184-1.814,1.688-2.489c0.797-1.068,1.486-1.991,1.66-3.264c0.265-1.933-1.008-4.232-3.495-6.312
		c-1.42-1.182-4.637-2.042-7.08-2.556l0.381-0.374c0.379-0.372,0.533-0.916,0.405-1.431s-0.519-0.924-1.026-1.076l-5.046-1.507
		l-4.73-7.088l2.085-3.133c0.354-0.532,0.332-1.229-0.054-1.738l-6.768-8.917c-0.284-0.374-0.727-0.593-1.195-0.593h-0.709
		L50.31,4.401c-0.19-0.62-0.756-1.047-1.404-1.061c-0.648-0.025-1.231,0.391-1.446,1.002l-3.663,10.432h-0.755
		c-0.469,0-0.911,0.219-1.195,0.593l-6.769,8.917c-0.387,0.509-0.408,1.208-0.053,1.74l2.092,3.133l-4.765,7.14l-5.009,1.492
		c-0.508,0.151-0.898,0.559-1.027,1.074c-0.129,0.514,0.023,1.058,0.4,1.431l0.4,0.395c-2.175,0.52-4.965,1.364-6.329,2.503
		c-2.491,2.074-3.767,4.375-3.5,6.31c0.174,1.273,0.863,2.196,1.66,3.265c0.504,0.675,1.075,1.439,1.681,2.479
		c0.432,0.817,1.168,6.078,0.81,8.224c-0.452,2.725-3.778,10.267-5.021,12.942c-0.276,0.593-0.135,1.297,0.348,1.738
		c0.284,0.26,0.647,0.394,1.013,0.394c0.257,0,0.516-0.066,0.75-0.201l18.927-10.926l2.267,2.549
		c-0.717,1.426-1.909,4.388-2.936,9.767c-1.649,8.573,0.872,14.043,4.102,15.661c1.857,0.929,4.15,1.852,6.779,1.852
		c1.314,0,2.712-0.23,4.182-0.806c3.881-1.519,5.526-4.157,5.853-4.743c0.141-0.194,0.933-1.212,1.816-0.866
		c1.347,0.515,1.702,1.864,1.713,1.903c0.179,0.791,0.955,1.297,1.75,1.142l6.776-1.319c0.431-0.084,0.804-0.354,1.02-0.736
		c0.216-0.384,0.253-0.842,0.101-1.255c-0.108-0.295-2.741-7.235-9.625-7.422c-5.374-0.153-7.362,1.278-8.429,2.047
		c-0.142,0.102-0.258,0.195-0.373,0.253c-1.081,0.54-2.596,0.959-3.275,0.957c0.13-1.69,1.691-3.496,2.547-4.485l0.226-0.263
		c0.152-0.178,0.333-0.376,0.528-0.592c1.04-1.145,2.558-2.814,2.99-4.777c0.881,0.154,2.487,0.777,3.428,1.142
		c1.035,0.401,1.929,0.748,2.642,0.913c0.562,0.128,1.148-0.075,1.509-0.525c0.36-0.451,0.43-1.068,0.18-1.588
		c-1.175-2.436-2.984-6.832-3.261-9.101l0.028-0.031l19.485,11.251c0.233,0.135,0.492,0.201,0.75,0.201
		c0.366,0,0.729-0.134,1.013-0.394C81.722,77.707,81.862,77.003,81.587,76.41z M33.728,39.018c0.335-0.1,0.625-0.314,0.819-0.605
		l5.621-8.423c0.336-0.504,0.336-1.161,0-1.666l-2.055-3.077l5.673-7.473h1.073c0.637,0,1.204-0.402,1.416-1.003l2.502-7.126
		l2.163,7.069c0.193,0.63,0.775,1.061,1.435,1.061h1.073l5.673,7.474l-2.048,3.078c-0.335,0.504-0.335,1.16,0.001,1.664l5.621,8.423
		c0.253,0.379,0.656,0.603,1.09,0.643l2.823,0.843l-5.119,5.027c-2.635-3.402-7.331-6.18-12.529-6.18
		c-5.399,0-10.391,2.853-13.186,6.28l-4.506-4.455c-0.016-0.018-0.034-0.034-0.051-0.05l-0.589-0.582L33.728,39.018z M21.022,73.438
		c1.362-3.18,3.021-7.335,3.376-9.478c0.393-2.357-0.207-8.546-1.172-10.217c-0.698-1.196-1.35-2.07-1.874-2.771
		c-0.672-0.901-1.026-1.394-1.092-1.878c-0.092-0.673,0.634-2.086,2.45-3.598c1.091-0.911,4.567-1.821,6.956-2.287l3.784,3.741
		v15.394c0,0.367,0.135,0.723,0.379,0.997l1.589,1.787L21.022,73.438z M53.593,73.637c-0.597,0.376-0.957,0.99-1.013,1.723
		c-0.1,1.234-1.438,2.707-2.323,3.681c-0.219,0.241-0.421,0.464-0.59,0.662l-0.213,0.247c-1.148,1.328-3.287,3.801-3.287,6.67
		c0,1.006,0.432,1.827,1.217,2.312c2.033,1.259,5.692-0.451,6.406-0.807c0.287-0.144,0.53-0.318,0.788-0.504
		c0.833-0.601,2.228-1.604,6.592-1.482c3.138,0.085,5.071,2.269,6.064,3.85l-3.623,0.705c-0.551-0.993-1.511-2.09-3.017-2.666
		c-2.59-1.001-4.689,0.916-5.436,2.071c-0.024,0.038-0.055,0.092-0.075,0.132c-0.047,0.089-1.167,2.177-4.328,3.414
		c-3.291,1.288-6.157,0.248-8.525-0.936c-1.791-0.897-3.935-4.943-2.498-12.414c1.371-7.188,3.029-9.626,3.035-9.635
		c0.419-0.57,0.382-1.355-0.088-1.885l-3.787-4.257c-0.006-0.007-0.011-0.013-0.017-0.019l-2.426-2.727v-11.25
		c0-3.306,5.847-8.775,12.51-8.775c6.484,0,11.747,5.31,11.747,8.775c0,0.003,0.001,0.006,0.001,0.01v11.24l-3.4,3.821
		c-0.245,0.274-0.38,0.629-0.38,0.997c0,2.019,1.149,5.25,2.154,7.69C56.524,73.319,54.816,72.864,53.593,73.637z M62.028,64.802
		l1.3-1.461c0.245-0.274,0.38-0.629,0.38-0.997V46.953l3.829-3.761c2.826,0.484,6.713,1.428,7.764,2.302
		c1.811,1.513,2.536,2.927,2.443,3.6c-0.065,0.483-0.42,0.976-1.092,1.876c-0.524,0.702-1.176,1.575-1.878,2.778
		c-0.962,1.666-1.562,7.854-1.169,10.21c0.356,2.144,2.016,6.298,3.377,9.478L62.028,64.802z"/>
	<path d="M42.548,52.954c-2.159,0-4.055,1.38-4.719,3.435c-0.255,0.788,0.178,1.634,0.966,1.889
		c0.153,0.049,0.309,0.072,0.462,0.072c0.633,0,1.222-0.403,1.427-1.039c0.262-0.812,1.012-1.356,1.865-1.356
		c0.849,0,1.596,0.546,1.859,1.357c0.255,0.788,1.102,1.219,1.889,0.965c0.788-0.255,1.22-1.101,0.965-1.889
		C46.596,54.334,44.702,52.954,42.548,52.954z"/>
	<path d="M58.437,58.279c0.789-0.251,1.225-1.095,0.973-1.885c-0.655-2.057-2.55-3.439-4.714-3.439
		c-2.146,0-4.086,1.419-4.718,3.449c-0.246,0.791,0.195,1.632,0.986,1.879c0.149,0.046,0.298,0.067,0.446,0.067
		c0.64,0,1.232-0.412,1.433-1.054c0.245-0.79,1.008-1.342,1.854-1.342c0.853,0,1.599,0.543,1.856,1.352
		C56.803,58.094,57.641,58.534,58.437,58.279z"/>
</g>
</svg>
