<?xml version="1.0" encoding="iso-8859-1"?>
<!-- Generator: Adobe Illustrator 21.1.0, SVG Export Plug-In . SVG Version: 6.00 Build 0)  -->
<svg version="1.1" id="Layer_1" xmlns="http://www.w3.org/2000/svg" xmlns:xlink="http://www.w3.org/1999/xlink" x="0px" y="0px"
	 viewBox="0 0 100.353 100.352" style="enable-background:new 0 0 100.353 100.352;" xml:space="preserve">
<path d="M70.357,27.908c-0.309-0.556-0.927-0.858-1.562-0.752c-0.628,0.106-1.12,0.597-1.229,1.224
	c-0.618,3.587-2.555,12.405-5.176,17.72c-0.233-1.586-0.432-3.264-0.627-4.911c-0.285-2.417-0.555-4.701-0.922-6.62
	C57.83,17.585,50.667,5.321,50.364,4.807c-0.329-0.556-0.977-0.839-1.607-0.704c-0.631,0.136-1.105,0.661-1.175,1.303
	c-2.03,18.535-7.53,36.37-10.801,43.716c-1.849-13.25,2.864-30.018,2.917-30.202c0.195-0.683-0.115-1.408-0.743-1.739
	c-0.627-0.33-1.401-0.178-1.854,0.369c-0.186,0.225-4.608,5.583-9.092,13.557c-6.059,10.774-9.131,20.676-9.131,29.431
	c0,8.046,1.75,15.533,4.685,20.051C28.61,90.16,38.44,96.104,49.234,96.104c11.042,0,21.275-6.434,26.1-16.399
	c2.467-3.672,3.938-9.802,3.938-16.436C79.271,44.226,70.721,28.566,70.357,27.908z M72.793,78.106
	c-0.044,0.063-0.082,0.13-0.115,0.199c-4.309,8.99-13.511,14.799-23.444,14.799c-9.699,0-18.53-5.354-23.048-13.972
	c-0.023-0.043-0.047-0.086-0.074-0.126c-2.651-4.043-4.234-10.946-4.234-18.468c0-13.427,8.07-27.541,13.26-35.229
	c-1.448,7.433-2.95,19.189-0.489,28.448c0.141,0.53,0.56,0.94,1.093,1.071c0.533,0.133,1.095-0.041,1.464-0.446
	c2.978-3.263,9.805-22.85,12.754-43.826c2.358,4.953,6.036,13.86,7.933,24.556c0.351,1.834,0.614,4.066,0.894,6.429
	c0.364,3.084,0.741,6.273,1.354,8.904c0.127,0.545,0.547,0.974,1.089,1.112c0.545,0.137,1.116-0.036,1.49-0.453
	c3.331-3.723,5.703-12.435,6.906-17.782c2.516,5.762,6.646,17.17,6.646,29.946C76.271,69.288,74.938,74.974,72.793,78.106z"/>
</svg>
