<?xml version="1.0" encoding="iso-8859-1"?>
<!-- Generator: Adobe Illustrator 21.1.0, SVG Export Plug-In . SVG Version: 6.00 Build 0)  -->
<svg version="1.1" id="Layer_1" xmlns="http://www.w3.org/2000/svg" xmlns:xlink="http://www.w3.org/1999/xlink" x="0px" y="0px"
	 viewBox="0 0 100.353 100.352" style="enable-background:new 0 0 100.353 100.352;" xml:space="preserve">
<path d="M83.233,33.763c1.88-3.654,2.576-7.787,1.926-11.924c-0.811-5.156-3.58-9.688-7.798-12.762
	c-4.219-3.074-9.381-4.318-14.536-3.51c-5.154,0.811-9.686,3.582-12.757,7.801c-3.072,4.214-4.317,9.374-3.506,14.529
	c0.184,1.171,0.482,2.303,0.862,3.4L16.889,79.215c-0.426,0.668-0.258,1.552,0.382,2.019l3.706,2.698l-6.085,8.354
	c-0.488,0.669-0.34,1.607,0.329,2.096c0.267,0.193,0.576,0.287,0.882,0.287c0.463,0,0.92-0.214,1.214-0.617l6.085-8.355l3.37,2.454
	c0.266,0.193,0.575,0.287,0.882,0.287c0.426,0,0.848-0.181,1.143-0.527l37.05-43.506c1.011-0.001,2.03-0.08,3.047-0.24
	c5.156-0.809,9.687-3.577,12.755-7.793c0.287-0.394,0.542-0.804,0.797-1.213C82.944,34.893,83.262,34.356,83.233,33.763z
	 M63.292,8.531c0.869-0.137,1.739-0.205,2.603-0.205c3.47,0,6.841,1.092,9.7,3.175c3.57,2.602,5.915,6.438,6.601,10.802
	c0.55,3.503-0.039,7.002-1.631,10.096c-4.56,0.104-11.654-1.663-16.246-5.008c-5.441-3.965-9.707-9.28-10.616-13.226
	c-0.029-0.127-0.079-0.243-0.136-0.354C56.098,10.985,59.494,9.128,63.292,8.531z M27.414,84.907l-7.238-5.27l28.731-45.086
	c1.351,2.366,3.183,4.45,5.452,6.101c2.372,1.73,5.047,2.868,7.849,3.4L27.414,84.907z M68.43,41.202
	c-4.364,0.684-8.734-0.372-12.304-2.974c-3.57-2.599-5.914-6.434-6.601-10.797c-0.581-3.696,0.099-7.39,1.898-10.603
	c1.735,4.271,5.887,9.169,11.128,12.989c4.533,3.302,11.05,5.188,16.079,5.527C76.059,38.489,72.48,40.567,68.43,41.202z"/>
</svg>
