<?xml version="1.0" encoding="iso-8859-1"?>
<!-- Generator: Adobe Illustrator 21.1.0, SVG Export Plug-In . SVG Version: 6.00 Build 0)  -->
<svg version="1.1" id="Layer_1" xmlns="http://www.w3.org/2000/svg" xmlns:xlink="http://www.w3.org/1999/xlink" x="0px" y="0px"
	 viewBox="0 0 100.354 100.352" style="enable-background:new 0 0 100.354 100.352;" xml:space="preserve">
<g>
	<path d="M58.484,21.76h-0.78c-4.374,0-7.933,3.559-7.933,7.933v7.668c-1.444-1.204-3.3-1.929-5.323-1.929
		c-2.819,0-5.321,1.404-6.821,3.588c-1.5-2.184-4.003-3.588-6.824-3.588c-1.943,0-3.772,0.695-5.219,1.869l-0.236-18.183
		c0-4.589-3.733-8.323-8.323-8.323s-8.323,3.733-8.323,8.334l0.304,39.874c0,0.33,0.096,12.28,0.096,12.286
		c0,9.71,6.364,18.962,14.824,21.584c0.89,0.428,4.962,2.053,15.438,2.053c0.004,0,0.007,0,0.012,0
		c9.801,0,15.367-2.51,15.921-2.772c9.745-4.191,11.06-12.897,11.06-20.863V60.08l0.012-0.095c0.026-0.196,0.048-0.391,0.048-0.592
		V29.693C66.417,25.319,62.858,21.76,58.484,21.76z M44.449,38.432c2.935,0,5.323,2.388,5.323,5.323c0,0.066,0.011,0.13,0.02,0.194
		v6.06c0,2.793-2.394,5.064-5.336,5.064c-2.944,0-5.339-2.271-5.339-5.064v-6.531c0.023-0.083,0.063-0.157,0.072-0.245
		C39.462,40.495,41.724,38.432,44.449,38.432z M30.804,38.432c2.728,0,4.991,2.063,5.265,4.8c0.002,0.021,0.015,0.039,0.018,0.06
		v6.717c0,2.792-2.34,5.062-5.216,5.064c-0.001,0-0.002-0.001-0.004-0.001h-0.01c-2.874-0.005-5.21-2.274-5.21-5.063v-7.497
		C26.225,40.143,28.373,38.432,30.804,38.432z M17.026,13.795c2.935,0,5.323,2.388,5.323,5.342l0.297,22.869v8.003
		c0,1.917,0.688,3.678,1.831,5.063h-12.5l-0.274-35.955C11.703,16.183,14.091,13.795,17.026,13.795z M63.417,59.394
		c0,0.066-0.013,0.13-0.021,0.193l-0.031,0.261c-0.005,0.048-0.007,0.097-0.007,0.145V71.29c0,7.348-1.123,14.627-9.27,18.118
		c-0.022,0.01-0.045,0.02-0.066,0.03c-0.052,0.025-5.208,2.487-14.645,2.487c-0.003,0-0.007,0-0.011,0
		c-10.6,0-14.141-1.758-14.158-1.766c-0.092-0.05-0.188-0.091-0.289-0.121c-7.307-2.201-12.816-10.262-12.816-18.762
		c0,0-0.096-11.944-0.096-12.286L12,58.073h17.523c0.022,1.196-0.211,3.147-1.624,4.994c-2.201,2.878-4.558,3.558-5.666,3.71
		c-0.383-0.003-0.626,0.015-0.674,0.019c-0.054,0.005-0.104,0.02-0.155,0.03c-0.739,0.064-1.341,0.631-1.391,1.388
		c-0.055,0.826,0.571,1.541,1.397,1.596c0.021,0.001,0.092,0.005,0.207,0.005c0.151,0,0.384-0.01,0.672-0.038
		c1.348,0.017,5.394,0.406,8.999,4.267c4.292,4.599,4,9.007,3.986,9.182c-0.076,0.825,0.531,1.556,1.356,1.632
		c0.047,0.004,0.093,0.006,0.14,0.006c0.766,0,1.42-0.584,1.492-1.362c0.022-0.237,0.475-5.874-4.78-11.504
		c-2.044-2.19-4.227-3.464-6.161-4.207c0.981-0.7,1.992-1.633,2.961-2.899c1.963-2.566,2.274-5.283,2.229-6.978
		c2.103-0.421,3.914-1.635,5.1-3.306c1.508,2.094,4.011,3.469,6.843,3.469c4.597,0,8.336-3.618,8.336-8.064V41.92
		c0-0.066-0.011-0.13-0.02-0.194V29.693c0-2.72,2.213-4.933,4.933-4.933h0.78c2.72,0,4.933,2.213,4.933,4.933V59.394z"/>
	<path d="M92.724,23.812l-7.074-5.554l1.279-11.52c0.077-0.698-0.341-1.357-1.005-1.584c-0.665-0.227-1.399,0.037-1.766,0.636
		L74.149,22.133c-0.395,0.645-0.248,1.482,0.342,1.954l6.849,5.481l-1.28,11.528c-0.077,0.695,0.336,1.351,0.996,1.582
		c0.163,0.057,0.33,0.084,0.495,0.084c0.504,0,0.988-0.255,1.27-0.701l10.247-16.27C93.477,25.141,93.328,24.286,92.724,23.812z
		 M83.763,34.936l0.65-5.857c0.057-0.511-0.152-1.016-0.554-1.336l-6.461-5.171l5.807-9.48l-0.63,5.667
		c-0.057,0.516,0.156,1.025,0.565,1.345l6.667,5.234L83.763,34.936z"/>
</g>
</svg>
