<?xml version="1.0" encoding="iso-8859-1"?>
<!-- Generator: Adobe Illustrator 21.1.0, SVG Export Plug-In . SVG Version: 6.00 Build 0)  -->
<svg version="1.1" id="Layer_1" xmlns="http://www.w3.org/2000/svg" xmlns:xlink="http://www.w3.org/1999/xlink" x="0px" y="0px"
	 viewBox="0 0 100.355 100.352" style="enable-background:new 0 0 100.355 100.352;" xml:space="preserve">
<g>
	<path d="M51.451,8.644c-23.062,0-41.825,18.761-41.825,41.821c0,23.065,18.763,41.831,41.825,41.831s41.825-18.766,41.825-41.831
		C93.276,27.405,74.514,8.644,51.451,8.644z M51.451,89.296c-21.408,0-38.825-17.42-38.825-38.831
		c0-21.406,17.417-38.821,38.825-38.821s38.825,17.415,38.825,38.821C90.276,71.876,72.859,89.296,51.451,89.296z"/>
	<path d="M35.494,42.669c-4.622,0-8.668,2.947-10.07,7.334c-0.252,0.79,0.183,1.633,0.972,1.885c0.79,0.254,1.633-0.183,1.885-0.973
		c1.003-3.138,3.901-5.247,7.212-5.247c3.312,0,6.209,2.112,7.211,5.255c0.203,0.639,0.793,1.045,1.429,1.045
		c0.151,0,0.305-0.022,0.456-0.071c0.789-0.251,1.225-1.095,0.974-1.884C44.164,45.621,40.117,42.669,35.494,42.669z"/>
	<path d="M67.408,42.669c-4.62,0-8.668,2.947-10.07,7.334c-0.252,0.789,0.183,1.634,0.972,1.886
		c0.794,0.254,1.634-0.183,1.886-0.972c1.004-3.139,3.902-5.248,7.213-5.248c3.304,0,6.202,2.113,7.213,5.259
		c0.204,0.636,0.793,1.041,1.428,1.041c0.151,0,0.307-0.022,0.459-0.072c0.788-0.253,1.223-1.098,0.969-1.886
		C76.066,45.619,72.021,42.669,67.408,42.669z"/>
	<path d="M51.451,25.512c-3.005,0-5.449,2.444-5.449,5.449c0,3.004,2.444,5.449,5.449,5.449s5.449-2.444,5.449-5.449
		C56.9,27.956,54.456,25.512,51.451,25.512z M51.451,33.41c-1.351,0-2.449-1.099-2.449-2.449c0-1.351,1.099-2.449,2.449-2.449
		s2.449,1.099,2.449,2.449C53.9,32.311,52.802,33.41,51.451,33.41z"/>
</g>
</svg>
