<?xml version="1.0" encoding="iso-8859-1"?>
<!-- Generator: Adobe Illustrator 21.0.0, SVG Export Plug-In . SVG Version: 6.00 Build 0)  -->
<svg version="1.1" id="Layer_1" xmlns="http://www.w3.org/2000/svg" xmlns:xlink="http://www.w3.org/1999/xlink" x="0px" y="0px"
	 viewBox="0 0 100.353 100.353" style="enable-background:new 0 0 100.353 100.353;" xml:space="preserve">
<g>
	<path style="fill:#231F20;" d="M30.957,46.404l17.058,28.549c0.268,0.449,0.751,0.726,1.274,0.73c0.004,0,0.009,0,0.013,0
		c0.518,0,1-0.268,1.274-0.708l17.756-28.549c0.044-0.071,0.082-0.145,0.112-0.22c2.123-3.467,3.243-7.427,3.243-11.47
		c0-12.15-9.887-22.035-22.04-22.035c-12.149,0-22.034,9.885-22.034,22.035c0,4.044,1.121,8.005,3.245,11.473
		C30.886,46.276,30.919,46.341,30.957,46.404z M49.648,15.702c10.499,0,19.04,8.539,19.04,19.035c0,3.565-1.011,7.058-2.923,10.1
		c-0.046,0.072-0.084,0.147-0.115,0.225L49.328,71.302L33.662,45.083c-0.034-0.085-0.075-0.168-0.125-0.247
		c-1.912-3.042-2.923-6.534-2.923-10.1C30.614,24.241,39.153,15.702,49.648,15.702z"/>
	<path style="fill:#231F20;" d="M49.651,42.93c4.517,0,8.192-3.675,8.192-8.192s-3.675-8.192-8.192-8.192s-8.192,3.675-8.192,8.192
		S45.134,42.93,49.651,42.93z M49.651,29.546c2.863,0,5.192,2.329,5.192,5.192c0,2.863-2.329,5.192-5.192,5.192
		c-2.863,0-5.192-2.329-5.192-5.192C44.458,31.875,46.788,29.546,49.651,29.546z"/>
	<path style="fill:#231F20;" d="M68.595,84.298H30.706c-0.829,0-1.5,0.672-1.5,1.5s0.671,1.5,1.5,1.5h37.889
		c0.828,0,1.5-0.672,1.5-1.5S69.423,84.298,68.595,84.298z"/>
</g>
</svg>
