<?xml version="1.0" encoding="iso-8859-1"?>
<!-- Generator: Adobe Illustrator 21.1.0, SVG Export Plug-In . SVG Version: 6.00 Build 0)  -->
<svg version="1.1" id="Layer_1" xmlns="http://www.w3.org/2000/svg" xmlns:xlink="http://www.w3.org/1999/xlink" x="0px" y="0px"
	 viewBox="0 0 100.353 100.352" style="enable-background:new 0 0 100.353 100.352;" xml:space="preserve">
<g>
	<path d="M89.73,37.446H10.27c-0.829,0-1.5,0.671-1.5,1.5v8.301c0,0.4,0.16,0.785,0.445,1.066c0.285,0.282,0.683,0.429,1.071,0.434
		l28.79-0.303v9.804L9.178,90.006c-0.41,0.436-0.522,1.074-0.285,1.623c0.237,0.55,0.778,0.905,1.377,0.905h9.924
		c0.32,0,0.632-0.103,0.89-0.293l27.041-19.943h15.644v18.736c0,0.828,0.672,1.5,1.5,1.5h11.024c0.828,0,1.5-0.672,1.5-1.5V62.373
		c0-0.828-0.672-1.5-1.5-1.5H61.038V48.747H89.73c0.828,0,1.5-0.671,1.5-1.5v-8.301C91.23,38.117,90.559,37.446,89.73,37.446z
		 M88.23,45.747H59.538c-0.828,0-1.5,0.671-1.5,1.5v15.126c0,0.828,0.672,1.5,1.5,1.5h15.255v25.661h-8.024V70.798
		c0-0.828-0.672-1.5-1.5-1.5H47.632c-0.32,0-0.632,0.103-0.89,0.293L19.701,89.534h-5.958L41.667,59.87
		c0.262-0.278,0.408-0.646,0.408-1.028V46.928c0-0.4-0.16-0.785-0.445-1.066c-0.285-0.282-0.721-0.432-1.071-0.434l-28.79,0.303
		v-5.285h76.46V45.747z"/>
	<path d="M50.001,28.979c5.932,0,10.757-4.826,10.757-10.757S55.933,7.465,50.001,7.465c-5.931,0-10.757,4.826-10.757,10.757
		S44.07,28.979,50.001,28.979z M50.001,10.465c4.277,0,7.757,3.479,7.757,7.757s-3.479,7.757-7.757,7.757s-7.757-3.479-7.757-7.757
		S45.724,10.465,50.001,10.465z"/>
</g>
</svg>
