<?xml version="1.0" encoding="iso-8859-1"?>
<!-- Generator: Adobe Illustrator 21.1.0, SVG Export Plug-In . SVG Version: 6.00 Build 0)  -->
<svg version="1.1" id="Layer_1" xmlns="http://www.w3.org/2000/svg" xmlns:xlink="http://www.w3.org/1999/xlink" x="0px" y="0px"
	 viewBox="0 0 100.353 100.353" style="enable-background:new 0 0 100.353 100.353;" xml:space="preserve">
<g>
	<path d="M59.07,53.905c-20.092,0-36.438,16.35-36.438,36.445c0,0.828,0.671,1.5,1.5,1.5H94.01c0.828,0,1.5-0.672,1.5-1.5
		C95.51,70.254,79.163,53.905,59.07,53.905z M25.666,88.85c0.788-17.748,15.47-31.945,33.404-31.945
		c17.936,0,32.618,14.197,33.406,31.945H25.666z"/>
	<path d="M58.465,50.067c11.557,0,20.959-9.402,20.959-20.959S70.021,8.149,58.465,8.149s-20.959,9.402-20.959,20.959
		S46.908,50.067,58.465,50.067z M58.465,11.149c9.902,0,17.959,8.056,17.959,17.959s-8.057,17.959-17.959,17.959
		c-9.903,0-17.959-8.056-17.959-17.959S48.562,11.149,58.465,11.149z"/>
	<path d="M47.309,29.571c0.442-1.387,1.723-2.318,3.186-2.318c1.458,0,2.74,0.934,3.191,2.325c0.206,0.634,0.794,1.038,1.427,1.038
		c0.153,0,0.31-0.024,0.463-0.074c0.788-0.256,1.22-1.102,0.964-1.89c-0.854-2.631-3.283-4.399-6.045-4.399
		c-2.774,0-5.204,1.771-6.044,4.406c-0.251,0.79,0.184,1.633,0.973,1.885C46.211,30.796,47.057,30.36,47.309,29.571z"/>
	<path d="M61.283,30.544c0.791,0.251,1.633-0.185,1.885-0.974c0.441-1.386,1.722-2.317,3.188-2.317c1.457,0,2.737,0.934,3.188,2.324
		c0.205,0.635,0.793,1.039,1.427,1.039c0.152,0,0.309-0.024,0.462-0.073c0.788-0.255,1.221-1.101,0.965-1.889
		c-0.851-2.632-3.279-4.4-6.041-4.4c-2.777,0-5.207,1.771-6.047,4.407C60.058,29.449,60.494,30.293,61.283,30.544z"/>
	<path d="M23.733,32.999l0.017,4.142c0.003,0.826,0.674,1.494,1.5,1.494c0.002,0,0.004,0,0.006,0
		c0.828-0.003,1.497-0.678,1.494-1.506l-0.017-4.136c0-5.488-4.815-10.124-10.514-10.124c-0.4,0-0.784,0.16-1.066,0.445
		s-0.438,0.67-0.434,1.07l0.224,22.119c-1.063-0.699-2.333-1.108-3.698-1.108c-3.724,0-6.754,3.029-6.754,6.752
		c0,3.723,3.03,6.752,6.754,6.752s6.754-3.029,6.754-6.752c0-0.001,0-0.002,0-0.003c0-0.004,0.001-0.008,0.001-0.013l-0.264-26.103
		C21.068,26.735,23.733,29.688,23.733,32.999z M11.245,55.899c-2.07,0-3.754-1.684-3.754-3.752c0-2.069,1.684-3.752,3.754-3.752
		s3.754,1.683,3.754,3.752C14.999,54.215,13.315,55.899,11.245,55.899z"/>
</g>
</svg>
