<?xml version="1.0" encoding="iso-8859-1"?>
<!-- Generator: Adobe Illustrator 21.1.0, SVG Export Plug-In . SVG Version: 6.00 Build 0)  -->
<svg version="1.1" id="Layer_1" xmlns="http://www.w3.org/2000/svg" xmlns:xlink="http://www.w3.org/1999/xlink" x="0px" y="0px"
	 viewBox="0 0 100.353 100.353" style="enable-background:new 0 0 100.353 100.353;" xml:space="preserve">
<g>
	<path d="M86.957,31.69l-7.027-16.934l2.855-1.221c0.762-0.326,1.115-1.207,0.789-1.969c-0.325-0.761-1.205-1.116-1.969-0.789
		l-8.443,3.612c-0.762,0.326-1.115,1.207-0.789,1.969c0.243,0.569,0.797,0.911,1.38,0.911c0.196,0,0.396-0.039,0.589-0.122
		l2.83-1.211l5.278,12.718c-4.248-2.327-9.119-3.653-14.295-3.653c-16.458,0-29.847,13.387-29.847,29.842
		c0,3.576,0.634,7.006,1.792,10.187c-2.281-1.117-5.565-3.385-8.671-7.92c-3.007-4.396-4.086-12.705-4.096-12.787
		c-0.025-0.204-0.09-0.393-0.187-0.561c-0.488-4.249-1.988-7.381-4.807-8.257c-6.454-1.998-13.898,9.707-17.622,21.736
		C1.005,69.267,0.544,83.127,7.002,85.125c0.466,0.145,0.946,0.216,1.438,0.216c1.097,0,2.253-0.377,3.436-1.072
		c0.046-0.026,0.096-0.039,0.14-0.07c0.074-0.053,0.148-0.097,0.222-0.149c0.159-0.102,0.317-0.206,0.476-0.32
		c19.665-13.416,41.291-2.607,41.509-2.495c0.032,0.016,0.065,0.024,0.097,0.038c4.138,2.174,8.843,3.411,13.833,3.411
		c16.457,0,29.847-13.387,29.847-29.842C98.001,45.509,93.69,37.166,86.957,31.69z M7.889,82.26
		c-3.342-1.034-4.182-11.575-0.305-24.134c3.667-11.849,9.785-19.843,13.269-19.843c0.209,0,0.409,0.029,0.598,0.087
		c3.345,1.04,4.186,11.584,0.304,24.14v0.001c-1.877,6.077-4.492,11.507-7.365,15.29c-1.154,1.519-2.312,2.686-3.381,3.463
		c-0.158,0.108-0.316,0.208-0.474,0.319C9.52,82.22,8.604,82.481,7.889,82.26z M18.434,77.205c2.413-3.794,4.572-8.578,6.187-13.809
		v0.001c0.92-2.976,1.639-6.064,2.105-9.057c0.602,1.601,1.336,3.162,2.227,4.464c5.098,7.444,10.794,9.53,12.867,10.067
		c1.292,2.415,2.91,4.63,4.789,6.592C39.523,73.745,29.091,72.754,18.434,77.205z M68.154,81.685
		c-10.465,0-19.545-6.021-23.971-14.777c-0.003-0.006-0.006-0.012-0.009-0.018c-1.829-3.625-2.867-7.716-2.867-12.046
		c0-14.801,12.043-26.842,26.847-26.842c6.174,0,11.864,2.1,16.405,5.616c0.177,0.259,0.42,0.449,0.702,0.555
		c5.946,4.927,9.74,12.364,9.74,20.67C95.001,69.644,82.958,81.685,68.154,81.685z"/>
	<path d="M68.205,30.784c-3.681,0-7.17,0.84-10.284,2.338c-0.55,0.208-1.077,0.488-1.572,0.837
		c-7.135,4.116-11.952,11.82-11.952,20.633c0,13.128,10.68,23.808,23.808,23.808c3.085,0,6.032-0.596,8.74-1.669
		c0.406-0.133,0.799-0.298,1.175-0.502c8.19-3.768,13.893-12.046,13.893-21.637C92.013,41.464,81.333,30.784,68.205,30.784z
		 M89.013,54.592c0,1.15-0.118,2.27-0.298,3.369L65.493,34.74c-0.237-0.237-0.491-0.446-0.751-0.643
		c1.129-0.19,2.281-0.312,3.463-0.312C79.679,33.784,89.013,43.118,89.013,54.592z M53.343,40.056
		c0.067,1.731,0.752,3.443,2.071,4.762l22.23,22.228c0.778,0.778,1.207,1.814,1.207,2.916c0,1.103-0.429,2.138-1.207,2.916
		c-0.299,0.299-0.645,0.529-1.009,0.72c-0.195,0.087-0.388,0.173-0.586,0.254c-0.423,0.143-0.865,0.235-1.324,0.235
		c-1.102,0-2.137-0.429-2.915-1.208L48.13,49.202C49.07,45.707,50.883,42.571,53.343,40.056z M47.397,54.592
		c0-0.604,0.04-1.199,0.091-1.791l22.201,22.198c0.109,0.109,0.225,0.207,0.339,0.308C69.426,75.36,68.82,75.4,68.205,75.4
		C56.731,75.4,47.397,66.066,47.397,54.592z M81.836,70.276c0.005-0.105,0.015-0.208,0.015-0.314c0-1.903-0.741-3.692-2.086-5.037
		l-22.23-22.228c-1.609-1.61-1.609-4.23,0-5.839c0.145-0.145,0.306-0.262,0.466-0.38c0.387-0.219,0.786-0.416,1.187-0.61
		c1.427-0.458,3.053-0.139,4.184,0.992l24.491,24.491C86.661,64.838,84.563,67.903,81.836,70.276z"/>
</g>
</svg>
