<?xml version="1.0" encoding="iso-8859-1"?>
<!-- Generator: Adobe Illustrator 21.1.0, SVG Export Plug-In . SVG Version: 6.00 Build 0)  -->
<svg version="1.1" id="Layer_1" xmlns="http://www.w3.org/2000/svg" xmlns:xlink="http://www.w3.org/1999/xlink" x="0px" y="0px"
	 viewBox="0 0 100.353 100.353" style="enable-background:new 0 0 100.353 100.353;" xml:space="preserve">
<path d="M85.183,13.315H75.055h-8.039H54.018h-8.039H32.981h-8.039H14.817c-0.829,0-1.5,0.671-1.5,1.5v70.37
	c0,0.828,0.671,1.5,1.5,1.5h70.366c0.828,0,1.5-0.672,1.5-1.5v-70.37C86.683,13.987,86.011,13.315,85.183,13.315z M73.555,16.315
	v41.778h-5.039V16.315H73.555z M32.981,61.093c0.829,0,1.5-0.672,1.5-1.5V16.315h9.998v43.278c0,0.828,0.671,1.5,1.5,1.5h2.519
	v22.592H30.462V61.093H32.981z M51.498,61.093h2.52c0.828,0,1.5-0.672,1.5-1.5V16.315h9.998v43.278c0,0.828,0.672,1.5,1.5,1.5h2.52
	v22.592H51.498V61.093z M52.518,16.315v41.778h-5.039V16.315H52.518z M31.481,16.315v41.778h-5.039V16.315H31.481z M16.317,16.315
	h7.125v43.278c0,0.828,0.671,1.5,1.5,1.5h2.52v22.592H16.317V16.315z M83.683,83.685H72.535V61.093h2.52c0.828,0,1.5-0.672,1.5-1.5
	V16.315h7.128V83.685z"/>
</svg>
