<?xml version="1.0" encoding="iso-8859-1"?>
<!-- Generator: Adobe Illustrator 21.1.0, SVG Export Plug-In . SVG Version: 6.00 Build 0)  -->
<svg version="1.1" id="Layer_1" xmlns="http://www.w3.org/2000/svg" xmlns:xlink="http://www.w3.org/1999/xlink" x="0px" y="0px"
	 viewBox="0 0 100.353 100.353" style="enable-background:new 0 0 100.353 100.353;" xml:space="preserve">
<path d="M81.285,16.987c-0.648-0.518-1.591-0.415-2.109,0.232l-10.93,13.639l-0.282-0.294c-0.404-0.422-1.015-0.57-1.568-0.383
	l-0.775,0.264l-4.898-19.198c-0.169-0.665-0.768-1.129-1.453-1.129h-6.793h-8.931h-7.217c-0.695,0-1.299,0.478-1.459,1.154
	l-16.676,70.37c-0.106,0.446-0.001,0.916,0.283,1.276c0.285,0.359,0.718,0.569,1.177,0.569h4.566v4.894c0,0.828,0.671,1.5,1.5,1.5
	h6.727c0.829,0,1.5-0.672,1.5-1.5v-4.894h28.35v4.894c0,0.828,0.672,1.5,1.5,1.5h6.728c0.828,0,1.5-0.672,1.5-1.5v-4.894h5.196
	c0.465,0,0.903-0.216,1.188-0.583c0.284-0.368,0.381-0.847,0.264-1.296L68.516,42.756c0.016-0.003,0.032-0.002,0.048-0.005
	c0.503-0.1,0.919-0.45,1.105-0.928l2.274-5.848c0.211-0.543,0.088-1.159-0.314-1.581l-1.292-1.35l11.179-13.95
	C82.035,18.449,81.932,17.505,81.285,16.987z M53.977,53.458l10.735-13.393l3.876,14.831H53.977V53.458z M62.773,31.416
	l-2.322,0.792c-0.484,0.166-0.852,0.567-0.973,1.065c-0.122,0.498,0.02,1.023,0.374,1.393l2.91,3.036l-8.786,10.96V13.118h4.128
	L62.773,31.416z M50.977,13.118v41.778h-5.931V13.118H50.977z M37.515,13.118h4.531v41.778H27.615L37.515,13.118z M30.946,86.881
	h-3.727v-3.394h3.727V86.881z M69.023,86.881h-3.728v-3.394h3.728V86.881z M70.523,80.488h-6.728h-31.35h-6.727H21.55l5.354-22.592
	h16.642h8.931h16.896l5.905,22.592H70.523z M67.727,38.544l-4.08-4.256l2.812-0.958l0.548,0.573c0.092,0.164,0.214,0.315,0.37,0.44
	c0.033,0.026,0.073,0.036,0.107,0.059l1.318,1.378L67.727,38.544z"/>
</svg>
