<?xml version="1.0" encoding="iso-8859-1"?>
<!-- Generator: Adobe Illustrator 21.1.0, SVG Export Plug-In . SVG Version: 6.00 Build 0)  -->
<svg version="1.1" id="Layer_1" xmlns="http://www.w3.org/2000/svg" xmlns:xlink="http://www.w3.org/1999/xlink" x="0px" y="0px"
	 viewBox="0 0 100.354 100.352" style="enable-background:new 0 0 100.354 100.352;" xml:space="preserve">
<g>
	<path d="M59.345,19.787c2.575,0,4.671-2.096,4.671-4.673s-2.096-4.673-4.671-4.673s-4.671,2.096-4.671,4.673
		S56.77,19.787,59.345,19.787z M59.345,13.441c0.921,0,1.671,0.75,1.671,1.673s-0.75,1.673-1.671,1.673s-1.671-0.75-1.671-1.673
		S58.424,13.441,59.345,13.441z"/>
	<path d="M35.999,22.19c4.983,3.122,10.335,5.087,15.911,5.844c1.629,0.219,3.291,0.33,4.951,0.33
		c10.413,0,20.749-4.363,22.354-13.692c0.141-0.816-0.407-1.592-1.224-1.732c-0.817-0.14-1.592,0.407-1.733,1.224
		c-1.543,8.964-13.488,12.305-23.947,10.897c-5.148-0.698-10.1-2.52-14.719-5.413c-0.702-0.44-1.627-0.227-2.067,0.475
		C35.084,20.825,35.296,21.751,35.999,22.19z"/>
	<path d="M87.258,47.375c-2.646-7.931-8.613-13.048-16.371-14.041c-4.92-0.635-10.754,0.577-13.877,2.877
		c-5.569,4.102-11.982,12.637-12.678,13.572c-3.543-0.458-6.696-0.51-8.7-0.514c0.538-0.668,1.33-1.526,1.973-2.222
		c3.668-3.973,9.211-9.978,5.03-15.04c-2.168-2.624-4.802-3.916-7.8-3.825c-8.247,0.234-16.329,11.103-16.669,11.565
		c-0.491,0.667-0.347,1.605,0.32,2.096s1.606,0.348,2.097-0.319c0.075-0.102,7.557-10.155,14.341-10.344
		c2.068-0.048,3.83,0.838,5.398,2.737c2.32,2.809-1.004,6.851-4.922,11.094c-2.436,2.638-3.905,4.23-3.186,5.874
		c0.401,0.918,1.35,1.383,2.819,1.383c4.788,0,19.357,0,25.828,8.319c2.244,2.891,5.815,9.41,4.965,15.511
		c-0.416,2.977-1.885,5.41-4.365,7.23c-8.781,6.436-21.648,1.863-31.988-1.811c-2.591-0.921-5.039-1.79-7.229-2.416
		c-6.915-1.979-15.438,2.065-15.798,2.238c-0.746,0.36-1.06,1.257-0.7,2.003s1.257,1.06,2.002,0.7
		c0.078-0.038,7.843-3.724,13.67-2.057c2.1,0.6,4.504,1.454,7.05,2.358c6.842,2.432,14.722,5.232,22.125,5.231
		c4.505,0,8.834-1.038,12.642-3.829c3.159-2.318,5.03-5.426,5.562-9.235c0.866-6.205-2.172-13.394-5.567-17.766
		c-3.824-4.917-9.878-7.272-15.543-8.41c2.064-2.65,6.941-8.645,11.102-11.71c2.52-1.857,7.557-2.852,11.715-2.317
		c6.572,0.841,11.642,5.22,13.908,12.014c1.106,3.321,2.407,13.101-3.188,15.237c-3.811,1.449-8.669-2.921-8.715-2.963
		c-0.61-0.561-1.56-0.519-2.119,0.092s-0.519,1.56,0.092,2.119c0.212,0.195,4.471,4.041,9.105,4.041
		c0.896,0,1.808-0.145,2.706-0.486C89.863,63.475,88.907,52.323,87.258,47.375z"/>
</g>
</svg>
