<svg width="48" height="48" viewBox="0 0 48 48" fill="none" xmlns="http://www.w3.org/2000/svg">
<path fill-rule="evenodd" clip-rule="evenodd" d="M47.7407 24.5474C47.7469 24.324 47.75 24.0999 47.75 23.875C47.75 10.6892 37.0608 0 23.875 0C10.6892 0 0 10.6892 0 23.875C0 37.0608 10.6892 47.75 23.875 47.75C24.1 47.75 24.3243 47.7469 24.5478 47.7407C12.3968 47.3948 2.65279 37.436 2.65279 25.2014C2.65279 12.7481 12.7481 2.65277 25.2014 2.65277C37.4359 2.65277 47.3946 12.3966 47.7407 24.5474Z" fill="#F4F7F7"/>
<path d="M25.21 22.8758C25.4109 22.9836 25.4834 23.2323 25.3746 23.4285C25.2658 23.6274 25.0147 23.6992 24.8167 23.5915C23.408 22.8289 22.2671 21.9198 21.6423 20.6626C21.0704 19.5131 20.9421 18.0984 21.4442 16.2802C20.5432 16.3742 19.4999 16.6892 18.426 17.0125C16.5096 17.59 14.5123 18.1923 12.8498 17.7088C12.6573 18.0846 12.5123 18.4907 12.4063 18.9218C12.2696 19.4799 12.1998 20.0795 12.1803 20.7095C12.1636 21.2539 12.1775 21.6269 12.1887 21.917C12.2222 22.7736 12.2333 22.9891 11.4941 24.484L10.1942 27.1145C10.1858 27.1366 10.1747 27.1559 10.1607 27.1753C9.94316 27.5041 9.84552 27.808 9.83994 28.0622C9.83715 28.2087 9.86505 28.3358 9.91805 28.4408C9.96268 28.532 10.0268 28.6066 10.1077 28.6618C10.1133 28.6646 10.1189 28.6701 10.1245 28.6729C10.2221 28.7364 10.3448 28.7751 10.4815 28.7806C10.4927 28.7806 10.5038 28.7806 10.515 28.7806L12.0353 28.8691C12.0771 28.8525 12.1245 28.8442 12.1747 28.8414C12.1887 28.8414 12.2026 28.8414 12.2166 28.8414L13.5974 28.9575C13.8233 28.9768 13.9935 29.173 13.974 29.3996C13.9544 29.6234 13.7564 29.792 13.5276 29.7726L13.5053 29.7698L12.6015 29.7173L12.6043 29.9412C12.6127 30.6485 12.6239 31.3476 12.6852 32.055C13.0785 32.2456 13.4579 32.3617 13.8233 32.3976C14.2334 32.439 14.6323 32.3782 15.02 32.2097C15.2292 32.1185 15.4719 32.2125 15.564 32.4197C15.656 32.6269 15.5612 32.8673 15.352 32.9585C14.8331 33.1851 14.2948 33.2652 13.7424 33.2127C13.4161 33.1795 13.0869 33.0994 12.7522 32.9751C12.7689 33.1464 12.7884 33.3149 12.8107 33.4863C12.861 33.8648 12.9307 34.2516 13.0172 34.644C13.0423 34.7518 13.02 34.8595 12.9642 34.9479C12.6601 35.5503 12.5095 36.0587 12.4816 36.4787C12.4509 36.9346 12.5792 37.28 12.8247 37.5287C13.0925 37.7967 13.5053 37.9736 14.0242 38.0703C14.8303 38.2195 15.8597 38.1753 16.9754 37.9763C18.0355 37.7884 19.2238 37.4845 20.32 37.0645C21.2155 36.7219 22.0439 36.2991 22.6772 35.7962C23.3132 35.2933 23.6005 34.4837 23.846 33.793C23.8934 33.6576 23.9408 33.5277 23.9659 33.4614L24.0356 33.2735C24.3313 32.4667 24.8474 31.063 25.5001 30.5656C25.6786 30.4275 25.9381 30.4606 26.0775 30.6402C26.217 30.8198 26.1835 31.074 26.0022 31.2122C25.5392 31.5659 25.0761 32.8259 24.8083 33.5526C24.7581 33.688 24.7609 33.6824 24.7386 33.7432C24.6856 33.8841 24.6549 33.9726 24.6214 34.0637C24.3397 34.8568 24.0105 35.7879 23.1904 36.4373C22.4903 36.9927 21.5865 37.4541 20.6157 37.8271C20.3703 37.9211 20.1192 38.0095 19.8654 38.0924C19.8793 38.4544 19.8681 38.8136 19.8319 39.1755C19.7873 39.6425 19.7008 40.0984 19.5808 40.5488C19.5222 40.7671 19.2963 40.897 19.0759 40.8389C18.8556 40.7809 18.7245 40.5571 18.783 40.3388C18.8946 39.9243 18.9727 39.5126 19.0118 39.0982C19.0369 38.8495 19.048 38.5953 19.0452 38.3411C18.3869 38.5234 17.7314 38.6699 17.1149 38.7804C15.9015 38.9959 14.7718 39.0429 13.8652 38.8744C13.1845 38.7473 12.6239 38.4958 12.2305 38.1034C11.8177 37.689 11.6057 37.1363 11.6531 36.429C11.6866 35.9289 11.8512 35.3514 12.1747 34.6827C12.0994 34.3318 12.0381 33.967 11.9878 33.5913C11.9321 33.1768 11.8958 32.7568 11.8818 32.3313C11.8818 32.3257 11.8818 32.3202 11.8818 32.3147C11.8763 32.2953 11.8735 32.276 11.8735 32.2567C11.7982 31.4775 11.7898 30.7204 11.7786 29.9522L11.7814 29.6731L10.4704 29.5958H10.4592C10.1607 29.5847 9.89573 29.5018 9.67536 29.3581C9.667 29.3526 9.65584 29.3471 9.64747 29.3388C9.44942 29.2034 9.29042 29.021 9.18163 28.8027C9.07284 28.5817 9.01426 28.3275 9.01984 28.0457C9.0282 27.6505 9.16489 27.2057 9.46057 26.7497L10.7549 24.1275C11.4021 22.8206 11.3937 22.6437 11.3658 21.9502C11.3546 21.649 11.3379 21.2622 11.3574 20.6874C11.3797 20.0022 11.4578 19.3473 11.6057 18.7339C11.7201 18.2642 11.8763 17.8193 12.0827 17.4021L9.62794 16.341C9.41873 16.2498 9.32389 16.0095 9.41594 15.805C9.4271 15.7774 9.44384 15.7497 9.46057 15.7276C15.0479 8.18427 21.3494 6.1064 26.6773 7.1481C29.7876 7.75599 32.5575 9.43044 34.6552 11.7017C36.7501 13.973 38.1783 16.8439 38.5995 19.8502C39.2941 24.7907 37.2885 30.0821 31.1181 33.6659C31.0484 33.7073 30.9703 33.7239 30.895 33.7211C30.895 34.5169 30.9424 35.2878 31.0345 36.0339C31.2102 37.4513 31.5449 38.7776 32.0191 40.0266C32.1 40.2366 31.9913 40.4714 31.7792 40.5516C31.5672 40.6317 31.3301 40.5239 31.2492 40.3139C30.7499 39.0015 30.3985 37.6116 30.2171 36.1333C30.0358 34.6578 30.0219 33.0911 30.1948 31.4222C30.2171 31.1984 30.4208 31.0354 30.6467 31.0575C30.8727 31.0796 31.0372 31.2813 31.0149 31.5051C30.9675 31.9555 30.934 32.4003 30.9173 32.8369C36.5827 29.4521 38.4294 24.542 37.785 19.9607C37.3861 17.1202 36.036 14.4013 34.0527 12.2516C32.0694 10.1019 29.4556 8.52138 26.5211 7.94941C21.5753 6.98508 15.7174 8.8944 10.4369 15.7967L12.8052 16.8191C12.8303 16.8273 12.8526 16.8384 12.8777 16.8522C12.8833 16.855 12.8889 16.8605 12.8944 16.8633C14.3478 17.391 16.3116 16.7969 18.1917 16.2305C19.5418 15.8243 20.85 15.4292 21.9826 15.4347C22.0356 15.432 22.0886 15.4375 22.1416 15.4541C22.3592 15.5259 22.4763 15.7552 22.4038 15.9708C21.7817 17.8414 21.8515 19.2257 22.3843 20.3006C22.9198 21.3865 23.9408 22.1906 25.21 22.8758ZM16.239 23.6219C15.8345 23.6219 15.5082 23.9452 15.5082 24.3458C15.5082 24.7465 15.8345 25.0698 16.239 25.0698C16.6435 25.0698 16.9699 24.7465 16.9699 24.3458C16.9699 23.9452 16.6435 23.6219 16.239 23.6219ZM28.0804 25.2273C28.1222 25.4483 27.9744 25.6611 27.7484 25.7025C27.5253 25.744 27.3105 25.5975 27.2687 25.3737C27.2101 25.0615 27.2296 24.7631 27.3049 24.4923C27.4137 24.111 27.6397 23.7821 27.9353 23.5335C28.2254 23.2903 28.5853 23.1218 28.9702 23.0527C29.291 22.9946 29.6313 23.0057 29.9605 23.0969C30.8531 23.3456 31.2325 23.7904 31.3134 24.3541C31.3859 24.857 31.1851 25.4069 30.9061 25.9844C30.6579 26.5011 29.7039 28.4767 28.761 29.6787C27.4974 31.2951 26.2672 31.8781 26.0775 28.4325C26.0664 28.2087 26.2421 28.0153 26.4681 28.0042C26.694 27.9932 26.8893 28.1672 26.9004 28.391C26.9953 30.1097 27.5448 29.8997 28.1083 29.1785C28.9953 28.0457 29.9187 26.1363 30.1586 25.6334C30.3761 25.1775 30.5379 24.7658 30.4961 24.4619C30.4626 24.2242 30.2506 24.0225 29.7373 23.8788C29.5309 23.8208 29.3161 23.8153 29.1181 23.8512C28.8754 23.8954 28.6494 24.0004 28.4681 24.1552C28.2924 24.3016 28.1613 24.4923 28.0971 24.7133C28.0553 24.8708 28.0469 25.0449 28.0804 25.2273ZM18.3116 22.7708C18.5125 22.8758 18.5906 23.1218 18.4846 23.3207C18.3786 23.5196 18.1303 23.597 17.9295 23.492C17.4162 23.2268 16.9057 23.0693 16.4008 23.0582H16.398C15.9015 23.0471 15.4022 23.177 14.8917 23.481C14.6964 23.597 14.4426 23.5362 14.3254 23.3428C14.2083 23.1494 14.2696 22.8979 14.4649 22.7819C15.1149 22.3951 15.7648 22.2293 16.4148 22.2431H16.4176C17.0619 22.2597 17.6896 22.4503 18.3116 22.7708Z" fill="#F4F7F7"/>
</svg>
