<svg xmlns="http://www.w3.org/2000/svg" width="25" height="27">
  <path fill-rule="evenodd" d="M21.929 24.435L20.2 22.923l-1.829-1.607.758 2.498h-16.2C1.314 23.814 0 22.572 0 21.033V2.781C0 1.242 1.314 0 2.929 0h19.142C23.686 0 25 1.242 25 2.781V27l-3.071-2.565zM18.871 7.709c-2.057-1.459-4.014-1.418-4.014-1.418l-.2.216c2.429.702 3.557 1.714 3.557 1.714a12.151 12.151 0 00-4.3-1.296 12.897 12.897 0 00-2.885.027c-.086 0-.158.014-.243.028-.5.04-1.715.216-3.243.85-.529.229-.843.391-.843.391s1.186-1.066 3.757-1.768l-.143-.162S8.357 6.25 6.3 7.709c0 0-2.057 3.523-2.057 7.87 0 0 1.2 1.957 4.357 2.052 0 0 .529-.608.957-1.12-1.814-.513-2.5-1.594-2.5-1.594s.143.095.4.23a.2.2 0 00.057.041c.043.026.086.04.129.067.357.189.714.337 1.043.459.585.216 1.285.432 2.1.581a10.58 10.58 0 003.7.013 9.79 9.79 0 002.071-.581 8.368 8.368 0 001.643-.796s-.714 1.107-2.586 1.606c.429.513.943 1.094.943 1.094 3.157-.095 4.372-2.052 4.372-2.052 0-4.347-2.058-7.87-2.058-7.87zm-3.742 6.615c-.8 0-1.458-.676-1.458-1.499 0-.824.643-1.499 1.458-1.499.814 0 1.457.675 1.457 1.499 0 .823-.643 1.499-1.457 1.499zm-5.215 0c-.8 0-1.457-.676-1.457-1.499 0-.824.643-1.499 1.457-1.499.815 0 1.472.675 1.457 1.499 0 .823-.642 1.499-1.457 1.499z"/>
</svg>
