<svg xmlns="http://www.w3.org/2000/svg" width="48" height="24">
  <path fill-rule="evenodd" d="M39.387 22.243c.71-.045 1.529.085 2.063-.109.494.22 1.136-.146 1.638-.054.348.066.355.335.692.383.863-.706 1.484-1.668 2.266-2.469-.088-.307-.138-.657-.211-.984l-.311-.489h-.334c-.032-.243-.082-.481-.21-.67-.205.042-.307.008-.526 0-.231-.01-.459.058-.581 0-.379-.242-.772-.626-1.212-1.041-.269-.253-.965-.894-1.324-.935-.35-.036-.761.212-1.162.327-.396.118-.858.28-1.215.331-.753.117-1.647.079-2.486.116-5.254.182-11.072.578-16.206.643 6.414-3.538 12.951-7.481 19.386-11.105.482-.277 1.093-.716 1.425-.765.477-.08 1.073.096 1.535.155.52.073 1.007.143 1.425.278 1.277-.737 2.713-1.314 3.963-2.083-.286-.123-.494-.322-.686-.553a.36.36 0 00.001-.127c.226-.115.456-.219.678-.316-.382-.522-1.09-.84-1.761-1.232-.056-.066-.177-.13-.104-.234-.702-.442-1.369-.92-2.114-1.313-.734.26-1.123.515-1.863.769-.118.062-.312-.141-.476-.166-1.079.721-2.254 1.238-3.437 1.751-.927.412-1.805.886-2.534 1.373-.266.176-.566.326-.846.496l-.737.56c-9.029 4.69-16.38 8.002-25.083 12.138.145.111.301.188.4.346l-3.782 1.408c-1.091.62-2.888 1.314-4.384.823-.467.211-.919.443-1.274.767.439.238.909.476 1.393.719a1.79 1.79 0 00-.219.11c1.447.687 3.128 1.538 4.646 2.196.544.237 1.134.526 1.638.655.398.1.816.025 1.22 0a116.23 116.23 0 004.914-.326c.933-.084 1.894-.276 2.803-.274 1.496.005 2.987.052 4.493.052 1.518 0 3.058-.203 4.597-.273a527.76 527.76 0 009.245-.492c1.582-.097 3.142-.279 4.657-.386z"/>
</svg>
