<svg xmlns="http://www.w3.org/2000/svg" width="24" height="24">
  <path fill-rule="evenodd" d="M23.93 16.949c-.057 1.275-.263 2.147-.558 2.911a6.14 6.14 0 01-3.513 3.512c-.759.295-1.636.501-2.912.558-1.28.056-1.688.07-4.947.07-3.259 0-3.667-.014-4.947-.07-1.276-.057-2.148-.263-2.912-.558a5.925 5.925 0 01-2.125-1.383A5.924 5.924 0 01.628 19.86c-.295-.759-.501-1.636-.558-2.911-.056-1.28-.07-1.688-.07-4.947 0-3.258.014-3.666.075-4.951.056-1.275.263-2.147.558-2.911.3-.797.774-1.524 1.383-2.124A5.876 5.876 0 014.145.628C4.905.333 5.782.127 7.057.07 8.338.014 8.746 0 12.005 0c3.259 0 3.667.014 4.952.075 1.275.056 2.147.263 2.912.558.797.3 1.524.774 2.124 1.383a5.864 5.864 0 011.388 2.128c.296.76.502 1.637.558 2.912.056 1.28.061 1.688.061 4.946 0 3.259-.014 3.667-.07 4.947zm-2.153-9.785c-.051-1.168-.248-1.805-.412-2.227a3.751 3.751 0 00-.896-1.379 3.696 3.696 0 00-1.379-.895c-.422-.164-1.055-.361-2.227-.413-1.262-.056-1.641-.07-4.849-.07-3.203 0-3.583.014-4.849.07-1.167.052-1.805.249-2.227.413-.521.192-.99.497-1.379.895a3.648 3.648 0 00-.9 1.379c-.164.422-.361 1.055-.413 2.227-.056 1.261-.07 1.645-.07 4.848 0 3.202.014 3.582.07 4.848.052 1.167.249 1.805.413 2.227.192.52.497.989.896 1.378.384.399.858.703 1.378.896.422.164 1.055.361 2.228.412 1.261.056 1.646.07 4.848.07 3.203 0 3.583-.014 4.849-.07 1.168-.051 1.806-.248 2.228-.412a3.99 3.99 0 002.279-2.279c.164-.422.361-1.055.412-2.227.057-1.266.071-1.641.071-4.843 0-3.203-.014-3.582-.071-4.848zm-3.362-.131a1.44 1.44 0 110-2.88 1.44 1.44 0 010 2.88zm-6.41 11.135a6.168 6.168 0 01-6.167-6.166 6.168 6.168 0 0112.333 0 6.168 6.168 0 01-6.166 6.166zm0-10.165a4 4 0 100 8 4 4 0 000-8z"/>
</svg>
