<svg xmlns="http://www.w3.org/2000/svg" viewBox="0 0 588.7 260.4">
  <path d="M42.8 229.2c3.7-3.9 8-8.4 10.5-10.5-.7-.1-1.9-.2-3.1-.4-2.7 2.4-6.1 6-9.1 9.3-3.9 4.2-7.1 7.8-7.1 7.8l-.1.1c-2.5.7-6.8 1.9-9.7 2.7-4.2 1.2-8 .9-8 3.7 0 0-4.4 2.4-3.4 5.9 0 0 8.8-7 16.3-8.2 0 0-4.6 3-4.2 7 0 0 6.2-9.3 13.4-3.6 0 0-3.2-4.4-1.9-6.8 1.2-1.4 3.6-4.1 6.4-7zM28.9 119.7c-.4.2-.8.2-1.2.2-1.3 0-2.5-.8-3-2 0-.1-.1-.2-.1-.4l-1 .3c.8 2.3 3.2 3.6 5.4 2.9.5-.2 1-.5 1.4-.9 1.2-1.1 1.7-3 1.1-4.7l-2.2.7c.1.3.2.7.2 1 0 .3-.1.6-.2.9l1 .6c-.2.3-.4.5-.6.7-.2.4-.5.6-.8.7zm88.6-7.1l-43.2 10.5 84.5-36.6L89.2 95l37.3-27.2-40.1 15.7 6-12.1L63.9 92l-.2-.4L104.1 4 38.3 82l-.4-42.5-24.2 56.8-1.3-16.7L.5 123.1s1.6-1.2 3.8-1.8c.2 0 .3-.1.5-.1h.1c.2 0 .3-.1.5-.1h.1c.2 0 .3-.1.5-.1H7.9c.2 0 .4.1.5.1h.1c.2 0 .4.1.6.2 4.1 1.5 7.5 0 7.5 0s3.8 2.5 3.8 4.5-5 .3-5-1.9c0 0-6.5-2.3-15.5 1.1l19 8.2c0-.1-1-3.6.1-4.9.3-.4 1-.6 1.9-.3.3.1.6.1.8-.1 1.5-1.5-5.7-14.8-5.7-14.8s-6.4-.6-12 5.2c-.4.4-.8.8-1.1 1.3.6-1 2.4-3.9 5.4-6.4 1.8-1.5 4.1-2.9 6.8-3.6.7-1.8-.2-.6 1.3-1.6.7-4.7 3.4-16.7 12.5-27 .6-.7 1.2-1.4 1.9-2 0 0-2.3 4.4-2.3 7.5.1-.1 2.4-3.5 5.6-6.7 0 0 0 .1-.1.1-.6 1.3-4.9 10.6-4.5 13.3v.1l8.8-8.1c-.3.3-8.3 11.2-9.1 14.9l13.3-9.5c0 .1-1.7 2.4-2.4 3.6-.5.9-.6 1.2-.6 1.3v.1l7.2-3.1s-.3.4-.8.9L43.4 96l-.7.7-4.9 4.9-.1.1-3.7 3.8-2.4 2.4s-1.9 2-2.2 3.1c-.2 1 .9 1.7.9 1.7 1 .5 1.8 1.4 2.3 2.4.3.6.4 1.3.4 2 0 1.4-.6 2.7-1.5 3.6-.9.9-2.3 1.5-3.8 1.5-1.3 0-2.5-.5-3.5-1.3.2.2 2.8 3.5 7.6 1l6-4.3.3-.2 6.2-4.5c1.5 1.7 2.8 3.8 4.1 6.1-3.7 3.5-9.9 9.5-16.1 16.1-3.7 3.9-7.4 8.1-10.6 12l2.2-10.4.2-.9H24h-.1-.1-.1s-.1 0-.1.1l-.1.1-.1.1-.1.1-.1.1-.1.1c-.1 0-.1.1-.1.1l-.1.1-.1.1c-.1 0-.1.1-.1.1 0 .1-.1.1-.2.1l-.1.1c-.1 0-.1.1-.2.2l-.1.1c0 .1-.1.1-.2.2l-.1.1-.1.1-.2.2c-.1 0-.1.1-.2.2l-.2.2-.2.2c0 .1-.1.1-.1.2l-.1.1v.1l-.1.1-.2.2-.1.1c0 .1-.1.1-.1.1-.1.1-.1.2-.2.3l-.2.2c-.1.1-.2.2-.2.3-.1.1-.1.2-.2.2l-.3.3c-.1.1-.1.2-.2.3-.1.1-.2.2-.2.3-.1.1-.1.2-.2.2-.1.1-.2.2-.3.4-.1.1-.1.2-.2.2-.1.1-.2.3-.3.4 0 .1-.1.1-.1.2-.2.2-.3.5-.5.7-.2.2-.3.5-.5.7 0 .1-.1.1-.1.2-.1.2-.2.3-.3.5-.1.1-.1.2-.2.3-.1.2-.2.3-.3.5-.1.1-.1.2-.2.3-.1.2-.2.4-.3.5 0 .1-.1.2-.2.3-.1.2-.2.4-.3.5-.1.1-.1.2-.2.3l-.3.6c0 .1-.1.2-.2.3-.5.9-1 1.8-1.5 2.8l-2.5.4c.5-1.3 1-2.4 1.5-3.5l-4 5.6 4-.4c-3.4 7.9-5.9 18.1-5.9 32.8l3.3-2.1c2.9 16.3 16.3 23.5 16.3 23.5v-.1c7.4 4.9 16.4 8.2 26.4 9.6 1.4.2 2.5.3 2.8.3.2 0 .3.1.5.1 5.4.5 10.6.3 15.6-.5v.6c0 3.2 1.8 5.9 4.1 6.1-4.7 8-8.5 18.6-8.5 18.7-.2.5-.6 1.4-.9 1.7-1.2.3-1.3.3-2.5.7-.4-.4-4.1-1.1-7.9.3-2.1.9-4.2 2.7-5.7 5.5 1.5-1.2 4.4-3.3 6.7-3-2.8 1.6-7.5 4.6-8.1 8.9 0 0 16.6-11.6 24.8-9.5 0 0-1.2 1.4 1.6 6.4l1.3-4.7c1.5-4.5-4.2-5.2-6.6-5.3v-.1s.3-.7.7-1.9c1.4-3.6 4.7-11.7 8.3-17.4.1-.1.1-.2.1-.4l-.7-.9s.5-.5.7-.9c.5-.8 1.1-2 1.1-3.7 0-1.3-.3-3-1.3-5.1l2.1-1c.1.3.2.5.3.8 0 .1.1.2.1.2.1.2.1.3.2.5 0 .1.1.2.1.3.1.2.1.4.2.5 0 .1 0 .1.1.2l12.1-3.7-2.7-2.2-.1-.1H90l-46-41.5c12.8 6.2 27.7 13.4 52.9 25.1 24.9 11.5 40.7 18.2 48.8 21.5.1 0 .1.1.2.1 1.2.5 2.2.9 3 1.2 1.7.7 3.4 1.3 3.5 1.4.1-.1.3-.1.4-.2l-92.9-63.7 57.6-39.7zm-64.3 19.7l-13.8 10.5 9.9-21.9c1.6 3.4 2.9 7.2 3.9 11.4zm49.4 75.3l.3 1.7 16.2 9.5 4.1 2.4-2.2-5.8c13.3 3.9 24.2 4.2 31.5.7-12.6 3.8-43.8-6.7-49.9-8.5z" fill="#db0d15"/>
  <path d="M15.5 123.8c0 2.2 5 1.9 5 1.9 0-2.1-3.8-4.5-3.8-4.5s-3.5 1.5-7.6 0c-1.6-.6-3.4-.4-4.8 0-1.9 1.3-4.3 3.6-4.3 3.6 9-3.3 15.5-1 15.5-1zm33.8-2.9l-9.9 21.9 13.8-10.5c-1-4.2-2.4-8-3.9-11.4zm103.2 95.3S121.4 204.5 44 166.9l46.1 42c4.1-1.7 7-2.9 12.8.4l-.3-1.7c6 1.8 37.4 12.4 49.9 8.6zm-74.9-3c.9 2.1 1.3 3.7 1.3 5.1 0 1.7-.7 3-1.1 3.7-.3.4-.7.9-.7.9l1.4 1.9c.1-.1 2.8-2.1 2.8-6.5 0-1.7-.4-3.7-1.5-6.1l-2.2 1zm-27.7 5.1c2.2.3 4.2.5 4.2.5l.1-1.2s-2-.2-4.1-.5l-.2 1.2zM48.3 119c-1.2-2.3-2.6-4.4-4.1-6.1L31.8 122c-5 2.6-7.6-1-7.6-1 .9.8 2.1 1.3 3.5 1.3 2.9 0 5.3-2.3 5.3-5.1 0-.7-.1-1.4-.4-2-.5-1-1.3-1.9-2.3-2.4 0 0-1.1-.6-.9-1.7.2-1 2.2-3.1 2.2-3.1l6.1-6.2.1-.1 5.5-5.6 2.7-2.7c.5-.5.8-.9.8-.9l-7.2 3.1s-.1-.1.6-1.4c.7-1.3 2.4-3.6 2.4-3.6L29.2 100c.8-3.7 9.1-14.9 9.1-14.9l-8.8 8.1c-.6-2.8 4.6-13.5 4.6-13.5-3.2 3.2-5.6 6.7-5.6 6.7 0-3.1 2.3-7.5 2.3-7.5C20.2 89.6 17.2 103 16.5 108c-1.5 1-.6-.2-1.3 1.6C8 111.6 4 118 3 119.6c5.8-7.2 13.2-6.5 13.2-6.5s8.7 16.2 4.9 14.9c-3.8-1.3-2 5.1-2 5.1l-7.2-3.1c1.2 2.3 3.5 7.8 2.2 13.6-1.5 2.2-2.9 5-4.2 8.3l2.5-.4c.5-1 1-2 1.4-2.9.1-.1.1-.2.2-.3l.3-.6c.1-.1.1-.2.2-.3.1-.2.2-.3.3-.5.1-.1.1-.2.2-.3.1-.2.2-.4.3-.5.1-.1.1-.2.2-.3.1-.2.2-.3.3-.5 0-.1.1-.2.2-.3.1-.2.2-.3.3-.5 0-.1.1-.2.1-.2.1-.2.3-.5.5-.7.2-.2.3-.5.5-.7 0-.1.1-.1.1-.2.1-.2.2-.3.3-.5l.2-.2c.1-.1.2-.3.3-.4.1-.1.1-.2.2-.2l.3-.3c.1-.1.1-.2.2-.2.1-.1.2-.2.2-.3.1-.1.1-.2.2-.2.1-.1.2-.2.2-.3l.2-.2c.1-.1.2-.2.2-.3l.2-.2.2-.2.2-.2.2-.2.2-.2.2-.2.2-.2c.1-.1.1-.2.2-.2s.1-.1.1-.1l.3-.3c.1 0 .1-.1.1-.1 0-.1.1-.1.2-.2l.1-.1c.1 0 .1-.1.2-.1s.1-.1.1-.1c0-.1.1-.1.1-.1l.1-.1.1-.1.1-.1.1-.1.1-.1s.1 0 .1-.1c0 0 .1 0 .1-.1 0 0 .1 0 .1-.1h.4l-.2.9-2.2 10c8.4-10.4 20.9-22.5 26.7-28zm-24.7-1.1l1-.3c0 .1.1.3.1.4.5 1.3 1.7 2 3 2 .4 0 .8-.1 1.2-.2.6-.3 1.2-.7 1.5-1.3l-1-.6c.1-.3.2-.6.2-.9 0-.4-.1-.7-.2-1l2.2-.7c.8 2.3-.3 4.8-2.5 5.6-2.3.6-4.7-.7-5.5-3z"/>
  <g>
    <path d="M226.1 135.4c-1.5-.4-3.7-.6-6.6-.6h-6.2V170l.7-.5 5.1-3.6.2-.1v-10h2c3.6 0 6.6-1 8.7-2.8 2.2-1.9 3.3-4.5 3.3-7.7 0-3-1-5.5-3-7.5-1.3-1.2-2.7-2-4.2-2.4zm-5.2 15.3h-1.6v-10.8h1.8c4.7 0 7.1 1.7 7.1 5.2 0 3.8-2.5 5.6-7.3 5.6zm38.3 4.3c2.1-.6 3.8-1.7 5.1-3.3 1.4-1.8 2.2-4 2.2-6.5 0-3.2-1.2-5.8-3.5-7.8-2.1-1.7-5.4-2.6-10-2.6h-6.4V170l.6-.5 5.1-3.6.2-.1v-10.1h.3l9.6 13.7.2.3.3-.2 4.1-3 .3-.2-.2-.3-7.9-11zm-6.7-4.3v-10.8h1.8c4.7 0 7.1 1.7 7.1 5.2 0 3.7-2.4 5.6-7.3 5.6h-1.6zm-82.8-14.9c-2-.7-4.8-1-8.2-1H154v34.8h7.5c3.5 0 6.2-.3 8.1-1 2-.6 4-1.8 5.9-3.4 3.7-3.3 5.6-7.7 5.6-13s-1.8-9.7-5.4-12.9c-1.8-1.6-3.8-2.8-6-3.5zm1.7 25.1c-1.2 1.1-2.5 1.9-4 2.3-1.5.5-3.3.7-5.6.7h-1.9v-23.5h1.9c4.2 0 7.5 1 9.6 3 2.4 2.2 3.6 5.2 3.6 8.8 0 3.5-1.2 6.5-3.6 8.7zm-39.2-21.1c2.2 0 4.4.6 6.5 1.9l.4.2.2-.4 2.5-4.3.2-.4-.4-.2c-2.9-1.7-6-2.5-9-2.5-5.7 0-10.4 2.1-14 6.4-2.9 3.5-4.4 7.4-4.4 11.9 0 4.9 1.8 9.2 5.2 12.7 3.5 3.5 7.8 5.2 12.8 5.2 3.3 0 6.5-.9 9.4-2.6l.2-.1v-.4l-2.5-4.3-.2-.4-.4.2c-.7.4-1.4.8-2 1.1-1.2.6-2.7.8-4.4.8-3.3 0-6.2-1.2-8.5-3.6-2.3-2.3-3.5-5.3-3.5-8.7 0-3.5 1.2-6.5 3.5-8.9 2.2-2.4 5.1-3.6 8.4-3.6zm392.5.6l.1-.1 4.7-4.8.7-.7H510v34.8h14.7l.1-.1 4.6-4.8.7-.7H516v-10.8h4.4l.1-.1 4.8-4.8.7-.7h-10v-7h8.7zm-102.2 0h7.8V170l.7-.5 5.1-3.6.2-.1v-25.3h7.8v-5.7h-21.6v5.6zm-126.2-6.3c-5 0-9.3 1.8-12.9 5.3-3.6 3.5-5.4 7.7-5.4 12.6 0 5.5 2 10.1 5.9 13.5 3.5 3.1 7.6 4.7 12.1 4.7 5 0 9.4-1.8 13-5.3 3.6-3.5 5.4-7.7 5.4-12.7 0-4.9-1.8-9.3-5.3-12.8-3.6-3.5-7.9-5.3-12.8-5.3zm8.5 26.9c-2.4 2.4-5.3 3.6-8.7 3.6-3.1 0-6-1.2-8.4-3.5-2.4-2.3-3.7-5.3-3.7-9 0-3.4 1.2-6.4 3.5-8.7 2.3-2.4 5.3-3.6 8.7-3.6 3.4 0 6.3 1.2 8.6 3.6 2.3 2.4 3.5 5.3 3.5 8.8.1 3.4-1.1 6.4-3.5 8.8zm261-21.7c-1.8-1.6-3.8-2.8-6-3.5-2-.7-4.8-1-8.2-1h-7.5v34.8h7.5c3.5 0 6.2-.3 8.1-1 2-.6 4-1.8 5.9-3.4 3.7-3.3 5.6-7.7 5.6-13s-1.8-9.7-5.4-12.9zm-4.2 21.6c-1.2 1.1-2.5 1.9-4 2.3-1.5.5-3.4.7-5.6.7h-1.9v-23.5h1.9c4.2 0 7.5 1 9.6 3 2.4 2.2 3.6 5.2 3.6 8.8 0 3.5-1.2 6.5-3.6 8.7zm-74.5-5.9c2.1-.6 3.8-1.7 5.1-3.3 1.4-1.8 2.2-4 2.2-6.5 0-3.2-1.2-5.8-3.4-7.8-2.1-1.7-5.4-2.6-10-2.6h-6.4V170l.7-.5 5.1-3.6.2-.1v-10.1h.3l9.6 13.7.3.3.3-.2 4.1-3 .3-.2-.2-.3-8.2-11zm-6.7-4.3v-10.8h1.8c4.7 0 7.1 1.7 7.1 5.2 0 3.7-2.4 5.6-7.3 5.6h-1.6zm-74.2-15.8l-12.5 12.8v-13.3l-.7.5-5.1 3.6-.2.1V170l.7-.5 5.1-3.6.2-.1v-10.5l.6-.6 11.9 14.8.2.3.3-.2 4.4-3 .4-.3-.3-.4-12.7-15.3 15.1-15.1.7-.7h-8l-.1.1zm-73.4 3.6l-.2.1v18.6c0 2.8-.3 4.8-.9 5.9-.5 1-1.4 1.5-2.8 1.5-1 0-2.1-.4-3.2-1.2l-.4-.2-.2.4-2.5 4.4-.2.4.3.2c1.9 1.1 4 1.7 6.2 1.7 3 0 5.4-1.1 7.1-3.2.9-1.1 1.6-2.4 2-3.9.4-1.3.6-3.3.6-6v-22.8l-.7.5-5.1 3.6zm36.7 1.9l.1-.1 4.7-4.8.7-.7h-20.2v34.8h14.7l.1-.1 4.6-4.8.7-.7h-14.2v-10.8h4.4l.1-.1 4.8-4.8.7-.7h-10v-7h8.8zM582.6 146.3c-3.4 0-6.1-2.7-6.1-6.1 0-3.4 2.7-6.1 6.1-6.1 3.4 0 6.1 2.7 6.1 6.1 0 3.4-2.7 6.1-6.1 6.1zm0-11.3c-2.9 0-5.2 2.3-5.2 5.2 0 2.8 2.3 5.2 5.2 5.2s5.2-2.3 5.2-5.2c0-2.9-2.3-5.2-5.2-5.2zm1.7 8.7l-1.8-2.8h-1.2v2.8h-1v-7h2.8c1.2 0 2.3.8 2.3 2.1 0 1.5-1.4 2.1-1.8 2.1l1.9 2.8h-1.2zm-1.2-6.1h-1.9v2.5h1.9c.6 0 1.3-.5 1.3-1.2 0-.8-.7-1.3-1.3-1.3z"/>
  </g>
</svg>
