<svg id="Layer_1" data-name="Layer 1" xmlns="http://www.w3.org/2000/svg" viewBox="0 0 37 25"><title>logo-pc</title><path fill="#050a0e" d="M9.86,0H.78C.26,0,0,.27,0,.82V24.18c0,.54.26.82.78.82H3.94c.52,0,.78-.28.78-.82V16.83q0-.42.45-.42H9.86a6,6,0,0,0,4.49-1.65A6.47,6.47,0,0,0,16,10.07V6.34a6.46,6.46,0,0,0-1.6-4.69A6,6,0,0,0,9.86,0Zm1.37,9.84a2.59,2.59,0,0,1-.48,1.73,2.22,2.22,0,0,1-1.68.52H5.13c-.27,0-.41-.14-.41-.43v-7a.37.37,0,0,1,.41-.42H9.07a2.22,2.22,0,0,1,1.68.52,2.66,2.66,0,0,1,.48,1.77ZM33.06,9h3.12c.55,0,.82-.29.82-.86V6.34a6.46,6.46,0,0,0-1.61-4.69A6.07,6.07,0,0,0,30.86,0H26.81a6,6,0,0,0-4.53,1.63,6.45,6.45,0,0,0-1.61,4.71V18.66a6.45,6.45,0,0,0,1.61,4.71A6.07,6.07,0,0,0,26.81,25h4.05a6.07,6.07,0,0,0,4.53-1.65A6.48,6.48,0,0,0,37,18.66V16.83a.74.74,0,0,0-.82-.85H33.06c-.52,0-.78.29-.78.85v1.6a2.5,2.5,0,0,1-.51,1.77,2.26,2.26,0,0,1-1.69.52H27.56a2.23,2.23,0,0,1-1.66-.52,2.55,2.55,0,0,1-.5-1.77V6.57a2.55,2.55,0,0,1,.5-1.77,2.23,2.23,0,0,1,1.66-.52h2.52a2.26,2.26,0,0,1,1.69.52,2.5,2.5,0,0,1,.51,1.77V8.16C32.28,8.73,32.54,9,33.06,9Z"/></svg>