<svg xmlns="http://www.w3.org/2000/svg" viewBox="0 0 56 56">
  <path d="M52.3 12.8c-1.8.8-3.7 1.3-5.6 1.5 2-1.2 3.6-3.1 4.3-5.4-1.9 1.1-4 1.9-6.2 2.4-1.8-1.9-4.3-3.1-7.2-3.1-5.4 0-9.8 4.4-9.8 9.8 0 .8.1 1.5.3 2.2-8.3-.4-15.6-4.3-20.4-10.2-.8 1.5-1.3 3.1-1.3 4.9 0 3.4 1.7 6.4 4.4 8.2-1.6-.1-3.1-.5-4.5-1.2v.1c0 4.8 3.4 8.7 7.9 9.6-.8.2-1.7.3-2.6.3-.6 0-1.2-.1-1.8-.2 1.3 3.9 4.9 6.7 9.2 6.8-3.4 2.6-7.6 4.2-12.2 4.2-.8 0-1.6 0-2.3-.1C8.9 45.4 14 47 19.6 47c18.1 0 28-15 28-28v-1.3c1.7-1.2 3.4-3 4.7-4.9z"/>
</svg>
