<svg xmlns="http://www.w3.org/2000/svg" width="100" height="100">
  <path fill-rule="evenodd" d="M65.352 100.009H34.648c-28.022 0-34.657-6.635-34.657-34.657V34.648C-.009 6.626 6.626-.009 34.648-.009h30.704c28.022 0 34.657 6.635 34.657 34.657v30.704c0 28.022-6.635 34.657-34.657 34.657zM83.28 68.246c-.635-2.047-3.035-5.012-6.14-8.541-1.694-1.976-4.236-4.164-5.012-5.223-1.059-1.412-.776-1.976 0-3.247-.071 0 8.823-12.564 9.741-16.799.494-1.553 0-2.682-2.188-2.682H72.41c-1.835 0-2.682.988-3.176 2.047 0 0-3.741 9.035-8.964 14.893-1.694 1.694-2.471 2.259-3.388 2.259-.494 0-1.13-.565-1.13-2.118v-14.47c0-1.835-.564-2.682-2.117-2.682H42.2c-1.129 0-1.835.847-1.835 1.694 0 1.765 2.612 2.188 2.894 7.129v10.729c0 2.329-.423 2.753-1.341 2.753-2.471 0-8.47-9.106-12.07-19.481-.706-2.047-1.412-2.824-3.247-2.824H19.26c-2.117 0-2.47.988-2.47 2.047 0 1.906 2.47 11.505 11.505 24.211 6 8.681 14.541 13.34 22.234 13.34 4.659 0 5.223-1.059 5.223-2.823v-6.565c0-2.117.424-2.47 1.906-2.47 1.059 0 2.965.565 7.27 4.729 4.941 4.941 5.788 7.2 8.541 7.2h7.27c2.118 0 3.106-1.059 2.541-3.106z"/>
</svg>
