<svg xmlns="http://www.w3.org/2000/svg" width="32" height="32">
  <path fill-rule="evenodd" d="M27.272 4.727a15.872 15.872 0 014.68 11.297c0 4.267-1.662 8.279-4.68 11.297A15.871 15.871 0 0115.976 32a15.873 15.873 0 01-11.297-4.679A15.871 15.871 0 010 16.024c0-4.267 1.661-8.279 4.679-11.297A15.873 15.873 0 0115.976.048c4.267 0 8.279 1.662 11.296 4.679zM25.86 25.909a13.888 13.888 0 003.816-7.086c-.421.62-.823.849-1.072-.536-.256-2.259-2.331-.816-3.636-1.619-1.372.926-4.458-1.799-3.934 1.274.809 1.386 4.368-1.855 2.594 1.078-1.132 2.047-4.138 6.582-3.747 8.932.049 3.424-3.499.714-4.722-.422-.822-2.275-.28-6.252-2.431-7.366-2.334-.101-4.337-.314-5.242-2.923-.544-1.867.58-4.646 2.58-5.075 2.929-1.84 3.974 2.155 6.721 2.229.853-.892 3.177-1.176 3.37-2.177-1.802-.317 2.286-1.514-.173-2.196-1.356.16-2.23 1.407-1.509 2.464-2.628.613-2.713-3.803-5.239-2.41-.064 2.202-4.126.713-1.405.267.934-.409-1.525-1.592-.196-1.377.652-.035 2.85-.805 2.255-1.323 1.223-.759 2.251 1.819 3.449-.059.864-1.443-.363-1.71-1.446-.978-.611-.684 1.078-2.162 2.569-2.8.496-.213.971-.329 1.333-.296.751.867 2.139 1.017 2.212-.104a13.918 13.918 0 00-6.031-1.361c-3.046 0-5.944.968-8.341 2.758.644.295 1.01.663.389 1.133-.482 1.437-2.438 3.366-4.157 3.092a13.829 13.829 0 00-1.73 5.009c1.439.476 1.77 1.419 1.461 1.734-.733.639-1.184 1.545-1.416 2.537a13.88 13.88 0 003.909 7.601 13.89 13.89 0 009.885 4.094c3.734 0 7.244-1.454 9.884-4.094z"/>
</svg>
