<svg height="512" width="512" xmlns="http://www.w3.org/2000/svg"><path d="M482.367 195.737c.007.003-93.031-180.112-93.044-180.112C386.829 10.803 381.804 7.5 376 7.5c-6.25 0-11.603 3.825-13.858 9.26l-.993 2.397L256 504.5c137.243 0 248.5-97.826 248.5-218.5 0-32.188-7.92-62.749-22.133-90.263z" fill="#5a4763"/><path d="M474.5 286c0-32.188-7.92-62.749-22.133-90.263.006.002-78.209-151.417-91.218-176.581l-14.958 36.112c-5.504 13.287-19.657 20.777-33.748 17.898C294.31 69.461 275.416 67.5 256 67.5s-38.31 1.961-56.443 5.666c-14.091 2.879-28.244-4.61-33.748-17.898l-15.95-38.508C147.603 11.325 142.25 7.5 136 7.5c-5.804 0-10.829 3.303-13.323 8.126-.013-.001-93.051 180.114-93.051 180.114C15.42 223.251 7.5 253.812 7.5 286c0 120.674 111.257 218.5 248.5 218.5 120.674 0 218.5-97.826 218.5-218.5z" fill="#6b5675"/><path d="M361 181v150c41.421 0 75-33.579 75-75 0-41.422-33.579-75-75-75z" fill="#baa04c"/><path d="M406 256c0-41.421-20.147-75-45-75-41.421 0-75 33.579-75 75s33.579 75 75 75c24.853 0 45-33.579 45-75z" fill="#e0ac5e"/><path d="M361 211c-24.853 24.853-24.853 65.147 0 90 24.853-24.853 24.853-65.147 0-90z" fill="#5a4763"/><path d="M151 181v150c41.421 0 75-33.579 75-75 0-41.422-33.579-75-75-75z" fill="#baa04c"/><path d="M196 256c0-41.421-20.147-75-45-75-41.421 0-75 33.579-75 75s33.579 75 75 75c24.853 0 45-33.579 45-75z" fill="#e0ac5e"/><path d="M151 211c-24.853 24.853-24.853 65.147 0 90 24.853-24.853 24.853-65.147 0-90z" fill="#5a4763"/><path d="M270.677 320.25h-29.354c-8.463 0-15.323 6.86-15.323 15.323 0 4.548 2.02 8.86 5.513 11.772L256 367.75l24.487-20.405A15.321 15.321 0 00286 335.573c0-8.463-6.86-15.323-15.323-15.323z" fill="#81658f"/><path d="M145.696 205.696c-27.737 27.737-27.737 72.87 0 100.607 1.465 1.464 3.385 2.196 5.304 2.196s3.839-.732 5.304-2.196c27.737-27.737 27.737-72.87 0-100.607a7.505 7.505 0 00-10.608 0zM151 289.573c-14.817-19.833-14.817-47.313 0-67.146 14.817 19.833 14.817 47.313 0 67.146z"/><path d="M151 173.5c-45.49 0-82.5 37.01-82.5 82.5s37.01 82.5 82.5 82.5 82.5-37.01 82.5-82.5-37.01-82.5-82.5-82.5zm0 150c-37.22 0-67.5-30.28-67.5-67.5s30.28-67.5 67.5-67.5 67.5 30.28 67.5 67.5-30.28 67.5-67.5 67.5zm210-15a7.481 7.481 0 005.304-2.196c27.737-27.737 27.737-72.87 0-100.607a7.502 7.502 0 00-10.607 0c-27.737 27.737-27.737 72.87 0 100.607A7.477 7.477 0 00361 308.5zm0-86.073c14.817 19.833 14.817 47.313 0 67.146-14.817-19.833-14.817-47.313 0-67.146z"/><path d="M361 338.5c45.49 0 82.5-37.01 82.5-82.5s-37.01-82.5-82.5-82.5-82.5 37.01-82.5 82.5 37.01 82.5 82.5 82.5zm0-150c37.22 0 67.5 30.28 67.5 67.5s-30.28 67.5-67.5 67.5-67.5-30.28-67.5-67.5 30.28-67.5 67.5-67.5zM241.323 312.75c-12.585 0-22.823 10.238-22.823 22.823a22.757 22.757 0 008.212 17.533l21.543 17.952c-1.605 10.843-10.972 19.191-22.255 19.191-4.143 0-7.5 3.357-7.5 7.5s3.357 7.5 7.5 7.5c12.253 0 23.152-5.907 30-15.023 6.848 9.116 17.747 15.023 30 15.023 4.143 0 7.5-3.357 7.5-7.5s-3.357-7.5-7.5-7.5c-11.282 0-20.649-8.348-22.255-19.191l21.542-17.952a22.757 22.757 0 008.213-17.533c0-12.585-10.238-22.823-22.823-22.823zm37.177 22.823a7.797 7.797 0 01-2.815 6.01L256 357.987l-19.686-16.404a7.8 7.8 0 01-2.814-6.01c0-4.313 3.51-7.823 7.823-7.823h29.354c4.313 0 7.823 3.51 7.823 7.823z"/><path d="M489.025 192.298c-.924-1.809-6.745-13.079-46.522-90.082l-45.472-88.013a33.316 33.316 0 00-1.093-1.998l.046-.024C392.099 4.668 384.441 0 376 0a22.441 22.441 0 00-20.787 13.89l-15.95 38.508c-4.115 9.934-14.761 15.58-25.318 13.42-37.788-7.721-78.104-7.72-115.889 0-10.558 2.159-21.204-3.486-25.318-13.42l-15.951-38.512A22.443 22.443 0 00136 0c-8.443 0-16.101 4.668-19.95 12.2a29.57 29.57 0 00-.888 1.63L76.369 88.911a7.5 7.5 0 003.221 10.105 7.498 7.498 0 0010.105-3.221c18.118-35.07 38.964-75.419 39.612-76.664l.032-.062a7.478 7.478 0 016.66-4.07 7.483 7.483 0 016.93 4.63l15.95 38.508c6.857 16.559 24.599 25.963 42.178 22.377 35.814-7.318 74.068-7.318 109.885 0 17.581 3.593 35.319-5.818 42.178-22.377l15.949-38.504A7.484 7.484 0 01376 15a7.48 7.48 0 016.66 4.071l.032.062c1.266 2.429 91.26 176.635 93.012 180.047C489.835 226.535 497 255.745 497 286c0 116.346-108.112 211-241 211S15 402.346 15 286c0-30.251 7.163-59.461 21.289-86.817l39.64-76.736a7.499 7.499 0 00-3.221-10.105 7.498 7.498 0 00-10.105 3.221L22.962 192.3C7.726 221.806 0 253.331 0 286c0 60.551 26.753 117.421 75.331 160.135C123.637 488.608 187.799 512 256 512s132.363-23.392 180.669-65.865C485.247 403.421 512 346.551 512 286c0-32.674-7.728-64.2-22.975-93.702z"/></svg>