<?xml version="1.0" encoding="UTF-8" standalone="no"?>
<svg
   xmlns:dc="http://purl.org/dc/elements/1.1/"
   xmlns:cc="http://creativecommons.org/ns#"
   xmlns:rdf="http://www.w3.org/1999/02/22-rdf-syntax-ns#"
   xmlns:svg="http://www.w3.org/2000/svg"
   xmlns="http://www.w3.org/2000/svg"
   xmlns:sodipodi="http://sodipodi.sourceforge.net/DTD/sodipodi-0.dtd"
   xmlns:inkscape="http://www.inkscape.org/namespaces/inkscape"
   version="1.1"
   id="Layer_1"
   x="0px"
   y="0px"
   viewBox="0 0 106.51 122.88"
   style="enable-background:new 0 0 106.51 122.88"
   xml:space="preserve"
   sodipodi:docname="human-male-head.svg"
   inkscape:version="1.0.1 (3bc2e813f5, 2020-09-07)"><metadata
     id="metadata11"><rdf:RDF><cc:Work
         rdf:about=""><dc:format>image/svg+xml</dc:format><dc:type
           rdf:resource="http://purl.org/dc/dcmitype/StillImage" /></cc:Work></rdf:RDF></metadata><defs
     id="defs9" /><sodipodi:namedview
     pagecolor="#ffffff"
     bordercolor="#666666"
     borderopacity="1"
     objecttolerance="10"
     gridtolerance="10"
     guidetolerance="10"
     inkscape:pageopacity="0"
     inkscape:pageshadow="2"
     inkscape:window-width="791"
     inkscape:window-height="480"
     id="namedview7"
     showgrid="false"
     inkscape:zoom="6.5022788"
     inkscape:cx="53.255001"
     inkscape:cy="61.439999"
     inkscape:window-x="0"
     inkscape:window-y="31"
     inkscape:window-maximized="0"
     inkscape:current-layer="g4" /><g
     id="g4"><path
       d="M58.04,57.83c0.72,0.39,0.98,1.29,0.59,2c-0.39,0.72-1.29,0.98-2,0.59c-5.05-2.76-9.14-6.05-11.38-10.6 c-2.05-4.16-2.51-9.28-0.71-15.86c-3.23,0.34-6.97,1.48-10.82,2.65c-6.87,2.09-14.03,4.27-19.99,2.52 c-0.69,1.36-1.21,2.83-1.59,4.39c-0.49,2.02-0.74,4.19-0.81,6.47c-0.06,1.97-0.01,3.32,0.03,4.37c0.12,3.1,0.16,3.88-2.49,9.29 l-4.66,9.52c-0.03,0.08-0.07,0.15-0.12,0.22c-0.78,1.19-1.13,2.29-1.15,3.21c-0.01,0.53,0.09,0.99,0.28,1.37 c0.16,0.33,0.39,0.6,0.68,0.8c0.02,0.01,0.04,0.03,0.06,0.04c0.35,0.23,0.79,0.37,1.28,0.39c0.04,0,0.08,0,0.12,0l5.45,0.32 c0.15-0.06,0.32-0.09,0.5-0.1c0.05,0,0.1,0,0.15,0l0,0l4.95,0.42c0.81,0.07,1.42,0.78,1.35,1.6c-0.07,0.81-0.78,1.42-1.6,1.35 l-0.08-0.01l-3.24-0.19l0.01,0.81c0.03,2.56,0.07,5.09,0.29,7.65c1.41,0.69,2.77,1.11,4.08,1.24c1.47,0.15,2.9-0.07,4.29-0.68 c0.75-0.33,1.62,0.01,1.95,0.76c0.33,0.75-0.01,1.62-0.76,1.95c-1.86,0.82-3.79,1.11-5.77,0.92c-1.17-0.12-2.35-0.41-3.55-0.86 c0.06,0.62,0.13,1.23,0.21,1.85c0.18,1.37,0.43,2.77,0.74,4.19c0.09,0.39,0.01,0.78-0.19,1.1c-1.09,2.18-1.63,4.02-1.73,5.54 c-0.11,1.65,0.35,2.9,1.23,3.8c0.96,0.97,2.44,1.61,4.3,1.96c2.89,0.54,6.58,0.38,10.58-0.34c3.8-0.68,8.06-1.78,11.99-3.3 c3.21-1.24,6.18-2.77,8.45-4.59c2.28-1.82,3.31-4.75,4.19-7.25c0.17-0.49,0.34-0.96,0.43-1.2l0.25-0.68c1.06-2.92,2.91-8,5.25-9.8 c0.64-0.5,1.57-0.38,2.07,0.27c0.5,0.65,0.38,1.57-0.27,2.07c-1.66,1.28-3.32,5.84-4.28,8.47c-0.18,0.49-0.17,0.47-0.25,0.69 c-0.19,0.51-0.3,0.83-0.42,1.16c-1.01,2.87-2.19,6.24-5.13,8.59c-2.51,2.01-5.75,3.68-9.23,5.03c-0.88,0.34-1.78,0.66-2.69,0.96 c0.05,1.31,0.01,2.61-0.12,3.92c-0.16,1.69-0.47,3.34-0.9,4.97c-0.21,0.79-1.02,1.26-1.81,1.05c-0.79-0.21-1.26-1.02-1.05-1.81 c0.4-1.5,0.68-2.99,0.82-4.49c0.09-0.9,0.13-1.82,0.12-2.74c-2.36,0.66-4.71,1.19-6.92,1.59c-4.35,0.78-8.4,0.95-11.65,0.34 c-2.44-0.46-4.45-1.37-5.86-2.79c-1.48-1.5-2.24-3.5-2.07-6.06c0.12-1.81,0.71-3.9,1.87-6.32c-0.27-1.27-0.49-2.59-0.67-3.95 c-0.2-1.5-0.33-3.02-0.38-4.56h0c0-0.02,0-0.04,0-0.06c-0.02-0.07-0.03-0.14-0.03-0.21c-0.27-2.82-0.3-5.56-0.34-8.34L9.9,82.43 l-4.7-0.28l-0.04,0c-1.07-0.04-2.02-0.34-2.81-0.86c-0.03-0.02-0.07-0.04-0.1-0.07c-0.71-0.49-1.28-1.15-1.67-1.94 c-0.39-0.8-0.6-1.72-0.58-2.74c0.03-1.43,0.52-3.04,1.58-4.69l4.64-9.49c2.32-4.73,2.29-5.37,2.19-7.88 c-0.04-1.09-0.1-2.49-0.03-4.57c0.08-2.48,0.36-4.85,0.89-7.07c0.41-1.7,0.97-3.31,1.71-4.82l-8.8-3.84 c-0.75-0.33-1.09-1.2-0.76-1.94c0.04-0.1,0.1-0.2,0.16-0.28l0,0C21.61,4.66,44.2-2.86,63.3,0.91c11.15,2.2,21.08,8.26,28.6,16.48 c7.51,8.22,12.63,18.61,14.14,29.49c2.49,17.88-4.7,37.03-26.82,50c-0.25,0.15-0.53,0.21-0.8,0.2c0,2.88,0.17,5.67,0.5,8.37 c0.63,5.13,1.83,9.93,3.53,14.45c0.29,0.76-0.1,1.61-0.86,1.9c-0.76,0.29-1.61-0.1-1.9-0.86c-1.79-4.75-3.05-9.78-3.7-15.13 c-0.65-5.34-0.7-11.01-0.08-17.05c0.08-0.81,0.81-1.4,1.62-1.32c0.81,0.08,1.4,0.81,1.32,1.62c-0.17,1.63-0.29,3.24-0.35,4.82 c20.31-12.25,26.93-30.02,24.62-46.6c-1.43-10.28-6.27-20.12-13.38-27.9c-7.11-7.78-16.48-13.5-27-15.57 C45.01,0.32,24.01,7.23,5.08,32.21l8.49,3.7c0.09,0.03,0.17,0.07,0.26,0.12c0.02,0.01,0.04,0.03,0.06,0.04 c5.21,1.91,12.25-0.24,18.99-2.29c4.84-1.47,9.53-2.9,13.59-2.88c0.19-0.01,0.38,0.01,0.57,0.07c0.78,0.26,1.2,1.09,0.94,1.87 c-2.23,6.77-1.98,11.78-0.07,15.67C49.83,52.44,53.49,55.35,58.04,57.83L58.04,57.83z M25.88,60.53c-1.45,0-2.62,1.17-2.62,2.62 c0,1.45,1.17,2.62,2.62,2.62c1.45,0,2.62-1.17,2.62-2.62C28.5,61.7,27.33,60.53,25.88,60.53L25.88,60.53z M68.33,66.34 c0.15,0.8-0.38,1.57-1.19,1.72c-0.8,0.15-1.57-0.38-1.72-1.19c-0.21-1.13-0.14-2.21,0.13-3.19c0.39-1.38,1.2-2.57,2.26-3.47 c1.04-0.88,2.33-1.49,3.71-1.74c1.15-0.21,2.37-0.17,3.55,0.16c3.2,0.9,4.56,2.51,4.85,4.55c0.26,1.82-0.46,3.81-1.46,5.9 c-0.89,1.87-4.31,9.02-7.69,13.37c-4.53,5.85-8.94,7.96-9.62-4.51c-0.04-0.81,0.59-1.51,1.4-1.55c0.81-0.04,1.51,0.59,1.55,1.4 c0.34,6.22,2.31,5.46,4.33,2.85c3.18-4.1,6.49-11.01,7.35-12.83c0.78-1.65,1.36-3.14,1.21-4.24c-0.12-0.86-0.88-1.59-2.72-2.11 c-0.74-0.21-1.51-0.23-2.22-0.1c-0.87,0.16-1.68,0.54-2.33,1.1c-0.63,0.53-1.1,1.22-1.33,2.02C68.24,65.05,68.21,65.68,68.33,66.34 L68.33,66.34z M33.31,57.45c0.72,0.38,1,1.27,0.62,1.99c-0.38,0.72-1.27,1-1.99,0.62c-1.84-0.96-3.67-1.53-5.48-1.57l-0.01,0 c-1.78-0.04-3.57,0.43-5.4,1.53c-0.7,0.42-1.61,0.2-2.03-0.5c-0.42-0.7-0.2-1.61,0.5-2.03c2.33-1.4,4.66-2,6.99-1.95l0.01,0 C28.83,55.6,31.08,56.29,33.31,57.45L33.31,57.45z"
       id="path2"
       style="fill:#ffffff" /></g></svg>
