<?xml version="1.0" encoding="UTF-8" standalone="no"?>
<svg
   xmlns:dc="http://purl.org/dc/elements/1.1/"
   xmlns:cc="http://creativecommons.org/ns#"
   xmlns:rdf="http://www.w3.org/1999/02/22-rdf-syntax-ns#"
   xmlns:svg="http://www.w3.org/2000/svg"
   xmlns="http://www.w3.org/2000/svg"
   xmlns:sodipodi="http://sodipodi.sourceforge.net/DTD/sodipodi-0.dtd"
   xmlns:inkscape="http://www.inkscape.org/namespaces/inkscape"
   version="1.1"
   id="Layer_1"
   x="0px"
   y="0px"
   viewBox="0 0 110.91 123.1"
   style="enable-background:new 0 0 110.91 123.1"
   xml:space="preserve"
   sodipodi:docname="cat-face.svg"
   inkscape:version="1.0.1 (3bc2e813f5, 2020-09-07)"><metadata
     id="metadata13"><rdf:RDF><cc:Work
         rdf:about=""><dc:format>image/svg+xml</dc:format><dc:type
           rdf:resource="http://purl.org/dc/dcmitype/StillImage" /></cc:Work></rdf:RDF></metadata><defs
     id="defs11" /><sodipodi:namedview
     pagecolor="#ffffff"
     bordercolor="#666666"
     borderopacity="1"
     objecttolerance="10"
     gridtolerance="10"
     guidetolerance="10"
     inkscape:pageopacity="0"
     inkscape:pageshadow="2"
     inkscape:window-width="1165"
     inkscape:window-height="912"
     id="namedview9"
     showgrid="false"
     inkscape:zoom="6.4906581"
     inkscape:cx="55.455002"
     inkscape:cy="49.224593"
     inkscape:window-x="0"
     inkscape:window-y="31"
     inkscape:window-maximized="0"
     inkscape:current-layer="g6" /><style
     type="text/css"
     id="style2">.st0{fill-rule:evenodd;clip-rule:evenodd;stroke:#000000;stroke-width:0.216;stroke-miterlimit:2.6131;}</style><g
     id="g6"><path
       class="st0"
       d="M72.17,39.88c2.06,0,3.74,1.67,3.74,3.74c0,2.06-1.67,3.74-3.74,3.74c-2.06,0-3.74-1.67-3.74-3.74 C68.44,41.56,70.11,39.88,72.17,39.88L72.17,39.88z M77.7,83.64c-0.8,0.35-1.6,0.69-2.4,1.01c-3.15,1.31-6.41,2.3-9.72,2.98 c-3.58,0.77-7.16,1.19-10.75,1.24c-7.68,0.12-15.37-1.39-23.05-4.57C10.47,125.74,105.49,122.09,77.7,83.64L77.7,83.64z M19.04,1.91L29.9,12.25c8.05-3.25,16.18-5,24.37-5.07c8.21-0.07,16.46,1.55,24.74,5.06L91.16,0.88c1.15-1.08,2.96-1.02,4.03,0.13 c0.51,0.55,0.77,1.24,0.77,1.94h0l0.14,24.24c3.3,5.78,5.26,11.16,6.08,16.21l4.87-1.58c1.5-0.49,3.12,0.33,3.61,1.84 c0.49,1.5-0.33,3.12-1.84,3.61l-6.19,2.01c0,0.13,0,0.26-0.01,0.39c-0.11,4.28-1.07,8.27-2.75,12.02l3.92,0.52 c1.57,0.2,2.67,1.64,2.46,3.2c-0.2,1.56-1.64,2.67-3.2,2.46l-6.17-0.82c-0.39,0.59-0.8,1.17-1.23,1.74 c-3.67,4.93-8.04,8.89-12.85,11.94c37.15,59.65-91.24,52.68-56.26,0.79c-5.8-3.4-10.71-7.93-14.14-13.45 c-0.19-0.3-0.37-0.61-0.55-0.91l-4.63,0.58c-1.57,0.19-3-0.93-3.19-2.5c-0.19-1.57,0.93-3,2.5-3.19l2.75-0.34 c-1.44-3.92-2.21-8.2-2.14-12.8l-5.08-1.65c-1.5-0.49-2.33-2.1-1.84-3.61c0.49-1.5,2.1-2.33,3.61-1.84l3.83,1.24 c0.8-4.98,2.55-10.27,5.4-15.84l1.13-23.37c0.07-1.58,1.41-2.8,2.99-2.72C17.92,1.16,18.56,1.45,19.04,1.91L19.04,1.91L19.04,1.91z M27.31,17.68l-7.69-7.32L18.77,28.1l0,0c-0.02,0.4-0.12,0.81-0.32,1.19c-2.9,5.54-4.57,10.75-5.22,15.57l17.97,5.83 c1.5,0.49,2.33,2.1,1.84,3.61c-0.49,1.5-2.1,2.33-3.61,1.84l-16.49-5.35c0.15,3.68,0.94,7.09,2.24,10.2l14.78-1.84 c1.57-0.19,3,0.93,3.19,2.5c0.19,1.57-0.93,3-2.5,3.19l-12.49,1.55c3,4.3,7.12,7.86,11.94,10.57c5.38,3.03,11.62,4.99,18.12,5.74 c5.75,0.67,11.7,0.38,17.44-0.96c2.2-0.53,4.41-1.22,6.61-2.05c6.91-2.72,13.24-7.16,18.19-13.5l-10.23-1.37 c-1.57-0.2-2.67-1.64-2.46-3.2c0.2-1.57,1.64-2.67,3.2-2.46l12.94,1.73c1.59-3.06,2.59-6.29,2.9-9.73l-15.33,4.97 c-1.5,0.49-3.12-0.33-3.61-1.84c-0.49-1.5,0.33-3.12,1.84-3.61l16.95-5.5c-0.63-4.8-2.52-10.03-5.88-15.78l0,0 c-0.25-0.42-0.39-0.91-0.39-1.43L90.29,9.5l-8.63,8.08c-0.82,0.86-2.12,1.15-3.26,0.63c-8.09-3.68-16.11-5.39-24.08-5.32 c-7.97,0.07-15.94,1.92-23.9,5.35l0,0C29.4,18.68,28.17,18.49,27.31,17.68L27.31,17.68z M50.37,52.95c-1.58,0-2.87-1.28-2.87-2.87 c0-1.58,1.28-2.87,2.87-2.87h8.87c1.58,0,2.87,1.28,2.87,2.87c0,1.58-1.28,2.87-2.87,2.87h-1.6c0.11,1.68,0.41,3.15,0.85,4.41 c0.66,1.88,1.65,3.24,2.85,4.12c1.17,0.86,2.56,1.3,4.06,1.33c1.15,0.02,2.38-0.19,3.64-0.64c1.49-0.53,3.13,0.26,3.65,1.75 c0.53,1.49-0.26,3.13-1.75,3.65c-1.89,0.67-3.8,0.99-5.66,0.95c-2.68-0.05-5.2-0.85-7.33-2.42c-1.07-0.79-2.03-1.76-2.86-2.92 c-0.74,1.19-1.62,2.14-2.62,2.89c-3.34,2.49-7.59,2.5-12.18,1.86c-1.57-0.22-2.66-1.66-2.44-3.23c0.22-1.57,1.66-2.66,3.23-2.44 c3.28,0.46,6.19,0.55,7.96-0.78c1.61-1.2,2.66-3.76,2.8-8.52H50.37L50.37,52.95z M37.72,39.88c2.06,0,3.74,1.67,3.74,3.74 c0,2.06-1.67,3.74-3.74,3.74c-2.06,0-3.74-1.67-3.74-3.74C33.98,41.56,35.65,39.88,37.72,39.88L37.72,39.88z"
       id="path4"
       style="fill:#ffffff" /></g></svg>
