<?xml version="1.0" encoding="UTF-8" standalone="no"?>
<svg
   xmlns:dc="http://purl.org/dc/elements/1.1/"
   xmlns:cc="http://creativecommons.org/ns#"
   xmlns:rdf="http://www.w3.org/1999/02/22-rdf-syntax-ns#"
   xmlns:svg="http://www.w3.org/2000/svg"
   xmlns="http://www.w3.org/2000/svg"
   xmlns:sodipodi="http://sodipodi.sourceforge.net/DTD/sodipodi-0.dtd"
   xmlns:inkscape="http://www.inkscape.org/namespaces/inkscape"
   version="1.1"
   id="Layer_1"
   x="0px"
   y="0px"
   width="122.879px"
   height="88.855px"
   viewBox="0 0 122.879 88.855"
   enable-background="new 0 0 122.879 88.855"
   xml:space="preserve"
   sodipodi:docname="envelope-line.svg"
   inkscape:version="1.0.1 (3bc2e813f5, 2020-09-07)"><metadata
     id="metadata11"><rdf:RDF><cc:Work
         rdf:about=""><dc:format>image/svg+xml</dc:format><dc:type
           rdf:resource="http://purl.org/dc/dcmitype/StillImage" /></cc:Work></rdf:RDF></metadata><defs
     id="defs9" /><sodipodi:namedview
     pagecolor="#ffffff"
     bordercolor="#666666"
     borderopacity="1"
     objecttolerance="10"
     gridtolerance="10"
     guidetolerance="10"
     inkscape:pageopacity="0"
     inkscape:pageshadow="2"
     inkscape:window-width="810"
     inkscape:window-height="480"
     id="namedview7"
     showgrid="false"
     inkscape:zoom="8.9921779"
     inkscape:cx="60.661045"
     inkscape:cy="44.427502"
     inkscape:window-x="0"
     inkscape:window-y="31"
     inkscape:window-maximized="0"
     inkscape:current-layer="g4" /><g
     id="g4"><path
       d="M7.048,0h108.784c1.939,0,3.701,0.794,4.977,2.069c1.277,1.277,2.07,3.042,2.07,4.979v74.759 c0,1.461-0.451,2.822-1.221,3.951c-0.141,0.365-0.361,0.705-0.662,0.994c-0.201,0.189-0.422,0.344-0.656,0.461 c-1.225,1.021-2.799,1.643-4.508,1.643H7.048c-1.937,0-3.701-0.793-4.979-2.07C0.794,85.51,0,83.748,0,81.807V7.048 c0-1.941,0.792-3.704,2.068-4.979C3.344,0.792,5.107,0,7.048,0L7.048,0z M5.406,78.842l38.124-38.22L5.406,9.538V78.842 L5.406,78.842z M47.729,44.045L8.424,83.449h105.701L76.563,44.051L64.18,54.602l0,0c-0.971,0.83-2.425,0.877-3.453,0.043 L47.729,44.045L47.729,44.045z M80.674,40.549l36.799,38.598V9.198L80.674,40.549L80.674,40.549z M8.867,5.406l53.521,43.639 l51.223-43.639H8.867L8.867,5.406z"
       id="path2"
       style="fill:#ffffff" /></g></svg>
