<?xml version="1.0" encoding="UTF-8" standalone="no"?>
<svg
   xmlns:dc="http://purl.org/dc/elements/1.1/"
   xmlns:cc="http://creativecommons.org/ns#"
   xmlns:rdf="http://www.w3.org/1999/02/22-rdf-syntax-ns#"
   xmlns:svg="http://www.w3.org/2000/svg"
   xmlns="http://www.w3.org/2000/svg"
   xmlns:sodipodi="http://sodipodi.sourceforge.net/DTD/sodipodi-0.dtd"
   xmlns:inkscape="http://www.inkscape.org/namespaces/inkscape"
   version="1.1"
   id="Layer_1"
   x="0px"
   y="0px"
   viewBox="0 0 122.88 121.61"
   style="enable-background:new 0 0 122.88 121.61"
   xml:space="preserve"
   sodipodi:docname="audio-playlist.svg"
   inkscape:version="1.0.1 (3bc2e813f5, 2020-09-07)"><metadata
     id="metadata13"><rdf:RDF><cc:Work
         rdf:about=""><dc:format>image/svg+xml</dc:format><dc:type
           rdf:resource="http://purl.org/dc/dcmitype/StillImage" /></cc:Work></rdf:RDF></metadata><defs
     id="defs11" /><sodipodi:namedview
     pagecolor="#ffffff"
     bordercolor="#666666"
     borderopacity="1"
     objecttolerance="10"
     gridtolerance="10"
     guidetolerance="10"
     inkscape:pageopacity="0"
     inkscape:pageshadow="2"
     inkscape:window-width="863"
     inkscape:window-height="886"
     id="namedview9"
     showgrid="false"
     inkscape:zoom="6.5701833"
     inkscape:cx="61.439999"
     inkscape:cy="60.805"
     inkscape:window-x="0"
     inkscape:window-y="31"
     inkscape:window-maximized="0"
     inkscape:current-layer="g6" /><style
     type="text/css"
     id="style2">.st0{fill-rule:evenodd;clip-rule:evenodd;}</style><g
     id="g6"><path
       class="st0"
       d="M73.12,0H88.6v5.17c38.74,8.87,43.17,27.47,20.7,56.79c2.39-29.09-0.54-35.33-20.7-36.68v73.54 c0.04,0.39,0.05,0.78,0.05,1.18c0,9.56-10.03,19.04-22.4,21.18c-12.37,2.14-22.4-3.88-22.4-13.44c0-13.04,17.91-24.36,29.26-20.37 L73.12,0L73.12,0z M5.69,73.78C2.55,73.78,0,71.23,0,68.09c0-3.14,2.55-5.69,5.69-5.69h47.63c3.14,0,5.69,2.55,5.69,5.69 c0,3.14-2.55,5.69-5.69,5.69H5.69L5.69,73.78z M5.69,46.14C2.55,46.14,0,43.59,0,40.44c0-3.14,2.55-5.69,5.69-5.69h47.63 c3.14,0,5.69,2.55,5.69,5.69c0,3.14-2.55,5.69-5.69,5.69H5.69L5.69,46.14z M5.69,18.5C2.55,18.5,0,15.95,0,12.8 c0-3.14,2.55-5.69,5.69-5.69h47.63c3.14,0,5.69,2.55,5.69,5.69c0,3.14-2.55,5.69-5.69,5.69H5.69L5.69,18.5z"
       id="path4"
       style="fill:#ffffff" /></g></svg>
