<?xml version="1.0" encoding="UTF-8" standalone="no"?>
<svg
   xmlns:dc="http://purl.org/dc/elements/1.1/"
   xmlns:cc="http://creativecommons.org/ns#"
   xmlns:rdf="http://www.w3.org/1999/02/22-rdf-syntax-ns#"
   xmlns:svg="http://www.w3.org/2000/svg"
   xmlns="http://www.w3.org/2000/svg"
   xmlns:sodipodi="http://sodipodi.sourceforge.net/DTD/sodipodi-0.dtd"
   xmlns:inkscape="http://www.inkscape.org/namespaces/inkscape"
   version="1.1"
   id="Layer_1"
   x="0px"
   y="0px"
   viewBox="0 0 122.88 95.94"
   style="enable-background:new 0 0 122.88 95.94"
   xml:space="preserve"
   sodipodi:docname="meat-food.svg"
   inkscape:version="1.0.1 (3bc2e813f5, 2020-09-07)"><metadata
     id="metadata13"><rdf:RDF><cc:Work
         rdf:about=""><dc:format>image/svg+xml</dc:format><dc:type
           rdf:resource="http://purl.org/dc/dcmitype/StillImage" /></cc:Work></rdf:RDF></metadata><defs
     id="defs11" /><sodipodi:namedview
     pagecolor="#ffffff"
     bordercolor="#666666"
     borderopacity="1"
     objecttolerance="10"
     gridtolerance="10"
     guidetolerance="10"
     inkscape:pageopacity="0"
     inkscape:pageshadow="2"
     inkscape:window-width="791"
     inkscape:window-height="480"
     id="namedview9"
     showgrid="false"
     inkscape:zoom="8.3281215"
     inkscape:cx="61.439999"
     inkscape:cy="47.970001"
     inkscape:window-x="0"
     inkscape:window-y="31"
     inkscape:window-maximized="0"
     inkscape:current-layer="g6" /><style
     type="text/css"
     id="style2">.st0{fill-rule:evenodd;clip-rule:evenodd;}</style><g
     id="g6"><path
       class="st0"
       d="M91.88,1.54c5.26,1.4,10.28,3.83,14.67,6.98c12.89,9.25,16.75,20.66,16.3,36.29 c-0.24,8.37-2.18,16.52-4.96,22.09C96.3,110.09,7.99,102.4,0.53,61.68c-0.53-2.9-0.56-5.91-0.52-9.69 c0.06-4.9,0.14-11.56,3.19-15.52c3.09-4.03,8.54-5.63,15.32-5.85c7.41,0.51,14.26-1.92,20.74-6.81 C55.94,11.23,66.84-5.12,91.88,1.54L91.88,1.54z M94.45,47.89c0,4.12-4.74,7.45-10.59,7.45c-5.85,0-10.59-3.34-10.59-7.45 c0-4.12,4.74-7.45,10.59-7.45C89.7,40.44,94.45,43.78,94.45,47.89L94.45,47.89z M103.34,31.95c3.71,2.99,6.72,6.66,8.51,10.75 c4.92,11.24-1.06,21.35-8.56,29.62c-6.02,5.77-13.83,9.7-23.52,11.73c-8.87,1.85-19.3,2.11-31.36,0.71 c-7.78-0.9-14.4-2.53-19.92-4.87c-6.36-2.7-16.54-9.71-18.92-16.46c-1.85-5.26,0.95-9.72,9.45-9.76 c29.82,0.51,33.32-25.98,57.82-29.49C86.34,22.81,95.94,25.98,103.34,31.95L103.34,31.95z"
       id="path4"
       style="fill:#ffffff" /></g></svg>
