<?xml version="1.0" encoding="UTF-8" standalone="no"?>
<svg
   xmlns:dc="http://purl.org/dc/elements/1.1/"
   xmlns:cc="http://creativecommons.org/ns#"
   xmlns:rdf="http://www.w3.org/1999/02/22-rdf-syntax-ns#"
   xmlns:svg="http://www.w3.org/2000/svg"
   xmlns="http://www.w3.org/2000/svg"
   xmlns:sodipodi="http://sodipodi.sourceforge.net/DTD/sodipodi-0.dtd"
   xmlns:inkscape="http://www.inkscape.org/namespaces/inkscape"
   version="1.1"
   id="Layer_1"
   x="0px"
   y="0px"
   viewBox="0 0 122.88 92.93"
   style="enable-background:new 0 0 122.88 92.93"
   xml:space="preserve"
   sodipodi:docname="fish.svg"
   inkscape:version="1.0.1 (3bc2e813f5, 2020-09-07)"><metadata
     id="metadata13"><rdf:RDF><cc:Work
         rdf:about=""><dc:format>image/svg+xml</dc:format><dc:type
           rdf:resource="http://purl.org/dc/dcmitype/StillImage" /></cc:Work></rdf:RDF></metadata><defs
     id="defs11" /><sodipodi:namedview
     pagecolor="#ffffff"
     bordercolor="#666666"
     borderopacity="1"
     objecttolerance="10"
     gridtolerance="10"
     guidetolerance="10"
     inkscape:pageopacity="0"
     inkscape:pageshadow="2"
     inkscape:window-width="812"
     inkscape:window-height="480"
     id="namedview9"
     showgrid="false"
     inkscape:zoom="8.5978693"
     inkscape:cx="61.439999"
     inkscape:cy="46.465"
     inkscape:window-x="0"
     inkscape:window-y="31"
     inkscape:window-maximized="0"
     inkscape:current-layer="g6" /><style
     type="text/css"
     id="style2">.st0{fill-rule:evenodd;clip-rule:evenodd;}</style><g
     id="g6"><path
       class="st0"
       d="M111.37,14.43l9.02-9.3C107.84-4.37,80,0.64,68,9.48c-5.89-1.75-11.69-1.9-17.65-1.64 c-14.32,0.62-2.32,12.44,2.26,17.11c-3.83,6.2-7.33,12.61-10.66,19.14c-2.54,6.93-7.88,9.58-15.54,8.69l-8.46-1.68 c-4.48-0.89-20.38-5.47-17.63,3.8c2.75,6,9.51,11.25,16.66,16.42c0.62,4.09,1.62,8.29,2.79,12.53c3.35,12.11,8.53,11.89,12.05,0.68 l4.85-15.43c1.5-5.51,4.62-7.99,8.67-8.34c12.37-1.06,22.61,3.33,39.22-1.85c0.75,4.33,1.97,8.57,3.55,12.73 c1.74,3.05,4.22,3.35,7.79-0.41c3.57-6.02,5.85-12.8,7.03-20.25c12.37-12.82,21.08-30.79,19.83-41.37L111.37,14.43L111.37,14.43z M101.28,5.59c-2.54-0.68-5.16,0.83-5.84,3.37c-0.68,2.54,0.83,5.16,3.37,5.84c2.54,0.68,5.15-0.83,5.84-3.37 C105.33,8.88,103.82,6.27,101.28,5.59L101.28,5.59z"
       id="path4"
       style="fill:#ffffff" /></g></svg>
