<?xml version="1.0" encoding="UTF-8" standalone="no"?>
<svg
   xmlns:dc="http://purl.org/dc/elements/1.1/"
   xmlns:cc="http://creativecommons.org/ns#"
   xmlns:rdf="http://www.w3.org/1999/02/22-rdf-syntax-ns#"
   xmlns:svg="http://www.w3.org/2000/svg"
   xmlns="http://www.w3.org/2000/svg"
   xmlns:sodipodi="http://sodipodi.sourceforge.net/DTD/sodipodi-0.dtd"
   xmlns:inkscape="http://www.inkscape.org/namespaces/inkscape"
   version="1.1"
   id="Layer_1"
   x="0px"
   y="0px"
   width="122.88px"
   height="122.881px"
   viewBox="0 0 122.88 122.881"
   enable-background="new 0 0 122.88 122.881"
   xml:space="preserve"
   sodipodi:docname="apps-grid.svg"
   inkscape:version="1.0.1 (3bc2e813f5, 2020-09-07)"><metadata
     id="metadata11"><rdf:RDF><cc:Work
         rdf:about=""><dc:format>image/svg+xml</dc:format><dc:type
           rdf:resource="http://purl.org/dc/dcmitype/StillImage" /></cc:Work></rdf:RDF></metadata><defs
     id="defs9" /><sodipodi:namedview
     pagecolor="#ffffff"
     bordercolor="#666666"
     borderopacity="1"
     objecttolerance="10"
     gridtolerance="10"
     guidetolerance="10"
     inkscape:pageopacity="0"
     inkscape:pageshadow="2"
     inkscape:window-width="1920"
     inkscape:window-height="993"
     id="namedview7"
     showgrid="false"
     inkscape:zoom="2.298884"
     inkscape:cx="5.8437273"
     inkscape:cy="62.936146"
     inkscape:window-x="0"
     inkscape:window-y="31"
     inkscape:window-maximized="1"
     inkscape:current-layer="g4" /><g
     id="g4"><path
       fill-rule="evenodd"
       clip-rule="evenodd"
       d="M94.824,0h28.056v28.056H94.824V0L94.824,0z M0,94.824h28.057v28.057H0V94.824 L0,94.824z M0,47.412h28.057v28.057H0V47.412L0,47.412z M0,0h28.057v28.056H0V0L0,0z M47.412,94.824h28.057v28.057H47.412V94.824 L47.412,94.824z M47.412,47.412h28.057v28.057H47.412V47.412L47.412,47.412z M47.412,0h28.057v28.056H47.412V0L47.412,0z M94.824,94.824h28.056v28.057H94.824V94.824L94.824,94.824z M94.824,47.412h28.056v28.057H94.824V47.412L94.824,47.412z"
       id="path2"
       style="fill:#ffffff" /></g></svg>
